<svg width="32" height="32" viewBox="0 0 32 32" fill="none" xmlns="http://www.w3.org/2000/svg">
<rect width="32" height="32" rx="8" fill="#23A635"/>
<path d="M19.3077 19.6923H22.6923V16.3078H21.8077V18.8077H19.3077V19.6923ZM16 18.3845C16.6538 18.3845 17.2148 18.1506 17.6827 17.6828C18.1506 17.2148 18.3845 16.6538 18.3845 16C18.3845 15.3462 18.1506 14.7853 17.6827 14.3173C17.2148 13.8494 16.6538 13.6155 16 13.6155C15.3462 13.6155 14.7853 13.8494 14.3173 14.3173C13.8494 14.7853 13.6155 15.3462 13.6155 16C13.6155 16.6538 13.8494 17.2148 14.3173 17.6828C14.7853 18.1506 15.3462 18.3845 16 18.3845ZM9.30775 15.6923H10.1923V13.1923H12.6923V12.3077H9.30775V15.6923ZM7 22V10H25V22H7ZM8 21H24V11H8V21Z" fill="#E3E3E3"/>
</svg>
