<svg width="32" height="32" viewBox="0 0 32 32" fill="none" xmlns="http://www.w3.org/2000/svg">
<rect width="32" height="32" rx="8" fill="#2B4E9B"/>
<path d="M15.7019 23.9423C15.8326 23.9423 15.9665 23.9128 16.1036 23.8538C16.2408 23.7949 16.3517 23.7232 16.4364 23.6385L24.2326 15.8423C24.4838 15.5911 24.6777 15.3341 24.8144 15.0713C24.9509 14.8084 25.0191 14.5199 25.0191 14.2058C25.0191 13.8878 24.9509 13.5791 24.8144 13.2798C24.6777 12.9804 24.4838 12.707 24.2326 12.4595L20.4826 8.7095C20.2351 8.45834 19.981 8.27409 19.7201 8.15675C19.4591 8.03942 19.1697 7.98075 18.8519 7.98075C18.5377 7.98075 18.2461 8.03942 17.9769 8.15675C17.7076 8.27409 17.4537 8.45834 17.2154 8.7095L16.3441 9.58075L18.1941 11.4365C18.3928 11.6313 18.5409 11.8532 18.6384 12.102C18.7357 12.3507 18.7844 12.6032 18.7844 12.8595C18.7844 13.3802 18.6142 13.8107 18.2739 14.151C17.9336 14.4913 17.5031 14.6615 16.9826 14.6615C16.7261 14.6615 16.4758 14.6224 16.2316 14.5443C15.9875 14.4661 15.7679 14.3295 15.5729 14.1345L13.6594 12.227L9.34213 16.5443C9.24097 16.6456 9.16505 16.7607 9.11438 16.8895C9.06372 17.0183 9.03838 17.1481 9.03838 17.2788C9.03838 17.5148 9.11405 17.7093 9.26538 17.8625C9.41655 18.0157 9.61013 18.0923 9.84613 18.0923C9.9768 18.0923 10.1107 18.0628 10.2479 18.0038C10.3851 17.9449 10.496 17.8732 10.5806 17.7885L13.7499 14.6193L14.4576 15.327L11.2941 18.4963C11.1928 18.5974 11.1168 18.7124 11.0661 18.8413C11.0156 18.9701 10.9904 19.0999 10.9904 19.2308C10.9904 19.4539 11.0692 19.6443 11.2269 19.802C11.3846 19.9597 11.5749 20.0385 11.7979 20.0385C11.9287 20.0385 12.0627 20.009 12.1999 19.95C12.3371 19.891 12.448 19.8192 12.5326 19.7345L15.9326 16.3405L16.6404 17.048L13.2461 20.448C13.1576 20.5327 13.0849 20.6436 13.0279 20.7808C12.9707 20.9179 12.9421 21.0519 12.9421 21.1828C12.9421 21.4058 13.021 21.5961 13.1786 21.7538C13.3365 21.9116 13.5269 21.9905 13.7499 21.9905C13.8807 21.9905 14.0105 21.9652 14.1394 21.9145C14.2682 21.8638 14.3832 21.7878 14.4844 21.6865L17.8844 18.2923L18.5921 19L15.1921 22.4C15.091 22.5013 15.015 22.6228 14.9644 22.7645C14.9137 22.9062 14.8884 23.0359 14.8884 23.1538C14.8884 23.3898 14.9714 23.5802 15.1374 23.725C15.3034 23.8698 15.4915 23.9423 15.7019 23.9423ZM15.6961 24.9423C15.182 24.9423 14.7419 24.7542 14.3759 24.378C14.0099 24.0017 13.8493 23.5372 13.8941 22.9845C13.3275 22.991 12.8556 22.8218 12.4786 22.477C12.1018 22.132 11.923 21.6506 11.9421 21.0328C11.3243 21.0391 10.8375 20.8625 10.4816 20.503C10.1258 20.1433 9.96397 19.6693 9.99613 19.0808C9.43963 19.0873 8.97422 18.9308 8.59988 18.6115C8.22555 18.2923 8.03838 17.8481 8.03838 17.2788C8.03838 17.0224 8.08805 16.7658 8.18738 16.5088C8.28672 16.2516 8.4338 16.0256 8.62863 15.8308L13.6594 10.8058L16.2421 13.3885C16.3268 13.477 16.4313 13.5498 16.5556 13.6068C16.68 13.6638 16.8204 13.6923 16.9769 13.6923C17.1909 13.6923 17.38 13.6176 17.5441 13.4683C17.7083 13.3189 17.7904 13.1243 17.7904 12.8845C17.7904 12.7282 17.7618 12.5878 17.7046 12.4635C17.6476 12.3392 17.5749 12.2347 17.4864 12.15L14.0461 8.7095C13.7986 8.45834 13.5412 8.27409 13.2739 8.15675C13.0065 8.03942 12.714 7.98075 12.3961 7.98075C12.082 7.98075 11.7967 8.03942 11.5404 8.15675C11.2839 8.27409 11.03 8.45834 10.7786 8.7095L7.73438 11.7595C7.52038 11.9737 7.34738 12.2288 7.21538 12.525C7.08322 12.8212 7.0133 13.1269 7.00563 13.4423C6.99797 13.6679 7.01722 13.8849 7.06338 14.0933C7.10955 14.3016 7.18263 14.4974 7.28263 14.6808L6.52488 15.4385C6.35688 15.1705 6.22547 14.8618 6.13063 14.5125C6.0358 14.1632 5.99222 13.8064 5.99988 13.4423C6.00755 12.9884 6.09855 12.5535 6.27288 12.1375C6.44722 11.7215 6.69663 11.3513 7.02113 11.027L10.0461 8.002C10.3948 7.657 10.7637 7.40058 11.1529 7.23275C11.5419 7.06475 11.9627 6.98075 12.4154 6.98075C12.8679 6.98075 13.2855 7.06475 13.6681 7.23275C14.0508 7.40058 14.4145 7.657 14.7594 8.002L15.6306 8.873L16.5019 8.002C16.8505 7.657 17.2162 7.40058 17.5989 7.23275C17.9816 7.06475 18.3992 6.98075 18.8519 6.98075C19.3044 6.98075 19.7252 7.06475 20.1144 7.23275C20.5034 7.40058 20.8704 7.657 21.2154 8.002L24.9404 11.727C25.2852 12.0718 25.5512 12.459 25.7384 12.8885C25.9256 13.318 26.0191 13.759 26.0191 14.2115C26.0191 14.6642 25.9256 15.0818 25.7384 15.4645C25.5512 15.8472 25.2852 16.2109 24.9404 16.5558L17.1441 24.3463C16.9365 24.5539 16.7105 24.7052 16.4661 24.8C16.222 24.8948 15.9653 24.9423 15.6961 24.9423Z" fill="#E3E3E3"/>
</svg>
