<svg width="24" height="24" viewBox="0 0 24 24" fill="none" xmlns="http://www.w3.org/2000/svg">
<path d="M11.25 4.5V12.9L8.78475 10.4348L7.73075 11.5192L12 15.7885L16.2693 11.5192L15.2153 10.4348L12.75 12.9V4.5H11.25ZM4.5 14.9807V17.6923C4.5 18.1974 4.675 18.625 5.025 18.975C5.375 19.325 5.80258 19.5 6.30775 19.5H17.6923C18.1974 19.5 18.625 19.325 18.975 18.975C19.325 18.625 19.5 18.1974 19.5 17.6923V14.9807H18V17.6923C18 17.7693 17.9679 17.8398 17.9038 17.9038C17.8398 17.9679 17.7692 18 17.6923 18H6.30775C6.23075 18 6.16025 17.9679 6.09625 17.9038C6.03208 17.8398 6 17.7693 6 17.6923V14.9807H4.5Z" fill="#E3E3E3"/>
</svg>
