<svg width="30" height="30" viewBox="0 0 30 30" fill="none" xmlns="http://www.w3.org/2000/svg">
<path d="M10.5077 23.7902C10.0187 23.7902 9.60211 23.6183 9.25806 23.2744C8.91418 22.9303 8.74224 22.5138 8.74224 22.0247V8.49061H7.64941V7.39779H12.0207V6.55713H18.5777V7.39779H22.949V8.49061H21.8562V22.0247C21.8562 22.5278 21.6877 22.9478 21.3507 23.2848C21.0138 23.6217 20.5938 23.7902 20.0907 23.7902H10.5077ZM20.7633 8.49061H9.83507V22.0247C9.83507 22.2209 9.89809 22.3821 10.0241 22.5083C10.1503 22.6343 10.3115 22.6974 10.5077 22.6974H20.0907C20.259 22.6974 20.4132 22.6273 20.5532 22.4873C20.6933 22.3472 20.7633 22.193 20.7633 22.0247V8.49061ZM12.9035 20.5117H13.9963V10.6763H12.9035V20.5117ZM16.6021 20.5117H17.695V10.6763H16.6021V20.5117Z" fill="white"/>
</svg>
