<svg width="20" height="20" viewBox="0 0 20 20" fill="none" xmlns="http://www.w3.org/2000/svg">
<path d="M2.83398 16.1667V15.5H9.66732V6.47129C9.31579 6.41351 8.99982 6.2524 8.7194 5.98796C8.43898 5.72351 8.26454 5.39421 8.19607 5.00004H5.0969L7.50065 10.9263C7.45468 11.468 7.19669 11.8956 6.72669 12.2092C6.25655 12.5228 5.73676 12.6796 5.16732 12.6796C4.59787 12.6796 4.07808 12.5228 3.60794 12.2092C3.13794 11.8956 2.87996 11.468 2.83398 10.9263L5.23773 5.00004H3.83398V4.33337H8.18878C8.27169 3.91032 8.47753 3.55455 8.80628 3.26608C9.13503 2.97761 9.53246 2.83337 9.99857 2.83337C10.4647 2.83337 10.8628 2.97761 11.1929 3.26608C11.5231 3.55455 11.7296 3.90789 11.8125 4.32608H16.1673V5.00004H14.7636L17.1673 10.9213C17.1352 11.4663 16.8842 11.8956 16.4142 12.2092C15.9441 12.5228 15.4208 12.6796 14.8444 12.6796C14.268 12.6796 13.7447 12.5228 13.2746 12.2092C12.8046 11.8956 12.5466 11.468 12.5007 10.9263L14.9044 5.00004H11.8052C11.7368 5.39421 11.5623 5.72351 11.2819 5.98796C11.0015 6.2524 10.6855 6.41351 10.334 6.47129V15.5H17.1673V16.1667H2.83398ZM13.0552 10.8463H16.6127L14.834 6.47275L13.0552 10.8463ZM3.38857 10.8463H6.94607L5.16732 6.47275L3.38857 10.8463ZM9.99628 5.83337C10.3143 5.83337 10.5891 5.71921 10.8204 5.49087C11.0517 5.2624 11.1673 4.98914 11.1673 4.67108C11.1673 4.35303 11.0532 4.07831 10.8248 3.84692C10.5963 3.61567 10.3231 3.50004 10.005 3.50004C9.68697 3.50004 9.41225 3.61421 9.18086 3.84254C8.94961 4.07101 8.83398 4.34428 8.83398 4.66233C8.83398 4.98039 8.94815 5.25511 9.17648 5.4865C9.40496 5.71775 9.67822 5.83337 9.99628 5.83337Z" fill="#82E890"/>
</svg>
