<svg width="27" height="27" viewBox="0 0 27 27" fill="none" xmlns="http://www.w3.org/2000/svg">
<rect width="27" height="27" rx="4" fill="#844040" fill-opacity="0.37"/>
<path d="M9.6155 21.7693C9.168 21.7693 8.78683 21.6119 8.472 21.2973C8.15733 20.9824 8 20.6013 8 20.1538V7.76925H7V6.76925H11V6H17V6.76925H21V7.76925H20V20.1538C20 20.6141 19.8458 20.9984 19.5375 21.3068C19.2292 21.6151 18.8448 21.7693 18.3845 21.7693H9.6155ZM19 7.76925H9V20.1538C9 20.3333 9.05767 20.4808 9.173 20.5963C9.2885 20.7116 9.436 20.7693 9.6155 20.7693H18.3845C18.5385 20.7693 18.6796 20.7052 18.8077 20.577C18.9359 20.4488 19 20.3078 19 20.1538V7.76925ZM11.8078 18.7693H12.8078V9.76925H11.8078V18.7693ZM15.1923 18.7693H16.1923V9.76925H15.1923V18.7693Z" fill="#CC6870"/>
</svg>
