<svg width="100" height="100" viewBox="0 0 100 100" fill="none" xmlns="http://www.w3.org/2000/svg">
<rect width="100" height="100" rx="50" fill="#16191C"/>
<path d="M50 57.5001C51.6389 57.5001 53.0208 56.9376 54.1458 55.8126C55.2708 54.6876 55.8333 53.3056 55.8333 51.6667C55.8333 50.0279 55.2708 48.6459 54.1458 47.5209C53.0208 46.3959 51.6389 45.8334 50 45.8334C48.3611 45.8334 46.9792 46.3959 45.8542 47.5209C44.7292 48.6459 44.1667 50.0279 44.1667 51.6667C44.1667 53.3056 44.7292 54.6876 45.8542 55.8126C46.9792 56.9376 48.3611 57.5001 50 57.5001ZM50 56.3334C48.6667 56.3334 47.5556 55.889 46.6667 55.0001C45.7778 54.1112 45.3333 53.0001 45.3333 51.6667C45.3333 50.3334 45.7778 49.2223 46.6667 48.3334C47.5556 47.4445 48.6667 47.0001 50 47.0001C51.3333 47.0001 52.4444 47.4445 53.3333 48.3334C54.2222 49.2223 54.6667 50.3334 54.6667 51.6667C54.6667 53.0001 54.2222 54.1112 53.3333 55.0001C52.4444 55.889 51.3333 56.3334 50 56.3334ZM38 62.8334C37.2778 62.8334 36.6806 62.5973 36.2083 62.1251C35.7361 61.6529 35.5 61.0556 35.5 60.3334V43.0001C35.5 42.2779 35.7361 41.6806 36.2083 41.2084C36.6806 40.7362 37.2778 40.5001 38 40.5001H42.8333L45.9167 37.1667H54.0833L57.1667 40.5001H62C62.7222 40.5001 63.3194 40.7362 63.7917 41.2084C64.2639 41.6806 64.5 42.2779 64.5 43.0001V60.3334C64.5 61.0556 64.2639 61.6529 63.7917 62.1251C63.3194 62.5973 62.7222 62.8334 62 62.8334H38ZM38 61.6667H62C62.3889 61.6667 62.7083 61.5417 62.9583 61.2917C63.2083 61.0417 63.3333 60.7223 63.3333 60.3334V43.0001C63.3333 42.6112 63.2083 42.2917 62.9583 42.0417C62.7083 41.7917 62.3889 41.6667 62 41.6667H56.6667L53.5833 38.3334H46.4167L43.3333 41.6667H38C37.6111 41.6667 37.2917 41.7917 37.0417 42.0417C36.7917 42.2917 36.6667 42.6112 36.6667 43.0001V60.3334C36.6667 60.7223 36.7917 61.0417 37.0417 61.2917C37.2917 61.5417 37.6111 61.6667 38 61.6667Z" fill="#6A6F74"/>
</svg>
