<svg width="16" height="16" viewBox="0 0 16 16" fill="none" xmlns="http://www.w3.org/2000/svg">
<path d="M4.51172 2.74707V9.39844C4.51177 10.0307 4.64925 10.5931 4.9248 11.085C5.20593 11.5768 5.60126 11.964 6.10938 12.2451C6.61741 12.526 7.20928 12.667 7.88477 12.667C8.5659 12.667 9.15837 12.5262 9.66113 12.2451C10.1692 11.964 10.5612 11.5768 10.8369 11.085C11.1179 10.5931 11.2587 10.0307 11.2588 9.39844V6.10449L14.7695 7.85156V9.69824C14.7695 10.9091 14.4808 11.9697 13.9023 12.8779C13.3294 13.7858 12.5264 14.4939 11.4941 15.002C10.4616 15.5047 9.25792 15.7568 7.88477 15.7568C6.5064 15.7568 5.30103 15.5046 4.26855 15.002C3.23611 14.4938 2.43243 13.786 1.85938 12.8779C1.28635 11.9697 1.00005 10.9091 1 9.69824V1L4.51172 2.74707Z" fill="white"/>
<rect x="8.2616" y="3.06396" width="3.0574" height="3.0574" fill="#5761D7"/>
<rect x="11.3188" y="1.38196" width="1.68157" height="1.68157" fill="#DA0404"/>
</svg>
