<svg width="16" height="16" viewBox="0 0 16 16" fill="none" xmlns="http://www.w3.org/2000/svg">
<rect width="16" height="16" rx="2" fill="url(#paint0_linear_1935_2522)"/>
<path d="M5.67578 3.33203V8.6377C5.6759 9.11929 5.78028 9.54823 5.99023 9.92285C6.20439 10.2974 6.50561 10.5916 6.89258 10.8057C7.27973 11.0198 7.73129 11.127 8.24609 11.127C8.76481 11.1269 9.21572 11.0197 9.59863 10.8057C9.98565 10.5916 10.2851 10.2975 10.4951 9.92285C10.7092 9.54823 10.8163 9.11929 10.8164 8.6377V5.88965L13.4912 7.2207V8.86621C13.4911 9.78858 13.2707 10.5963 12.8301 11.2881C12.3935 11.9798 11.7816 12.5191 10.9951 12.9062C10.2085 13.2892 9.29206 13.4814 8.24609 13.4814C7.19582 13.4814 6.27693 13.2893 5.49023 12.9062C4.70371 12.5192 4.09187 11.9798 3.65527 11.2881C3.21877 10.5963 3.00012 9.78858 3 8.86621V2L5.67578 3.33203Z" fill="white"/>
<rect x="8.53259" y="3.57251" width="2.32942" height="2.32942" fill="#5761D7"/>
<rect x="10.8619" y="2.29102" width="1.28118" height="1.28118" fill="#DA0404"/>
<defs>
<linearGradient id="paint0_linear_1935_2522" x1="8" y1="0" x2="8" y2="16" gradientUnits="userSpaceOnUse">
<stop stop-color="#07122A"/>
<stop offset="1" stop-color="#123FA2"/>
</linearGradient>
</defs>
</svg>
