<svg width="182" height="130" viewBox="0 0 182 130" fill="none" xmlns="http://www.w3.org/2000/svg">
<g opacity="0.34">
<path d="M70 81.5C61.2 87.1 57.3333 78.8333 56.5 74C50.5 76.4 44.3333 75.6667 42 75C44 91 56.5 100.5 68 98.5C77.2 96.9 82.5 88.5 84 84.5L87.5 96L85.5 117.5C100.7 114.3 115.833 116.167 121.5 117.5L120 95L123.5 85C126 90.8333 134.2 101.7 147 98.5C159.8 95.3 164.667 81.5 165.5 75C159.5 76.2 153 74.8333 150.5 74C149.5 79 146.5 84.5 140 83C134.8 81.8 129.833 73.1667 128 69C128 67.8 127 66.1667 126.5 65.5L114 59C112.333 61.3333 108.9 66.1 108.5 66.5C108.1 66.9 105 68.6667 103.5 69.5C100.3 68.3 94.8333 62.3333 92.5 59.5C89.6667 61.1667 83.6 64.6 82 65C80.4 65.4 79.6667 67.5 79.5 68.5L77 72C75 76.8 71.5 80.3333 70 81.5Z" fill="white"/>
<path d="M41.9458 74.4078C42.002 74.5687 42.4022 74.7224 42.9453 74.8617C42.8396 74.5736 42.7264 74.277 42.6536 74.028C42.5494 74.0155 42.4371 73.9906 42.3164 73.9533C42.2609 73.9533 42.1894 73.9289 42.1225 73.9143C41.9375 74.0301 41.7929 74.1474 41.7441 74.2651V74.2916C41.8412 74.2975 41.9181 74.3246 41.9458 74.4078Z" fill="#3EB785"/>
<path d="M55.3675 74.1255C56.0428 73.8972 56.4247 73.6803 56.4247 73.5318C56.4247 73.462 56.4986 73.4451 56.5501 73.4067C56.3667 73.1228 55.6488 72.8971 54.584 72.7427C54.7333 72.9996 54.8808 73.2619 55.0383 73.5401C55.1448 73.7293 55.2556 73.927 55.3675 74.1255Z" fill="#3EB785"/>
<path d="M41.744 74.265C41.7363 74.2728 41.7414 74.2802 41.7363 74.2878C41.7401 74.2878 41.7403 74.2918 41.744 74.2921V74.265Z" fill="#436FD0"/>
<path d="M151.815 74.1263C152.096 73.6344 152.357 73.1934 152.623 72.7388C151.543 72.8935 150.815 73.1213 150.631 73.4072C150.682 73.4456 150.756 73.4622 150.756 73.5318C150.756 73.6804 151.139 73.8977 151.815 74.1263Z" fill="#3EB785"/>
<path d="M41.2094 73.3034L44.7939 69.2618C45.0479 68.6784 45.4142 68.118 45.7681 67.5761C46.2802 66.7873 46.813 65.9735 46.9963 65.0871C47.053 64.8152 47.001 64.5373 46.989 64.2593L23.3655 90.8625C20.3547 94.2586 15.1533 94.5775 11.7478 91.5747L5.28833 85.8793C1.8829 82.8765 1.56308 77.6894 4.57387 74.2936L50.9161 22.1061C53.9271 18.7099 59.1284 18.391 62.5337 21.3936L68.9934 27.0893C72.399 30.0918 72.7187 35.2789 69.7076 38.675L50.592 60.202C51.1181 60.6302 51.5365 61.1019 51.9091 61.5849L72.0259 38.9293C75.3158 35.2183 74.9664 29.5502 71.2453 26.2693L63.074 19.0645C59.3529 15.7836 53.6694 16.1321 50.3792 19.843L2.25614 74.0394C-1.03411 77.7503 -0.684621 83.4184 3.03646 86.6994L11.2078 93.9039C14.9289 97.1852 20.6127 96.8366 23.9026 93.1258L41.247 73.5925C41.2118 73.5635 41.1704 73.5393 41.1596 73.4945C41.1429 73.4279 41.1636 73.3553 41.2094 73.3034Z" fill="#3EB785"/>
<path d="M28.8363 75.207L22.3566 75.6323C21.3334 72.5286 18.3065 70.4029 14.9388 70.6154C10.8888 70.8708 7.81921 74.3567 8.11771 78.3956C8.3735 82.3919 11.8692 85.453 15.8766 85.198C19.287 84.9852 21.9728 82.4345 22.5696 79.2459L29.0496 78.8209C30.0728 78.7783 30.84 77.8855 30.7547 76.9077C30.7121 75.8873 29.817 75.1644 28.8363 75.207ZM15.7488 83.2847C12.8072 83.4547 10.2065 81.2016 10.0361 78.2681C9.82304 75.2921 12.0823 72.7411 15.0665 72.5286C18.008 72.3587 20.5658 74.6117 20.7791 77.5453C20.9923 80.5213 18.7327 83.0723 15.7488 83.2847Z" fill="white"/>
<path d="M42.6525 74.0279C42.7254 74.277 42.8386 74.5737 42.9443 74.8616C43.0869 74.8981 43.2557 74.9303 43.4284 74.963C43.2525 74.517 43.1204 74.1223 43.0231 73.7726C42.9981 73.6791 42.9149 73.6148 42.8191 73.6148C42.7067 73.6148 42.5693 73.5879 42.4152 73.5401C42.307 73.4924 42.2446 73.5339 42.1571 73.4966C42.0113 73.4488 41.8698 73.4011 41.7325 73.3533L45.1338 69.5171C45.1505 69.4984 45.163 69.4797 45.1713 69.459C45.4086 68.8985 45.7542 68.3691 46.1246 67.8066C46.6575 66.9866 47.2112 66.1376 47.411 65.1744C47.6317 64.1178 47.3777 62.9719 46.7366 62.1042C46.4618 61.7346 46.1246 61.4191 45.7958 61.116C45.5001 60.8399 45.2212 60.5805 44.9839 60.2815C44.526 59.7106 44.2262 58.8201 44.6425 58.2119C44.8382 57.9275 45.0922 57.7635 45.4044 57.7241C45.9457 57.6597 46.5868 57.9835 46.9698 58.3177C47.511 58.7828 48.1313 59.144 48.7308 59.4927C49.2678 59.8041 49.8215 60.1259 50.3086 60.516C51.47 61.4585 52.257 62.5608 52.5817 63.7046C52.9064 64.8588 52.7982 66.1209 52.7024 67.2315C52.6233 68.1802 52.4734 69.023 52.2527 69.8035C52.2319 69.8657 52.2443 69.9343 52.286 69.9882C52.898 70.8207 53.4892 71.7237 54.1428 72.828C54.3134 73.1207 54.4841 73.4259 54.6632 73.7476C54.7589 73.9116 54.8505 74.0797 54.9505 74.252C53.4225 74.6901 51.1578 75.0284 48.9388 75.1446C48.6479 75.1669 48.3969 75.1673 48.1218 75.18C48.4046 75.1677 48.6367 75.1794 48.9346 75.1592C51.8879 74.9984 54.1347 74.5422 55.367 74.1254C55.2551 73.9269 55.1443 73.7292 55.0379 73.54C54.8804 73.2619 54.733 72.9995 54.5836 72.7427C54.5591 72.7007 54.5339 72.6537 54.5092 72.6122C53.8681 71.5307 53.2894 70.6401 52.6899 69.8202C52.9064 69.0396 53.048 68.2052 53.1271 67.269C53.2269 66.121 53.3394 64.8194 52.9897 63.5884C52.7914 62.8917 52.4011 62.2246 51.9075 61.585C51.5349 61.102 51.1165 60.6303 50.5904 60.2021C50.5844 60.1972 50.581 60.191 50.575 60.1861C50.0671 59.7751 49.4967 59.4449 48.9472 59.1252C48.3353 58.7703 47.7565 58.4361 47.2528 57.9981C46.8407 57.6411 46.1954 57.2902 45.5583 57.2902C45.4876 57.2902 45.4168 57.2944 45.3502 57.3026C44.9172 57.3586 44.555 57.5891 44.2928 57.971C43.7474 58.7619 44.0804 59.8351 44.6508 60.5472C44.9089 60.871 45.2128 61.1533 45.5085 61.4274C45.8332 61.7305 46.1412 62.019 46.3953 62.3574C46.8004 62.9044 46.9578 63.579 46.9875 64.2594C46.9995 64.5374 47.0515 64.8153 46.9948 65.0872C46.8116 65.9736 46.2787 66.7874 45.7667 67.5762C45.4128 68.118 45.0465 68.6785 44.7924 69.2618L41.208 73.3035C41.1622 73.3554 41.1414 73.428 41.158 73.4945C41.1689 73.5394 41.2103 73.5636 41.2455 73.5925C41.2636 73.6075 41.2683 73.6353 41.2912 73.6439C41.5077 73.7269 41.7658 73.8162 41.9947 73.8888C42.0408 73.9119 42.0778 73.9047 42.1215 73.9143C42.1884 73.9288 42.2599 73.9532 42.3153 73.9532C42.4361 73.9906 42.5484 74.0154 42.6525 74.0279Z" fill="white"/>
<path d="M46.6821 75.2166C46.3214 75.2143 45.9653 75.2099 45.6504 75.1956C45.9799 75.2101 46.3157 75.2153 46.6821 75.2166Z" fill="#436FD0"/>
<path d="M44.2621 75.097C44.068 75.0767 43.9388 75.0578 43.7871 75.0384C43.9378 75.0609 44.0947 75.0778 44.2621 75.097Z" fill="#436FD0"/>
<path d="M158.701 42.2418C158.031 42.6095 157.411 43.0377 156.691 43.3421C156.221 43.5411 155.735 43.6194 155.26 43.7845L155.959 45.4293L159.389 43.978L159.432 43.9599L158.701 42.2418Z" fill="#3EB785"/>
<path d="M168.666 13.7743C163.806 2.29576 150.505 -3.061 139.037 1.78559C127.527 6.67452 122.155 19.9389 127.015 31.3751C131.704 42.3863 144.11 47.658 155.279 43.7891C155.748 43.6191 156.217 43.534 156.686 43.3215C157.411 43.0239 158.05 42.5989 158.69 42.2587C168.751 36.732 173.27 24.4879 168.666 13.7743ZM154.597 38.3901C145.858 42.0888 135.712 38.0074 132.003 29.2921C128.294 20.5767 132.387 10.4584 141.126 6.75972C149.865 3.06101 160.011 7.14217 163.72 15.8578C167.429 24.573 163.337 34.6914 154.597 38.3901Z" fill="#3EB785"/>
<path d="M181.484 85.1567L164.249 44.8834C163.655 43.4942 162.043 42.8486 160.65 43.4415L159.432 43.9599L159.389 43.978L154.749 45.9529C153.356 46.5459 152.708 48.1529 153.303 49.5422L157.398 59.1106C157.631 58.9666 157.852 58.7972 158.085 58.6623C158.693 58.3093 159.264 57.9773 159.772 57.5434C160.18 57.1862 160.825 56.8334 161.462 56.8334C161.528 56.8334 161.599 56.8375 161.67 56.8479C162.099 56.9019 162.465 57.1324 162.727 57.5143C163.273 58.3072 162.94 59.3805 162.369 60.0925C162.111 60.4123 161.812 60.6904 161.524 60.9603C161.191 61.2675 160.879 61.5581 160.625 61.9028C160.055 62.6708 159.83 63.6922 160.021 64.6346C160.101 65.0124 160.28 65.3674 160.471 65.7431L160.646 66.1437C160.825 66.4572 161.041 66.7831 161.25 67.1091C161.928 68.1429 162.628 69.2139 162.557 70.4803C162.557 70.4948 162.553 70.5177 162.544 70.5426L163.785 73.4446V73.4467L164.255 74.5967C164.276 74.6382 164.276 74.686 164.268 74.7296C164.256 74.7726 164.239 74.8155 164.225 74.8585C164.773 74.7205 165.179 74.5681 165.238 74.4078C165.271 74.3082 165.371 74.2542 165.479 74.2688C165.583 74.2895 165.654 74.3829 165.65 74.4867C165.613 75.3342 165.433 76.3591 165.215 77.379L170.537 89.8155C171.132 91.2047 172.743 91.8504 174.136 91.2574L180.038 88.7459C181.431 88.1529 182.079 86.546 181.484 85.1567Z" fill="#21784F"/>
<path d="M152.23 74.2531C153.199 72.5603 154.069 71.0732 154.876 69.9572C154.918 69.9011 154.931 69.8263 154.906 69.7599C154.606 68.9234 154.414 67.9768 154.314 66.779C154.219 65.5999 154.115 64.3814 154.439 63.25C154.851 61.8011 155.905 60.7175 156.712 60.0615C157.199 59.6671 157.757 59.3433 158.299 59.0298C158.898 58.6832 159.514 58.3241 160.051 57.8632C160.401 57.5601 160.938 57.2591 161.458 57.2591C161.508 57.2591 161.562 57.2633 161.617 57.2695C161.925 57.3089 162.183 57.473 162.378 57.7552C162.795 58.3634 162.495 59.2561 162.037 59.827C161.8 60.1218 161.512 60.3895 161.234 60.649C160.901 60.9563 160.559 61.2739 160.284 61.6496C159.643 62.5152 159.389 63.6611 159.606 64.7178C159.693 65.1537 159.897 65.5502 160.085 65.9239L160.268 66.3349C160.459 66.6753 160.68 67.0075 160.896 67.3397C161.554 68.3527 162.183 69.3096 162.133 70.4306C162.12 70.4597 162.108 70.5012 162.104 70.5199C162.099 70.5594 162.104 70.5967 162.12 70.632L163.394 73.6109L163.836 74.6903C163.819 74.7443 163.798 74.7983 163.777 74.8543C163.762 74.8894 163.75 74.9243 163.738 74.9595C163.912 74.9273 164.081 74.8948 164.225 74.8587C164.24 74.8157 164.257 74.7729 164.269 74.7298C164.277 74.6862 164.277 74.6385 164.256 74.597L163.786 73.4469V73.4449L162.545 70.5428C162.553 70.5179 162.558 70.4951 162.558 70.4805C162.628 69.2142 161.929 68.1431 161.25 67.1093C161.042 66.7835 160.826 66.4575 160.647 66.144L160.472 65.7433C160.28 65.3677 160.101 65.0126 160.022 64.6348C159.831 63.6924 160.055 62.6711 160.626 61.903C160.88 61.5584 161.192 61.2678 161.525 60.9605C161.812 60.6907 162.112 60.4125 162.37 60.0928C162.941 59.3807 163.274 58.3076 162.728 57.5146C162.466 57.1325 162.1 56.9021 161.671 56.8482C161.6 56.8378 161.529 56.8336 161.463 56.8336C160.826 56.8336 160.18 57.1865 159.772 57.5436C159.264 57.9774 158.694 58.3096 158.086 58.6625C157.852 58.7974 157.632 58.9669 157.398 59.1109C157.075 59.3102 156.741 59.4906 156.446 59.7316C155.218 60.7259 154.381 61.9029 154.031 63.1339C153.686 64.34 153.79 65.598 153.89 66.8144C153.99 67.9998 154.173 68.9525 154.468 69.7995C153.89 70.6057 153.269 71.6338 152.622 72.739C152.356 73.1936 152.095 73.6344 151.814 74.1265C151.94 74.1683 152.085 74.2104 152.23 74.2531Z" fill="white"/>
<path d="M158.233 75.1447C156.576 75.0596 154.895 74.85 153.551 74.5764C154.784 74.8323 156.364 75.0567 158.246 75.1592C160.448 75.3043 162.21 75.2098 163.441 75.0206C161.938 75.2213 160.044 75.2802 158.233 75.1447Z" fill="#436FD0"/>
<path d="M153.308 74.5235C152.956 74.4475 152.629 74.3673 152.338 74.2833C152.626 74.3647 152.949 74.4444 153.308 74.5235Z" fill="#436FD0"/>
<path d="M119.68 117.146L119.84 119.179C120.881 118.775 121.502 118.329 121.612 117.854C121.598 117.842 121.573 117.845 121.563 117.829C121.404 117.596 120.728 117.362 119.68 117.146Z" fill="#3EB785"/>
<path d="M85.7209 117.829C85.6967 117.866 85.6434 117.853 85.6016 117.868C85.7192 118.334 86.3239 118.773 87.3413 119.171L87.4994 117.165C86.5036 117.376 85.8758 117.603 85.7209 117.829Z" fill="#3EB785"/>
<path d="M86.6037 121.019L84.7539 125.404H86.8514L87.1959 121.034C86.8415 121.026 86.6037 121.019 86.6037 121.019Z" fill="#3EB785"/>
<path d="M122.428 125.404L120.578 121.019C120.578 121.019 120.341 121.026 119.986 121.034L120.331 125.404L122.428 125.404Z" fill="#3EB785"/>
<path d="M102.801 124.821L103.184 129.667H86.5156L86.8568 125.416L87.1976 121.037L87.3257 119.166L87.4961 117.168C87.7519 117.126 88.0931 117.041 88.4341 116.998C90.6935 120.059 100.669 120.697 100.669 120.697L102.076 116.191H103.909L102.801 124.821Z" fill="#436FD0"/>
<path d="M120.663 129.667H103.184L102.801 124.821L103.909 116.191H105.103L106.51 120.697C106.51 120.697 116.528 120.059 118.787 116.998C119.086 117.041 119.427 117.083 119.682 117.126L119.853 119.166L119.981 121.037L120.322 125.416L120.663 129.667Z" fill="#436FD0"/>
<path d="M94.5303 59.5228C95.6468 59.1917 96.8851 58.906 98.2524 58.6893L98.5282 57.6475C95.5956 57.6861 93.5801 57.8955 93.5801 58.4441L94.0102 59.0088C94.1591 59.2057 94.369 59.3377 94.5303 59.5228Z" fill="#3EB785"/>
<path d="M112.866 59.3102C112.957 59.1986 113.083 59.1241 113.171 59.0087L113.601 58.444C113.601 57.9361 111.867 57.7196 109.289 57.6583L109.373 58.5751C110.662 58.7604 111.829 59.01 112.866 59.3102Z" fill="#3EB785"/>
<path d="M104.87 35.1455C104.869 35.1465 104.868 35.1471 104.867 35.1482C104.869 35.1479 104.87 35.1485 104.872 35.1482C104.871 35.1471 104.87 35.1465 104.87 35.1455Z" fill="#436FD0"/>
<path d="M94.7648 43.6433C94.9988 43.6143 95.2424 43.6605 95.4832 43.708C95.585 42.5454 95.7879 40.0368 95.9078 37.8989C95.6711 37.8605 95.4338 37.7944 95.2449 37.6597C94.802 37.3439 94.5512 36.841 94.4253 36.3295C93.9492 34.3945 95.1393 32.3049 96.8829 31.1107C98.6265 29.9166 100.815 29.472 102.944 29.2946C105.035 29.1202 107.233 29.1958 109.047 30.1317C110.843 31.0583 112.074 32.7525 112.722 34.581C113.075 35.5775 113.27 36.6198 113.373 37.6693C113.434 38.2965 113.828 39.7273 113.008 40.0328C112.542 40.2064 112.028 40.0473 111.501 39.8041C111.611 41.3914 111.733 42.8926 111.804 43.7104C112.038 43.6653 112.272 43.6142 112.521 43.6431C113.187 43.7137 113.786 44.0459 114.207 44.5773C114.413 44.8388 114.562 45.1347 114.653 45.4484C114.899 45.4474 115.144 45.3877 115.355 45.2662C115.497 45.1858 115.592 45.1131 115.679 45.0268C115.714 44.9896 115.751 44.9486 115.785 44.9071C115.84 44.84 115.885 44.7666 115.923 44.6876C116.037 44.4585 116.079 44.1925 116.046 43.9354C116.039 43.8685 116.024 43.8036 116.005 43.7413C115.972 43.6104 115.918 43.4859 115.846 43.3689C115.827 43.3375 115.805 43.3051 115.781 43.2762C115.767 43.2537 115.755 43.2394 115.74 43.2204C115.815 43.2155 115.843 43.2108 115.872 43.2026C115.952 43.1914 116.03 43.1683 116.103 43.1364C116.138 43.1216 116.169 43.106 116.199 43.0907C116.465 42.9483 116.671 42.7033 116.744 42.4218C116.854 41.9885 116.645 41.4892 116.245 41.2382C117.139 40.2595 116.897 38.5323 115.762 37.765C116.34 36.2071 115.617 34.2783 114.12 33.3881C114.596 32.3078 113.659 30.8753 112.421 30.796C112.55 30.444 112.425 30.0108 112.116 29.7667C111.811 29.5199 111.344 29.4789 111.006 29.6649C110.667 28.4931 109.488 27.5769 108.226 27.4995C107.976 27.0625 107.208 27.0405 106.948 27.4601C106.079 26.7997 104.895 26.5802 103.835 26.809C103.392 26.9043 102.969 27.0773 102.603 27.3332C102.517 27.1972 102.399 27.0838 102.266 26.9979C101.949 26.7864 101.523 26.7171 101.14 26.7924C100.87 26.8416 100.621 26.9613 100.444 27.152C100.388 27.2075 100.338 27.2719 100.297 27.3424C99.373 27.1133 98.3288 27.5454 97.881 28.3373C97.8266 28.3547 97.7966 28.336 97.7667 28.3171C97.2866 28.0313 96.6442 28.0169 96.1694 28.2922C96.0708 28.3487 95.9815 28.4151 95.9003 28.495C95.7526 28.6429 95.6574 28.781 95.5902 28.9294C95.5767 28.953 95.5686 28.9702 95.5642 28.9883C95.5195 29.0924 95.4856 29.1993 95.4736 29.3114C95.4664 29.3402 95.4638 29.3664 95.4604 29.3962C95.4473 29.512 95.4497 29.6277 95.4676 29.7432C95.3614 29.7211 95.2564 29.711 95.1476 29.7152C95.125 29.7133 95.0979 29.7144 95.0735 29.7201C94.9837 29.725 94.8997 29.739 94.8135 29.7604C94.0582 29.9558 93.4623 30.6771 93.5721 31.4211C92.9627 31.3033 92.2955 31.5931 92.0002 32.1079C91.7049 32.6228 91.803 33.3216 92.2303 33.7594C91.6828 34.0783 91.3675 34.7223 91.4592 35.3354C91.555 35.9493 92.0543 36.5005 92.6804 36.6759C91.8472 36.9063 91.1749 37.5784 90.9763 38.3889C90.7937 39.1345 91.0208 39.9643 91.5549 40.5471C91.5812 40.5802 91.6085 40.6098 91.6369 40.6361C91.6551 40.6558 91.6734 40.6755 91.6923 40.6916C91.6689 40.709 91.6455 40.7264 91.6221 40.7435C91.5888 40.77 91.5589 40.7973 91.5282 40.8281C91.2571 41.1034 91.1479 41.5176 91.2612 41.8866C91.337 42.143 91.5202 42.3677 91.7538 42.5131C91.7665 42.5236 91.7793 42.5346 91.7975 42.539C91.8675 42.5828 91.9427 42.6205 92.0218 42.6436C92.0462 42.6532 92.0671 42.6623 92.0897 42.6639C92.1615 42.6851 92.2313 42.6984 92.3065 42.7053C92.2344 42.7642 92.1733 42.826 92.1137 42.8961C92.0939 42.9143 92.0767 42.9368 92.0596 42.9595C91.994 43.0394 91.9383 43.1255 91.8889 43.2171C91.654 43.6735 91.6051 44.1718 91.7559 44.6227C91.8962 45.0379 92.23 45.3581 92.6187 45.5942C92.7025 45.2278 92.8441 44.878 93.0829 44.5772C93.4992 44.0461 94.0987 43.7139 94.7648 43.6433Z" fill="#436FD0"/>
<path d="M111.988 48.7354C111.834 48.7194 111.7 48.6444 111.555 48.601C111.423 49.0419 111.247 49.4485 111.045 49.8354C111.797 49.8004 112.427 49.2962 112.741 48.6527C112.577 48.688 112.419 48.7479 112.246 48.7479C112.159 48.7479 112.071 48.7438 111.988 48.7354Z" fill="#436FD0"/>
<path d="M114.553 47.0932C114.556 47.0888 114.564 47.0882 114.567 47.0838C114.893 46.6798 114.904 46.104 114.674 45.6325C114.731 45.8995 114.773 46.172 114.744 46.452C114.72 46.6827 114.632 46.8863 114.553 47.0932Z" fill="#436FD0"/>
<path d="M95.3711 48.7142C95.509 48.7578 95.6529 48.7464 95.7971 48.7567C95.7794 48.7022 95.7495 48.6573 95.7331 48.6021C95.6115 48.6382 95.4988 48.6971 95.3711 48.7142Z" fill="#436FD0"/>
<path d="M94.5312 59.5228C94.6387 59.6463 94.7655 59.7475 94.8784 59.8656C95.9595 59.5568 97.151 59.2895 98.4574 59.0879C98.5407 59.0754 98.6073 59.0153 98.6281 58.9322L100.182 53.0824C100.048 53.0331 99.9023 53.0079 99.7717 52.9521L98.5293 57.6475L98.2535 58.6893C96.8861 58.906 95.6477 59.1916 94.5312 59.5228Z" fill="white"/>
<path d="M108.387 52.5032L108.964 58.7806C108.973 58.8803 109.048 58.9591 109.148 58.9716C110.383 59.1431 111.51 59.3762 112.516 59.6551C112.626 59.5331 112.76 59.4377 112.865 59.3103C111.828 59.01 110.662 58.7604 109.372 58.5752L109.288 57.6584L108.79 52.2191C108.652 52.3115 108.531 52.4191 108.387 52.5032Z" fill="white"/>
<path d="M95.6309 48.1968C95.5161 48.2321 95.4095 48.289 95.2885 48.3033C95.3223 48.296 95.3577 48.31 95.391 48.3009C95.5427 48.2591 95.6066 48.4937 95.4558 48.5353C94.7476 48.7296 93.9636 48.561 93.4056 48.0819C92.8597 47.6133 92.5785 46.8645 92.664 46.154C92.6825 46.0004 92.9266 45.999 92.9078 46.154C92.8306 46.7939 93.0635 47.4508 93.5475 47.8834C93.989 48.2779 94.6044 48.4003 95.1841 48.3056C94.6499 48.3482 94.1654 48.1959 93.753 47.8637C93.3075 47.5025 93.0287 46.9857 92.9704 46.4065C92.9079 45.8397 93.0661 45.2814 93.4158 44.8392C93.7614 44.3991 94.2568 44.1251 94.8063 44.067C94.877 44.0586 94.9478 44.0566 95.0186 44.0566C95.1708 44.0566 95.2916 44.1728 95.4378 44.2058C95.4482 44.0976 95.4627 43.9381 95.483 43.7081C95.2423 43.6607 94.9986 43.6144 94.7646 43.6435C94.0985 43.714 93.499 44.0462 93.0826 44.5777C92.8438 44.8784 92.7022 45.2282 92.6185 45.5946C92.5547 45.873 92.5152 46.1593 92.5456 46.4522C92.6164 47.1413 92.9494 47.762 93.4865 48.1939C93.9361 48.5571 94.4773 48.7481 95.0435 48.7481C95.1267 48.7481 95.2142 48.7439 95.3016 48.7356C95.326 48.733 95.3461 48.7177 95.3706 48.7144C95.4983 48.6973 95.6111 48.6384 95.7325 48.6023C95.6937 48.4713 95.6637 48.3325 95.6309 48.1968Z" fill="#436FD0"/>
<path d="M93.7501 45.8661C93.6565 46.3524 93.9049 46.8695 94.3447 47.1002C94.4833 47.1728 94.6067 46.9632 94.4678 46.8903C94.1285 46.7123 93.9127 46.3133 93.9851 45.9307C94.0562 45.5531 94.3931 45.2413 94.7772 45.2021C94.9318 45.1863 94.9333 44.9431 94.7772 44.959C94.2892 45.0091 93.8443 45.3757 93.7501 45.8661Z" fill="#436FD0"/>
<path d="M93.547 47.8833C93.063 47.4507 92.8302 46.7938 92.9074 46.1539C92.9262 45.9989 92.682 46.0003 92.6636 46.1539C92.578 46.8644 92.8592 47.6132 93.4052 48.0819C93.963 48.5609 94.747 48.7295 95.4553 48.5352C95.6063 48.4937 95.5422 48.259 95.3905 48.3008C95.3573 48.3099 95.3218 48.2959 95.288 48.3032C95.2536 48.3107 95.2182 48.2998 95.1837 48.3054C94.604 48.4002 93.9886 48.2778 93.547 47.8833Z" fill="#436FD0"/>
<path d="M112.519 43.6433C112.271 43.6142 112.036 43.6653 111.802 43.7105C111.819 43.9044 111.831 44.0336 111.84 44.1387C111.981 44.1073 112.117 44.0565 112.265 44.0565C112.336 44.0565 112.407 44.0586 112.478 44.0669C113.027 44.125 113.523 44.399 113.868 44.8391C114.218 45.2833 114.38 45.8396 114.318 46.4064C114.204 47.4781 113.333 48.2724 112.317 48.3106C112.83 48.3383 113.352 48.2299 113.739 47.8834C114.222 47.4498 114.456 46.7946 114.378 46.154C114.36 45.9987 114.604 46.0006 114.622 46.154C114.708 46.8645 114.426 47.6133 113.88 48.0819C113.323 48.5609 112.539 48.7296 111.83 48.5353C111.679 48.4938 111.744 48.2591 111.895 48.3009C111.929 48.3102 111.965 48.2957 111.999 48.3033C111.877 48.2887 111.77 48.2319 111.654 48.1961C111.621 48.3315 111.592 48.4704 111.553 48.6011C111.698 48.6445 111.832 48.7195 111.986 48.7355C112.069 48.7438 112.157 48.748 112.244 48.748C112.417 48.748 112.575 48.6881 112.739 48.6527C113.565 48.476 114.24 47.9026 114.551 47.0933C114.63 46.8864 114.717 46.6828 114.742 46.4521C114.771 46.1721 114.729 45.8996 114.672 45.6326C114.658 45.5724 114.669 45.5075 114.651 45.4487C114.56 45.1349 114.411 44.8391 114.205 44.5776C113.785 44.0461 113.186 43.7139 112.519 43.6433Z" fill="#436FD0"/>
<path d="M113.303 45.9307C113.376 46.313 113.159 46.7126 112.821 46.8903C112.682 46.9629 112.805 47.1729 112.944 47.1002C113.383 46.8701 113.633 46.3519 113.538 45.8661C113.443 45.3757 113 45.009 112.511 44.9589C112.355 44.9431 112.356 45.1862 112.511 45.202C112.896 45.2412 113.231 45.5531 113.303 45.9307Z" fill="#436FD0"/>
<path d="M111.897 48.3008C111.746 48.259 111.681 48.4936 111.832 48.5352C112.54 48.7295 113.324 48.5609 113.882 48.0819C114.428 47.6133 114.709 46.8644 114.624 46.1539C114.606 46.0005 114.361 45.9987 114.38 46.1539C114.457 46.7946 114.224 47.4498 113.741 47.8833C113.354 48.2297 112.832 48.3382 112.318 48.3105C112.212 48.3045 112.106 48.3258 112.001 48.3032C111.967 48.2956 111.931 48.3101 111.897 48.3008Z" fill="#436FD0"/>
<path d="M111.838 44.3418V44.1293C111.838 44.0441 111.838 43.9168 111.796 43.7042C111.753 42.8964 111.625 41.4084 111.497 39.7928C111.369 39.7504 111.199 39.6654 111.071 39.5803C111.199 41.8761 111.412 44.0867 111.454 44.3843C111.753 47.4029 111.156 49.6137 109.579 51.1441C108.555 52.1645 107.106 52.8871 105.486 53.1422C105.401 53.1847 105.273 53.1847 105.145 53.1847V53.3973L105.06 53.2273H104.889C104.506 53.2698 104.122 53.2698 103.696 53.2698H103.568C103.184 53.2698 102.8 53.2698 102.417 53.2273H102.246L102.204 53.4398L102.161 53.1847C102.033 53.1847 101.905 53.1847 101.777 53.1422C100.2 52.8871 98.7505 52.1645 97.6847 51.1441C96.15 49.6137 95.5532 47.4029 95.8516 44.3843C95.8942 43.9168 96.1927 40.5583 96.3205 37.8798C96.1927 37.8798 96.0648 37.9224 95.8943 37.8798C95.7663 40.0481 95.5958 42.5562 95.4678 43.7042C95.4678 43.9168 95.4678 44.0867 95.4255 44.2144V44.3417C95.2975 45.7873 95.3401 47.0627 95.6385 48.2106C95.6812 48.3381 95.6812 48.4657 95.7236 48.5931C95.7662 48.6783 95.7663 48.7208 95.809 48.7634C96.1501 49.7837 96.6616 50.7188 97.3863 51.4417C98.0685 52.0794 98.8785 52.5894 99.7737 52.9722C99.9016 53.0148 100.029 53.0148 100.2 53.0997C100.669 53.2698 101.18 53.4824 101.735 53.5675C101.862 53.6099 101.99 53.6099 102.118 53.6099C102.118 53.6525 102.161 53.6525 102.204 53.6525H102.374C102.758 53.695 103.142 53.695 103.568 53.695C103.61 53.695 103.61 53.695 103.653 53.695C104.079 53.7376 104.506 53.695 104.889 53.6525H105.102C105.102 53.6525 105.145 53.6525 105.188 53.6099C105.316 53.6099 105.443 53.6099 105.571 53.5675C106.595 53.3974 107.532 53.0148 108.385 52.5047C108.513 52.4197 108.641 52.2919 108.811 52.2071C109.152 51.952 109.579 51.7395 109.877 51.4418C110.389 50.974 110.73 50.4213 111.028 49.8263C111.241 49.4436 111.412 49.061 111.54 48.5932C111.582 48.4659 111.625 48.3381 111.668 48.2107C111.923 47.0628 112.009 45.7875 111.838 44.3418ZM95.6384 42.8965C95.6811 41.9611 95.7662 40.9834 95.8089 40.0056C95.8089 39.878 96.0647 39.878 96.0647 40.0056C95.9793 40.9834 95.9369 41.9611 95.8516 42.8965C95.8515 43.0665 95.5957 43.0665 95.6384 42.8965ZM111.54 43.4918C111.497 43.4918 111.412 43.4493 111.412 43.3642C111.412 43.1517 111.412 42.9391 111.369 42.7264C111.369 42.6415 111.454 42.599 111.497 42.599C111.582 42.599 111.625 42.6415 111.625 42.7264C111.625 42.9391 111.668 43.1517 111.668 43.3642C111.668 43.4492 111.625 43.4918 111.54 43.4918Z" fill="white"/>
<path d="M100.455 35.3463C100.44 35.4292 100.367 35.4912 100.34 35.5711C100.462 35.5695 100.58 35.5677 100.711 35.5672C100.635 35.4834 100.517 35.4403 100.455 35.3463Z" fill="#436FD0"/>
<path d="M104.872 35.1481C104.87 35.1483 104.869 35.1478 104.868 35.1481C104.767 35.3225 104.581 35.4302 104.438 35.5759C104.664 35.5733 104.874 35.5723 105.13 35.5702C105.051 35.4247 104.928 35.304 104.872 35.1481Z" fill="#436FD0"/>
<path d="M104.137 47.7684C104.29 47.7889 104.357 47.5549 104.202 47.5341C103.541 47.4451 103.105 46.8605 102.972 46.2416C102.8 45.4364 103.134 44.604 103.419 43.8647C103.475 43.7186 103.239 43.6553 103.184 43.8001C102.87 44.6157 102.525 45.529 102.763 46.4108C102.939 47.0623 103.436 47.6739 104.137 47.7684Z" fill="white"/>
<path d="M98.9852 42.2465C99.0076 42.2082 99.0307 42.1705 99.0555 42.1339C99.0619 42.1243 99.0804 42.0994 99.0944 42.0799C99.1036 42.07 99.1309 42.0372 99.1429 42.0236C99.1725 41.991 99.2032 41.9591 99.2349 41.9284C99.2636 41.9006 99.293 41.8739 99.3234 41.8479C99.3333 41.8393 99.3445 41.8308 99.3552 41.8217C99.4215 41.774 99.4907 41.7291 99.5625 41.6891C99.5974 41.6697 99.6328 41.6515 99.6687 41.6341C99.6755 41.6308 99.6869 41.6266 99.6984 41.6204C99.7731 41.5924 99.8488 41.5662 99.9263 41.5462C99.9693 41.535 100.012 41.5254 100.056 41.5174C100.06 41.5166 100.071 41.5153 100.083 41.5127C100.168 41.5055 100.251 41.5008 100.336 41.5031C100.591 41.5102 100.835 41.2748 100.824 41.0171C100.812 40.7477 100.61 40.5383 100.336 40.531C99.4529 40.5072 98.5877 40.9957 98.1435 41.7558C98.0153 41.9756 98.0855 42.2981 98.3184 42.4208C98.5517 42.5439 98.8481 42.4811 98.9852 42.2465Z" fill="white"/>
<path d="M106.951 41.594C107.033 41.5916 107.115 41.5945 107.196 41.6023C107.183 41.5997 107.191 41.602 107.166 41.5968C107.176 41.5992 107.188 41.6005 107.199 41.6023C107.2 41.6025 107.201 41.6023 107.203 41.6026C107.225 41.6049 107.242 41.6096 107.234 41.6093C107.273 41.6166 107.311 41.6241 107.348 41.6334C107.427 41.6531 107.504 41.6778 107.58 41.7074C107.569 41.7019 107.576 41.7063 107.558 41.6969C107.566 41.7011 107.575 41.705 107.584 41.7087C107.585 41.7092 107.587 41.7097 107.588 41.7102C107.593 41.7118 107.595 41.7136 107.599 41.7159C107.602 41.717 107.604 41.718 107.606 41.7191C107.646 41.738 107.686 41.7583 107.725 41.7798C107.794 41.8187 107.862 41.8615 107.927 41.908C107.937 41.9155 108.01 41.9705 107.941 41.9178C107.875 41.8673 107.939 41.9178 107.954 41.9301C107.984 41.9558 108.014 41.9825 108.042 42.01C108.075 42.0406 108.105 42.072 108.135 42.1047C108.151 42.1226 108.184 42.1535 108.2 42.1797C108.211 42.1945 108.221 42.2095 108.232 42.2246C108.256 42.2614 108.28 42.2991 108.302 42.3372C108.43 42.5569 108.748 42.6538 108.969 42.5116C109.191 42.3688 109.281 42.0818 109.144 41.8465C108.7 41.0867 107.834 40.5981 106.951 40.6218C106.696 40.6288 106.451 40.8405 106.463 41.1078C106.475 41.3653 106.678 41.6013 106.951 41.594Z" fill="white"/>
<path d="M107.578 41.7074C107.631 41.7333 107.624 41.7283 107.598 41.7161C107.593 41.7134 107.587 41.7111 107.582 41.7087C107.581 41.7081 107.579 41.7079 107.578 41.7074Z" fill="#436FD0"/>
<path d="M107.198 41.6022C107.197 41.6022 107.196 41.6022 107.195 41.6022C107.212 41.6054 107.231 41.6093 107.234 41.6093C107.228 41.6083 107.223 41.6067 107.217 41.6056C107.211 41.6046 107.204 41.6033 107.198 41.6022Z" fill="#436FD0"/>
<path d="M105.945 49.148C106.3 48.9596 106.557 48.5974 106.621 48.2022C106.632 48.1368 106.604 48.0722 106.536 48.0528C106.478 48.0361 106.397 48.073 106.386 48.1376C106.333 48.4669 106.139 48.7611 105.845 48.9257C105.525 49.105 105.122 49.097 104.802 48.9221C104.665 48.8468 104.542 49.0565 104.679 49.132C105.068 49.3449 105.551 49.3569 105.945 49.148Z" fill="white"/>
<path d="M100.37 42.5138C100.029 42.5138 99.7305 42.8114 99.7305 43.1516C99.7305 43.4918 100.029 43.7892 100.37 43.7892C100.711 43.7892 101.01 43.4918 101.01 43.1516C101.01 42.8114 100.711 42.5138 100.37 42.5138ZM100.029 43.5341C99.9862 43.5341 99.9438 43.4917 99.9438 43.4066C99.9438 43.364 99.9862 43.3215 100.029 43.3215C100.114 43.3215 100.157 43.364 100.157 43.4066C100.157 43.4918 100.114 43.5341 100.029 43.5341Z" fill="white"/>
<path d="M107.19 42.5138C106.85 42.5138 106.594 42.8114 106.594 43.1516C106.594 43.4918 106.85 43.7892 107.19 43.7892C107.574 43.7892 107.83 43.4918 107.83 43.1516C107.83 42.8114 107.574 42.5138 107.19 42.5138ZM106.892 43.5341C106.807 43.5341 106.764 43.4917 106.764 43.4066C106.764 43.364 106.807 43.3215 106.892 43.3215C106.935 43.3215 106.977 43.364 106.977 43.4066C106.977 43.4918 106.935 43.5341 106.892 43.5341Z" fill="white"/>
<path d="M95.8629 42.9098C95.9293 41.9443 95.9957 40.9787 96.062 40.0132C96.0727 39.857 95.8289 39.8577 95.8182 40.0132C95.7519 40.9787 95.6855 41.9442 95.6195 42.9098C95.6085 43.066 95.8522 43.0652 95.8629 42.9098Z" fill="#436FD0"/>
<path d="M111.545 43.4962C111.608 43.4934 111.671 43.4425 111.667 43.3748C111.654 43.1557 111.64 42.9367 111.627 42.7177C111.623 42.6544 111.574 42.5932 111.505 42.5963C111.442 42.5991 111.379 42.6497 111.383 42.7177C111.396 42.9367 111.41 43.1557 111.423 43.3748C111.427 43.4381 111.477 43.4993 111.545 43.4962Z" fill="#436FD0"/>
<path d="M113.007 40.0328C113.827 39.7274 113.433 38.2966 113.371 37.6694C113.269 36.6198 113.073 35.5775 112.72 34.5811C112.072 32.7526 110.841 31.0583 109.045 30.1318C107.231 29.1958 105.034 29.1203 102.943 29.2947C100.814 29.4722 98.6251 29.9167 96.8815 31.1108C95.1379 32.3049 93.9477 34.3946 94.4239 36.3296C94.5499 36.8411 94.8006 37.3439 95.2435 37.6598C95.4324 37.7944 95.6697 37.8606 95.9064 37.899C96.0566 37.9234 96.1869 37.8912 96.3355 37.8691C96.5023 37.8445 96.6774 37.8502 96.8208 37.7594C97.2933 37.46 97.4354 36.7436 97.0248 36.3919C97.5286 36.887 98.3495 37.0759 99.0588 36.8597C99.6825 36.6696 100.141 36.1544 100.339 35.5711C100.366 35.4912 100.44 35.4292 100.454 35.3464C100.516 35.4404 100.635 35.4835 100.711 35.5673C101.202 36.1099 101.919 36.476 102.69 36.441C103.37 36.4101 103.971 36.0497 104.436 35.5762C104.579 35.4303 104.766 35.3227 104.866 35.1483C104.867 35.1473 104.868 35.1468 104.869 35.1457C104.869 35.1468 104.87 35.1473 104.87 35.1483C104.927 35.3043 105.05 35.4249 105.129 35.5705C105.919 37.0236 107.732 37.9419 109.48 37.6207C109.192 37.6737 109.995 39.038 110.772 39.4439C110.868 39.494 110.963 39.5415 111.059 39.591C111.206 39.6678 111.353 39.7372 111.5 39.8046C112.027 40.0474 112.54 40.2065 113.007 40.0328Z" fill="#436FD0"/>
<path d="M165.479 74.2688C165.371 74.2542 165.271 74.3082 165.238 74.4078C165.179 74.5682 164.773 74.7205 164.225 74.8585C164.081 74.8946 163.911 74.9269 163.737 74.9592C163.631 74.9789 163.556 75.0025 163.439 75.0207C162.209 75.2099 160.447 75.3043 158.244 75.1592C156.362 75.0567 154.782 74.8323 153.549 74.5764C153.465 74.5591 153.387 74.5411 153.307 74.5235C152.948 74.4444 152.625 74.3647 152.337 74.2833C152.301 74.2731 152.264 74.2633 152.23 74.2531C152.084 74.2103 151.939 74.1683 151.814 74.1262C151.137 73.8976 150.754 73.6804 150.754 73.5317C150.754 73.4621 150.68 73.4456 150.629 73.4071C150.594 73.3801 150.59 73.3199 150.542 73.3199C150.425 73.3199 150.33 73.4134 150.33 73.5317C150.33 74.2396 149.206 77.5361 148.793 78.3249C147.857 80.104 146.853 81.2935 145.642 82.0719C144.464 82.8275 143.036 83.1866 141.645 83.087C140.171 82.977 138.606 82.3396 137.124 81.2416C136.162 80.5296 134.797 79.3961 133.739 78.0323C133.506 77.7334 132.915 76.7037 132.174 75.4001C131.037 73.4135 129.488 70.6982 128.173 68.7884C127.902 66.8184 126.774 65.2346 125.071 64.4415L114.272 59.0609L114.206 59.0153C114.135 58.9697 114.052 58.9634 113.985 59.0028C113.975 59.008 113.978 59.0231 113.969 59.0296L114.098 59.2345L114.3 59.5462L124.884 64.8257C126.474 65.5647 127.519 67.047 127.757 68.8945C127.761 68.9277 127.773 68.9609 127.794 68.9878C129.101 70.8852 130.663 73.617 131.803 75.6099C132.586 76.9799 133.148 77.9681 133.402 78.294C134.489 79.6931 135.887 80.8556 136.866 81.5822C138.419 82.7301 140.059 83.3965 141.612 83.5107C143.094 83.6186 144.614 83.2346 145.875 82.4291C147.149 81.6091 148.198 80.3699 149.168 78.5222C149.522 77.8538 150.421 75.313 150.684 74.0571C151.824 74.8854 155.488 75.4334 158.219 75.5829C160.983 75.7614 164.035 75.6037 165.188 74.9851C165.001 77.0236 164.226 79.7907 163.744 81.167C160.242 91.1146 151.042 100.778 139.139 98.4549C134.197 97.4958 129.589 94.2886 126.158 89.4207C125.063 87.8658 124.235 86.3255 123.631 84.7084C123.598 84.6253 123.519 84.5714 123.431 84.5714H123.427C123.336 84.5735 123.257 84.6317 123.227 84.7189L119.722 95.6234C119.714 95.6504 119.71 95.6774 119.714 95.7044L121.487 117.262C119.376 116.189 110.904 115.61 103.623 115.78C96.3665 115.62 87.9027 116.191 85.7962 117.262L87.5697 95.7044C87.5739 95.6774 87.5697 95.6504 87.5615 95.6234L84.0144 84.5735C83.9853 84.4863 83.9062 84.4282 83.8146 84.4261H83.8104C83.7229 84.4261 83.6397 84.4801 83.6105 84.5652C83.0027 86.2217 82.1575 87.8098 81.021 89.4206C77.5906 94.2885 72.9819 97.4958 68.0402 98.4548C66.8287 98.6914 65.6464 98.8015 64.4974 98.8015C54.3226 98.8015 46.5832 90.1035 43.4358 81.1669C42.9529 79.7905 42.1785 77.0213 41.9953 74.9849C43.1401 75.6035 46.1918 75.7654 48.9603 75.5827C51.6914 75.4333 55.355 74.8852 56.4957 74.0569C56.758 75.3128 57.6572 77.8536 58.0111 78.5241C58.981 80.3696 60.0302 81.6089 61.3042 82.4289C62.5615 83.2343 64.0686 83.6225 65.5673 83.5105C67.1202 83.3963 68.7605 82.73 70.3133 81.582C71.2917 80.8555 72.6905 79.6929 73.7771 78.2938C74.031 77.9679 74.6014 76.9715 75.3882 75.589C76.5706 73.5193 78.1859 70.6857 79.5223 68.7905C79.5389 68.7635 79.5515 68.7345 79.5598 68.7034C79.8512 66.9409 80.8879 65.5293 82.4032 64.8236L92.831 59.6219L93.0819 59.2345L93.2252 59.0072C93.1765 59.0025 93.1279 58.9882 93.0819 59.0153L82.216 64.4396C80.5924 65.1973 79.4725 66.7064 79.1436 68.5851C77.8031 70.497 76.196 73.316 75.0179 75.3794C74.2685 76.6934 73.6773 77.7314 73.4442 78.0324C72.3826 79.3962 71.0171 80.5297 70.0554 81.2417C68.5733 82.3398 67.0078 82.9771 65.5341 83.0871C64.1353 83.1868 62.7157 82.8276 61.5374 82.072C60.3259 81.2935 59.3226 80.104 58.3859 78.3271C57.9737 77.5362 56.8497 74.2397 56.8497 73.5318C56.8497 73.4135 56.7539 73.32 56.6374 73.32C56.5898 73.32 56.5861 73.38 56.5505 73.4067C56.499 73.4451 56.4251 73.462 56.4251 73.5318C56.4251 73.6803 56.0432 73.8972 55.3679 74.1255C54.1356 74.5422 51.8888 74.9984 48.9355 75.1593C48.6375 75.1795 48.4055 75.1679 48.1227 75.18C47.6215 75.2014 47.1318 75.2182 46.6819 75.2167C46.3155 75.2153 45.9796 75.2101 45.6502 75.1957C45.1473 75.1736 44.6711 75.144 44.2621 75.0971C44.0947 75.0779 43.9379 75.061 43.7872 75.0384C43.6435 75.0169 43.5572 74.9873 43.4292 74.9632C43.2564 74.9305 43.0875 74.8983 42.945 74.8618C42.4019 74.7225 42.0017 74.5688 41.9455 74.4079C41.9177 74.3246 41.8409 74.2976 41.7438 74.2917C41.7402 74.2914 41.7399 74.2875 41.7364 74.2875C41.7202 74.287 41.7225 74.2668 41.7041 74.2689C41.6 74.2896 41.5292 74.3809 41.5334 74.4868C41.6166 76.5897 42.4993 79.7865 43.0363 81.3081C46.5958 91.4197 55.9463 101.209 68.1236 98.8742C73.1694 97.8923 77.878 94.6228 81.3709 89.6656C82.395 88.2083 83.1944 86.7677 83.7938 85.2793L87.1411 95.7126L85.3342 117.692C85.326 117.787 85.3842 117.877 85.4758 117.91C85.5249 117.928 85.558 117.885 85.6019 117.869C85.6438 117.853 85.6972 117.866 85.7213 117.829C85.8762 117.603 86.504 117.376 87.4998 117.165C87.7597 117.11 88.1065 117.06 88.4149 117.008C91.3683 116.507 96.4217 116.147 102.095 116.193C102.603 116.197 103.098 116.193 103.615 116.204C103.619 116.208 103.673 116.206 103.669 116.204C103.745 116.202 103.817 116.204 103.893 116.202C104.297 116.194 104.687 116.197 105.086 116.193C110.733 116.139 115.787 116.493 118.775 116.991C119.084 117.043 119.417 117.092 119.679 117.146C120.727 117.363 121.403 117.596 121.562 117.829C121.573 117.845 121.597 117.843 121.612 117.855C121.649 117.886 121.686 117.92 121.737 117.92C121.762 117.92 121.783 117.918 121.808 117.91C121.899 117.877 121.958 117.788 121.949 117.692L120.142 95.7127L123.452 85.4184C124.043 86.8653 124.818 88.2604 125.809 89.6657C129.302 94.6229 134.01 97.8924 139.056 98.8743C151.212 101.222 160.584 91.4197 164.143 81.3082C164.464 80.4 164.891 78.8945 165.215 77.3791C165.433 76.3593 165.613 75.3344 165.65 74.4869C165.654 74.3829 165.583 74.2895 165.479 74.2688Z" fill="#21784F"/>
<path d="M103.562 69.843C103.62 69.8638 103.67 69.8638 103.729 69.843C104.946 69.3414 106.469 68.2225 107.543 67.3608L107.374 67.1846L107.246 67.0515C105.806 68.2033 104.563 69.0212 103.645 69.4153C102.713 69.0147 101.451 68.1885 99.9983 67.0197C99.9926 67.015 99.9871 67.0098 99.9813 67.0051L99.8093 67.1844L99.6855 67.3134C99.6996 67.3251 99.7136 67.338 99.7277 67.3498C100.798 68.2071 102.33 69.3344 103.562 69.843Z" fill="#436FD0"/>
<path d="M92.8319 59.6219L90.5234 63.1869L90.8179 63.6386C92.3352 66.1681 94.8266 67.9523 97.6576 68.6075C97.8614 68.675 98.0877 68.7204 98.2914 68.7656L99.685 67.3134L99.8088 67.1844L99.9808 67.0051L103.229 63.616L103.591 63.9549L103.954 63.616L107.246 67.0513L107.373 67.1844L107.542 67.3606L108.891 68.7655C109.094 68.7203 109.321 68.6749 109.525 68.6074C112.356 67.9522 114.847 66.168 116.364 63.6386L116.659 63.1868L114.301 59.5459L114.1 59.2343L113.97 59.0294L113.601 58.444L113.171 59.0086C113.084 59.1241 112.958 59.1985 112.866 59.3101C112.761 59.4375 112.627 59.533 112.517 59.6549C111.348 60.9495 109.941 62.0045 108.324 62.5996C107.577 62.893 106.807 63.0965 106.014 63.2093L103.953 63.5031C103.84 63.4805 103.704 63.4577 103.591 63.4125C103.478 63.4577 103.342 63.4806 103.229 63.5031L101.168 63.2093C100.375 63.0965 99.605 62.893 98.8574 62.5996C97.334 62.0388 96.0123 61.0517 94.8782 59.8654C94.7652 59.7473 94.6385 59.6461 94.531 59.5226C94.3697 59.3375 94.1598 59.2056 94.0109 59.0085L93.5808 58.4439L93.2259 59.007L93.0825 59.2343L92.8319 59.6219Z" fill="#92AEC6"/>
</g>
</svg>
