<svg width="24" height="24" viewBox="0 0 24 24" fill="none" xmlns="http://www.w3.org/2000/svg">
<path d="M6.25 14.75H13.8943L15.3943 13.25H6.25V14.75ZM6.25 10.75H11.75V9.25H6.25V10.75ZM4 7V17H11.6442L10.1442 18.5H2.5V5.5H21.5V8.64425H20V7H4ZM22.2268 12.127C22.3038 12.2038 22.3423 12.2891 22.3423 12.3828C22.3423 12.4763 22.3038 12.5615 22.2268 12.6385L21.3845 13.4808L20.1152 12.2115L20.9578 11.3692C21.0346 11.2922 21.1198 11.2537 21.2135 11.2537C21.307 11.2537 21.3923 11.2922 21.4693 11.3692L22.2268 12.127ZM13.1538 20.4615V19.1923L19.5345 12.8115L20.8038 14.0808L14.423 20.4615H13.1538Z" fill="#E3E3E3"/>
</svg>
