<svg width="190" height="190" viewBox="0 0 190 190" fill="none" xmlns="http://www.w3.org/2000/svg">
<g filter="url(#filter0_f_217_11088)">
<circle cx="94.7002" cy="94.7" r="45" fill="#BD404A" fill-opacity="0.28"/>
</g>
<path d="M85.7002 106.334L94.7002 97.3343L103.7 106.334L106.335 103.7L97.3346 94.7L106.335 85.7L103.7 83.0656L94.7002 92.0656L85.7002 83.0656L83.0658 85.7L92.0658 94.7L83.0658 103.7L85.7002 106.334ZM94.7046 118.45C91.4196 118.45 88.3319 117.827 85.4414 116.58C82.551 115.333 80.0369 113.641 77.8989 111.504C75.761 109.367 74.0683 106.854 72.8208 103.965C71.5737 101.076 70.9502 97.9889 70.9502 94.7043C70.9502 91.4193 71.5735 88.3316 72.8202 85.4412C74.0669 82.5508 75.7587 80.0366 77.8958 77.8987C80.0329 75.7608 82.546 74.0681 85.4352 72.8206C88.3244 71.5735 91.4112 70.95 94.6958 70.95C97.9808 70.95 101.069 71.5733 103.959 72.82C106.849 74.0666 109.364 75.7585 111.501 77.8956C113.639 80.0327 115.332 82.5458 116.58 85.435C117.827 88.3241 118.45 91.411 118.45 94.6956C118.45 97.9806 117.827 101.068 116.58 103.959C115.334 106.849 113.642 109.363 111.505 111.501C109.367 113.639 106.854 115.332 103.965 116.579C101.076 117.826 97.9892 118.45 94.7046 118.45ZM94.7002 114.7C100.284 114.7 105.013 112.762 108.888 108.887C112.763 105.012 114.7 100.283 114.7 94.7C114.7 89.1166 112.763 84.3875 108.888 80.5125C105.013 76.6375 100.284 74.7 94.7002 74.7C89.1169 74.7 84.3877 76.6375 80.5127 80.5125C76.6377 84.3875 74.7002 89.1166 74.7002 94.7C74.7002 100.283 76.6377 105.012 80.5127 108.887C84.3877 112.762 89.1169 114.7 94.7002 114.7Z" fill="#E5979D"/>
<defs>
<filter id="filter0_f_217_11088" x="0.00019455" y="-4.95911e-05" width="189.4" height="189.4" filterUnits="userSpaceOnUse" color-interpolation-filters="sRGB">
<feFlood flood-opacity="0" result="BackgroundImageFix"/>
<feBlend mode="normal" in="SourceGraphic" in2="BackgroundImageFix" result="shape"/>
<feGaussianBlur stdDeviation="24.85" result="effect1_foregroundBlur_217_11088"/>
</filter>
</defs>
</svg>
