<svg width="190" height="190" viewBox="0 0 190 190" fill="none" xmlns="http://www.w3.org/2000/svg">
<g filter="url(#filter0_f_116_5338)">
<circle cx="94.6992" cy="94.7" r="45" fill="#BD404A" fill-opacity="0.28"/>
</g>
<path d="M96.1895 93.8055C97.2532 92.6484 98.0401 91.3199 98.5501 89.8199C99.0597 88.3199 99.3145 86.7734 99.3145 85.1805C99.3145 83.5876 99.0597 82.0411 98.5501 80.5411C98.0401 79.0411 97.2532 77.7126 96.1895 76.5555C98.3849 76.8088 100.208 77.7567 101.658 79.3992C103.108 81.0421 103.833 82.9692 103.833 85.1805C103.833 87.3921 103.108 89.3192 101.658 90.9617C100.208 92.6042 98.3849 93.5521 96.1895 93.8055ZM109.314 112.969V107.104C109.314 105.741 109.037 104.444 108.483 103.214C107.928 101.983 107.141 100.927 106.122 100.046C108.039 100.684 109.803 101.545 111.415 102.628C113.027 103.711 113.833 105.203 113.833 107.104V112.969H109.314ZM122.583 91.5749H108.833V87.8249H122.583V91.5749ZM85.5645 93.9305C83.1582 93.9305 81.0982 93.0738 79.3845 91.3605C77.6711 89.6467 76.8145 87.5867 76.8145 85.1805C76.8145 82.7742 77.6711 80.7144 79.3845 79.0011C81.0982 77.2874 83.1582 76.4305 85.5645 76.4305C87.9707 76.4305 90.0305 77.2874 91.7438 79.0011C93.4576 80.7144 94.3145 82.7742 94.3145 85.1805C94.3145 87.5867 93.4576 89.6467 91.7438 91.3605C90.0305 93.0738 87.9707 93.9305 85.5645 93.9305ZM66.8145 112.969V107.411C66.8145 106.187 67.147 105.053 67.812 104.01C68.477 102.967 69.3655 102.164 70.4776 101.604C72.9488 100.392 75.4417 99.4838 77.9563 98.878C80.4705 98.2721 83.0065 97.9692 85.5645 97.9692C88.122 97.9692 90.658 98.2721 93.1726 98.878C95.6867 99.4838 98.1795 100.392 100.651 101.604C101.763 102.164 102.651 102.967 103.316 104.01C103.982 105.053 104.314 106.187 104.314 107.411V112.969H66.8145ZM85.5645 90.1805C86.9395 90.1805 88.1165 89.6909 89.0957 88.7117C90.0749 87.7326 90.5645 86.5555 90.5645 85.1805C90.5645 83.8055 90.0749 82.6284 89.0957 81.6492C88.1165 80.6701 86.9395 80.1805 85.5645 80.1805C84.1895 80.1805 83.0124 80.6701 82.0332 81.6492C81.054 82.6284 80.5645 83.8055 80.5645 85.1805C80.5645 86.5555 81.054 87.7326 82.0332 88.7117C83.0124 89.6909 84.1895 90.1805 85.5645 90.1805ZM70.5645 109.219H100.564V107.411C100.564 106.905 100.418 106.436 100.124 106.005C99.8311 105.574 99.4328 105.222 98.9295 104.95C96.7757 103.889 94.5797 103.085 92.3413 102.539C90.1026 101.992 87.8436 101.719 85.5645 101.719C83.2849 101.719 81.0259 101.992 78.7876 102.539C76.5488 103.085 74.3526 103.889 72.1988 104.95C71.6955 105.222 71.2974 105.574 71.0045 106.005C70.7111 106.436 70.5645 106.905 70.5645 107.411V109.219Z" fill="#E5979D"/>
<defs>
<filter id="filter0_f_116_5338" x="-0.000782013" y="1.14441e-05" width="189.4" height="189.4" filterUnits="userSpaceOnUse" color-interpolation-filters="sRGB">
<feFlood flood-opacity="0" result="BackgroundImageFix"/>
<feBlend mode="normal" in="SourceGraphic" in2="BackgroundImageFix" result="shape"/>
<feGaussianBlur stdDeviation="24.85" result="effect1_foregroundBlur_116_5338"/>
</filter>
</defs>
</svg>
