<svg width="190" height="190" viewBox="0 0 190 190" fill="none" xmlns="http://www.w3.org/2000/svg">
<g filter="url(#filter0_f_116_6029)">
<circle cx="94.6992" cy="94.7" r="45" fill="#155DFC" fill-opacity="0.28"/>
</g>
<path d="M91.7186 106.046H82.2955C79.1563 106.046 76.4805 104.94 74.268 102.727C72.0555 100.515 70.9492 97.8395 70.9492 94.7008C70.9492 91.562 72.0555 88.8862 74.268 86.6733C76.4805 84.4599 79.1563 83.3533 82.2955 83.3533H91.7186V87.1033H82.2955C80.1959 87.1033 78.4051 87.8445 76.923 89.327C75.4405 90.8095 74.6992 92.6004 74.6992 94.6995C74.6992 96.7987 75.4405 98.5895 76.923 100.072C78.4051 101.555 80.1959 102.296 82.2955 102.296H91.7186V106.046ZM85.3242 96.5745V92.8245H104.074V96.5745H85.3242ZM97.6798 106.046V102.296H107.103C109.203 102.296 110.993 101.555 112.475 100.072C113.958 98.5895 114.699 96.7987 114.699 94.6995C114.699 92.6004 113.958 90.8095 112.475 89.327C110.993 87.8445 109.203 87.1033 107.103 87.1033H97.6798V83.3533H107.103C110.242 83.3533 112.918 84.4595 115.13 86.672C117.343 88.8841 118.449 91.5595 118.449 94.6983C118.449 97.837 117.343 100.513 115.13 102.726C112.918 104.939 110.242 106.046 107.103 106.046H97.6798Z" fill="#84AAFF"/>
<defs>
<filter id="filter0_f_116_6029" x="-0.000782013" y="-4.95911e-05" width="189.4" height="189.4" filterUnits="userSpaceOnUse" color-interpolation-filters="sRGB">
<feFlood flood-opacity="0" result="BackgroundImageFix"/>
<feBlend mode="normal" in="SourceGraphic" in2="BackgroundImageFix" result="shape"/>
<feGaussianBlur stdDeviation="24.85" result="effect1_foregroundBlur_116_6029"/>
</filter>
</defs>
</svg>
