<svg width="190" height="190" viewBox="0 0 190 190" fill="none" xmlns="http://www.w3.org/2000/svg">
<g filter="url(#filter0_f_1530_7705)">
<circle cx="94.7002" cy="94.7" r="45" fill="#BD404A" fill-opacity="0.28"/>
</g>
<path d="M77.0558 115.95C76.0754 115.95 75.2294 115.594 74.5177 114.882C73.806 114.171 73.4502 113.325 73.4502 112.344V101.166H76.2871V112.344C76.2871 112.536 76.3671 112.713 76.5271 112.873C76.6875 113.033 76.8637 113.113 77.0558 113.113H112.345C112.537 113.113 112.713 113.033 112.873 112.873C113.033 112.713 113.113 112.536 113.113 112.344V77.0556C113.113 76.8635 113.033 76.6872 112.873 76.5268C112.713 76.3668 112.537 76.2868 112.345 76.2868H77.0558C76.8637 76.2868 76.6875 76.3668 76.5271 76.5268C76.3671 76.6872 76.2871 76.8635 76.2871 77.0556V88.2337H73.4502V77.0556C73.4502 76.0752 73.806 75.2291 74.5177 74.5175C75.2294 73.8058 76.0754 73.45 77.0558 73.45H112.345C113.325 73.45 114.171 73.8058 114.883 74.5175C115.594 75.2291 115.95 76.0752 115.95 77.0556V112.344C115.95 113.325 115.594 114.171 114.883 114.882C114.171 115.594 113.325 115.95 112.345 115.95H77.0558ZM91.0658 105.536L88.9264 103.421L96.2289 96.1181H73.4502V93.2818H96.2289L88.9264 85.9787L91.0658 83.8637L101.902 94.7L91.0658 105.536Z" fill="#E5979D"/>
<defs>
<filter id="filter0_f_1530_7705" x="0.00019455" y="-4.95911e-05" width="189.4" height="189.4" filterUnits="userSpaceOnUse" color-interpolation-filters="sRGB">
<feFlood flood-opacity="0" result="BackgroundImageFix"/>
<feBlend mode="normal" in="SourceGraphic" in2="BackgroundImageFix" result="shape"/>
<feGaussianBlur stdDeviation="24.85" result="effect1_foregroundBlur_1530_7705"/>
</filter>
</defs>
</svg>
