<svg width="190" height="190" viewBox="0 0 190 190" fill="none" xmlns="http://www.w3.org/2000/svg">
<g filter="url(#filter0_f_82_1412)">
<circle cx="94.6992" cy="94.7" r="45" fill="#1E902D" fill-opacity="0.28"/>
</g>
<path d="M91.1511 105.334L107.959 88.5268L105.324 85.8925L91.1511 100.066L84.0261 92.9406L81.3917 95.575L91.1511 105.334ZM94.7036 118.45C91.4186 118.45 88.3309 117.827 85.4405 116.58C82.5501 115.333 80.0359 113.641 77.898 111.504C75.7601 109.367 74.0673 106.854 72.8198 103.965C71.5728 101.076 70.9492 97.9889 70.9492 94.7043C70.9492 91.4193 71.5726 88.3316 72.8192 85.4412C74.0659 82.5508 75.7578 80.0366 77.8948 77.8987C80.0319 75.7608 82.5451 74.0681 85.4342 72.8206C88.3234 71.5735 91.4103 70.95 94.6948 70.95C97.9798 70.95 101.068 71.5733 103.958 72.82C106.848 74.0666 109.363 75.7585 111.5 77.8956C113.638 80.0327 115.331 82.5458 116.579 85.435C117.826 88.3241 118.449 91.411 118.449 94.6956C118.449 97.9806 117.826 101.068 116.579 103.959C115.333 106.849 113.641 109.363 111.504 111.501C109.367 113.639 106.853 115.332 103.964 116.579C101.075 117.826 97.9882 118.45 94.7036 118.45ZM94.6992 114.7C100.283 114.7 105.012 112.762 108.887 108.887C112.762 105.012 114.699 100.283 114.699 94.7C114.699 89.1166 112.762 84.3875 108.887 80.5125C105.012 76.6375 100.283 74.7 94.6992 74.7C89.1159 74.7 84.3867 76.6375 80.5117 80.5125C76.6367 84.3875 74.6992 89.1166 74.6992 94.7C74.6992 100.283 76.6367 105.012 80.5117 108.887C84.3867 112.762 89.1159 114.7 94.6992 114.7Z" fill="#96EFA2"/>
<defs>
<filter id="filter0_f_82_1412" x="-0.000782013" y="-4.95911e-05" width="189.4" height="189.4" filterUnits="userSpaceOnUse" color-interpolation-filters="sRGB">
<feFlood flood-opacity="0" result="BackgroundImageFix"/>
<feBlend mode="normal" in="SourceGraphic" in2="BackgroundImageFix" result="shape"/>
<feGaussianBlur stdDeviation="24.85" result="effect1_foregroundBlur_82_1412"/>
</filter>
</defs>
</svg>
