<svg width="190" height="190" viewBox="0 0 190 190" fill="none" xmlns="http://www.w3.org/2000/svg">
<g filter="url(#filter0_f_1775_13953)">
<circle cx="94.6992" cy="94.7" r="45" fill="#BD404A" fill-opacity="0.28"/>
</g>
<path d="M81.4073 117.2C80.2615 117.2 79.2807 116.792 78.4648 115.976C77.649 115.16 77.2411 114.179 77.2411 113.033V78.45H74.6992V74.2831H86.6992V72.2H102.699V74.2831H114.699V78.45H112.157V113.033C112.157 114.158 111.744 115.134 110.918 115.961C110.092 116.787 109.116 117.2 107.991 117.2H81.4073ZM107.991 78.45H81.4073V113.033H107.991V78.45ZM87.4911 107.783H91.6573V83.6581H87.4911V107.783ZM97.7411 107.783H101.907V83.6581H97.7411V107.783Z" fill="#E5979D"/>
<defs>
<filter id="filter0_f_1775_13953" x="-0.000782013" y="1.14441e-05" width="189.4" height="189.4" filterUnits="userSpaceOnUse" color-interpolation-filters="sRGB">
<feFlood flood-opacity="0" result="BackgroundImageFix"/>
<feBlend mode="normal" in="SourceGraphic" in2="BackgroundImageFix" result="shape"/>
<feGaussianBlur stdDeviation="24.85" result="effect1_foregroundBlur_1775_13953"/>
</filter>
</defs>
</svg>
