<svg width="200" height="200" viewBox="0 0 200 200" fill="none" xmlns="http://www.w3.org/2000/svg">
<g filter="url(#filter0_f_514_1753)">
<circle cx="99.7" cy="99.7002" r="50" fill="#BD404A" fill-opacity="0.28"/>
</g>
<path d="M109.702 114.588L97.8158 102.702V85.9601H100.744V101.506L111.721 112.483L109.702 114.588ZM97.8158 79.0382V71.8507H100.744V79.0382H97.8158ZM120.312 101.534V98.6064H127.499V101.534H120.312ZM97.8158 128.29V121.102H100.744V128.29H97.8158ZM71.0602 101.534V98.6064H78.2477V101.534H71.0602ZM99.3066 131.219C94.9799 131.219 90.9326 130.401 87.1648 128.767C83.3964 127.132 80.1002 124.904 77.276 122.083C74.4519 119.261 72.2219 115.966 70.586 112.199C68.9496 108.431 68.1313 104.383 68.1313 100.053C68.1313 95.7528 68.9487 91.7099 70.5834 87.9242C72.2181 84.1385 74.4461 80.8431 77.2674 78.038C80.0892 75.2329 83.3837 73.0124 87.151 71.3765C90.9188 69.7401 94.9675 68.9219 99.2971 68.9219C103.597 68.9219 107.64 69.7392 111.426 71.374C115.212 73.0087 118.507 75.2271 121.312 78.0293C124.117 80.8316 126.338 84.1269 127.974 87.9155C129.61 91.7035 130.428 95.7462 130.428 100.044C130.428 104.37 129.611 108.418 127.976 112.185C126.342 115.954 124.123 119.246 121.321 122.063C118.519 124.88 115.223 127.11 111.435 128.754C107.647 130.397 103.604 131.219 99.3066 131.219ZM99.3084 128.29C107.149 128.29 113.808 125.55 119.285 120.069C124.761 114.587 127.499 107.911 127.499 100.042C127.499 92.201 124.765 85.5422 119.295 80.0652C113.826 74.5889 107.154 71.8507 99.2798 71.8507C91.4293 71.8507 84.7632 74.5854 79.2816 80.0549C73.8007 85.5243 71.0602 92.1961 71.0602 100.07C71.0602 107.921 73.8007 114.587 79.2816 120.069C84.7632 125.55 91.4388 128.29 99.3084 128.29Z" fill="#F4B0B0"/>
<defs>
<filter id="filter0_f_514_1753" x="-4.95911e-05" y="0.00019455" width="199.4" height="199.4" filterUnits="userSpaceOnUse" color-interpolation-filters="sRGB">
<feFlood flood-opacity="0" result="BackgroundImageFix"/>
<feBlend mode="normal" in="SourceGraphic" in2="BackgroundImageFix" result="shape"/>
<feGaussianBlur stdDeviation="24.85" result="effect1_foregroundBlur_514_1753"/>
</filter>
</defs>
</svg>
