<svg width="24" height="24" viewBox="0 0 24 24" fill="none" xmlns="http://www.w3.org/2000/svg">
<path d="M13.6106 12.4602C13.0044 12.4602 12.4948 12.2537 12.0816 11.8405C11.6683 11.4272 11.4617 10.9175 11.4617 10.3113C11.4617 9.7053 11.6683 9.19564 12.0816 8.78233C12.4948 8.36902 13.0044 8.16237 13.6106 8.16237C14.2168 8.16237 14.7264 8.36902 15.1395 8.78233C15.5529 9.19564 15.7595 9.7053 15.7595 10.3113C15.7595 10.9175 15.5529 11.4272 15.1395 11.8405C14.7264 12.2537 14.2168 12.4602 13.6106 12.4602ZM6.95724 15.8904C6.47982 15.8904 6.07116 15.7204 5.73127 15.3803C5.39138 15.0405 5.22144 14.6319 5.22144 14.1547V6.4682C5.22144 5.99078 5.39138 5.58213 5.73127 5.24224C6.07116 4.90235 6.47982 4.73241 6.95724 4.73241H20.2639C20.7414 4.73241 21.15 4.90235 21.4899 5.24224C21.8298 5.58213 21.9997 5.99078 21.9997 6.4682V14.1547C21.9997 14.6319 21.8298 15.0405 21.4899 15.3803C21.15 15.7204 20.7414 15.8904 20.2639 15.8904H6.95724ZM8.0317 14.816H19.1895C19.1895 14.3352 19.3594 13.9256 19.6993 13.5873C20.0392 13.2492 20.4479 13.0802 20.9253 13.0802V7.54267C20.4444 7.54267 20.035 7.37272 19.6969 7.03283C19.3586 6.69277 19.1895 6.28411 19.1895 5.80687H8.0317C8.0317 6.28769 7.86176 6.69716 7.52187 7.03525C7.18198 7.37353 6.77332 7.54267 6.2959 7.54267V13.0802C6.77673 13.0802 7.18619 13.2501 7.52429 13.59C7.86256 13.9299 8.0317 14.3386 8.0317 14.816ZM18.8177 19.1138H3.73384C3.25642 19.1138 2.84777 18.9438 2.50788 18.6037C2.16799 18.2639 1.99805 17.8553 1.99805 17.378V7.91443H3.07251V17.378C3.07251 17.5433 3.14137 17.6948 3.27908 17.8325C3.41697 17.9704 3.56856 18.0394 3.73384 18.0394H18.8177V19.1138ZM6.95724 14.816H6.2959V5.80687H6.95724C6.77816 5.80687 6.62317 5.87232 6.49226 6.00323C6.36136 6.13413 6.2959 6.28913 6.2959 6.4682V14.1547C6.2959 14.3337 6.36136 14.4887 6.49226 14.6196C6.62317 14.7505 6.77816 14.816 6.95724 14.816Z" fill="white"/>
</svg>
