<svg width="24" height="24" viewBox="0 0 24 24" fill="none" xmlns="http://www.w3.org/2000/svg">
<path d="M10 11.6923C9.0375 11.6923 8.21358 11.3496 7.52825 10.6643C6.84275 9.97876 6.5 9.15476 6.5 8.19226C6.5 7.22976 6.84275 6.40584 7.52825 5.72051C8.21358 5.03501 9.0375 4.69226 10 4.69226C10.9625 4.69226 11.7864 5.03501 12.4718 5.72051C13.1573 6.40584 13.5 7.22976 13.5 8.19226C13.5 9.15476 13.1573 9.97876 12.4718 10.6643C11.7864 11.3496 10.9625 11.6923 10 11.6923ZM2.5 19.3078V17.0845C2.5 16.5795 2.62883 16.1222 2.8865 15.7125C3.14417 15.3028 3.50383 14.9858 3.9655 14.7615C4.79617 14.3475 5.69358 14.0017 6.65775 13.724C7.62175 13.4465 8.73583 13.3078 10 13.3078H10.2923C10.3731 13.3078 10.4602 13.318 10.5538 13.3385C10.4526 13.5743 10.369 13.8147 10.303 14.0595C10.2368 14.3045 10.182 14.5539 10.1385 14.8078H10C8.84867 14.8078 7.82942 14.9401 6.94225 15.2048C6.05508 15.4696 5.29225 15.768 4.65375 16.1C4.42692 16.2218 4.26125 16.3642 4.15675 16.527C4.05225 16.6898 4 16.8757 4 17.0845V17.8078H10.3C10.3743 18.0616 10.4708 18.3193 10.5895 18.5808C10.708 18.8423 10.8384 19.0846 10.9808 19.3078H2.5ZM10 10.1923C10.55 10.1923 11.0208 9.99643 11.4125 9.60476C11.8042 9.21309 12 8.74226 12 8.19226C12 7.64226 11.8042 7.17143 11.4125 6.77976C11.0208 6.38809 10.55 6.19226 10 6.19226C9.45 6.19226 8.97917 6.38809 8.5875 6.77976C8.19583 7.17143 8 7.64226 8 8.19226C8 8.74226 8.19583 9.21309 8.5875 9.60476C8.97917 9.99643 9.45 10.1923 10 10.1923Z" fill="#E3E3E3"/>
<rect x="12" y="13" width="7" height="1" fill="#E3E3E3"/>
<rect x="11" y="15" width="7" height="1" fill="#E3E3E3"/>
<rect x="12" y="17" width="7" height="1" fill="#E3E3E3"/>
</svg>
