<svg width="24" height="24" viewBox="0 0 24 24" fill="none" xmlns="http://www.w3.org/2000/svg">
<path d="M4.99983 3.08021L6.56246 3.08021L6.56246 6.12525L7.28751 5.3679C8.07959 4.51193 8.96612 3.90328 9.94711 3.54197C10.9281 3.18066 11.9194 3 12.921 3C14.7214 3 16.3357 3.52721 17.7641 4.58164C19.1926 5.63606 20.1732 7.01873 20.7061 8.72963L19.0593 8.72963C18.5679 7.47276 17.7629 6.46408 16.6443 5.7036C15.5258 4.94295 14.2847 4.56263 12.921 4.56263C12.1064 4.56263 11.3151 4.71689 10.5472 5.02542C9.77921 5.33396 9.06934 5.81412 8.41755 6.46591L7.7563 7.1269L10.6091 7.1269L10.6091 8.68952L4.99983 8.68952L4.99983 3.08021Z" fill="#E3E3E3"/>
<path d="M20.7062 20.6494L19.1436 20.6494L19.1436 17.6044L18.4185 18.3617C17.6265 19.2177 16.7399 19.8263 15.7589 20.1877C14.778 20.549 13.7867 20.7296 12.785 20.7296C10.9847 20.7296 9.37032 20.2024 7.94191 19.148C6.51349 18.0936 5.53286 16.7109 5 15L6.64675 15C7.13811 16.2569 7.94312 17.2655 9.06179 18.026C10.1803 18.7867 11.4214 19.167 12.785 19.167C13.5997 19.167 14.391 19.0127 15.1589 18.7042C15.9268 18.3957 16.6367 17.9155 17.2885 17.2637L17.9498 16.6027L15.0969 16.6027L15.0969 15.0401L20.7062 15.0401L20.7062 20.6494Z" fill="#E3E3E3"/>
<path d="M12.834 9.54102C13.2252 9.57658 13.5387 9.70071 13.7744 9.91406C14.0145 10.1231 14.1505 10.4122 14.1816 10.7812H13.3682C13.3548 10.6434 13.3014 10.5208 13.208 10.4141C13.1146 10.3029 12.9896 10.2275 12.834 10.1875V11.6289C13.1319 11.7001 13.3748 11.7754 13.5615 11.8555C13.7481 11.9311 13.9063 12.0529 14.0352 12.2217C14.1641 12.3862 14.2285 12.6157 14.2285 12.9092C14.2285 13.1315 14.1727 13.3405 14.0615 13.5361C13.9548 13.7318 13.7945 13.8959 13.5811 14.0293C13.372 14.1627 13.123 14.2428 12.834 14.2695V14.8105H12.4004V14.2695C11.9825 14.2295 11.6446 14.0983 11.3867 13.876C11.129 13.6537 11.0001 13.3606 11 12.9961H11.8135C11.8268 13.1694 11.8827 13.3141 11.9805 13.4297C12.0783 13.5407 12.2183 13.6114 12.4004 13.6426V12.1758C12.1026 12.1002 11.8606 12.0238 11.6738 11.9482C11.4871 11.8682 11.3267 11.7441 11.1934 11.5752C11.0644 11.4062 11 11.1744 11 10.8809C11.0001 10.512 11.129 10.2078 11.3867 9.96777C11.6446 9.72324 11.9825 9.58107 12.4004 9.54102V9H12.834V9.54102ZM12.834 13.6426C13.0296 13.6115 13.1828 13.5336 13.2939 13.4092C13.4051 13.2802 13.4609 13.1271 13.4609 12.9492C13.4609 12.7713 13.4051 12.633 13.2939 12.5352C13.1872 12.4331 13.0338 12.3512 12.834 12.2891V13.6426ZM12.4004 10.168C12.2094 10.1902 12.056 10.2586 11.9404 10.374C11.8293 10.4896 11.7734 10.6461 11.7734 10.8418C11.7735 11.0239 11.827 11.1664 11.9336 11.2686C12.0447 11.3707 12.2005 11.4524 12.4004 11.5146V10.168Z" fill="#E3E3E3"/>
</svg>
