<svg width="24" height="24" viewBox="0 0 24 24" fill="none" xmlns="http://www.w3.org/2000/svg">
<path d="M4.84922 19.15H5.94722L16.1455 8.95201L15.0472 7.87876L4.84922 18.077V19.15ZM3.19922 20.8V17.3808L17.13 3.41151C17.2158 3.32018 17.3122 3.2621 17.4192 3.23726C17.5264 3.21243 17.6305 3.20001 17.7315 3.20001C17.8325 3.20001 17.9251 3.20451 18.0095 3.21351C18.0936 3.22251 18.189 3.27376 18.2955 3.36726L20.6127 5.66551C20.7062 5.77185 20.7607 5.87185 20.7762 5.96551C20.7916 6.05935 20.7992 6.16143 20.7992 6.27176C20.7992 6.37393 20.7847 6.47443 20.7557 6.57326C20.7267 6.67193 20.6707 6.76418 20.5877 6.85001L6.61847 20.8H3.19922ZM15.6117 8.41251L15.0472 7.87876L16.1455 8.95201L15.6117 8.41251Z" fill="#E3E3E3"/>
</svg>
