<svg width="16" height="16" viewBox="0 0 16 16" fill="none" xmlns="http://www.w3.org/2000/svg">
<path fill-rule="evenodd" clip-rule="evenodd" d="M14.3905 2.2025H9.3255V1.009L1 2.294V13.5575L9.3255 14.9915V13.2225H14.3905C14.544 13.2305 14.6943 13.1773 14.8086 13.0746C14.9229 12.9719 14.9917 12.828 15 12.6745V2.75C14.9916 2.59664 14.9227 2.45287 14.8085 2.35023C14.6942 2.24759 14.5439 2.19446 14.3905 2.2025ZM14.4705 12.7655H9.3085L9.3 11.821H10.5435V10.721H9.2905L9.2845 10.071H10.5435V8.971H9.275L9.269 8.321H10.5435V7.221H9.265V6.571H10.5435V5.471H9.265V4.821H10.5435V3.721H9.265V2.721H14.4705V12.7655Z" fill="#20744A"/>
<path d="M11.2441 3.71951H13.4056V4.81951H11.2441V3.71951ZM11.2441 5.47001H13.4056V6.57001H11.2441V5.47001ZM11.2441 7.22051H13.4056V8.32051H11.2441V7.22051ZM11.2441 8.97101H13.4056V10.071H11.2441V8.97101ZM11.2441 10.7215H13.4056V11.8215H11.2441V10.7215Z" fill="#20744A"/>
<path fill-rule="evenodd" clip-rule="evenodd" d="M3.17403 5.33649L4.24703 5.27499L4.92153 7.12949L5.71853 5.19849L6.79153 5.13699L5.48853 7.76999L6.79153 10.4095L5.65703 10.333L4.89103 8.32099L4.12453 10.2565L3.08203 10.1645L4.29303 7.83299L3.17403 5.33649Z" fill="white"/>
</svg>
