<svg width="196" height="38" viewBox="0 0 196 38" fill="none" xmlns="http://www.w3.org/2000/svg">
<path d="M8.80273 5.08887V21.1318C8.80277 22.7173 9.14877 24.1271 9.83984 25.3604C10.5445 26.5935 11.5339 27.5629 12.8076 28.2676C14.0815 28.9722 15.5658 29.3251 17.2598 29.3252C18.9673 29.3252 20.4515 28.9722 21.7119 28.2676C22.9858 27.5629 23.969 26.5936 24.6602 25.3604C25.3648 24.1271 25.7168 22.7173 25.7168 21.1318V14.8662L34.5195 19.9551V21.8848C34.5194 24.9204 33.7948 27.5768 32.3447 29.8535C30.9081 32.1303 28.8952 33.9057 26.3066 35.1797C23.718 36.4401 20.7022 37.0703 17.2598 37.0703C13.804 37.0703 10.7819 36.44 8.19336 35.1797C5.60479 33.9057 3.59189 32.1303 2.15527 29.8535C0.718754 27.5768 0.000109603 24.9204 0 21.8848V0L8.80273 5.08887Z" fill="white"/>
<rect x="19.5879" y="7.66797" width="6.39461" height="7.42868" fill="#5761D7"/>
<rect x="25.9824" y="3.58105" width="3.51704" height="4.08578" fill="#DA0404"/>
<path d="M53.2378 21.2807C53.7462 21.2807 54.0005 21.535 54.0005 22.0434V32.2373C54.0005 32.7458 53.7462 33 53.2378 33C52.7293 33 52.475 32.7458 52.475 32.2373V31.3293C51.6841 32.4431 50.3402 33 48.4435 33H47.7655C46.2239 33 45.0899 32.6368 44.3635 31.9104C43.6371 31.184 43.2739 30.05 43.2739 28.5084V22.0434C43.2739 21.535 43.5282 21.2807 44.0367 21.2807C44.5451 21.2807 44.7994 21.535 44.7994 22.0434V28.5084C44.7994 29.6222 45.0133 30.3971 45.441 30.8329C45.8769 31.2607 46.6517 31.4746 47.7655 31.4746H48.4435C49.5977 31.4746 50.5339 31.3051 51.2523 30.9661C51.9787 30.619 52.3863 30.0904 52.475 29.3801V22.0434C52.475 21.535 52.7293 21.2807 53.2378 21.2807ZM61.3354 32.9879C60.3346 32.9879 59.5598 32.778 59.0109 32.3583C58.4621 31.9306 58.1231 31.2849 57.994 30.4213C57.9617 30.163 58.0142 29.9653 58.1514 29.828C58.2967 29.6828 58.4944 29.6101 58.7446 29.6101C58.9948 29.6101 59.1764 29.6747 59.2894 29.8038C59.4105 29.9249 59.4952 30.1105 59.5436 30.3607C59.6244 30.7724 59.8019 31.0589 60.0763 31.2203C60.3508 31.3817 60.7705 31.4624 61.3354 31.4624H65.3064C66.0248 31.4624 66.5131 31.3333 66.7713 31.075C67.0296 30.8168 67.1588 30.3285 67.1588 29.6101C67.1588 28.8918 67.0296 28.4035 66.7713 28.1452C66.5131 27.8869 66.0248 27.7578 65.3064 27.7578H61.396C60.3064 27.7578 59.4912 27.4915 58.9504 26.9588C58.4177 26.4261 58.1514 25.6149 58.1514 24.5253C58.1514 23.4115 58.4177 22.5923 58.9504 22.0677C59.4831 21.535 60.2983 21.2686 61.396 21.2686H65.1854C67.0417 21.2686 68.091 22.0717 68.3331 23.6778C68.3815 23.928 68.3331 24.1258 68.1878 24.2711C68.0506 24.4083 67.8529 24.4769 67.5946 24.4769C67.3525 24.4769 67.1709 24.4164 67.0498 24.2953C66.9368 24.1661 66.8521 23.9845 66.7956 23.7505C66.7229 23.3873 66.5655 23.1371 66.3234 22.9999C66.0813 22.8627 65.7019 22.7941 65.1854 22.7941H61.396C60.7261 22.7941 60.27 22.9111 60.0279 23.1451C59.7938 23.3792 59.6768 23.8393 59.6768 24.5253C59.6768 25.1791 59.7979 25.627 60.04 25.8692C60.2822 26.1113 60.7341 26.2324 61.396 26.2324H65.3064C66.4525 26.2324 67.3 26.5108 67.8488 27.0677C68.4057 27.6166 68.6842 28.464 68.6842 29.6101C68.6842 30.7562 68.4057 31.6077 67.8488 32.1646C67.3 32.7135 66.4525 32.9879 65.3064 32.9879H61.3354ZM76.7393 33C75.1977 33 74.0637 32.6368 73.3373 31.9104C72.6109 31.184 72.2477 30.0581 72.2477 28.5326V25.7723C72.2477 24.2146 72.6109 23.0765 73.3373 22.3582C74.0637 21.6318 75.1977 21.2726 76.7393 21.2807H78.7248C80.2745 21.2807 81.4085 21.6439 82.1268 22.3703C82.8532 23.0887 83.2164 24.2226 83.2164 25.7723V28.5084C83.2164 30.05 82.8532 31.184 82.1268 31.9104C81.4085 32.6368 80.2745 33 78.7248 33H76.7393ZM73.7732 28.5326C73.7732 29.6384 73.9871 30.4051 74.4148 30.8329C74.8507 31.2607 75.6255 31.4746 76.7393 31.4746H78.7248C79.8467 31.4746 80.6215 31.2607 81.0493 30.8329C81.4771 30.3971 81.691 29.6222 81.691 28.5084V25.7723C81.691 24.6504 81.4771 23.8756 81.0493 23.4478C80.6215 23.02 79.8467 22.8062 78.7248 22.8062H76.7393C75.9968 22.7981 75.4076 22.8869 74.9717 23.0725C74.544 23.2501 74.2373 23.5568 74.0516 23.9926C73.866 24.4204 73.7732 25.0136 73.7732 25.7723V28.5326ZM88.5623 33C88.0538 33 87.7995 32.7458 87.7995 32.2373V22.8062H86.8189C86.3104 22.8062 86.0562 22.5519 86.0562 22.0434C86.0562 21.535 86.3104 21.2807 86.8189 21.2807H87.7995V20.5422C87.7995 19.0168 88.1547 17.8989 88.8649 17.1887C89.5833 16.4784 90.7011 16.1233 92.2185 16.1233C92.6866 16.1233 92.9207 16.3775 92.9207 16.886C92.9207 17.3945 92.6866 17.6487 92.2185 17.6487C91.1289 17.6487 90.3742 17.8586 89.9545 18.2783C89.5348 18.6899 89.325 19.4445 89.325 20.5422V21.2807H92.1579C92.6664 21.2807 92.9207 21.535 92.9207 22.0434C92.9207 22.5519 92.6664 22.8062 92.1579 22.8062H89.325V32.2373C89.325 32.7458 89.0707 33 88.5623 33ZM100.77 33C99.2441 33 98.1263 32.6449 97.416 31.9346C96.7058 31.2244 96.3506 30.1146 96.3506 28.6053V22.8062H94.9947C94.4862 22.8062 94.232 22.5519 94.232 22.0434C94.232 21.535 94.4862 21.2807 94.9947 21.2807H96.3506V18.9562C96.3506 18.4478 96.6049 18.1935 97.1134 18.1935C97.6218 18.1935 97.8761 18.4478 97.8761 18.9562V21.2807H100.83C101.339 21.2807 101.593 21.535 101.593 22.0434C101.593 22.5519 101.339 22.8062 100.83 22.8062H97.8761V28.6053C97.8761 29.6949 98.0859 30.4455 98.5056 30.8571C98.9253 31.2687 99.68 31.4746 100.77 31.4746C101.036 31.4746 101.23 31.5391 101.351 31.6683C101.48 31.7893 101.544 31.979 101.544 32.2373C101.544 32.7458 101.286 33 100.77 33Z" fill="white"/>
</svg>
