<svg width="16" height="16" viewBox="0 0 16 16" fill="none" xmlns="http://www.w3.org/2000/svg">
<path d="M3.74399 13.3333C3.4371 13.3333 3.18088 13.2305 2.97533 13.025C2.76977 12.8194 2.66699 12.5632 2.66699 12.2563V3.74366C2.66699 3.43677 2.76977 3.18055 2.97533 2.97499C3.18088 2.76943 3.4371 2.66666 3.74399 2.66666H8.01316V3.33332H3.74399C3.64133 3.33332 3.54727 3.37605 3.46183 3.46149C3.37638 3.54693 3.33366 3.64099 3.33366 3.74366V12.2563C3.33366 12.359 3.37638 12.453 3.46183 12.5385C3.54727 12.6239 3.64133 12.6667 3.74399 12.6667H8.01316V13.3333H3.74399ZM10.9747 10.359L10.5067 9.87949L12.0528 8.33332H6.12849V7.66666H12.0528L10.5067 6.12049L10.9747 5.64099L13.3337 7.99999L10.9747 10.359Z" fill="#BD404A"/>
</svg>
