<svg width="16" height="16" viewBox="0 0 16 16" fill="none" xmlns="http://www.w3.org/2000/svg">
<path d="M3 2L8.5 1.5L13 5.5V14H3V2Z" fill="white"/>
<path d="M8.66602 6.00001H12.3327L8.66602 2.33334V6.00001ZM3.99935 1.33334H9.33268L13.3327 5.33334V13.3333C13.3327 13.687 13.1922 14.0261 12.9422 14.2762C12.6921 14.5262 12.353 14.6667 11.9993 14.6667H3.99935C3.64573 14.6667 3.30659 14.5262 3.05654 14.2762C2.80649 14.0261 2.66602 13.687 2.66602 13.3333V2.66668C2.66602 2.31305 2.80649 1.97392 3.05654 1.72387C3.30659 1.47382 3.64573 1.33334 3.99935 1.33334ZM7.28602 8.29334C7.55935 8.89334 7.90602 9.38668 8.30602 9.72668L8.57935 9.94001C7.99935 10.0467 7.19935 10.2333 6.35268 10.56L6.27935 10.5867L6.61268 9.89334C6.91268 9.31334 7.13268 8.78668 7.28602 8.29334ZM11.606 10.8333C11.726 10.7133 11.786 10.56 11.7927 10.3933C11.8127 10.26 11.7793 10.1333 11.7127 10.0267C11.5193 9.71334 11.0193 9.56668 10.1927 9.56668L9.33268 9.61334L8.75268 9.22668C8.33268 8.88001 7.95268 8.27334 7.68602 7.52001L7.71268 7.42668C7.93268 6.54001 8.13935 5.46668 7.69935 5.02668C7.64553 4.97442 7.58187 4.93336 7.51206 4.9059C7.44225 4.87843 7.36768 4.8651 7.29268 4.86668H7.13268C6.88602 4.86668 6.66602 5.12668 6.60602 5.38001C6.35935 6.26668 6.50602 6.75334 6.75268 7.56001V7.56668C6.58602 8.15334 6.37268 8.83334 6.03268 9.52001L5.39268 10.72L4.79935 11.0467C3.99935 11.5467 3.61935 12.1067 3.54602 12.46C3.51935 12.5867 3.53268 12.7 3.57935 12.82L3.59935 12.8533L3.91935 13.06L4.21268 13.1333C4.75268 13.1333 5.36602 12.5 6.19268 11.0867L6.31268 11.04C6.99935 10.82 7.85268 10.6667 8.99935 10.54C9.68602 10.88 10.4927 11.0333 10.9993 11.0333C11.2927 11.0333 11.4927 10.96 11.606 10.8333ZM11.3327 10.36L11.3927 10.4333C11.386 10.5 11.366 10.5067 11.3327 10.52H11.306L11.1793 10.5333C10.8727 10.5333 10.3993 10.4067 9.91268 10.1933C9.97268 10.1267 9.99935 10.1267 10.066 10.1267C10.9993 10.1267 11.266 10.2933 11.3327 10.36ZM5.21935 11.3333C4.78602 12.1267 4.39268 12.5667 4.09268 12.6667C4.12602 12.4133 4.42602 11.9733 4.89935 11.54L5.21935 11.3333ZM7.23268 6.72668C7.07935 6.12668 7.07268 5.64001 7.18602 5.36001L7.23268 5.28001L7.33268 5.31334C7.44602 5.47334 7.45935 5.68668 7.39268 6.04668L7.37268 6.15334L7.26602 6.70001L7.23268 6.72668Z" fill="#EF5350"/>
</svg>
