<svg width="20" height="20" viewBox="0 0 20 20" fill="none" xmlns="http://www.w3.org/2000/svg">
<path d="M19.001 18.1582H1V5.8418H10.001V7.2627H2.4209V16.7373H17.5791V7.2627H17.001V5.8418H19.001V18.1582ZM16.4863 12.1455V15.6436H12.9883V14.5146H15.3564V12.1455H16.4863ZM10 9.44922C10.7043 9.44922 11.3057 9.69838 11.8037 10.1963C12.3017 10.6943 12.5508 11.2956 12.5508 12C12.5508 12.7044 12.3017 13.3057 11.8037 13.8037C11.3057 14.3016 10.7043 14.5508 10 14.5508C9.29575 14.5507 8.69423 14.3017 8.19629 13.8037C7.69838 13.3057 7.44922 12.7043 7.44922 12C7.44922 11.2957 7.69838 10.6943 8.19629 10.1963C8.69423 9.69835 9.29575 9.4493 10 9.44922ZM7.0127 8.35645V9.48535H4.64355V11.8545H3.51465V8.35645H7.0127Z" fill="#E3E3E3"/>
<path d="M12.1342 7.48635V4.98581C12.1342 4.89231 12.1657 4.81401 12.2288 4.7509C12.2919 4.68786 12.3701 4.65634 12.4636 4.65634C12.5571 4.65634 12.6354 4.68786 12.6984 4.7509C12.7616 4.81401 12.7931 4.89231 12.7931 4.98581V7.48635L13.3608 6.91867C13.4262 6.85336 13.5026 6.82111 13.5902 6.82192C13.6778 6.82279 13.7556 6.85505 13.8238 6.91867C13.8919 6.98683 13.9271 7.0651 13.9294 7.15347C13.9316 7.24192 13.8987 7.32022 13.8305 7.38839L12.7416 8.47729C12.6622 8.55673 12.5695 8.59645 12.4636 8.59645C12.3578 8.59645 12.2651 8.55673 12.1857 8.47729L11.0968 7.38839C11.0315 7.32301 10.9992 7.24543 11 7.15567C11.0009 7.06584 11.0354 6.98683 11.1035 6.91867C11.1716 6.85505 11.2488 6.8221 11.335 6.81983C11.4212 6.81756 11.4983 6.85051 11.5665 6.91867L12.1342 7.48635Z" fill="white"/>
<path d="M14.3627 4.1101V6.61064C14.3627 6.70414 14.3942 6.78244 14.4574 6.84555C14.5204 6.90859 14.5987 6.94011 14.6922 6.94011C14.7857 6.94011 14.8639 6.90859 14.927 6.84555C14.9901 6.78244 15.0216 6.70414 15.0216 6.61064V4.1101L15.5893 4.67778C15.6547 4.74309 15.7312 4.77534 15.8187 4.77454C15.9063 4.77366 15.9842 4.74141 16.0523 4.67778C16.1204 4.60962 16.1556 4.53135 16.1579 4.44298C16.1601 4.35453 16.1272 4.27623 16.059 4.20806L14.9701 3.11916C14.8907 3.03972 14.798 3 14.6922 3C14.5863 3 14.4936 3.03972 14.4142 3.11916L13.3253 4.20806C13.26 4.27345 13.2277 4.35102 13.2285 4.44078C13.2294 4.53062 13.2639 4.60962 13.332 4.67778C13.4001 4.74141 13.4773 4.77435 13.5635 4.77662C13.6497 4.77889 13.7268 4.74594 13.795 4.67778L14.3627 4.1101Z" fill="white"/>
</svg>
