<svg width="20" height="20" viewBox="0 0 20 20" fill="none" xmlns="http://www.w3.org/2000/svg">
<path d="M5.22572 14.3829C5.97572 13.8872 6.73773 13.519 7.51176 13.2781C8.28579 13.0372 9.11509 12.9167 9.99967 12.9167C10.8843 12.9167 11.7136 13.0372 12.4876 13.2781C13.2616 13.519 14.0236 13.8872 14.7736 14.3829C15.3239 13.8135 15.7491 13.1549 16.0493 12.4071C16.3495 11.6592 16.4997 10.8568 16.4997 10C16.4997 8.19904 15.8661 6.66543 14.5991 5.39918C13.332 4.13307 11.7972 3.50001 9.99488 3.50001C8.19252 3.50001 6.6594 4.13307 5.39551 5.39918C4.13162 6.66543 3.49967 8.19904 3.49967 10C3.49967 10.8568 3.64981 11.6592 3.95009 12.4071C4.25023 13.1549 4.67544 13.8135 5.22572 14.3829ZM10.0001 11.0833C9.28398 11.0833 8.67433 10.8319 8.17113 10.329C7.66794 9.82605 7.41634 9.21654 7.41634 8.50043C7.41634 7.78432 7.6678 7.17466 8.17072 6.67147C8.67363 6.16827 9.28315 5.91668 9.99926 5.91668C10.7154 5.91668 11.325 6.16814 11.8282 6.67105C12.3314 7.17397 12.583 7.78348 12.583 8.49959C12.583 9.2157 12.3315 9.82536 11.8286 10.3286C11.3257 10.8317 10.7162 11.0833 10.0001 11.0833ZM10.0055 17.1667C9.0112 17.1667 8.0787 16.9824 7.20801 16.6138C6.33731 16.2451 5.57474 15.7337 4.9203 15.0794C4.26599 14.4249 3.75454 13.6626 3.38592 12.7925C3.01731 11.9224 2.83301 10.9883 2.83301 9.99043C2.83301 8.99251 3.01731 8.06168 3.38592 7.19793C3.75454 6.33418 4.26599 5.57508 4.9203 4.92064C5.57474 4.26633 6.33704 3.75487 7.20717 3.38626C8.07731 3.01765 9.01134 2.83334 10.0093 2.83334C11.0072 2.83334 11.938 3.01765 12.8018 3.38626C13.6655 3.75487 14.4246 4.26633 15.0791 4.92064C15.7334 5.57508 16.2448 6.3357 16.6134 7.20251C16.982 8.06945 17.1663 9.00001 17.1663 9.99418C17.1663 10.9885 16.982 11.921 16.6134 12.7917C16.2448 13.6624 15.7334 14.4249 15.0791 15.0794C14.4246 15.7337 13.664 16.2451 12.7972 16.6138C11.9302 16.9824 10.9997 17.1667 10.0055 17.1667ZM9.99967 16.5C10.754 16.5 11.5099 16.3587 12.2674 16.0761C13.0247 15.7936 13.6951 15.398 14.2784 14.8894C13.6812 14.4823 13.0199 14.1629 12.2945 13.9311C11.569 13.6992 10.8041 13.5833 9.99967 13.5833C9.19523 13.5833 8.42412 13.6931 7.68634 13.9127C6.9487 14.1323 6.29356 14.4579 5.72092 14.8894C6.30426 15.398 6.97461 15.7936 7.73197 16.0761C8.48947 16.3587 9.24537 16.5 9.99967 16.5ZM9.99967 10.4167C10.5231 10.4167 10.9735 10.2281 11.3507 9.85105C11.7278 9.47383 11.9163 9.02348 11.9163 8.50001C11.9163 7.97654 11.7278 7.52619 11.3507 7.14897C10.9735 6.77189 10.5231 6.58334 9.99967 6.58334C9.4762 6.58334 9.02586 6.77189 8.64863 7.14897C8.27155 7.52619 8.08301 7.97654 8.08301 8.50001C8.08301 9.02348 8.27155 9.47383 8.64863 9.85105C9.02586 10.2281 9.4762 10.4167 9.99967 10.4167Z" fill="#E3E3E3"/>
</svg>
