<svg width="20" height="20" viewBox="0 0 20 20" fill="none" xmlns="http://www.w3.org/2000/svg">
<path d="M18.3307 5.62467H16.0066C15.5057 5.62467 15.2552 5.62467 15.0191 5.55316C14.7829 5.48165 14.5745 5.34272 14.1576 5.06484C13.5325 4.64803 12.8192 4.17255 12.4649 4.06527C12.1106 3.95801 11.7349 3.95801 10.9835 3.95801C9.96165 3.95801 9.30298 3.95801 8.84356 4.14831C8.38415 4.33861 8.02286 4.6999 7.30029 5.42247L6.66439 6.05837C6.50155 6.22122 6.42012 6.30264 6.36985 6.38302C6.18352 6.68102 6.20417 7.06388 6.42147 7.3401C6.4801 7.41462 6.5698 7.48681 6.74921 7.63119C7.41236 8.16487 8.3684 8.11161 8.9689 7.50752L9.9974 6.47289H10.8307L15.8307 11.5026C16.291 11.9656 16.291 12.7162 15.8307 13.1792C15.3705 13.6422 14.6243 13.6422 14.1641 13.1792L13.7474 12.7601M13.7474 12.7601L11.2474 10.2452M13.7474 12.7601C14.2076 13.2231 14.2076 13.9737 13.7474 14.4366C13.2871 14.8996 12.541 14.8996 12.0807 14.4366L11.2474 13.5984M11.2474 13.5984C11.7076 14.0613 11.7076 14.812 11.2474 15.275C10.7871 15.7379 10.041 15.7379 9.58073 15.275L8.33073 14.0175M11.2474 13.5984L9.58073 11.9317M8.33073 14.0175L7.91406 13.5984M8.33073 14.0175C8.79098 14.4805 8.79098 15.2311 8.33073 15.6941C7.8705 16.1571 7.1243 16.1571 6.66406 15.6941L4.31104 13.2921C3.82752 12.7985 3.58576 12.5517 3.27602 12.4215C2.96628 12.2913 2.6208 12.2913 1.92985 12.2913H1.66406" stroke="#E3E3E3" stroke-width="1.25" stroke-linecap="round" stroke-linejoin="round"/>
<path d="M18.3333 12.292H16.25" stroke="#E3E3E3" stroke-width="1.25" stroke-linecap="round"/>
<path d="M7.08073 5.625H1.66406" stroke="#E3E3E3" stroke-width="1.25" stroke-linecap="round"/>
</svg>
