<svg width="24" height="24" viewBox="0 0 24 24" fill="none" xmlns="http://www.w3.org/2000/svg">
<path d="M19 14.5882V5C19 4.44772 18.5523 4 18 4H8C7.44772 4 7 4.44772 7 5V21C7 21.5523 7.44772 22 8 22H18C18.5523 22 19 21.5523 19 21V20.9412" stroke="#E3E3E3" stroke-width="1.3"/>
<path d="M17 4V3C17 2.44772 16.5523 2 16 2H4C3.44772 2 3 2.44772 3 3V18C3 18.5523 3.44772 19 4 19H7" stroke="#E3E3E3" stroke-width="1.3"/>
<path d="M11.0635 6.6084C11.5038 6.64843 11.8569 6.78815 12.1221 7.02832C12.3922 7.26347 12.545 7.58868 12.5801 8.00391H11.6641C11.649 7.84906 11.5892 7.71173 11.4844 7.5918C11.3793 7.46669 11.2386 7.38097 11.0635 7.33594V8.95703C11.3988 9.0371 11.6717 9.12282 11.8818 9.21289C12.0919 9.29793 12.27 9.43496 12.415 9.625C12.5601 9.81012 12.6328 10.0682 12.6328 10.3984C12.6328 10.6486 12.5704 10.8843 12.4453 11.1045C12.3252 11.3246 12.1444 11.5091 11.9043 11.6592C11.6691 11.8093 11.3887 11.8997 11.0635 11.9297V12.5381H10.5762V11.9297C10.1058 11.8847 9.72481 11.7375 9.43457 11.4873C9.14437 11.2371 9 10.9064 9 10.4961H9.91504C9.93005 10.6912 9.99247 10.8543 10.1025 10.9844C10.2126 11.1095 10.371 11.1896 10.5762 11.2246V9.57324C10.2409 9.48817 9.96798 9.40245 9.75781 9.31738C9.54765 9.22731 9.36691 9.08761 9.2168 8.89746C9.07183 8.70741 9.00006 8.44715 9 8.11719C9 7.70205 9.14461 7.35903 9.43457 7.08887C9.72481 6.81364 10.1058 6.65344 10.5762 6.6084V6H11.0635V6.6084ZM11.0635 11.2246C11.2836 11.1896 11.4569 11.102 11.582 10.9619C11.7071 10.8168 11.7695 10.6435 11.7695 10.4434C11.7695 10.2435 11.7069 10.0885 11.582 9.97852C11.4619 9.86342 11.2887 9.77025 11.0635 9.7002V11.2246ZM10.5762 7.31348C10.361 7.3385 10.1877 7.41581 10.0576 7.5459C9.93259 7.67592 9.8702 7.85131 9.87012 8.07129C9.87012 8.27646 9.93068 8.43666 10.0508 8.55176C10.1759 8.66684 10.351 8.76002 10.5762 8.83008V7.31348Z" fill="#E3E3E3"/>
<rect x="9" y="15" width="4" height="0.733757" rx="0.366878" fill="#E3E3E3"/>
<rect x="9" y="16.4675" width="4" height="0.733757" rx="0.366878" fill="#E3E3E3"/>
<rect x="9" y="17.935" width="4" height="0.733757" rx="0.366878" fill="#E3E3E3"/>
<circle cx="19" cy="18" r="3.5" stroke="#E3E3E3"/>
<path d="M18 17.9524L18.8333 18.7857L20.5 17" stroke="#E3E3E3" stroke-width="0.8" stroke-linecap="round" stroke-linejoin="round"/>
</svg>
