<svg width="24" height="24" viewBox="0 0 24 24" fill="none" xmlns="http://www.w3.org/2000/svg">
<path d="M4.327 19.673V18.173H7.25L6.523 17.477C5.70133 16.7167 5.11708 15.8657 4.77025 14.924C4.42342 13.9823 4.25 13.0308 4.25 12.0693C4.25 10.3411 4.75608 8.79142 5.76825 7.42025C6.78042 6.04909 8.10767 5.10775 9.75 4.59625V6.177C8.5435 6.64867 7.57525 7.42142 6.84525 8.49525C6.11508 9.56892 5.75 10.7603 5.75 12.0693C5.75 12.8513 5.89808 13.6108 6.19425 14.348C6.49042 15.0852 6.95133 15.7666 7.577 16.3923L8.2115 17.027V14.2885H9.7115V19.673H4.327ZM14.25 19.4038V17.823C15.4565 17.3513 16.4248 16.5786 17.1547 15.5048C17.8849 14.4311 18.25 13.2398 18.25 11.9308C18.25 11.1488 18.1019 10.3892 17.8057 9.652C17.5096 8.91484 17.0487 8.23342 16.423 7.60775L15.7885 6.973V9.7115H14.2885V4.327H19.673V5.827H16.75L17.477 6.523C18.268 7.31417 18.8446 8.17284 19.2068 9.099C19.5689 10.0253 19.75 10.9693 19.75 11.9308C19.75 13.6589 19.2439 15.2086 18.2318 16.5798C17.2196 17.9509 15.8923 18.8923 14.25 19.4038Z" fill="#E3E3E3"/>
</svg>
