<svg width="24" height="24" viewBox="0 0 24 24" fill="none" xmlns="http://www.w3.org/2000/svg">
<path d="M20.7992 7.07319V18.5347C20.7992 19.1739 20.5814 19.7112 20.1457 20.1467C19.7102 20.5824 19.1729 20.8002 18.5337 20.8002H5.46472C4.82555 20.8002 4.28822 20.5824 3.85272 20.1467C3.41705 19.7112 3.19922 19.1739 3.19922 18.5347V5.4657C3.19922 4.82653 3.41705 4.2892 3.85272 3.8537C4.28822 3.41803 4.82555 3.2002 5.46472 3.2002H16.9262L20.7992 7.07319ZM19.1492 7.7612L16.2382 4.8502H5.46472C5.28522 4.8502 5.13772 4.90786 5.02222 5.02319C4.90689 5.13869 4.84922 5.2862 4.84922 5.4657V18.5347C4.84922 18.7142 4.90689 18.8617 5.02222 18.9772C5.13772 19.0925 5.28522 19.1502 5.46472 19.1502H18.5337C18.7132 19.1502 18.8607 19.0925 18.9762 18.9772C19.0916 18.8617 19.1492 18.7142 19.1492 18.5347V7.7612ZM12.0022 16.8887C12.6516 16.8887 13.2051 16.6589 13.6627 16.1992C14.1204 15.7395 14.3492 15.185 14.3492 14.5357C14.3492 13.8864 14.1194 13.3329 13.6597 12.8752C13.2001 12.4175 12.6456 12.1887 11.9962 12.1887C11.3469 12.1887 10.7934 12.4185 10.3357 12.8782C9.87805 13.3379 9.64922 13.8924 9.64922 14.5417C9.64922 15.191 9.87905 15.7445 10.3387 16.2022C10.7984 16.6599 11.3529 16.8887 12.0022 16.8887ZM6.41847 10.1194H14.6415V6.41945H6.41847V10.1194ZM4.84922 7.7612V19.1502V4.8502V7.7612Z" fill="#E3E3E3"/>
</svg>
