<svg width="696" height="900" viewBox="0 0 696 900" fill="none" xmlns="http://www.w3.org/2000/svg">
<rect width="696" height="900" fill="url(#paint0_linear_134_3692)"/>
<rect opacity="0.21" x="480" y="76.5455" width="139.152" height="139.152" fill="#5761D7"/>
<rect opacity="0.25" y="760.545" width="139.152" height="139.152" fill="#5761D7"/>
<path d="M114.048 301.479V338.216C114.048 341.647 114.795 344.698 116.291 347.366C117.816 350.035 119.957 352.131 122.714 353.656C125.471 355.181 128.682 355.944 132.348 355.944C136.043 355.944 139.254 355.181 141.981 353.656C144.738 352.131 146.865 350.035 148.36 347.366C149.885 344.698 150.648 341.647 150.648 338.216V319.692L169.696 329.172V339.844C169.696 346.413 168.127 352.161 164.989 357.088C161.881 362.015 157.525 365.857 151.924 368.613C146.322 371.341 139.797 372.704 132.348 372.704C124.87 372.704 118.33 371.341 112.729 368.613C107.127 365.857 102.772 362.015 99.6631 357.088C96.5546 352.161 95.0001 346.413 95 339.844V292L114.048 301.479Z" fill="white"/>
<rect x="134.391" y="303.195" width="16.585" height="16.585" fill="#5761D7"/>
<rect x="150.975" y="294.072" width="9.12174" height="9.12174" fill="#DA0404"/>
<rect opacity="0.21" x="619.146" width="76.5334" height="76.5334" fill="#DA0404"/>
<rect opacity="0.25" x="139.146" y="684" width="76.5334" height="76.5334" fill="#DA0404"/>
<path d="M105.868 473V462.792L95.968 442.816H102.48L108.816 456.016L115.152 442.816H121.664L111.764 462.792V473H105.868ZM131.744 473.616C124.572 473.616 119.82 468.952 119.82 462C119.82 455.048 124.572 450.384 131.744 450.384C138.916 450.384 143.668 455.048 143.668 462C143.668 468.952 138.916 473.616 131.744 473.616ZM131.744 468.952C135.748 468.952 138.388 466.18 138.388 462C138.388 457.82 135.748 455.048 131.744 455.048C127.74 455.048 125.1 457.82 125.1 462C125.1 466.18 127.74 468.952 131.744 468.952ZM168.121 451V473H162.841V471.372C161.389 472.736 159.013 473.616 156.857 473.616C150.829 473.616 146.825 470.052 146.825 464.684V451H152.105V464.068C152.105 467.016 154.261 468.952 157.473 468.952C160.685 468.952 162.841 467.016 162.841 464.068V451H168.121ZM172.176 473V451H177.456V453.596C178.6 451.792 180.756 450.56 182.78 450.56C183.572 450.56 184.496 450.736 185.112 451V455.048H183.308C179.788 455.048 177.456 457.028 177.456 459.976V473H172.176ZM207.798 473.616C200.626 473.616 195.874 468.952 195.874 462C195.874 455.048 200.626 450.384 207.798 450.384C213.738 450.384 218.314 454.124 219.282 459.712H214.222C213.518 456.896 210.966 455.048 207.798 455.048C203.794 455.048 201.154 457.82 201.154 462C201.154 466.18 203.794 468.952 207.798 468.952C211.01 468.952 213.606 467.016 214.266 464.068H219.326C218.402 469.788 213.782 473.616 207.798 473.616ZM243.789 451V473H238.509V471.372C237.057 472.736 234.681 473.616 232.525 473.616C226.497 473.616 222.493 470.052 222.493 464.684V451H227.773V464.068C227.773 467.016 229.929 468.952 233.141 468.952C236.353 468.952 238.509 467.016 238.509 464.068V451H243.789ZM247.844 473V451H253.124V453.596C254.268 451.792 256.424 450.56 258.448 450.56C259.24 450.56 260.164 450.736 260.78 451V455.048H258.976C255.456 455.048 253.124 457.028 253.124 459.976V473H247.844ZM263.614 473V451H268.894V453.596C270.038 451.792 272.194 450.56 274.218 450.56C275.01 450.56 275.934 450.736 276.55 451V455.048H274.746C271.226 455.048 268.894 457.028 268.894 459.976V473H263.614ZM288.666 473.616C281.494 473.616 276.742 468.952 276.742 462C276.742 455.048 281.494 450.384 288.666 450.384C295.838 450.384 300.59 455.048 300.59 462V463.012L300.15 463.452H282.11C282.594 466.928 285.234 469.216 288.666 469.216C291.262 469.216 293.682 467.72 294.694 465.52H300.062C298.61 470.36 294.034 473.616 288.666 473.616ZM282.462 459.052H294.87C293.858 456.324 291.614 454.784 288.666 454.784C285.718 454.784 283.474 456.324 282.462 459.052ZM303.747 473V451H309.027V452.628C310.479 451.264 312.855 450.384 315.011 450.384C321.039 450.384 325.043 453.948 325.043 459.316V473H319.763V459.932C319.763 456.984 317.607 455.048 314.395 455.048C311.183 455.048 309.027 456.984 309.027 459.932V473H303.747ZM339.713 473.616C332.541 473.616 327.789 468.952 327.789 462C327.789 455.048 332.541 450.384 339.713 450.384C345.653 450.384 350.229 454.124 351.197 459.712H346.137C345.433 456.896 342.881 455.048 339.713 455.048C335.709 455.048 333.069 457.82 333.069 462C333.069 466.18 335.709 468.952 339.713 468.952C342.925 468.952 345.521 467.016 346.181 464.068H351.241C350.317 469.788 345.697 473.616 339.713 473.616ZM356.639 481.184L360.423 471.592L352.019 451H357.651L363.107 464.816L368.519 451H374.195L362.315 481.184H356.639ZM372.797 473V466.488H379.309V473H372.797ZM403.212 473V462.792L393.312 442.816H399.824L406.16 456.016L412.496 442.816H419.008L409.108 462.792V473H403.212ZM429.088 473.616C421.916 473.616 417.164 468.952 417.164 462C417.164 455.048 421.916 450.384 429.088 450.384C436.26 450.384 441.012 455.048 441.012 462C441.012 468.952 436.26 473.616 429.088 473.616ZM429.088 468.952C433.092 468.952 435.732 466.18 435.732 462C435.732 457.82 433.092 455.048 429.088 455.048C425.084 455.048 422.444 457.82 422.444 462C422.444 466.18 425.084 468.952 429.088 468.952ZM465.465 451V473H460.185V471.372C458.733 472.736 456.357 473.616 454.201 473.616C448.173 473.616 444.169 470.052 444.169 464.684V451H449.449V464.068C449.449 467.016 451.605 468.952 454.817 468.952C458.029 468.952 460.185 467.016 460.185 464.068V451H465.465ZM469.52 473V451H474.8V453.596C475.944 451.792 478.1 450.56 480.124 450.56C480.916 450.56 481.84 450.736 482.456 451V455.048H480.652C477.132 455.048 474.8 457.028 474.8 459.976V473H469.52ZM107.76 533.616C100.808 533.616 96.144 528.952 96.144 522C96.144 515.048 100.808 510.384 107.76 510.384C110.444 510.384 113.392 511.616 115.064 513.42V502.816H120.344V533H115.064V530.58C113.392 532.384 110.444 533.616 107.76 533.616ZM108.288 528.952C112.336 528.952 115.064 526.18 115.064 522C115.064 517.82 112.336 515.048 108.288 515.048C104.152 515.048 101.424 517.82 101.424 522C101.424 526.18 104.152 528.952 108.288 528.952ZM134.955 533.616C128.091 533.616 123.515 528.952 123.515 522C123.515 515.048 128.091 510.384 134.955 510.384C137.551 510.384 140.411 511.572 142.083 513.376V511H147.363V533H142.083V530.624C140.411 532.428 137.551 533.616 134.955 533.616ZM135.483 528.952C139.443 528.952 142.083 526.18 142.083 522C142.083 517.82 139.443 515.048 135.483 515.048C131.479 515.048 128.795 517.82 128.795 522C128.795 526.18 131.479 528.952 135.483 528.952ZM160.321 533.616C154.381 533.616 150.289 530.36 150.113 525.52H155.085C155.261 527.72 157.373 529.216 160.321 529.216C163.269 529.216 165.249 528.072 165.249 526.356C165.249 525.3 163.929 524.552 159.837 523.76C153.457 522.308 151.433 520.856 151.433 517.204C151.433 513.112 154.997 510.384 160.321 510.384C164.545 510.384 168.241 512.672 169.517 516.104L164.677 517.292C164.017 515.796 162.257 514.784 160.321 514.784C158.165 514.784 156.713 515.664 156.713 516.94C156.713 517.864 157.725 518.436 160.849 519.14C168.197 520.68 170.529 522.352 170.529 526.356C170.529 530.712 166.437 533.616 160.321 533.616ZM173.251 533V502.816H178.531V512.628C179.983 511.264 182.359 510.384 184.515 510.384C190.543 510.384 194.547 513.948 194.547 519.316V533H189.267V519.932C189.267 516.984 187.111 515.048 183.899 515.048C180.687 515.048 178.531 516.984 178.531 519.932V533H173.251ZM211.186 533.616C208.502 533.616 205.554 532.384 203.882 530.58V533H198.602V502.816H203.882V513.42C205.554 511.616 208.502 510.384 211.186 510.384C218.138 510.384 222.802 515.048 222.802 522C222.802 528.952 218.138 533.616 211.186 533.616ZM210.658 528.952C214.794 528.952 217.522 526.18 217.522 522C217.522 517.82 214.794 515.048 210.658 515.048C206.61 515.048 203.882 517.82 203.882 522C203.882 526.18 206.61 528.952 210.658 528.952ZM237.017 533.616C229.845 533.616 225.093 528.952 225.093 522C225.093 515.048 229.845 510.384 237.017 510.384C244.189 510.384 248.941 515.048 248.941 522C248.941 528.952 244.189 533.616 237.017 533.616ZM237.017 528.952C241.021 528.952 243.661 526.18 243.661 522C243.661 517.82 241.021 515.048 237.017 515.048C233.013 515.048 230.373 517.82 230.373 522C230.373 526.18 233.013 528.952 237.017 528.952ZM262.658 533.616C255.794 533.616 251.218 528.952 251.218 522C251.218 515.048 255.794 510.384 262.658 510.384C265.254 510.384 268.114 511.572 269.786 513.376V511H275.066V533H269.786V530.624C268.114 532.428 265.254 533.616 262.658 533.616ZM263.186 528.952C267.146 528.952 269.786 526.18 269.786 522C269.786 517.82 267.146 515.048 263.186 515.048C259.182 515.048 256.498 517.82 256.498 522C256.498 526.18 259.182 528.952 263.186 528.952ZM279.126 533V511H284.406V513.596C285.55 511.792 287.706 510.56 289.73 510.56C290.522 510.56 291.446 510.736 292.062 511V515.048H290.258C286.738 515.048 284.406 517.028 284.406 519.976V533H279.126ZM303.869 533.616C296.917 533.616 292.253 528.952 292.253 522C292.253 515.048 296.917 510.384 303.869 510.384C306.553 510.384 309.501 511.616 311.173 513.42V502.816H316.453V533H311.173V530.58C309.501 532.384 306.553 533.616 303.869 533.616ZM304.397 528.952C308.445 528.952 311.173 526.18 311.173 522C311.173 517.82 308.445 515.048 304.397 515.048C300.261 515.048 297.533 517.82 297.533 522C297.533 526.18 300.261 528.952 304.397 528.952ZM320.504 533V526.488H327.016V533H320.504ZM350.919 533V522.792L341.019 502.816H347.531L353.867 516.016L360.203 502.816H366.715L356.815 522.792V533H350.919ZM376.795 533.616C369.623 533.616 364.871 528.952 364.871 522C364.871 515.048 369.623 510.384 376.795 510.384C383.967 510.384 388.719 515.048 388.719 522C388.719 528.952 383.967 533.616 376.795 533.616ZM376.795 528.952C380.799 528.952 383.439 526.18 383.439 522C383.439 517.82 380.799 515.048 376.795 515.048C372.791 515.048 370.151 517.82 370.151 522C370.151 526.18 372.791 528.952 376.795 528.952ZM413.172 511V533H407.892V531.372C406.44 532.736 404.064 533.616 401.908 533.616C395.88 533.616 391.876 530.052 391.876 524.684V511H397.156V524.068C397.156 527.016 399.312 528.952 402.524 528.952C405.736 528.952 407.892 527.016 407.892 524.068V511H413.172ZM417.227 533V511H422.507V513.596C423.651 511.792 425.807 510.56 427.831 510.56C428.623 510.56 429.547 510.736 430.163 511V515.048H428.359C424.839 515.048 422.507 517.028 422.507 519.976V533H417.227ZM447.889 533L440.277 511H445.821L450.441 527.016L454.533 511H459.461L463.553 527.016L468.173 511H473.717L466.149 533H460.781L456.997 518.788L453.257 533H447.889ZM485.924 533.616C479.06 533.616 474.484 528.952 474.484 522C474.484 515.048 479.06 510.384 485.924 510.384C488.52 510.384 491.38 511.572 493.052 513.376V511H498.332V533H493.052V530.624C491.38 532.428 488.52 533.616 485.924 533.616ZM486.452 528.952C490.412 528.952 493.052 526.18 493.052 522C493.052 517.82 490.412 515.048 486.452 515.048C482.448 515.048 479.764 517.82 479.764 522C479.764 526.18 482.448 528.952 486.452 528.952ZM504.623 541.184L508.407 531.592L500.003 511H505.635L511.091 524.816L516.503 511H522.179L510.299 541.184H504.623ZM520.782 533V526.488H527.294V533H520.782Z" fill="white"/>
<defs>
<linearGradient id="paint0_linear_134_3692" x1="348" y1="0" x2="348" y2="900" gradientUnits="userSpaceOnUse">
<stop stop-color="#07122A"/>
<stop offset="1" stop-color="#123FA2"/>
</linearGradient>
</defs>
</svg>
