<svg width="238" height="87" viewBox="0 0 238 87" fill="none" xmlns="http://www.w3.org/2000/svg">
<path d="M59.2738 24L54.6178 7.536H57.9538L60.9778 19.824L63.5938 7.536H66.7378L69.3538 19.824L72.4018 7.536H75.7138L71.0818 24H67.4818L65.1778 13.416L62.8498 24H59.2738ZM81.6788 24.336C77.7668 24.336 75.1748 21.792 75.1748 18C75.1748 14.208 77.7668 11.664 81.6788 11.664C85.5908 11.664 88.1828 14.208 88.1828 18V18.552L87.9428 18.792H78.1028C78.3668 20.688 79.8068 21.936 81.6788 21.936C83.0948 21.936 84.4148 21.12 84.9668 19.92H87.8948C87.1028 22.56 84.6068 24.336 81.6788 24.336ZM78.2948 16.392H85.0628C84.5108 14.904 83.2868 14.064 81.6788 14.064C80.0708 14.064 78.8468 14.904 78.2948 16.392ZM89.9048 24V7.536H92.7848V24H89.9048ZM101.015 24.336C97.1027 24.336 94.5107 21.792 94.5107 18C94.5107 14.208 97.1027 11.664 101.015 11.664C104.255 11.664 106.751 13.704 107.279 16.752H104.519C104.135 15.216 102.743 14.208 101.015 14.208C98.8307 14.208 97.3907 15.72 97.3907 18C97.3907 20.28 98.8307 21.792 101.015 21.792C102.767 21.792 104.183 20.736 104.543 19.128H107.303C106.799 22.248 104.279 24.336 101.015 24.336ZM115.054 24.336C111.142 24.336 108.55 21.792 108.55 18C108.55 14.208 111.142 11.664 115.054 11.664C118.966 11.664 121.558 14.208 121.558 18C121.558 21.792 118.966 24.336 115.054 24.336ZM115.054 21.792C117.238 21.792 118.678 20.28 118.678 18C118.678 15.72 117.238 14.208 115.054 14.208C112.87 14.208 111.43 15.72 111.43 18C111.43 20.28 112.87 21.792 115.054 21.792ZM123.045 24V12H125.925V13.08C126.645 12.168 127.701 11.664 128.853 11.664C129.957 11.664 131.229 12.24 132.045 13.104C132.885 12.24 134.325 11.664 135.645 11.664C138.501 11.664 140.421 13.248 140.421 15.624V24H137.541V15.912C137.541 14.88 136.677 14.208 135.357 14.208C134.037 14.208 133.173 14.88 133.173 15.912V24H130.293V15.912C130.293 14.88 129.429 14.208 128.109 14.208C126.789 14.208 125.925 14.88 125.925 15.912V24H123.045ZM148.429 24.336C144.517 24.336 141.925 21.792 141.925 18C141.925 14.208 144.517 11.664 148.429 11.664C152.341 11.664 154.933 14.208 154.933 18V18.552L154.693 18.792H144.853C145.117 20.688 146.557 21.936 148.429 21.936C149.845 21.936 151.165 21.12 151.717 19.92H154.645C153.853 22.56 151.357 24.336 148.429 24.336ZM145.045 16.392H151.813C151.261 14.904 150.037 14.064 148.429 14.064C146.821 14.064 145.597 14.904 145.045 16.392ZM167.424 24.336C165.024 24.336 163.44 22.968 163.44 20.928V14.4H161.52V12H163.44V7.536H166.32V12H169.344V14.4H166.32V20.928C166.32 21.528 166.752 21.936 167.376 21.936H169.464V24C169.032 24.192 168.216 24.336 167.424 24.336ZM176.788 24.336C172.876 24.336 170.284 21.792 170.284 18C170.284 14.208 172.876 11.664 176.788 11.664C180.7 11.664 183.292 14.208 183.292 18C183.292 21.792 180.7 24.336 176.788 24.336ZM176.788 21.792C178.972 21.792 180.412 20.28 180.412 18C180.412 15.72 178.972 14.208 176.788 14.208C174.604 14.208 173.164 15.72 173.164 18C173.164 20.28 174.604 21.792 176.788 21.792Z" fill="white"/>
<path d="M76.3027 54.0889V70.1318C76.3028 71.7173 76.6488 73.1271 77.3398 74.3604C78.0445 75.5935 79.0339 76.5629 80.3076 77.2676C81.5815 77.9722 83.0658 78.3251 84.7598 78.3252C86.4673 78.3252 87.9515 77.9722 89.2119 77.2676C90.4858 76.5629 91.469 75.5936 92.1602 74.3604C92.8648 73.1271 93.2168 71.7173 93.2168 70.1318V63.8662L102.02 68.9551V70.8848C102.019 73.9204 101.295 76.5768 99.8447 78.8535C98.4081 81.1303 96.3952 82.9057 93.8066 84.1797C91.218 85.4401 88.2022 86.0703 84.7598 86.0703C81.304 86.0703 78.2819 85.44 75.6934 84.1797C73.1048 82.9057 71.0919 81.1303 69.6553 78.8535C68.2188 76.5768 67.5001 73.9204 67.5 70.8848V49L76.3027 54.0889Z" fill="white"/>
<rect x="87.0884" y="56.6679" width="6.39461" height="7.42868" fill="#5761D7"/>
<rect x="93.4824" y="52.581" width="3.51704" height="4.08578" fill="#DA0404"/>
<path d="M120.582 70.2807C121.091 70.2807 121.345 70.5349 121.345 71.0434V81.2372C121.345 81.7457 121.091 82 120.582 82C120.074 82 119.82 81.7457 119.82 81.2372V80.3292C119.029 81.4431 117.685 82 115.788 82H115.11C113.569 82 112.435 81.6368 111.708 80.9104C110.982 80.184 110.619 79.05 110.619 77.5084V71.0434C110.619 70.5349 110.873 70.2807 111.381 70.2807C111.89 70.2807 112.144 70.5349 112.144 71.0434V77.5084C112.144 78.6222 112.358 79.397 112.786 79.8329C113.222 80.2606 113.996 80.4745 115.11 80.4745H115.788C116.942 80.4745 117.879 80.305 118.597 79.966C119.323 79.619 119.731 79.0903 119.82 78.3801V71.0434C119.82 70.5349 120.074 70.2807 120.582 70.2807ZM128.68 81.9879C127.679 81.9879 126.905 81.778 126.356 81.3583C125.807 80.9305 125.468 80.2849 125.339 79.4212C125.306 79.163 125.359 78.9652 125.496 78.828C125.641 78.6827 125.839 78.6101 126.089 78.6101C126.34 78.6101 126.521 78.6747 126.634 78.8038C126.755 78.9249 126.84 79.1105 126.888 79.3607C126.969 79.7723 127.147 80.0589 127.421 80.2203C127.695 80.3817 128.115 80.4624 128.68 80.4624H132.651C133.369 80.4624 133.858 80.3333 134.116 80.075C134.374 79.8167 134.503 79.3284 134.503 78.6101C134.503 77.8918 134.374 77.4035 134.116 77.1452C133.858 76.8869 133.369 76.7578 132.651 76.7578H128.741C127.651 76.7578 126.836 76.4914 126.295 75.9587C125.762 75.426 125.496 74.6149 125.496 73.5253C125.496 72.4115 125.762 71.5922 126.295 71.0676C126.828 70.5349 127.643 70.2686 128.741 70.2686H132.53C134.386 70.2686 135.436 71.0717 135.678 72.6778C135.726 72.928 135.678 73.1258 135.533 73.271C135.395 73.4083 135.198 73.4769 134.939 73.4769C134.697 73.4769 134.516 73.4163 134.395 73.2953C134.282 73.1661 134.197 72.9845 134.14 72.7505C134.068 72.3873 133.91 72.137 133.668 71.9998C133.426 71.8626 133.047 71.794 132.53 71.794H128.741C128.071 71.794 127.615 71.9111 127.373 72.1451C127.139 72.3792 127.022 72.8392 127.022 73.5253C127.022 74.179 127.143 74.627 127.385 74.8691C127.627 75.1113 128.079 75.2323 128.741 75.2323H132.651C133.797 75.2323 134.645 75.5108 135.194 76.0677C135.75 76.6165 136.029 77.464 136.029 78.6101C136.029 79.7562 135.75 80.6077 135.194 81.1646C134.645 81.7134 133.797 81.9879 132.651 81.9879H128.68ZM144.084 82C142.542 82 141.408 81.6368 140.682 80.9104C139.956 80.184 139.592 79.058 139.592 77.5326V74.7723C139.592 73.2145 139.956 72.0765 140.682 71.3582C141.408 70.6318 142.542 70.2726 144.084 70.2807H146.07C147.619 70.2807 148.753 70.6439 149.472 71.3703C150.198 72.0886 150.561 73.2226 150.561 74.7723V77.5084C150.561 79.05 150.198 80.184 149.472 80.9104C148.753 81.6368 147.619 82 146.07 82H144.084ZM141.118 77.5326C141.118 78.6383 141.332 79.4051 141.76 79.8329C142.195 80.2606 142.97 80.4745 144.084 80.4745H146.07C147.191 80.4745 147.966 80.2606 148.394 79.8329C148.822 79.397 149.036 78.6222 149.036 77.5084V74.7723C149.036 73.6504 148.822 72.8756 148.394 72.4478C147.966 72.02 147.191 71.8061 146.07 71.8061H144.084C143.341 71.7981 142.752 71.8868 142.316 72.0725C141.889 72.25 141.582 72.5567 141.396 72.9926C141.211 73.4204 141.118 74.0136 141.118 74.7723V77.5326ZM155.907 82C155.399 82 155.144 81.7457 155.144 81.2372V71.8061H154.164C153.655 71.8061 153.401 71.5519 153.401 71.0434C153.401 70.5349 153.655 70.2807 154.164 70.2807H155.144V69.5422C155.144 68.0167 155.499 66.8989 156.21 66.1886C156.928 65.4784 158.046 65.1232 159.563 65.1232C160.031 65.1232 160.265 65.3775 160.265 65.886C160.265 66.3944 160.031 66.6487 159.563 66.6487C158.474 66.6487 157.719 66.8585 157.299 67.2782C156.88 67.6899 156.67 68.4445 156.67 69.5422V70.2807H159.503C160.011 70.2807 160.265 70.5349 160.265 71.0434C160.265 71.5519 160.011 71.8061 159.503 71.8061H156.67V81.2372C156.67 81.7457 156.415 82 155.907 82ZM168.114 82C166.589 82 165.471 81.6448 164.761 80.9346C164.051 80.2243 163.695 79.1145 163.695 77.6052V71.8061H162.339C161.831 71.8061 161.577 71.5519 161.577 71.0434C161.577 70.5349 161.831 70.2807 162.339 70.2807H163.695V67.9562C163.695 67.4477 163.95 67.1935 164.458 67.1935C164.967 67.1935 165.221 67.4477 165.221 67.9562V70.2807H168.175C168.683 70.2807 168.938 70.5349 168.938 71.0434C168.938 71.5519 168.683 71.8061 168.175 71.8061H165.221V77.6052C165.221 78.6948 165.431 79.4455 165.85 79.8571C166.27 80.2687 167.025 80.4745 168.114 80.4745C168.381 80.4745 168.574 80.5391 168.695 80.6682C168.825 80.7893 168.889 80.979 168.889 81.2372C168.889 81.7457 168.631 82 168.114 82Z" fill="white"/>
</svg>
