<svg width="188" height="58" viewBox="0 0 188 58" fill="none" xmlns="http://www.w3.org/2000/svg">
<path d="M8.15275 24L3.49675 7.536H6.83275L9.85675 19.824L12.4728 7.536H15.6168L18.2328 19.824L21.2808 7.536H24.5928L19.9608 24H16.3608L14.0568 13.416L11.7288 24H8.15275ZM30.5577 24.336C26.6457 24.336 24.0537 21.792 24.0537 18C24.0537 14.208 26.6457 11.664 30.5577 11.664C34.4697 11.664 37.0617 14.208 37.0617 18V18.552L36.8217 18.792H26.9817C27.2457 20.688 28.6857 21.936 30.5577 21.936C31.9737 21.936 33.2937 21.12 33.8457 19.92H36.7737C35.9817 22.56 33.4857 24.336 30.5577 24.336ZM27.1737 16.392H33.9417C33.3897 14.904 32.1657 14.064 30.5577 14.064C28.9497 14.064 27.7257 14.904 27.1737 16.392ZM38.7837 24V7.536H41.6637V24H38.7837ZM49.8936 24.336C45.9816 24.336 43.3896 21.792 43.3896 18C43.3896 14.208 45.9816 11.664 49.8936 11.664C53.1336 11.664 55.6296 13.704 56.1576 16.752H53.3976C53.0136 15.216 51.6216 14.208 49.8936 14.208C47.7096 14.208 46.2696 15.72 46.2696 18C46.2696 20.28 47.7096 21.792 49.8936 21.792C51.6456 21.792 53.0616 20.736 53.4216 19.128H56.1816C55.6776 22.248 53.1576 24.336 49.8936 24.336ZM63.9327 24.336C60.0207 24.336 57.4287 21.792 57.4287 18C57.4287 14.208 60.0207 11.664 63.9327 11.664C67.8447 11.664 70.4367 14.208 70.4367 18C70.4367 21.792 67.8447 24.336 63.9327 24.336ZM63.9327 21.792C66.1167 21.792 67.5567 20.28 67.5567 18C67.5567 15.72 66.1167 14.208 63.9327 14.208C61.7487 14.208 60.3087 15.72 60.3087 18C60.3087 20.28 61.7487 21.792 63.9327 21.792ZM71.9243 24V12H74.8043V13.08C75.5243 12.168 76.5803 11.664 77.7323 11.664C78.8363 11.664 80.1083 12.24 80.9243 13.104C81.7643 12.24 83.2043 11.664 84.5243 11.664C87.3803 11.664 89.3003 13.248 89.3003 15.624V24H86.4203V15.912C86.4203 14.88 85.5563 14.208 84.2363 14.208C82.9163 14.208 82.0523 14.88 82.0523 15.912V24H79.1723V15.912C79.1723 14.88 78.3083 14.208 76.9883 14.208C75.6683 14.208 74.8043 14.88 74.8043 15.912V24H71.9243ZM97.3077 24.336C93.3957 24.336 90.8037 21.792 90.8037 18C90.8037 14.208 93.3957 11.664 97.3077 11.664C101.22 11.664 103.812 14.208 103.812 18V18.552L103.572 18.792H93.7317C93.9957 20.688 95.4357 21.936 97.3077 21.936C98.7237 21.936 100.044 21.12 100.596 19.92H103.524C102.732 22.56 100.236 24.336 97.3077 24.336ZM93.9237 16.392H100.692C100.14 14.904 98.9157 14.064 97.3077 14.064C95.6997 14.064 94.4757 14.904 93.9237 16.392ZM116.303 24.336C113.903 24.336 112.319 22.968 112.319 20.928V14.4H110.399V12H112.319V7.536H115.199V12H118.223V14.4H115.199V20.928C115.199 21.528 115.631 21.936 116.255 21.936H118.343V24C117.911 24.192 117.095 24.336 116.303 24.336ZM125.667 24.336C121.755 24.336 119.163 21.792 119.163 18C119.163 14.208 121.755 11.664 125.667 11.664C129.579 11.664 132.171 14.208 132.171 18C132.171 21.792 129.579 24.336 125.667 24.336ZM125.667 21.792C127.851 21.792 129.291 20.28 129.291 18C129.291 15.72 127.851 14.208 125.667 14.208C123.483 14.208 122.043 15.72 122.043 18C122.043 20.28 123.483 21.792 125.667 21.792ZM139.939 28.464L142.003 23.232L137.419 12H140.491L143.467 19.536L146.419 12H149.515L143.035 28.464H139.939ZM156.206 24.336C152.294 24.336 149.702 21.792 149.702 18C149.702 14.208 152.294 11.664 156.206 11.664C160.118 11.664 162.71 14.208 162.71 18C162.71 21.792 160.118 24.336 156.206 24.336ZM156.206 21.792C158.39 21.792 159.83 20.28 159.83 18C159.83 15.72 158.39 14.208 156.206 14.208C154.022 14.208 152.582 15.72 152.582 18C152.582 20.28 154.022 21.792 156.206 21.792ZM176.048 12V24H173.168V23.112C172.376 23.856 171.08 24.336 169.904 24.336C166.616 24.336 164.432 22.392 164.432 19.464V12H167.312V19.128C167.312 20.736 168.488 21.792 170.24 21.792C171.992 21.792 173.168 20.736 173.168 19.128V12H176.048ZM178.26 24V12H181.14V13.416C181.764 12.432 182.94 11.76 184.044 11.76C184.476 11.76 184.98 11.856 185.316 12V14.208H184.332C182.412 14.208 181.14 15.288 181.14 16.896V24H178.26ZM40.0108 53.336C36.2188 53.336 33.6748 50.792 33.6748 47C33.6748 43.208 36.2188 40.664 40.0108 40.664C41.4748 40.664 43.0828 41.336 43.9948 42.32V36.536H46.8748V53H43.9948V51.68C43.0828 52.664 41.4748 53.336 40.0108 53.336ZM40.2988 50.792C42.5068 50.792 43.9948 49.28 43.9948 47C43.9948 44.72 42.5068 43.208 40.2988 43.208C38.0428 43.208 36.5548 44.72 36.5548 47C36.5548 49.28 38.0428 50.792 40.2988 50.792ZM54.8445 53.336C51.1005 53.336 48.6045 50.792 48.6045 47C48.6045 43.208 51.1005 40.664 54.8445 40.664C56.2605 40.664 57.8205 41.312 58.7325 42.296V41H61.6125V53H58.7325V51.704C57.8205 52.688 56.2605 53.336 54.8445 53.336ZM55.1325 50.792C57.2925 50.792 58.7325 49.28 58.7325 47C58.7325 44.72 57.2925 43.208 55.1325 43.208C52.9485 43.208 51.4845 44.72 51.4845 47C51.4845 49.28 52.9485 50.792 55.1325 50.792ZM68.6803 53.336C65.4403 53.336 63.2083 51.56 63.1123 48.92H65.8243C65.9203 50.12 67.0723 50.936 68.6803 50.936C70.2883 50.936 71.3683 50.312 71.3683 49.376C71.3683 48.8 70.6483 48.392 68.4163 47.96C64.9363 47.168 63.8323 46.376 63.8323 44.384C63.8323 42.152 65.7763 40.664 68.6803 40.664C70.9843 40.664 73.0003 41.912 73.6963 43.784L71.0563 44.432C70.6963 43.616 69.7363 43.064 68.6803 43.064C67.5043 43.064 66.7123 43.544 66.7123 44.24C66.7123 44.744 67.2643 45.056 68.9683 45.44C72.9763 46.28 74.2483 47.192 74.2483 49.376C74.2483 51.752 72.0163 53.336 68.6803 53.336ZM75.7329 53V36.536H78.6129V41.888C79.4049 41.144 80.7009 40.664 81.8769 40.664C85.1649 40.664 87.3489 42.608 87.3489 45.536V53H84.4689V45.872C84.4689 44.264 83.2929 43.208 81.5409 43.208C79.7889 43.208 78.6129 44.264 78.6129 45.872V53H75.7329ZM96.425 53.336C94.961 53.336 93.353 52.664 92.441 51.68V53H89.561V36.536H92.441V42.32C93.353 41.336 94.961 40.664 96.425 40.664C100.217 40.664 102.761 43.208 102.761 47C102.761 50.792 100.217 53.336 96.425 53.336ZM96.137 50.792C98.393 50.792 99.881 49.28 99.881 47C99.881 44.72 98.393 43.208 96.137 43.208C93.929 43.208 92.441 44.72 92.441 47C92.441 49.28 93.929 50.792 96.137 50.792ZM110.515 53.336C106.603 53.336 104.011 50.792 104.011 47C104.011 43.208 106.603 40.664 110.515 40.664C114.427 40.664 117.019 43.208 117.019 47C117.019 50.792 114.427 53.336 110.515 53.336ZM110.515 50.792C112.699 50.792 114.139 49.28 114.139 47C114.139 44.72 112.699 43.208 110.515 43.208C108.331 43.208 106.891 44.72 106.891 47C106.891 49.28 108.331 50.792 110.515 50.792ZM124.501 53.336C120.757 53.336 118.261 50.792 118.261 47C118.261 43.208 120.757 40.664 124.501 40.664C125.917 40.664 127.477 41.312 128.389 42.296V41H131.269V53H128.389V51.704C127.477 52.688 125.917 53.336 124.501 53.336ZM124.789 50.792C126.949 50.792 128.389 49.28 128.389 47C128.389 44.72 126.949 43.208 124.789 43.208C122.605 43.208 121.141 44.72 121.141 47C121.141 49.28 122.605 50.792 124.789 50.792ZM133.483 53V41H136.363V42.416C136.987 41.432 138.163 40.76 139.267 40.76C139.699 40.76 140.203 40.856 140.539 41V43.208H139.555C137.635 43.208 136.363 44.288 136.363 45.896V53H133.483ZM146.98 53.336C143.188 53.336 140.644 50.792 140.644 47C140.644 43.208 143.188 40.664 146.98 40.664C148.444 40.664 150.052 41.336 150.964 42.32V36.536H153.844V53H150.964V51.68C150.052 52.664 148.444 53.336 146.98 53.336ZM147.268 50.792C149.476 50.792 150.964 49.28 150.964 47C150.964 44.72 149.476 43.208 147.268 43.208C145.012 43.208 143.524 44.72 143.524 47C143.524 49.28 145.012 50.792 147.268 50.792Z" fill="white"/>
</svg>
