<svg width="258" height="49" viewBox="0 0 258 49" fill="none" xmlns="http://www.w3.org/2000/svg">
<path d="M11.4297 5.97754V28.0146C11.4298 30.0734 11.8789 31.9046 12.7764 33.5059C13.6915 35.107 14.9768 36.3653 16.6309 37.2803C18.2849 38.1951 20.2117 38.6533 22.4111 38.6533C24.6284 38.6533 26.5558 38.1953 28.1924 37.2803C29.8465 36.3652 31.123 35.1071 32.0205 33.5059C32.9355 31.9046 33.3925 30.0734 33.3926 28.0146V16.9072L44.8232 22.5957V28.9912C44.8232 32.933 43.881 36.3835 41.998 39.3398C40.1327 42.296 37.5192 44.6018 34.1582 46.2559C30.797 47.8924 26.8809 48.71 22.4111 48.71C17.9238 48.7099 13.9988 47.8924 10.6377 46.2559C7.27677 44.6017 4.6632 42.296 2.79785 39.3398C0.932523 36.3835 8.54553e-05 32.933 0 28.9912V0.290039L11.4297 5.97754Z" fill="white"/>
<rect x="23.637" y="7.00781" width="9.95215" height="9.95215" fill="#5761D7"/>
<rect x="33.5889" y="1.53296" width="5.47369" height="5.47369" fill="#DA0404"/>
<path d="M67.0072 34L62.3512 17.536H65.6872L68.7112 29.824L71.3272 17.536H74.4712L77.0872 29.824L80.1352 17.536H83.4472L78.8152 34H75.2152L72.9112 23.416L70.5832 34H67.0072ZM89.4122 34.336C85.5002 34.336 82.9082 31.792 82.9082 28C82.9082 24.208 85.5002 21.664 89.4122 21.664C93.3242 21.664 95.9162 24.208 95.9162 28V28.552L95.6762 28.792H85.8362C86.1002 30.688 87.5402 31.936 89.4122 31.936C90.8282 31.936 92.1482 31.12 92.7002 29.92H95.6282C94.8362 32.56 92.3402 34.336 89.4122 34.336ZM86.0282 26.392H92.7962C92.2442 24.904 91.0202 24.064 89.4122 24.064C87.8042 24.064 86.5802 24.904 86.0282 26.392ZM97.6382 34V17.536H100.518V34H97.6382ZM108.748 34.336C104.836 34.336 102.244 31.792 102.244 28C102.244 24.208 104.836 21.664 108.748 21.664C111.988 21.664 114.484 23.704 115.012 26.752H112.252C111.868 25.216 110.476 24.208 108.748 24.208C106.564 24.208 105.124 25.72 105.124 28C105.124 30.28 106.564 31.792 108.748 31.792C110.5 31.792 111.916 30.736 112.276 29.128H115.036C114.532 32.248 112.012 34.336 108.748 34.336ZM122.787 34.336C118.875 34.336 116.283 31.792 116.283 28C116.283 24.208 118.875 21.664 122.787 21.664C126.699 21.664 129.291 24.208 129.291 28C129.291 31.792 126.699 34.336 122.787 34.336ZM122.787 31.792C124.971 31.792 126.411 30.28 126.411 28C126.411 25.72 124.971 24.208 122.787 24.208C120.603 24.208 119.163 25.72 119.163 28C119.163 30.28 120.603 31.792 122.787 31.792ZM130.779 34V22H133.659V23.08C134.379 22.168 135.435 21.664 136.587 21.664C137.691 21.664 138.963 22.24 139.779 23.104C140.619 22.24 142.059 21.664 143.379 21.664C146.235 21.664 148.155 23.248 148.155 25.624V34H145.275V25.912C145.275 24.88 144.411 24.208 143.091 24.208C141.771 24.208 140.907 24.88 140.907 25.912V34H138.027V25.912C138.027 24.88 137.163 24.208 135.843 24.208C134.523 24.208 133.659 24.88 133.659 25.912V34H130.779ZM156.162 34.336C152.25 34.336 149.658 31.792 149.658 28C149.658 24.208 152.25 21.664 156.162 21.664C160.074 21.664 162.666 24.208 162.666 28V28.552L162.426 28.792H152.586C152.85 30.688 154.29 31.936 156.162 31.936C157.578 31.936 158.898 31.12 159.45 29.92H162.378C161.586 32.56 159.09 34.336 156.162 34.336ZM152.778 26.392H159.546C158.994 24.904 157.77 24.064 156.162 24.064C154.554 24.064 153.33 24.904 152.778 26.392ZM175.157 34.336C172.757 34.336 171.173 32.968 171.173 30.928V24.4H169.253V22H171.173V17.536H174.053V22H177.077V24.4H174.053V30.928C174.053 31.528 174.485 31.936 175.109 31.936H177.197V34C176.765 34.192 175.949 34.336 175.157 34.336ZM184.522 34.336C180.61 34.336 178.018 31.792 178.018 28C178.018 24.208 180.61 21.664 184.522 21.664C188.434 21.664 191.026 24.208 191.026 28C191.026 31.792 188.434 34.336 184.522 34.336ZM184.522 31.792C186.706 31.792 188.146 30.28 188.146 28C188.146 25.72 186.706 24.208 184.522 24.208C182.338 24.208 180.898 25.72 180.898 28C180.898 30.28 182.338 31.792 184.522 31.792ZM205.623 34.288C201.399 34.288 198.567 31.696 198.567 27.808V17.536H201.783V27.808C201.783 29.968 203.319 31.408 205.623 31.408C207.903 31.408 209.415 29.968 209.415 27.808V17.536H212.631V27.808C212.631 31.696 209.823 34.288 205.623 34.288ZM220.031 34.336C216.791 34.336 214.559 32.56 214.463 29.92H217.175C217.271 31.12 218.423 31.936 220.031 31.936C221.639 31.936 222.719 31.312 222.719 30.376C222.719 29.8 221.999 29.392 219.767 28.96C216.287 28.168 215.183 27.376 215.183 25.384C215.183 23.152 217.127 21.664 220.031 21.664C222.335 21.664 224.351 22.912 225.047 24.784L222.407 25.432C222.047 24.616 221.087 24.064 220.031 24.064C218.855 24.064 218.063 24.544 218.063 25.24C218.063 25.744 218.615 26.056 220.319 26.44C224.327 27.28 225.599 28.192 225.599 30.376C225.599 32.752 223.367 34.336 220.031 34.336ZM233.342 34.336C229.43 34.336 226.838 31.792 226.838 28C226.838 24.208 229.43 21.664 233.342 21.664C237.254 21.664 239.846 24.208 239.846 28C239.846 31.792 237.254 34.336 233.342 34.336ZM233.342 31.792C235.526 31.792 236.966 30.28 236.966 28C236.966 25.72 235.526 24.208 233.342 24.208C231.158 24.208 229.718 25.72 229.718 28C229.718 30.28 231.158 31.792 233.342 31.792ZM252.949 31.936H255.037V34C254.605 34.192 253.789 34.336 252.997 34.336C250.597 34.336 249.013 32.968 249.013 30.928V24.4H244.741V34H241.861V24.4H239.941V22H241.861V20.68C241.861 18.592 243.277 17.2 245.389 17.2C246.037 17.2 246.709 17.344 247.093 17.536V19.6H245.797C245.077 19.6 244.741 19.936 244.741 20.656V22H249.013V17.536H251.893V22H254.917V24.4H251.893V30.928C251.893 31.528 252.325 31.936 252.949 31.936Z" fill="white"/>
</svg>
