<svg width="95" height="95" viewBox="0 0 95 95" fill="none" xmlns="http://www.w3.org/2000/svg">
<rect x="32" y="31" width="32" height="32" rx="16" fill="#EDE2B8"/>
<mask id="mask0_1801_13994" style="mask-type:alpha" maskUnits="userSpaceOnUse" x="36" y="35" width="24" height="24">
<rect x="36" y="35" width="24" height="24" fill="#D8AD00"/>
</mask>
<g mask="url(#mask0_1801_13994)">
<circle cx="48" cy="47" r="10" fill="#D8AD00"/>
<path d="M45.5599 51.4444H50.2179V49.7778C50.2179 49.1239 49.9932 48.5651 49.5438 48.1015C49.0944 47.6378 48.5428 47.406 47.8889 47.406C47.235 47.406 46.6834 47.6378 46.234 48.1015C45.7846 48.5651 45.5599 49.1239 45.5599 49.7778V51.4444ZM44 52V51.4444H45.0043V49.7778C45.0043 49.0919 45.2146 48.4834 45.6351 47.9525C46.0557 47.4215 46.5947 47.104 47.2521 47C46.5947 46.8889 46.0557 46.5696 45.6351 46.0422C45.2146 45.5148 45.0043 44.9081 45.0043 44.2222V42.5556H44V42H51.7778V42.5556H50.7735V44.2222C50.7735 44.9081 50.5632 45.5148 50.1426 46.0422C49.7221 46.5696 49.1831 46.8889 48.5257 47C49.1831 47.104 49.7221 47.4215 50.1426 47.9525C50.5632 48.4834 50.7735 49.0919 50.7735 49.7778V51.4444H51.7778V52H44Z" fill="white"/>
</g>
<circle cx="47.5" cy="47.5" r="47.5" fill="url(#paint0_radial_1801_13994)" fill-opacity="0.12"/>
<defs>
<radialGradient id="paint0_radial_1801_13994" cx="0" cy="0" r="1" gradientUnits="userSpaceOnUse" gradientTransform="translate(47.5 47.5) rotate(90) scale(47.5)">
<stop stop-color="#F8CC1C"/>
<stop offset="1" stop-color="#F8CC1C" stop-opacity="0"/>
</radialGradient>
</defs>
</svg>
