<svg width="32" height="32" viewBox="0 0 32 32" fill="none" xmlns="http://www.w3.org/2000/svg">
<rect width="32" height="32" rx="16" fill="#726739"/>
<rect x="4" y="4" width="24" height="24" rx="12" fill="#D8AD00"/>
<path d="M13.2048 21.3333H18.7945V19.3333C18.7945 18.5487 18.5248 17.8782 17.9855 17.3218C17.4463 16.7654 16.7843 16.4872 15.9997 16.4872C15.215 16.4872 14.5531 16.7654 14.0138 17.3218C13.4745 17.8782 13.2048 18.5487 13.2048 19.3333V21.3333ZM11.333 22V21.3333H12.5382V19.3333C12.5382 18.5102 12.7905 17.7801 13.2952 17.143C13.7998 16.5058 14.4466 16.1248 15.2355 16C14.4466 15.8667 13.7998 15.4836 13.2952 14.8507C12.7905 14.2178 12.5382 13.4898 12.5382 12.6667V10.6667H11.333V10H20.6663V10.6667H19.4612V12.6667C19.4612 13.4898 19.2088 14.2178 18.7042 14.8507C18.1995 15.4836 17.5527 15.8667 16.7638 16C17.5527 16.1248 18.1995 16.5058 18.7042 17.143C19.2088 17.7801 19.4612 18.5102 19.4612 19.3333V21.3333H20.6663V22H11.333Z" fill="white"/>
</svg>
