<svg width="95" height="95" viewBox="0 0 95 95" fill="none" xmlns="http://www.w3.org/2000/svg">
<rect x="32" y="31" width="32" height="32" rx="16" fill="#BCE3C4"/>
<mask id="mask0_1801_13974" style="mask-type:alpha" maskUnits="userSpaceOnUse" x="36" y="35" width="24" height="24">
<rect x="36" y="35" width="24" height="24" fill="#D9D9D9"/>
</mask>
<g mask="url(#mask0_1801_13974)">
<path d="M46.6 51.6L53.65 44.55L52.25 43.15L46.6 48.8L43.75 45.95L42.35 47.35L46.6 51.6ZM48 57C46.6167 57 45.3167 56.7373 44.1 56.212C42.8833 55.6873 41.825 54.975 40.925 54.075C40.025 53.175 39.3127 52.1167 38.788 50.9C38.2627 49.6833 38 48.3833 38 47C38 45.6167 38.2627 44.3167 38.788 43.1C39.3127 41.8833 40.025 40.825 40.925 39.925C41.825 39.025 42.8833 38.3123 44.1 37.787C45.3167 37.2623 46.6167 37 48 37C49.3833 37 50.6833 37.2623 51.9 37.787C53.1167 38.3123 54.175 39.025 55.075 39.925C55.975 40.825 56.6873 41.8833 57.212 43.1C57.7373 44.3167 58 45.6167 58 47C58 48.3833 57.7373 49.6833 57.212 50.9C56.6873 52.1167 55.975 53.175 55.075 54.075C54.175 54.975 53.1167 55.6873 51.9 56.212C50.6833 56.7373 49.3833 57 48 57Z" fill="#10B935"/>
</g>
<circle cx="47.5" cy="47.5" r="47.5" fill="url(#paint0_radial_1801_13974)" fill-opacity="0.12"/>
<defs>
<radialGradient id="paint0_radial_1801_13974" cx="0" cy="0" r="1" gradientUnits="userSpaceOnUse" gradientTransform="translate(47.5 47.5) rotate(90) scale(47.5)">
<stop stop-color="#00ED51"/>
<stop offset="1" stop-color="#00ED7B" stop-opacity="0"/>
</radialGradient>
</defs>
</svg>
