<svg width="48" height="48" viewBox="0 0 48 48" fill="none" xmlns="http://www.w3.org/2000/svg">
<g filter="url(#filter0_i_7_44859)">
<path d="M39 11L37.7606 31.0502C37.4438 36.1728 37.2856 38.7342 36.0016 40.5758C35.3666 41.4862 34.5494 42.2546 33.6014 42.832C31.6842 44 29.118 44 23.9854 44C18.8462 44 16.2766 44 14.3581 42.8298C13.4096 42.2514 12.592 41.4816 11.9574 40.5696C10.6738 38.7252 10.5189 36.1602 10.2092 31.0304L9 11" stroke="white" stroke-width="5" stroke-linecap="round"/>
</g>
<g filter="url(#filter1_i_7_44859)">
<path d="M6 11H42M32.1114 11L30.7462 8.18346C29.8392 6.31252 29.3856 5.37704 28.6034 4.79362C28.43 4.6642 28.2462 4.54908 28.054 4.4494C27.1878 4 26.1482 4 24.069 4C21.9376 4 20.872 4 19.9914 4.46824C19.7962 4.57202 19.61 4.6918 19.4346 4.82634C18.6433 5.4334 18.2013 6.4031 17.3172 8.34252L16.1058 11" stroke="white" stroke-width="5" stroke-linecap="round"/>
</g>
<g filter="url(#filter2_i_7_44859)">
<path d="M19.0078 33V21" stroke="white" stroke-width="5" stroke-linecap="round"/>
</g>
<g filter="url(#filter3_i_7_44859)">
<path d="M28.9922 33V21" stroke="white" stroke-width="5" stroke-linecap="round"/>
</g>
<defs>
<filter id="filter0_i_7_44859" x="6.5" y="8.5" width="35" height="40" filterUnits="userSpaceOnUse" color-interpolation-filters="sRGB">
<feFlood flood-opacity="0" result="BackgroundImageFix"/>
<feBlend mode="normal" in="SourceGraphic" in2="BackgroundImageFix" result="shape"/>
<feColorMatrix in="SourceAlpha" type="matrix" values="0 0 0 0 0 0 0 0 0 0 0 0 0 0 0 0 0 0 127 0" result="hardAlpha"/>
<feOffset dy="2"/>
<feGaussianBlur stdDeviation="2"/>
<feComposite in2="hardAlpha" operator="arithmetic" k2="-1" k3="1"/>
<feColorMatrix type="matrix" values="0 0 0 0 0 0 0 0 0 0 0 0 0 0 0 0 0 0 0.25 0"/>
<feBlend mode="normal" in2="shape" result="effect1_innerShadow_7_44859"/>
</filter>
<filter id="filter1_i_7_44859" x="3.5" y="1.5" width="41" height="14.001" filterUnits="userSpaceOnUse" color-interpolation-filters="sRGB">
<feFlood flood-opacity="0" result="BackgroundImageFix"/>
<feBlend mode="normal" in="SourceGraphic" in2="BackgroundImageFix" result="shape"/>
<feColorMatrix in="SourceAlpha" type="matrix" values="0 0 0 0 0 0 0 0 0 0 0 0 0 0 0 0 0 0 127 0" result="hardAlpha"/>
<feOffset dy="2"/>
<feGaussianBlur stdDeviation="2"/>
<feComposite in2="hardAlpha" operator="arithmetic" k2="-1" k3="1"/>
<feColorMatrix type="matrix" values="0 0 0 0 0 0 0 0 0 0 0 0 0 0 0 0 0 0 0.25 0"/>
<feBlend mode="normal" in2="shape" result="effect1_innerShadow_7_44859"/>
</filter>
<filter id="filter2_i_7_44859" x="16.5078" y="18.5" width="5" height="19" filterUnits="userSpaceOnUse" color-interpolation-filters="sRGB">
<feFlood flood-opacity="0" result="BackgroundImageFix"/>
<feBlend mode="normal" in="SourceGraphic" in2="BackgroundImageFix" result="shape"/>
<feColorMatrix in="SourceAlpha" type="matrix" values="0 0 0 0 0 0 0 0 0 0 0 0 0 0 0 0 0 0 127 0" result="hardAlpha"/>
<feOffset dy="2"/>
<feGaussianBlur stdDeviation="2"/>
<feComposite in2="hardAlpha" operator="arithmetic" k2="-1" k3="1"/>
<feColorMatrix type="matrix" values="0 0 0 0 0 0 0 0 0 0 0 0 0 0 0 0 0 0 0.25 0"/>
<feBlend mode="normal" in2="shape" result="effect1_innerShadow_7_44859"/>
</filter>
<filter id="filter3_i_7_44859" x="26.4922" y="18.5" width="5" height="19" filterUnits="userSpaceOnUse" color-interpolation-filters="sRGB">
<feFlood flood-opacity="0" result="BackgroundImageFix"/>
<feBlend mode="normal" in="SourceGraphic" in2="BackgroundImageFix" result="shape"/>
<feColorMatrix in="SourceAlpha" type="matrix" values="0 0 0 0 0 0 0 0 0 0 0 0 0 0 0 0 0 0 127 0" result="hardAlpha"/>
<feOffset dy="2"/>
<feGaussianBlur stdDeviation="2"/>
<feComposite in2="hardAlpha" operator="arithmetic" k2="-1" k3="1"/>
<feColorMatrix type="matrix" values="0 0 0 0 0 0 0 0 0 0 0 0 0 0 0 0 0 0 0.25 0"/>
<feBlend mode="normal" in2="shape" result="effect1_innerShadow_7_44859"/>
</filter>
</defs>
</svg>
