<svg width="20" height="20" viewBox="0 0 20 20" fill="none" xmlns="http://www.w3.org/2000/svg">
<g clip-path="url(#clip0_7_47203)">
<path d="M1.95884 11.0116C1.66466 9.09716 1.51757 8.14002 1.87949 7.29147C2.24141 6.44292 3.04437 5.86235 4.6503 4.70121L5.85018 3.83366C7.84793 2.38922 8.84678 1.66699 9.99937 1.66699C11.1519 1.66699 12.1508 2.38922 14.1485 3.83366L15.3484 4.70121C16.9544 5.86235 17.7573 6.44292 18.1192 7.29147C18.4811 8.14002 18.334 9.09716 18.0399 11.0116L17.789 12.644C17.372 15.3577 17.1635 16.7147 16.1902 17.5242C15.217 18.3337 13.794 18.3337 10.9484 18.3337H9.05037C6.20463 18.3337 4.78177 18.3337 3.80852 17.5242C2.83526 16.7147 2.62674 15.3577 2.20971 12.644L1.95884 11.0116Z" stroke="black" stroke-width="1.5" stroke-linejoin="round"/>
<path d="M7.49951 18.667L7.29024 14.5762C7.17795 13.0042 8.42302 11.667 9.9991 11.667C11.5752 11.667 12.8203 13.0042 12.7079 14.5762L12.4995 18.667" stroke="black" stroke-width="1.5"/>
</g>
<defs>
<clipPath id="clip0_7_47203">
<rect width="20" height="20" fill="white"/>
</clipPath>
</defs>
</svg>
