<svg width="100" height="100" viewBox="0 0 100 100" fill="none" xmlns="http://www.w3.org/2000/svg">
<mask id="mask0_7_44655" style="mask-type:alpha" maskUnits="userSpaceOnUse" x="0" y="0" width="100" height="100">
<rect width="100" height="100" fill="#D9D9D9"/>
</mask>
<g mask="url(#mask0_7_44655)">
<path d="M37.4993 33.3332H62.4993V24.9998C62.4993 21.5276 61.2841 18.5762 58.8535 16.1457C56.423 13.7151 53.4716 12.4998 49.9993 12.4998C46.5271 12.4998 43.5757 13.7151 41.1452 16.1457C38.7146 18.5762 37.4993 21.5276 37.4993 24.9998V33.3332ZM74.9993 95.8332C69.2355 95.8332 64.3223 93.8019 60.2598 89.7394C56.1973 85.6769 54.166 80.7637 54.166 74.9998C54.166 69.2359 56.1973 64.3228 60.2598 60.2603C64.3223 56.1978 69.2355 54.1665 74.9993 54.1665C80.7632 54.1665 85.6764 56.1978 89.7389 60.2603C93.8014 64.3228 95.8327 69.2359 95.8327 74.9998C95.8327 80.7637 93.8014 85.6769 89.7389 89.7394C85.6764 93.8019 80.7632 95.8332 74.9993 95.8332ZM81.8744 84.7915L84.791 81.8748L77.0827 74.1665V62.4998H72.916V75.8332L81.8744 84.7915ZM51.041 91.6665H24.9993C22.7077 91.6665 20.7459 90.8505 19.1139 89.2186C17.482 87.5866 16.666 85.6248 16.666 83.3332V41.6665C16.666 39.3748 17.482 37.413 19.1139 35.7811C20.7459 34.1491 22.7077 33.3332 24.9993 33.3332H29.166V24.9998C29.166 19.2359 31.1973 14.3228 35.2598 10.2603C39.3223 6.19775 44.2355 4.1665 49.9993 4.1665C55.7632 4.1665 60.6764 6.19775 64.7389 10.2603C68.8014 14.3228 70.8327 19.2359 70.8327 24.9998V33.3332H74.9993C77.291 33.3332 79.2528 34.1491 80.8848 35.7811C82.5167 37.413 83.3327 39.3748 83.3327 41.6665V47.0832C81.9438 46.5971 80.5549 46.2672 79.166 46.0936C77.7771 45.92 76.3882 45.8332 74.9993 45.8332C66.8743 45.8332 59.982 48.663 54.3223 54.3228C48.6625 59.9825 45.8327 66.8748 45.8327 74.9998C45.8327 77.9859 46.3014 80.8852 47.2389 83.6977C48.1764 86.5102 49.4438 89.1665 51.041 91.6665Z" fill="#EB1D2E"/>
</g>
</svg>
