<svg width="222" height="44" viewBox="0 0 222 44" fill="none" xmlns="http://www.w3.org/2000/svg">
<path fill-rule="evenodd" clip-rule="evenodd" d="M29.6641 12.1001C29.6641 12.1001 33.8068 12.1001 37.631 12.1005C41.455 12.1007 47.6376 14.1404 47.6378 20.5137L31.8952 20.5129L29.6641 12.1003V12.1001Z" fill="black"/>
<path fill-rule="evenodd" clip-rule="evenodd" d="M15.9609 1.07369L23.4185 16.8671C24.4693 19.0928 26.71 20.5126 29.1714 20.5126L40.6597 20.5131C34.3977 20.5129 29.3229 8.18876 27.6806 4.9189C25.3143 0.208036 19.9763 -1.22051 15.9611 1.0735L15.9609 1.07369Z" fill="#D10F32"/>
<path fill-rule="evenodd" clip-rule="evenodd" d="M30.9019 31.481C30.9019 31.481 28.8304 35.0686 26.9182 38.3803C25.006 41.692 20.1482 46.0264 14.6289 42.84L22.5008 29.207L30.9019 31.4812V31.481Z" fill="black"/>
<path fill-rule="evenodd" clip-rule="evenodd" d="M47.3016 25.1265L29.8954 23.6882C27.4425 23.4855 25.0927 24.7158 23.8619 26.8475L18.1172 36.7963C21.2484 31.3732 34.4589 33.1405 38.1117 33.3531C43.3746 33.6594 47.2808 29.7509 47.3016 25.1265Z" fill="#D10F32"/>
<path fill-rule="evenodd" clip-rule="evenodd" d="M12.7867 22.6523C12.7867 22.6523 10.7155 19.0645 8.80367 15.7525C6.89187 12.4406 5.5669 6.06641 11.0862 2.87988L18.9567 16.5138L12.7867 22.6523Z" fill="black"/>
<path fill-rule="evenodd" clip-rule="evenodd" d="M10.0907 40.0328L20.0393 25.6778C21.4414 23.6548 21.5506 21.0047 20.3201 18.8729L14.5765 8.92334C17.7073 14.3466 9.57161 24.9035 7.56109 27.9607C4.66448 32.3653 6.09614 37.7026 10.0907 40.0328Z" fill="#D10F32"/>
<path fill-rule="evenodd" clip-rule="evenodd" d="M37.5033 40.7461C37.5033 40.7994 37.502 40.8526 37.4994 40.9057C37.4969 40.9589 37.493 41.012 37.4877 41.065C37.4825 41.118 37.4761 41.1709 37.4683 41.2235C37.4605 41.2763 37.4513 41.3286 37.441 41.3808C37.4307 41.433 37.419 41.485 37.4062 41.5366C37.3933 41.5882 37.3791 41.6396 37.3635 41.6906C37.3481 41.7416 37.3314 41.792 37.3135 41.8423C37.2956 41.8925 37.2765 41.9422 37.256 41.9912C37.2356 42.0405 37.2142 42.0892 37.1914 42.1372C37.1686 42.1853 37.1447 42.233 37.1198 42.28C37.0946 42.3269 37.0686 42.3732 37.0411 42.419C37.0138 42.4647 36.9852 42.5097 36.9558 42.5539C36.9262 42.5981 36.8957 42.6417 36.8639 42.6846C36.8322 42.7274 36.7995 42.7693 36.7658 42.8105C36.7321 42.8516 36.6973 42.8919 36.6616 42.9314C36.626 42.971 36.5892 43.0095 36.5516 43.0471C36.514 43.0847 36.4755 43.1215 36.4362 43.1573C36.3968 43.1931 36.3565 43.2278 36.3154 43.2617C36.2744 43.2955 36.2325 43.3282 36.1897 43.36C36.147 43.3917 36.1034 43.4223 36.0592 43.4519C36.015 43.4815 35.97 43.5099 35.9245 43.5374C35.8789 43.5648 35.8326 43.5909 35.7856 43.616C35.7387 43.6411 35.6912 43.6651 35.6431 43.6879C35.595 43.7106 35.5464 43.7323 35.4973 43.7525C35.4482 43.773 35.3986 43.792 35.3485 43.8099C35.2985 43.8279 35.2479 43.8446 35.1971 43.86C35.1462 43.8754 35.0948 43.8896 35.0432 43.9026C34.9916 43.9155 34.9398 43.9272 34.8877 43.9377C34.8355 43.948 34.7831 43.9571 34.7305 43.9649C34.678 43.9727 34.6252 43.9793 34.5722 43.9844C34.5193 43.9897 34.4663 43.9936 34.4132 43.9961C34.36 43.9986 34.3069 44 34.2537 44C34.2006 44 34.1474 43.9986 34.0942 43.9961C34.0411 43.9936 33.9881 43.9897 33.9352 43.9844C33.8822 43.9791 33.8295 43.9727 33.7769 43.9649C33.7243 43.9571 33.6719 43.948 33.6198 43.9377C33.5676 43.9274 33.5158 43.9157 33.4642 43.9026C33.4126 43.8898 33.3614 43.8756 33.3104 43.86C33.2596 43.8446 33.2089 43.8279 33.1589 43.8099C33.1089 43.792 33.0592 43.7728 33.0101 43.7525C32.9611 43.7321 32.9124 43.7106 32.8643 43.6879C32.8162 43.6651 32.7687 43.6411 32.7218 43.616C32.6749 43.5909 32.6287 43.5646 32.583 43.5374C32.5374 43.5099 32.4924 43.4815 32.4482 43.4519C32.404 43.4223 32.3606 43.3917 32.3178 43.36C32.2751 43.3282 32.2331 43.2955 32.192 43.2617C32.1509 43.2278 32.1106 43.1931 32.0713 43.1573C32.0319 43.1215 31.9934 43.0849 31.9558 43.0471C31.9182 43.0095 31.8816 42.971 31.8458 42.9314C31.8102 42.8919 31.7753 42.8516 31.7416 42.8105C31.708 42.7694 31.6752 42.7274 31.6435 42.6846C31.6118 42.6417 31.5812 42.5983 31.5516 42.5539C31.522 42.5097 31.4936 42.4647 31.4663 42.419C31.4391 42.3732 31.4128 42.3271 31.3877 42.28C31.3626 42.233 31.3386 42.1855 31.316 42.1372C31.2932 42.0892 31.2718 42.0405 31.2514 41.9912C31.2309 41.942 31.2119 41.8923 31.1939 41.8423C31.176 41.792 31.1593 41.7416 31.1439 41.6906C31.1285 41.6396 31.1143 41.5884 31.1013 41.5366C31.0884 41.485 31.0767 41.433 31.0662 41.3808C31.0559 41.3286 31.0467 41.2761 31.039 41.2235C31.0312 41.1707 31.0247 41.118 31.0195 41.065C31.0142 41.012 31.0103 40.9589 31.0078 40.9057C31.0053 40.8526 31.0039 40.7992 31.0039 40.7461C31.0039 40.6929 31.0053 40.6396 31.0078 40.5864C31.0103 40.5333 31.0144 40.4801 31.0195 40.4272C31.0247 40.3742 31.0312 40.3212 31.039 40.2687C31.0467 40.2159 31.0559 40.1635 31.0662 40.1113C31.0765 40.0592 31.0882 40.0072 31.1013 39.9556C31.1141 39.904 31.1283 39.8526 31.1439 39.8016C31.1593 39.7506 31.176 39.7001 31.1939 39.6499C31.2119 39.5997 31.2309 39.55 31.2514 39.5009C31.2718 39.4517 31.2932 39.403 31.316 39.3549C31.3388 39.3068 31.3627 39.2591 31.3877 39.2122C31.4128 39.1653 31.4389 39.1189 31.4663 39.0732C31.4936 39.0274 31.522 38.9825 31.5516 38.9383C31.5812 38.8941 31.6118 38.8504 31.6435 38.8076C31.6752 38.7648 31.708 38.7229 31.7416 38.6816C31.7753 38.6406 31.8102 38.6001 31.8458 38.5607C31.8814 38.5212 31.9182 38.4826 31.9558 38.4451C31.9934 38.4075 32.0319 38.3707 32.0713 38.3349C32.1106 38.299 32.1509 38.2644 32.192 38.2305C32.2331 38.1966 32.2749 38.1639 32.3178 38.1322C32.3604 38.1004 32.404 38.0699 32.4482 38.0403C32.4924 38.0107 32.5374 37.9823 32.583 37.9548C32.6285 37.9274 32.6749 37.9013 32.7218 37.8761C32.7687 37.851 32.8162 37.8271 32.8643 37.8043C32.9124 37.7815 32.9611 37.7599 33.0101 37.7397C33.0592 37.7192 33.1089 37.7001 33.1589 37.6822C33.2089 37.6643 33.2596 37.6476 33.3104 37.6322C33.3612 37.6168 33.4126 37.6026 33.4642 37.5895C33.5158 37.5767 33.5676 37.565 33.6198 37.5545C33.6719 37.5442 33.7243 37.535 33.7769 37.5272C33.8295 37.5194 33.8822 37.5128 33.9352 37.5078C33.9881 37.5025 34.0411 37.4986 34.0942 37.4961C34.1474 37.4935 34.2006 37.4922 34.2537 37.4922C34.3069 37.4922 34.36 37.4935 34.4132 37.4961C34.4663 37.4986 34.5193 37.5027 34.5722 37.5078C34.6252 37.513 34.678 37.5194 34.7305 37.5272C34.7831 37.535 34.8355 37.5442 34.8877 37.5545C34.9398 37.5648 34.9916 37.5765 35.0432 37.5895C35.0948 37.6024 35.146 37.6166 35.1971 37.6322C35.2479 37.6476 35.2985 37.6643 35.3485 37.6822C35.3986 37.7001 35.4482 37.7194 35.4973 37.7397C35.5464 37.7601 35.595 37.7815 35.6431 37.8043C35.6912 37.8271 35.7387 37.851 35.7856 37.8761C35.8326 37.9013 35.8789 37.9275 35.9245 37.9548C35.97 37.9823 36.015 38.0107 36.0592 38.0403C36.1034 38.0699 36.1468 38.1004 36.1897 38.1322C36.2323 38.1639 36.2744 38.1966 36.3154 38.2305C36.3565 38.2644 36.3968 38.299 36.4362 38.3349C36.4755 38.3707 36.514 38.4073 36.5516 38.4451C36.5892 38.4826 36.6258 38.5212 36.6616 38.5607C36.6973 38.6002 36.7321 38.6406 36.7658 38.6816C36.7995 38.7227 36.8322 38.7648 36.8639 38.8076C36.8957 38.8504 36.9262 38.8939 36.9558 38.9383C36.9854 38.9825 37.0138 39.0274 37.0411 39.0732C37.0684 39.1189 37.0946 39.1653 37.1198 39.2122C37.1449 39.2591 37.1686 39.3066 37.1914 39.3549C37.2142 39.403 37.2356 39.4517 37.256 39.5009C37.2763 39.5502 37.2956 39.5999 37.3135 39.6499C37.3314 39.6999 37.3481 39.7506 37.3635 39.8016C37.3789 39.8526 37.3931 39.9038 37.4062 39.9556C37.419 40.0072 37.4307 40.0592 37.441 40.1113C37.4513 40.1635 37.4605 40.2161 37.4683 40.2687C37.4761 40.3214 37.4825 40.3742 37.4877 40.4272C37.493 40.4801 37.4969 40.5333 37.4994 40.5864C37.502 40.6396 37.5033 40.6929 37.5033 40.7461Z" fill="#FFCC00"/>
<path fill-rule="evenodd" clip-rule="evenodd" d="M38.8861 4.9995C38.8861 5.05285 38.8848 5.106 38.8822 5.15916C38.8797 5.21231 38.8758 5.26547 38.8706 5.31843C38.8653 5.37139 38.8589 5.42435 38.8511 5.47692C38.8433 5.52968 38.8341 5.58206 38.8238 5.63424C38.8135 5.68642 38.8018 5.7384 38.789 5.79C38.7761 5.8416 38.7619 5.893 38.7463 5.94401C38.731 5.99502 38.7142 6.04545 38.6963 6.09569C38.6784 6.14592 38.6593 6.19557 38.6389 6.24463C38.6184 6.29389 38.597 6.34257 38.5742 6.39066C38.5514 6.43875 38.5275 6.48646 38.5026 6.53338C38.4774 6.5803 38.4514 6.62664 38.4239 6.6724C38.3965 6.71815 38.368 6.76313 38.3386 6.80733C38.309 6.85153 38.2785 6.89514 38.2467 6.93798C38.215 6.98081 38.1823 7.02267 38.1486 7.06395C38.1149 7.10503 38.0801 7.14553 38.0444 7.18486C38.0088 7.22438 37.972 7.26294 37.9344 7.30051C37.8968 7.33809 37.8583 7.37489 37.819 7.41072C37.7796 7.44654 37.7393 7.4812 37.6982 7.51508C37.6572 7.54896 37.6153 7.58167 37.5725 7.6134C37.5298 7.64514 37.4862 7.67571 37.442 7.70531C37.3978 7.7349 37.3528 7.76333 37.3073 7.79078C37.2617 7.81823 37.2154 7.84432 37.1685 7.86944C37.1215 7.89456 37.074 7.91851 37.0259 7.94129C36.9778 7.96407 36.9292 7.98568 36.8801 8.00593C36.831 8.02637 36.7814 8.04545 36.7313 8.06337C36.6813 8.08128 36.6307 8.09802 36.5799 8.1134C36.529 8.12879 36.4776 8.143 36.426 8.15604C36.3745 8.16889 36.3227 8.18058 36.2705 8.19109C36.2183 8.20141 36.1659 8.21056 36.1134 8.21835C36.0608 8.22614 36.008 8.23276 35.9551 8.23782C35.9021 8.24308 35.8491 8.24697 35.796 8.2495C35.7428 8.25203 35.6897 8.2534 35.6365 8.2534C35.5834 8.2534 35.5302 8.25203 35.4771 8.2495C35.4239 8.24697 35.3709 8.24308 35.318 8.23782C35.265 8.23256 35.2123 8.22614 35.1597 8.21835C35.1071 8.21056 35.0547 8.20141 35.0026 8.19109C34.9504 8.18077 34.8986 8.16909 34.847 8.15604C34.7954 8.14319 34.7442 8.12898 34.6932 8.1134C34.6424 8.09802 34.5917 8.08128 34.5417 8.06337C34.4917 8.04545 34.442 8.02618 34.393 8.00593C34.3439 7.98548 34.2952 7.96387 34.2471 7.94129C34.199 7.91851 34.1515 7.89456 34.1046 7.86944C34.0577 7.84432 34.0115 7.81804 33.9658 7.79078C33.92 7.76352 33.8752 7.7349 33.831 7.70531C33.7868 7.67571 33.7434 7.64514 33.7006 7.6134C33.6579 7.58167 33.6159 7.54896 33.5748 7.51508C33.5337 7.4812 33.4934 7.44654 33.4541 7.41072C33.4148 7.37489 33.3762 7.33829 33.3386 7.30051C33.301 7.26294 33.2644 7.22438 33.2286 7.18486C33.193 7.14533 33.1581 7.10503 33.1245 7.06395C33.0908 7.02287 33.0581 6.98081 33.0263 6.93798C32.9946 6.89514 32.964 6.85172 32.9344 6.80733C32.9048 6.76313 32.8764 6.71815 32.8491 6.6724C32.8217 6.62664 32.7956 6.5805 32.7705 6.53338C32.7454 6.48646 32.7214 6.43895 32.6988 6.39066C32.676 6.34257 32.6546 6.29389 32.6342 6.24463C32.6137 6.19537 32.5947 6.14572 32.5768 6.09569C32.5588 6.04545 32.5421 5.99502 32.5267 5.94401C32.5113 5.893 32.4971 5.84179 32.4841 5.79C32.471 5.73821 32.4595 5.68642 32.449 5.63424C32.4387 5.58206 32.4296 5.52949 32.4218 5.47692C32.414 5.42415 32.4074 5.37139 32.4023 5.31843C32.397 5.26547 32.3931 5.21231 32.3906 5.15916C32.3881 5.106 32.3867 5.05265 32.3867 4.9995C32.3867 4.94635 32.3881 4.893 32.3906 4.83984C32.3931 4.78669 32.3972 4.73353 32.4023 4.68057C32.4076 4.62762 32.414 4.57466 32.4218 4.52209C32.4296 4.46932 32.4387 4.41695 32.449 4.36477C32.4593 4.31258 32.471 4.2606 32.4841 4.209C32.4969 4.15741 32.5111 4.106 32.5267 4.05499C32.5421 4.00398 32.5588 3.95355 32.5768 3.90332C32.5947 3.85308 32.6137 3.80343 32.6342 3.75437C32.6546 3.70511 32.676 3.65643 32.6988 3.60834C32.7216 3.56025 32.7456 3.51255 32.7705 3.46562C32.7956 3.4187 32.8217 3.37236 32.8491 3.3266C32.8764 3.28085 32.9048 3.23587 32.9344 3.19167C32.964 3.14748 32.9946 3.10386 33.0263 3.06103C33.0581 3.01819 33.0908 2.97633 33.1245 2.93505C33.1581 2.89397 33.193 2.85367 33.2286 2.81414C33.2642 2.77462 33.301 2.73607 33.3386 2.69849C33.3762 2.66091 33.4148 2.62411 33.4541 2.58829C33.4934 2.55246 33.5337 2.5178 33.5748 2.48392C33.6159 2.45005 33.6577 2.41733 33.7006 2.3856C33.7432 2.35386 33.7868 2.32329 33.831 2.2937C33.8752 2.2641 33.9202 2.23568 33.9658 2.20822C34.0113 2.18077 34.0577 2.15468 34.1046 2.12956C34.1515 2.10445 34.199 2.0805 34.2471 2.05772C34.2952 2.03494 34.3439 2.01333 34.393 1.99308C34.442 1.97263 34.4917 1.95355 34.5417 1.93564C34.5917 1.91772 34.6424 1.90098 34.6932 1.8856C34.744 1.87022 34.7954 1.856 34.847 1.84296C34.8986 1.83011 34.9504 1.81843 35.0026 1.80791C35.0547 1.79759 35.1071 1.78844 35.1597 1.78065C35.2123 1.77286 35.265 1.76625 35.318 1.76118C35.3709 1.75593 35.4239 1.75203 35.4771 1.7495C35.5302 1.74697 35.5834 1.74561 35.6365 1.74561C35.6897 1.74561 35.7428 1.74697 35.796 1.7495C35.8491 1.75203 35.9021 1.75612 35.9551 1.76118C36.008 1.76644 36.0608 1.77286 36.1134 1.78065C36.1659 1.78844 36.2183 1.79759 36.2705 1.80791C36.3227 1.81823 36.3745 1.82991 36.426 1.84296C36.4776 1.85581 36.5289 1.87002 36.5799 1.8856C36.6307 1.90098 36.6813 1.91772 36.7313 1.93564C36.7814 1.95355 36.831 1.97283 36.8801 1.99308C36.9292 2.01352 36.9778 2.03494 37.0259 2.05772C37.074 2.0805 37.1215 2.10445 37.1685 2.12956C37.2154 2.15468 37.2617 2.18096 37.3073 2.20822C37.3528 2.23568 37.3978 2.2641 37.442 2.2937C37.4862 2.32329 37.5296 2.35386 37.5725 2.3856C37.6151 2.41733 37.6572 2.45005 37.6982 2.48392C37.7393 2.5178 37.7796 2.55246 37.819 2.58829C37.8583 2.62411 37.8968 2.66072 37.9344 2.69849C37.972 2.73607 38.0086 2.77462 38.0444 2.81414C38.0801 2.85367 38.1149 2.89397 38.1486 2.93505C38.1823 2.97614 38.215 3.01819 38.2467 3.06103C38.2785 3.10386 38.309 3.14728 38.3386 3.19167C38.3682 3.23587 38.3966 3.28085 38.4239 3.3266C38.4512 3.37236 38.4774 3.4187 38.5026 3.46562C38.5277 3.51255 38.5514 3.56005 38.5742 3.60834C38.597 3.65643 38.6184 3.70511 38.6389 3.75437C38.6591 3.80363 38.6784 3.85328 38.6963 3.90332C38.7142 3.95336 38.731 4.00398 38.7463 4.05499C38.7617 4.106 38.7759 4.15721 38.789 4.209C38.8018 4.2606 38.8135 4.31258 38.8238 4.36477C38.8341 4.41695 38.8433 4.46952 38.8511 4.52209C38.8589 4.57466 38.8653 4.62762 38.8706 4.68057C38.8758 4.73353 38.8797 4.78669 38.8822 4.83984C38.8848 4.893 38.8861 4.94635 38.8861 4.9995Z" fill="#FFCC00"/>
<path fill-rule="evenodd" clip-rule="evenodd" d="M6.49942 21.0205C6.49942 21.0738 6.49805 21.127 6.49552 21.1802C6.49299 21.2333 6.4889 21.2865 6.48384 21.3394C6.47858 21.3924 6.47216 21.4453 6.46437 21.4979C6.45658 21.5507 6.44743 21.6031 6.43711 21.6552C6.42679 21.7074 6.41511 21.7594 6.40226 21.811C6.38941 21.8626 6.3752 21.914 6.35962 21.965C6.34424 22.016 6.32749 22.0664 6.30958 22.1167C6.29167 22.1669 6.27259 22.2166 6.25214 22.2656C6.2317 22.3149 6.21028 22.3636 6.1875 22.4117C6.16472 22.4597 6.14077 22.5073 6.11585 22.5544C6.09073 22.6013 6.06464 22.6476 6.03719 22.6934C6.00993 22.7391 5.98131 22.7841 5.95191 22.8283C5.92231 22.8725 5.89175 22.9161 5.86001 22.959C5.82827 23.0018 5.79556 23.0437 5.76188 23.0849C5.72819 23.126 5.69334 23.1665 5.65771 23.2059C5.62208 23.2454 5.58528 23.2839 5.5477 23.3215C5.51012 23.3591 5.47157 23.3959 5.43224 23.4317C5.39291 23.4675 5.35261 23.5022 5.31153 23.5361C5.27044 23.57 5.22839 23.6027 5.18575 23.6344C5.14311 23.6661 5.0995 23.6967 5.0553 23.7263C5.0111 23.7559 4.96612 23.7843 4.92056 23.8118C4.875 23.8392 4.82866 23.8653 4.78174 23.8904C4.73481 23.9155 4.6873 23.9395 4.63921 23.9623C4.59112 23.9851 4.54245 24.0067 4.49338 24.0269C4.44431 24.0474 4.39467 24.0664 4.34463 24.0844C4.29459 24.1023 4.24397 24.119 4.19315 24.1344C4.14233 24.1498 4.09093 24.164 4.03933 24.177C3.98773 24.1899 3.93594 24.2016 3.88376 24.2121C3.83158 24.2224 3.7792 24.2316 3.72663 24.2393C3.67406 24.2471 3.6213 24.2538 3.56834 24.2588C3.51538 24.2641 3.46242 24.268 3.40927 24.2705C3.35611 24.273 3.30296 24.2744 3.2498 24.2744C3.19665 24.2744 3.1435 24.273 3.09034 24.2705C3.03719 24.268 2.98423 24.2641 2.93127 24.2588C2.87831 24.2536 2.82554 24.2471 2.77297 24.2393C2.7204 24.2316 2.66803 24.2224 2.61585 24.2121C2.56367 24.2018 2.51188 24.1901 2.46028 24.177C2.40868 24.1642 2.35748 24.15 2.30646 24.1344C2.25565 24.119 2.20502 24.1023 2.15498 24.0844C2.10494 24.0664 2.05529 24.0472 2.00623 24.0269C1.95716 24.0065 1.90849 23.9849 1.8604 23.9623C1.8123 23.9395 1.7648 23.9155 1.71787 23.8904C1.67095 23.8653 1.62481 23.839 1.57905 23.8118C1.53349 23.7843 1.48851 23.7559 1.44431 23.7263C1.40012 23.6967 1.3567 23.6661 1.31386 23.6344C1.27122 23.6027 1.22916 23.57 1.18808 23.5361C1.147 23.5022 1.1067 23.4675 1.06737 23.4317C1.02804 23.3959 0.989487 23.3593 0.951909 23.3215C0.914331 23.2839 0.877726 23.2454 0.8419 23.2059C0.80627 23.1663 0.771418 23.126 0.737734 23.0849C0.70405 23.0439 0.671339 23.0018 0.639602 22.959C0.607866 22.9161 0.577298 22.8727 0.547703 22.8283C0.518108 22.7841 0.489681 22.7391 0.462422 22.6934C0.435164 22.6476 0.408878 22.6015 0.383761 22.5544C0.358644 22.5073 0.334695 22.4599 0.312109 22.4117C0.289328 22.3636 0.267912 22.3149 0.247468 22.2656C0.227024 22.2164 0.207944 22.1667 0.190031 22.1167C0.172119 22.0664 0.155373 22.016 0.139991 21.965C0.124609 21.914 0.110397 21.8628 0.0973521 21.811C0.0845016 21.7594 0.0728184 21.7074 0.0623044 21.6552C0.051985 21.6031 0.0428335 21.5505 0.0350453 21.4979C0.0272571 21.4451 0.0206372 21.3924 0.0155749 21.3394C0.0103179 21.2865 0.00642428 21.2333 0.00389313 21.1802C0.00136198 21.127 0 21.0737 0 21.0205C0 20.9673 0.00136198 20.914 0.00389313 20.8608C0.00642428 20.8077 0.0103179 20.7545 0.0155749 20.7016C0.0208319 20.6486 0.0272571 20.5957 0.0350453 20.5431C0.0428335 20.4903 0.051985 20.4379 0.0623044 20.3858C0.0726237 20.3336 0.0843069 20.2816 0.0973521 20.23C0.110203 20.1784 0.124415 20.127 0.139991 20.076C0.155373 20.025 0.172119 19.9745 0.190031 19.9243C0.207944 19.8741 0.227024 19.8244 0.247468 19.7754C0.267912 19.7261 0.289328 19.6774 0.312109 19.6293C0.334889 19.5812 0.358839 19.5335 0.383761 19.4866C0.408878 19.4397 0.434969 19.3934 0.462422 19.3476C0.489681 19.3018 0.518108 19.2569 0.547703 19.2127C0.577298 19.1685 0.607866 19.1249 0.639602 19.082C0.671339 19.0392 0.70405 18.9973 0.737734 18.956C0.771418 18.915 0.80627 18.8745 0.8419 18.8351C0.877531 18.7956 0.914331 18.7571 0.951909 18.7195C0.989487 18.6819 1.02804 18.6451 1.06737 18.6093C1.1067 18.5735 1.147 18.5388 1.18808 18.5049C1.22916 18.471 1.27103 18.4383 1.31386 18.4066C1.3565 18.3749 1.40012 18.3443 1.44431 18.3147C1.48851 18.2851 1.53349 18.2567 1.57905 18.2292C1.62461 18.2018 1.67095 18.1757 1.71787 18.1506C1.7648 18.1254 1.8123 18.1015 1.8604 18.0787C1.90849 18.0559 1.95716 18.0343 2.00623 18.0141C2.05529 17.9936 2.10494 17.9745 2.15498 17.9566C2.20502 17.9387 2.25565 17.922 2.30646 17.9066C2.35728 17.8912 2.40868 17.877 2.46028 17.864C2.51188 17.8511 2.56367 17.8394 2.61585 17.8289C2.66803 17.8186 2.7204 17.8094 2.77297 17.8016C2.82554 17.7939 2.87831 17.7872 2.93127 17.7822C2.98423 17.7769 3.03719 17.773 3.09034 17.7705C3.1435 17.768 3.19665 17.7666 3.2498 17.7666C3.30296 17.7666 3.35611 17.768 3.40927 17.7705C3.46242 17.773 3.51538 17.7771 3.56834 17.7822C3.6213 17.7874 3.67406 17.7939 3.72663 17.8016C3.7792 17.8094 3.83158 17.8186 3.88376 17.8289C3.93594 17.8392 3.98773 17.8509 4.03933 17.864C4.09093 17.8768 4.14213 17.891 4.19315 17.9066C4.24397 17.922 4.29459 17.9387 4.34463 17.9566C4.39467 17.9745 4.44431 17.9938 4.49338 18.0141C4.54245 18.0345 4.59112 18.0559 4.63921 18.0787C4.6873 18.1015 4.73481 18.1254 4.78174 18.1506C4.82866 18.1757 4.875 18.202 4.92056 18.2292C4.96612 18.2567 5.0111 18.2851 5.0553 18.3147C5.0995 18.3443 5.14291 18.3749 5.18575 18.4066C5.22839 18.4383 5.27044 18.471 5.31153 18.5049C5.35261 18.5388 5.39291 18.5735 5.43224 18.6093C5.47157 18.6451 5.51012 18.6817 5.5477 18.7195C5.58528 18.7571 5.62189 18.7956 5.65771 18.8351C5.69334 18.8747 5.72819 18.915 5.76188 18.956C5.79556 18.9971 5.82827 19.0392 5.86001 19.082C5.89175 19.1249 5.92231 19.1683 5.95191 19.2127C5.9815 19.2569 6.00993 19.3018 6.03719 19.3476C6.06445 19.3934 6.09073 19.4397 6.11585 19.4866C6.14097 19.5335 6.16472 19.581 6.1875 19.6293C6.21028 19.6774 6.2317 19.7261 6.25214 19.7754C6.27239 19.8246 6.29167 19.8743 6.30958 19.9243C6.32749 19.9744 6.34424 20.025 6.35962 20.076C6.375 20.127 6.38921 20.1782 6.40226 20.23C6.41511 20.2816 6.42679 20.3336 6.43711 20.3858C6.44743 20.4379 6.45658 20.4905 6.46437 20.5431C6.47216 20.5958 6.47878 20.6486 6.48384 20.7016C6.4891 20.7545 6.49299 20.8077 6.49552 20.8608C6.49805 20.914 6.49942 20.9673 6.49942 21.0205Z" fill="#FFCC00"/>
<path d="M58.5352 27.8776V32.7153H61.5223V27.8776C61.5223 27.8685 61.5223 27.864 61.5268 27.8595C61.5359 26.8457 62.3634 26.0272 63.3728 26.0272H69.5198L72.1886 32.7153H75.403L72.5387 25.5225C73.407 25.0906 74.1255 24.4086 74.6074 23.563C75.0167 22.8401 75.2349 22.0217 75.2349 21.1851C75.2349 19.1436 73.9345 17.3114 72.0114 16.6249C71.4931 16.4431 70.9475 16.3477 70.3973 16.3477H58.5352V19.3348H70.3973C71.4067 19.3348 72.2386 20.1578 72.2478 21.1716V21.2034C72.2386 22.2172 71.4067 23.0357 70.3973 23.0357H63.3728C62.8272 23.0357 62.277 23.1311 61.7634 23.313C59.8401 23.9995 58.5354 25.8319 58.5354 27.8778L58.5352 27.8776Z" fill="black"/>
<path d="M99.6008 32.715L94.5177 19.948C93.6312 17.7338 91.5897 16.3472 89.2027 16.3472C86.8156 16.3472 84.7743 17.7338 83.8923 19.948L78.8047 32.715H82.0237L86.6659 21.0574C87.0977 19.9753 88.0389 19.3343 89.2029 19.3343C90.3668 19.3343 91.308 19.9755 91.7399 21.0574L96.3865 32.715H99.6008Z" fill="black"/>
<path d="M106.23 23.3126C104.307 23.9991 103.002 25.8315 103.002 27.8774V32.7153H105.989V27.8593C106.003 26.8453 106.83 26.027 107.84 26.027H119.702V23.0352H107.84C107.294 23.0352 106.748 23.1306 106.23 23.3124L106.23 23.3126Z" fill="black"/>
<path d="M119.702 16.3467H103.002V19.3338H119.702V16.3467Z" fill="#FFCC00"/>
<path d="M126.097 16.3472H123.109V32.715H126.097V16.3472Z" fill="black"/>
<path d="M137.203 26.0271C139.813 26.0316 142.482 27.4321 142.482 30.3372V32.7152H145.469V30.3372C145.469 28.6369 144.905 27.0409 143.773 25.7588C143.364 25.2905 142.891 24.8812 142.377 24.5312C142.891 24.1811 143.364 23.7718 143.773 23.3036C144.905 22.0214 145.469 20.4256 145.469 18.7251V16.3472H142.482V18.7251C142.482 21.6303 139.813 23.0308 137.203 23.0353H132.507V16.3472H129.52V32.715H132.507V26.0269H137.203V26.0271Z" fill="black"/>
<path d="M151.876 16.3472H148.889V32.715H151.876V16.3472Z" fill="black"/>
<path d="M221.791 27.0288V32.2431H220.895L220.837 31.859C220.239 32.2081 219.634 32.3827 219.021 32.3827C218.548 32.3827 218.162 32.249 217.863 31.9813C217.564 31.7135 217.415 31.3082 217.415 30.7649V27.1452L218.416 27.0288V30.4741C218.416 30.7301 218.447 30.9337 218.509 31.085C218.571 31.2363 218.672 31.345 218.812 31.411C218.951 31.477 219.145 31.5099 219.394 31.5099C219.766 31.5099 220.232 31.3664 220.79 31.0792V27.1452L221.791 27.0288ZM212.631 30.9279C212.631 31.1296 212.692 31.2809 212.812 31.3818C212.932 31.4826 213.113 31.533 213.353 31.533C213.881 31.533 214.397 31.3779 214.901 31.0675V29.857C214.226 29.888 213.679 29.9927 213.26 30.1713C212.841 30.3498 212.632 30.602 212.632 30.9279H212.631ZM214.109 27.0054C214.707 27.0054 215.155 27.1411 215.454 27.4127C215.752 27.6843 215.902 28.1111 215.902 28.6931V32.2431H214.994L214.936 31.8008C214.4 32.1888 213.783 32.3827 213.085 32.3827C212.79 32.3827 212.526 32.3265 212.293 32.2139C212.061 32.1014 211.88 31.9423 211.752 31.7367C211.624 31.5311 211.56 31.2963 211.56 31.0325C211.56 30.6057 211.711 30.2507 212.014 29.9674C212.317 29.6841 212.72 29.4766 213.225 29.3448C213.729 29.213 214.288 29.1392 214.901 29.1236V28.8675C214.901 28.5184 214.831 28.2642 214.691 28.1051C214.551 27.946 214.315 27.8666 213.981 27.8666C213.415 27.8666 212.825 28.0683 212.212 28.4717L211.769 27.7733C212.514 27.2612 213.294 27.0052 214.109 27.0052L214.109 27.0054ZM208.686 27.7854C208.282 27.7854 207.966 27.9057 207.737 28.1462C207.508 28.3866 207.359 28.7165 207.289 29.1355H209.827V29.0889C209.827 28.6543 209.728 28.3284 209.53 28.1113C209.332 27.8942 209.051 27.7854 208.686 27.7854H208.686ZM210.781 29.8687H207.231C207.239 30.4507 207.38 30.8736 207.656 31.1374C207.931 31.4012 208.286 31.533 208.721 31.533C209.031 31.533 209.301 31.4943 209.53 31.4166C209.759 31.3389 210.013 31.2188 210.292 31.0558L210.676 31.7659C210.04 32.1771 209.373 32.3827 208.674 32.3827C207.929 32.3827 207.334 32.1752 206.888 31.7601C206.441 31.345 206.218 30.6873 206.218 29.7873C206.218 29.2753 206.312 28.8097 206.498 28.3907C206.684 27.9717 206.961 27.636 207.33 27.3839C207.699 27.1318 208.151 27.0056 208.686 27.0056C209.136 27.0056 209.52 27.0967 209.838 27.2791C210.156 27.4616 210.397 27.7118 210.56 28.0299C210.723 28.3481 210.804 28.7128 210.804 29.124L210.781 29.8689V29.8687ZM205.159 27.0054C205.291 27.0054 205.411 27.0132 205.52 27.0288C205.629 27.0443 205.745 27.0675 205.869 27.0987L205.683 28.1345C205.419 28.0414 205.178 27.9949 204.961 27.9949C204.713 27.9949 204.484 28.0492 204.274 28.1579C204.065 28.2665 203.863 28.4721 203.669 28.7747V32.2431H202.668V27.1335L203.669 27.0288V27.762C203.863 27.5138 204.088 27.3255 204.344 27.1976C204.6 27.0695 204.872 27.0056 205.159 27.0056L205.159 27.0054ZM201.039 27.0288V32.2431H200.143L200.084 31.859C199.487 32.2081 198.882 32.3827 198.269 32.3827C197.795 32.3827 197.409 32.249 197.11 31.9813C196.812 31.7135 196.662 31.3082 196.662 30.7649V27.1452L197.663 27.0288V30.4741C197.663 30.7301 197.694 30.9337 197.756 31.085C197.819 31.2363 197.919 31.345 198.059 31.411C198.199 31.477 198.393 31.5099 198.641 31.5099C199.013 31.5099 199.479 31.3664 200.038 31.0792V27.1452L201.039 27.0288H201.039ZM192.67 31.3586C193.229 31.3586 193.632 31.2422 193.881 31.0095C194.129 30.7766 194.253 30.4779 194.253 30.1133C194.253 29.7176 194.121 29.4032 193.857 29.1705C193.593 28.9376 193.202 28.8214 192.682 28.8214H190.994V31.3588H192.67L192.67 31.3586ZM190.994 25.5854V27.9598H192.402C192.876 27.9598 193.26 27.8609 193.555 27.6631C193.85 27.4653 193.997 27.1491 193.997 26.7145C193.997 26.4972 193.943 26.3033 193.834 26.1325C193.725 25.9618 193.564 25.828 193.351 25.7311C193.138 25.6341 192.88 25.5856 192.577 25.5856H190.994V25.5854ZM193.811 28.2741C194.346 28.4059 194.742 28.6427 194.998 28.984C195.254 29.3253 195.382 29.7094 195.382 30.1362C195.382 30.5397 195.279 30.9005 195.074 31.2186C194.868 31.5367 194.56 31.7869 194.148 31.9694C193.737 32.1518 193.237 32.2429 192.647 32.2429H189.924V24.7007H192.554C193.082 24.7007 193.535 24.784 193.916 24.9509C194.296 25.1177 194.587 25.3465 194.789 25.6376C194.99 25.9285 195.091 26.2642 195.091 26.6444C195.091 27.0247 194.988 27.335 194.783 27.622C194.577 27.9092 194.253 28.1263 193.811 28.2739V28.2741ZM184.209 29.6127L186.024 32.1732V32.2431H184.872L183.58 30.276L182.195 32.2431H181.147V32.1732L182.975 29.6242L181.229 27.2149V27.145H182.369L183.615 28.9608L184.872 27.145H185.908V27.2149L184.208 29.6125L184.209 29.6127ZM178.633 27.7854C178.23 27.7854 177.914 27.9057 177.685 28.1462C177.456 28.3866 177.306 28.7165 177.237 29.1355H179.774V29.0889C179.774 28.6543 179.675 28.3284 179.477 28.1113C179.28 27.8942 178.998 27.7854 178.634 27.7854H178.633ZM180.728 29.8687H177.178C177.186 30.4507 177.328 30.8736 177.603 31.1374C177.879 31.4012 178.234 31.533 178.668 31.533C178.979 31.533 179.248 31.4943 179.477 31.4166C179.706 31.3389 179.96 31.2188 180.24 31.0558L180.624 31.7659C179.988 32.1771 179.32 32.3827 178.622 32.3827C177.877 32.3827 177.282 32.1752 176.835 31.7601C176.389 31.345 176.166 30.6873 176.166 29.7873C176.166 29.2753 176.259 28.8097 176.445 28.3907C176.632 27.9717 176.909 27.636 177.278 27.3839C177.646 27.1318 178.098 27.0056 178.634 27.0056C179.084 27.0056 179.468 27.0967 179.786 27.2791C180.104 27.4616 180.344 27.7118 180.507 28.0299C180.67 28.3481 180.752 28.7128 180.752 29.124L180.728 29.8689V29.8687ZM175.107 27.0054C175.239 27.0054 175.359 27.0132 175.468 27.0288C175.576 27.0443 175.693 27.0675 175.817 27.0987L175.63 28.1345C175.366 28.0414 175.126 27.9949 174.909 27.9949C174.66 27.9949 174.431 28.0492 174.222 28.1579C174.012 28.2665 173.811 28.4721 173.617 28.7747V32.2431H172.616V27.1335L173.617 27.0288V27.762C173.811 27.5138 174.036 27.3255 174.292 27.1976C174.548 27.0695 174.82 27.0056 175.107 27.0056L175.107 27.0054ZM168.845 31.5681C169.846 31.5681 170.346 30.9396 170.346 29.6826C170.346 29.1162 170.224 28.6641 169.98 28.3267C169.735 27.989 169.369 27.8204 168.88 27.8204C168.337 27.8204 167.947 27.9853 167.71 28.3152C167.474 28.645 167.355 29.1008 167.355 29.6828C167.355 30.2647 167.479 30.7147 167.728 31.0562C167.976 31.3977 168.348 31.5683 168.845 31.5683L168.845 31.5681ZM168.752 32.3827C168.208 32.3827 167.754 32.2644 167.39 32.0278C167.025 31.7912 166.754 31.4692 166.575 31.0617C166.396 30.6543 166.307 30.1945 166.307 29.6824C166.307 29.0617 166.424 28.5513 166.656 28.1518C166.889 27.7523 167.203 27.4612 167.599 27.279C167.995 27.0965 168.445 27.0054 168.949 27.0054C169.492 27.0054 169.946 27.1238 170.311 27.3603C170.676 27.5971 170.947 27.917 171.126 28.3206C171.304 28.724 171.394 29.182 171.394 29.6941C171.394 30.3226 171.277 30.8366 171.044 31.2363C170.812 31.6358 170.497 31.9269 170.102 32.1092C169.706 32.2916 169.256 32.3827 168.752 32.3827ZM165.97 25.6088H162.327V28.1462H165.504L165.388 29.0541H162.327V32.2431H161.256V24.7009H165.97V25.6088H165.97Z" fill="black"/>
</svg>
