<svg width="20" height="20" viewBox="0 0 20 20" fill="none" xmlns="http://www.w3.org/2000/svg">
<path d="M14.9993 12.5V7.5C14.9993 5.14297 14.9993 3.96447 14.2671 3.23223C13.5348 2.5 12.3563 2.5 9.99935 2.5H6.66602C4.30899 2.5 3.13048 2.5 2.39825 3.23223C1.66602 3.96447 1.66602 5.14297 1.66602 7.5V12.5C1.66602 14.857 1.66602 16.0355 2.39825 16.7677C3.13048 17.5 4.30899 17.5 6.66602 17.5H16.666" stroke="black" stroke-width="1.25" stroke-linecap="round" stroke-linejoin="round"/>
<path d="M5 6.66797H11.6667" stroke="black" stroke-width="1.25" stroke-linecap="round" stroke-linejoin="round"/>
<path d="M5 10H11.6667" stroke="black" stroke-width="1.25" stroke-linecap="round" stroke-linejoin="round"/>
<path d="M5 13.332H8.33333" stroke="black" stroke-width="1.25" stroke-linecap="round" stroke-linejoin="round"/>
<path d="M15 6.66797H15.8333C17.0118 6.66797 17.6011 6.66797 17.9672 7.03409C18.3333 7.4002 18.3333 7.98946 18.3333 9.16797V15.8346C18.3333 16.7551 17.5872 17.5013 16.6667 17.5013C15.7462 17.5013 15 16.7551 15 15.8346V6.66797Z" stroke="black" stroke-width="1.25" stroke-linecap="round" stroke-linejoin="round"/>
</svg>
