<svg width="20" height="20" viewBox="0 0 20 20" fill="none" xmlns="http://www.w3.org/2000/svg">
<path d="M13.7988 4L14.1408 6.19338L15.7938 6.19346" stroke="#AA8A08" stroke-width="1.25" stroke-linecap="round" stroke-linejoin="round"/>
<path d="M8.32839 1.6845C6.24633 1.59635 4.63778 1.8362 4.63778 1.8362C3.62207 1.90883 1.67557 2.47826 1.67558 5.80384C1.6756 9.10114 1.65405 13.1661 1.67558 14.7866C1.67558 15.7767 2.2886 18.0861 4.4104 18.2099C6.98943 18.3604 11.635 18.3924 13.7664 18.2099C14.337 18.1777 16.2365 17.7298 16.477 15.6631C16.726 13.522 16.6765 12.034 16.6765 11.6798" stroke="#AA8A08" stroke-width="1.25" stroke-linecap="round" stroke-linejoin="round"/>
<path d="M18.3335 5.84635C18.3335 8.14754 16.4663 10.0131 14.1629 10.0131C11.8594 10.0131 9.99219 8.14754 9.99219 5.84635C9.99219 3.54517 11.8594 1.67969 14.1629 1.67969C16.4663 1.67969 18.3335 3.54517 18.3335 5.84635Z" stroke="#AA8A08" stroke-width="1.25" stroke-linecap="round"/>
<path d="M5.81641 10.8467H9.14971" stroke="#AA8A08" stroke-width="1.25" stroke-linecap="round"/>
<path d="M5.81641 14.1797H12.483" stroke="#AA8A08" stroke-width="1.25" stroke-linecap="round"/>
</svg>
