<svg width="20" height="20" viewBox="0 0 20 20" fill="none" xmlns="http://www.w3.org/2000/svg">
<path d="M14.9976 15.4167L15.2288 14.2615C15.3511 13.6505 15.6777 13.0873 15.7942 12.4752C15.8184 12.3483 15.831 12.2173 15.831 12.0833C15.831 10.9327 14.8982 10 13.7476 10C12.5971 10 11.6643 10.9327 11.6643 12.0833C11.6643 12.2173 11.677 12.3483 11.7011 12.4752C11.8176 13.0873 12.1443 13.6505 12.2666 14.2615L12.4976 15.4167M14.9976 15.4167H12.4976M14.9976 15.4167L17.0779 15.9716C17.8099 16.1342 18.3307 16.7835 18.3307 17.5334C18.3307 17.9752 17.9726 18.3333 17.5308 18.3333H17.0779H10.4141H9.96398C9.52223 18.3333 9.16406 17.9752 9.16406 17.5334C9.16406 16.7835 9.6849 16.1342 10.4169 15.9716L12.4976 15.4167" stroke="#EB1D2E" stroke-width="1.25"/>
<path d="M14.1641 7.50033V6.66699C14.1641 4.30997 14.1641 3.13146 13.4318 2.39923C12.6996 1.66699 11.5211 1.66699 9.16406 1.66699H6.66406C4.30704 1.66699 3.12853 1.66699 2.3963 2.39923C1.66406 3.13146 1.66406 4.30997 1.66406 6.66699V13.3337C1.66406 15.6907 1.66406 16.8692 2.3963 17.6014C3.12853 18.3337 4.30704 18.3337 6.66406 18.3337" stroke="#EB1D2E" stroke-width="1.25" stroke-linecap="round"/>
<path d="M5.89844 9C5.89844 9 8.89844 6 9.89844 5M5.89844 5C5.89844 5 9.65809 8.83333 10 9" stroke="#EB1D2E" stroke-width="1.25" stroke-linecap="round" stroke-linejoin="round"/>
<path d="M5 12H8.33333" stroke="#EB1D2E" stroke-width="1.25" stroke-linecap="round"/>
<path d="M5 14.5H8.33333" stroke="#EB1D2E" stroke-width="1.25" stroke-linecap="round"/>
</svg>
