<svg width="54" height="54" viewBox="0 0 54 54" fill="none" xmlns="http://www.w3.org/2000/svg">
<g filter="url(#filter0_i_7_63432)">
<path d="M48.375 27C48.375 38.8051 38.8051 48.375 27 48.375C15.195 48.375 5.625 38.8051 5.625 27C5.625 15.1949 15.195 5.625 27 5.625C35.7651 5.625 43.2981 10.9008 46.5964 18.45M48.375 12.375L47.3062 19.5188L40.5 18" stroke="white" stroke-width="5" stroke-linecap="round" stroke-linejoin="round"/>
</g>
<g filter="url(#filter1_i_7_63432)">
<path d="M22.5 24.75V21.375C22.5 18.8897 24.5146 16.875 27 16.875C29.4853 16.875 31.5 18.8897 31.5 21.375V24.75M25.3125 37.125H28.6875C31.3263 37.125 32.6457 37.125 33.5545 36.4275C33.7885 36.248 33.9979 36.0385 34.1775 35.8045C34.875 34.8957 34.875 33.5763 34.875 30.9375C34.875 28.2987 34.875 26.9793 34.1775 26.0705C33.9979 25.8365 33.7885 25.6271 33.5545 25.4475C32.6457 24.75 31.3263 24.75 28.6875 24.75H25.3125C22.6737 24.75 21.3543 24.75 20.4454 25.4475C20.2114 25.6271 20.002 25.8365 19.8224 26.0705C19.125 26.9793 19.125 28.2987 19.125 30.9375C19.125 33.5763 19.125 34.8957 19.8224 35.8045C20.002 36.0385 20.2114 36.248 20.4454 36.4275C21.3543 37.125 22.6737 37.125 25.3125 37.125Z" stroke="white" stroke-width="5" stroke-linejoin="round"/>
</g>
<defs>
<filter id="filter0_i_7_63432" x="3.125" y="3.125" width="47.75" height="49.75" filterUnits="userSpaceOnUse" color-interpolation-filters="sRGB">
<feFlood flood-opacity="0" result="BackgroundImageFix"/>
<feBlend mode="normal" in="SourceGraphic" in2="BackgroundImageFix" result="shape"/>
<feColorMatrix in="SourceAlpha" type="matrix" values="0 0 0 0 0 0 0 0 0 0 0 0 0 0 0 0 0 0 127 0" result="hardAlpha"/>
<feOffset dy="2"/>
<feGaussianBlur stdDeviation="2"/>
<feComposite in2="hardAlpha" operator="arithmetic" k2="-1" k3="1"/>
<feColorMatrix type="matrix" values="0 0 0 0 0 0 0 0 0 0 0 0 0 0 0 0 0 0 0.25 0"/>
<feBlend mode="normal" in2="shape" result="effect1_innerShadow_7_63432"/>
</filter>
<filter id="filter1_i_7_63432" x="16.625" y="14.375" width="20.75" height="27.25" filterUnits="userSpaceOnUse" color-interpolation-filters="sRGB">
<feFlood flood-opacity="0" result="BackgroundImageFix"/>
<feBlend mode="normal" in="SourceGraphic" in2="BackgroundImageFix" result="shape"/>
<feColorMatrix in="SourceAlpha" type="matrix" values="0 0 0 0 0 0 0 0 0 0 0 0 0 0 0 0 0 0 127 0" result="hardAlpha"/>
<feOffset dy="2"/>
<feGaussianBlur stdDeviation="2"/>
<feComposite in2="hardAlpha" operator="arithmetic" k2="-1" k3="1"/>
<feColorMatrix type="matrix" values="0 0 0 0 0 0 0 0 0 0 0 0 0 0 0 0 0 0 0.25 0"/>
<feBlend mode="normal" in2="shape" result="effect1_innerShadow_7_63432"/>
</filter>
</defs>
</svg>
