<svg width="20" height="20" viewBox="0 0 20 20" fill="none" xmlns="http://www.w3.org/2000/svg">
<path d="M12.9173 9.99967C12.9173 11.6105 11.6115 12.9163 10.0007 12.9163C8.38982 12.9163 7.08398 11.6105 7.08398 9.99967C7.08398 8.38884 8.38982 7.08301 10.0007 7.08301C11.6115 7.08301 12.9173 8.38884 12.9173 9.99967Z" stroke="black" stroke-width="1.25"/>
<path d="M17.5085 11.7473C17.9434 11.6301 18.1609 11.5714 18.2468 11.4593C18.3327 11.3472 18.3327 11.1668 18.3327 10.806V9.19459C18.3327 8.83384 18.3327 8.65343 18.2468 8.54134C18.1608 8.42918 17.9434 8.37051 17.5085 8.25324C15.8832 7.81492 14.8659 6.11568 15.2854 4.50098C15.4008 4.05692 15.4584 3.83489 15.4033 3.70467C15.3483 3.57444 15.1903 3.48471 14.8741 3.30523L13.4368 2.4892C13.1267 2.31308 12.9716 2.22503 12.8324 2.24378C12.6932 2.26253 12.5362 2.4192 12.222 2.73253C11.006 3.94566 8.99402 3.94561 7.77797 2.73246C7.46387 2.41912 7.30683 2.26245 7.16762 2.24369C7.02842 2.22494 6.87332 2.313 6.56312 2.48912L5.12588 3.30515C4.80979 3.48462 4.65174 3.57435 4.59667 3.70455C4.54158 3.83476 4.59924 4.05682 4.71456 4.50093C5.13382 6.11568 4.11578 7.81495 2.4902 8.25326C2.05528 8.37051 1.83782 8.42918 1.75192 8.54126C1.66602 8.65343 1.66602 8.83384 1.66602 9.19459V10.806C1.66602 11.1668 1.66602 11.3472 1.75192 11.4593C1.83781 11.5714 2.05527 11.6301 2.4902 11.7473C4.11552 12.1857 5.13275 13.8849 4.71328 15.4996C4.59792 15.9437 4.54024 16.1657 4.59532 16.2959C4.6504 16.4262 4.80845 16.5159 5.12456 16.6953L6.56181 17.5114C6.87202 17.6875 7.02713 17.7756 7.16635 17.7568C7.30557 17.7381 7.46258 17.5813 7.77661 17.268C8.99327 16.0539 11.0067 16.0538 12.2234 17.2679C12.5374 17.5813 12.6944 17.738 12.8337 17.7568C12.9728 17.7755 13.128 17.6874 13.4382 17.5113L14.8754 16.6953C15.1916 16.5158 15.3497 16.4261 15.4047 16.2958C15.4598 16.1656 15.4021 15.9436 15.2867 15.4995C14.867 13.8849 15.8834 12.1858 17.5085 11.7473Z" stroke="black" stroke-width="1.25" stroke-linecap="round"/>
</svg>
