<svg width="20" height="20" viewBox="0 0 20 20" fill="none" xmlns="http://www.w3.org/2000/svg">
<path d="M6.25 16.2497C6.25 15.445 6.52378 14.631 7.19243 14.1833C7.99434 13.6464 8.96033 13.333 10 13.333C11.0397 13.333 12.0057 13.6464 12.8076 14.1833C13.4762 14.631 13.75 15.445 13.75 16.2497" stroke="black" stroke-width="1.25" stroke-linecap="round" stroke-linejoin="round"/>
<path d="M9.99935 11.2497C11.1499 11.2497 12.0827 10.3169 12.0827 9.16634C12.0827 8.01575 11.1499 7.08301 9.99935 7.08301C8.84876 7.08301 7.91602 8.01575 7.91602 9.16634C7.91602 10.3169 8.84876 11.2497 9.99935 11.2497Z" stroke="black" stroke-width="1.25" stroke-linecap="round" stroke-linejoin="round"/>
<path d="M14.584 9.16699C15.5091 9.16699 16.3686 9.48108 17.0818 10.019C17.6864 10.475 17.9173 11.2462 17.9173 12.0035V12.0837" stroke="black" stroke-width="1.25" stroke-linecap="round" stroke-linejoin="round"/>
<path d="M14.5827 7.08333C15.5032 7.08333 16.2493 6.33714 16.2493 5.41667C16.2493 4.49619 15.5032 3.75 14.5827 3.75C13.6622 3.75 12.916 4.49619 12.916 5.41667C12.916 6.33714 13.6622 7.08333 14.5827 7.08333Z" stroke="black" stroke-width="1.25" stroke-linecap="round" stroke-linejoin="round"/>
<path d="M5.41732 9.16699C4.49221 9.16699 3.6327 9.48108 2.91945 10.019C2.31487 10.475 2.08398 11.2462 2.08398 12.0035V12.0837" stroke="black" stroke-width="1.25" stroke-linecap="round" stroke-linejoin="round"/>
<path d="M5.41667 7.08333C6.33714 7.08333 7.08333 6.33714 7.08333 5.41667C7.08333 4.49619 6.33714 3.75 5.41667 3.75C4.49619 3.75 3.75 4.49619 3.75 5.41667C3.75 6.33714 4.49619 7.08333 5.41667 7.08333Z" stroke="black" stroke-width="1.25" stroke-linecap="round" stroke-linejoin="round"/>
</svg>
