<svg width="100" height="100" viewBox="0 0 100 100" fill="none" xmlns="http://www.w3.org/2000/svg">
<mask id="mask0_7_44641" style="mask-type:alpha" maskUnits="userSpaceOnUse" x="0" y="0" width="100" height="100">
<rect width="100" height="100" fill="#333333"/>
</mask>
<g mask="url(#mask0_7_44641)">
<path d="M11.1077 87.5002C8.02638 87.5002 6.10215 84.1627 7.64601 81.496L46.5416 14.3128C48.0822 11.6517 51.9243 11.6517 53.465 14.3128L92.3605 81.496C93.9044 84.1627 91.9801 87.5002 88.8988 87.5002H11.1077ZM50.0033 75.0002C51.1838 75.0002 52.1734 74.6009 52.972 73.8022C53.7706 73.0036 54.1699 72.014 54.1699 70.8335C54.1699 69.6529 53.7706 68.6634 52.972 67.8647C52.1734 67.0661 51.1838 66.6668 50.0033 66.6668C48.8227 66.6668 47.8331 67.0661 47.0345 67.8647C46.2359 68.6634 45.8366 69.6529 45.8366 70.8335C45.8366 72.014 46.2359 73.0036 47.0345 73.8022C47.8331 74.6009 48.8227 75.0002 50.0033 75.0002ZM45.8366 62.5002H54.1699V41.6668H45.8366V62.5002Z" fill="#ED3444"/>
</g>
</svg>
