<svg width="240" height="176" viewBox="0 0 240 176" fill="none" xmlns="http://www.w3.org/2000/svg">
<rect x="148.305" y="96" width="52.1791" height="30.3729" transform="rotate(60 148.305 96)" fill="#D9D9D9"/>
<rect x="148.02" y="97.0638" width="50.6215" height="28.8153" transform="rotate(60 148.02 97.0638)" fill="url(#paint0_linear_2132_3455)"/>
<path d="M148.375 155.311L123.065 111.472L148.02 97.0638L173.33 140.903L148.375 155.311ZM148.12 102.388C147.04 102.874 145.746 102.471 145.141 101.423L128.279 111.159L128.388 111.372C128.873 112.452 128.472 113.746 127.424 114.35L148.062 150.096C149.179 149.451 150.608 149.834 151.253 150.952L168.115 141.216L168.006 141.003C167.521 139.923 167.923 138.629 168.971 138.024L148.333 102.279L148.12 102.388Z" fill="#707174"/>
<circle cx="148.731" cy="126.33" r="3.89396" transform="rotate(60 148.731 126.33)" fill="#42454C"/>
<rect x="187.371" y="103" width="52.1791" height="30.3729" transform="rotate(90 187.371 103)" fill="#D9D9D9"/>
<rect x="186.594" y="103.778" width="50.6215" height="28.8153" transform="rotate(90 186.594 103.778)" fill="url(#paint1_linear_2132_3455)"/>
<path d="M157.778 154.399L157.778 103.778L186.594 103.778L186.594 154.399L157.778 154.399ZM184.019 108.439C182.84 108.32 181.921 107.324 181.921 106.114L162.45 106.114L162.438 106.354C162.319 107.532 161.324 108.451 160.114 108.451L160.114 149.727C161.405 149.727 162.45 150.773 162.45 152.063L181.921 152.063L181.933 151.824C182.052 150.646 183.048 149.727 184.258 149.727L184.258 108.451L184.019 108.439Z" fill="#707174"/>
<circle cx="172.575" cy="129.479" r="3.89396" transform="rotate(90 172.575 129.479)" fill="#42454C"/>
<path d="M112.961 61.4234L114.197 52.8189L114.773 48.8079L116.817 34.5866L87.4288 30.3626L76.4914 28.7917L75.3332 36.8582L74.7559 40.8676L73.5195 49.472" fill="#29B860"/>
<path d="M112.961 61.4234L114.197 52.8189L114.773 48.8079L116.817 34.5866L87.4288 30.3626L76.4914 28.7917L75.3332 36.8582L74.7559 40.8676L73.5195 49.472" fill="url(#paint2_linear_2132_3455)"/>
<g opacity="0.6">
<path d="M112.968 61.4233L111.158 60.8737L112.081 54.4524L112.657 50.4414L114.702 36.2202L85.3131 31.9962L76.2266 30.6902L76.4987 28.7917L87.4361 30.3626L116.825 34.5866L114.78 48.8079L114.204 52.8189L112.968 61.4233Z" fill="white"/>
</g>
<path d="M112.965 62.2154C112.927 62.2154 112.889 62.2128 112.851 62.2073C112.418 62.145 112.118 61.7437 112.18 61.3108L115.924 35.2579L77.1655 29.6882L74.3063 49.5847C74.2441 50.0178 73.8411 50.3182 73.4098 50.2559C72.9769 50.1937 72.6765 49.7923 72.7386 49.3595L75.7105 28.6793C75.7404 28.4714 75.8516 28.2839 76.0197 28.158C76.1879 28.0321 76.3983 27.9782 76.6069 28.008L87.5443 29.5789L116.933 33.8029C117.141 33.8328 117.328 33.9441 117.454 34.1122C117.58 34.2803 117.634 34.4916 117.604 34.6995L113.747 61.5361C113.691 61.9307 113.352 62.2154 112.965 62.2154Z" fill="#797979"/>
<path d="M108.696 60.1304L109.935 51.5275L111.235 42.4739C108.941 42.1451 107.35 40.0178 107.679 37.7244L84.3779 34.3769C84.049 36.6703 81.9218 38.2613 79.6284 37.9324L79.02 42.159L77.7852 50.7618" fill="#4FEC91"/>
<path d="M108.696 60.1304L109.935 51.5275L111.235 42.4739C108.941 42.1451 107.35 40.0178 107.679 37.7244L84.3779 34.3769C84.049 36.6703 81.9218 38.2613 79.6284 37.9324L79.02 42.159L77.7852 50.7618" fill="url(#paint3_linear_2132_3455)"/>
<path d="M98.395 54.2183C100.432 52.1817 100.432 48.8796 98.395 46.843C96.3584 44.8064 93.0563 44.8064 91.0197 46.843C88.9831 48.8797 88.983 52.1817 91.0197 54.2183C93.0563 56.255 96.3583 56.2549 98.395 54.2183Z" fill="#42454C"/>
<path d="M37.2183 164.679H214.17C215.207 164.679 216.049 165.521 216.049 166.557V170.012H35.3398V166.557C35.3398 165.521 36.1818 164.679 37.2183 164.679Z" fill="url(#paint4_linear_2132_3455)"/>
<path d="M117.871 165H44.926C41.6071 165 38.9154 162.31 38.9154 158.989L24.2193 71.8061L21.4609 55.4453C21.4609 52.1264 24.1514 49.4347 27.4716 49.4347H100.416C103.735 49.4347 106.427 52.1251 106.427 55.4453L123.881 158.989C123.881 162.308 121.191 165 117.871 165Z" fill="#37393E"/>
<path d="M123.804 165H50.8596C47.5407 165 44.8489 162.31 44.8489 158.989L27.3945 55.4453C27.3945 52.1264 30.085 49.4347 33.4052 49.4347H106.35C109.669 49.4347 112.36 52.1251 112.36 55.4453L129.815 158.989C129.815 162.308 127.124 165 123.804 165Z" fill="url(#paint5_linear_2132_3455)"/>
<path d="M50.8549 162.905C48.6962 162.905 46.9388 161.149 46.9388 158.989C46.9388 158.873 46.9296 158.757 46.91 158.642L29.4883 55.2899C29.5706 53.2031 31.2941 51.5306 33.4004 51.5306H106.345C108.504 51.5306 110.261 53.2867 110.261 55.4467C110.261 55.5629 110.27 55.6792 110.29 55.7942L127.713 159.146C127.631 161.233 125.907 162.905 123.799 162.905H50.8549Z" fill="url(#paint6_linear_2132_3455)"/>
<path d="M108.321 54.1425H31.3828L48.5758 151.283H124.655L108.321 54.1425Z" fill="url(#paint7_linear_2132_3455)"/>
<path d="M132.256 77.9396C134.476 73.7112 133.383 68.5015 129.648 65.5236L110.164 49.9835C109.157 49.1799 107.989 48.8205 106.847 48.8284H79.6172L105.027 77.9409H132.256V77.9396Z" fill="#818387"/>
<path d="M106.073 77.9396C108.293 73.7112 107.199 68.5015 103.464 65.5236L83.9808 49.9835C82.9734 49.1799 81.8052 48.8205 80.6632 48.8284H53.4336L78.843 77.9409H106.073V77.9396Z" fill="#707275"/>
<path d="M79.889 77.9396C82.109 73.7112 81.0153 68.5015 77.2809 65.5236L57.7972 49.9835C56.7898 49.1799 55.6216 48.8205 54.4796 48.8284H27.25L49.168 77.9409H79.8877L79.889 77.9396Z" fill="#818387"/>
<path d="M42.6406 72.7663C42.6406 70.1494 44.7494 68.0213 47.3661 67.9974L130.492 67.2377C131.701 67.2267 132.808 67.9149 133.333 69.0043L133.475 69.445C133.666 70.04 133.763 70.6611 133.763 71.286V73.02V73.4154C133.763 74.0404 133.666 74.6615 133.475 75.2565L133.333 75.6971C132.978 76.7931 131.957 77.5354 130.805 77.5354H47.4097C44.7758 77.5354 42.6406 75.4002 42.6406 72.7663Z" fill="#42454C"/>
<path d="M21.0105 53.6356C21.0039 53.7519 21 53.8708 21 53.9884L25.2048 77.9396H51.6138C53.8339 73.7112 52.7402 68.5015 49.0057 65.5236L29.5221 49.9835C28.5146 49.1799 27.3465 48.8205 26.2044 48.8284C23.6264 48.8454 21.1777 50.7361 21.0091 53.6369L21.0105 53.6356Z" fill="#37393E"/>
<path d="M56.2391 96.3593H99.7719C101.592 96.3593 103.07 97.8372 103.07 99.6569V111.788C103.07 113.608 101.592 115.086 99.7719 115.086H56.2391C54.4193 115.086 52.9414 113.608 52.9414 111.788V99.6569C52.9414 97.8372 54.4193 96.3593 56.2391 96.3593Z" fill="url(#paint8_linear_2132_3455)"/>
<path d="M56.3824 86.2005H104.127C106.123 86.2005 107.744 87.8214 107.744 89.8172V103.122C107.744 105.118 106.123 106.739 104.127 106.739H56.3824C54.3866 106.739 52.7656 105.118 52.7656 103.122V89.8172C52.7656 87.8214 54.3866 86.2005 56.3824 86.2005Z" fill="#C2C2C2"/>
<circle cx="126.294" cy="152.744" r="10.6955" fill="url(#paint9_linear_2132_3455)" stroke="url(#paint10_linear_2132_3455)" stroke-width="2.27565"/>
<mask id="mask0_2132_3455" style="mask-type:alpha" maskUnits="userSpaceOnUse" x="119" y="145" width="15" height="15">
<rect x="119.477" y="145.417" width="14.5193" height="14.5193" transform="rotate(0.227027 119.477 145.417)" fill="#D9D9D9"/>
</mask>
<g mask="url(#mask0_2132_3455)">
<path d="M125.907 158.331L125.917 157.025C125.385 156.904 124.927 156.671 124.542 156.327C124.157 155.982 123.877 155.496 123.701 154.869L124.821 154.413C124.968 154.899 125.189 155.269 125.484 155.522C125.778 155.775 126.167 155.902 126.65 155.902C127.062 155.902 127.412 155.808 127.701 155.621C127.989 155.434 128.134 155.143 128.137 154.748C128.14 154.394 128.031 154.113 127.812 153.905C127.592 153.698 127.081 153.462 126.278 153.199C125.415 152.925 124.824 152.599 124.506 152.219C124.187 151.839 124.029 151.376 124.033 150.829C124.038 150.171 124.253 149.66 124.679 149.296C125.104 148.931 125.538 148.724 125.981 148.673L125.991 147.398L127.198 147.398L127.188 148.674C127.69 148.755 128.104 148.94 128.428 149.228C128.753 149.517 128.989 149.869 129.137 150.284L128.017 150.77C127.898 150.446 127.729 150.203 127.509 150.041C127.289 149.879 126.988 149.797 126.606 149.797C126.163 149.797 125.826 149.896 125.593 150.093C125.36 150.291 125.243 150.536 125.24 150.83C125.238 151.164 125.387 151.427 125.687 151.619C125.987 151.812 126.509 152.014 127.251 152.227C127.944 152.43 128.467 152.751 128.82 153.192C129.174 153.632 129.349 154.141 129.344 154.718C129.339 155.437 129.123 155.984 128.698 156.358C128.273 156.732 127.748 156.965 127.124 157.056L127.114 158.332L125.907 158.331Z" fill="url(#paint11_linear_2132_3455)"/>
</g>
<circle cx="195.992" cy="123.322" r="7.82395" fill="url(#paint12_linear_2132_3455)" stroke="url(#paint13_linear_2132_3455)" stroke-width="1.66467"/>
<mask id="mask1_2132_3455" style="mask-type:alpha" maskUnits="userSpaceOnUse" x="190" y="117" width="12" height="12">
<rect x="191.008" y="117.963" width="10.6211" height="10.6211" transform="rotate(0.227027 191.008 117.963)" fill="#D9D9D9"/>
</mask>
<g mask="url(#mask1_2132_3455)">
<path d="M195.713 127.41L195.72 126.454C195.331 126.365 194.996 126.195 194.714 125.943C194.433 125.691 194.228 125.336 194.099 124.877L194.918 124.543C195.026 124.899 195.187 125.169 195.403 125.355C195.619 125.54 195.903 125.632 196.256 125.632C196.558 125.633 196.814 125.564 197.025 125.427C197.236 125.29 197.342 125.077 197.344 124.789C197.346 124.529 197.267 124.324 197.106 124.172C196.945 124.02 196.571 123.848 195.984 123.655C195.353 123.455 194.921 123.216 194.688 122.938C194.454 122.661 194.339 122.322 194.342 121.922C194.346 121.44 194.503 121.066 194.814 120.8C195.125 120.533 195.443 120.382 195.767 120.345L195.774 119.412L196.657 119.412L196.65 120.345C197.017 120.404 197.32 120.54 197.557 120.751C197.795 120.962 197.967 121.219 198.075 121.523L197.256 121.878C197.17 121.641 197.046 121.463 196.885 121.345C196.724 121.226 196.504 121.167 196.224 121.167C195.9 121.167 195.653 121.239 195.483 121.383C195.313 121.528 195.227 121.707 195.225 121.922C195.223 122.166 195.332 122.359 195.552 122.5C195.771 122.641 196.153 122.789 196.696 122.944C197.203 123.093 197.585 123.328 197.844 123.65C198.103 123.972 198.23 124.344 198.227 124.767C198.223 125.292 198.066 125.692 197.755 125.966C197.443 126.24 197.06 126.41 196.603 126.477L196.596 127.41L195.713 127.41Z" fill="url(#paint14_linear_2132_3455)"/>
</g>
<path d="M36.2815 75.4323H35.5135C35.3982 75.4323 35.3047 75.5258 35.3047 75.6411V92.2126C35.3047 92.3279 35.3982 92.4214 35.5135 92.4214H36.2815C36.3968 92.4214 36.4903 92.3279 36.4903 92.2126V75.6411C36.4903 75.5258 36.3968 75.4323 36.2815 75.4323Z" fill="#868787"/>
<path d="M28.3831 85.1186H27.6151C27.4998 85.1186 27.4062 85.2121 27.4062 85.3274V93.553C27.4062 93.6683 27.4998 93.7618 27.6151 93.7618H28.3831C28.4984 93.7618 28.5919 93.6683 28.5919 93.553V85.3274C28.5919 85.2121 28.4984 85.1186 28.3831 85.1186Z" fill="#868787"/>
<path d="M28.3831 78.2202H27.6151C27.4998 78.2202 27.4062 78.3137 27.4062 78.429V83.2025C27.4062 83.3179 27.4998 83.4114 27.6151 83.4114H28.3831C28.4984 83.4114 28.5919 83.3179 28.5919 83.2025V78.429C28.5919 78.3137 28.4984 78.2202 28.3831 78.2202Z" fill="#868787"/>
<path d="M43.1956 82.7252H42.4276C42.3123 82.7252 42.2188 82.8187 42.2188 82.9341V93.9574C42.2188 94.0728 42.3123 94.1663 42.4276 94.1663H43.1956C43.3109 94.1663 43.4044 94.0728 43.4044 93.9574V82.9341C43.4044 82.8187 43.3109 82.7252 43.1956 82.7252Z" fill="#868787"/>
<path d="M43.1956 75.8279H42.4276C42.3123 75.8279 42.2188 75.9214 42.2188 76.0367V80.8103C42.2188 80.9256 42.3123 81.0191 42.4276 81.0191H43.1956C43.3109 81.0191 43.4044 80.9256 43.4044 80.8103V76.0367C43.4044 75.9214 43.3109 75.8279 43.1956 75.8279Z" fill="#868787"/>
<path d="M36.2815 69.0123H35.5135C35.3982 69.0123 35.3047 69.1058 35.3047 69.2212V74.0389C35.3047 74.1543 35.3982 74.2478 35.5135 74.2478H36.2815C36.3968 74.2478 36.4903 74.1543 36.4903 74.0389V69.2212C36.4903 69.1058 36.3968 69.0123 36.2815 69.0123Z" fill="#868787"/>
<circle cx="35.2904" cy="109.496" r="11.5349" transform="rotate(-19.5021 35.2904 109.496)" fill="url(#paint15_linear_2132_3455)" stroke="url(#paint16_linear_2132_3455)" stroke-width="2.45424"/>
<mask id="mask2_2132_3455" style="mask-type:alpha" maskUnits="userSpaceOnUse" x="25" y="99" width="21" height="21">
<rect x="25.7227" y="104.5" width="15.6587" height="15.6587" transform="rotate(-19.2751 25.7227 104.5)" fill="#D9D9D9"/>
</mask>
<g mask="url(#mask2_2132_3455)">
<path d="M36.9108 115.313L36.4507 113.982C35.866 114.05 35.3161 113.978 34.8012 113.767C34.2862 113.555 33.8262 113.162 33.421 112.587L34.3956 111.721C34.7201 112.162 35.0778 112.458 35.4687 112.61C35.8595 112.761 36.3003 112.75 36.7911 112.576C37.2104 112.428 37.5327 112.207 37.7582 111.912C37.9837 111.618 38.0268 111.27 37.8878 110.868C37.7629 110.507 37.5515 110.26 37.2534 110.128C36.9553 109.996 36.3509 109.941 35.4401 109.962C34.4644 109.994 33.7461 109.875 33.2851 109.604C32.8242 109.333 32.4974 108.919 32.3048 108.361C32.073 107.691 32.1076 107.093 32.4087 106.57C32.7098 106.046 33.0764 105.679 33.5085 105.469L33.0592 104.168L34.2863 103.734L34.7356 105.034C35.2754 104.936 35.7623 104.975 36.1963 105.151C36.6303 105.328 36.9971 105.601 37.2967 105.969L36.3328 106.866C36.096 106.58 35.8366 106.394 35.5545 106.308C35.2725 106.222 34.9372 106.248 34.5486 106.386C34.0987 106.545 33.7909 106.767 33.6252 107.052C33.4596 107.336 33.4285 107.628 33.5319 107.927C33.6496 108.268 33.8957 108.482 34.2702 108.569C34.6448 108.657 35.2478 108.675 36.0794 108.624C36.8563 108.581 37.5039 108.719 38.022 109.04C38.5402 109.36 38.9009 109.814 39.1042 110.403C39.3574 111.135 39.3352 111.768 39.0377 112.302C38.7401 112.836 38.2904 113.262 37.6885 113.579L38.1379 114.879L36.9108 115.313Z" fill="url(#paint17_linear_2132_3455)"/>
</g>
<circle cx="209.306" cy="70.2608" r="10.6216" fill="url(#paint18_linear_2132_3455)" stroke="url(#paint19_linear_2132_3455)" stroke-width="2.25991"/>
<path d="M210.012 44.035H209.419C209.33 44.035 209.258 44.1073 209.258 44.1964V57.0016C209.258 57.0908 209.33 57.1631 209.419 57.1631H210.012C210.101 57.1631 210.174 57.0908 210.174 57.0016V44.1964C210.174 44.1073 210.101 44.035 210.012 44.035Z" fill="#868787"/>
<path d="M203.907 51.5193H203.314C203.225 51.5193 203.152 51.5916 203.152 51.6807V58.0363C203.152 58.1254 203.225 58.1977 203.314 58.1977H203.907C203.996 58.1977 204.068 58.1254 204.068 58.0363V51.6807C204.068 51.5916 203.996 51.5193 203.907 51.5193Z" fill="#868787"/>
<path d="M203.907 46.1895H203.314C203.225 46.1895 203.152 46.2617 203.152 46.3509V50.0395C203.152 50.1286 203.225 50.2009 203.314 50.2009H203.907C203.996 50.2009 204.068 50.1286 204.068 50.0395V46.3509C204.068 46.2617 203.996 46.1895 203.907 46.1895Z" fill="#868787"/>
<path d="M215.356 49.6705H214.763C214.674 49.6705 214.602 49.7428 214.602 49.832V58.3502C214.602 58.4394 214.674 58.5117 214.763 58.5117H215.356C215.445 58.5117 215.517 58.4394 215.517 58.3502V49.832C215.517 49.7428 215.445 49.6705 215.356 49.6705Z" fill="#868787"/>
<path d="M215.356 44.3408H214.763C214.674 44.3408 214.602 44.413 214.602 44.5022V48.1908C214.602 48.2799 214.674 48.3522 214.763 48.3522H215.356C215.445 48.3522 215.517 48.2799 215.517 48.1908V44.5022C215.517 44.413 215.445 44.3408 215.356 44.3408Z" fill="#868787"/>
<path d="M210.012 39.0741H209.419C209.33 39.0741 209.258 39.1464 209.258 39.2355V42.9578C209.258 43.0469 209.33 43.1192 209.419 43.1192H210.012C210.101 43.1192 210.174 43.0469 210.174 42.9578V39.2355C210.174 39.1464 210.101 39.0741 210.012 39.0741Z" fill="#868787"/>
<path d="M209.155 68.758C209.59 68.758 209.938 68.8683 210.197 69.0881C210.457 69.3035 210.6 69.5959 210.626 69.965H209.742C209.729 69.82 209.667 69.7058 209.558 69.6223C209.452 69.5343 209.309 69.4904 209.129 69.4904C208.962 69.4904 208.833 69.5208 208.74 69.5822C208.652 69.6438 208.608 69.7301 208.608 69.84C208.609 69.9629 208.67 70.0574 208.793 70.1232C208.916 70.1847 209.107 70.2488 209.366 70.3146C209.63 70.3806 209.848 70.4484 210.02 70.5187C210.191 70.5891 210.338 70.6995 210.461 70.8488C210.588 70.9938 210.654 71.1873 210.658 71.4289C210.658 71.6398 210.599 71.8293 210.48 71.9963C210.366 72.1631 210.199 72.2952 209.979 72.3918C209.764 72.484 209.512 72.5294 209.222 72.5295C208.923 72.5295 208.654 72.4768 208.417 72.3713C208.18 72.2614 207.99 72.1145 207.85 71.9299C207.713 71.7453 207.639 71.5407 207.626 71.3166H208.556C208.573 71.4573 208.641 71.5739 208.76 71.6662C208.883 71.7585 209.035 71.8049 209.215 71.8049C209.39 71.8048 209.526 71.7695 209.623 71.6994C209.724 71.6291 209.775 71.5387 209.775 71.4289C209.775 71.3103 209.714 71.2224 209.591 71.1652C209.472 71.1037 209.28 71.0373 209.017 70.967C208.744 70.9011 208.52 70.8331 208.345 70.7629C208.173 70.6925 208.023 70.5847 207.896 70.4396C207.773 70.2946 207.711 70.0988 207.711 69.8527C207.711 69.6506 207.769 69.466 207.883 69.299C208.001 69.132 208.168 69.0002 208.384 68.9035C208.604 68.8068 208.861 68.758 209.155 68.758ZM207.149 68.6135H205.924V72.4709H205V68.6135H203.773V67.8683H207.149V68.6135ZM212.34 69.2726C212.459 69.1145 212.617 68.9914 212.814 68.9035C213.012 68.8112 213.232 68.7648 213.474 68.7648C213.75 68.7648 213.997 68.8264 214.212 68.9494C214.427 69.0681 214.594 69.2463 214.713 69.4836C214.836 69.7165 214.897 69.9978 214.897 70.3273V72.4709H213.975V70.4533C213.975 70.1632 213.902 69.9411 213.757 69.7873C213.612 69.6291 213.414 69.5501 213.164 69.55C212.909 69.55 212.706 69.629 212.557 69.7873C212.412 69.9411 212.34 70.1634 212.34 70.4533V72.4709H211.416V67.591H212.34V69.2726Z" fill="url(#paint20_linear_2132_3455)"/>
<circle cx="7.31346" cy="7.31346" r="7.31346" transform="matrix(-1 0 0 1 40.4492 145.126)" fill="url(#paint21_linear_2132_3455)"/>
<circle cx="4.06303" cy="4.06303" r="4.06303" transform="matrix(-1 0 0 1 20.125 137)" fill="url(#paint22_linear_2132_3455)"/>
<circle cx="216.313" cy="154.439" r="7.31346" fill="url(#paint23_linear_2132_3455)"/>
<circle cx="233.387" cy="143.063" r="4.06303" fill="url(#paint24_linear_2132_3455)"/>
<path d="M150 67.9999V70.1249H150.213C150.702 72.5248 152.006 74.6818 153.904 76.2307C155.801 77.7797 158.176 78.6254 160.625 78.6249V74.3749C159.024 74.378 157.481 73.7789 156.302 72.6966C155.123 71.6143 154.394 70.128 154.26 68.533C154.126 66.938 154.597 65.351 155.58 64.0874C156.562 62.8237 157.984 61.9758 159.562 61.7121V65.5944L168.706 59.4999L159.562 53.4033V57.4281C156.942 57.6915 154.512 58.919 152.745 60.8724C150.978 62.8258 150 65.3659 150 67.9999ZM184 67.9999V65.8749H183.787C183.298 63.475 181.994 61.3181 180.096 59.7692C178.199 58.2202 175.824 57.3744 173.375 57.3749H171.25V61.6249H173.375C174.976 61.6219 176.519 62.221 177.698 63.3033C178.877 64.3856 179.606 65.8719 179.74 67.4669C179.874 69.0619 179.403 70.6489 178.42 71.9125C177.438 73.1762 176.016 74.0241 174.438 74.2878V70.4012L165.294 76.4999L174.438 82.5944V78.5718C177.058 78.3084 179.488 77.0809 181.255 75.1275C183.022 73.1741 184 70.6339 184 67.9999Z" fill="url(#paint25_linear_2132_3455)"/>
<defs>
<linearGradient id="paint0_linear_2132_3455" x1="151.524" y1="108.356" x2="188.517" y2="121.596" gradientUnits="userSpaceOnUse">
<stop stop-color="#B6BCB9"/>
<stop offset="1" stop-color="#6A6B6F"/>
</linearGradient>
<linearGradient id="paint1_linear_2132_3455" x1="190.098" y1="115.071" x2="227.091" y2="128.31" gradientUnits="userSpaceOnUse">
<stop stop-color="#B6BCB9"/>
<stop offset="1" stop-color="#6A6B6F"/>
</linearGradient>
<linearGradient id="paint2_linear_2132_3455" x1="95.1684" y1="28.7917" x2="95.1684" y2="61.4234" gradientUnits="userSpaceOnUse">
<stop stop-color="#C1C7C4"/>
<stop offset="0.471154" stop-color="#717276"/>
<stop offset="1" stop-color="#6A6B6F"/>
</linearGradient>
<linearGradient id="paint3_linear_2132_3455" x1="94.5099" y1="34.3769" x2="94.5099" y2="60.1304" gradientUnits="userSpaceOnUse">
<stop stop-color="#C1C7C4"/>
<stop offset="1" stop-color="#6A6B6F"/>
</linearGradient>
<linearGradient id="paint4_linear_2132_3455" x1="35.3398" y1="167.345" x2="216.049" y2="167.345" gradientUnits="userSpaceOnUse">
<stop stop-color="#B4BAB8"/>
<stop offset="0.554493" stop-color="#8E9293"/>
<stop offset="1" stop-color="#707275"/>
</linearGradient>
<linearGradient id="paint5_linear_2132_3455" x1="78.6047" y1="49.4347" x2="78.6047" y2="165" gradientUnits="userSpaceOnUse">
<stop stop-color="#C2C2C2"/>
<stop offset="1" stop-color="#6C6D71"/>
</linearGradient>
<linearGradient id="paint6_linear_2132_3455" x1="78.6006" y1="51.5306" x2="78.6006" y2="162.905" gradientUnits="userSpaceOnUse">
<stop stop-color="#717276"/>
<stop offset="1" stop-color="#B1B7B5"/>
</linearGradient>
<linearGradient id="paint7_linear_2132_3455" x1="78.0187" y1="54.1425" x2="78.0187" y2="151.283" gradientUnits="userSpaceOnUse">
<stop stop-color="#BFC5C2"/>
<stop offset="1" stop-color="#6C6E71"/>
</linearGradient>
<linearGradient id="paint8_linear_2132_3455" x1="78.0055" y1="96.3593" x2="78.0055" y2="115.086" gradientUnits="userSpaceOnUse">
<stop stop-color="#909090"/>
<stop offset="1" stop-color="#626266"/>
</linearGradient>
<linearGradient id="paint9_linear_2132_3455" x1="122.653" y1="142.958" x2="126.294" y2="164.577" gradientUnits="userSpaceOnUse">
<stop stop-color="#D9D9D9"/>
<stop offset="1" stop-color="#42454C"/>
</linearGradient>
<linearGradient id="paint10_linear_2132_3455" x1="126.294" y1="140.91" x2="126.294" y2="164.577" gradientUnits="userSpaceOnUse">
<stop stop-color="#BEC3C1"/>
<stop offset="1" stop-color="#666666"/>
</linearGradient>
<linearGradient id="paint11_linear_2132_3455" x1="126.579" y1="147.398" x2="126.576" y2="158.332" gradientUnits="userSpaceOnUse">
<stop stop-color="white"/>
<stop offset="1" stop-color="#999999"/>
</linearGradient>
<linearGradient id="paint12_linear_2132_3455" x1="193.329" y1="116.164" x2="195.992" y2="131.978" gradientUnits="userSpaceOnUse">
<stop stop-color="#D9D9D9"/>
<stop offset="1" stop-color="#42454C"/>
</linearGradient>
<linearGradient id="paint13_linear_2132_3455" x1="195.992" y1="114.666" x2="195.992" y2="131.978" gradientUnits="userSpaceOnUse">
<stop stop-color="#BEC3C1"/>
<stop offset="1" stop-color="#666666"/>
</linearGradient>
<linearGradient id="paint14_linear_2132_3455" x1="196.204" y1="119.412" x2="196.202" y2="127.41" gradientUnits="userSpaceOnUse">
<stop stop-color="white"/>
<stop offset="1" stop-color="#999999"/>
</linearGradient>
<linearGradient id="paint15_linear_2132_3455" x1="31.3636" y1="98.9425" x2="35.2904" y2="122.258" gradientUnits="userSpaceOnUse">
<stop stop-color="#D9D9D9"/>
<stop offset="1" stop-color="#42454C"/>
</linearGradient>
<linearGradient id="paint16_linear_2132_3455" x1="35.2904" y1="96.7337" x2="35.2904" y2="122.258" gradientUnits="userSpaceOnUse">
<stop stop-color="#BEC3C1"/>
<stop offset="1" stop-color="#666666"/>
</linearGradient>
<linearGradient id="paint17_linear_2132_3455" x1="33.6574" y1="103.957" x2="37.5909" y2="115.073" gradientUnits="userSpaceOnUse">
<stop stop-color="white"/>
<stop offset="1" stop-color="#999999"/>
</linearGradient>
<linearGradient id="paint18_linear_2132_3455" x1="205.69" y1="60.5432" x2="209.306" y2="82.0123" gradientUnits="userSpaceOnUse">
<stop stop-color="#D9D9D9"/>
<stop offset="1" stop-color="#42454C"/>
</linearGradient>
<linearGradient id="paint19_linear_2132_3455" x1="209.306" y1="58.5093" x2="209.306" y2="82.0123" gradientUnits="userSpaceOnUse">
<stop stop-color="#BEC3C1"/>
<stop offset="1" stop-color="#666666"/>
</linearGradient>
<linearGradient id="paint20_linear_2132_3455" x1="209.335" y1="67.591" x2="209.335" y2="72.5297" gradientUnits="userSpaceOnUse">
<stop stop-color="white"/>
<stop offset="1" stop-color="#999999"/>
</linearGradient>
<linearGradient id="paint21_linear_2132_3455" x1="11.7828" y1="8.74524e-09" x2="4.87564" y2="14.6269" gradientUnits="userSpaceOnUse">
<stop stop-color="#D9D9D9"/>
<stop offset="1" stop-color="#737373"/>
</linearGradient>
<linearGradient id="paint22_linear_2132_3455" x1="6.546" y1="4.85847e-09" x2="2.70869" y2="8.12607" gradientUnits="userSpaceOnUse">
<stop stop-color="#D9D9D9"/>
<stop offset="1" stop-color="#737373"/>
</linearGradient>
<linearGradient id="paint23_linear_2132_3455" x1="220.783" y1="147.126" x2="213.876" y2="161.753" gradientUnits="userSpaceOnUse">
<stop stop-color="#D9D9D9"/>
<stop offset="1" stop-color="#737373"/>
</linearGradient>
<linearGradient id="paint24_linear_2132_3455" x1="235.87" y1="139" x2="232.033" y2="147.126" gradientUnits="userSpaceOnUse">
<stop stop-color="#D9D9D9"/>
<stop offset="1" stop-color="#737373"/>
</linearGradient>
<linearGradient id="paint25_linear_2132_3455" x1="167" y1="53.4033" x2="167" y2="82.5944" gradientUnits="userSpaceOnUse">
<stop stop-color="#D0D0D1"/>
<stop offset="1" stop-color="#5D6066"/>
</linearGradient>
</defs>
</svg>
