<svg width="240" height="176" viewBox="0 0 240 176" fill="none" xmlns="http://www.w3.org/2000/svg">
<g clip-path="url(#clip0_2078_5407)">
<ellipse cx="119.5" cy="145" rx="95.5" ry="24" fill="url(#paint0_radial_2078_5407)"/>
<g filter="url(#filter0_d_2078_5407)">
<g clip-path="url(#clip1_2078_5407)">
<path d="M92.8917 9.76347C94.2848 3.35564 100.609 -0.709627 107.016 0.683437L166.548 13.6256C169.311 14.2263 171.77 15.7937 173.48 18.0457L177.586 23.4508L180.228 27.1599C182.169 29.8846 182.87 33.3017 182.16 36.5706L159.956 138.705C158.563 145.112 152.239 149.178 145.831 147.785L78.2316 133.089C71.8238 131.695 67.7585 125.372 69.1516 118.964L92.8917 9.76347Z" fill="url(#paint1_linear_2078_5407)"/>
<rect x="133.465" y="28.0342" width="40.8973" height="1.31927" rx="0.659635" transform="rotate(12.2653 133.465 28.0342)" fill="#D9D9D9"/>
<rect x="131.785" y="35.7689" width="40.8973" height="1.31927" rx="0.659635" transform="rotate(12.2653 131.785 35.7689)" fill="#D9D9D9"/>
<rect x="94.0703" y="47.8215" width="75.1983" height="1.31927" rx="0.659635" transform="rotate(12.2653 94.0703 47.8215)" fill="#D9D9D9"/>
<rect x="92.1094" y="56.8456" width="75.1983" height="1.31927" rx="0.659635" transform="rotate(12.2653 92.1094 56.8456)" fill="#D9D9D9"/>
<rect x="90.1484" y="65.8698" width="75.1983" height="1.31927" rx="0.659635" transform="rotate(12.2653 90.1484 65.8698)" fill="#D9D9D9"/>
<rect x="88.1836" y="74.8938" width="75.1983" height="1.31927" rx="0.659635" transform="rotate(12.2653 88.1836 74.8938)" fill="#D9D9D9"/>
<rect x="86.2227" y="83.9179" width="75.1983" height="1.31927" rx="0.659635" transform="rotate(12.2653 86.2227 83.9179)" fill="#D9D9D9"/>
<rect x="84.2617" y="92.942" width="75.1983" height="1.31927" rx="0.659635" transform="rotate(12.2653 84.2617 92.942)" fill="#D9D9D9"/>
<rect x="82.3008" y="101.966" width="75.1983" height="1.31927" rx="0.659635" transform="rotate(12.2653 82.3008 101.966)" fill="#D9D9D9"/>
<rect x="80.3359" y="110.99" width="75.1983" height="1.31927" rx="0.659635" transform="rotate(12.2653 80.3359 110.99)" fill="#D9D9D9"/>
<rect x="78.375" y="120.014" width="75.1983" height="1.31927" rx="0.659635" transform="rotate(12.2653 78.375 120.014)" fill="#D9D9D9"/>
<rect x="105.926" y="12.6746" width="26.4747" height="31.2436" transform="rotate(13.2664 105.926 12.6746)" fill="#42454C"/>
<path d="M105.65 34.7397C106.743 30.306 111.223 27.5978 115.657 28.6907C119.889 29.7339 122.474 34.0105 121.431 38.2426L119.932 44.325L104.241 40.4572L105.65 34.7397Z" fill="url(#paint2_linear_2078_5407)"/>
<circle cx="116.047" cy="22.7747" r="3.95781" transform="rotate(20.3302 116.047 22.7747)" fill="#939394"/>
<path d="M168.75 9.82837L177.293 22.4863L185.537 35.0792L165.555 30.7351C164.843 30.5804 164.391 29.8777 164.546 29.1657L168.75 9.82837Z" fill="#42454C"/>
</g>
</g>
<circle cx="50.9011" cy="60.1606" r="17.0837" fill="url(#paint3_linear_2078_5407)" stroke="url(#paint4_linear_2078_5407)" stroke-width="3.63483"/>
<path d="M52.0336 17.9791H51.08C50.9366 17.9791 50.8203 18.0954 50.8203 18.2388V38.8347C50.8203 38.9781 50.9366 39.0943 51.08 39.0943H52.0336C52.177 39.0943 52.2933 38.9781 52.2933 38.8347V18.2388C52.2933 18.0954 52.177 17.9791 52.0336 17.9791Z" fill="#868787"/>
<path d="M42.2133 30.0168H41.2597C41.1163 30.0168 41 30.1331 41 30.2765V40.4988C41 40.6422 41.1163 40.7584 41.2597 40.7584H42.2133C42.3567 40.7584 42.473 40.6422 42.473 40.4988V30.2765C42.473 30.1331 42.3567 30.0168 42.2133 30.0168Z" fill="#868787"/>
<path d="M42.2133 21.4443H41.2597C41.1163 21.4443 41 21.5606 41 21.704V27.6367C41 27.7801 41.1163 27.8964 41.2597 27.8964H42.2133C42.3567 27.8964 42.473 27.7801 42.473 27.6367V21.704C42.473 21.5606 42.3567 21.4443 42.2133 21.4443Z" fill="#868787"/>
<path d="M60.6273 27.0433H59.6737C59.5303 27.0433 59.4141 27.1596 59.4141 27.303V41.0038C59.4141 41.1472 59.5303 41.2634 59.6737 41.2634H60.6273C60.7708 41.2634 60.887 41.1472 60.887 41.0038V27.303C60.887 27.1596 60.7708 27.0433 60.6273 27.0433Z" fill="#868787"/>
<path d="M60.6273 18.4709H59.6737C59.5303 18.4709 59.4141 18.5871 59.4141 18.7306V24.6632C59.4141 24.8067 59.5303 24.9229 59.6737 24.9229H60.6273C60.7708 24.9229 60.887 24.8067 60.887 24.6632V18.7306C60.887 18.5871 60.7708 18.4709 60.6273 18.4709Z" fill="#868787"/>
<path d="M52.0336 10H51.08C50.9366 10 50.8203 10.1163 50.8203 10.2597V16.2465C50.8203 16.3899 50.9366 16.5062 51.08 16.5062H52.0336C52.177 16.5062 52.2933 16.3899 52.2933 16.2465V10.2597C52.2933 10.1163 52.177 10 52.0336 10Z" fill="#868787"/>
<path d="M50.6553 57.4716C51.3551 57.4716 51.9139 57.6484 52.3311 58.0018C52.7481 58.3482 52.978 58.8182 53.0205 59.412H51.5996C51.5784 59.1789 51.4793 58.9955 51.3027 58.8612C51.1331 58.7198 50.9032 58.6483 50.6133 58.6483C50.3446 58.6483 50.1358 58.6978 49.9873 58.7968C49.8459 58.8957 49.7754 59.0341 49.7754 59.2108C49.7754 59.4087 49.8744 59.5608 50.0723 59.6669C50.2702 59.7659 50.578 59.8684 50.9951 59.9745C51.4192 60.0805 51.7692 60.1895 52.0449 60.3026C52.3206 60.4157 52.5579 60.5926 52.7559 60.8329C52.9609 61.0662 53.0662 61.3777 53.0732 61.7665C53.0732 62.1058 52.978 62.4099 52.7871 62.6786C52.6033 62.9472 52.3349 63.1598 51.9814 63.3153C51.635 63.4638 51.2283 63.538 50.7617 63.538C50.281 63.538 49.8495 63.4528 49.4678 63.2831C49.0861 63.1063 48.7819 62.869 48.5557 62.5721C48.3367 62.2753 48.2165 61.9462 48.1953 61.5858H49.6904C49.7187 61.8121 49.8286 61.9998 50.0195 62.1483C50.2174 62.2967 50.4612 62.3709 50.751 62.371C51.0338 62.371 51.2536 62.3142 51.4092 62.201C51.5715 62.088 51.6523 61.9431 51.6523 61.7665C51.6523 61.5756 51.5534 61.4345 51.3555 61.3427C51.1646 61.2437 50.8568 61.1374 50.4326 61.0243C49.9945 60.9183 49.6343 60.8083 49.3516 60.6952C49.0758 60.5821 48.8349 60.409 48.6299 60.1757C48.4321 59.9424 48.3331 59.6279 48.333 59.2323C48.333 58.9071 48.4256 58.6094 48.6094 58.3407C48.8002 58.0723 49.0688 57.8604 49.415 57.705C49.7684 57.5495 50.1818 57.4716 50.6553 57.4716ZM47.4307 57.2382H45.458V63.4423H43.9727V57.2382H42V56.0399H47.4307V57.2382ZM55.7773 58.2987C55.9682 58.0442 56.2229 57.8463 56.541 57.705C56.8591 57.5565 57.2128 57.4823 57.6016 57.4823C58.0469 57.4823 58.4427 57.5813 58.7891 57.7792C59.1353 57.97 59.4039 58.2561 59.5947 58.6376C59.7927 59.0123 59.8916 59.4657 59.8916 59.996V63.4423H58.4072V60.1971C58.4072 59.7306 58.2908 59.3733 58.0576 59.1259C57.8243 58.8713 57.5055 58.744 57.1025 58.744C56.6926 58.7441 56.3673 58.8714 56.127 59.1259C55.8937 59.3733 55.7773 59.7306 55.7773 60.1971V63.4423H54.292V55.5946H55.7773V58.2987Z" fill="url(#paint5_linear_2078_5407)"/>
<path d="M187.281 13.4199H186.514C186.398 13.4199 186.305 13.5134 186.305 13.6288V30.2003C186.305 30.3156 186.398 30.4091 186.514 30.4091H187.281C187.397 30.4091 187.49 30.3156 187.49 30.2003V13.6288C187.49 13.5134 187.397 13.4199 187.281 13.4199Z" fill="#868787"/>
<path d="M179.383 23.1063H178.615C178.5 23.1063 178.406 23.1998 178.406 23.3151V31.5406C178.406 31.656 178.5 31.7495 178.615 31.7495H179.383C179.498 31.7495 179.592 31.656 179.592 31.5406V23.3151C179.592 23.1998 179.498 23.1063 179.383 23.1063Z" fill="#868787"/>
<path d="M179.383 16.2078H178.615C178.5 16.2078 178.406 16.3013 178.406 16.4167V21.1902C178.406 21.3056 178.5 21.3991 178.615 21.3991H179.383C179.498 21.3991 179.592 21.3056 179.592 21.1902V16.4167C179.592 16.3013 179.498 16.2078 179.383 16.2078Z" fill="#868787"/>
<path d="M194.196 20.7129H193.428C193.312 20.7129 193.219 20.8064 193.219 20.9217V31.9451C193.219 32.0604 193.312 32.1539 193.428 32.1539H194.196C194.311 32.1539 194.404 32.0604 194.404 31.9451V20.9217C194.404 20.8064 194.311 20.7129 194.196 20.7129Z" fill="#868787"/>
<path d="M194.196 13.8156H193.428C193.312 13.8156 193.219 13.909 193.219 14.0244V18.7979C193.219 18.9133 193.312 19.0068 193.428 19.0068H194.196C194.311 19.0068 194.404 18.9133 194.404 18.7979V14.0244C194.404 13.909 194.311 13.8156 194.196 13.8156Z" fill="#868787"/>
<path d="M187.281 7H186.514C186.398 7 186.305 7.0935 186.305 7.20884V12.0266C186.305 12.1419 186.398 12.2354 186.514 12.2354H187.281C187.397 12.2354 187.49 12.1419 187.49 12.0266V7.20884C187.49 7.0935 187.397 7 187.281 7Z" fill="#868787"/>
<circle cx="186.29" cy="47.4834" r="11.5349" transform="rotate(-19.5021 186.29 47.4834)" fill="url(#paint6_linear_2078_5407)" stroke="url(#paint7_linear_2078_5407)" stroke-width="2.45424"/>
<mask id="mask0_2078_5407" style="mask-type:alpha" maskUnits="userSpaceOnUse" x="176" y="37" width="21" height="21">
<rect x="176.723" y="42.4881" width="15.6587" height="15.6587" transform="rotate(-19.2751 176.723 42.4881)" fill="#D9D9D9"/>
</mask>
<g mask="url(#mask0_2078_5407)">
<path d="M187.911 53.3009L187.451 51.9697C186.866 52.0377 186.316 51.9659 185.801 51.7543C185.286 51.5428 184.826 51.1497 184.421 50.575L185.396 49.709C185.72 50.15 186.078 50.4462 186.469 50.5974C186.859 50.7486 187.3 50.7374 187.791 50.5637C188.21 50.4154 188.533 50.1942 188.758 49.9001C188.984 49.6061 189.027 49.2579 188.888 48.8554C188.763 48.4942 188.551 48.2477 188.253 48.1157C187.955 47.9838 187.351 47.9284 186.44 47.9496C185.464 47.9821 184.746 47.8628 184.285 47.5916C183.824 47.3204 183.497 46.9062 183.305 46.349C183.073 45.6782 183.108 45.0811 183.409 44.5576C183.71 44.0341 184.076 43.667 184.509 43.4562L184.059 42.1559L185.286 41.7217L185.736 43.022C186.275 42.9236 186.762 42.9627 187.196 43.1392C187.63 43.3157 187.997 43.5883 188.297 43.9571L187.333 44.8541C187.096 44.5673 186.837 44.3812 186.555 44.2957C186.272 44.2102 185.937 44.2362 185.549 44.3737C185.099 44.5329 184.791 44.7547 184.625 45.0392C184.46 45.3236 184.428 45.6155 184.532 45.9148C184.65 46.2553 184.896 46.4693 185.27 46.5568C185.645 46.6444 186.248 46.6626 187.079 46.6115C187.856 46.5682 188.504 46.7068 189.022 47.0273C189.54 47.3477 189.901 47.802 190.104 48.3902C190.357 49.1229 190.335 49.7561 190.038 50.2899C189.74 50.8237 189.29 51.2492 188.689 51.5665L189.138 52.8667L187.911 53.3009Z" fill="url(#paint8_linear_2078_5407)"/>
</g>
<circle cx="59.1476" cy="110.817" r="6.33014" fill="url(#paint9_linear_2078_5407)" stroke="url(#paint10_linear_2078_5407)" stroke-width="3.63483"/>
<path d="M59.7534 88.2325H59.2471C59.171 88.2325 59.1094 88.2941 59.1094 88.3702V99.2953C59.1094 99.3713 59.171 99.433 59.2471 99.433H59.7534C59.8294 99.433 59.891 99.3713 59.891 99.2953V88.3702C59.891 88.2941 59.8294 88.2325 59.7534 88.2325Z" fill="#868787"/>
<path d="M54.5463 94.6184H54.04C53.964 94.6184 53.9023 94.6801 53.9023 94.7561V100.179C53.9023 100.255 53.964 100.317 54.04 100.317H54.5463C54.6224 100.317 54.684 100.255 54.684 100.179V94.7561C54.684 94.6801 54.6224 94.6184 54.5463 94.6184Z" fill="#868787"/>
<path d="M54.5463 90.0704H54.04C53.964 90.0704 53.9023 90.1321 53.9023 90.2081V93.3552C53.9023 93.4312 53.964 93.4929 54.04 93.4929H54.5463C54.6224 93.4929 54.684 93.4312 54.684 93.3552V90.2081C54.684 90.1321 54.6224 90.0704 54.5463 90.0704Z" fill="#868787"/>
<path d="M64.312 93.0405H63.8057C63.7296 93.0405 63.668 93.1022 63.668 93.1782V100.446C63.668 100.522 63.7296 100.583 63.8057 100.583H64.312C64.388 100.583 64.4496 100.522 64.4496 100.446V93.1782C64.4496 93.1022 64.388 93.0405 64.312 93.0405Z" fill="#868787"/>
<path d="M64.312 88.4933H63.8057C63.7296 88.4933 63.668 88.5549 63.668 88.631V91.778C63.668 91.8541 63.7296 91.9157 63.8057 91.9157H64.312C64.388 91.9157 64.4496 91.8541 64.4496 91.778V88.631C64.4496 88.5549 64.388 88.4933 64.312 88.4933Z" fill="#868787"/>
<path d="M59.7534 84H59.2471C59.171 84 59.1094 84.0616 59.1094 84.1377V87.3139C59.1094 87.3899 59.171 87.4516 59.2471 87.4516H59.7534C59.8294 87.4516 59.891 87.3899 59.891 87.3139V84.1377C59.891 84.0616 59.8294 84 59.7534 84Z" fill="#868787"/>
<g filter="url(#filter1_d_2078_5407)">
<path d="M82.1938 44.902C83.6332 44.5906 84.9905 44.8393 86.2656 45.6469C87.5568 46.451 88.3604 47.5808 88.6753 49.0363C88.8887 50.0229 88.8322 50.9755 88.5058 51.8926C88.1955 52.8059 87.6885 53.5928 86.985 54.2528C86.2939 54.8932 85.4626 55.3184 84.4923 55.5283C83.0367 55.8431 81.6717 55.5962 80.3966 54.7886C79.1215 53.9808 78.3221 52.8332 78.0003 51.3453C77.6855 49.8898 77.9427 48.5305 78.77 47.2681C79.5973 46.0059 80.7384 45.2168 82.1938 44.902ZM74.6241 4.38433C77.713 3.71624 80.5476 3.67038 83.127 4.24673C85.7223 4.8196 87.8919 5.96695 89.6356 7.68881C91.392 9.39126 92.5658 11.6095 93.157 14.3428C93.5558 16.1865 93.6138 17.9009 93.3302 19.4859C93.0628 21.0674 92.5097 22.5418 91.671 23.9083C90.8323 25.2747 89.7653 26.5637 88.4698 27.775C87.3347 28.867 86.4404 29.9405 85.7883 30.9957C85.1525 32.0474 84.7606 33.2075 84.6116 34.4755C84.4753 35.7239 84.584 37.2071 84.9386 38.9249L85.075 39.5558L76.9972 41.303L76.8607 40.6721C76.2437 37.7413 76.0148 35.3528 76.1742 33.5068C76.3498 31.6575 76.8255 30.0991 77.6007 28.831C78.3726 27.5467 79.382 26.3035 80.629 25.1026C81.4825 24.2748 82.2188 23.4133 82.8375 22.5178C83.4691 21.6024 83.9132 20.6424 84.1702 19.6387C84.4236 18.6189 84.4282 17.5428 84.1833 16.4106C83.907 15.133 83.3676 14.09 82.5663 13.2814C81.7651 12.473 80.7994 11.9202 79.6688 11.6231C78.5541 11.3224 77.3738 11.3062 76.1285 11.5755C74.9803 11.8238 73.9429 12.3109 73.0163 13.036C72.1025 13.7415 71.4139 14.6691 70.9515 15.8186C70.5018 16.9486 70.4012 18.2829 70.6491 19.8206L62.0119 21.6888C61.4282 18.5985 61.6167 15.8662 62.5759 13.4917C63.5513 11.1138 65.0913 9.15535 67.1961 7.61656C69.3174 6.07424 71.7937 4.99651 74.6241 4.38433Z" fill="url(#paint11_linear_2078_5407)"/>
</g>
<path d="M171.174 106.209C170.386 104.823 170.82 103.061 172.163 102.201L173.286 101.481C174.621 100.626 176.391 100.957 177.327 102.237L194.164 125.274C195.151 126.623 194.844 128.518 193.483 129.488L189.731 132.162C188.283 133.193 186.261 132.747 185.382 131.201L171.174 106.209Z" fill="url(#paint12_linear_2078_5407)"/>
<circle cx="162" cy="86" r="23.5" fill="url(#paint13_linear_2078_5407)" stroke="url(#paint14_linear_2078_5407)" stroke-width="5"/>
<circle cx="207.31" cy="121.439" r="7.31346" fill="url(#paint15_linear_2078_5407)"/>
<circle cx="224.383" cy="110.063" r="4.06303" fill="url(#paint16_linear_2078_5407)"/>
<circle cx="7.31346" cy="7.31346" r="7.31346" transform="matrix(-1 0 0 1 38.4492 116.126)" fill="url(#paint17_linear_2078_5407)"/>
<circle cx="4.06303" cy="4.06303" r="4.06303" transform="matrix(-1 0 0 1 18.125 108)" fill="url(#paint18_linear_2078_5407)"/>
</g>
<defs>
<filter id="filter0_d_2078_5407" x="61.3791" y="-2" width="130.195" height="162.917" filterUnits="userSpaceOnUse" color-interpolation-filters="sRGB">
<feFlood flood-opacity="0" result="BackgroundImageFix"/>
<feColorMatrix in="SourceAlpha" type="matrix" values="0 0 0 0 0 0 0 0 0 0 0 0 0 0 0 0 0 0 127 0" result="hardAlpha"/>
<feOffset dy="5.62087"/>
<feGaussianBlur stdDeviation="2.81043"/>
<feComposite in2="hardAlpha" operator="out"/>
<feColorMatrix type="matrix" values="0 0 0 0 0 0 0 0 0 0 0 0 0 0 0 0 0 0 0.25 0"/>
<feBlend mode="normal" in2="BackgroundImageFix" result="effect1_dropShadow_2078_5407"/>
<feBlend mode="normal" in="SourceGraphic" in2="effect1_dropShadow_2078_5407" result="shape"/>
</filter>
<filter id="filter1_d_2078_5407" x="57.6797" y="3.84631" width="39.8281" height="59.8143" filterUnits="userSpaceOnUse" color-interpolation-filters="sRGB">
<feFlood flood-opacity="0" result="BackgroundImageFix"/>
<feColorMatrix in="SourceAlpha" type="matrix" values="0 0 0 0 0 0 0 0 0 0 0 0 0 0 0 0 0 0 127 0" result="hardAlpha"/>
<feOffset dy="4"/>
<feGaussianBlur stdDeviation="2"/>
<feComposite in2="hardAlpha" operator="out"/>
<feColorMatrix type="matrix" values="0 0 0 0 0 0 0 0 0 0 0 0 0 0 0 0 0 0 0.25 0"/>
<feBlend mode="normal" in2="BackgroundImageFix" result="effect1_dropShadow_2078_5407"/>
<feBlend mode="normal" in="SourceGraphic" in2="effect1_dropShadow_2078_5407" result="shape"/>
</filter>
<radialGradient id="paint0_radial_2078_5407" cx="0" cy="0" r="1" gradientUnits="userSpaceOnUse" gradientTransform="translate(119.5 145) scale(95.5 24)">
<stop stop-color="#BEC4C1"/>
<stop offset="1" stop-color="#6F7074"/>
</radialGradient>
<linearGradient id="paint1_linear_2078_5407" x1="140.816" y1="8.03148" x2="112.031" y2="140.437" gradientUnits="userSpaceOnUse">
<stop stop-color="#959595"/>
<stop offset="1" stop-color="#606064"/>
</linearGradient>
<linearGradient id="paint2_linear_2078_5407" x1="111.748" y1="26.809" x2="121.184" y2="50.7053" gradientUnits="userSpaceOnUse">
<stop stop-color="#AEAEAE"/>
<stop offset="1" stop-color="#6A6A6D"/>
</linearGradient>
<linearGradient id="paint3_linear_2078_5407" x1="45.0854" y1="44.5309" x2="50.9011" y2="79.0618" gradientUnits="userSpaceOnUse">
<stop stop-color="#D9D9D9"/>
<stop offset="1" stop-color="#42454C"/>
</linearGradient>
<linearGradient id="paint4_linear_2078_5407" x1="50.9011" y1="41.2595" x2="50.9011" y2="79.0618" gradientUnits="userSpaceOnUse">
<stop stop-color="#BEC3C1"/>
<stop offset="1" stop-color="#666666"/>
</linearGradient>
<linearGradient id="paint5_linear_2078_5407" x1="50.9458" y1="55.5946" x2="50.9458" y2="63.538" gradientUnits="userSpaceOnUse">
<stop stop-color="white"/>
<stop offset="1" stop-color="#999999"/>
</linearGradient>
<linearGradient id="paint6_linear_2078_5407" x1="182.364" y1="36.9301" x2="186.29" y2="60.2454" gradientUnits="userSpaceOnUse">
<stop stop-color="#D9D9D9"/>
<stop offset="1" stop-color="#42454C"/>
</linearGradient>
<linearGradient id="paint7_linear_2078_5407" x1="186.29" y1="34.7213" x2="186.29" y2="60.2454" gradientUnits="userSpaceOnUse">
<stop stop-color="#BEC3C1"/>
<stop offset="1" stop-color="#666666"/>
</linearGradient>
<linearGradient id="paint8_linear_2078_5407" x1="184.657" y1="41.9442" x2="188.591" y2="53.0603" gradientUnits="userSpaceOnUse">
<stop stop-color="white"/>
<stop offset="1" stop-color="#999999"/>
</linearGradient>
<linearGradient id="paint9_linear_2078_5407" x1="56.6406" y1="104.08" x2="59.1476" y2="118.965" gradientUnits="userSpaceOnUse">
<stop stop-color="#D9D9D9"/>
<stop offset="1" stop-color="#42454C"/>
</linearGradient>
<linearGradient id="paint10_linear_2078_5407" x1="59.1476" y1="102.67" x2="59.1476" y2="118.965" gradientUnits="userSpaceOnUse">
<stop stop-color="#BEC3C1"/>
<stop offset="1" stop-color="#666666"/>
</linearGradient>
<linearGradient id="paint11_linear_2078_5407" x1="74.6355" y1="4.38185" x2="85.6443" y2="55.2791" gradientUnits="userSpaceOnUse">
<stop stop-color="#BDC3C0"/>
<stop offset="1" stop-color="#6D6E72"/>
</linearGradient>
<linearGradient id="paint12_linear_2078_5407" x1="187.561" y1="111.041" x2="177.55" y2="117.523" gradientUnits="userSpaceOnUse">
<stop stop-color="#BCC1BF"/>
<stop offset="1" stop-color="#696A69"/>
</linearGradient>
<linearGradient id="paint13_linear_2078_5407" x1="154" y1="64.5" x2="162" y2="112" gradientUnits="userSpaceOnUse">
<stop stop-color="#D9D9D9"/>
<stop offset="1" stop-color="#42454C"/>
</linearGradient>
<linearGradient id="paint14_linear_2078_5407" x1="162" y1="60" x2="162" y2="112" gradientUnits="userSpaceOnUse">
<stop stop-color="#BEC3C1"/>
<stop offset="1" stop-color="#666666"/>
</linearGradient>
<linearGradient id="paint15_linear_2078_5407" x1="211.779" y1="114.126" x2="204.872" y2="128.753" gradientUnits="userSpaceOnUse">
<stop stop-color="#D9D9D9"/>
<stop offset="1" stop-color="#737373"/>
</linearGradient>
<linearGradient id="paint16_linear_2078_5407" x1="226.866" y1="106" x2="223.029" y2="114.126" gradientUnits="userSpaceOnUse">
<stop stop-color="#D9D9D9"/>
<stop offset="1" stop-color="#737373"/>
</linearGradient>
<linearGradient id="paint17_linear_2078_5407" x1="11.7828" y1="8.74524e-09" x2="4.87564" y2="14.6269" gradientUnits="userSpaceOnUse">
<stop stop-color="#D9D9D9"/>
<stop offset="1" stop-color="#737373"/>
</linearGradient>
<linearGradient id="paint18_linear_2078_5407" x1="6.546" y1="4.85847e-09" x2="2.70869" y2="8.12607" gradientUnits="userSpaceOnUse">
<stop stop-color="#D9D9D9"/>
<stop offset="1" stop-color="#737373"/>
</linearGradient>
<clipPath id="clip0_2078_5407">
<rect width="240" height="176" fill="white"/>
</clipPath>
<clipPath id="clip1_2078_5407">
<rect x="95.7109" y="-2" width="92.3489" height="135.142" rx="12.6469" transform="rotate(12.2653 95.7109 -2)" fill="white"/>
</clipPath>
</defs>
</svg>
