<svg width="260" height="156" viewBox="0 0 260 156" fill="none" xmlns="http://www.w3.org/2000/svg">
<g opacity="0.34" clip-path="url(#clip0_2007_9453)">
<path d="M151.399 55.3605H151.377L145.266 55.2898C144.261 55.2779 143.45 54.4493 143.458 53.4426L143.501 49.6284C141.99 49.2011 140.546 48.5845 139.207 47.7941L136.547 50.6784C136.211 51.0397 135.756 51.2477 135.265 51.2653C134.779 51.2788 134.316 51.1096 133.962 50.7788L129.471 46.633C128.737 45.9518 128.692 44.7945 129.369 44.0529L132.384 40.7984C131.669 39.5149 131.11 38.1472 130.721 36.7301L126.839 36.8062C126.348 36.8118 125.884 36.6379 125.531 36.2988C125.18 35.9612 124.982 35.5068 124.975 35.0182L124.848 28.9147C124.837 28.4283 125.016 27.9661 125.353 27.6142C125.692 27.2604 126.147 27.0603 126.636 27.0507L130.674 26.9674C131.055 25.5302 131.608 24.143 132.318 22.841L129.494 20.0962C129.143 19.7593 128.945 19.3055 128.936 18.8191C128.927 18.3307 129.11 17.8681 129.45 17.5161L133.704 13.1279C134.405 12.4058 135.564 12.3878 136.288 13.0875L139.094 15.8129C140.465 14.9992 141.932 14.3735 143.457 13.9523L143.439 10.0272C143.435 9.01702 144.248 8.19171 145.252 8.18749L151.363 8.15778H151.378C151.861 8.15778 152.316 8.34427 152.66 8.68451C153.008 9.02779 153.2 9.48549 153.202 9.97338L153.22 13.9411C154.734 14.3604 156.193 14.9793 157.561 15.7822L160.343 12.9627C160.684 12.6148 161.14 12.4199 161.626 12.4152H161.645C162.126 12.4152 162.58 12.6007 162.924 12.9389L167.275 17.2307C167.992 17.9397 167.999 19.0987 167.291 19.8152L164.379 22.7678C165.132 24.129 165.71 25.5697 166.098 27.053L170.061 26.995H170.083C171.083 26.995 171.901 27.7976 171.913 28.7945L172.002 34.9059C172.014 35.9151 171.207 36.7458 170.203 36.7577L166.038 36.8158C165.642 38.2558 165.066 39.6523 164.324 40.9702L167.142 43.7878C167.488 44.1322 167.679 44.5906 167.68 45.0785C167.68 45.5657 167.491 46.0234 167.146 46.3686L162.828 50.6934C162.121 51.4047 160.964 51.4087 160.248 50.7015L157.446 47.9024C156.133 48.6573 154.727 49.2407 153.265 49.6373L153.221 53.5528C153.209 54.5541 152.394 55.3603 151.399 55.3603V55.3605ZM139.182 47.4808C139.206 47.4808 139.231 47.4873 139.252 47.5004C140.627 48.3229 142.116 48.9594 143.677 49.3914C143.737 49.4078 143.779 49.4632 143.778 49.5255L143.733 53.4447C143.727 54.2995 144.415 55.0039 145.268 55.0139L151.38 55.0846C152.229 55.0804 152.935 54.4062 152.945 53.5496L152.99 49.5301C152.991 49.4681 153.033 49.4143 153.093 49.3984C154.602 48.9983 156.051 48.3971 157.398 47.6111C157.452 47.5795 157.521 47.5882 157.565 47.6326L160.442 50.5059C161.049 51.1061 162.032 51.1033 162.633 50.4987L166.951 46.1736C167.244 45.8809 167.405 45.492 167.404 45.0788C167.404 44.6644 167.241 44.2752 166.947 43.9827L164.055 41.0907C164.011 41.0465 164.002 40.9789 164.033 40.925C164.806 39.5704 165.4 38.1299 165.798 36.6433C165.814 36.5841 165.868 36.5422 165.929 36.5415L170.199 36.4818C171.051 36.4718 171.737 35.766 171.727 34.9094L171.637 28.798V28.7975C171.627 27.9511 170.932 27.27 170.083 27.27H170.064L165.993 27.3296C165.93 27.3343 165.873 27.2873 165.857 27.226C165.468 25.6956 164.872 24.2104 164.088 22.8116C164.058 22.758 164.067 22.691 164.11 22.6473L167.095 19.6212C167.696 19.013 167.69 18.0284 167.081 17.4263L162.73 13.135C162.435 12.8443 162.054 12.6929 161.629 12.6904C161.216 12.6943 160.829 12.8598 160.54 13.1555L157.681 16.0518C157.636 16.0967 157.566 16.1051 157.512 16.0733C156.109 15.2384 154.606 14.601 153.047 14.1788C152.987 14.1622 152.945 14.1084 152.945 14.0464L152.926 9.97408C152.924 9.55967 152.761 9.17076 152.466 8.87943C152.174 8.59091 151.787 8.43249 151.377 8.43249H151.364L145.252 8.46221C144.401 8.46572 143.711 9.16678 143.714 10.0249L143.733 14.0557C143.733 14.1182 143.691 14.173 143.631 14.1896C142.059 14.6134 140.55 15.2569 139.144 16.1025C139.09 16.1348 139.021 16.1269 138.977 16.0831L136.096 13.2842C135.481 12.6906 134.497 12.7063 133.901 13.3191L129.647 17.7071C129.358 18.0059 129.203 18.3988 129.211 18.8134C129.218 19.2264 129.386 19.6114 129.684 19.8976L132.584 22.7158C132.629 22.7589 132.639 22.8268 132.609 22.8813C131.869 24.2202 131.298 25.6518 130.913 27.1368C130.898 27.1967 130.845 27.2386 130.783 27.24L126.64 27.3254C126.225 27.3336 125.838 27.5037 125.551 27.8039C125.265 28.1028 125.113 28.4949 125.123 28.9077L125.249 35.0123C125.256 35.4274 125.423 35.8133 125.721 36.0992C126.02 36.3866 126.418 36.5455 126.832 36.5298L130.822 36.4517C130.89 36.4589 130.942 36.4921 130.958 36.5539C131.35 38.0183 131.927 39.43 132.672 40.7498C132.701 40.8022 132.693 40.867 132.653 40.9112L129.571 44.2387C128.996 44.8684 129.034 45.8517 129.657 46.4304L134.149 50.5761C134.449 50.8569 134.839 51.0048 135.254 50.9891C135.672 50.9744 136.059 50.7975 136.344 50.4907L139.079 47.5245C139.106 47.4955 139.143 47.4801 139.181 47.4801L139.182 47.4808ZM148.452 41.9177C143.421 41.9177 139.102 38.0812 138.606 32.9707C138.081 27.5435 142.072 22.6992 147.502 22.1718C152.93 21.6462 157.777 25.6376 158.305 31.0645C158.828 36.4956 154.838 41.3434 149.408 41.8711C149.087 41.9022 148.768 41.9174 148.451 41.9174L148.452 41.9177ZM148.459 22.4011C148.151 22.4011 147.841 22.4159 147.528 22.4461C142.25 22.9587 138.37 27.668 138.88 32.9442C139.392 38.2247 144.105 42.1079 149.382 41.5973C154.66 41.0844 158.54 36.3714 158.031 31.0912C157.548 26.1278 153.349 22.4011 148.459 22.4011Z" fill="white"/>
<path d="M166.306 134.861H128.59V151.171H166.306V134.861Z" fill="#20664A"/>
<path d="M166.308 151.308H128.591C128.515 151.308 128.453 151.247 128.453 151.171V134.86C128.453 134.784 128.515 134.723 128.591 134.723H166.308C166.384 134.723 166.445 134.784 166.445 134.86V151.171C166.445 151.247 166.384 151.308 166.308 151.308ZM128.729 151.033H166.17V134.998H128.729V151.033Z" fill="#050505"/>
<path d="M173.359 154.285V159.662H121.535V154.285C121.535 152.566 122.927 151.171 124.645 151.171H170.249C171.968 151.171 173.359 152.566 173.359 154.285Z" fill="#3FB686"/>
<path d="M173.36 159.8H121.536C121.46 159.8 121.398 159.738 121.398 159.662V154.285C121.398 152.492 122.856 151.033 124.647 151.033H170.25C172.041 151.033 173.498 152.492 173.498 154.285V159.662C173.498 159.738 173.436 159.8 173.36 159.8ZM121.674 159.524H173.222V154.285C173.222 152.644 171.889 151.309 170.25 151.309H124.647C123.007 151.309 121.674 152.644 121.674 154.285L121.674 159.524Z" fill="#050505"/>
<path d="M217.444 45.0673V131.576C217.444 133.391 215.974 134.861 214.159 134.861H80.9841C79.169 134.861 77.6992 133.391 77.6992 131.576V45.0673C77.6992 43.2559 79.169 41.7824 80.9841 41.7824H214.16C215.975 41.7824 217.444 43.2557 217.444 45.0673Z" fill="white"/>
<path d="M214.16 134.998H80.985C79.0978 134.998 77.5625 133.463 77.5625 131.576V45.0675C77.5625 43.1801 79.0978 41.6446 80.985 41.6446H214.16C216.048 41.6446 217.583 43.1801 217.583 45.0675V131.576C217.583 133.463 216.048 134.998 214.16 134.998ZM80.985 41.9202C79.2496 41.9202 77.8379 43.3322 77.8379 45.0675V131.576C77.8379 133.311 79.2496 134.723 80.985 134.723H214.16C215.896 134.723 217.308 133.311 217.308 131.576V45.0675C217.308 43.3322 215.896 41.9202 214.16 41.9202H80.985Z" fill="#050505"/>
<path d="M213.529 45.6973H81.6133V54.6206H213.529V45.6973Z" fill="#050505"/>
<path d="M213.53 54.7585H81.6144C81.5383 54.7585 81.4766 54.6967 81.4766 54.6206V45.697C81.4766 45.621 81.5383 45.5592 81.6144 45.5592H213.53C213.606 45.5592 213.668 45.621 213.668 45.697V54.6206C213.668 54.6967 213.606 54.7585 213.53 54.7585ZM81.752 54.483H213.392V45.8349H81.752V54.483Z" fill="#050505"/>
<path d="M213.53 125.725H81.6144C81.5383 125.725 81.4766 125.663 81.4766 125.587V45.697C81.4766 45.621 81.5383 45.5592 81.6144 45.5592H213.53C213.606 45.5592 213.668 45.621 213.668 45.697V125.587C213.668 125.663 213.606 125.725 213.53 125.725ZM81.752 125.45H213.392V45.8349H81.752V125.45Z" fill="#050505"/>
<path d="M198.061 36.4858V111.002C198.061 113.732 195.847 115.965 193.098 115.965H102.041C99.3112 115.965 97.0781 113.732 97.0781 111.002V36.4858C97.0781 33.7562 99.3112 31.5231 102.041 31.5231H193.098C195.847 31.5231 198.061 33.7562 198.061 36.4858Z" fill="#436FD0"/>
<path d="M193.099 116.103H102.041C99.2295 116.103 96.9414 113.815 96.9414 111.002V36.4858C96.9414 33.6736 99.2292 31.3856 102.041 31.3856H193.099C195.912 31.3856 198.2 33.6736 198.2 36.4858V111.002C198.2 113.815 195.912 116.103 193.099 116.103ZM102.041 31.6607C99.3811 31.6607 97.2168 33.825 97.2168 36.4856V111.002C97.2168 113.663 99.3811 115.827 102.041 115.827H193.099C195.76 115.827 197.925 113.663 197.925 111.002V36.4856C197.925 33.825 195.76 31.6607 193.099 31.6607H102.041Z" fill="#050505"/>
<path d="M198.061 36.4858V41.8474H97.0781V36.4858C97.0781 33.7562 99.3112 31.5231 102.041 31.5231H193.098C195.847 31.5231 198.061 33.7562 198.061 36.4858Z" fill="#050505"/>
<path d="M198.062 41.9855H97.0792C97.0032 41.9855 96.9414 41.9237 96.9414 41.8477V36.4858C96.9414 33.6736 99.2292 31.3856 102.041 31.3856H193.099C195.912 31.3856 198.2 33.6736 198.2 36.4858V41.8477C198.2 41.9237 198.138 41.9855 198.062 41.9855ZM97.2171 41.7099H197.925V36.4858C197.925 33.8252 195.76 31.661 193.099 31.661H102.041C99.3811 31.661 97.2168 33.8252 97.2168 36.4858L97.2171 41.7099Z" fill="#050505"/>
<path d="M188.831 52.3337V103.773C188.831 104.972 187.856 105.948 186.656 105.948H108.244C107.042 105.948 106.066 104.973 106.066 103.773V52.3337C106.066 51.1344 107.042 50.1594 108.244 50.1594H186.656C187.856 50.1594 188.831 51.1344 188.831 52.3337Z" fill="#1D4CB5"/>
<path d="M186.658 106.085H108.246C106.969 106.085 105.93 105.048 105.93 103.773V52.3337C105.93 51.0586 106.969 50.0215 108.246 50.0215H186.658C187.933 50.0215 188.97 51.0586 188.97 52.3337V103.773C188.97 105.048 187.933 106.085 186.658 106.085ZM108.246 50.297C107.121 50.297 106.205 51.2107 106.205 52.3337V103.773C106.205 104.896 107.121 105.81 108.246 105.81H186.658C187.781 105.81 188.694 104.896 188.694 103.773V52.3337C188.694 51.2107 187.781 50.297 186.658 50.297H108.246Z" fill="#050505"/>
<path d="M174.815 88.0456V97.8146C174.815 98.7649 174.046 99.5336 173.096 99.5336H123.539C122.589 99.5336 121.816 98.7649 121.816 97.8146V88.0456C121.816 87.0953 122.589 86.3231 123.539 86.3231H173.096C174.046 86.3231 174.815 87.0953 174.815 88.0456Z" fill="#050505"/>
<path d="M173.097 99.6712H123.54C122.514 99.6712 121.68 98.8386 121.68 97.8146V88.0454C121.68 87.0197 122.514 86.1853 123.54 86.1853H173.097C174.121 86.1853 174.954 87.0197 174.954 88.0454V97.8146C174.954 98.8384 174.121 99.6712 173.097 99.6712ZM123.54 86.4609C122.666 86.4609 121.955 87.1716 121.955 88.0456V97.8149C121.955 98.6867 122.666 99.3958 123.54 99.3958H173.097C173.969 99.3958 174.678 98.6865 174.678 97.8149V88.0456C174.678 87.1716 173.969 86.4609 173.097 86.4609H123.54Z" fill="#050505"/>
<path d="M154.457 70.056V73.0514C154.457 77.4979 150.832 81.1029 146.359 81.1029C141.887 81.1029 138.262 77.4983 138.262 73.0514V70.056H154.457Z" fill="#3FB686"/>
<path d="M146.365 81.1858C141.854 81.1858 138.184 77.5368 138.184 73.0514V70.056C138.184 70.0099 138.221 69.973 138.267 69.973C138.313 69.973 138.35 70.0103 138.35 70.056V73.0514C138.35 77.4451 141.946 81.0194 146.365 81.0194C150.784 81.0194 154.379 77.4451 154.379 73.0514V70.056C154.379 70.0099 154.417 69.973 154.463 69.973C154.508 69.973 154.546 70.0103 154.546 70.056V73.0514C154.546 77.5368 150.876 81.1858 146.365 81.1858Z" fill="black"/>
<path d="M146.359 78.1075C150.832 78.1075 154.457 74.5027 154.457 70.0561C154.457 65.6094 150.832 62.0046 146.359 62.0046C141.887 62.0046 138.262 65.6094 138.262 70.0561C138.262 74.5027 141.887 78.1075 146.359 78.1075Z" fill="#436FD0"/>
<path d="M146.365 78.1905C141.854 78.1905 138.184 74.5415 138.184 70.0561C138.184 65.5707 141.854 61.9216 146.365 61.9216C150.876 61.9216 154.546 65.5707 154.546 70.0561C154.546 74.5415 150.876 78.1905 146.365 78.1905ZM146.365 62.0877C141.946 62.0877 138.35 65.6624 138.35 70.0561C138.35 74.4497 141.946 78.0241 146.365 78.0241C150.784 78.0241 154.379 74.4497 154.379 70.0561C154.379 65.6624 150.784 62.0877 146.365 62.0877Z" fill="black"/>
<path d="M140.541 70.9426C140.5 70.9426 140.464 70.9124 140.458 70.8709C140.421 70.6029 140.402 70.3286 140.402 70.0561C140.402 67.9811 141.516 66.03 143.309 64.9638C143.348 64.9404 143.4 64.9533 143.423 64.9925C143.447 65.0318 143.434 65.0831 143.395 65.1065C141.652 66.1428 140.57 68.0393 140.57 70.0557C140.57 70.3206 140.588 70.5871 140.624 70.8479C140.63 70.8935 140.598 70.9354 140.553 70.9414C140.549 70.9422 140.545 70.9422 140.541 70.9422L140.541 70.9426Z" fill="white"/>
<path d="M143.148 75.0343C143.133 75.0343 143.117 75.0298 143.103 75.0207C142.029 74.3222 141.197 73.2798 140.759 72.0857C140.743 72.0427 140.765 71.9947 140.809 71.9793C140.852 71.9638 140.9 71.9857 140.916 72.0287C141.341 73.1896 142.15 74.2025 143.194 74.8818C143.233 74.9067 143.244 74.9584 143.218 74.9969C143.202 75.0215 143.175 75.0347 143.148 75.0347L143.148 75.0343Z" fill="white"/>
<path d="M146.36 75.985C145.513 75.985 144.695 75.8122 143.928 75.4714C143.886 75.4525 143.867 75.4034 143.886 75.3615C143.905 75.3196 143.954 75.3008 143.997 75.3196C144.742 75.651 145.537 75.8189 146.36 75.8189C148.504 75.8189 150.464 74.6498 151.476 72.7677C151.497 72.7273 151.548 72.7118 151.589 72.7337C151.629 72.7552 151.645 72.8058 151.623 72.8462C150.582 74.7822 148.566 75.9854 146.36 75.9854L146.36 75.985Z" fill="white"/>
<path d="M152.063 71.58C152.056 71.58 152.05 71.5792 152.043 71.5773C151.998 71.566 151.971 71.5207 151.982 71.4762C152.1 71.0143 152.16 70.5365 152.16 70.0557C152.16 68.5163 151.557 67.0693 150.462 65.9805C150.429 65.9481 150.429 65.8956 150.462 65.8631C150.495 65.8307 150.547 65.8307 150.58 65.8631C151.706 66.9829 152.327 68.4721 152.327 70.0557C152.327 70.5501 152.265 71.0418 152.144 71.517C152.135 71.5547 152.101 71.5796 152.064 71.5796L152.063 71.58Z" fill="black"/>
<path d="M149.65 65.2914C149.634 65.2914 149.618 65.2868 149.603 65.277C148.645 64.6332 147.524 64.2928 146.362 64.2928C145.853 64.2928 145.347 64.3584 144.859 64.4883C144.815 64.5 144.769 64.4739 144.757 64.4294C144.745 64.3849 144.771 64.3396 144.816 64.3275C145.318 64.1939 145.838 64.1263 146.362 64.1263C147.557 64.1263 148.71 64.4766 149.696 65.1389C149.735 65.1646 149.745 65.2163 149.719 65.2544C149.703 65.2782 149.676 65.291 149.649 65.291L149.65 65.2914Z" fill="black"/>
<path d="M144.658 81.0059C144.611 81.0059 144.574 80.9686 144.574 80.9229V78.6162C144.574 78.5702 144.612 78.5332 144.658 78.5332C144.704 78.5332 144.741 78.5706 144.741 78.6162V80.9229C144.741 80.9689 144.704 81.0059 144.658 81.0059Z" fill="black"/>
<path d="M143.298 80.5565C143.252 80.5565 143.215 80.5191 143.215 80.4734V78.1668C143.215 78.1207 143.252 78.0837 143.298 78.0837C143.344 78.0837 143.382 78.1211 143.382 78.1668V80.4734C143.382 80.5195 143.344 80.5565 143.298 80.5565Z" fill="black"/>
<path d="M142.095 79.9575C142.049 79.9575 142.012 79.9201 142.012 79.8745V78.6162C142.012 78.5702 142.049 78.5332 142.095 78.5332C142.141 78.5332 142.179 78.5706 142.179 78.6162V79.8745C142.179 79.9205 142.141 79.9575 142.095 79.9575Z" fill="black"/>
<path d="M160.344 64.0343V67.0297C160.344 71.4762 156.718 75.0811 152.246 75.0811C147.774 75.0811 144.148 71.4766 144.148 67.0297V64.0343H160.344Z" fill="#3FB686"/>
<path d="M152.244 75.1645C147.733 75.1645 144.062 71.5155 144.062 67.0301V64.0347C144.062 63.9886 144.1 63.9517 144.146 63.9517C144.192 63.9517 144.229 63.989 144.229 64.0347V67.0301C144.229 71.4238 147.825 74.9981 152.244 74.9981C156.663 74.9981 160.258 71.4238 160.258 67.0301V64.0347C160.258 63.9886 160.296 63.9517 160.341 63.9517C160.387 63.9517 160.425 63.989 160.425 64.0347V67.0301C160.425 71.5155 156.755 75.1645 152.244 75.1645Z" fill="black"/>
<path d="M152.246 72.0857C156.718 72.0857 160.344 68.481 160.344 64.0343C160.344 59.5877 156.718 55.9829 152.246 55.9829C147.774 55.9829 144.148 59.5877 144.148 64.0343C144.148 68.481 147.774 72.0857 152.246 72.0857Z" fill="#436FD0"/>
<path d="M152.244 72.1687C147.733 72.1687 144.062 68.5197 144.062 64.0343C144.062 59.5489 147.733 55.8998 152.244 55.8998C156.755 55.8998 160.425 59.5489 160.425 64.0343C160.425 68.5197 156.755 72.1687 152.244 72.1687ZM152.244 56.0663C147.825 56.0663 144.229 59.6406 144.229 64.0343C144.229 68.428 147.825 72.0023 152.244 72.0023C156.663 72.0023 160.258 68.428 160.258 64.0343C160.258 59.6406 156.663 56.0663 152.244 56.0663Z" fill="black"/>
<path d="M146.424 64.9212C146.383 64.9212 146.347 64.891 146.341 64.8495C146.304 64.5815 146.285 64.3072 146.285 64.0347C146.285 61.9601 147.399 60.009 149.192 58.9428C149.231 58.9194 149.282 58.9323 149.306 58.9715C149.33 59.0108 149.317 59.0621 149.277 59.0855C147.535 60.1218 146.452 62.0183 146.452 64.0347C146.452 64.2996 146.471 64.5661 146.507 64.8269C146.513 64.8725 146.481 64.9144 146.435 64.9205C146.432 64.9212 146.428 64.9212 146.424 64.9212H146.424Z" fill="white"/>
<path d="M149.031 69.0129C149.016 69.0129 149 69.0084 148.986 68.9994C147.912 68.3008 147.08 67.2584 146.642 66.0643C146.626 66.0213 146.648 65.9734 146.692 65.9579C146.735 65.9424 146.783 65.9643 146.798 66.0073C147.224 67.1682 148.033 68.1812 149.077 68.8605C149.115 68.8854 149.126 68.9371 149.101 68.9756C149.085 69.0001 149.058 69.0133 149.031 69.0133L149.031 69.0129Z" fill="white"/>
<path d="M152.243 69.9636C151.396 69.9636 150.578 69.7907 149.811 69.4499C149.769 69.4311 149.75 69.382 149.769 69.3401C149.788 69.2982 149.837 69.2794 149.879 69.2982C150.625 69.6296 151.42 69.7975 152.243 69.7975C154.387 69.7975 156.347 68.6283 157.359 66.7463C157.38 66.7059 157.431 66.6904 157.472 66.7123C157.512 66.7338 157.528 66.7844 157.506 66.8248C156.465 68.7608 154.449 69.964 152.243 69.964L152.243 69.9636Z" fill="white"/>
<path d="M157.942 65.5586C157.935 65.5586 157.928 65.5579 157.921 65.556C157.876 65.5446 157.85 65.4994 157.861 65.4548C157.978 64.9929 158.038 64.5151 158.038 64.0343C158.038 62.4949 157.435 61.048 156.341 59.9592C156.308 59.9267 156.308 59.8742 156.341 59.8418C156.373 59.8093 156.426 59.8093 156.459 59.8418C157.585 60.9615 158.206 62.4507 158.206 64.0343C158.206 64.5287 158.144 65.0204 158.023 65.4956C158.014 65.5333 157.98 65.5582 157.942 65.5582L157.942 65.5586Z" fill="white"/>
<path d="M155.533 59.27C155.517 59.27 155.5 59.2655 155.486 59.2557C154.528 58.6118 153.407 58.2714 152.245 58.2714C151.736 58.2714 151.23 58.3371 150.742 58.4669C150.698 58.479 150.652 58.4526 150.64 58.408C150.628 58.3635 150.654 58.3182 150.699 58.3061C151.2 58.1725 151.721 58.105 152.245 58.105C153.44 58.105 154.593 58.4552 155.579 59.1175C155.618 59.1432 155.627 59.1949 155.602 59.233C155.585 59.2568 155.559 59.2696 155.532 59.2696L155.533 59.27Z" fill="white"/>
<path d="M157.263 73.3587C157.217 73.3587 157.18 73.3213 157.18 73.2757V70.9962C157.18 70.9501 157.217 70.9131 157.263 70.9131C157.309 70.9131 157.347 70.9505 157.347 70.9962V73.2757C157.347 73.3217 157.309 73.3587 157.263 73.3587Z" fill="black"/>
<path d="M156.06 74.1074C156.014 74.1074 155.977 74.0701 155.977 74.0244V72.4937C155.977 72.4476 156.014 72.4106 156.06 72.4106C156.106 72.4106 156.143 72.448 156.143 72.4937V74.0244C156.143 74.0704 156.106 74.1074 156.06 74.1074Z" fill="black"/>
<path d="M154.701 74.7067C154.654 74.7067 154.617 74.6694 154.617 74.6237V73.093C154.617 73.0469 154.655 73.0099 154.701 73.0099C154.747 73.0099 154.784 73.0473 154.784 73.093V74.6237C154.784 74.6697 154.747 74.7067 154.701 74.7067Z" fill="black"/>
<path d="M150.713 63.7407C150.682 63.7407 150.653 63.7237 150.638 63.6942C150.518 63.4501 150.457 63.187 150.457 62.9134C150.457 61.9333 151.259 61.1362 152.244 61.1362C152.935 61.1362 153.571 61.5385 153.864 62.1609C153.884 62.2024 153.866 62.2518 153.824 62.2714C153.782 62.2911 153.733 62.273 153.713 62.2314C153.447 61.6672 152.871 61.3023 152.244 61.3023C151.351 61.3023 150.624 62.025 150.624 62.913C150.624 63.1614 150.68 63.3995 150.788 63.6206C150.809 63.6618 150.792 63.7116 150.75 63.732C150.738 63.7376 150.726 63.7403 150.713 63.7403V63.7407Z" fill="white"/>
<path d="M152.243 67.0406C151.722 67.0406 151.228 66.8149 150.887 66.4213C150.857 66.3866 150.861 66.3341 150.896 66.3039C150.931 66.2741 150.984 66.2779 151.014 66.3126C151.322 66.6692 151.771 66.8738 152.243 66.8738C153.137 66.8738 153.863 66.1511 153.863 65.2631C153.863 65.0008 153.799 64.7407 153.676 64.5105C153.654 64.4698 153.67 64.4196 153.711 64.3981C153.752 64.3765 153.802 64.392 153.824 64.4328C153.959 64.6868 154.031 64.974 154.031 65.2631C154.031 66.2432 153.229 67.0402 152.243 67.0402V67.0406Z" fill="white"/>
<path d="M152.161 68.2566C152.116 68.2566 152.079 68.2208 152.078 68.1755L152.047 66.9595C152.046 66.9135 152.082 66.8753 152.128 66.8742H152.131C152.176 66.8742 152.213 66.9101 152.214 66.9553L152.245 68.1713C152.246 68.2174 152.21 68.2555 152.163 68.2566H152.161Z" fill="white"/>
<path d="M152.246 61.3023C152.202 61.3023 152.165 61.2679 152.162 61.2238L152.082 59.7746C152.08 59.7285 152.115 59.6897 152.161 59.687C152.205 59.6825 152.246 59.7195 152.249 59.7655L152.329 61.2147C152.332 61.2608 152.296 61.2996 152.25 61.3023C152.249 61.3023 152.247 61.3023 152.246 61.3023Z" fill="white"/>
<path d="M153.124 64.2407C153.118 64.2407 153.113 64.2403 153.107 64.2392L151.259 63.869C151.213 63.8599 151.184 63.8161 151.193 63.7712C151.202 63.7263 151.246 63.6969 151.291 63.7059L153.14 64.0761C153.185 64.0852 153.214 64.129 153.205 64.1739C153.197 64.2135 153.162 64.2407 153.123 64.2407H153.124Z" fill="white"/>
<path d="M113.31 34.9283H109.367V36.407H113.31V34.9283Z" fill="white"/>
<path d="M106.08 37.1488H102.137C102.035 37.1488 101.953 37.0666 101.953 36.9651C101.953 36.8635 102.035 36.7814 102.137 36.7814H106.08C106.182 36.7814 106.264 36.8635 106.264 36.9651C106.264 37.0666 106.182 37.1488 106.08 37.1488Z" fill="white"/>
<path d="M113.31 38.626H109.367C109.266 38.626 109.184 38.5439 109.184 38.4423V34.9283C109.184 34.8268 109.266 34.7446 109.367 34.7446H113.31C113.412 34.7446 113.494 34.8268 113.494 34.9283V38.4423C113.494 38.5439 113.412 38.626 113.31 38.626ZM109.551 38.2588H113.126V35.1122H109.551V38.2588Z" fill="white"/>
<path d="M121.041 38.6259C120.997 38.6259 120.954 38.6104 120.919 38.5793L116.976 35.0653C116.9 34.998 116.893 34.8817 116.961 34.8061C117.028 34.7307 117.144 34.7239 117.22 34.7913L121.163 38.3053C121.239 38.3727 121.246 38.489 121.178 38.5646C121.142 38.6051 121.092 38.6259 121.041 38.6259Z" fill="white"/>
<path d="M117.098 38.626C117.047 38.626 116.997 38.6052 116.961 38.5647C116.893 38.4891 116.9 38.3728 116.976 38.3054L120.919 34.7914C120.994 34.7236 121.111 34.7304 121.178 34.8062C121.246 34.882 121.239 34.9981 121.163 35.0655L117.22 38.5794C117.185 38.6106 117.141 38.626 117.098 38.626Z" fill="white"/>
<path d="M87.0707 159.53L78.7279 136.375L61.2525 130.534L31.937 135.101L27.7344 159.53H87.0707Z" fill="#0034A8"/>
<path d="M87.0717 159.668H27.7353C27.6949 159.668 27.6562 159.65 27.63 159.619C27.6038 159.588 27.5928 159.547 27.5996 159.507L31.8023 135.077C31.8123 135.019 31.8584 134.974 31.9169 134.965L61.2324 130.398C61.2542 130.395 61.2767 130.397 61.2973 130.404L78.7726 136.245C78.8126 136.258 78.8444 136.289 78.8587 136.329L87.2015 159.484C87.2165 159.526 87.2104 159.573 87.1844 159.61C87.1587 159.646 87.1166 159.668 87.0719 159.668L87.0717 159.668ZM27.8987 159.393H86.8756L78.6219 136.485L61.2416 130.676L32.0568 135.222L27.8987 159.393Z" fill="#050505"/>
<path d="M64.3706 111.744L65.1615 117.561L49.3197 118.948L45.5844 110.211L45.2891 109.03C48.1855 108.513 48.6795 107.389 49.6176 104.592L51.9457 97.3747C51.5212 96.892 51.2919 96.2723 51.2027 95.5568L50.5077 91.4243L56.821 87.6375L65.7058 85.9291L66.3975 88.5518C66.6062 94.0196 66.3907 98.3573 65.1374 99.9153C64.2061 101.038 63.0763 101.678 61.7924 101.928C61.6864 101.949 61.5801 101.966 61.4739 101.976L60.4057 106.588C60.3371 106.876 60.3201 107.18 60.3919 107.468C60.6418 108.437 61.9536 109.089 63.4121 108.986L64.3704 111.744H64.3706Z" fill="white"/>
<path d="M49.3208 119.086C49.266 119.086 49.2157 119.053 49.1942 119.002L45.4588 110.265L45.1565 109.063C45.1472 109.026 45.1537 108.987 45.1745 108.955C45.1954 108.923 45.2286 108.901 45.266 108.894C48.0642 108.395 48.5362 107.387 49.4881 104.548L51.7921 97.4056C51.3989 96.9327 51.1617 96.3327 51.0671 95.5734L50.3728 91.447C50.3632 91.3911 50.3892 91.3352 50.4379 91.3062L56.7514 87.5196C56.7653 87.5114 56.7805 87.5053 56.7964 87.5023L65.6811 85.7938C65.7527 85.7788 65.8218 85.824 65.8405 85.894L66.5322 88.5164C66.7814 94.9624 66.3714 98.6023 65.2461 100.002C64.3307 101.106 63.1785 101.799 61.8201 102.064C61.7427 102.079 61.6652 102.092 61.5875 102.102L60.5413 106.62C60.4706 106.916 60.466 107.19 60.527 107.435C60.7564 108.325 62.02 108.947 63.4038 108.849C63.4658 108.843 63.5234 108.883 63.5435 108.941L64.5018 111.699C64.5048 111.708 64.5069 111.717 64.5083 111.726L65.2992 117.543C65.3041 117.58 65.2939 117.618 65.2705 117.648C65.2471 117.677 65.2124 117.696 65.1747 117.699L49.3329 119.086C49.3287 119.086 49.3248 119.086 49.321 119.086L49.3208 119.086ZM45.4595 109.138L45.7193 110.177L49.4083 118.802L65.0067 117.437L64.2371 111.776L63.3177 109.13C61.826 109.206 60.5205 108.511 60.26 107.502C60.1877 107.214 60.1922 106.895 60.2731 106.556L61.3411 101.945C61.3545 101.888 61.4029 101.845 61.4619 101.84C61.5639 101.83 61.6659 101.813 61.7677 101.793C63.0615 101.542 64.1604 100.88 65.0327 99.8273C66.1126 98.4846 66.5036 94.903 66.2612 88.5571L65.6069 86.0889L56.8724 87.7681L50.6604 91.4941L51.34 95.5336C51.4322 96.2744 51.6643 96.8449 52.0506 97.2837C52.0824 97.3202 52.0932 97.3707 52.0782 97.4171L49.7502 104.634C48.8167 107.417 48.3141 108.594 45.4598 109.138L45.4595 109.138Z" fill="#050505"/>
<path d="M51.2005 95.5582C49.4572 93.7145 48.3665 91.827 48.3951 89.8642C48.415 88.489 49.0711 87.2107 50.1852 86.4041C51.5747 85.3979 53.3367 84.9308 55.0245 83.3069C56.4711 81.765 57.9339 80.2485 59.7677 79.3179C61.1621 78.6102 62.7641 78.3489 64.2846 78.7141C67.6931 79.5327 69.7146 82.877 68.0265 86.4078C67.281 87.9674 65.9509 89.1594 64.3536 89.821C62.1686 90.7261 59.8777 90.569 57.5117 89.6555C57.8171 91.5453 57.2803 92.9626 55.4698 93.6651C54.9134 93.772 54.6806 93.6202 54.3742 93.2126C53.9371 92.6306 53.1415 92.38 52.4819 92.6879C51.555 93.1206 51.2548 94.3807 51.2003 95.5586L51.2005 95.5582Z" fill="#050505"/>
<path d="M51.2016 95.696C51.1644 95.696 51.1281 95.681 51.1015 95.6529C49.1616 93.6012 48.2317 91.7075 48.2584 89.8624C48.2792 88.4289 48.9524 87.1276 50.1053 86.2927C50.6419 85.9043 51.2262 85.5982 51.8451 85.2746C52.8544 84.7464 53.8982 84.2 54.9299 83.2074C56.1942 81.8596 57.774 80.1755 59.7061 79.195C61.1918 78.4406 62.8293 78.2225 64.3176 78.5801C66.1077 79.0099 67.5498 80.1289 68.2743 81.6492C68.976 83.1227 68.9325 84.8335 68.1516 86.4668C67.4099 88.0184 66.08 89.2547 64.4072 89.9478C62.351 90.7988 60.1491 90.7726 57.6822 89.8663C57.9291 91.8198 57.2028 93.1402 55.5208 93.7929C54.8679 93.922 54.5883 93.725 54.2651 93.2949C53.8505 92.742 53.1251 92.5391 52.5413 92.8119C51.6329 93.2359 51.386 94.5426 51.339 95.5642C51.3364 95.6195 51.3011 95.6677 51.2494 95.6869C51.2337 95.6925 51.2175 95.6955 51.2014 95.6955L51.2016 95.696ZM62.8817 78.6879C61.8596 78.6879 60.8118 78.943 59.8315 79.4407C57.9425 80.3992 56.381 82.0638 55.1263 83.4014C54.0613 84.4263 52.9519 85.0069 51.9731 85.5186C51.3633 85.8376 50.7877 86.139 50.267 86.5159C49.1852 87.2991 48.5537 88.5204 48.534 89.8666C48.5092 91.5671 49.3444 93.3239 51.0853 95.2306C51.1745 94.1937 51.4906 92.9987 52.425 92.5625C53.1274 92.2349 53.9935 92.4736 54.4856 93.1297C54.7687 93.5065 54.9555 93.623 55.445 93.5294C57.054 92.9027 57.6939 91.6403 57.3769 89.677C57.3689 89.6281 57.3879 89.5792 57.426 89.5483C57.4642 89.5168 57.5163 89.5081 57.5624 89.5268C60.0494 90.4871 62.2539 90.5414 64.3019 89.6932C65.9118 89.0265 67.1908 87.8385 67.9031 86.3479C68.6473 84.7914 68.6908 83.1648 68.0255 81.7678C67.3371 80.3229 65.9621 79.2587 64.2534 78.848C63.8074 78.741 63.3474 78.6879 62.8817 78.6879Z" fill="#050505"/>
<path d="M54.9548 96.5871C54.8906 96.5871 54.8335 96.5422 54.82 96.4773C54.5984 95.4021 53.5112 95.024 53.5002 95.0204C53.4281 94.9961 53.3893 94.9182 53.4134 94.8461C53.4377 94.774 53.5154 94.7345 53.5875 94.7593C53.6383 94.7762 54.8352 95.1885 55.0895 96.4214C55.105 96.496 55.057 96.5688 54.9824 96.5843C54.973 96.5861 54.9637 96.5871 54.9543 96.5871H54.9548Z" fill="#050505"/>
<path d="M63.1096 108.626L70.7748 109.468C71.3151 109.527 71.8519 109.626 72.3707 109.787C76.0945 110.946 79.1578 113.985 81.6102 118.613L86.7713 127.958L82.0929 156.369L45.0706 156.811C38.9374 157.933 33.196 159.168 27.3079 158.912C25.986 158.855 24.6684 158.682 23.3928 158.331C16.9639 156.563 14.9094 152.086 15.676 145.863C16.6969 139.31 19.43 132.387 23.2494 125.333C25.3032 121.503 27.4328 117.948 29.7773 115.173C32.3766 112.096 35.9764 110.027 39.9481 109.359C41.5311 109.093 43.3664 108.889 45.4625 108.75C47.9558 113.15 50.918 116.406 55.2423 116.704C56.5003 116.791 57.7679 116.585 58.9503 116.147C62.3873 114.872 63.6221 112.274 63.1092 108.626H63.1096Z" fill="#3FB686"/>
<path d="M28.8994 159.084C28.3676 159.084 27.835 159.073 27.3008 159.05C25.8485 158.987 24.558 158.795 23.355 158.464C17.2558 156.786 14.6989 152.659 15.538 145.846C16.5042 139.645 18.9863 132.914 23.1271 125.267C25.6014 120.652 27.6197 117.512 29.6707 115.084C32.2976 111.975 35.9389 109.894 39.9241 109.224C41.512 108.957 43.3721 108.751 45.4524 108.613C45.5057 108.609 45.5551 108.636 45.5813 108.682C48.5255 113.877 51.5076 116.308 55.2506 116.566C56.4464 116.649 57.71 116.459 58.9013 116.017C62.1675 114.807 63.4989 112.395 62.9717 108.645C62.9659 108.603 62.9797 108.561 63.0094 108.53C63.0389 108.5 63.0815 108.486 63.1233 108.489L70.7887 109.33C71.3913 109.397 71.9217 109.503 72.4106 109.655C76.0724 110.795 79.2083 113.787 81.731 118.548L86.891 127.891C86.9059 127.918 86.9113 127.949 86.9064 127.98L82.228 156.391C82.217 156.457 82.1606 156.506 82.0937 156.507L45.0716 156.949C44.4289 157.068 43.7673 157.191 43.11 157.314C38.2379 158.221 33.6082 159.084 28.9001 159.084L28.8994 159.084ZM45.3843 108.893C43.3482 109.031 41.5268 109.234 39.9695 109.496C36.0486 110.155 32.4658 112.202 29.8813 115.262C27.8432 117.674 25.8347 120.8 23.3696 125.398C19.2437 133.018 16.7712 139.719 15.8107 145.884C14.9917 152.534 17.483 156.563 23.4281 158.199C24.6107 158.525 25.8813 158.713 27.3125 158.774C32.5435 159 37.652 158.05 43.059 157.044C43.7168 156.921 44.3783 156.798 45.0447 156.676L81.9744 156.234L86.6263 127.983L81.4884 118.68C78.9998 113.984 75.9185 111.037 72.3284 109.919C71.8567 109.773 71.3431 109.67 70.7583 109.605L63.268 108.783C63.7409 112.53 62.3046 115.051 58.997 116.277C57.7694 116.732 56.4674 116.926 55.2315 116.842C51.4044 116.579 48.365 114.126 45.384 108.894L45.3843 108.893Z" fill="#050505"/>
<path d="M45.7831 156.914C43.7798 157.014 42.8845 156.001 42.9528 154.021C42.9662 153.632 43.0247 153.245 43.1054 152.864C44.0688 148.315 45.9663 143.973 49.9165 140.083C54.7471 139.504 59.1321 140.32 62.7619 143.499C66.0526 146.541 67.3256 150.491 67.1178 155.107L45.7833 156.913L45.7831 156.914Z" fill="white"/>
<path d="M45.524 157.058C44.6568 157.058 43.9892 156.833 43.5364 156.387C43.0218 155.88 42.7794 155.083 42.8161 154.016C42.8288 153.658 42.8795 153.271 42.9717 152.835C44.0865 147.572 46.2629 143.489 49.8207 139.985C49.8424 139.964 49.8708 139.951 49.9009 139.947C55.2357 139.308 59.4739 140.436 62.8533 143.396C66.0392 146.341 67.4788 150.173 67.2563 155.113C67.2532 155.183 67.1992 155.238 67.1304 155.245L45.7959 157.051C45.7942 157.051 45.7926 157.051 45.791 157.052C45.6999 157.056 45.6108 157.058 45.5237 157.058L45.524 157.058ZM49.9807 140.215C46.4831 143.671 44.3411 147.701 43.2413 152.893C43.1524 153.312 43.1035 153.683 43.0918 154.025C43.0576 155.012 43.2724 155.74 43.7297 156.191C44.1703 156.625 44.8573 156.821 45.7753 156.776L66.9865 154.98C67.1762 150.184 65.7636 146.461 62.6694 143.6C59.3646 140.706 55.2125 139.597 49.9807 140.215Z" fill="#050505"/>
<path d="M57.7853 155.863C57.7818 155.863 57.7787 155.863 57.7752 155.863C57.6994 155.858 57.6423 155.792 57.6477 155.716C57.8178 153.331 56.6284 151.131 54.112 149.176C54.0518 149.13 54.0408 149.043 54.0876 148.983C54.1342 148.924 54.2208 148.912 54.2809 148.959C56.8746 150.973 58.0998 153.253 57.9226 155.735C57.9175 155.808 57.8571 155.863 57.7855 155.863L57.7853 155.863Z" fill="#050505"/>
<path d="M61.9192 156.037H61.9173C61.8413 156.036 61.7802 155.973 61.7814 155.897C61.8226 152.861 60.7752 150.327 58.5798 148.151C58.5257 148.097 58.5255 148.01 58.5791 147.957C58.6324 147.902 58.7197 147.902 58.774 147.955C61.0251 150.188 62.0989 152.786 62.057 155.901C62.0559 155.976 61.9945 156.037 61.9192 156.037Z" fill="#050505"/>
<path d="M65.0374 155.863C65.0315 155.863 65.0254 155.863 65.0194 155.862C64.944 155.852 64.8907 155.783 64.9007 155.708C65.3626 152.176 64.5254 149.451 62.2657 147.134C62.2125 147.08 62.2137 146.992 62.2682 146.939C62.3228 146.886 62.41 146.888 62.4631 146.942C64.7545 149.292 65.6413 152.171 65.1743 155.744C65.1652 155.813 65.1059 155.863 65.0379 155.863H65.0374Z" fill="#050505"/>
<path d="M27.716 140.667C27.6411 140.667 27.5798 140.607 27.5781 140.532C27.5767 140.456 27.6371 140.393 27.7132 140.391L49.9139 139.946C49.9893 139.943 50.0527 140.005 50.0543 140.081C50.0557 140.157 49.9953 140.22 49.9193 140.222L27.7185 140.667H27.7157L27.716 140.667Z" fill="#050505"/>
<path d="M34.6729 140.444C34.6603 140.444 34.6472 140.442 34.6345 140.439C34.5613 140.418 34.5194 140.341 34.5407 140.268C35.798 135.942 37.2289 131.827 39.1718 131.021C39.2422 130.992 39.3227 131.026 39.3517 131.096C39.381 131.166 39.3475 131.247 39.2773 131.276C37.4421 132.037 36.0435 136.084 34.8051 140.345C34.7878 140.405 34.7326 140.444 34.6729 140.444Z" fill="#050505"/>
<path d="M120.076 131.551L109.739 157.7C109.273 158.885 108.129 159.662 106.856 159.662L67.374 159.534H47.0411C45.8273 159.534 44.8398 158.55 44.8398 157.333C44.8398 156.723 45.0858 156.175 45.4862 155.775C45.883 155.378 46.4341 155.132 47.0411 155.132H67.876L76.0545 131.394C76.7893 129.261 78.7937 127.828 81.0509 127.824L117.485 127.749C119.45 127.746 120.799 129.724 120.077 131.551L120.076 131.551Z" fill="#436FD0"/>
<path d="M106.857 159.8L67.3747 159.672H47.0422C45.7524 159.672 44.7031 158.623 44.7031 157.333C44.7031 156.708 44.947 156.12 45.3897 155.677C45.8301 155.237 46.4169 154.994 47.0422 154.994H67.7788L75.9253 131.349C76.679 129.161 78.7391 127.689 81.0518 127.686L117.486 127.611H117.491C118.458 127.611 119.359 128.087 119.904 128.886C120.449 129.686 120.562 130.701 120.206 131.601L109.869 157.751C109.38 158.995 108.197 159.8 106.857 159.8ZM47.0422 155.27C46.4907 155.27 45.9728 155.483 45.5846 155.872C45.1941 156.263 44.9788 156.782 44.9788 157.333C44.9788 158.471 45.9045 159.397 47.0424 159.397H67.3754L106.858 159.524C108.083 159.524 109.165 158.789 109.613 157.65L119.95 131.5C120.277 130.672 120.177 129.776 119.676 129.041C119.176 128.307 118.38 127.886 117.491 127.886H117.486L81.0525 127.962C78.8573 127.965 76.9015 129.362 76.186 131.439L68.0074 155.177C67.9882 155.232 67.936 155.27 67.8773 155.27H47.0424H47.0422Z" fill="#436FD0"/>
<path d="M51.9453 97.3749C51.9453 97.3749 52.3981 97.8675 53.0168 97.7685L51.9453 97.3749Z" fill="white"/>
<path d="M52.8511 97.9195C52.2671 97.9195 51.8634 97.4882 51.8449 97.4681C51.7934 97.4121 51.7972 97.3253 51.8529 97.2736C51.909 97.2224 51.9963 97.2263 52.0476 97.2811C52.0518 97.2853 52.4589 97.7163 52.9962 97.6323C53.0723 97.6204 53.142 97.6714 53.1539 97.7463C53.1659 97.8216 53.1148 97.8923 53.0397 97.9042C52.9751 97.9145 52.9122 97.9192 52.8514 97.9192L52.8511 97.9195Z" fill="#050505"/>
<path d="M61.4751 101.976C61.4751 101.976 59.8247 102.124 58.6367 101.134L61.4751 101.976Z" fill="white"/>
<path d="M61.2277 102.123C60.7031 102.123 59.4954 102.029 58.5496 101.24C58.4911 101.191 58.4832 101.105 58.5321 101.046C58.5807 100.987 58.6676 100.979 58.7261 101.029C59.8574 101.972 61.4482 101.84 61.4639 101.84C61.5394 101.826 61.6064 101.889 61.6134 101.965C61.6202 102.04 61.5642 102.107 61.4884 102.114C61.4727 102.115 61.3782 102.123 61.2275 102.123L61.2277 102.123Z" fill="#050505"/>
<path d="M98.3269 144.958C97.9628 146.63 96.3121 147.986 94.6397 147.986C92.9673 147.986 91.9069 146.63 92.2707 144.958C92.6348 143.285 94.2855 141.93 95.9579 141.93C97.6303 141.93 98.6907 143.286 98.3269 144.958Z" fill="white"/>
<path d="M175.152 132.969L198.948 109.108L222.744 132.969L198.948 156.83L175.152 132.969Z" fill="#050505"/>
<path d="M198.949 156.968C198.913 156.968 198.877 156.953 198.852 156.927L175.056 133.066C175.002 133.012 175.002 132.926 175.056 132.872L198.852 109.011C198.903 108.959 198.995 108.959 199.047 109.011L222.842 132.872C222.896 132.926 222.896 133.012 222.842 133.066L199.047 156.927C199.021 156.953 198.986 156.968 198.949 156.968ZM175.348 132.969L198.949 156.635L222.55 132.969L198.949 109.303L175.348 132.969Z" fill="#050505"/>
<path d="M218.424 108.361H179.469V149.402H218.424V108.361Z" fill="#3FB686"/>
<path d="M218.425 149.54H179.47C179.394 149.54 179.332 149.478 179.332 149.402V108.361C179.332 108.285 179.394 108.223 179.47 108.223H218.425C218.501 108.223 218.563 108.285 218.563 108.361V149.402C218.563 149.478 218.501 149.54 218.425 149.54ZM179.607 149.264H218.287V108.499H179.607V149.264Z" fill="#050505"/>
<path d="M215.416 130.539H182.485C182.409 130.539 182.348 130.477 182.348 130.401C182.348 130.325 182.409 130.263 182.485 130.263H215.416C215.492 130.263 215.554 130.325 215.554 130.401C215.554 130.477 215.492 130.539 215.416 130.539Z" fill="#050505"/>
<path d="M215.416 134.513H182.485C182.409 134.513 182.348 134.451 182.348 134.375C182.348 134.299 182.409 134.237 182.485 134.237H215.416C215.492 134.237 215.554 134.299 215.554 134.375C215.554 134.451 215.492 134.513 215.416 134.513Z" fill="#050505"/>
<path d="M222.744 132.969V159.662H175.152V132.969L198.948 156.83L222.744 132.969Z" fill="#436FD0"/>
<path d="M222.745 159.8H175.153C175.077 159.8 175.016 159.738 175.016 159.662V132.969C175.016 132.913 175.049 132.863 175.101 132.842C175.152 132.821 175.211 132.832 175.251 132.872L198.949 156.635L222.647 132.872C222.687 132.832 222.746 132.821 222.797 132.842C222.849 132.863 222.883 132.914 222.883 132.969V159.662C222.883 159.738 222.821 159.8 222.745 159.8H222.745ZM175.291 159.524H222.607V133.303L199.047 156.927C198.995 156.979 198.903 156.979 198.852 156.927L175.291 133.303V159.524Z" fill="#050505"/>
<path d="M222.744 156.765V159.662H175.152V156.422L196.093 135.481C197.576 133.999 199.978 133.999 201.46 135.481L222.744 156.765V156.765Z" fill="#1D4CB5"/>
<path d="M222.745 159.8H175.153C175.077 159.8 175.016 159.738 175.016 159.662V156.423C175.016 156.386 175.03 156.351 175.056 156.325L195.997 135.384C197.531 133.851 200.025 133.851 201.558 135.384L222.842 156.667C222.868 156.693 222.882 156.728 222.882 156.765V159.662C222.882 159.738 222.82 159.8 222.744 159.8L222.745 159.8ZM175.291 159.524H222.607V156.822L201.364 135.579C199.938 134.153 197.618 134.153 196.192 135.579L175.291 156.48V159.524Z" fill="#050505"/>
<path d="M215.428 112.711H182.465V114.289H215.428V112.711Z" fill="#050505"/>
<path d="M215.429 114.427H182.466C182.39 114.427 182.328 114.365 182.328 114.289V112.711C182.328 112.635 182.39 112.573 182.466 112.573H215.429C215.505 112.573 215.567 112.635 215.567 112.711V114.289C215.567 114.365 215.505 114.427 215.429 114.427ZM182.604 114.152H215.291V112.849H182.604V114.152Z" fill="#050505"/>
<path d="M215.428 116.665H182.465V127.038H215.428V116.665Z" fill="#21664A"/>
<path d="M215.429 127.177H182.466C182.39 127.177 182.328 127.115 182.328 127.039V116.665C182.328 116.589 182.39 116.528 182.466 116.528H215.429C215.505 116.528 215.567 116.589 215.567 116.665V127.039C215.567 127.115 215.505 127.177 215.429 127.177ZM182.604 126.901H215.291V116.803H182.604V126.901Z" fill="#21664A"/>
<path d="M222.746 156.903C222.711 156.903 222.675 156.889 222.649 156.862L210.767 144.981C210.713 144.927 210.713 144.84 210.767 144.786C210.821 144.732 210.908 144.732 210.962 144.786L222.843 156.667C222.897 156.721 222.897 156.809 222.843 156.862C222.817 156.889 222.781 156.903 222.746 156.903H222.746Z" fill="#050505"/>
<path d="M175.153 156.903C175.118 156.903 175.083 156.889 175.056 156.862C175.002 156.809 175.002 156.721 175.056 156.667L186.938 144.786C186.991 144.732 187.079 144.732 187.132 144.786C187.186 144.84 187.186 144.927 187.132 144.981L175.251 156.862C175.224 156.889 175.189 156.903 175.153 156.903Z" fill="#050505"/>
<path d="M185.93 123.307C185.803 123.307 185.68 123.241 185.612 123.123C185.51 122.947 185.571 122.723 185.746 122.621L189.513 120.447C189.689 120.345 189.913 120.405 190.015 120.581C190.116 120.757 190.056 120.982 189.88 121.083L186.114 123.257C186.056 123.291 185.993 123.307 185.93 123.307H185.93Z" fill="white"/>
<path d="M189.696 123.307C189.634 123.307 189.571 123.291 189.513 123.257L185.746 121.083C185.571 120.982 185.51 120.757 185.612 120.581C185.713 120.406 185.937 120.345 186.114 120.447L189.88 122.621C190.056 122.723 190.116 122.947 190.015 123.123C189.947 123.241 189.823 123.307 189.696 123.307H189.696Z" fill="white"/>
<path d="M187.813 124.394C187.61 124.394 187.445 124.23 187.445 124.027V119.678C187.445 119.474 187.61 119.31 187.813 119.31C188.016 119.31 188.18 119.474 188.18 119.678V124.027C188.18 124.23 188.016 124.394 187.813 124.394Z" fill="white"/>
<path d="M193.352 123.307C193.225 123.307 193.102 123.241 193.034 123.123C192.932 122.947 192.992 122.723 193.168 122.621L196.935 120.447C197.111 120.345 197.335 120.406 197.437 120.581C197.538 120.757 197.477 120.982 197.302 121.083L193.536 123.257C193.477 123.291 193.414 123.307 193.352 123.307Z" fill="white"/>
<path d="M197.118 123.307C197.056 123.307 196.992 123.291 196.935 123.257L193.168 121.083C192.993 120.982 192.932 120.757 193.034 120.581C193.135 120.406 193.359 120.345 193.535 120.447L197.302 122.621C197.478 122.723 197.538 122.947 197.436 123.123C197.368 123.241 197.245 123.307 197.118 123.307Z" fill="white"/>
<path d="M195.235 124.394C195.032 124.394 194.867 124.23 194.867 124.027V119.678C194.867 119.474 195.032 119.31 195.235 119.31C195.437 119.31 195.602 119.474 195.602 119.678V124.027C195.602 124.23 195.437 124.394 195.235 124.394Z" fill="white"/>
<path d="M200.774 123.307C200.647 123.307 200.524 123.241 200.455 123.123C200.354 122.947 200.414 122.723 200.59 122.621L204.356 120.447C204.533 120.345 204.757 120.406 204.858 120.581C204.96 120.757 204.9 120.982 204.724 121.083L200.957 123.257C200.899 123.291 200.836 123.307 200.774 123.307H200.774Z" fill="white"/>
<path d="M204.54 123.307C204.477 123.307 204.414 123.291 204.356 123.257L200.59 121.083C200.414 120.982 200.354 120.757 200.455 120.581C200.557 120.406 200.781 120.345 200.957 120.447L204.724 122.621C204.899 122.723 204.96 122.947 204.858 123.123C204.79 123.241 204.666 123.307 204.54 123.307Z" fill="white"/>
<path d="M202.656 124.394C202.454 124.394 202.289 124.23 202.289 124.027V119.678C202.289 119.474 202.454 119.31 202.656 119.31C202.859 119.31 203.024 119.474 203.024 119.678V124.027C203.024 124.23 202.859 124.394 202.656 124.394Z" fill="white"/>
<path d="M208.196 123.307C208.069 123.307 207.946 123.241 207.877 123.123C207.776 122.947 207.836 122.723 208.012 122.621L211.778 120.447C211.954 120.345 212.178 120.406 212.28 120.581C212.382 120.757 212.321 120.982 212.146 121.083L208.379 123.257C208.321 123.291 208.258 123.307 208.196 123.307Z" fill="white"/>
<path d="M211.962 123.307C211.899 123.307 211.836 123.291 211.778 123.257L208.012 121.083C207.836 120.982 207.776 120.757 207.877 120.581C207.979 120.406 208.203 120.345 208.379 120.447L212.146 122.621C212.321 122.723 212.382 122.947 212.28 123.123C212.212 123.241 212.089 123.307 211.962 123.307H211.962Z" fill="white"/>
<path d="M210.078 124.394C209.875 124.394 209.711 124.23 209.711 124.027V119.678C209.711 119.474 209.875 119.31 210.078 119.31C210.281 119.31 210.446 119.474 210.446 119.678V124.027C210.446 124.23 210.281 124.394 210.078 124.394Z" fill="white"/>
<path d="M149.439 130.401C149.439 131.499 148.55 132.392 147.452 132.392C146.354 132.392 145.461 131.499 145.461 130.401C145.461 129.303 146.354 128.414 147.452 128.414C148.55 128.414 149.439 129.303 149.439 130.401Z" fill="#050505"/>
<path d="M147.453 132.53C146.279 132.53 145.324 131.575 145.324 130.401C145.324 129.227 146.279 128.276 147.453 128.276C148.627 128.276 149.578 129.229 149.578 130.401C149.578 131.573 148.625 132.53 147.453 132.53ZM147.453 128.551C146.431 128.551 145.6 129.381 145.6 130.401C145.6 131.421 146.431 132.254 147.453 132.254C148.475 132.254 149.303 131.423 149.303 130.401C149.303 129.379 148.473 128.551 147.453 128.551Z" fill="#050505"/>
<path d="M254.225 43.4506C254.149 43.4506 254.087 43.3888 254.087 43.3127V3.412H236.396C236.32 3.412 236.258 3.35023 236.258 3.27418C236.258 3.19813 236.32 3.13635 236.396 3.13635H254.225C254.301 3.13635 254.363 3.19813 254.363 3.27418V43.3127C254.363 43.3888 254.301 43.4506 254.225 43.4506Z" fill="white"/>
<path d="M254.228 55.2833C254.152 55.2833 254.09 55.2215 254.09 55.1454V47.7943C254.09 47.7183 254.152 47.6565 254.228 47.6565C254.304 47.6565 254.366 47.7183 254.366 47.7943V55.1454C254.366 55.2215 254.304 55.2833 254.228 55.2833Z" fill="white"/>
<path d="M230.199 3.06921C230.199 3.51077 230.376 3.91044 230.667 4.20107C230.957 4.49193 231.362 4.67375 231.804 4.67375C232.692 4.67375 233.408 3.95186 233.408 3.06921C233.408 2.62274 233.232 2.22283 232.941 1.9322C232.65 1.64649 232.245 1.4649 231.804 1.4649C231.362 1.4649 230.957 1.64649 230.667 1.9322C230.376 2.22307 230.199 2.62297 230.199 3.06921Z" fill="white"/>
<path d="M231.805 4.81158C231.346 4.81158 230.896 4.62461 230.57 4.29818C230.243 3.97129 230.062 3.53464 230.062 3.06898C230.062 2.60052 230.243 2.162 230.57 1.83463C230.899 1.51171 231.348 1.32709 231.805 1.32709C232.261 1.32709 232.71 1.51195 233.038 1.8337C233.367 2.16223 233.547 2.60075 233.547 3.06922C233.547 4.03002 232.765 4.81158 231.804 4.81158H231.805ZM231.805 1.6025C231.42 1.6025 231.041 1.75811 230.764 2.03025C230.489 2.30474 230.338 2.67422 230.338 3.06922C230.338 3.4614 230.489 3.82878 230.765 4.1035C231.039 4.37868 231.418 4.53616 231.804 4.53616C232.613 4.53616 233.271 3.87815 233.271 3.06922C233.271 2.67422 233.119 2.30497 232.844 2.02909C232.568 1.75812 232.189 1.6025 231.804 1.6025H231.805Z" fill="white"/>
<path d="M224.926 3.06921C224.926 3.51077 225.102 3.91044 225.393 4.20107C225.684 4.49193 226.089 4.67375 226.53 4.67375C227.418 4.67375 228.135 3.95186 228.135 3.06921C228.135 2.62274 227.958 2.22283 227.668 1.9322C227.377 1.64649 226.972 1.4649 226.53 1.4649C226.089 1.4649 225.684 1.64649 225.393 1.9322C225.102 2.22307 224.926 2.62297 224.926 3.06921Z" fill="white"/>
<path d="M226.531 4.81159C226.073 4.81159 225.623 4.62462 225.297 4.29866C224.969 3.97153 224.789 3.53489 224.789 3.06923C224.789 2.60076 224.969 2.16225 225.297 1.83488C225.625 1.51196 226.075 1.32733 226.531 1.32733C226.987 1.32733 227.437 1.51219 227.765 1.83394C228.093 2.16248 228.274 2.601 228.274 3.06946C228.274 4.03027 227.492 4.81183 226.531 4.81183V4.81159ZM226.531 1.60251C226.146 1.60251 225.767 1.75813 225.49 2.03027C225.216 2.30475 225.064 2.67424 225.064 3.06923C225.064 3.46141 225.216 3.82879 225.491 4.10351C225.766 4.37869 226.145 4.53617 226.531 4.53617C227.34 4.53617 227.998 3.87817 227.998 3.06923C227.998 2.67424 227.846 2.30499 227.571 2.0291C227.295 1.75813 226.916 1.60251 226.531 1.60251Z" fill="white"/>
<path d="M219.652 3.06921C219.652 3.51077 219.829 3.91044 220.12 4.20107C220.41 4.49193 220.816 4.67375 221.257 4.67375C222.145 4.67375 222.861 3.95186 222.861 3.06921C222.861 2.62274 222.685 2.22283 222.394 1.9322C222.103 1.64649 221.698 1.4649 221.257 1.4649C220.816 1.4649 220.41 1.64649 220.12 1.9322C219.829 2.22307 219.652 2.62297 219.652 3.06921Z" fill="white"/>
<path d="M221.258 4.81135C220.799 4.81135 220.349 4.62438 220.023 4.29842C219.696 3.97129 219.516 3.53464 219.516 3.06898C219.516 2.60052 219.696 2.162 220.023 1.83463C220.352 1.51171 220.802 1.32709 221.258 1.32709C221.714 1.32709 222.164 1.51195 222.491 1.8337C222.82 2.16224 223 2.60075 223 3.06922C223 4.03002 222.218 4.81158 221.258 4.81158L221.258 4.81135ZM221.258 1.60227C220.873 1.60227 220.494 1.75788 220.217 2.03002C219.942 2.3045 219.791 2.67399 219.791 3.06898C219.791 3.46117 219.942 3.82855 220.218 4.10326C220.492 4.37845 220.871 4.53593 221.258 4.53593C222.066 4.53593 222.724 3.87792 222.724 3.06898C222.724 2.67399 222.573 2.30451 222.297 2.02886C222.022 1.75788 221.642 1.60227 221.258 1.60227H221.258Z" fill="white"/>
<path d="M12.2472 74.4558C12.1712 74.4558 12.1094 74.3941 12.1094 74.318V8.30403C12.1094 8.22798 12.1712 8.1662 12.2472 8.1662H30.0768C30.1529 8.1662 30.2147 8.22798 30.2147 8.30403C30.2147 8.38008 30.1529 8.44185 30.0768 8.44185H12.385V74.318C12.385 74.3941 12.3233 74.4558 12.2472 74.4558Z" fill="white"/>
<path d="M12.2472 86.2885C12.1712 86.2885 12.1094 86.2267 12.1094 86.1507V78.7996C12.1094 78.7235 12.1712 78.6617 12.2472 78.6617C12.3233 78.6617 12.385 78.7235 12.385 78.7996V86.1507C12.385 86.2267 12.3233 86.2885 12.2472 86.2885Z" fill="white"/>
<path d="M36.2716 8.0988C36.2716 8.54012 36.0951 8.94003 35.8043 9.23066C35.5134 9.52152 35.1084 9.70334 34.667 9.70334C33.779 9.70334 33.0625 8.98145 33.0625 8.0988C33.0625 7.65233 33.2392 7.25242 33.5298 6.96156C33.8207 6.67585 34.2257 6.49426 34.667 6.49426C35.1084 6.49426 35.5134 6.67585 35.8043 6.96156C36.0951 7.25242 36.2716 7.65233 36.2716 8.0988Z" fill="white"/>
<path d="M34.6681 9.84095C33.7073 9.84095 32.9258 9.05963 32.9258 8.09882C32.9258 7.63035 33.106 7.19184 33.4333 6.86424C33.7621 6.54132 34.2118 6.35669 34.6679 6.35669C35.124 6.35669 35.574 6.54155 35.9016 6.8633C36.2299 7.19184 36.41 7.63035 36.41 8.09882C36.41 8.56448 36.2299 9.00112 35.9025 9.32826C35.5768 9.65398 35.127 9.84095 34.6681 9.84095ZM34.6681 6.63234C34.2834 6.63234 33.9044 6.78795 33.6273 7.0601C33.3528 7.33481 33.2012 7.70406 33.2012 8.09905C33.2012 8.90776 33.8592 9.56553 34.6679 9.56553C35.0542 9.56553 35.4333 9.40805 35.7078 9.13357C35.9832 8.85838 36.1346 8.491 36.1346 8.09905C36.1346 7.70406 35.983 7.33458 35.7078 7.05893C35.4319 6.78795 35.0528 6.63234 34.6681 6.63234Z" fill="white"/>
<path d="M41.545 8.0988C41.545 8.54012 41.3686 8.94003 41.0777 9.23066C40.7868 9.52152 40.3818 9.70334 39.9405 9.70334C39.0524 9.70334 38.3359 8.98145 38.3359 8.0988C38.3359 7.65233 38.5126 7.25242 38.8032 6.96156C39.0941 6.67585 39.4992 6.49426 39.9405 6.49426C40.3818 6.49426 40.7868 6.67585 41.0777 6.96156C41.3686 7.25242 41.545 7.65233 41.545 8.0988Z" fill="white"/>
<path d="M39.9416 9.84095C38.9808 9.84095 38.1992 9.05963 38.1992 8.09882C38.1992 7.63035 38.3794 7.19184 38.7068 6.86424C39.0353 6.54132 39.4851 6.35669 39.9414 6.35669C40.3977 6.35669 40.8472 6.54155 41.1752 6.8633C41.5035 7.19184 41.6837 7.63035 41.6837 8.09882C41.6837 8.56448 41.5035 9.00112 41.1762 9.32826C40.8502 9.65398 40.4002 9.84095 39.9416 9.84095ZM39.9416 6.63234C39.5569 6.63234 39.1776 6.78795 38.9008 7.0601C38.6263 7.33481 38.4746 7.70406 38.4746 8.09905C38.4746 8.90776 39.1326 9.56553 39.9414 9.56553C40.3275 9.56553 40.7065 9.40805 40.9812 9.13334C41.2567 8.85862 41.4081 8.49124 41.4081 8.09905C41.4081 7.70406 41.2564 7.33458 40.9812 7.05893C40.7051 6.78795 40.326 6.63234 39.9414 6.63234H39.9416Z" fill="white"/>
<path d="M46.8182 8.0988C46.8182 8.54012 46.6418 8.94003 46.3509 9.23066C46.0601 9.52152 45.655 9.70334 45.2139 9.70334C44.3259 9.70334 43.6094 8.98145 43.6094 8.0988C43.6094 7.65233 43.786 7.25242 44.0767 6.96156C44.3675 6.67585 44.7726 6.49426 45.2139 6.49426C45.6552 6.49426 46.0603 6.67585 46.3509 6.96156C46.6418 7.25242 46.8182 7.65233 46.8182 8.0988Z" fill="white"/>
<path d="M45.215 9.84095C44.2542 9.84095 43.4727 9.05963 43.4727 8.09882C43.4727 7.63035 43.6528 7.19184 43.9802 6.86424C44.3087 6.54132 44.7585 6.35669 45.2148 6.35669C45.6711 6.35669 46.1206 6.54155 46.4484 6.8633C46.7767 7.19184 46.9569 7.63035 46.9569 8.09882C46.9569 8.56448 46.7767 9.00112 46.4494 9.32826C46.1234 9.65398 45.6734 9.84095 45.2148 9.84095H45.215ZM45.215 6.63234C44.8303 6.63234 44.451 6.78795 44.1742 7.0601C43.8997 7.33458 43.7481 7.70406 43.7481 8.09905C43.7481 8.90776 44.4061 9.56553 45.2148 9.56553C45.6009 9.56553 45.98 9.40805 46.2547 9.13334C46.5301 8.85862 46.6815 8.49124 46.6815 8.09905C46.6815 7.70406 46.5299 7.33458 46.2547 7.05893C45.9786 6.78795 45.5995 6.63234 45.2148 6.63234H45.215Z" fill="white"/>
<path d="M118.196 12.1049C118.161 12.1049 118.126 12.0909 118.1 12.0654C118.064 12.0303 118.05 11.979 118.063 11.9313L119.641 6.10188C119.653 6.05531 119.689 6.01857 119.736 6.00547C119.782 5.9919 119.832 6.00407 119.867 6.03659L124.298 10.1395C124.335 10.1732 124.35 10.2243 124.339 10.2727C124.327 10.3211 124.29 10.3595 124.243 10.3731L118.234 12.0993C118.222 12.1028 118.209 12.1047 118.196 12.1047L118.196 12.1049ZM119.847 6.39344L118.393 11.7673L123.932 10.1758L119.847 6.39344Z" fill="#050505"/>
<path d="M209.233 31.4787C209.23 31.4787 209.227 31.4787 209.223 31.4784C209.185 31.4756 209.151 31.4576 209.127 31.4281L206.043 27.657C205.996 27.6004 206.003 27.5171 206.057 27.4679L209.663 24.1893C209.691 24.1636 209.73 24.1489 209.766 24.1538C209.804 24.1566 209.839 24.1746 209.862 24.2041L212.947 27.9705C212.993 28.0272 212.987 28.11 212.933 28.1596L209.326 31.4429C209.301 31.4663 209.268 31.4787 209.233 31.4787ZM206.339 27.5837L209.248 31.1412L212.65 28.0438L209.741 24.4907L206.339 27.584V27.5837Z" fill="#050505"/>
<path d="M63.0918 64.9143C61.6132 64.9143 60.4102 63.7113 60.4102 62.2328C60.4102 60.7544 61.6132 59.5512 63.0918 59.5512C64.5704 59.5512 65.7732 60.7542 65.7732 62.2328C65.7732 63.7115 64.5702 64.9143 63.0918 64.9143ZM63.0918 59.8269C61.7653 59.8269 60.6856 60.9063 60.6856 62.2331C60.6856 63.5599 61.765 64.6388 63.0918 64.6388C64.4186 64.6388 65.4978 63.5596 65.4978 62.2331C65.4978 60.9065 64.4186 59.8269 63.0918 59.8269Z" fill="#050505"/>
<path d="M241.277 60.3046C240.414 75.7764 235.247 85.551 224.734 88.2636C213.816 85.307 208.76 75.4954 207.805 60.2971C207.753 59.5279 208.239 58.8245 208.983 58.6085C213.633 57.2691 218.607 55.0721 223.831 52.2257C224.309 51.9674 224.885 51.9653 225.37 52.2149C230.499 54.8556 235.507 57.2019 240.138 58.6544C240.85 58.8788 241.318 59.5593 241.277 60.3046Z" fill="white"/>
<path d="M224.735 88.4014C224.723 88.4014 224.711 88.4 224.699 88.3967C214.249 85.5665 208.679 76.3778 207.668 60.3055C207.612 59.4631 208.137 58.7106 208.946 58.4763C213.411 57.1898 218.259 55.1058 223.766 52.105C224.283 51.8256 224.907 51.8209 225.434 52.0928C231.64 55.2876 236.188 57.2707 240.18 58.5231C240.951 58.7662 241.459 59.5017 241.415 60.3123C240.522 76.3284 234.922 85.7776 224.769 88.3974C224.758 88.4002 224.746 88.4014 224.735 88.4014ZM224.609 52.1677C224.364 52.1677 224.119 52.2273 223.898 52.3472C218.373 55.3573 213.507 57.4491 209.023 58.7412C208.339 58.9392 207.895 59.5754 207.943 60.2877C208.944 76.2098 214.438 85.3147 224.736 88.1215C234.737 85.5223 240.256 76.1611 241.14 60.2971C241.177 59.6126 240.749 58.9911 240.098 58.7857C236.09 57.5286 231.528 55.5401 225.308 52.3376C225.087 52.2241 224.848 52.1679 224.609 52.1679L224.609 52.1677Z" fill="black"/>
<path d="M224.749 85.2071C216.307 82.5624 211.857 74.8732 210.809 61.1303C215.034 59.8225 219.573 57.8534 224.627 55.1369C230.208 57.9887 234.49 59.8731 238.28 61.1413C237.334 74.832 232.9 82.7197 224.749 85.2071Z" fill="#3FB686"/>
<path d="M224.75 85.3449C224.737 85.3449 224.723 85.3428 224.709 85.3383C216.189 82.6693 211.728 74.9801 210.672 61.1406C210.667 61.0768 210.708 61.0176 210.769 60.9986C214.994 59.691 219.506 57.7336 224.563 55.0152C224.603 54.9935 224.651 54.9935 224.691 55.0138C230.238 57.8483 234.571 59.754 238.325 61.0108C238.385 61.0304 238.423 61.0882 238.419 61.1507C237.467 74.9188 233.009 82.8308 224.791 85.3388C224.778 85.3428 224.764 85.3449 224.75 85.3449ZM210.955 61.2293C212.015 74.8505 216.4 82.4272 224.751 85.0629C232.801 82.5851 237.18 74.7901 238.136 61.238C234.406 59.9816 230.109 58.09 224.63 55.292C219.624 57.9788 215.149 59.9222 210.955 61.2293Z" fill="#3FB686"/>
<path d="M222.348 74.8706C222.203 74.8706 222.063 74.8133 221.96 74.7106L217.526 70.3118C217.31 70.0977 217.309 69.7486 217.523 69.5326C217.738 69.3171 218.086 69.3147 218.303 69.5298L222.345 73.5403L231.829 63.98C232.044 63.7645 232.392 63.7622 232.609 63.9772C232.825 64.1913 232.826 64.5404 232.612 64.7564L222.739 74.7077C222.636 74.8114 222.496 74.8699 222.35 74.8706H222.348Z" fill="white"/>
</g>
<defs>
<clipPath id="clip0_2007_9453">
<rect width="260" height="156" fill="white"/>
</clipPath>
</defs>
</svg>
