<svg width="240" height="176" viewBox="0 0 240 176" fill="none" xmlns="http://www.w3.org/2000/svg">
<g opacity="0.6">
<g clip-path="url(#clip0_2158_3007)">
<path d="M33.4893 33.3945H175.321C176.701 33.3962 178.024 33.9444 178.999 34.918C179.913 35.8308 180.453 37.0481 180.519 38.3311L180.525 38.5889V138.126H28.2852V38.5889C28.2871 37.2121 28.8361 35.8916 29.8115 34.918C30.726 34.0052 31.9458 33.4666 33.2314 33.4014L33.4893 33.3945Z" stroke="white" stroke-width="0.789855"/>
<path d="M175.59 40.3525V129.72H32.6416V40.3525H175.59Z" stroke="white" stroke-width="1.07921"/>
<path d="M187.174 142H22.2241L11.6658 139.994C11.1645 139.898 10.7123 139.631 10.387 139.238C10.0616 138.846 9.88331 138.352 9.88281 137.843V135.619H198.339V137.874C198.337 138.377 198.163 138.863 197.846 139.253C197.529 139.642 197.088 139.912 196.596 140.017L187.174 141.996V142Z" fill="#CCCCCC"/>
<path d="M117.194 138.521H91.0277C90.3783 138.52 89.7558 138.262 89.2966 137.804C88.8374 137.345 88.579 136.724 88.5781 136.076V135.622H119.649V136.076C119.648 136.724 119.389 137.345 118.93 137.804C118.471 138.262 117.849 138.52 117.199 138.521H117.194Z" fill="#2F2E41"/>
<path d="M74.2215 80.828H40.0246C39.4837 80.8275 38.965 80.6127 38.5825 80.2309C38.2 79.849 37.9849 79.3312 37.9844 78.7912V53.2644C37.9849 52.7244 38.2 52.2066 38.5825 51.8247C38.965 51.4429 39.4837 51.2281 40.0246 51.2276H74.2215C74.7625 51.2281 75.2811 51.4429 75.6636 51.8247C76.0461 52.2066 76.2612 52.7244 76.2617 53.2644V78.7895C76.2612 79.3295 76.0461 79.8473 75.6636 80.2292C75.2811 80.611 74.7625 80.8258 74.2215 80.8263V80.828Z" fill="#CCCCCC"/>
<path d="M40.0288 52.2998C39.7726 52.3002 39.5271 52.4019 39.3459 52.5828C39.1648 52.7636 39.0629 53.0087 39.0625 53.2645V78.7901C39.0629 79.0458 39.1648 79.291 39.3459 79.4718C39.5271 79.6526 39.7726 79.7544 40.0288 79.7548H74.2262C74.4824 79.7544 74.728 79.6526 74.9091 79.4718C75.0902 79.291 75.1921 79.0458 75.1925 78.7901V53.2645C75.1921 53.0087 75.0902 52.7636 74.9091 52.5828C74.728 52.4019 74.4824 52.3002 74.2262 52.2998H40.0288Z" fill="white"/>
<path d="M41.5462 54.2058H55.2417C55.3856 54.2058 55.5235 54.2629 55.6252 54.3644C55.7269 54.4659 55.7841 54.6036 55.7841 54.7472V61.3806C55.7841 61.5242 55.7269 61.6619 55.6252 61.7634C55.5235 61.865 55.3856 61.922 55.2417 61.922H41.5462C41.4024 61.922 41.2645 61.865 41.1627 61.7634C41.061 61.6619 41.0039 61.5242 41.0039 61.3806V54.7472C41.0039 54.6036 41.061 54.4659 41.1627 54.3644C41.2645 54.2629 41.4024 54.2058 41.5462 54.2058Z" fill="#DADADA"/>
<path d="M57.6829 54.2058H72.7347C72.806 54.2057 72.8766 54.2196 72.9426 54.2467C73.0085 54.2738 73.0684 54.3137 73.1189 54.364C73.1694 54.4143 73.2094 54.474 73.2367 54.5398C73.2641 54.6055 73.2781 54.676 73.2781 54.7472V55.6951C73.2781 55.8386 73.221 55.9764 73.1193 56.0779C73.0176 56.1794 72.8796 56.2365 72.7358 56.2365H57.6829C57.5391 56.2365 57.4012 56.1794 57.2995 56.0779C57.1978 55.9764 57.1406 55.8386 57.1406 55.6951V54.7472C57.1406 54.6036 57.1978 54.4659 57.2995 54.3644C57.4012 54.2629 57.5391 54.2058 57.6829 54.2058Z" fill="#E6E6E6"/>
<path d="M57.6829 57.0487H62.859C62.9303 57.0487 63.0008 57.0626 63.0667 57.0898C63.1325 57.117 63.1923 57.1569 63.2427 57.2072C63.2931 57.2575 63.3331 57.3172 63.3603 57.3829C63.3876 57.4486 63.4016 57.519 63.4016 57.5901V58.5379C63.4016 58.6091 63.3876 58.6795 63.3603 58.7452C63.3331 58.8109 63.2931 58.8706 63.2427 58.9209C63.1923 58.9712 63.1325 59.011 63.0667 59.0382C63.0008 59.0654 62.9303 59.0794 62.859 59.0794H57.6829C57.5391 59.0794 57.4012 59.0223 57.2995 58.9208C57.1978 58.8192 57.1406 58.6815 57.1406 58.5379V57.5901C57.1406 57.4465 57.1978 57.3088 57.2995 57.2073C57.4012 57.1057 57.5391 57.0487 57.6829 57.0487Z" fill="#E6E6E6"/>
<path d="M57.6829 59.8914H72.7347C72.806 59.8913 72.8766 59.9052 72.9426 59.9323C73.0085 59.9595 73.0684 59.9993 73.1189 60.0496C73.1694 60.0999 73.2094 60.1596 73.2367 60.2254C73.2641 60.2911 73.2781 60.3616 73.2781 60.4328V61.3807C73.2781 61.5243 73.221 61.662 73.1193 61.7635C73.0176 61.865 72.8796 61.9221 72.7358 61.9221H57.6829C57.5391 61.9221 57.4012 61.865 57.2995 61.7635C57.1978 61.662 57.1406 61.5243 57.1406 61.3807V60.4328C57.1406 60.2892 57.1978 60.1515 57.2995 60.05C57.4012 59.9485 57.5391 59.8914 57.6829 59.8914Z" fill="#E6E6E6"/>
<path d="M41.5462 64.3588H72.7341C72.8779 64.3588 73.0158 64.4159 73.1175 64.5174C73.2192 64.6189 73.2764 64.7566 73.2764 64.9002V65.8481C73.2764 65.9917 73.2192 66.1294 73.1175 66.2309C73.0158 66.3324 72.8779 66.3895 72.7341 66.3895H41.5462C41.4024 66.3895 41.2645 66.3324 41.1627 66.2309C41.061 66.1294 41.0039 65.9917 41.0039 65.8481V64.9002C41.0039 64.7566 41.061 64.6189 41.1627 64.5174C41.2645 64.4159 41.4024 64.3588 41.5462 64.3588Z" fill="#E6E6E6"/>
<path d="M41.5462 67.2017H72.7341C72.8779 67.2017 73.0158 67.2588 73.1175 67.3603C73.2192 67.4618 73.2764 67.5995 73.2764 67.7431V68.691C73.2764 68.8346 73.2192 68.9723 73.1175 69.0738C73.0158 69.1753 72.8779 69.2324 72.7341 69.2324H41.5462C41.4024 69.2324 41.2645 69.1753 41.1627 69.0738C41.061 68.9723 41.0039 68.8346 41.0039 68.691V67.7431C41.0039 67.5995 41.061 67.4618 41.1627 67.3603C41.2645 67.2588 41.4024 67.2017 41.5462 67.2017Z" fill="#E6E6E6"/>
<path d="M41.5462 70.0444H72.7341C72.8779 70.0444 73.0158 70.1014 73.1175 70.2029C73.2192 70.3045 73.2764 70.4422 73.2764 70.5858V71.5336C73.2764 71.6772 73.2192 71.8149 73.1175 71.9165C73.0158 72.018 72.8779 72.075 72.7341 72.075H41.5462C41.4024 72.075 41.2645 72.018 41.1627 71.9165C41.061 71.8149 41.0039 71.6772 41.0039 71.5336V70.5858C41.0039 70.4422 41.061 70.3045 41.1627 70.2029C41.2645 70.1014 41.4024 70.0444 41.5462 70.0444Z" fill="#E6E6E6"/>
<path d="M41.5462 72.8872H72.7341C72.8779 72.8872 73.0158 72.9442 73.1175 73.0458C73.2192 73.1473 73.2764 73.285 73.2764 73.4286V74.3764C73.2764 74.52 73.2192 74.6578 73.1175 74.7593C73.0158 74.8608 72.8779 74.9179 72.7341 74.9179H41.5462C41.4024 74.9179 41.2645 74.8608 41.1627 74.7593C41.061 74.6578 41.0039 74.52 41.0039 74.3764V73.4286C41.0039 73.285 41.061 73.1473 41.1627 73.0458C41.2645 72.9442 41.4024 72.8872 41.5462 72.8872Z" fill="#E6E6E6"/>
<path d="M41.5462 75.7302H72.7341C72.8779 75.7302 73.0158 75.7872 73.1175 75.8887C73.2192 75.9903 73.2764 76.128 73.2764 76.2716V77.2194C73.2764 77.363 73.2192 77.5007 73.1175 77.6022C73.0158 77.7038 72.8779 77.7608 72.7341 77.7608H41.5462C41.4024 77.7608 41.2645 77.7038 41.1627 77.6022C41.061 77.5007 41.0039 77.363 41.0039 77.2194V76.2716C41.0039 76.128 41.061 75.9903 41.1627 75.8887C41.2645 75.7872 41.4024 75.7302 41.5462 75.7302Z" fill="#E6E6E6"/>
<path d="M121.21 80.828H87.0129C86.4719 80.8275 85.9533 80.6127 85.5708 80.2309C85.1883 79.849 84.9732 79.3312 84.9727 78.7912V53.2644C84.9732 52.7244 85.1883 52.2066 85.5708 51.8247C85.9533 51.4429 86.4719 51.2281 87.0129 51.2276H121.21C121.751 51.2281 122.269 51.4429 122.652 51.8247C123.034 52.2066 123.249 52.7244 123.25 53.2644V78.7895C123.249 79.3295 123.034 79.8473 122.652 80.2292C122.269 80.611 121.751 80.8258 121.21 80.8263V80.828Z" fill="#CCCCCC"/>
<path d="M87.0132 52.2998C86.757 52.3002 86.5114 52.4019 86.3303 52.5828C86.1492 52.7636 86.0472 53.0087 86.0469 53.2645V78.7901C86.0472 79.0458 86.1492 79.291 86.3303 79.4718C86.5114 79.6526 86.757 79.7544 87.0132 79.7548H121.211C121.467 79.7544 121.712 79.6526 121.893 79.4718C122.075 79.291 122.177 79.0458 122.177 78.7901V53.2645C122.177 53.0087 122.075 52.7636 121.893 52.5828C121.712 52.4019 121.467 52.3002 121.211 52.2998H87.0132Z" fill="white"/>
<path d="M88.5345 54.2058H102.23C102.374 54.2058 102.512 54.2629 102.613 54.3644C102.715 54.4659 102.772 54.6036 102.772 54.7472V61.3806C102.772 61.5242 102.715 61.6619 102.613 61.7634C102.512 61.865 102.374 61.922 102.23 61.922H88.5345C88.3907 61.922 88.2527 61.865 88.151 61.7634C88.0493 61.6619 87.9922 61.5242 87.9922 61.3806V54.7472C87.9922 54.6036 88.0493 54.4659 88.151 54.3644C88.2527 54.2629 88.3907 54.2058 88.5345 54.2058Z" fill="#DADADA"/>
<path d="M104.667 54.2058H119.719C119.79 54.2057 119.861 54.2196 119.927 54.2467C119.993 54.2738 120.053 54.3137 120.103 54.364C120.154 54.4143 120.194 54.474 120.221 54.5398C120.248 54.6055 120.263 54.676 120.263 54.7472V55.6951C120.263 55.8386 120.205 55.9764 120.104 56.0779C120.002 56.1794 119.864 56.2365 119.72 56.2365H104.667C104.523 56.2365 104.386 56.1794 104.284 56.0779C104.182 55.9764 104.125 55.8386 104.125 55.6951V54.7472C104.125 54.6036 104.182 54.4659 104.284 54.3644C104.386 54.2629 104.523 54.2058 104.667 54.2058Z" fill="#E6E6E6"/>
<path d="M104.667 57.0487H109.843C109.915 57.0487 109.985 57.0626 110.051 57.0898C110.117 57.117 110.177 57.1569 110.227 57.2072C110.277 57.2575 110.317 57.3172 110.345 57.3829C110.372 57.4486 110.386 57.519 110.386 57.5901V58.5379C110.386 58.6091 110.372 58.6795 110.345 58.7452C110.317 58.8109 110.277 58.8706 110.227 58.9209C110.177 58.9712 110.117 59.011 110.051 59.0382C109.985 59.0654 109.915 59.0794 109.843 59.0794H104.667C104.523 59.0794 104.386 59.0223 104.284 58.9208C104.182 58.8192 104.125 58.6815 104.125 58.5379V57.5901C104.125 57.4465 104.182 57.3088 104.284 57.2073C104.386 57.1057 104.523 57.0487 104.667 57.0487Z" fill="#E6E6E6"/>
<path d="M104.667 59.8914H119.719C119.79 59.8913 119.861 59.9052 119.927 59.9323C119.993 59.9595 120.053 59.9993 120.103 60.0496C120.154 60.0999 120.194 60.1596 120.221 60.2254C120.248 60.2911 120.263 60.3616 120.263 60.4328V61.3807C120.263 61.5243 120.205 61.662 120.104 61.7635C120.002 61.865 119.864 61.9221 119.72 61.9221H104.667C104.523 61.9221 104.386 61.865 104.284 61.7635C104.182 61.662 104.125 61.5243 104.125 61.3807V60.4328C104.125 60.2892 104.182 60.1515 104.284 60.05C104.386 59.9485 104.523 59.8914 104.667 59.8914Z" fill="#E6E6E6"/>
<path d="M88.5345 64.3588H119.722C119.866 64.3588 120.004 64.4159 120.106 64.5174C120.208 64.6189 120.265 64.7566 120.265 64.9002V65.8481C120.265 65.9917 120.208 66.1294 120.106 66.2309C120.004 66.3324 119.866 66.3895 119.722 66.3895H88.5345C88.3907 66.3895 88.2527 66.3324 88.151 66.2309C88.0493 66.1294 87.9922 65.9917 87.9922 65.8481V64.9002C87.9922 64.7566 88.0493 64.6189 88.151 64.5174C88.2527 64.4159 88.3907 64.3588 88.5345 64.3588Z" fill="#E6E6E6"/>
<path d="M88.5345 67.2017H119.722C119.866 67.2017 120.004 67.2588 120.106 67.3603C120.208 67.4618 120.265 67.5995 120.265 67.7431V68.691C120.265 68.8346 120.208 68.9723 120.106 69.0738C120.004 69.1753 119.866 69.2324 119.722 69.2324H88.5345C88.3907 69.2324 88.2527 69.1753 88.151 69.0738C88.0493 68.9723 87.9922 68.8346 87.9922 68.691V67.7431C87.9922 67.5995 88.0493 67.4618 88.151 67.3603C88.2527 67.2588 88.3907 67.2017 88.5345 67.2017Z" fill="#E6E6E6"/>
<path d="M88.5345 70.0444H119.722C119.866 70.0444 120.004 70.1014 120.106 70.2029C120.208 70.3045 120.265 70.4422 120.265 70.5858V71.5336C120.265 71.6772 120.208 71.8149 120.106 71.9165C120.004 72.018 119.866 72.075 119.722 72.075H88.5345C88.3907 72.075 88.2527 72.018 88.151 71.9165C88.0493 71.8149 87.9922 71.6772 87.9922 71.5336V70.5858C87.9922 70.4422 88.0493 70.3045 88.151 70.2029C88.2527 70.1014 88.3907 70.0444 88.5345 70.0444Z" fill="#E6E6E6"/>
<path d="M88.5345 72.8872H119.722C119.866 72.8872 120.004 72.9442 120.106 73.0458C120.208 73.1473 120.265 73.285 120.265 73.4286V74.3764C120.265 74.52 120.208 74.6578 120.106 74.7593C120.004 74.8608 119.866 74.9179 119.722 74.9179H88.5345C88.3907 74.9179 88.2527 74.8608 88.151 74.7593C88.0493 74.6578 87.9922 74.52 87.9922 74.3764V73.4286C87.9922 73.285 88.0493 73.1473 88.151 73.0458C88.2527 72.9442 88.3907 72.8872 88.5345 72.8872Z" fill="#E6E6E6"/>
<path d="M88.5345 75.7302H119.722C119.866 75.7302 120.004 75.7872 120.106 75.8887C120.208 75.9903 120.265 76.128 120.265 76.2716V77.2194C120.265 77.363 120.208 77.5007 120.106 77.6022C120.004 77.7038 119.866 77.7608 119.722 77.7608H88.5345C88.3907 77.7608 88.2527 77.7038 88.151 77.6022C88.0493 77.5007 87.9922 77.363 87.9922 77.2194V76.2716C87.9922 76.128 88.0493 75.9903 88.151 75.8887C88.2527 75.7872 88.3907 75.7302 88.5345 75.7302Z" fill="#E6E6E6"/>
<path d="M168.198 80.828H134.001C133.46 80.8275 132.942 80.6127 132.559 80.2309C132.177 79.849 131.961 79.3312 131.961 78.7912V53.2644C131.961 52.7244 132.177 52.2066 132.559 51.8247C132.942 51.4429 133.46 51.2281 134.001 51.2276H168.198C168.739 51.2281 169.258 51.4429 169.64 51.8247C170.023 52.2066 170.238 52.7244 170.238 53.2644V78.7895C170.238 79.3295 170.023 79.8473 169.64 80.2292C169.258 80.611 168.739 80.8258 168.198 80.8263V80.828Z" fill="#CCCCCC"/>
<path d="M134.001 52.2998C133.745 52.3002 133.5 52.4019 133.319 52.5828C133.137 52.7636 133.036 53.0087 133.035 53.2645V78.7901C133.036 79.0458 133.137 79.291 133.319 79.4718C133.5 79.6526 133.745 79.7544 134.001 79.7548H168.199C168.455 79.7544 168.701 79.6526 168.882 79.4718C169.063 79.291 169.165 79.0458 169.165 78.7901V53.2645C169.165 53.0087 169.063 52.7636 168.882 52.5828C168.701 52.4019 168.455 52.3002 168.199 52.2998H134.001Z" fill="white"/>
<path d="M135.523 54.2058H149.218C149.362 54.2058 149.5 54.2629 149.602 54.3644C149.703 54.4659 149.761 54.6036 149.761 54.7472V61.3806C149.761 61.5242 149.703 61.6619 149.602 61.7634C149.5 61.865 149.362 61.922 149.218 61.922H135.523C135.379 61.922 135.241 61.865 135.139 61.7634C135.038 61.6619 134.98 61.5242 134.98 61.3806V54.7472C134.98 54.6036 135.038 54.4659 135.139 54.3644C135.241 54.2629 135.379 54.2058 135.523 54.2058Z" fill="#DADADA"/>
<path d="M151.66 54.2058H166.711C166.783 54.2057 166.853 54.2196 166.919 54.2467C166.985 54.2738 167.045 54.3137 167.095 54.364C167.146 54.4143 167.186 54.474 167.213 54.5398C167.241 54.6055 167.255 54.676 167.255 54.7472V55.6951C167.255 55.8386 167.198 55.9764 167.096 56.0779C166.994 56.1794 166.856 56.2365 166.712 56.2365H151.66C151.516 56.2365 151.378 56.1794 151.276 56.0779C151.174 55.9764 151.117 55.8386 151.117 55.6951V54.7472C151.117 54.6036 151.174 54.4659 151.276 54.3644C151.378 54.2629 151.516 54.2058 151.66 54.2058Z" fill="#E6E6E6"/>
<path d="M151.66 57.0487H156.836C156.907 57.0487 156.977 57.0626 157.043 57.0898C157.109 57.117 157.169 57.1569 157.219 57.2072C157.27 57.2575 157.31 57.3172 157.337 57.3829C157.364 57.4486 157.378 57.519 157.378 57.5901V58.5379C157.378 58.6091 157.364 58.6795 157.337 58.7452C157.31 58.8109 157.27 58.8706 157.219 58.9209C157.169 58.9712 157.109 59.011 157.043 59.0382C156.977 59.0654 156.907 59.0794 156.836 59.0794H151.66C151.516 59.0794 151.378 59.0223 151.276 58.9208C151.174 58.8192 151.117 58.6815 151.117 58.5379V57.5901C151.117 57.4465 151.174 57.3088 151.276 57.2073C151.378 57.1057 151.516 57.0487 151.66 57.0487Z" fill="#E6E6E6"/>
<path d="M151.66 59.8914H166.711C166.783 59.8913 166.853 59.9052 166.919 59.9323C166.985 59.9595 167.045 59.9993 167.095 60.0496C167.146 60.0999 167.186 60.1596 167.213 60.2254C167.241 60.2911 167.255 60.3616 167.255 60.4328V61.3807C167.255 61.5243 167.198 61.662 167.096 61.7635C166.994 61.865 166.856 61.9221 166.712 61.9221H151.66C151.516 61.9221 151.378 61.865 151.276 61.7635C151.174 61.662 151.117 61.5243 151.117 61.3807V60.4328C151.117 60.2892 151.174 60.1515 151.276 60.05C151.378 59.9485 151.516 59.8914 151.66 59.8914Z" fill="#E6E6E6"/>
<path d="M135.523 64.3588H166.711C166.854 64.3588 166.992 64.4159 167.094 64.5174C167.196 64.6189 167.253 64.7566 167.253 64.9002V65.8481C167.253 65.9917 167.196 66.1294 167.094 66.2309C166.992 66.3324 166.854 66.3895 166.711 66.3895H135.523C135.379 66.3895 135.241 66.3324 135.139 66.2309C135.038 66.1294 134.98 65.9917 134.98 65.8481V64.9002C134.98 64.7566 135.038 64.6189 135.139 64.5174C135.241 64.4159 135.379 64.3588 135.523 64.3588Z" fill="#E6E6E6"/>
<path d="M135.523 67.2017H166.711C166.854 67.2017 166.992 67.2588 167.094 67.3603C167.196 67.4618 167.253 67.5995 167.253 67.7431V68.691C167.253 68.8346 167.196 68.9723 167.094 69.0738C166.992 69.1753 166.854 69.2324 166.711 69.2324H135.523C135.379 69.2324 135.241 69.1753 135.139 69.0738C135.038 68.9723 134.98 68.8346 134.98 68.691V67.7431C134.98 67.5995 135.038 67.4618 135.139 67.3603C135.241 67.2588 135.379 67.2017 135.523 67.2017Z" fill="#E6E6E6"/>
<path d="M135.523 70.0444H166.711C166.854 70.0444 166.992 70.1014 167.094 70.2029C167.196 70.3045 167.253 70.4422 167.253 70.5858V71.5336C167.253 71.6772 167.196 71.8149 167.094 71.9165C166.992 72.018 166.854 72.075 166.711 72.075H135.523C135.379 72.075 135.241 72.018 135.139 71.9165C135.038 71.8149 134.98 71.6772 134.98 71.5336V70.5858C134.98 70.4422 135.038 70.3045 135.139 70.2029C135.241 70.1014 135.379 70.0444 135.523 70.0444Z" fill="#E6E6E6"/>
<path d="M135.523 72.8872H166.711C166.854 72.8872 166.992 72.9442 167.094 73.0458C167.196 73.1473 167.253 73.285 167.253 73.4286V74.3764C167.253 74.52 167.196 74.6578 167.094 74.7593C166.992 74.8608 166.854 74.9179 166.711 74.9179H135.523C135.379 74.9179 135.241 74.8608 135.139 74.7593C135.038 74.6578 134.98 74.52 134.98 74.3764V73.4286C134.98 73.285 135.038 73.1473 135.139 73.0458C135.241 72.9442 135.379 72.8872 135.523 72.8872Z" fill="#E6E6E6"/>
<path d="M135.523 75.7302H166.711C166.854 75.7302 166.992 75.7872 167.094 75.8887C167.196 75.9903 167.253 76.128 167.253 76.2716V77.2194C167.253 77.363 167.196 77.5007 167.094 77.6022C166.992 77.7038 166.854 77.7608 166.711 77.7608H135.523C135.379 77.7608 135.241 77.7038 135.139 77.6022C135.038 77.5007 134.98 77.363 134.98 77.2194V76.2716C134.98 76.128 135.038 75.9903 135.139 75.8887C135.241 75.7872 135.379 75.7302 135.523 75.7302Z" fill="#E6E6E6"/>
<path d="M168.198 115.364H134.001C133.46 115.364 132.942 115.149 132.559 114.767C132.177 114.385 131.961 113.867 131.961 113.327V87.8007C131.961 87.2606 132.177 86.7429 132.559 86.361C132.942 85.9791 133.46 85.7644 134.001 85.7639H168.198C168.739 85.7644 169.258 85.9791 169.64 86.361C170.023 86.7429 170.238 87.2606 170.238 87.8007V113.326C170.238 113.866 170.023 114.384 169.64 114.765C169.258 115.147 168.739 115.362 168.198 115.363V115.364Z" fill="#CCCCCC"/>
<path d="M74.2215 115.364H40.0246C39.4837 115.364 38.965 115.149 38.5825 114.767C38.2 114.385 37.9849 113.867 37.9844 113.327V87.8007C37.9849 87.2606 38.2 86.7429 38.5825 86.361C38.965 85.9791 39.4837 85.7644 40.0246 85.7639H74.2215C74.7625 85.7644 75.2811 85.9791 75.6636 86.361C76.0461 86.7429 76.2612 87.2606 76.2617 87.8007V113.326C76.2612 113.866 76.0461 114.384 75.6636 114.765C75.2811 115.147 74.7625 115.362 74.2215 115.363V115.364Z" fill="#CCCCCC"/>
<path d="M40.0288 86.8361C39.7726 86.8364 39.5271 86.9382 39.3459 87.119C39.1648 87.2998 39.0629 87.545 39.0625 87.8007V113.326C39.0629 113.582 39.1648 113.827 39.3459 114.008C39.5271 114.189 39.7726 114.291 40.0288 114.291H74.2262C74.4824 114.291 74.728 114.189 74.9091 114.008C75.0902 113.827 75.1921 113.582 75.1925 113.326V87.8007C75.1921 87.545 75.0902 87.2998 74.9091 87.119C74.728 86.9382 74.4824 86.8364 74.2262 86.8361H40.0288Z" fill="white"/>
<path d="M41.5462 88.7421H55.2417C55.3856 88.7421 55.5235 88.7992 55.6252 88.9007C55.7269 89.0022 55.7841 89.1399 55.7841 89.2835V95.9169C55.7841 96.0605 55.7269 96.1982 55.6252 96.2998C55.5235 96.4013 55.3856 96.4583 55.2417 96.4583H41.5462C41.4024 96.4583 41.2645 96.4013 41.1627 96.2998C41.061 96.1982 41.0039 96.0605 41.0039 95.9169V89.2835C41.0039 89.1399 41.061 89.0022 41.1627 88.9007C41.2645 88.7992 41.4024 88.7421 41.5462 88.7421Z" fill="#DADADA"/>
<path d="M57.6829 88.7421H72.7347C72.806 88.742 72.8766 88.7559 72.9426 88.783C73.0085 88.8102 73.0684 88.85 73.1189 88.9003C73.1694 88.9506 73.2094 89.0103 73.2367 89.0761C73.2641 89.1419 73.2781 89.2123 73.2781 89.2835V90.2314C73.2781 90.375 73.221 90.5127 73.1193 90.6142C73.0176 90.7157 72.8796 90.7728 72.7358 90.7728H57.6829C57.5391 90.7728 57.4012 90.7157 57.2995 90.6142C57.1978 90.5127 57.1406 90.375 57.1406 90.2314V89.2835C57.1406 89.14 57.1978 89.0022 57.2995 88.9007C57.4012 88.7992 57.5391 88.7421 57.6829 88.7421Z" fill="#E6E6E6"/>
<path d="M57.6829 91.585H62.859C62.9303 91.585 63.0008 91.599 63.0667 91.6262C63.1325 91.6533 63.1923 91.6932 63.2427 91.7435C63.2931 91.7938 63.3331 91.8535 63.3603 91.9192C63.3876 91.9849 63.4016 92.0553 63.4016 92.1264V93.0743C63.4016 93.1454 63.3876 93.2158 63.3603 93.2815C63.3331 93.3472 63.2931 93.4069 63.2427 93.4572C63.1923 93.5075 63.1325 93.5474 63.0667 93.5745C63.0008 93.6017 62.9303 93.6157 62.859 93.6157H57.6829C57.5391 93.6157 57.4012 93.5586 57.2995 93.4571C57.1978 93.3556 57.1406 93.2179 57.1406 93.0743V92.1264C57.1406 91.9828 57.1978 91.8451 57.2995 91.7436C57.4012 91.6421 57.5391 91.585 57.6829 91.585Z" fill="#E6E6E6"/>
<path d="M57.6829 94.4276H72.7347C72.806 94.4275 72.8766 94.4414 72.9426 94.4685C73.0085 94.4956 73.0684 94.5355 73.1189 94.5858C73.1694 94.6361 73.2094 94.6958 73.2367 94.7616C73.2641 94.8273 73.2781 94.8978 73.2781 94.969V95.9169C73.2781 96.0604 73.221 96.1982 73.1193 96.2997C73.0176 96.4012 72.8796 96.4583 72.7358 96.4583H57.6829C57.5391 96.4583 57.4012 96.4012 57.2995 96.2997C57.1978 96.1982 57.1406 96.0604 57.1406 95.9169V94.969C57.1406 94.8254 57.1978 94.6877 57.2995 94.5862C57.4012 94.4847 57.5391 94.4276 57.6829 94.4276Z" fill="#E6E6E6"/>
<path d="M41.5462 98.8951H72.7341C72.8779 98.8951 73.0158 98.9522 73.1175 99.0537C73.2192 99.1553 73.2764 99.293 73.2764 99.4366V100.384C73.2764 100.528 73.2192 100.666 73.1175 100.767C73.0158 100.869 72.8779 100.926 72.7341 100.926H41.5462C41.4024 100.926 41.2645 100.869 41.1627 100.767C41.061 100.666 41.0039 100.528 41.0039 100.384V99.4366C41.0039 99.293 41.061 99.1553 41.1627 99.0537C41.2645 98.9522 41.4024 98.8951 41.5462 98.8951Z" fill="#E6E6E6"/>
<path d="M41.5462 101.738H72.7341C72.8779 101.738 73.0158 101.795 73.1175 101.897C73.2192 101.998 73.2764 102.136 73.2764 102.279V103.227C73.2764 103.371 73.2192 103.509 73.1175 103.61C73.0158 103.712 72.8779 103.769 72.7341 103.769H41.5462C41.4024 103.769 41.2645 103.712 41.1627 103.61C41.061 103.509 41.0039 103.371 41.0039 103.227V102.279C41.0039 102.136 41.061 101.998 41.1627 101.897C41.2645 101.795 41.4024 101.738 41.5462 101.738Z" fill="#E6E6E6"/>
<path d="M41.5462 104.581H72.7341C72.8779 104.581 73.0158 104.638 73.1175 104.739C73.2192 104.841 73.2764 104.978 73.2764 105.122V106.07C73.2764 106.213 73.2192 106.351 73.1175 106.453C73.0158 106.554 72.8779 106.611 72.7341 106.611H41.5462C41.4024 106.611 41.2645 106.554 41.1627 106.453C41.061 106.351 41.0039 106.213 41.0039 106.07V105.122C41.0039 104.978 41.061 104.841 41.1627 104.739C41.2645 104.638 41.4024 104.581 41.5462 104.581Z" fill="#E6E6E6"/>
<path d="M41.5462 107.424H72.7341C72.8779 107.424 73.0158 107.481 73.1175 107.582C73.2192 107.684 73.2764 107.821 73.2764 107.965V108.913C73.2764 109.056 73.2192 109.194 73.1175 109.296C73.0158 109.397 72.8779 109.454 72.7341 109.454H41.5462C41.4024 109.454 41.2645 109.397 41.1627 109.296C41.061 109.194 41.0039 109.056 41.0039 108.913V107.965C41.0039 107.821 41.061 107.684 41.1627 107.582C41.2645 107.481 41.4024 107.424 41.5462 107.424Z" fill="#E6E6E6"/>
<path d="M41.5462 110.266H72.7341C72.8779 110.266 73.0158 110.324 73.1175 110.425C73.2192 110.527 73.2764 110.664 73.2764 110.808V111.756C73.2764 111.899 73.2192 112.037 73.1175 112.139C73.0158 112.24 72.8779 112.297 72.7341 112.297H41.5462C41.4024 112.297 41.2645 112.24 41.1627 112.139C41.061 112.037 41.0039 111.899 41.0039 111.756V110.808C41.0039 110.664 41.061 110.527 41.1627 110.425C41.2645 110.324 41.4024 110.266 41.5462 110.266Z" fill="#E6E6E6"/>
<path d="M121.21 115.364H87.0129C86.4719 115.364 85.9533 115.149 85.5708 114.767C85.1883 114.385 84.9732 113.867 84.9727 113.327V87.8007C84.9732 87.2606 85.1883 86.7429 85.5708 86.361C85.9533 85.9791 86.4719 85.7644 87.0129 85.7639H121.21C121.751 85.7644 122.269 85.9791 122.652 86.361C123.034 86.7429 123.249 87.2606 123.25 87.8007V113.326C123.249 113.866 123.034 114.384 122.652 114.765C122.269 115.147 121.751 115.362 121.21 115.363V115.364Z" fill="#CCCCCC"/>
<path d="M87.0132 86.8361C86.757 86.8364 86.5114 86.9382 86.3303 87.119C86.1492 87.2998 86.0472 87.545 86.0469 87.8007V113.326C86.0472 113.582 86.1492 113.827 86.3303 114.008C86.5114 114.189 86.757 114.291 87.0132 114.291H121.211C121.467 114.291 121.712 114.189 121.893 114.008C122.075 113.827 122.177 113.582 122.177 113.326V87.8007C122.177 87.545 122.075 87.2998 121.893 87.119C121.712 86.9382 121.467 86.8364 121.211 86.8361H87.0132Z" fill="white"/>
<path d="M88.5345 88.7421H102.23C102.374 88.7421 102.512 88.7992 102.613 88.9007C102.715 89.0022 102.772 89.1399 102.772 89.2835V95.9169C102.772 96.0605 102.715 96.1982 102.613 96.2998C102.512 96.4013 102.374 96.4583 102.23 96.4583H88.5345C88.3907 96.4583 88.2527 96.4013 88.151 96.2998C88.0493 96.1982 87.9922 96.0605 87.9922 95.9169V89.2835C87.9922 89.1399 88.0493 89.0022 88.151 88.9007C88.2527 88.7992 88.3907 88.7421 88.5345 88.7421Z" fill="#DADADA"/>
<path d="M104.667 88.7421H119.719C119.79 88.742 119.861 88.7559 119.927 88.783C119.993 88.8102 120.053 88.85 120.103 88.9003C120.154 88.9506 120.194 89.0103 120.221 89.0761C120.248 89.1419 120.263 89.2123 120.263 89.2835V90.2314C120.263 90.375 120.205 90.5127 120.104 90.6142C120.002 90.7157 119.864 90.7728 119.72 90.7728H104.667C104.523 90.7728 104.386 90.7157 104.284 90.6142C104.182 90.5127 104.125 90.375 104.125 90.2314V89.2835C104.125 89.14 104.182 89.0022 104.284 88.9007C104.386 88.7992 104.523 88.7421 104.667 88.7421Z" fill="#E6E6E6"/>
<path d="M104.667 91.585H109.843C109.915 91.585 109.985 91.599 110.051 91.6262C110.117 91.6533 110.177 91.6932 110.227 91.7435C110.277 91.7938 110.317 91.8535 110.345 91.9192C110.372 91.9849 110.386 92.0553 110.386 92.1264V93.0743C110.386 93.1454 110.372 93.2158 110.345 93.2815C110.317 93.3472 110.277 93.4069 110.227 93.4572C110.177 93.5075 110.117 93.5474 110.051 93.5745C109.985 93.6017 109.915 93.6157 109.843 93.6157H104.667C104.523 93.6157 104.386 93.5586 104.284 93.4571C104.182 93.3556 104.125 93.2179 104.125 93.0743V92.1264C104.125 91.9828 104.182 91.8451 104.284 91.7436C104.386 91.6421 104.523 91.585 104.667 91.585Z" fill="#E6E6E6"/>
<path d="M104.667 94.4276H119.719C119.79 94.4275 119.861 94.4414 119.927 94.4685C119.993 94.4956 120.053 94.5355 120.103 94.5858C120.154 94.6361 120.194 94.6958 120.221 94.7616C120.248 94.8273 120.263 94.8978 120.263 94.969V95.9169C120.263 96.0604 120.205 96.1982 120.104 96.2997C120.002 96.4012 119.864 96.4583 119.72 96.4583H104.667C104.523 96.4583 104.386 96.4012 104.284 96.2997C104.182 96.1982 104.125 96.0604 104.125 95.9169V94.969C104.125 94.8254 104.182 94.6877 104.284 94.5862C104.386 94.4847 104.523 94.4276 104.667 94.4276Z" fill="#E6E6E6"/>
<path d="M88.5345 98.8951H119.722C119.866 98.8951 120.004 98.9522 120.106 99.0537C120.208 99.1553 120.265 99.293 120.265 99.4366V100.384C120.265 100.528 120.208 100.666 120.106 100.767C120.004 100.869 119.866 100.926 119.722 100.926H88.5345C88.3907 100.926 88.2527 100.869 88.151 100.767C88.0493 100.666 87.9922 100.528 87.9922 100.384V99.4366C87.9922 99.293 88.0493 99.1553 88.151 99.0537C88.2527 98.9522 88.3907 98.8951 88.5345 98.8951Z" fill="#E6E6E6"/>
<path d="M88.5345 101.738H119.722C119.866 101.738 120.004 101.795 120.106 101.897C120.208 101.998 120.265 102.136 120.265 102.279V103.227C120.265 103.371 120.208 103.509 120.106 103.61C120.004 103.712 119.866 103.769 119.722 103.769H88.5345C88.3907 103.769 88.2527 103.712 88.151 103.61C88.0493 103.509 87.9922 103.371 87.9922 103.227V102.279C87.9922 102.136 88.0493 101.998 88.151 101.897C88.2527 101.795 88.3907 101.738 88.5345 101.738Z" fill="#E6E6E6"/>
<path d="M88.5345 104.581H119.722C119.866 104.581 120.004 104.638 120.106 104.739C120.208 104.841 120.265 104.978 120.265 105.122V106.07C120.265 106.213 120.208 106.351 120.106 106.453C120.004 106.554 119.866 106.611 119.722 106.611H88.5345C88.3907 106.611 88.2527 106.554 88.151 106.453C88.0493 106.351 87.9922 106.213 87.9922 106.07V105.122C87.9922 104.978 88.0493 104.841 88.151 104.739C88.2527 104.638 88.3907 104.581 88.5345 104.581Z" fill="#E6E6E6"/>
<path d="M88.5345 107.424H119.722C119.866 107.424 120.004 107.481 120.106 107.582C120.208 107.684 120.265 107.821 120.265 107.965V108.913C120.265 109.056 120.208 109.194 120.106 109.296C120.004 109.397 119.866 109.454 119.722 109.454H88.5345C88.3907 109.454 88.2527 109.397 88.151 109.296C88.0493 109.194 87.9922 109.056 87.9922 108.913V107.965C87.9922 107.821 88.0493 107.684 88.151 107.582C88.2527 107.481 88.3907 107.424 88.5345 107.424Z" fill="#E6E6E6"/>
<path d="M88.5345 110.266H119.722C119.866 110.266 120.004 110.324 120.106 110.425C120.208 110.527 120.265 110.664 120.265 110.808V111.756C120.265 111.899 120.208 112.037 120.106 112.139C120.004 112.24 119.866 112.297 119.722 112.297H88.5345C88.3907 112.297 88.2527 112.24 88.151 112.139C88.0493 112.037 87.9922 111.899 87.9922 111.756V110.808C87.9922 110.664 88.0493 110.527 88.151 110.425C88.2527 110.324 88.3907 110.266 88.5345 110.266Z" fill="#E6E6E6"/>
<path d="M215.483 90.8929C215.483 90.8929 207.681 91.9755 206.055 91.6578L201.72 87.5462C201.72 87.5462 197.601 90.6844 204.105 92.7386L216.242 94.1442L215.483 90.8929Z" fill="#ED9DA0"/>
<path d="M208.375 92.6277H178.166C177.688 92.6273 177.23 92.4376 176.892 92.1002C176.554 91.7628 176.364 91.3054 176.363 90.8283V68.2784C176.364 67.8013 176.554 67.3439 176.892 67.0065C177.23 66.6692 177.688 66.4794 178.166 66.479H208.375C208.853 66.4794 209.311 66.6692 209.649 67.0065C209.987 67.3439 210.177 67.8013 210.177 68.2784V90.8269C210.177 91.304 209.987 91.7614 209.649 92.0988C209.311 92.4362 208.853 92.6259 208.375 92.6263V92.6277Z" fill="#CCCCCC"/>
<path d="M178.166 67.426C177.94 67.4263 177.723 67.5161 177.563 67.6759C177.403 67.8356 177.313 68.0522 177.312 68.2781V90.8272C177.313 91.0531 177.403 91.2697 177.563 91.4294C177.723 91.5891 177.94 91.679 178.166 91.6793H208.376C208.602 91.6789 208.819 91.589 208.979 91.4293C209.139 91.2696 209.229 91.0531 209.229 90.8272V68.2781C209.229 68.0522 209.139 67.8357 208.979 67.676C208.819 67.5162 208.602 67.4263 208.376 67.426H178.166Z" fill="white"/>
<path d="M179.505 69.11H191.605C191.668 69.11 191.73 69.1224 191.788 69.1464C191.846 69.1703 191.899 69.2055 191.943 69.2498C191.987 69.2941 192.023 69.3467 192.047 69.4046C192.071 69.4625 192.083 69.5245 192.083 69.5872V75.4482C192.083 75.5108 192.071 75.5729 192.047 75.6308C192.023 75.6886 191.987 75.7412 191.943 75.7856C191.899 75.8299 191.846 75.865 191.788 75.889C191.73 75.913 191.668 75.9253 191.605 75.9253H179.505C179.379 75.9253 179.257 75.875 179.167 75.7856C179.078 75.6961 179.027 75.5747 179.027 75.4482V69.5872C179.027 69.4606 179.078 69.3393 179.167 69.2498C179.257 69.1603 179.379 69.11 179.505 69.11Z" fill="#DADADA"/>
<path d="M193.763 69.11H207.061C207.124 69.11 207.186 69.1224 207.244 69.1464C207.302 69.1703 207.355 69.2055 207.399 69.2498C207.443 69.2941 207.479 69.3467 207.503 69.4046C207.527 69.4625 207.539 69.5245 207.539 69.5872V70.4256C207.539 70.4882 207.527 70.5503 207.503 70.6081C207.479 70.666 207.443 70.7186 207.399 70.7629C207.355 70.8072 207.302 70.8424 207.244 70.8664C207.186 70.8904 207.124 70.9027 207.061 70.9027H193.763C193.636 70.9027 193.515 70.8524 193.425 70.7629C193.336 70.6735 193.285 70.5521 193.285 70.4256V69.5872C193.285 69.4606 193.336 69.3393 193.425 69.2498C193.515 69.1603 193.636 69.11 193.763 69.11Z" fill="#E6E6E6"/>
<path d="M193.763 71.6212H198.337C198.463 71.6212 198.585 71.6715 198.675 71.761C198.764 71.8504 198.815 71.9718 198.815 72.0984V72.9367C198.815 73.0633 198.764 73.1846 198.675 73.2741C198.585 73.3636 198.463 73.4139 198.337 73.4139H193.763C193.636 73.4139 193.515 73.3636 193.425 73.2741C193.336 73.1846 193.285 73.0633 193.285 72.9367V72.0984C193.285 71.9718 193.336 71.8504 193.425 71.761C193.515 71.6715 193.636 71.6212 193.763 71.6212Z" fill="#E6E6E6"/>
<path d="M193.763 74.1326H207.061C207.124 74.1326 207.186 74.145 207.244 74.1689C207.302 74.1929 207.355 74.2281 207.399 74.2724C207.443 74.3167 207.479 74.3693 207.503 74.4272C207.527 74.4851 207.539 74.5471 207.539 74.6098V75.4481C207.539 75.5108 207.527 75.5728 207.503 75.6307C207.479 75.6886 207.443 75.7412 207.399 75.7855C207.355 75.8298 207.302 75.865 207.244 75.889C207.186 75.9129 207.124 75.9253 207.061 75.9253H193.763C193.636 75.9253 193.515 75.875 193.425 75.7855C193.336 75.696 193.285 75.5747 193.285 75.4481V74.6098C193.285 74.4832 193.336 74.3619 193.425 74.2724C193.515 74.1829 193.636 74.1326 193.763 74.1326Z" fill="#E6E6E6"/>
<path d="M179.505 78.0789H207.057C207.12 78.0789 207.182 78.0912 207.24 78.1152C207.298 78.1392 207.351 78.1743 207.395 78.2186C207.439 78.2629 207.475 78.3155 207.499 78.3734C207.523 78.4313 207.535 78.4933 207.535 78.556V79.3944C207.535 79.457 207.523 79.5191 207.499 79.577C207.475 79.6348 207.439 79.6874 207.395 79.7318C207.351 79.7761 207.298 79.8112 207.24 79.8352C207.182 79.8592 207.12 79.8715 207.057 79.8715H179.505C179.379 79.8715 179.257 79.8212 179.167 79.7318C179.078 79.6423 179.027 79.5209 179.027 79.3944V78.556C179.027 78.4295 179.078 78.3081 179.167 78.2186C179.257 78.1291 179.379 78.0789 179.505 78.0789Z" fill="#E6E6E6"/>
<path d="M179.505 80.5903H207.057C207.12 80.5903 207.182 80.6027 207.24 80.6267C207.298 80.6506 207.351 80.6858 207.395 80.7301C207.439 80.7744 207.475 80.827 207.499 80.8849C207.523 80.9428 207.535 81.0048 207.535 81.0675V81.9058C207.535 81.9685 207.523 82.0305 207.499 82.0884C207.475 82.1463 207.439 82.1989 207.395 82.2432C207.351 82.2875 207.298 82.3227 207.24 82.3467C207.182 82.3706 207.12 82.383 207.057 82.383H179.505C179.379 82.383 179.257 82.3327 179.167 82.2432C179.078 82.1537 179.027 82.0324 179.027 81.9058V81.0675C179.027 80.9409 179.078 80.8196 179.167 80.7301C179.257 80.6406 179.379 80.5903 179.505 80.5903Z" fill="#E6E6E6"/>
<path d="M179.505 83.1015H207.057C207.12 83.1015 207.182 83.1138 207.24 83.1378C207.298 83.1618 207.351 83.1969 207.395 83.2413C207.439 83.2856 207.475 83.3382 207.499 83.396C207.523 83.4539 207.535 83.516 207.535 83.5786V84.417C207.535 84.4797 207.523 84.5417 207.499 84.5996C207.475 84.6575 207.439 84.7101 207.395 84.7544C207.351 84.7987 207.298 84.8338 207.24 84.8578C207.182 84.8818 207.12 84.8941 207.057 84.8941H179.505C179.379 84.8941 179.257 84.8439 179.167 84.7544C179.078 84.6649 179.027 84.5436 179.027 84.417V83.5786C179.027 83.4521 179.078 83.3307 179.167 83.2413C179.257 83.1518 179.379 83.1015 179.505 83.1015Z" fill="#E6E6E6"/>
<path d="M179.505 85.6129H207.057C207.12 85.6129 207.182 85.6253 207.24 85.6492C207.298 85.6732 207.351 85.7084 207.395 85.7527C207.439 85.797 207.475 85.8496 207.499 85.9075C207.523 85.9654 207.535 86.0274 207.535 86.0901V86.9284C207.535 86.9911 207.523 87.0531 207.499 87.111C207.475 87.1689 207.439 87.2215 207.395 87.2658C207.351 87.3101 207.298 87.3453 207.24 87.3692C207.182 87.3932 207.12 87.4056 207.057 87.4056H179.505C179.379 87.4056 179.257 87.3553 179.167 87.2658C179.078 87.1763 179.027 87.055 179.027 86.9284V86.0901C179.027 85.9635 179.078 85.8421 179.167 85.7527C179.257 85.6632 179.379 85.6129 179.505 85.6129Z" fill="#E6E6E6"/>
<path d="M179.505 88.1244H207.057C207.12 88.1244 207.182 88.1367 207.24 88.1607C207.298 88.1847 207.351 88.2198 207.395 88.2641C207.439 88.3084 207.475 88.361 207.499 88.4189C207.523 88.4768 207.535 88.5389 207.535 88.6015V89.4399C207.535 89.5026 207.523 89.5646 207.499 89.6225C207.475 89.6804 207.439 89.733 207.395 89.7773C207.351 89.8216 207.298 89.8567 207.24 89.8807C207.182 89.9047 207.12 89.917 207.057 89.917H179.505C179.379 89.917 179.257 89.8668 179.167 89.7773C179.078 89.6878 179.027 89.5664 179.027 89.4399V88.6015C179.027 88.475 179.078 88.3536 179.167 88.2641C179.257 88.1747 179.379 88.1244 179.505 88.1244Z" fill="#E6E6E6"/>
<path d="M218.302 134.817L214.509 138.171C214.509 138.171 212.342 138.712 211.149 138.603C209.955 138.494 209.415 140.443 212.233 140.659C215.051 140.875 224.045 140.227 224.045 140.227C224.045 140.227 224.913 136.765 222.311 134.817H218.302Z" fill="#090814"/>
<path opacity="0.3" d="M224.18 138.728C224.173 139.122 224.128 139.515 224.043 139.9C224.043 139.9 215.04 140.548 212.232 140.332C210.878 140.229 210.301 139.724 210.198 139.24C210.075 139.795 210.565 140.529 212.232 140.657C215.05 140.873 224.043 140.225 224.043 140.225C224.149 139.733 224.195 139.23 224.18 138.728Z" fill="white"/>
<path d="M222.746 73.4747C222.746 73.4747 225.131 76.829 224.264 79.101C223.398 81.3731 228.81 76.7201 228.81 76.7201C228.81 76.7201 227.076 73.6908 227.942 70.4454L222.746 73.4747Z" fill="#ED9DA0"/>
<path d="M222.098 136.114L218.306 139.468C218.306 139.468 216.139 140.009 214.946 139.9C213.752 139.791 213.212 141.74 216.03 141.956C218.848 142.172 227.842 141.524 227.842 141.524C227.842 141.524 228.71 138.062 226.108 136.114H222.098Z" fill="#090814"/>
<path d="M223.178 135.356C222.906 135.671 222.569 135.924 222.19 136.097C221.812 136.27 221.4 136.36 220.983 136.36C219.088 136.45 217.002 135.356 217.002 135.356C218.41 134.167 212.127 119.128 213.325 97.816L216.359 95.9762L218.751 97.8081L221.019 99.5466C221.167 100.099 221.262 100.665 221.303 101.235C221.565 105.211 218.418 106.147 218.418 106.147C218.418 106.147 219.719 110.15 218.527 113.827C217.336 117.505 219.395 120.75 219.395 120.75C219.395 120.75 223.297 132.001 222.651 132.65C222.006 133.3 223.178 135.356 223.178 135.356Z" fill="#090814"/>
<path d="M226.972 136.655C225.129 138.927 220.796 136.655 220.796 136.655C220.884 136.575 220.95 136.473 220.988 136.36C221.783 134.203 218.306 123.889 218.306 123.889C215.382 122.484 215.049 119.13 215.049 119.13L214.283 101.794L214.184 99.5482L218.743 97.8098L224.804 100.847C225.006 101.584 225.106 102.345 225.103 103.109C225.043 106.603 222.202 107.446 222.202 107.446L226.972 136.655Z" fill="#090814"/>
<path opacity="0.1" d="M225.101 103.107C224.164 102.974 222.268 101.847 221.292 101.235L220.683 100.853C220.683 100.853 219.708 98.1483 217.107 100.204C216.261 100.89 215.306 101.429 214.281 101.799C213.889 101.938 213.485 102.039 213.074 102.102L213.314 97.8236L216.348 95.9838L218.741 97.8157L220.141 97.2824L224.802 100.853C225.003 101.587 225.103 102.346 225.101 103.107Z" fill="black"/>
<path d="M230.963 82.354C230.58 84.6758 229.748 89.4472 228.808 93.5969C227.507 99.3341 226.099 98.0315 225.448 99.4393C224.797 100.847 225.339 102.794 225.339 102.794C224.255 102.903 220.678 100.522 220.678 100.522C220.678 100.522 219.703 97.8173 217.102 99.8732C214.5 101.929 212.441 101.82 212.441 101.82C211.899 98.2496 215.908 88.7298 215.908 88.7298C215.908 88.7298 219.81 81.3728 220.676 80.3995C221.078 79.9226 221.364 79.3598 221.513 78.7547C221.58 78.5136 221.626 78.2673 221.651 78.0185C223.059 77.9096 226.528 75.5323 226.528 75.5323L229.237 75.1001V76.5057C229.269 76.5199 229.298 76.5379 229.325 76.5593C229.771 76.8998 230.333 78.3435 230.722 79.4814C231.038 80.4044 231.121 81.391 230.963 82.3538L230.963 82.354Z" fill="#E6E6E6"/>
<path opacity="0.1" d="M216.902 92.3537C216.946 91.5524 216.643 90.1429 216.469 89.4126C217.128 89.3264 217.543 89.2692 217.543 89.2692L218.309 92.5202L216.902 92.3537Z" fill="black"/>
<path d="M224.262 74.557C226.776 74.557 228.814 72.5227 228.814 70.0132C228.814 67.5037 226.776 65.4694 224.262 65.4694C221.749 65.4694 219.711 67.5037 219.711 70.0132C219.711 72.5227 221.749 74.557 224.262 74.557Z" fill="#ED9DA0"/>
<path d="M218.5 66.2287C218.96 65.7585 219.557 65.4458 220.205 65.3356C220.838 65.1997 221.531 65.1576 222.037 64.7619C222.611 64.3049 222.864 63.4366 223.569 63.2434C223.876 63.1819 224.194 63.2071 224.487 63.3161C225.613 63.6554 226.613 64.3211 227.36 65.2286C227.536 65.4887 227.76 65.7127 228.021 65.8885C228.177 65.9543 228.329 66.0283 228.477 66.1102C228.639 66.2381 228.767 66.4044 228.849 66.5941C229.357 67.6184 229.474 68.7925 229.178 69.8968C229.002 70.5487 228.684 71.1533 228.496 71.8092C228.308 72.4652 228.261 73.1938 228.605 73.7739C228.429 73.837 228.237 73.8361 228.062 73.7714C227.886 73.7066 227.74 73.5822 227.647 73.42C227.472 73.0892 227.343 72.7359 227.264 72.37C227.047 71.6666 226.641 71.0362 226.09 70.5476C225.749 70.2453 225.132 70.0424 224.9 70.4328C224.808 70.5838 224.814 70.7752 224.736 70.9319C224.641 71.075 224.493 71.1753 224.325 71.211C224.157 71.2468 223.981 71.2152 223.836 71.123C223.55 70.9256 223.349 70.6278 223.274 70.2891C222.827 68.7822 222.067 67.8335 220.452 68.478C219.851 68.7191 219.142 68.8816 218.563 68.4684C217.807 67.9231 217.955 66.8464 218.5 66.2287Z" fill="#090814"/>
<path opacity="0.3" d="M227.973 140.026C227.966 140.42 227.92 140.813 227.836 141.198C227.836 141.198 218.833 141.847 216.025 141.631C214.671 141.527 214.094 141.022 213.991 140.539C213.868 141.093 214.358 141.827 216.025 141.956C218.843 142.172 227.836 141.523 227.836 141.523C227.942 141.032 227.988 140.529 227.973 140.026Z" fill="white"/>
<path d="M218.299 92.5163L216.899 92.3538L206.172 91.1087C199.67 89.0528 204.779 87.8044 204.779 87.8044L208.122 90.0281C209.373 90.2788 214.277 89.6953 216.474 89.4143C217.133 89.3281 217.549 89.2709 217.549 89.2709L218.299 92.5163Z" fill="#ED9DA0"/>
<path d="M228.807 77.6955C228.807 77.6955 225.989 75.4234 221.764 82.7807C217.538 90.1379 216.562 88.9462 216.562 88.9462C216.562 88.9462 217.43 92.1972 216.995 92.8416C216.995 92.8416 219.919 92.6255 221.005 92.8416C222.09 93.0577 228.807 84.6179 228.807 84.6179C228.807 84.6179 232.282 79.8583 228.807 77.6955Z" fill="#E6E6E6"/>
</g>
</g>
<defs>
<clipPath id="clip0_2158_3007">
<rect width="221.159" height="109" fill="white" transform="translate(9.88281 33)"/>
</clipPath>
</defs>
</svg>
