<svg width="240" height="176" viewBox="0 0 240 176" fill="none" xmlns="http://www.w3.org/2000/svg">
<g opacity="0.6">
<g clip-path="url(#clip0_2158_2584)">
<path d="M46.4561 122.16L46.4261 122.153C46.3014 122.106 46.1916 122.027 46.1082 121.924C46.0248 121.82 45.971 121.696 45.9525 121.564C45.7292 120.54 45.357 119.554 44.8477 118.638C44.5501 118.105 44.2267 117.597 43.914 117.106C43.1075 115.84 42.3479 114.648 42.121 113.206C41.6257 110.062 44.0296 106.458 46.4988 105.185C49.2675 103.761 52.3338 104.195 55.2353 104.876C55.5364 104.947 55.8376 105.02 56.1388 105.095C61.3717 106.408 66.4278 108.346 71.1979 110.868C72.7969 111.713 74.4522 112.672 75.5747 114.276C76.6908 115.871 77.0706 118.039 76.5417 119.798C75.77 122.368 73.2203 123.794 71.212 123.832C69.2982 123.868 67.5157 123.076 65.6312 122.238C65.2144 122.054 64.7845 121.861 64.3566 121.68C59.7043 119.726 50.0429 119.754 49.6338 119.756L49.228 119.758L47.1147 121.929C47.0354 122.023 46.9325 122.094 46.8166 122.134C46.7008 122.174 46.5763 122.183 46.456 122.159L46.4561 122.16Z" fill="#E6E6E6"/>
<path d="M70.9306 115.775L50.4848 110.671C50.3668 110.641 50.2653 110.566 50.2027 110.462C50.14 110.358 50.1214 110.233 50.1508 110.115C50.1802 109.997 50.2553 109.895 50.3595 109.833C50.4638 109.77 50.5886 109.752 50.7066 109.781L71.1525 114.886C71.2705 114.915 71.3719 114.99 71.4346 115.094C71.4972 115.199 71.5159 115.324 71.4865 115.442C71.457 115.56 71.382 115.661 71.2777 115.724C71.1735 115.786 71.0486 115.805 70.9306 115.775Z" fill="#090814"/>
<path d="M70.2509 118.508L49.8051 113.404C49.6871 113.374 49.5856 113.299 49.523 113.195C49.4604 113.09 49.4417 112.966 49.4711 112.848C49.5005 112.73 49.5756 112.628 49.6799 112.565C49.7841 112.503 49.909 112.484 50.027 112.514L70.4751 117.619C70.5931 117.648 70.6946 117.723 70.7572 117.828C70.8198 117.932 70.8385 118.057 70.8091 118.175C70.7797 118.293 70.7046 118.394 70.6003 118.457C70.4961 118.519 70.3712 118.538 70.2532 118.509L70.2509 118.508Z" fill="#090814"/>
<path d="M51.5047 116.73L49.1215 116.135C49.0035 116.105 48.902 116.03 48.8394 115.926C48.7768 115.822 48.7581 115.697 48.7875 115.579C48.8169 115.461 48.892 115.359 48.9963 115.297C49.1005 115.234 49.2254 115.215 49.3434 115.245L51.7266 115.84C51.8446 115.87 51.9461 115.945 52.0087 116.049C52.0714 116.153 52.09 116.278 52.0606 116.396C52.0312 116.514 51.9561 116.616 51.8518 116.678C51.7476 116.741 51.6227 116.76 51.5047 116.73Z" fill="#090814"/>
<path d="M29.6585 111.531L29.6286 111.539C29.4971 111.559 29.3627 111.543 29.2395 111.493C29.1164 111.443 29.0091 111.36 28.9291 111.254C28.2375 110.466 27.4341 109.785 26.5447 109.231C26.0259 108.909 25.4972 108.622 24.9856 108.344C23.6667 107.628 22.4245 106.954 21.5269 105.802C19.5701 103.293 19.9266 98.9728 21.47 96.6609C23.2018 94.0704 26.0944 92.9611 28.9627 92.1482C29.2603 92.0638 29.5591 91.9813 29.8591 91.9008C35.073 90.5086 40.4352 89.7492 45.8301 89.639C47.6383 89.6017 49.5509 89.6367 51.3104 90.4951C53.0595 91.3482 54.4422 93.0601 54.8321 94.8561C55.4022 97.4786 53.8629 99.9641 52.1247 100.973C50.4678 101.933 48.5246 102.106 46.47 102.288C46.0163 102.329 45.5467 102.369 45.0849 102.419C40.0681 102.968 31.6302 107.684 31.2734 107.885L30.9195 108.084L30.1228 111.009C30.0987 111.129 30.0429 111.241 29.9612 111.333C29.8794 111.424 29.7747 111.492 29.6578 111.53L29.6585 111.531Z" fill="#D6D6E3"/>
<path d="M47.9738 94.0633L27.6139 99.5224C27.4964 99.554 27.3712 99.5375 27.2659 99.4767C27.1605 99.4159 27.0837 99.3157 27.0522 99.1982C27.0208 99.0807 27.0373 98.9555 27.0981 98.8502C27.159 98.7448 27.2591 98.6679 27.3767 98.6364L47.7366 93.1772C47.8541 93.1457 47.9793 93.1622 48.0846 93.223C48.19 93.2838 48.2668 93.384 48.2983 93.5015C48.3297 93.619 48.3132 93.7442 48.2524 93.8495C48.1915 93.9549 48.0914 94.0318 47.9738 94.0633Z" fill="#090814"/>
<path d="M48.7043 96.7842L28.3444 102.243C28.2269 102.275 28.1017 102.258 27.9963 102.198C27.891 102.137 27.8142 102.037 27.7827 101.919C27.7512 101.802 27.7677 101.676 27.8286 101.571C27.8894 101.466 27.9896 101.389 28.1071 101.357L48.4694 95.8975C48.5869 95.866 48.7121 95.8825 48.8174 95.9433C48.9227 96.0041 48.9996 96.1042 49.031 96.2217C49.0625 96.3392 49.046 96.4644 48.9852 96.5698C48.9243 96.6752 48.8241 96.7521 48.7066 96.7836L48.7043 96.7842Z" fill="#090814"/>
<path d="M31.4442 104.327L29.071 104.964C28.9535 104.995 28.8283 104.979 28.7229 104.918C28.6176 104.857 28.5407 104.757 28.5093 104.639C28.4778 104.522 28.4943 104.397 28.5551 104.291C28.616 104.186 28.7162 104.109 28.8337 104.077L31.2069 103.441C31.3244 103.409 31.4496 103.426 31.5549 103.487C31.6603 103.547 31.7371 103.648 31.7686 103.765C31.8001 103.883 31.7836 104.008 31.7227 104.113C31.6619 104.219 31.5617 104.296 31.4442 104.327Z" fill="#090814"/>
<path d="M40.2467 148.916L40.218 148.928C40.0899 148.964 39.9545 148.964 39.8262 148.93C39.6978 148.895 39.5813 148.826 39.489 148.73C38.7065 148.033 37.8261 147.454 36.8757 147.013C36.3217 146.756 35.7619 146.536 35.2202 146.323C33.824 145.773 32.5089 145.256 31.4776 144.222C29.2296 141.97 29.0572 137.638 30.3076 135.156C31.7109 132.373 34.4469 130.92 37.1949 129.763C37.4799 129.643 37.7665 129.525 38.0544 129.408C43.06 127.391 48.2899 125.983 53.6312 125.216C55.4215 124.959 57.3241 124.76 59.1751 125.398C61.0152 126.031 62.5961 127.562 63.2019 129.297C64.0873 131.83 62.8622 134.485 61.2598 135.698C59.7322 136.853 57.8245 137.262 55.8072 137.692C55.362 137.789 54.9008 137.886 54.4485 137.992C49.5358 139.149 41.7352 144.858 41.4054 145.101L41.0784 145.341L40.6439 148.342C40.6347 148.464 40.593 148.582 40.523 148.683C40.453 148.784 40.3573 148.864 40.2459 148.915L40.2467 148.916Z" fill="#DADADA"/>
<path d="M56.2965 129.346L36.7531 137.247C36.6403 137.292 36.5141 137.291 36.4021 137.244C36.2901 137.196 36.2017 137.106 36.1561 136.994C36.1106 136.881 36.1117 136.754 36.1592 136.642C36.2068 136.53 36.2969 136.442 36.4097 136.396L55.953 128.495C56.0658 128.45 56.1921 128.451 56.304 128.498C56.416 128.546 56.5045 128.636 56.55 128.749C56.5956 128.861 56.5944 128.988 56.5469 129.1C56.4993 129.212 56.4093 129.3 56.2965 129.346Z" fill="white"/>
<path d="M57.3512 131.958L37.8078 139.859C37.695 139.904 37.5688 139.903 37.4568 139.856C37.3448 139.808 37.2563 139.718 37.2108 139.605C37.1653 139.492 37.1664 139.366 37.2139 139.254C37.2615 139.142 37.3516 139.054 37.4644 139.008L57.0099 131.106C57.1227 131.061 57.249 131.062 57.3609 131.109C57.4729 131.157 57.5614 131.247 57.6069 131.359C57.6525 131.472 57.6513 131.599 57.6038 131.711C57.5562 131.823 57.4662 131.911 57.3534 131.957L57.3512 131.958Z" fill="white"/>
<path d="M41.1406 141.549L38.8625 142.47C38.7497 142.516 38.6235 142.514 38.5115 142.467C38.3995 142.419 38.311 142.329 38.2655 142.217C38.2199 142.104 38.2211 141.977 38.2686 141.865C38.3162 141.753 38.4063 141.665 38.5191 141.619L40.7971 140.698C40.9099 140.652 41.0361 140.654 41.1481 140.701C41.2601 140.749 41.3486 140.839 41.3941 140.952C41.4397 141.064 41.4385 141.191 41.391 141.303C41.3434 141.415 41.2534 141.503 41.1406 141.549Z" fill="white"/>
<path d="M183.449 32.6533C183.488 32.7783 183.537 32.9377 183.595 33.1299C183.756 33.6627 183.99 34.4491 184.282 35.4609C184.866 37.4851 185.682 40.4123 186.608 44.0215C188.462 51.241 190.758 61.1863 192.527 72.0918C194.297 82.9994 195.539 94.8549 195.289 105.898C195.042 116.842 193.329 126.936 189.261 134.52L53.7656 149.402C53.9605 148.999 54.2185 148.452 54.5205 147.767C55.2307 146.154 56.1959 143.775 57.2207 140.702C59.2703 134.556 61.5601 125.629 62.5273 114.493C64.4478 92.3815 61.1521 61.575 40.4502 26.5391L183.449 32.6533Z" stroke="white"/>
<path d="M61.5391 59.519L183.205 57.4627" stroke="#2F2E41" stroke-width="2" stroke-miterlimit="10"/>
<path d="M64.8281 68.9784L187.728 66.5106" stroke="#2F2E41" stroke-width="2" stroke-miterlimit="10"/>
<path d="M42.4727 31.0659L184.98 36.0801" stroke="#2F2E41" stroke-width="2" stroke-miterlimit="10"/>
<path d="M149.679 104.76C149.679 105.065 149.677 105.37 149.669 105.671V105.673C149.657 106.418 149.628 107.151 149.581 107.88C149.532 108.662 149.465 109.435 149.38 110.196C148.551 117.645 146.05 124.134 142.54 128.57C140.551 131.087 138.236 132.944 135.717 133.944C134.948 134.25 134.149 134.476 133.333 134.618C132.7 134.727 132.058 134.782 131.416 134.781C128.401 134.781 125.556 133.581 123.051 131.452C118.21 127.345 114.629 119.785 113.517 110.751V110.749C113.329 109.221 113.21 107.655 113.171 106.053C113.158 105.625 113.152 105.194 113.152 104.759C113.152 88.1775 121.329 74.7349 131.415 74.7349C133.803 74.7349 136.085 75.4885 138.177 76.8606C138.238 76.8994 138.3 76.9404 138.359 76.9835C139.51 77.7706 140.565 78.6903 141.501 79.7236C142.103 80.3832 142.666 81.0772 143.188 81.8022C143.856 82.7339 144.466 83.7065 145.013 84.7144C145.472 85.554 145.903 86.4388 146.301 87.3623V87.3643C146.714 88.3146 147.093 89.3046 147.437 90.3343V90.3363C148.474 93.4859 149.151 96.7431 149.455 100.045C149.603 101.582 149.679 103.156 149.679 104.76Z" fill="#D6D6E3" fill-opacity="0.55"/>
<path d="M50.7409 28.5688C50.8975 29.1561 50.7095 29.8375 50.3221 30.09C49.9347 30.3426 49.4964 30.0718 49.3404 29.4869C49.1844 28.902 49.3703 28.2219 49.7564 27.9676C50.1425 27.7133 50.5842 27.9815 50.7409 28.5688Z" fill="#DADADA"/>
<path d="M53.819 28.7223C53.9757 29.3096 53.7876 29.991 53.4002 30.2436C53.0128 30.4961 52.5745 30.2253 52.4185 29.6404C52.2625 29.0555 52.4484 28.3754 52.8345 28.1211C53.2206 27.8668 53.6626 28.135 53.819 28.7223Z" fill="#DADADA"/>
<path d="M47.4557 28.4155C47.6124 29.0028 47.4243 29.6842 47.0369 29.9368C46.6495 30.1894 46.2112 29.9186 46.0552 29.3334C45.8992 28.7483 46.0851 28.0685 46.4712 27.8142C46.8573 27.5599 47.2997 27.8282 47.4557 28.4155Z" fill="#DADADA"/>
<path d="M151.077 105.464C151.077 105.464 152.022 108.029 153.641 108.434C155.261 108.838 167.272 111.674 167.272 111.674C167.272 111.674 177.798 111.945 174.559 114.24C171.32 116.535 166.057 114.24 166.057 114.24C166.057 114.24 150.673 112.35 149.458 110.324C148.658 108.946 147.981 107.5 147.434 106.003L151.077 105.464Z" fill="#ED9DA0"/>
<path d="M145.951 94.1207C145.951 94.1207 153.642 106.679 152.698 106.949C151.754 107.219 142.982 110.055 142.577 108.974C142.172 107.894 142.172 102.898 142.172 102.898L145.951 94.1207Z" fill="#DADADA"/>
<path opacity="0.082" d="M145.951 94.1207C145.951 94.1207 153.642 106.679 152.698 106.949C151.754 107.219 142.982 110.055 142.577 108.974C142.172 107.894 142.172 102.898 142.172 102.898L145.951 94.1207Z" fill="black"/>
<path d="M124.815 89.9641L113.397 105.849C113.397 105.849 105.804 112.635 108.65 113.449C111.495 114.264 116.012 107.693 116.012 107.693L129.172 91.0652L124.815 89.9641Z" fill="#ED9DA0"/>
<path d="M142.44 91.6902L141.63 85.4786C142.103 84.8158 142.514 84.11 142.856 83.3705C142.108 82.5768 141.64 81.5602 141.524 80.4758C141.408 79.3913 141.65 78.2987 142.213 77.3647C142.776 76.4308 143.629 75.7067 144.641 75.3031C145.654 74.8995 146.771 74.8386 147.821 75.1296C148.871 75.4207 149.798 76.0477 150.459 76.9149C151.12 77.7821 151.479 78.8419 151.481 79.9326C151.484 81.0232 151.13 82.0846 150.473 82.9549C149.816 83.8252 148.892 84.4564 147.843 84.7523C146.958 86.1576 144.927 89.5218 145.139 90.4757C145.139 90.4757 144.869 91.2858 145.274 91.8259C145.679 92.3659 145.544 95.6066 145.544 95.6066L144.194 97.4972L142.44 91.6902Z" fill="#ED9DA0"/>
<path d="M131.417 134.783C128.402 134.783 125.557 133.583 123.052 131.453C123.087 123.544 123.007 115.457 123.007 115.457C123.007 115.457 120.848 111.947 128.272 105.06C128.272 105.06 129.442 101.644 130.654 98.2137C128.547 96.6066 126.535 94.8794 124.627 93.0406C122.738 91.1499 122.603 88.4493 127.326 88.1792C132.05 87.909 138.797 83.858 138.797 83.858L138.799 83.8591C138.873 83.8591 141.031 83.8786 141.962 84.9914C142.119 85.173 142.236 85.385 142.307 85.6141C142.536 86.3616 143.06 88.1861 143.585 90.0367C144.293 92.5298 145.005 95.0663 145.005 95.0663L145.367 92.0188C145.367 92.0188 146.491 93.5815 146.491 94.7957C146.491 94.8608 146.493 94.9351 146.495 95.0192C146.554 96.475 147.01 100.479 144.331 103.034C143.398 103.923 142.713 104.579 142.209 105.078C141.186 106.09 140.912 106.453 140.821 106.815C140.686 107.356 140.013 107.356 140.013 107.356L138.152 114.86C139.075 117.448 140.963 122.904 142.543 128.57C140.553 131.087 138.238 132.945 135.719 133.944C134.95 134.25 134.151 134.476 133.336 134.618C132.704 134.727 132.064 134.781 131.423 134.781L131.417 134.783Z" fill="#DADADA"/>
<path opacity="0.086" d="M142.543 128.571C140.554 131.088 138.239 132.945 135.719 133.945C134.95 134.251 134.152 134.477 133.336 134.618C133.768 125.032 134.265 116.482 134.614 115.727C135.425 113.971 138.348 114.095 138.348 114.095C138.348 114.095 137.992 114.087 138.348 115.08C139.271 117.669 140.963 122.904 142.543 128.571Z" fill="black"/>
<path d="M127.115 39.7074L119.573 40.8989C118.864 41.011 118.38 41.6773 118.492 42.387L119.683 49.9332C119.795 50.643 120.461 51.1276 121.17 51.0155L128.712 49.824C129.421 49.7119 129.905 49.0457 129.793 48.3359L128.602 40.7897C128.49 40.0799 127.825 39.5954 127.115 39.7074Z" fill="#DADADA"/>
<path d="M126.828 52.554C128.496 52.554 129.848 51.2012 129.848 49.5324C129.848 47.8635 128.496 46.5107 126.828 46.5107C125.161 46.5107 123.809 47.8635 123.809 49.5324C123.809 51.2012 125.161 52.554 126.828 52.554Z" stroke="#3F3D56" stroke-width="2" stroke-miterlimit="10"/>
<path d="M146.756 78.8349L145.677 77.5792C145.767 84.1914 147.913 89.0817 147.913 89.0817L138.761 88.5754L138.442 86.8216L137.781 88.2659L136.237 87.8353L135.793 86.7659L134.84 87.3369L136.795 78.8347C138.725 70.7237 144.612 71.9135 144.612 71.9135C152.698 71.8751 151.405 77.579 151.405 77.579L146.756 78.8349Z" fill="#2F2E41"/>
<path d="M176.896 112.519H176.845C176.628 112.495 176.421 112.412 176.247 112.28C176.072 112.148 175.937 111.971 175.855 111.768C175.091 110.221 174.105 108.795 172.927 107.535C172.24 106.802 171.522 106.121 170.827 105.461C169.035 103.761 167.348 102.16 166.411 99.9465C164.37 95.1231 166.774 88.4083 170.21 85.3914C174.063 82.0122 179.132 81.4819 184.035 81.4128C184.544 81.4054 185.054 81.4017 185.565 81.4017C194.442 81.4116 203.285 82.4908 211.905 84.6159C214.794 85.3272 217.818 86.1985 220.249 88.3131C222.665 90.416 224.133 93.7254 223.99 96.7464C223.781 101.158 220.277 104.453 217.086 105.316C214.045 106.137 210.885 105.582 207.541 104.995C206.803 104.868 206.04 104.731 205.285 104.613C197.079 103.348 181.666 107.246 181.014 107.413L180.367 107.578L177.856 111.888C177.767 112.069 177.631 112.223 177.462 112.334C177.293 112.444 177.098 112.507 176.896 112.517V112.519Z" fill="#DADADA"/>
<path d="M213.434 92.5629H178.755C178.555 92.5629 178.363 92.4834 178.221 92.3418C178.08 92.2002 178 92.0081 178 91.8078C178 91.6076 178.08 91.4155 178.221 91.2739C178.363 91.1323 178.555 91.0527 178.755 91.0527H213.434C213.634 91.0527 213.826 91.1323 213.967 91.2739C214.109 91.4155 214.188 91.6076 214.188 91.8078C214.188 92.0081 214.109 92.2002 213.967 92.3418C213.826 92.4834 213.634 92.5629 213.434 92.5629Z" fill="white"/>
<path d="M213.434 97.1971H178.755C178.554 97.1971 178.363 97.1176 178.221 96.976C178.08 96.8344 178 96.6423 178 96.442C178 96.2418 178.08 96.0497 178.221 95.9081C178.363 95.7665 178.554 95.687 178.755 95.687H213.436C213.636 95.687 213.828 95.7665 213.97 95.9081C214.111 96.0497 214.191 96.2418 214.191 96.442C214.191 96.6423 214.111 96.8344 213.97 96.976C213.828 97.1176 213.636 97.1971 213.436 97.1971H213.434Z" fill="white"/>
<path d="M182.797 101.83H178.755C178.555 101.83 178.363 101.751 178.221 101.609C178.08 101.467 178 101.275 178 101.075C178 100.875 178.08 100.683 178.221 100.541C178.363 100.4 178.555 100.32 178.755 100.32H182.797C182.997 100.32 183.189 100.4 183.33 100.541C183.472 100.683 183.551 100.875 183.551 101.075C183.551 101.275 183.472 101.467 183.33 101.609C183.189 101.751 182.997 101.83 182.797 101.83Z" fill="white"/>
<path d="M207.643 57.4627C207.576 57.4628 207.512 57.4895 207.465 57.5369C207.418 57.5843 207.391 57.6485 207.391 57.7155V58.8183C207.39 58.8521 207.396 58.8858 207.408 58.9173C207.42 58.9488 207.438 58.9776 207.462 59.0018C207.486 59.0261 207.514 59.0454 207.545 59.0586C207.576 59.0717 207.609 59.0785 207.643 59.0785C207.677 59.0785 207.711 59.0717 207.742 59.0586C207.773 59.0454 207.801 59.0261 207.824 59.0018C207.848 58.9776 207.866 58.9488 207.879 58.9173C207.891 58.8858 207.897 58.8521 207.896 58.8183V57.7155C207.896 57.6485 207.869 57.5843 207.822 57.5369C207.774 57.4895 207.71 57.4628 207.643 57.4627Z" fill="#090814"/>
<path d="M212.688 58.9554C212.617 58.902 212.544 58.8502 212.471 58.7995C212.427 58.7966 212.384 58.8053 212.344 58.8245C212.305 58.8438 212.271 58.8731 212.246 58.9094L211.626 59.8199C211.606 59.8473 211.592 59.8784 211.584 59.9113C211.577 59.9442 211.576 59.9782 211.582 60.0115C211.588 60.0447 211.6 60.0764 211.619 60.1047C211.637 60.1331 211.661 60.1575 211.689 60.1764C211.716 60.1954 211.748 60.2086 211.781 60.2153C211.814 60.222 211.848 60.2219 211.881 60.2152C211.914 60.2085 211.945 60.1952 211.973 60.1762C212.001 60.1572 212.025 60.1327 212.043 60.1044L212.664 59.1938C212.687 59.1593 212.702 59.1193 212.706 59.0777C212.71 59.036 212.704 58.994 212.688 58.9554Z" fill="#090814"/>
<path d="M215.507 63.11C215.495 63.0793 215.476 63.0513 215.453 63.0277C215.43 63.0041 215.402 62.9854 215.372 62.9725C215.341 62.9596 215.308 62.9529 215.275 62.9526C215.242 62.9524 215.209 62.9587 215.179 62.9712L214.157 63.3862C214.096 63.4122 214.048 63.4612 214.023 63.5224C213.998 63.5837 213.998 63.6524 214.023 63.7138C214.047 63.7752 214.095 63.8243 214.156 63.8506C214.217 63.8769 214.286 63.8783 214.347 63.8545L215.369 63.4395C215.431 63.4141 215.48 63.3651 215.506 63.3034C215.532 63.2416 215.532 63.1721 215.507 63.11Z" fill="#090814"/>
<path d="M203.617 59.821L202.996 58.9104C202.972 58.8741 202.938 58.8449 202.898 58.8256C202.859 58.8063 202.815 58.7977 202.771 58.8005C202.698 58.851 202.626 58.9031 202.555 58.9564C202.538 58.995 202.532 59.0371 202.536 59.0787C202.541 59.1204 202.555 59.1603 202.579 59.1949L203.199 60.1054C203.238 60.1589 203.296 60.1953 203.361 60.2068C203.425 60.2183 203.492 60.2039 203.547 60.1668C203.601 60.1297 203.639 60.0728 203.652 60.0082C203.665 59.9436 203.653 59.8764 203.617 59.821Z" fill="#090814"/>
<path d="M201.084 63.3871L200.063 62.9721C200.032 62.9589 199.999 62.952 199.965 62.9518C199.932 62.9516 199.898 62.958 199.867 62.9708C199.836 62.9836 199.808 63.0024 199.785 63.0262C199.761 63.05 199.742 63.0783 199.73 63.1094C199.717 63.1405 199.711 63.1738 199.711 63.2074C199.711 63.2409 199.718 63.2741 199.732 63.3049C199.745 63.3357 199.764 63.3636 199.789 63.3869C199.813 63.4101 199.841 63.4283 199.873 63.4404L200.894 63.8553C200.956 63.8792 201.024 63.8778 201.085 63.8515C201.146 63.8252 201.194 63.7761 201.219 63.7147C201.244 63.6533 201.244 63.5846 201.219 63.5233C201.193 63.462 201.145 63.4131 201.084 63.3871Z" fill="#090814"/>
<path d="M207.643 72.4894C207.576 72.4895 207.512 72.5162 207.465 72.5635C207.418 72.6109 207.391 72.6751 207.391 72.7422V73.845C207.39 73.8788 207.396 73.9124 207.408 73.944C207.42 73.9755 207.438 74.0042 207.462 74.0285C207.486 74.0528 207.514 74.072 207.545 74.0852C207.576 74.0984 207.609 74.1052 207.643 74.1052C207.677 74.1052 207.711 74.0984 207.742 74.0852C207.773 74.072 207.801 74.0528 207.824 74.0285C207.848 74.0042 207.866 73.9755 207.879 73.944C207.891 73.9124 207.897 73.8788 207.896 73.845V72.7422C207.896 72.6751 207.869 72.6109 207.822 72.5635C207.774 72.5162 207.71 72.4895 207.643 72.4894Z" fill="#090814"/>
<path d="M212.664 72.3662L212.043 71.4557C212.025 71.4273 212.001 71.4029 211.973 71.3839C211.945 71.3648 211.914 71.3516 211.881 71.3448C211.848 71.3381 211.814 71.3381 211.781 71.3448C211.748 71.3514 211.716 71.3646 211.689 71.3836C211.661 71.4026 211.637 71.427 211.619 71.4553C211.6 71.4836 211.588 71.5154 211.582 71.5486C211.576 71.5818 211.577 71.6159 211.584 71.6488C211.592 71.6817 211.606 71.7127 211.626 71.7401L212.246 72.6507C212.271 72.687 212.305 72.7163 212.344 72.7355C212.384 72.7548 212.427 72.7634 212.471 72.7606C212.544 72.7101 212.617 72.658 212.688 72.6047C212.704 72.5661 212.71 72.524 212.706 72.4824C212.702 72.4407 212.687 72.4008 212.664 72.3662Z" fill="#090814"/>
<path d="M215.369 68.1201L214.348 67.7052C214.317 67.692 214.284 67.685 214.25 67.6848C214.217 67.6846 214.184 67.6911 214.153 67.7038C214.122 67.7166 214.093 67.7354 214.07 67.7592C214.046 67.783 214.027 67.8113 214.015 67.8424C214.002 67.8735 213.996 67.9068 213.996 67.9404C213.996 67.974 214.004 68.0071 214.017 68.038C214.03 68.0688 214.049 68.0966 214.074 68.1199C214.098 68.1431 214.126 68.1614 214.158 68.1734L215.179 68.5884C215.21 68.6019 215.243 68.609 215.277 68.6094C215.311 68.6098 215.344 68.6035 215.375 68.5907C215.407 68.578 215.435 68.5591 215.459 68.5353C215.483 68.5114 215.501 68.483 215.514 68.4518C215.527 68.4205 215.533 68.387 215.533 68.3533C215.532 68.3195 215.525 68.2862 215.512 68.2553C215.498 68.2244 215.478 68.1965 215.454 68.1733C215.43 68.1501 215.401 68.132 215.369 68.1201H215.369Z" fill="#090814"/>
<path d="M203.55 71.3885C203.495 71.3508 203.427 71.3367 203.361 71.3492C203.295 71.3616 203.237 71.3997 203.199 71.455L202.579 72.3656C202.555 72.4002 202.541 72.4401 202.536 72.4817C202.532 72.5234 202.538 72.5654 202.555 72.6041C202.626 72.6574 202.698 72.7094 202.771 72.7599C202.815 72.7628 202.859 72.7542 202.898 72.7349C202.938 72.7156 202.972 72.6864 202.996 72.65L203.617 71.7395C203.636 71.7121 203.649 71.6812 203.655 71.6488C203.662 71.6163 203.663 71.5828 203.656 71.5502C203.65 71.5176 203.638 71.4866 203.619 71.4588C203.601 71.4311 203.578 71.4072 203.55 71.3885H203.55Z" fill="#090814"/>
<path d="M201.223 67.843C201.21 67.8123 201.192 67.7844 201.169 67.7608C201.145 67.7372 201.118 67.7184 201.087 67.7055C201.057 67.6926 201.024 67.6859 200.991 67.6857C200.958 67.6855 200.925 67.6918 200.894 67.7043L199.873 68.1192C199.841 68.1313 199.813 68.1495 199.789 68.1728C199.764 68.196 199.745 68.2239 199.732 68.2547C199.718 68.2855 199.711 68.3187 199.711 68.3523C199.711 68.3858 199.717 68.4191 199.73 68.4502C199.742 68.4813 199.761 68.5096 199.785 68.5334C199.808 68.5572 199.836 68.576 199.867 68.5888C199.898 68.6016 199.932 68.6081 199.965 68.6078C199.999 68.6076 200.032 68.6007 200.063 68.5875L201.084 68.1725C201.146 68.1472 201.196 68.0982 201.222 68.0365C201.248 67.9747 201.248 67.9051 201.223 67.843H201.223Z" fill="#090814"/>
<path d="M207.638 66.0892C207.646 66.1463 207.643 66.2044 207.628 66.2601C207.613 66.3158 207.587 66.3679 207.551 66.4132C207.516 66.4586 207.471 66.4963 207.421 66.524C207.37 66.5518 207.315 66.5691 207.258 66.5748L203.307 67.1818C203.19 67.2042 203.07 67.1809 202.97 67.1168C202.87 67.0527 202.798 66.9527 202.77 66.8374C202.762 66.7803 202.765 66.7221 202.78 66.6664C202.795 66.6107 202.821 66.5585 202.857 66.5132C202.892 66.4678 202.937 66.4301 202.987 66.4023C203.038 66.3746 203.093 66.3574 203.151 66.3517L207.102 65.7447C207.218 65.7225 207.339 65.7458 207.439 65.8099C207.538 65.874 207.61 65.9739 207.638 66.0892Z" fill="#090814"/>
<path d="M211.232 70.1482C211.212 70.1767 211.185 70.2 211.154 70.2161C211.123 70.2323 211.089 70.2408 211.054 70.2409C211.019 70.2411 210.985 70.2329 210.954 70.2171C210.923 70.2013 210.896 70.1782 210.876 70.1499L207.348 65.7835C207.3 65.7195 207.274 65.6417 207.273 65.5616C207.273 65.4816 207.299 65.4036 207.346 65.3393C207.366 65.3107 207.393 65.2874 207.424 65.2712C207.455 65.255 207.489 65.2465 207.524 65.2463C207.559 65.2462 207.593 65.2544 207.624 65.2702C207.655 65.2861 207.682 65.3092 207.703 65.3375L211.23 69.704C211.278 69.768 211.304 69.8458 211.305 69.9259C211.305 70.0059 211.279 70.0839 211.232 70.1482H211.232Z" fill="#090814"/>
<path d="M207.644 66.8694C208.155 66.8694 208.57 66.4549 208.57 65.9435C208.57 65.4321 208.155 65.0176 207.644 65.0176C207.133 65.0176 206.719 65.4321 206.719 65.9435C206.719 66.4549 207.133 66.8694 207.644 66.8694Z" fill="#DADADA"/>
<path d="M207.622 123.703C206.726 123.703 205.851 123.437 205.106 122.939C204.362 122.441 203.781 121.734 203.438 120.906C203.096 120.078 203.006 119.167 203.181 118.288C203.355 117.409 203.787 116.601 204.42 115.968C205.053 115.334 205.86 114.903 206.739 114.728C207.617 114.553 208.528 114.643 209.355 114.986C210.182 115.328 210.89 115.909 211.387 116.654C211.885 117.399 212.15 118.275 212.15 119.172C212.15 120.373 211.673 121.526 210.824 122.376C209.975 123.225 208.823 123.703 207.622 123.703ZM207.622 114.875C206.773 114.875 205.943 115.127 205.236 115.599C204.53 116.071 203.98 116.742 203.655 117.528C203.33 118.313 203.245 119.177 203.41 120.01C203.576 120.844 203.985 121.609 204.586 122.21C205.186 122.811 205.951 123.22 206.784 123.386C207.617 123.552 208.481 123.467 209.265 123.141C210.05 122.816 210.721 122.266 211.193 121.559C211.664 120.852 211.916 120.022 211.916 119.172C211.916 118.608 211.805 118.049 211.59 117.527C211.374 117.006 211.057 116.532 210.659 116.133C210.26 115.734 209.787 115.418 209.266 115.202C208.744 114.986 208.186 114.875 207.622 114.875V114.875Z" fill="#090814"/>
<path d="M206.83 120.988C206.821 120.988 206.811 120.988 206.802 120.988C206.719 120.984 206.637 120.962 206.563 120.923C206.49 120.885 206.425 120.831 206.374 120.766L205.637 119.817C205.591 119.757 205.556 119.689 205.536 119.616C205.516 119.543 205.511 119.466 205.52 119.391C205.529 119.316 205.554 119.243 205.591 119.177C205.629 119.111 205.679 119.053 205.738 119.007L205.765 118.985C205.825 118.939 205.893 118.904 205.966 118.884C206.039 118.864 206.116 118.858 206.191 118.868C206.266 118.877 206.339 118.901 206.405 118.939C206.471 118.976 206.528 119.027 206.575 119.086C206.612 119.134 206.659 119.173 206.713 119.201C206.767 119.229 206.826 119.245 206.887 119.248C206.947 119.251 207.008 119.241 207.064 119.218C207.12 119.196 207.171 119.161 207.212 119.117L208.709 117.537C208.814 117.426 208.959 117.361 209.112 117.357C209.265 117.353 209.414 117.41 209.525 117.515L209.549 117.538C209.604 117.591 209.649 117.653 209.68 117.722C209.71 117.792 209.727 117.866 209.729 117.942C209.731 118.018 209.718 118.093 209.691 118.164C209.664 118.235 209.623 118.3 209.571 118.355L207.249 120.808C207.195 120.865 207.13 120.91 207.058 120.941C206.986 120.972 206.908 120.988 206.83 120.988Z" fill="#DADADA"/>
</g>
</g>
<defs>
<clipPath id="clip0_2158_2584">
<rect width="208" height="124" fill="white" transform="translate(16 26)"/>
</clipPath>
</defs>
</svg>
