<svg width="260" height="156" viewBox="0 0 260 156" fill="none" xmlns="http://www.w3.org/2000/svg">
<g opacity="0.34">
<path d="M176.738 25.0204H82.4414V87.2359H176.738V25.0204Z" fill="#C6C6C6"/>
<path d="M176.737 87.3983H82.4397C82.3497 87.3983 82.2773 87.3252 82.2773 87.236V25.0205C82.2773 24.9305 82.3504 24.8582 82.4397 24.8582H176.737C176.827 24.8582 176.899 24.9312 176.899 25.0205V87.236C176.899 87.326 176.826 87.3983 176.737 87.3983ZM82.6028 87.0729H176.574V25.1828H82.6028V87.0729Z" fill="black"/>
<path d="M174.646 82.1826H84.5256C84.4356 82.1826 84.3633 82.1096 84.3633 82.0203V30.5727C84.3633 30.4827 84.4363 30.4103 84.5256 30.4103H174.647C174.737 30.4103 174.809 30.4834 174.809 30.5727V82.0203C174.809 82.1103 174.736 82.1826 174.647 82.1826H174.646ZM84.688 81.8572H174.483V30.735H84.688V81.8572Z" fill="black"/>
<path d="M176.732 87.2352H82.4356L62.3359 105.44H196.832L176.732 87.2352Z" fill="#C6C6C6"/>
<path d="M196.838 105.603H62.3419C62.2748 105.603 62.2143 105.562 62.1907 105.499C62.1663 105.436 62.1833 105.365 62.2335 105.32L82.3332 87.1157C82.3627 87.0884 82.4018 87.0736 82.4424 87.0736H176.739C176.78 87.0736 176.818 87.0884 176.848 87.1157L196.948 105.32C196.998 105.365 197.015 105.436 196.991 105.499C196.967 105.562 196.907 105.603 196.84 105.603H196.838ZM62.7633 105.278H196.416L176.675 87.3983H82.5044L62.7633 105.278Z" fill="black"/>
<path d="M148.833 94.968H110.339L102.133 102.4H157.039L148.833 94.968Z" fill="#0E5B3C"/>
<path d="M102.824 60.6115H96.2852V77.3898H102.824V60.6115Z" fill="#1D4CB5"/>
<path d="M115.035 57.9941H108.496V77.3905H115.035V57.9941Z" fill="#1D4CB5"/>
<path d="M127.25 60.6115H120.711V77.3898H127.25V60.6115Z" fill="#1D4CB5"/>
<path d="M139.461 52.8994H132.922V77.3905H139.461V52.8994Z" fill="#1D4CB5"/>
<path d="M151.672 46.7761H145.133V77.3897H151.672V46.7761Z" fill="#1D4CB5"/>
<path d="M163.886 36.5624H157.348V77.3905H163.886V36.5624Z" fill="#1D4CB5"/>
<path d="M79.7397 121.419L71.3359 138.516H84.7404L93.0968 121.515L79.7397 121.419Z" fill="white"/>
<path d="M84.7343 138.748H71.3298C71.2497 138.748 71.1748 138.707 71.1326 138.638C71.0904 138.569 71.0862 138.485 71.121 138.412L79.5248 121.316C79.5638 121.237 79.645 121.186 79.7336 121.186H79.7357L93.0928 121.282C93.1729 121.282 93.2468 121.324 93.2889 121.393C93.3311 121.461 93.3353 121.546 93.2995 121.617L84.9431 138.618C84.9041 138.697 84.8229 138.748 84.7343 138.748ZM71.7042 138.283H84.5909L92.7205 121.744L79.8802 121.651L71.7053 138.282L71.7042 138.283Z" fill="black"/>
<path d="M115.53 136.76H101.482L90.599 128.11H88.783C87.4786 128.11 86.3449 129.005 86.0412 130.273L85.9684 130.578C85.3779 133.045 83.6895 135.104 81.3874 136.168L80.4309 136.61L73.9264 131.16L62.3516 153.755H82.6044C83.4638 152.228 86.7836 151.089 90.7508 151.089C94.7181 151.089 98.0379 152.228 98.8973 153.755H110.548L118.873 148.691C124.429 145.311 122.034 136.76 115.531 136.76H115.53Z" fill="#3FB686"/>
<path d="M110.542 153.988H98.8913C98.807 153.988 98.73 153.943 98.6889 153.87C97.8589 152.394 94.5181 151.323 90.7449 151.323C86.9717 151.323 83.6308 152.395 82.8009 153.87C82.7597 153.943 82.6817 153.988 82.5984 153.988H62.3456C62.2644 153.988 62.1895 153.946 62.1473 153.877C62.1051 153.809 62.102 153.722 62.1389 153.651L73.7137 131.056C73.7464 130.992 73.8044 130.948 73.874 130.933C73.9426 130.921 74.0153 130.938 74.0691 130.983L80.4608 136.339L81.2844 135.958C83.5359 134.919 85.1589 132.938 85.7368 130.525L85.8095 130.22C86.1396 128.842 87.3597 127.879 88.7771 127.879H90.593C90.6457 127.879 90.6964 127.897 90.7375 127.93L101.556 136.529H115.523C118.593 136.529 121.111 138.439 121.94 141.396C122.769 144.353 121.61 147.295 118.986 148.891L110.661 153.955C110.625 153.978 110.583 153.989 110.541 153.989L110.542 153.988ZM99.0232 153.523H110.478L118.747 148.493C121.187 147.008 122.266 144.271 121.495 141.52C120.724 138.77 118.381 136.993 115.525 136.993H101.477C101.424 136.993 101.374 136.975 101.333 136.942L90.5139 128.343H88.7781C87.577 128.343 86.5425 129.16 86.2619 130.328L86.1892 130.633C85.5775 133.185 83.8618 135.279 81.4795 136.38L80.522 136.822C80.4408 136.859 80.3448 136.846 80.2752 136.789L73.9932 131.526L62.7242 153.523H82.4655C83.4832 151.948 86.8462 150.857 90.7428 150.857C94.6394 150.857 98.0024 151.948 99.02 153.523H99.0232Z" fill="black"/>
<path d="M66.3431 145.965L62.3516 153.756H82.6044C83.4628 152.229 86.7836 151.09 90.7508 151.09C94.7181 151.09 98.0379 152.229 98.8973 153.756H110.548L118.873 148.692C120.054 147.973 120.873 147.02 121.372 145.965H66.3431Z" fill="black"/>
<path d="M98.4012 134.901H92.6148C92.4862 134.901 92.3828 134.796 92.3828 134.669C92.3828 134.541 92.4872 134.437 92.6148 134.437H98.4012C98.5298 134.437 98.6332 134.541 98.6332 134.669C98.6332 134.796 98.5288 134.901 98.4012 134.901Z" fill="black"/>
<path d="M95.7996 132.63H90.0132C89.8846 132.63 89.7812 132.526 89.7812 132.398C89.7812 132.271 89.8856 132.166 90.0132 132.166H95.7996C95.9283 132.166 96.0316 132.271 96.0316 132.398C96.0316 132.526 95.9272 132.63 95.7996 132.63Z" fill="black"/>
<path d="M135.59 136.123L149.8 130.602L128.998 98.4614L119.41 111.124L135.59 136.123Z" fill="white"/>
<path d="M135.588 136.355C135.511 136.355 135.437 136.317 135.393 136.248L119.213 111.249C119.16 111.167 119.164 111.06 119.222 110.982L128.81 98.3201C128.856 98.26 128.93 98.2252 129.004 98.2283C129.08 98.2315 129.15 98.2705 129.191 98.3338L149.993 130.475C150.031 130.534 150.041 130.605 150.02 130.672C149.998 130.738 149.948 130.792 149.882 130.817L135.672 136.338C135.645 136.349 135.616 136.354 135.588 136.354V136.355ZM119.691 111.134L135.68 135.838L149.448 130.489L128.981 98.8664L119.691 111.134Z" fill="black"/>
<path d="M169.205 114.082L156.738 120.558L143.095 117.898L141.382 118.788C140.285 119.359 139.72 120.608 140.019 121.809L140.17 122.417C140.752 124.757 140.23 127.234 138.753 129.141L137.987 130.131L129.703 128.293L129.84 153.681L147.814 144.345C147.873 142.594 150.294 140.053 153.816 138.225C157.337 136.396 160.807 135.876 162.273 136.835L172.613 131.464L177.668 123.132C181.041 117.57 174.976 111.086 169.205 114.084V114.082Z" fill="#3FB686"/>
<path d="M129.843 153.911C129.801 153.911 129.759 153.9 129.723 153.878C129.653 153.835 129.611 153.761 129.61 153.68L129.473 128.292C129.473 128.221 129.504 128.154 129.559 128.109C129.614 128.065 129.686 128.048 129.755 128.063L137.895 129.869L138.572 128.995C140.015 127.134 140.516 124.756 139.948 122.471L139.797 121.863C139.471 120.552 140.08 119.203 141.278 118.58L142.991 117.69C143.037 117.666 143.091 117.658 143.143 117.668L156.706 120.312L169.1 113.874C171.824 112.46 174.939 112.993 177.036 115.234C179.135 117.476 179.462 120.622 177.869 123.249L172.814 131.581C172.792 131.618 172.76 131.647 172.722 131.666L162.382 137.037C162.308 137.076 162.219 137.072 162.148 137.026C160.732 136.099 157.273 136.688 153.925 138.427C150.577 140.166 148.106 142.657 148.049 144.35C148.046 144.434 147.998 144.509 147.923 144.548L129.949 153.884C129.916 153.902 129.879 153.91 129.842 153.91L129.843 153.911ZM129.94 128.581L130.073 153.298L147.593 144.197C147.77 142.329 150.253 139.812 153.711 138.016C157.169 136.22 160.655 135.637 162.284 136.566L172.45 131.286L177.471 123.01C178.953 120.566 178.649 117.64 176.697 115.554C174.746 113.469 171.848 112.971 169.314 114.288L156.847 120.764C156.801 120.789 156.747 120.796 156.695 120.787L143.132 118.143L141.491 118.995C140.484 119.518 139.973 120.653 140.246 121.754L140.397 122.361C141 124.785 140.469 127.308 138.938 129.283L138.172 130.273C138.116 130.345 138.025 130.377 137.938 130.358L129.938 128.582L129.94 128.581Z" fill="black"/>
<path d="M129.843 153.911C129.801 153.911 129.759 153.9 129.723 153.878C129.653 153.835 129.611 153.761 129.61 153.68L129.473 128.292C129.473 128.221 129.504 128.154 129.559 128.109C129.614 128.065 129.686 128.048 129.755 128.063L137.895 129.869L138.572 128.995C140.015 127.134 140.516 124.756 139.948 122.471L139.797 121.863C139.471 120.552 140.08 119.203 141.278 118.58L142.991 117.69C143.037 117.666 143.091 117.658 143.143 117.668L156.706 120.312L169.1 113.874C171.824 112.46 174.939 112.993 177.036 115.234C179.135 117.476 179.462 120.622 177.869 123.249L172.814 131.581C172.792 131.618 172.76 131.647 172.722 131.666L162.382 137.037C162.308 137.076 162.219 137.072 162.148 137.026C160.732 136.099 157.273 136.688 153.925 138.427C150.577 140.166 148.106 142.657 148.049 144.35C148.046 144.434 147.998 144.509 147.923 144.548L129.949 153.884C129.916 153.902 129.879 153.91 129.842 153.91L129.843 153.911ZM129.94 128.581L130.073 153.298L147.593 144.197C147.77 142.329 150.253 139.812 153.711 138.016C157.169 136.22 160.655 135.637 162.284 136.566L172.45 131.286L177.471 123.01C178.953 120.566 178.649 117.64 176.697 115.554C174.746 113.469 171.848 112.971 169.314 114.288L156.847 120.764C156.801 120.789 156.747 120.796 156.695 120.787L143.132 118.143L141.491 118.995C140.484 119.518 139.973 120.653 140.246 121.754L140.397 122.361C141 124.785 140.469 127.308 138.938 129.283L138.172 130.273C138.116 130.345 138.025 130.377 137.938 130.358L129.938 128.582L129.94 128.581Z" fill="black"/>
<path d="M129.798 144.925L129.845 153.679L147.819 144.343C147.878 142.592 150.3 140.051 153.821 138.223C157.342 136.394 160.813 135.874 162.278 136.833L172.618 131.462L177.673 123.13C178.39 121.948 178.678 120.723 178.635 119.558L129.797 144.925H129.798Z" fill="black"/>
<path d="M147.905 123.021C147.82 123.021 147.74 122.976 147.698 122.896C147.639 122.782 147.683 122.641 147.797 122.582L152.933 119.915C153.047 119.856 153.187 119.901 153.246 120.015C153.305 120.128 153.261 120.269 153.147 120.328L148.011 122.995C147.977 123.013 147.941 123.021 147.905 123.021Z" fill="black"/>
<path d="M144.553 122.204C144.469 122.204 144.389 122.159 144.346 122.078C144.287 121.964 144.332 121.824 144.446 121.765L149.581 119.098C149.695 119.039 149.835 119.083 149.895 119.197C149.954 119.311 149.909 119.451 149.795 119.511L144.66 122.177C144.626 122.195 144.589 122.204 144.553 122.204Z" fill="black"/>
<path d="M61.6378 60.7641H116.831C122.366 60.7641 125.928 66.6358 123.373 71.5469L95.3141 125.473H69.4415L92.955 80.3283C93.5814 79.1261 92.7093 77.6866 91.3532 77.6866H61.6367V60.763L61.6378 60.7641Z" fill="#020202"/>
<path d="M99.661 68.7681H32.6016V75.5848C32.6016 84.5138 39.838 91.7523 48.7637 91.7523H93.6996C96.511 91.7523 99.1327 93.1749 100.665 95.5318L121.072 126.91L141.501 116.299L116.268 77.7488C112.6 72.1448 106.355 68.7681 99.66 68.7681H99.661Z" fill="#020202"/>
<path d="M121.071 127.143C120.994 127.143 120.921 127.105 120.876 127.038L100.47 95.6594C98.9732 93.3583 96.4422 91.9853 93.6983 91.9853H48.7624C39.7217 91.9853 32.3672 84.6287 32.3672 75.5848V70.7781C32.3672 70.6494 32.4716 70.5461 32.5992 70.5461C32.7268 70.5461 32.8312 70.6505 32.8312 70.7781V75.5848C32.8312 84.3714 39.9779 91.5202 48.7614 91.5202H93.6972C96.5983 91.5202 99.2758 92.9723 100.858 95.4052L121.15 126.608L141.163 116.212L116.071 77.8763C114.382 75.2969 111.615 72.1838 108.909 71.1809C108.789 71.1366 108.728 71.0027 108.772 70.8825C108.816 70.7623 108.949 70.7011 109.071 70.7454C112.609 72.0562 115.622 76.3398 116.46 77.6211L141.692 116.172C141.728 116.226 141.74 116.294 141.723 116.357C141.706 116.42 141.664 116.474 141.605 116.505L121.176 127.116C121.142 127.134 121.105 127.142 121.069 127.142L121.071 127.143Z" fill="#3FB686"/>
<path d="M40.7232 30.4887L40.1484 36.2171H45.398L45.5773 32.0959L40.7232 30.4887Z" fill="white"/>
<path d="M45.3996 36.4491H40.15C40.0846 36.4491 40.0214 36.4217 39.9781 36.3721C39.9338 36.3236 39.9127 36.2582 39.9191 36.1928L40.4938 30.4645C40.5012 30.3949 40.5392 30.3305 40.5982 30.2926C40.6573 30.2546 40.7311 30.2451 40.7975 30.2673L45.6517 31.8744C45.7508 31.9071 45.8151 32.001 45.8109 32.1054L45.6316 36.2266C45.6264 36.351 45.5241 36.4491 45.3996 36.4491ZM40.4073 35.9851H45.1782L45.3395 32.2614L40.9272 30.8009L40.4073 35.9851Z" fill="black"/>
<path d="M45.4871 34.1881C45.5176 33.491 45.5482 32.7929 45.5778 32.0948L40.6445 30.7375C40.7025 31.0961 40.9461 32.3057 42.026 33.24C43.4697 34.4886 45.2329 34.2292 45.4871 34.1881Z" fill="black"/>
<path d="M44.0893 32.9912C46.2658 32.9912 48.0302 31.0304 48.0302 28.6116C48.0302 26.1928 46.2658 24.232 44.0893 24.232C41.9128 24.232 40.1484 26.1928 40.1484 28.6116C40.1484 31.0304 41.9128 32.9912 44.0893 32.9912Z" fill="white"/>
<path d="M44.0909 33.2242C41.7898 33.2242 39.918 31.1552 39.918 28.6116C39.918 26.068 41.7898 24 44.0909 24C46.3919 24 48.2637 26.069 48.2637 28.6116C48.2637 31.1541 46.3919 33.2242 44.0909 33.2242ZM44.0909 24.464C42.0461 24.464 40.383 26.3242 40.383 28.6116C40.383 30.8989 42.0461 32.7592 44.0909 32.7592C46.1356 32.7592 47.7997 30.8989 47.7997 28.6116C47.7997 26.3242 46.1356 24.464 44.0909 24.464Z" fill="black"/>
<path d="M43.0391 30.1639C43.0992 30.4718 43.2542 30.7639 43.5041 30.9917C44.062 31.4989 44.8951 31.5084 45.4645 31.0497L43.0391 30.1639Z" fill="#3FB686"/>
<path d="M47.0024 25.6694C46.2811 24.7888 45.2455 24.232 44.0897 24.232C41.9131 24.232 39.9453 25.8307 39.9453 28.2499C39.9453 28.5399 40.0634 29.1958 40.23 29.5016C41.2361 29.0756 43.7301 27.8059 45.1559 25.6377C45.1559 25.6377 45.1063 27.0814 43.0742 29.084C43.0742 29.084 46.0649 28.1887 47.0024 25.6694Z" fill="black"/>
<path d="M34.4052 33.6482C36.4175 33.6482 38.0487 32.0165 38.0487 30.0036C38.0487 27.9908 36.4175 26.3591 34.4052 26.3591C32.393 26.3591 30.7617 27.9908 30.7617 30.0036C30.7617 32.0165 32.393 33.6482 34.4052 33.6482Z" fill="black"/>
<path d="M28.2136 41.1546C31.121 41.1546 33.4779 38.7971 33.4779 35.8891C33.4779 32.9811 31.121 30.6237 28.2136 30.6237C25.3062 30.6237 22.9492 32.9811 22.9492 35.8891C22.9492 38.7971 25.3062 41.1546 28.2136 41.1546Z" fill="black"/>
<path d="M20.7352 53.5213C25.0072 53.5213 28.4704 50.0568 28.4704 45.783C28.4704 41.5092 25.0072 38.0446 20.7352 38.0446C16.4632 38.0446 13 41.5092 13 45.783C13 50.0568 16.4632 53.5213 20.7352 53.5213Z" fill="black"/>
<path d="M39.1024 29.6661C39.0065 29.6661 38.9158 29.606 38.8831 29.5101L38.302 27.8333C38.2598 27.712 38.3242 27.5802 38.4454 27.538C38.5667 27.4969 38.6985 27.5602 38.7407 27.6815L39.3218 29.3582C39.364 29.4795 39.2996 29.6113 39.1783 29.6535C39.153 29.6619 39.1277 29.6661 39.1024 29.6661Z" fill="black"/>
<path d="M66.0969 62.1518L55.9531 49.1871H67.1304L71.8095 54.6645C73.6117 56.7746 76.246 57.9884 79.0195 57.9874L87.0542 57.9842V65.7858L73.5643 65.789C70.6484 65.789 67.895 64.4476 66.098 62.1508L66.0969 62.1518Z" fill="white"/>
<path d="M101.455 61.7142L101.164 62.309L98.2396 62.1255L95.9227 59.5376H76.9375V58.0412H83.6139C84.5746 58.0412 87.2353 56.4888 89.4035 56.4888H93.3528C94.6193 56.4888 95.869 56.7799 97.0047 57.3409L100.564 59.0968C101.532 59.5745 101.931 60.7461 101.456 61.7152L101.455 61.7142Z" fill="white"/>
<path d="M97.9602 63.4184L101.229 65.0171C101.925 65.3609 102.769 65.0719 103.11 64.3738L103.115 64.3622C103.525 63.5196 103.178 62.5041 102.339 62.0896L98.5465 60.2188C97.4107 59.6589 96.1611 59.3668 94.8945 59.3668H76.9375V64.8526H90.3114L91.6813 63.547C92.5935 62.6781 93.86 62.2773 95.1012 62.4893C95.9164 62.6285 96.9024 62.9016 97.9612 63.4184H97.9602Z" fill="white"/>
<path d="M91.7976 63.3794C92.0961 63.4289 92.4177 63.4574 92.771 63.4574C92.9018 63.4711 93.4512 63.4669 95.3726 63.4616C96.3333 63.4595 97.1158 64.2388 97.1158 65.2006V65.2249C97.1158 66.1845 96.3386 66.9628 95.3789 66.9628H88.0877C82.9847 66.9628 83.2125 63.082 83.2125 63.082V61.1194H84.8439C88.5137 61.1194 89.3785 62.9723 91.7987 63.3783L91.7976 63.3794Z" fill="white"/>
<path d="M101.844 65.3947C101.597 65.3947 101.351 65.3377 101.123 65.2249L97.8544 63.6272C96.9538 63.1875 96.0132 62.8817 95.0577 62.7182C93.9061 62.5221 92.8558 62.8121 92.0153 63.5555C91.9194 63.6399 91.7728 63.6314 91.6874 63.5355C91.6019 63.4395 91.6114 63.2929 91.7074 63.2075C92.6428 62.3786 93.8608 62.0422 95.1358 62.2605C96.1355 62.4314 97.1183 62.7509 98.059 63.2107L101.328 64.8094C101.61 64.9486 101.927 64.9686 102.223 64.8674C102.52 64.7662 102.759 64.5542 102.896 64.2726C103.256 63.5355 102.955 62.656 102.232 62.2985L98.4397 60.4277C97.3419 59.8867 96.1144 59.5999 94.8911 59.5999H93.4949C93.3662 59.5999 93.2629 59.4955 93.2629 59.3679C93.2629 59.2403 93.3673 59.1359 93.4949 59.1359H94.8911C96.1861 59.1359 97.4843 59.4385 98.6453 60.0122L102.438 61.883C103.39 62.3523 103.785 63.5112 103.32 64.4656C103.122 64.8706 102.789 65.1658 102.374 65.3082C102.201 65.3672 102.022 65.3968 101.844 65.3968V65.3947Z" fill="black"/>
<path d="M95.331 67.1969H88.6019C86.5761 67.1969 85.1767 66.8289 84.2107 66.039H73.5639C70.61 66.039 67.7511 64.6396 65.9173 62.2953L55.7724 49.3306C55.7176 49.261 55.707 49.1661 55.746 49.0859C55.785 49.0058 55.8663 48.9551 55.9548 48.9551H67.1321C67.2007 48.9551 67.265 48.9847 67.3093 49.0363L71.9884 54.5137C73.779 56.6102 76.3405 57.8124 79.0181 57.8124H79.0212L83.6107 57.8071C83.9523 57.8071 84.6019 57.5614 85.3549 57.2767C86.5582 56.8211 88.0556 56.2548 89.4002 56.2548H93.3495C94.6445 56.2548 95.9427 56.5575 97.1048 57.1311L100.664 58.887C101.733 59.4143 102.184 60.6776 101.687 61.7628C101.633 61.8788 101.496 61.9304 101.379 61.8777C101.262 61.8239 101.211 61.6868 101.264 61.5698C101.655 60.7156 101.301 59.7201 100.458 59.3046L96.8992 57.5487C95.8014 57.0078 94.5739 56.7209 93.3495 56.7209H89.4002C88.141 56.7209 86.6868 57.2703 85.5194 57.7122C84.6916 58.0254 84.0378 58.2722 83.6107 58.2722L79.0212 58.2775H79.0181C76.2045 58.2775 73.5133 57.0162 71.634 54.8153L67.0245 49.4191H56.4315L66.2821 62.0085C68.0295 64.241 70.7514 65.5739 73.5639 65.5739H84.294C84.3489 65.5739 84.4026 65.594 84.4448 65.6298C85.3233 66.3817 86.6436 66.7318 88.5998 66.7318H95.3289C96.1589 66.7318 96.8338 66.0559 96.8338 65.2259V65.2017C96.8338 64.7988 96.6767 64.4203 96.3909 64.1355C96.1061 63.8518 95.7286 63.6958 95.3279 63.6958H95.3247L94.3935 63.6979C93.242 63.7011 92.9709 63.7021 92.8465 63.6905C92.3667 63.6905 91.6316 63.6293 91.1202 63.4617C90.9979 63.4216 90.9314 63.2908 90.9715 63.1685C91.0116 63.0462 91.1423 62.9797 91.2647 63.0198C91.7287 63.1717 92.4131 63.2254 92.8581 63.2254C92.8665 63.2254 92.875 63.2254 92.8834 63.2265C92.9762 63.237 93.3052 63.236 94.3925 63.2328L95.3237 63.2307H95.3289C95.8541 63.2307 96.3487 63.4353 96.721 63.8065C97.0943 64.1788 97.2999 64.6744 97.2999 65.2017V65.2259C97.2999 66.3121 96.4162 67.1969 95.331 67.1969Z" fill="black"/>
<path d="M67.9013 70.9406H29.0312L31.4842 47.7276H59.2381L67.9013 70.9406Z" fill="#3FB686"/>
<path d="M67.8993 71.1736H29.0293C28.9639 71.1736 28.9006 71.1462 28.8563 71.0966C28.812 71.0481 28.7909 70.9828 28.7983 70.9163L31.2502 47.7034C31.2628 47.5852 31.362 47.4956 31.4811 47.4956H59.235C59.332 47.4956 59.4185 47.5557 59.4523 47.6464L68.1155 70.8594C68.1418 70.9311 68.1323 71.0102 68.0891 71.0734C68.0459 71.1357 67.9742 71.1736 67.8982 71.1736H67.8993ZM29.2876 70.7086H67.565L59.0747 47.9607H31.691L29.2876 70.7086Z" fill="black"/>
<path d="M24.4766 60.9517V44.6946H36.7738V54.8353C36.7738 56.1419 37.8326 57.2007 39.1381 57.1996L59.3625 57.1933V68.2778L31.8079 68.283C27.7594 68.283 24.4776 65.0012 24.4776 60.9517H24.4766Z" fill="white"/>
<path d="M71.5223 60.6406L72.7245 61.9398C73.3319 62.5958 73.3931 63.5902 72.87 64.3158L71.6889 65.9556L68.8268 62.7613H50.8477V58.9976H67.7638C69.1907 58.9976 70.5521 59.5934 71.5212 60.6406H71.5223Z" fill="white"/>
<path d="M70.9676 58.2932L71.6478 59.0282C72.2552 59.6842 72.3164 60.6786 71.7933 61.4041L70.6122 63.044L67.7501 59.8497H50.8477V57.2312H53.7161C54.9024 57.2312 57.02 56.086 59.6975 56.086H65.9173C67.8345 56.086 69.6642 56.8864 70.9655 58.2932H70.9676Z" fill="white"/>
<path d="M71.9459 63.1715L73.3885 64.7302C73.996 65.3861 74.0571 66.3806 73.5341 67.1061L72.3529 68.746L69.4909 65.5517H58.3516V61.788H68.779C69.9812 61.788 71.1286 62.2899 71.9448 63.1715H71.9459Z" fill="white"/>
<path d="M71.4195 65.9114L72.9243 67.5375C73.4822 68.1407 73.5381 69.0529 73.0582 69.7194C72.4139 70.6136 71.1084 70.6832 70.3723 69.8628L69.5561 68.9517C69.1659 68.5161 68.6091 68.2673 68.0238 68.2673H58.6709C56.2254 68.2673 54.5043 68.127 52.1484 64.5004L68.1988 64.5035C69.4221 64.5035 70.5895 65.0139 71.4205 65.9114H71.4195Z" fill="white"/>
<path d="M24.4766 56.8073V44.6946H36.7738V54.0781C35.9491 54.0433 34.825 53.9442 33.9518 53.6753C32.6441 53.2724 31.3607 53.0858 30.1016 54.8079C28.4512 57.0646 26.3336 57.3093 24.4776 56.8073H24.4766Z" fill="black"/>
<path d="M72.8729 64.5489C72.8254 64.5489 72.778 64.5341 72.7379 64.5046C72.6335 64.4297 72.6103 64.2842 72.6852 64.1808C73.1418 63.547 73.088 62.6718 72.5576 62.0981L71.3554 60.7988C70.4337 59.8023 69.126 59.2307 67.7678 59.2307H64.4586C64.3299 59.2307 64.2266 59.1263 64.2266 58.9987C64.2266 58.8711 64.331 58.7667 64.4586 58.7667H67.7678C69.2547 58.7667 70.6857 59.3921 71.696 60.4835L72.8982 61.7828C73.5784 62.5167 73.6469 63.6398 73.0617 64.4518C73.0163 64.5151 72.9446 64.5489 72.8729 64.5489Z" fill="black"/>
<path d="M73.0687 67.9762C73.0212 67.9762 72.9738 67.9614 72.9337 67.9319C72.8293 67.857 72.8061 67.7115 72.881 67.6081L73.3408 66.9701C73.7974 66.3363 73.7436 65.4611 73.2132 64.8874L71.7705 63.3288C71.0007 62.4967 69.9092 62.02 68.7756 62.02H64.4234C64.2948 62.02 64.1914 61.9156 64.1914 61.788C64.1914 61.6604 64.2958 61.556 64.4234 61.556H68.7756C70.0379 61.556 71.2538 62.0875 72.1122 63.0145L73.5548 64.5742C74.234 65.3082 74.3036 66.4313 73.7183 67.2433L73.2585 67.8813C73.2132 67.9446 73.1415 67.9783 73.0697 67.9783L73.0687 67.9762Z" fill="black"/>
<path d="M71.6506 70.6695C71.0938 70.6695 70.5676 70.4354 70.1932 70.0178L69.377 69.1067C69.0311 68.7207 68.5354 68.4992 68.0177 68.4992H57.6724C55.7953 68.4992 54.0447 67.5702 52.9891 66.0137C52.9174 65.9071 52.9448 65.7627 53.0513 65.691C53.1579 65.6192 53.3023 65.6467 53.374 65.7532C54.3421 67.1821 55.9493 68.0342 57.6724 68.0342H68.0177C68.6673 68.0342 69.2895 68.3115 69.7229 68.7956L70.5391 69.7067C70.8428 70.0452 71.2784 70.2245 71.7308 70.2013C72.1853 70.1771 72.5976 69.9514 72.8634 69.5823C73.2767 69.0075 73.2282 68.2135 72.7474 67.6936L71.2425 66.0674C70.4579 65.2196 69.3464 64.7334 68.1917 64.7334H64.5693C64.4406 64.7334 64.3372 64.629 64.3372 64.5014C64.3372 64.3738 64.4416 64.2694 64.5693 64.2694H68.1917C69.4751 64.2694 70.7121 64.8104 71.5842 65.7521L73.089 67.3782C73.7197 68.0595 73.7829 69.1004 73.2409 69.8533C72.8929 70.3374 72.3519 70.6326 71.7561 70.6643C71.7202 70.6664 71.6854 70.6674 71.6506 70.6674V70.6695Z" fill="black"/>
<path d="M31.8034 68.5161C29.7839 68.5161 27.8857 67.7294 26.4578 66.3016C25.0289 64.8726 24.2422 62.9734 24.2422 60.9528V44.6957C24.2422 44.5671 24.3466 44.4637 24.4742 44.4637H36.7714C36.9001 44.4637 37.0034 44.5681 37.0034 44.6957V54.8364C37.0034 55.4059 37.2249 55.9416 37.6277 56.3444C38.0306 56.7462 38.5652 56.9687 39.1347 56.9687H53.1825C54.2328 56.9687 55.0722 56.7378 55.9602 56.492C57.0422 56.1936 58.2686 55.8551 60.1162 55.8551H65.9216C67.8967 55.8551 69.7992 56.6871 71.1406 58.1372L71.8208 58.8722C72.4081 59.507 72.5505 60.4224 72.1835 61.2049C72.1287 61.3209 71.9916 61.3715 71.8745 61.3167C71.7585 61.2618 71.709 61.1237 71.7628 61.0077C72.0496 60.3971 71.9378 59.6832 71.4801 59.1886L70.7999 58.4535C69.5461 57.0984 67.7681 56.3212 65.9216 56.3212H60.1162C58.3308 56.3212 57.1887 56.6365 56.0836 56.9413C55.164 57.1944 54.295 57.4348 53.1814 57.4348H39.1336C38.4408 57.4348 37.7891 57.1649 37.2987 56.6745C36.8083 56.1841 36.5384 55.5313 36.5384 54.8374V44.9288H24.7062V60.9539C24.7062 62.851 25.4444 64.6333 26.7858 65.9747C28.1261 67.315 29.9083 68.0532 31.8034 68.0532H61.2467C61.3753 68.0532 61.4787 68.1576 61.4787 68.2852C61.4787 68.4128 61.3743 68.5172 61.2467 68.5172H31.8034V68.5161Z" fill="black"/>
<path d="M69.8342 51.505H60.5562C60.4276 51.505 60.3242 51.4006 60.3242 51.273C60.3242 51.1454 60.4286 51.041 60.5562 51.041H69.8342C69.9629 51.041 70.0662 51.1454 70.0662 51.273C70.0662 51.4006 69.9618 51.505 69.8342 51.505Z" fill="black"/>
<path d="M23.4141 51.2731V47.8004C23.4141 41.3823 28.6152 36.1791 35.0321 36.1791H50.9687C55.9525 36.1791 60.6421 38.5392 63.6139 42.5423L70.0941 51.2731H23.4151H23.4141Z" fill="#3FB686"/>
<path d="M29.029 51.755H23.4156C23.2869 51.755 23.1836 51.6505 23.1836 51.5229V47.8004C23.1836 41.2642 28.4996 35.946 35.0337 35.946H50.9702C56.0047 35.946 60.8008 38.3599 63.801 42.4031L70.2813 51.1338C70.334 51.2045 70.3414 51.2983 70.3024 51.3764C70.2634 51.4544 70.1822 51.504 70.0946 51.504H60.5582C60.4296 51.504 60.3262 51.3996 60.3262 51.272C60.3262 51.1444 60.4306 51.04 60.5582 51.04H69.6327L63.4277 42.6794C60.515 38.7543 55.857 36.4101 50.9691 36.4101H35.0326C28.7548 36.4101 23.6476 41.5194 23.6476 47.7993V51.2888H29.028C29.1566 51.2888 29.26 51.3932 29.26 51.5208C29.26 51.6484 29.1556 51.7528 29.028 51.7528L29.029 51.755Z" fill="black"/>
<path d="M38.4508 51.4829C38.3221 51.4829 38.2188 51.3785 38.2188 51.2509V44.6947C38.2188 44.566 38.3232 44.4627 38.4508 44.4627C38.5784 44.4627 38.6828 44.5671 38.6828 44.6947V51.2509C38.6828 51.3796 38.5784 51.4829 38.4508 51.4829Z" fill="black"/>
<path d="M112.724 68.5182C112.666 68.5182 112.608 68.4971 112.564 68.4539C112.471 68.3653 112.468 68.2177 112.557 68.1249L119.299 61.0783C119.388 60.9855 119.536 60.9823 119.628 61.0709C119.721 61.1595 119.724 61.3071 119.636 61.3999L112.893 68.4465C112.848 68.494 112.786 68.5182 112.725 68.5182H112.724Z" fill="#3FB686"/>
<path d="M81.6891 66.1887C81.6311 66.1887 81.5731 66.1676 81.5288 66.1244C81.436 66.0358 81.4328 65.8881 81.5214 65.7953L96.8199 49.8082C96.8642 49.7629 96.9243 49.7365 96.9876 49.7365H130.251C130.343 49.7365 130.428 49.7924 130.465 49.8778C130.501 49.9632 130.483 50.0624 130.419 50.1299L119.634 61.401C119.546 61.4938 119.398 61.497 119.305 61.4084C119.212 61.3198 119.209 61.1721 119.298 61.0793L129.707 50.2016H97.0878L81.8578 66.117C81.8125 66.1644 81.7513 66.1887 81.6901 66.1887H81.6891Z" fill="black"/>
<path d="M79.4547 68.5182C79.3967 68.5182 79.3387 68.4971 79.2944 68.4539C79.2016 68.3653 79.1985 68.2177 79.287 68.1249L81.5164 65.7953C81.605 65.7025 81.7526 65.6994 81.8454 65.788C81.9382 65.8765 81.9414 66.0242 81.8528 66.117L79.6234 68.4465C79.5781 68.494 79.5169 68.5182 79.4558 68.5182H79.4547Z" fill="#3FB686"/>
<path d="M112.672 71.1557H60.0445C59.9158 71.1557 59.8125 71.0513 59.8125 70.9237V68.2862C59.8125 68.1575 59.9169 68.0542 60.0445 68.0542H67.5888C67.7175 68.0542 67.8208 68.1586 67.8208 68.2862C67.8208 68.4138 67.7164 68.5182 67.5888 68.5182H60.2765V70.6917H112.439V68.5182H73.4237C73.295 68.5182 73.1917 68.4138 73.1917 68.2862C73.1917 68.1586 73.2961 68.0542 73.4237 68.0542H112.671C112.8 68.0542 112.903 68.1586 112.903 68.2862V70.9237C112.903 71.0523 112.799 71.1557 112.671 71.1557H112.672Z" fill="#3FB686"/>
<path d="M108.023 59.9457C107.084 59.9457 106.32 59.1812 106.32 58.2426C106.32 57.304 107.084 56.5395 108.023 56.5395C108.963 56.5395 109.727 57.304 109.727 58.2426C109.727 59.1812 108.963 59.9457 108.023 59.9457ZM108.023 57.0035C107.34 57.0035 106.785 57.5592 106.785 58.2426C106.785 58.9259 107.341 59.4817 108.023 59.4817C108.706 59.4817 109.261 58.9259 109.261 58.2426C109.261 57.5592 108.706 57.0035 108.023 57.0035Z" fill="black"/>
<path d="M189.309 57.1004C190.319 58.156 191.402 59.148 192.549 60.0632L209.363 72.3626L226.176 60.0632C234.747 53.2263 239.67 42.118 238.334 32.0717L234.592 8.74972L209.363 3.18127L184.135 8.74972L180.393 32.0717C179.235 40.7727 182.774 50.2707 189.311 57.1004H189.309Z" fill="#3FB686"/>
<path d="M209.364 72.5413C209.327 72.5413 209.29 72.5299 209.258 72.5062L192.445 60.2068C191.298 59.2932 190.203 58.2906 189.181 57.2236C182.512 50.2561 179.076 40.6088 180.215 32.0465L183.958 8.71956C183.969 8.64696 184.025 8.58822 184.097 8.57272L209.325 3.00428C209.351 2.99857 209.377 2.99857 209.403 3.00428L234.631 8.57272C234.703 8.58904 234.758 8.64696 234.77 8.71956L238.512 32.0416C239.169 36.9876 238.348 42.2762 236.135 47.3405C233.939 52.3673 230.534 56.8141 226.289 60.2011L209.47 72.5054C209.438 72.5282 209.4 72.5405 209.364 72.5405L209.364 72.5413ZM184.293 8.89822L180.57 32.0995C179.446 40.5509 182.845 50.0848 189.441 56.9756C190.451 58.0312 191.535 59.0224 192.662 59.9221L209.364 72.1391L226.071 59.9172C234.604 53.1088 239.464 41.9263 238.156 32.0946L234.434 8.89822L209.364 3.36485L184.293 8.89822H184.293Z" fill="black"/>
<path d="M209.361 8.0351L188.079 12.7323L184.922 32.4054C183.794 40.8796 187.947 50.2504 195.177 56.0178L209.36 66.3936V8.0351H209.361Z" fill="#1D4CB5"/>
<path d="M209.364 66.3936L223.547 56.0178C230.777 50.2504 234.929 40.8796 233.803 32.4054L230.646 12.7323L209.363 8.0351V66.3944L209.364 66.3936Z" fill="#436FD0"/>
<path d="M199.895 37.4542V23.5078C199.895 20.2023 202.589 17.5127 205.9 17.5127H211.949C215.261 17.5127 217.955 20.2023 217.955 23.5078V37.4542C217.955 38.4282 217.164 39.2171 216.189 39.2171H201.661C200.685 39.2171 199.895 38.4274 199.895 37.4542ZM214.423 23.507C214.423 22.1454 213.313 21.0384 211.949 21.0384H205.9C204.536 21.0384 203.427 22.1454 203.427 23.507V35.6905H214.423V23.507Z" fill="white"/>
<path d="M222.72 32.4038C222.731 32.6812 222.737 32.9593 222.737 33.2392C222.737 42.8848 216.507 50.704 208.822 50.704C201.136 50.704 194.906 42.8848 194.906 33.2392C194.906 32.9585 194.913 32.6804 194.923 32.4038H222.72Z" fill="white"/>
<path d="M206.07 44.8753L207.465 39.1731C206.756 38.7407 206.282 37.9633 206.282 37.0741C206.282 35.7142 207.386 34.6129 208.748 34.6129C210.111 34.6129 211.215 35.715 211.215 37.0741C211.215 37.9641 210.74 38.7407 210.032 39.1731L211.427 44.8753H206.071H206.07Z" fill="black"/>
<path d="M71.3122 36.6179C71.3048 36.6179 71.2967 36.6179 71.2893 36.6164C71.2465 36.6105 71.2082 36.5876 71.1823 36.5529L69.5168 34.3325C69.463 34.2609 69.4777 34.1591 69.5493 34.1052L79.1379 26.9038C79.1726 26.878 79.2169 26.8662 79.259 26.8728C79.3018 26.8787 79.3401 26.9023 79.366 26.937L81.0204 29.1655C81.0735 29.2371 81.0588 29.3389 80.9872 29.3921L71.4089 36.5854C71.3808 36.6068 71.3462 36.6179 71.3115 36.6179H71.3122ZM69.8747 34.2676L71.3447 36.2275L80.6632 29.229L79.2021 27.2617L69.874 34.2676H69.8747Z" fill="white"/>
<path d="M88.8633 30.4658C87.2059 30.4658 85.5293 30.0326 84.0069 29.1212C81.8323 27.8188 80.2952 25.7474 79.679 23.2872C79.0628 20.8269 79.4414 18.2737 80.7446 16.0976C83.4351 11.6043 89.2757 10.1358 93.766 12.8241C95.9407 14.1265 97.4778 16.1979 98.094 18.6582C98.7102 21.1184 98.3316 23.6716 97.0284 25.8478C95.25 28.818 92.0946 30.4665 88.8633 30.4665V30.4658ZM88.909 11.8035C85.7883 11.8035 82.7414 13.3953 81.0235 16.2643C79.7646 18.3667 79.3993 20.8321 79.9941 23.2082C80.5889 25.5844 82.0736 27.5849 84.1737 28.8423C85.6429 29.7219 87.2634 30.1411 88.8633 30.1411C91.9839 30.1411 95.0309 28.5494 96.7488 25.6803C98.0077 23.5779 98.3729 21.1125 97.7782 18.7364C97.1834 16.361 95.6987 14.3597 93.5985 13.1023C92.1293 12.2227 90.5088 11.8035 88.909 11.8035Z" fill="white"/>
<path d="M84.0508 26.9688C84.0146 26.9688 83.9777 26.9562 83.9475 26.9311C82.6746 25.8781 81.7876 24.4694 81.3839 22.8578C81.3618 22.7707 81.4149 22.6821 81.502 22.6607C81.5891 22.6393 81.6776 22.6917 81.699 22.7788C82.0857 24.3225 82.935 25.6722 84.1541 26.6802C84.2235 26.737 84.2331 26.8396 84.1755 26.909C84.1438 26.9481 84.0966 26.968 84.0501 26.968L84.0508 26.9688Z" fill="white"/>
<path d="M88.8477 28.7029C87.8795 28.7029 86.9025 28.5206 85.9683 28.1391C85.8849 28.1052 85.845 28.01 85.8797 27.9273C85.9137 27.8447 86.0089 27.8048 86.0915 27.8388C89.4432 29.2091 93.3785 27.8941 95.244 24.7786C95.2905 24.7018 95.3901 24.6767 95.4669 24.7225C95.5436 24.769 95.5687 24.8686 95.523 24.9454C94.0951 27.3296 91.5064 28.7036 88.8477 28.7036V28.7029Z" fill="white"/>
<path d="M80.6313 29.0703C80.6232 29.0703 80.6158 29.0703 80.6077 29.0688C80.5649 29.0629 80.5266 29.0401 80.5007 29.0054L79.3488 27.4616C79.295 27.3901 79.3097 27.2882 79.382 27.2343L80.9634 26.0522C81.0357 25.9983 81.1368 26.0131 81.1907 26.0854C81.2446 26.1577 81.2298 26.2595 81.1575 26.3127L79.706 27.3974L80.6638 28.6807L82.2186 27.5192C82.2902 27.4653 82.3928 27.4801 82.4459 27.5524C82.4998 27.624 82.485 27.7265 82.4127 27.7797L80.7273 29.0386C80.6992 29.06 80.6645 29.0711 80.6299 29.0711L80.6313 29.0703Z" fill="white"/>
<path d="M85.1148 42.1382L84.7738 39.0758L82.8666 39.2888C82.6235 38.6068 82.2735 37.9795 81.8395 37.4255L83.0379 35.9245L80.633 34.0001L79.4346 35.5011C78.7992 35.1993 78.1115 34.9962 77.3928 34.9089L77.1799 33L74.1199 33.3418L74.3328 35.2507C73.6517 35.4946 73.0251 35.8438 72.4712 36.2786L70.9718 35.0786L69.0491 37.4859L70.5485 38.6859C70.2474 39.3222 70.0443 40.0107 69.957 40.7294L68 41.0312L68.3908 44.0047L70.298 43.7918C70.5411 44.4738 70.8911 45.1011 71.3251 45.655L70.1267 47.156L72.5316 49.0804L73.73 47.5794C74.3654 47.8813 75.0531 48.0844 75.7718 48.1717L75.9848 50.0806L79.0447 49.7388L78.8318 47.8299C79.513 47.586 80.1395 47.2368 80.6934 46.802L82.1928 48.002L84.1155 45.5947L82.6161 44.3947C82.9172 43.7584 83.1203 43.0699 83.2076 42.3512L85.1148 42.1382ZM77.0126 45.4021C74.8818 45.6395 72.9615 44.1034 72.7241 41.971C72.4867 39.8378 74.0212 37.9166 76.1528 37.6784C78.2836 37.441 80.2039 38.9771 80.4413 41.1096C80.6787 43.2428 79.1442 45.1639 77.0126 45.4021Z" fill="#436FD0"/>
<path d="M120.396 31.0677C124.574 26.89 124.574 20.1166 120.396 15.9389C116.219 11.7611 109.445 11.7611 105.268 15.9389C101.09 20.1166 101.09 26.89 105.268 31.0677C109.445 35.2455 116.219 35.2455 120.396 31.0677Z" fill="#3FB686"/>
<path d="M112.833 34.3642C106.844 34.3642 101.973 29.4924 101.973 23.5033C101.973 17.5143 106.844 12.6432 112.833 12.6432C118.821 12.6432 123.694 17.515 123.694 23.5033C123.694 29.4916 118.822 34.3642 112.833 34.3642ZM112.833 12.9687C107.024 12.9687 102.297 17.6951 102.297 23.5041C102.297 29.313 107.024 34.0395 112.833 34.0395C118.642 34.0395 123.368 29.313 123.368 23.5041C123.368 17.6951 118.642 12.9687 112.833 12.9687Z" fill="black"/>
<path d="M112.828 24.2258C109.762 24.2258 106.958 25.3489 104.805 27.2055C106.205 30.2355 109.271 32.3386 112.828 32.3386C116.386 32.3386 119.451 30.2355 120.852 27.2055C118.698 25.3489 115.894 24.2258 112.828 24.2258Z" fill="white"/>
<path d="M112.832 22.7027C114.49 22.7027 115.833 21.3593 115.833 19.7023C115.833 18.0452 114.49 16.7018 112.832 16.7018C111.175 16.7018 109.832 18.0452 109.832 19.7023C109.832 21.3593 111.175 22.7027 112.832 22.7027Z" fill="white"/>
<path d="M194.725 89.1754V93.1818C194.725 99.1292 189.875 103.951 183.894 103.951C177.912 103.951 173.062 99.1297 173.062 93.1818V89.1754H194.725Z" fill="#3FB686"/>
<path d="M183.896 104.062C177.862 104.062 172.953 99.1817 172.953 93.1823V89.1759C172.953 89.1143 173.003 89.0648 173.065 89.0648C173.126 89.0648 173.176 89.1148 173.176 89.1759V93.1823C173.176 99.059 177.985 103.84 183.896 103.84C189.806 103.84 194.615 99.059 194.615 93.1823V89.1759C194.615 89.1143 194.665 89.0648 194.727 89.0648C194.788 89.0648 194.838 89.1148 194.838 89.1759V93.1823C194.838 99.1817 189.93 104.062 183.896 104.062Z" fill="black"/>
<path d="M183.894 99.9445C189.875 99.9445 194.725 95.123 194.725 89.1754C194.725 83.2278 189.875 78.4063 183.894 78.4063C177.912 78.4063 173.062 83.2278 173.062 89.1754C173.062 95.123 177.912 99.9445 183.894 99.9445Z" fill="#436FD0"/>
<path d="M183.896 100.055C177.862 100.055 172.953 95.1747 172.953 89.1754C172.953 83.176 177.862 78.2952 183.896 78.2952C189.93 78.2952 194.838 83.176 194.838 89.1754C194.838 95.1747 189.93 100.055 183.896 100.055ZM183.896 78.5178C177.985 78.5178 173.176 83.2987 173.176 89.1754C173.176 95.0521 177.985 99.8329 183.896 99.8329C189.806 99.8329 194.615 95.0521 194.615 89.1754C194.615 83.2987 189.806 78.5178 183.896 78.5178Z" fill="black"/>
<path d="M176.107 90.3616C176.052 90.3616 176.004 90.3212 175.996 90.2657C175.947 89.9073 175.922 89.5403 175.922 89.1759C175.922 86.4011 177.412 83.7913 179.81 82.3653C179.862 82.334 179.931 82.3512 179.963 82.4037C179.994 82.4562 179.977 82.5248 179.924 82.5561C177.593 83.9423 176.146 86.4788 176.146 89.1759C176.146 89.5302 176.17 89.8866 176.218 90.2354C176.227 90.2965 176.184 90.3525 176.123 90.3606C176.118 90.3616 176.113 90.3616 176.108 90.3616H176.107Z" fill="white"/>
<path d="M179.593 95.8345C179.572 95.8345 179.551 95.8285 179.532 95.8163C178.096 94.882 176.983 93.4878 176.397 91.8906C176.376 91.8331 176.406 91.769 176.464 91.7483C176.522 91.7276 176.586 91.7569 176.607 91.8144C177.176 93.3671 178.258 94.722 179.654 95.6306C179.706 95.6639 179.721 95.733 179.687 95.7845C179.665 95.8173 179.629 95.835 179.593 95.835L179.593 95.8345Z" fill="white"/>
<path d="M183.897 97.1061C182.764 97.1061 181.67 96.8749 180.644 96.419C180.588 96.3938 180.563 96.3282 180.588 96.2721C180.613 96.2161 180.679 96.1909 180.736 96.2161C181.732 96.6593 182.796 96.8839 183.897 96.8839C186.765 96.8839 189.386 95.3201 190.739 92.8028C190.768 92.7488 190.836 92.7281 190.89 92.7573C190.945 92.7861 190.966 92.8537 190.936 92.9078C189.544 95.4973 186.847 97.1066 183.896 97.1066L183.897 97.1061Z" fill="white"/>
<path d="M191.518 91.2142C191.508 91.2142 191.499 91.2132 191.49 91.2107C191.43 91.1955 191.394 91.1349 191.41 91.0754C191.567 90.4575 191.647 89.8185 191.647 89.1754C191.647 87.1163 190.84 85.181 189.376 83.7247C189.333 83.6813 189.333 83.6111 189.376 83.5677C189.42 83.5243 189.491 83.5243 189.534 83.5677C191.041 85.0654 191.871 87.0573 191.871 89.1754C191.871 89.8366 191.789 90.4944 191.627 91.1299C191.614 91.1804 191.568 91.2137 191.519 91.2137L191.518 91.2142Z" fill="white"/>
<path d="M188.295 82.803C188.273 82.803 188.251 82.7969 188.232 82.7838C186.95 81.9226 185.451 81.4673 183.898 81.4673C183.216 81.4673 182.539 81.5551 181.887 81.7288C181.827 81.7449 181.766 81.7096 181.75 81.65C181.734 81.5905 181.769 81.5299 181.829 81.5137C182.5 81.335 183.196 81.2447 183.898 81.2447C185.496 81.2447 187.038 81.7131 188.357 82.599C188.408 82.6333 188.421 82.7025 188.387 82.7535C188.365 82.7853 188.33 82.8025 188.294 82.8025L188.295 82.803Z" fill="white"/>
<path d="M190.608 101.647C190.546 101.647 190.496 101.597 190.496 101.536V98.4871C190.496 98.4256 190.546 98.3761 190.608 98.3761C190.669 98.3761 190.719 98.4261 190.719 98.4871V101.536C190.719 101.598 190.669 101.647 190.608 101.647Z" fill="black"/>
<path d="M188.998 102.649C188.936 102.649 188.887 102.599 188.887 102.537V100.49C188.887 100.429 188.937 100.379 188.998 100.379C189.06 100.379 189.11 100.429 189.11 100.49V102.537C189.11 102.599 189.06 102.649 188.998 102.649Z" fill="black"/>
<path d="M187.186 103.45C187.124 103.45 187.074 103.4 187.074 103.339V101.292C187.074 101.23 187.124 101.181 187.186 101.181C187.247 101.181 187.297 101.231 187.297 101.292V103.339C187.297 103.401 187.247 103.45 187.186 103.45Z" fill="black"/>
<path d="M181.851 88.7827C181.809 88.7827 181.77 88.7599 181.75 88.7206C181.589 88.394 181.508 88.0421 181.508 87.6762C181.508 86.3652 182.58 85.2991 183.899 85.2991C184.823 85.2991 185.673 85.8372 186.065 86.6696C186.091 86.7252 186.067 86.7913 186.011 86.8175C185.955 86.8438 185.889 86.8195 185.863 86.764C185.508 86.0094 184.737 85.5212 183.899 85.5212C182.703 85.5212 181.732 86.4879 181.732 87.6757C181.732 88.0078 181.806 88.3263 181.951 88.6221C181.978 88.6772 181.955 88.7438 181.9 88.771C181.884 88.7786 181.867 88.7821 181.851 88.7821V88.7827Z" fill="white"/>
<path d="M183.895 93.1965C183.198 93.1965 182.537 92.8947 182.082 92.3682C182.042 92.3217 182.047 92.2516 182.093 92.2112C182.14 92.1713 182.211 92.1763 182.251 92.2228C182.664 92.6998 183.263 92.9734 183.895 92.9734C185.09 92.9734 186.062 92.0067 186.062 90.819C186.062 90.4682 185.975 90.1204 185.812 89.8124C185.783 89.7579 185.803 89.6908 185.858 89.662C185.913 89.6332 185.981 89.6539 186.009 89.7085C186.19 90.0482 186.286 90.4323 186.286 90.819C186.286 92.1299 185.214 93.196 183.895 93.196V93.1965Z" fill="white"/>
<path d="M183.793 94.8229C183.733 94.8229 183.683 94.7749 183.682 94.7144L183.641 93.088C183.639 93.0264 183.688 92.9754 183.75 92.9739H183.753C183.813 92.9739 183.863 93.0218 183.864 93.0824L183.905 94.7088C183.907 94.7704 183.858 94.8214 183.796 94.8229H183.793Z" fill="white"/>
<path d="M183.895 85.5213C183.836 85.5213 183.787 85.4753 183.783 85.4163L183.676 83.4779C183.672 83.4163 183.72 83.3643 183.781 83.3608C183.84 83.3547 183.896 83.4042 183.899 83.4658L184.006 85.4042C184.01 85.4657 183.963 85.5177 183.901 85.5213C183.899 85.5213 183.897 85.5213 183.895 85.5213Z" fill="white"/>
<path d="M185.077 89.4515C185.07 89.4515 185.062 89.451 185.054 89.4495L182.582 88.9543C182.522 88.9421 182.483 88.8836 182.494 88.8235C182.506 88.7635 182.566 88.7241 182.626 88.7362L185.098 89.2314C185.158 89.2435 185.197 89.3021 185.186 89.3621C185.175 89.4151 185.128 89.4515 185.076 89.4515H185.077Z" fill="white"/>
<path d="M240.823 108.9V117.332C240.823 129.85 230.617 139.998 218.027 139.998C205.437 139.998 195.23 129.851 195.23 117.332V108.9H240.823Z" fill="#3FB686"/>
<path d="M218.031 140.233C205.332 140.233 195 129.96 195 117.333V108.901C195 108.771 195.106 108.667 195.235 108.667C195.364 108.667 195.47 108.772 195.47 108.901V117.333C195.47 129.702 205.591 139.764 218.031 139.764C230.471 139.764 240.593 129.702 240.593 117.333V108.901C240.593 108.771 240.698 108.667 240.828 108.667C240.957 108.667 241.063 108.772 241.063 108.901V117.333C241.063 129.96 230.731 140.233 218.031 140.233Z" fill="black"/>
<path d="M218.027 131.566C230.617 131.566 240.823 121.418 240.823 108.9C240.823 96.3817 230.617 86.2338 218.027 86.2338C205.437 86.2338 195.23 96.3817 195.23 108.9C195.23 121.418 205.437 131.566 218.027 131.566Z" fill="#436FD0"/>
<path d="M218.031 131.799C205.332 131.799 195 121.527 195 108.9C195 96.2726 205.332 86 218.031 86C230.731 86 241.063 96.2726 241.063 108.9C241.063 121.527 230.731 131.799 218.031 131.799ZM218.031 86.4685C205.591 86.4685 195.47 96.5308 195.47 108.9C195.47 121.268 205.591 131.331 218.031 131.331C230.471 131.331 240.593 121.268 240.593 108.9C240.593 96.5308 230.471 86.4685 218.031 86.4685Z" fill="black"/>
<path d="M201.64 111.396C201.524 111.396 201.423 111.311 201.407 111.194C201.302 110.44 201.25 109.668 201.25 108.901C201.25 103.06 204.386 97.5677 209.432 94.5664C209.543 94.5005 209.688 94.5366 209.755 94.6471C209.821 94.7576 209.785 94.9021 209.674 94.968C204.768 97.8854 201.721 103.224 201.721 108.901C201.721 109.646 201.772 110.397 201.874 111.131C201.892 111.259 201.801 111.377 201.673 111.394C201.662 111.396 201.651 111.396 201.641 111.396H201.64Z" fill="white"/>
<path d="M208.975 122.915C208.931 122.915 208.886 122.902 208.847 122.877C205.823 120.91 203.481 117.976 202.249 114.614C202.204 114.493 202.267 114.358 202.389 114.315C202.51 114.271 202.646 114.333 202.69 114.454C203.888 117.722 206.165 120.574 209.103 122.486C209.212 122.556 209.243 122.702 209.171 122.81C209.127 122.879 209.051 122.916 208.974 122.916L208.975 122.915Z" fill="white"/>
<path d="M218.036 125.592C215.652 125.592 213.349 125.105 211.19 124.146C211.072 124.092 211.018 123.954 211.072 123.836C211.125 123.718 211.263 123.665 211.382 123.718C213.48 124.651 215.719 125.124 218.036 125.124C224.072 125.124 229.59 121.833 232.437 116.534C232.498 116.421 232.641 116.377 232.755 116.439C232.87 116.499 232.913 116.642 232.851 116.755C229.922 122.206 224.245 125.593 218.035 125.593L218.036 125.592Z" fill="white"/>
<path d="M234.075 113.191C234.056 113.191 234.037 113.189 234.018 113.183C233.892 113.151 233.816 113.024 233.848 112.899C234.179 111.598 234.348 110.253 234.348 108.9C234.348 104.566 232.65 100.493 229.569 97.4275C229.477 97.3361 229.477 97.1885 229.569 97.0971C229.661 97.0057 229.809 97.0057 229.901 97.0971C233.072 100.249 234.818 104.442 234.818 108.9C234.818 110.291 234.646 111.676 234.305 113.013C234.278 113.12 234.182 113.19 234.078 113.19L234.075 113.191Z" fill="white"/>
<path d="M227.29 95.4875C227.246 95.4875 227.2 95.4748 227.159 95.4472C224.461 93.6347 221.306 92.6764 218.036 92.6764C216.601 92.6764 215.177 92.8612 213.804 93.2267C213.679 93.2607 213.55 93.1863 213.516 93.061C213.483 92.9356 213.556 92.8081 213.682 92.7741C215.095 92.398 216.56 92.2078 218.036 92.2078C221.4 92.2078 224.646 93.1938 227.422 95.0583C227.53 95.1306 227.557 95.2761 227.485 95.3834C227.439 95.4504 227.365 95.4865 227.289 95.4865L227.29 95.4875Z" fill="white"/>
<path d="M232.161 135.149C232.03 135.149 231.926 135.044 231.926 134.915V128.498C231.926 128.369 232.031 128.265 232.161 128.265C232.29 128.265 232.396 128.37 232.396 128.498V134.915C232.396 135.045 232.29 135.149 232.161 135.149Z" fill="black"/>
<path d="M228.77 137.257C228.64 137.257 228.535 137.152 228.535 137.023V132.714C228.535 132.584 228.641 132.48 228.77 132.48C228.899 132.48 229.005 132.585 229.005 132.714V137.023C229.005 137.153 228.899 137.257 228.77 137.257Z" fill="black"/>
<path d="M224.958 138.944C224.827 138.944 224.723 138.839 224.723 138.71V134.401C224.723 134.271 224.828 134.167 224.958 134.167C225.087 134.167 225.192 134.273 225.192 134.401V138.71C225.192 138.84 225.087 138.944 224.958 138.944Z" fill="black"/>
<path d="M213.73 108.073C213.642 108.073 213.559 108.025 213.518 107.942C213.18 107.255 213.008 106.514 213.008 105.744C213.008 102.985 215.265 100.741 218.04 100.741C219.985 100.741 221.774 101.874 222.6 103.626C222.655 103.743 222.604 103.882 222.486 103.937C222.369 103.992 222.229 103.941 222.174 103.824C221.426 102.236 219.803 101.209 218.04 101.209C215.524 101.209 213.479 103.243 213.479 105.743C213.479 106.442 213.635 107.113 213.941 107.735C213.998 107.851 213.949 107.991 213.833 108.049C213.8 108.065 213.765 108.072 213.73 108.072V108.073Z" fill="white"/>
<path d="M218.03 117.363C216.562 117.363 215.171 116.728 214.213 115.62C214.129 115.522 214.139 115.374 214.238 115.289C214.336 115.205 214.484 115.216 214.57 115.314C215.438 116.318 216.7 116.893 218.03 116.893C220.545 116.893 222.591 114.859 222.591 112.359C222.591 111.621 222.408 110.889 222.063 110.24C222.003 110.126 222.046 109.984 222.162 109.924C222.277 109.863 222.419 109.907 222.48 110.022C222.86 110.737 223.062 111.545 223.062 112.359C223.062 115.118 220.805 117.362 218.03 117.362V117.363Z" fill="white"/>
<path d="M217.818 120.786C217.69 120.786 217.586 120.685 217.583 120.558L217.496 117.135C217.493 117.005 217.595 116.898 217.726 116.894H217.732C217.859 116.894 217.964 116.995 217.967 117.123L218.053 120.546C218.057 120.676 217.954 120.783 217.824 120.786H217.818Z" fill="white"/>
<path d="M218.031 101.209C217.907 101.209 217.803 101.112 217.796 100.988L217.571 96.9081C217.563 96.7784 217.663 96.669 217.793 96.6616C217.917 96.6488 218.033 96.7529 218.04 96.8826L218.266 100.962C218.273 101.092 218.174 101.201 218.044 101.209C218.039 101.209 218.035 101.209 218.031 101.209Z" fill="white"/>
<path d="M220.518 109.481C220.503 109.481 220.487 109.48 220.471 109.477L215.267 108.434C215.14 108.409 215.058 108.286 215.082 108.159C215.108 108.033 215.233 107.95 215.359 107.975L220.563 109.018C220.69 109.043 220.772 109.166 220.747 109.293C220.725 109.404 220.627 109.481 220.517 109.481H220.518Z" fill="white"/>
</g>
</svg>
