<svg width="240" height="176" viewBox="0 0 240 176" fill="none" xmlns="http://www.w3.org/2000/svg">
<path d="M72.2195 123.044C71.5182 118.148 75.3172 113.766 80.2635 113.766L135.901 113.766C140.388 113.766 144.027 117.404 144.027 121.892V160.017C144.027 164.531 140.347 168.18 135.833 168.143L85.5963 167.725C81.5793 167.692 78.1895 164.728 77.6199 160.751L72.2195 123.044Z" fill="url(#paint0_linear_2132_2862)"/>
<circle cx="211.47" cy="155.209" r="7.31346" fill="url(#paint1_linear_2132_2862)"/>
<circle cx="7.31346" cy="7.31346" r="7.31346" transform="matrix(-1 0 0 1 42.4492 144.645)" fill="url(#paint2_linear_2132_2862)"/>
<circle cx="228.532" cy="143.833" r="4.06303" fill="url(#paint3_linear_2132_2862)"/>
<circle cx="4.06303" cy="4.06303" r="4.06303" transform="matrix(-1 0 0 1 22.125 136.519)" fill="url(#paint4_linear_2132_2862)"/>
<circle cx="221.219" cy="121.892" r="3.25043" fill="url(#paint5_linear_2132_2862)"/>
<path d="M138.91 148.938C138.905 146.057 138.333 143.204 137.227 140.544C136.12 137.884 134.5 135.468 132.46 133.433C130.419 131.399 127.998 129.787 125.335 128.688C122.671 127.59 119.817 127.026 116.936 127.031C114.055 127.035 111.203 127.607 108.542 128.714C105.882 129.82 103.466 131.44 101.432 133.48C99.3973 135.521 97.7848 137.942 96.6863 140.606C95.5877 143.269 95.0245 146.123 95.0289 149.004L103.373 148.992C103.37 147.206 103.719 145.438 104.4 143.787C105.081 142.136 106.08 140.636 107.341 139.372C108.601 138.107 110.099 137.103 111.747 136.418C113.396 135.732 115.163 135.378 116.949 135.375C118.734 135.372 120.503 135.721 122.153 136.402C123.804 137.083 125.304 138.082 126.569 139.342C127.833 140.603 128.837 142.1 129.523 143.749C130.209 145.398 130.563 147.165 130.566 148.95L138.91 148.938Z" fill="#404348"/>
<path d="M105.74 101.908L87.0301 114.868L84.9985 111.349L104.656 100L105.74 101.908Z" fill="#404348"/>
<path d="M202.299 86.6496L203.117 86.6496C203.24 86.6496 203.34 86.55 203.34 86.4271L203.34 68.7709C203.34 68.648 203.24 68.5484 203.117 68.5484L202.299 68.5484C202.176 68.5484 202.077 68.648 202.077 68.7709L202.077 86.4271C202.077 86.55 202.176 86.6496 202.299 86.6496Z" fill="#868787"/>
<path d="M210.717 76.3293L211.535 76.3293C211.658 76.3293 211.758 76.2297 211.758 76.1068L211.758 67.3428C211.758 67.22 211.658 67.1203 211.535 67.1203L210.717 67.1203C210.594 67.1203 210.495 67.22 210.495 67.3428L210.495 76.1068C210.495 76.2297 210.594 76.3293 210.717 76.3293Z" fill="#868787"/>
<path d="M210.717 83.6793L211.535 83.6793C211.658 83.6793 211.758 83.5796 211.758 83.4567L211.758 78.3707C211.758 78.2479 211.658 78.1482 211.535 78.1482L210.717 78.1482C210.594 78.1482 210.495 78.2479 210.495 78.3707L210.495 83.4567C210.495 83.5796 210.594 83.6793 210.717 83.6793Z" fill="#868787"/>
<path d="M194.936 78.8793L195.754 78.8793C195.877 78.8793 195.977 78.7796 195.977 78.6568L195.977 66.9119C195.977 66.789 195.877 66.6894 195.754 66.6894L194.936 66.6894C194.813 66.6894 194.713 66.789 194.713 66.9119L194.713 78.6568C194.713 78.7796 194.813 78.8793 194.936 78.8793Z" fill="#868787"/>
<path d="M194.936 86.2281L195.754 86.2281C195.877 86.2281 195.977 86.1285 195.977 86.0056L195.977 80.9196C195.977 80.7968 195.877 80.6971 195.754 80.6971L194.936 80.6971C194.813 80.6971 194.713 80.7968 194.713 80.9196L194.713 86.0056C194.713 86.1285 194.813 86.2281 194.936 86.2281Z" fill="#868787"/>
<path d="M202.299 93.4897L203.117 93.4897C203.24 93.4897 203.34 93.3901 203.34 93.2672L203.34 88.1341C203.34 88.0113 203.24 87.9116 203.117 87.9116L202.299 87.9116C202.176 87.9116 202.077 88.0113 202.077 88.1341L202.077 93.2672C202.077 93.3901 202.176 93.4897 202.299 93.4897Z" fill="#868787"/>
<circle cx="203.358" cy="50.3566" r="12.2899" transform="rotate(160.498 203.358 50.3566)" fill="url(#paint6_linear_2132_2862)" stroke="url(#paint7_linear_2132_2862)" stroke-width="2.61487"/>
<mask id="mask0_2132_2862" style="mask-type:alpha" maskUnits="userSpaceOnUse" x="192" y="39" width="22" height="23">
<rect x="213.551" y="55.6788" width="16.6837" height="16.6837" transform="rotate(160.725 213.551 55.6788)" fill="#D9D9D9"/>
</mask>
<g mask="url(#mask0_2132_2862)">
<path d="M201.63 44.1582L202.12 45.5765C202.743 45.5042 203.329 45.5807 203.878 45.8061C204.426 46.0314 204.916 46.4503 205.348 47.0626L204.31 47.9853C203.964 47.5154 203.583 47.1998 203.166 47.0387C202.75 46.8776 202.28 46.8895 201.757 47.0746C201.311 47.2326 200.967 47.4683 200.727 47.7816C200.487 48.0949 200.441 48.4659 200.589 48.8947C200.722 49.2795 200.947 49.5422 201.265 49.6828C201.582 49.8234 202.226 49.8824 203.197 49.8598C204.236 49.8252 205.002 49.9523 205.493 50.2412C205.984 50.5301 206.332 50.9715 206.537 51.5652C206.784 52.2799 206.747 52.9161 206.427 53.4738C206.106 54.0316 205.715 54.4227 205.255 54.6473L205.734 56.0327L204.426 56.4953L203.947 55.11C203.372 55.2148 202.854 55.1732 202.391 54.9851C201.929 54.7971 201.538 54.5065 201.219 54.1136L202.246 53.1579C202.498 53.4635 202.774 53.6618 203.075 53.7529C203.375 53.844 203.733 53.8163 204.147 53.6698C204.626 53.5002 204.954 53.2638 205.131 52.9607C205.307 52.6577 205.34 52.3467 205.23 52.0278C205.105 51.665 204.842 51.437 204.443 51.3437C204.044 51.2505 203.402 51.2311 202.516 51.2855C201.688 51.3316 200.998 51.1839 200.446 50.8425C199.894 50.5011 199.51 50.0171 199.293 49.3903C199.023 48.6097 199.047 47.935 199.364 47.3663C199.681 46.7975 200.16 46.3442 200.801 46.0062L200.323 44.6208L201.63 44.1582Z" fill="url(#paint8_linear_2132_2862)"/>
</g>
<path d="M46.2216 124.149L47.3372 124.149C47.5048 124.149 47.6406 124.013 47.6406 123.845L47.6406 99.7721C47.6406 99.6045 47.5048 99.4687 47.3372 99.4687L46.2216 99.4687C46.0541 99.4687 45.9182 99.6045 45.9182 99.7721L45.9182 123.845C45.9182 124.013 46.0541 124.149 46.2216 124.149Z" fill="#868787"/>
<path d="M57.6943 110.078L58.8099 110.078C58.9774 110.078 59.1133 109.942 59.1133 109.774L59.1133 97.8249C59.1133 97.6574 58.9774 97.5215 58.8099 97.5215L57.6943 97.5215C57.5267 97.5215 57.3909 97.6574 57.3909 97.8249L57.3909 109.774C57.3909 109.942 57.5267 110.078 57.6943 110.078Z" fill="#868787"/>
<path d="M57.6943 120.099L58.8099 120.099C58.9774 120.099 59.1133 119.963 59.1133 119.796L59.1133 112.861C59.1133 112.694 58.9774 112.558 58.8099 112.558L57.6943 112.558C57.5267 112.558 57.3909 112.694 57.3909 112.861L57.3909 119.796C57.3909 119.963 57.5267 120.099 57.6943 120.099Z" fill="#868787"/>
<path d="M36.1747 113.554L37.2904 113.554C37.4579 113.554 37.5938 113.418 37.5938 113.251L37.5938 97.2373C37.5938 97.0698 37.4579 96.9339 37.2904 96.9339L36.1747 96.9339C36.0072 96.9339 35.8713 97.0698 35.8713 97.2373L35.8713 113.251C35.8713 113.418 36.0072 113.554 36.1747 113.554Z" fill="#868787"/>
<path d="M36.1747 123.574L37.2904 123.574C37.4579 123.574 37.5938 123.438 37.5938 123.271L37.5938 116.336C37.5938 116.169 37.4579 116.033 37.2904 116.033L36.1747 116.033C36.0072 116.033 35.8713 116.169 35.8713 116.336L35.8713 123.271C35.8713 123.438 36.0072 123.574 36.1747 123.574Z" fill="#868787"/>
<path d="M46.2216 133.475L47.3372 133.475C47.5048 133.475 47.6406 133.339 47.6406 133.172L47.6406 126.173C47.6406 126.005 47.5048 125.87 47.3372 125.87L46.2216 125.87C46.0541 125.87 45.9182 126.005 45.9182 126.173L45.9182 133.172C45.9182 133.339 46.0541 133.475 46.2216 133.475Z" fill="#868787"/>
<circle cx="47.6632" cy="74.6649" r="16.7567" transform="rotate(160.498 47.6632 74.6649)" fill="url(#paint9_linear_2132_2862)" stroke="url(#paint10_linear_2132_2862)" stroke-width="3.56526"/>
<mask id="mask1_2132_2862" style="mask-type:alpha" maskUnits="userSpaceOnUse" x="32" y="60" width="30" height="30">
<rect x="61.5664" y="81.9216" width="22.7474" height="22.7474" transform="rotate(160.725 61.5664 81.9216)" fill="#D9D9D9"/>
</mask>
<g mask="url(#mask1_2132_2862)">
<path d="M45.3101 66.2137L45.9784 68.1476C46.8279 68.0489 47.6267 68.1532 48.3747 68.4605C49.1228 68.7678 49.7911 69.3389 50.3797 70.1737L48.964 71.4318C48.4924 70.7911 47.9728 70.3609 47.4051 70.1412C46.8374 69.9214 46.197 69.9377 45.4839 70.1901C44.8749 70.4056 44.4066 70.7269 44.0791 71.1541C43.7515 71.5812 43.6888 72.0871 43.8909 72.6718C44.0722 73.1964 44.3794 73.5546 44.8124 73.7463C45.2454 73.938 46.1234 74.0184 47.4465 73.9877C48.8639 73.9404 49.9075 74.1137 50.5771 74.5076C51.2467 74.9016 51.7214 75.5033 52.0012 76.3129C52.3379 77.2873 52.2876 78.1547 51.8502 78.9152C51.4128 79.6756 50.8803 80.209 50.2526 80.5152L50.9053 82.4041L49.1227 83.0349L48.47 81.146C47.6858 81.2889 46.9785 81.2321 46.348 80.9757C45.7176 80.7193 45.1847 80.3232 44.7495 79.7874L46.1497 78.4844C46.4938 78.901 46.8706 79.1715 47.2803 79.2957C47.69 79.4199 48.1771 79.3821 48.7416 79.1824C49.3952 78.9511 49.8424 78.6288 50.083 78.2156C50.3236 77.8024 50.3688 77.3784 50.2186 76.9436C50.0476 76.4489 49.6901 76.138 49.146 76.0109C48.602 75.8837 47.7259 75.8573 46.5178 75.9314C45.3892 75.9943 44.4486 75.793 43.6958 75.3275C42.9431 74.862 42.4191 74.202 42.1238 73.3475C41.756 72.2832 41.7882 71.3633 42.2204 70.5878C42.6526 69.8124 43.3059 69.1942 44.1803 68.7334L43.5275 66.8445L45.3101 66.2137Z" fill="url(#paint11_linear_2132_2862)"/>
</g>
<path d="M167.553 62.2768L166.462 51.0529L165.953 45.8211L164.152 27.2701L125.817 30.9938L111.55 32.381L112.573 42.9029L113.08 48.1332L114.171 59.3571" fill="#29B860"/>
<path d="M167.553 62.2768L166.462 51.0529L165.953 45.8211L164.152 27.2701L125.817 30.9938L111.55 32.381L112.573 42.9029L113.08 48.1332L114.171 59.3571" fill="url(#paint12_linear_2132_2862)"/>
<g opacity="0.6">
<path d="M167.553 62.2782L165.103 62.1426L164.29 53.7664L163.781 48.5346L161.98 29.9837L123.644 33.7074L111.791 34.8588L111.55 32.3825L125.817 30.9953L164.152 27.2716L165.953 45.8225L166.462 51.0543L167.553 62.2782Z" fill="white"/>
</g>
<path d="M167.802 63.2755C167.754 63.287 167.706 63.2953 167.656 63.3002C167.091 63.355 166.589 62.9417 166.534 62.3771L163.232 28.3928L112.675 33.3052L115.197 59.2587C115.252 59.8236 114.836 60.3263 114.274 60.3805C113.709 60.4354 113.207 60.0221 113.152 59.4574L110.531 32.4816C110.505 32.2104 110.587 31.9399 110.76 31.7294C110.933 31.5191 111.182 31.3864 111.454 31.3597L125.721 29.9725L164.056 26.2487C164.327 26.2224 164.598 26.3048 164.808 26.478C165.019 26.6511 165.152 26.9007 165.178 27.1719L168.579 62.1784C168.629 62.6931 168.29 63.1562 167.802 63.2755Z" fill="#797979"/>
<path d="M161.784 61.9601L160.696 50.7377L159.548 38.9282C156.556 39.2198 153.896 37.0289 153.605 34.0375L123.21 36.9918C123.502 39.9832 121.311 42.643 118.32 42.9346L118.854 48.4481L119.946 59.6694" fill="#4FEC91"/>
<path d="M161.784 61.9601L160.696 50.7377L159.548 38.9282C156.556 39.2198 153.896 37.0289 153.605 34.0375L123.21 36.9918C123.502 39.9832 121.311 42.643 118.32 42.9346L118.854 48.4481L119.946 59.6694" fill="url(#paint13_linear_2132_2862)"/>
<path d="M146.979 57.681C148.919 54.4875 147.902 50.3263 144.709 48.3867C141.515 46.4471 137.354 47.4636 135.414 50.6571C133.475 53.8506 134.491 58.0118 137.685 59.9514C140.878 61.891 145.039 60.8745 146.979 57.681Z" fill="#42454C"/>
<path d="M98.3812 167.762C113.904 167.929 155.013 156.727 177.22 145.514C182.312 142.943 185.162 137.388 184.333 131.744C181.425 111.956 173.806 94.523 164.212 77.56L153.881 119.878L100.875 148.641L91.2188 157.68L95.3237 167.545L98.3812 167.762Z" fill="#989C9C"/>
<path d="M95.5023 167.967C111.025 168.135 152.135 156.932 174.341 145.719C179.433 143.148 182.283 137.593 181.454 131.95C178.546 112.161 170.927 94.7284 161.334 77.7654L151.002 120.083L97.996 148.846L88.3398 157.886L92.4448 167.751L95.5023 167.967Z" fill="#B3B8B6"/>
<path d="M95.5023 167.967C111.025 168.135 152.135 156.932 174.341 145.719C179.433 143.148 182.283 137.593 181.454 131.95C178.546 112.161 170.927 94.7284 161.334 77.7654L151.002 120.083L97.996 148.846L88.3398 157.886L92.4448 167.751L95.5023 167.967Z" fill="url(#paint14_linear_2132_2862)"/>
<path d="M98.7365 168.791C98.6109 168.791 98.4888 168.79 98.3661 168.789C98.3457 168.789 98.3252 168.788 98.3047 168.786L95.2473 168.57C94.8598 168.543 94.5209 168.299 94.3715 167.94L90.2663 158.075C90.1018 157.679 90.2 157.223 90.5126 156.93L100.169 147.891C100.233 147.831 100.304 147.779 100.381 147.738L152.987 119.192L163.211 77.3163C163.31 76.9069 163.65 76.6002 164.067 76.5424C164.484 76.4844 164.895 76.6875 165.102 77.0542C176.528 97.2575 182.771 114.078 185.345 131.595C186.242 137.7 183.161 143.662 177.679 146.431C156.385 157.183 115.335 168.791 98.7365 168.791ZM98.4189 166.735C98.5173 166.736 98.6178 166.736 98.7184 166.736C113.743 166.736 153.967 156.103 176.753 144.597C181.444 142.228 184.081 137.123 183.312 131.893C180.874 115.299 175.076 99.3083 164.587 80.341L154.875 120.121C154.806 120.403 154.622 120.642 154.367 120.781L101.477 149.481L92.4369 157.943L96.0247 166.565L98.4189 166.735Z" fill="#42454C"/>
<path d="M135.132 87.9197L129.945 77.907L127.526 73.2401L118.954 56.6903L84.7543 74.4069L72.0273 81.0016L76.8913 90.3876L79.3074 95.0541L84.4948 105.067" fill="#29B860"/>
<path d="M135.132 87.9197L129.945 77.907L127.526 73.2401L118.954 56.6903L84.7543 74.4069L72.0273 81.0016L76.8913 90.3876L79.3074 95.0541L84.4948 105.067" fill="url(#paint15_linear_2132_2862)"/>
<g opacity="0.6">
<path d="M135.132 87.9197L132.808 88.7051L128.937 81.2326L126.518 76.5657L117.946 60.016L83.7466 77.7325L73.1727 83.2104L72.0273 81.0016L84.7543 74.4069L118.954 56.6903L127.526 73.2401L129.945 77.907L135.132 87.9197Z" fill="white"/>
</g>
<path d="M84.4956 106.094C84.124 106.094 83.7654 105.892 83.5826 105.539L71.1151 81.4742C70.99 81.2323 70.9657 80.9505 71.0481 80.6908C71.1305 80.4311 71.3129 80.2148 71.5547 80.0895L84.2816 73.4948L118.481 55.7782C118.723 55.653 119.005 55.6291 119.264 55.7113C119.524 55.7937 119.74 55.976 119.866 56.2179L136.045 87.4471C136.306 87.9509 136.109 88.5709 135.605 88.8318C135.101 89.0925 134.481 88.8957 134.22 88.3922L118.514 58.075L73.4119 81.441L85.4069 104.594C85.6679 105.098 85.471 105.718 84.9672 105.979C84.8163 106.057 84.6546 106.094 84.4956 106.094Z" fill="#797979"/>
<path d="M129.657 89.7732L124.473 79.7609L119.013 69.2262C116.345 70.6095 113.061 69.5652 111.678 66.897L84.5636 80.9455C85.9469 83.6138 84.9026 86.8977 82.2344 88.2811L84.7813 93.2002L89.9692 103.21" fill="#4FEC91"/>
<path d="M129.657 89.7732L124.473 79.7609L119.013 69.2262C116.345 70.6095 113.061 69.5652 111.678 66.897L84.5636 80.9455C85.9469 83.6138 84.9026 86.8977 82.2344 88.2811L84.7813 93.2002L89.9692 103.21" fill="url(#paint16_linear_2132_2862)"/>
<path d="M112.433 94.9815C115.075 92.3395 115.075 88.056 112.433 85.414C109.791 82.772 105.508 82.772 102.866 85.414C100.224 88.056 100.224 92.3395 102.866 94.9815C105.508 97.6235 109.791 97.6235 112.433 94.9815Z" fill="#1FBC61"/>
<path d="M156.879 88.2384L154.989 77.1212L154.107 71.9391L150.985 53.5643L113.014 60.0183L98.8828 62.4217L100.656 72.8435L101.535 78.0242L103.425 89.1414" fill="#29B860"/>
<path d="M156.879 88.2384L154.989 77.1212L154.107 71.9391L150.985 53.5643L113.014 60.0183L98.8828 62.4217L100.656 72.8435L101.535 78.0242L103.425 89.1414" fill="url(#paint17_linear_2132_2862)"/>
<g opacity="0.6">
<path d="M156.879 88.2384L154.426 88.2782L153.016 79.9816L152.134 74.7996L149.012 56.4248L111.041 62.8788L99.3007 64.8744L98.8828 62.4217L113.014 60.0183L150.985 53.5643L154.107 71.9391L154.989 77.1212L156.879 88.2384Z" fill="white"/>
</g>
<path d="M103.424 90.1689C102.932 90.169 102.498 89.8147 102.412 89.3136L97.87 62.5941C97.8243 62.3255 97.8874 62.0498 98.0448 61.8275C98.2025 61.6053 98.4419 61.4547 98.7107 61.4091L112.842 59.0057L150.813 52.5517C151.081 52.5056 151.357 52.5691 151.58 52.7266C151.802 52.8843 151.952 53.1236 151.998 53.3923L157.892 88.0663C157.987 88.6256 157.611 89.1561 157.052 89.2511C156.491 89.3468 155.962 88.9697 155.867 88.4106L150.145 54.7492L113.186 61.031L100.068 63.2622L104.438 88.9693C104.533 89.5286 104.157 90.0591 103.597 90.1542C103.539 90.1641 103.481 90.1689 103.424 90.1689Z" fill="#797979"/>
<path d="M151.1 88.3352L149.213 77.2193L147.223 65.5221C144.26 66.0267 141.45 64.0315 140.946 61.0686L110.84 66.1877C111.345 69.1506 109.35 71.9601 106.387 72.4648L107.314 77.9261L109.205 89.0406" fill="#4FEC91"/>
<path d="M151.1 88.3352L149.213 77.2193L147.223 65.5221C144.26 66.0267 141.45 64.0315 140.946 61.0686L110.84 66.1877C111.345 69.1506 109.35 71.9601 106.387 72.4648L107.314 77.9261L109.205 89.0406" fill="url(#paint18_linear_2132_2862)"/>
<path d="M134.793 86.8187C137.435 84.1767 137.435 79.8932 134.793 77.2512C132.151 74.6092 127.867 74.6092 125.225 77.2512C122.583 79.8932 122.583 84.1767 125.225 86.8187C127.867 89.4607 132.151 89.4607 134.793 86.8187Z" fill="#1FBC61"/>
<path d="M174.118 94.3583L175.722 83.1962L176.468 77.993L179.121 59.5445L140.997 54.0649L126.808 52.027L125.306 62.4912L124.557 67.6924L122.953 78.8545" fill="#29B860"/>
<path d="M174.118 94.3583L175.722 83.1962L176.468 77.993L179.121 59.5445L140.997 54.0649L126.808 52.027L125.306 62.4912L124.557 67.6924L122.953 78.8545" fill="url(#paint19_linear_2132_2862)"/>
<g opacity="0.6">
<path d="M174.119 94.3583L171.772 93.6452L172.969 85.3153L173.716 80.112L176.368 61.6636L138.244 56.184L126.457 54.4899L126.81 52.027L140.998 54.0649L179.122 59.5445L176.47 77.9929L175.723 83.1962L174.119 94.3583Z" fill="white"/>
</g>
<path d="M174.123 95.3858C174.074 95.3858 174.025 95.3823 173.976 95.3752C173.414 95.2945 173.024 94.7738 173.105 94.2123L177.962 60.4152L127.683 53.1901L123.974 79.0006C123.893 79.5625 123.37 79.9522 122.811 79.8714C122.249 79.7907 121.86 79.27 121.94 78.7085L125.795 51.8812C125.834 51.6116 125.979 51.3683 126.197 51.2049C126.415 51.0417 126.688 50.9718 126.958 51.0104L141.147 53.0483L179.271 58.5278C179.541 58.5666 179.784 58.7109 179.947 58.929C180.111 59.1471 180.18 59.4212 180.142 59.6908L175.139 94.5046C175.065 95.0165 174.626 95.3858 174.123 95.3858Z" fill="#797979"/>
<path d="M168.588 92.6809L170.194 81.5209L171.88 69.7762C168.905 69.3495 166.841 66.59 167.268 63.6149L137.041 59.2723C136.614 62.2475 133.855 64.3114 130.879 63.8848L130.09 69.3677L128.488 80.5276" fill="#4FEC91"/>
<path d="M168.588 92.6809L170.194 81.5209L171.88 69.7762C168.905 69.3495 166.841 66.59 167.268 63.6149L137.041 59.2723C136.614 62.2475 133.855 64.3114 130.879 63.8848L130.09 69.3677L128.488 80.5276" fill="url(#paint20_linear_2132_2862)"/>
<path d="M155.219 85.0116C157.861 82.3696 157.861 78.086 155.219 75.444C152.577 72.802 148.293 72.802 145.651 75.444C143.009 78.0861 143.009 82.3696 145.651 85.0116C148.293 87.6536 152.576 87.6536 155.219 85.0116Z" fill="#1FBC61"/>
<path d="M140.429 111.285L145.928 121.131L148.49 125.72L157.58 141.992L123.954 160.774L111.439 167.763L106.285 158.533L103.721 153.946L98.2227 144.101" fill="#6E7073"/>
<path d="M111.439 168.79C111.345 168.79 111.251 168.777 111.159 168.751C110.897 168.677 110.675 168.502 110.542 168.264L97.326 144.602C97.0492 144.106 97.2264 143.48 97.722 143.204C98.2166 142.927 98.843 143.104 99.1196 143.6L111.835 166.365L156.182 141.596L139.532 111.786C139.255 111.291 139.433 110.665 139.928 110.389C140.423 110.112 141.049 110.289 141.326 110.785L158.477 141.491C158.609 141.729 158.642 142.01 158.568 142.272C158.494 142.534 158.319 142.756 158.081 142.889L111.94 168.66C111.786 168.746 111.613 168.79 111.439 168.79Z" fill="#797979"/>
<path d="M135.863 114.835L141.363 124.677L147.147 135.037C144.523 136.502 143.585 139.818 145.05 142.442L118.389 157.332C116.924 154.708 113.608 153.77 110.984 155.235L108.281 150.399L102.785 140.555" fill="#4FEC91"/>
<path d="M128.168 137.75C130.81 135.108 130.81 130.824 128.168 128.182C125.526 125.54 121.242 125.54 118.6 128.182C115.958 130.824 115.958 135.108 118.6 137.75C121.242 140.392 125.526 140.392 128.168 137.75Z" fill="#1FBC61"/>
<path d="M101.84 140.105C101.699 140.402 101.7 140.76 101.872 141.068L110.071 155.748C110.354 156.256 110.995 156.437 111.503 156.154C113.617 154.974 116.296 155.732 117.476 157.845C117.612 158.089 117.839 158.269 118.108 158.345C118.376 158.421 118.664 158.387 118.908 158.251L145.569 143.361C146.078 143.078 146.259 142.436 145.975 141.929C144.796 139.814 145.554 137.135 147.667 135.956C147.91 135.82 148.09 135.592 148.166 135.324C148.242 135.055 148.209 134.767 148.073 134.523L136.787 114.321C136.504 113.814 135.863 113.632 135.355 113.916C134.847 114.199 134.666 114.841 134.95 115.348L145.763 134.705C143.59 136.432 142.754 139.383 143.698 141.994L118.726 155.941C117 153.768 114.048 152.932 111.437 153.877L103.71 140.042C103.427 139.534 102.786 139.353 102.278 139.636C102.079 139.747 101.93 139.913 101.84 140.105Z" fill="#797979"/>
<path d="M159.927 117.747L162.109 128.81L163.124 133.968L166.732 152.253L128.944 159.706L114.881 162.478L112.836 152.106L111.818 146.951L109.637 135.887" fill="#707074"/>
<path d="M114.881 163.506C114.678 163.506 114.479 163.446 114.309 163.331C114.082 163.18 113.926 162.944 113.873 162.677L108.629 136.086C108.519 135.53 108.882 134.989 109.438 134.88C109.994 134.769 110.535 135.132 110.645 135.689L115.69 161.272L128.745 158.698L165.525 151.444L158.919 117.945C158.809 117.389 159.172 116.848 159.728 116.739C160.284 116.629 160.825 116.991 160.935 117.548L167.74 152.055C167.792 152.322 167.737 152.599 167.585 152.825C167.433 153.052 167.198 153.209 166.931 153.261L129.143 160.714L115.079 163.486C115.013 163.499 114.947 163.506 114.881 163.506Z" fill="#797979"/>
<path d="M154.492 119.709L156.676 130.771L158.97 142.412C156.021 142.992 154.103 145.856 154.684 148.804L124.723 154.711C124.143 151.763 121.28 149.845 118.331 150.425L117.258 144.991L115.078 133.929" fill="#919495"/>
<path d="M141.801 137.872C144.443 135.23 144.443 130.947 141.801 128.305C139.159 125.663 134.875 125.663 132.233 128.305C129.591 130.947 129.591 135.23 132.233 137.872C134.875 140.514 139.159 140.514 141.801 137.872Z" fill="#A4A8A8"/>
<path d="M170.334 120.083L168.658 131.234L167.876 136.432L165.106 154.864L127.018 149.14L112.844 147.008L114.416 136.554L115.196 131.357L116.872 120.206" fill="#707074"/>
<path d="M165.106 155.891C165.056 155.891 165.005 155.887 164.954 155.88L126.866 150.155L112.691 148.024C112.422 147.983 112.179 147.837 112.017 147.618C111.856 147.399 111.787 147.124 111.828 146.855L115.857 120.053C115.941 119.492 116.461 119.106 117.025 119.19C117.586 119.274 117.973 119.797 117.888 120.359L114.012 146.145L164.243 153.695L169.318 119.93C169.403 119.369 169.925 118.982 170.487 119.067C171.048 119.151 171.434 119.675 171.35 120.236L166.122 155.016C166.082 155.286 165.936 155.528 165.717 155.69C165.539 155.821 165.325 155.891 165.106 155.891Z" fill="#797979"/>
<path d="M164.557 120.097L162.883 131.247L161.118 142.98C158.146 142.533 155.375 144.582 154.928 147.554L124.729 143.013C125.177 140.041 123.128 137.27 120.156 136.823L120.978 131.345L122.656 120.196" fill="#919495"/>
<path d="M143.593 133.566C147.33 133.566 150.359 130.537 150.359 126.801C150.359 123.065 147.33 120.036 143.593 120.036C139.857 120.036 136.828 123.065 136.828 126.801C136.828 130.537 139.857 133.566 143.593 133.566Z" fill="#A4A8A8"/>
<path d="M165.094 138.968C134.922 150.017 99.9895 158.893 100.462 163.022L100.263 167.6L100.257 167.747C97.0556 167.846 94.2143 167.587 91.9625 166.743C89.83 165.946 88.3117 164.041 87.9563 161.791C84.8786 142.302 80.9176 123.711 76.184 105.903C74.9205 101.141 76.7819 96.0968 80.858 93.3294C97.1132 82.2885 122.967 73.7377 150.612 67.9173C156.065 66.7709 161.518 69.8444 163.358 75.1019C166.783 84.8772 170.066 95.5791 173.251 106.922C174.239 110.435 175.217 114.01 176.187 117.638C178.566 126.547 173.752 135.798 165.094 138.968Z" fill="url(#paint21_linear_2132_2862)"/>
<g opacity="0.4">
<path d="M89.189 164.051C86.1114 144.562 82.1503 125.971 77.4167 108.163C76.1532 103.401 78.0146 98.3568 82.0907 95.5894C98.3459 84.5485 124.2 75.9977 151.845 70.1773C156.263 69.2485 160.68 71.0901 163.176 74.6184C161.179 69.6576 155.896 66.8066 150.612 67.9173C122.967 73.7377 97.1132 82.2886 80.858 93.3294C76.7819 96.0969 74.9205 101.141 76.184 105.903C80.9176 123.711 84.8786 142.303 87.9563 161.791C88.1422 162.968 88.6486 164.048 89.3922 164.927C89.3053 164.642 89.2362 164.35 89.189 164.051Z" fill="white"/>
</g>
<path d="M165.095 138.968C134.923 150.017 99.99 158.893 100.463 163.022L100.263 167.6L99.9736 167.211C98.7747 167.105 97.5549 167.182 96.3459 167.201C93.7304 167.243 93.2419 167.028 92.7828 166.843C91.5687 166.356 89.9945 165.172 89.7791 163.638C89.5223 161.809 91.2947 160.174 91.9405 159.579C98.4321 153.59 140.789 141.614 158.697 135.28C164.483 133.234 170.735 130.522 173.323 124.96C176.103 118.984 173.64 112.003 171.17 105.893C171.9 106.166 172.594 106.513 173.251 106.922C174.24 110.435 175.217 114.01 176.187 117.638C178.566 126.547 173.753 135.798 165.095 138.968Z" fill="url(#paint22_linear_2132_2862)"/>
<path d="M99.0066 168.794C95.9835 168.794 93.5515 168.436 91.5998 167.705C89.1411 166.785 87.3557 164.581 86.9406 161.952C83.9512 143.029 79.9978 124.259 75.1905 106.166C73.8129 100.982 75.8577 95.4816 80.2783 92.4792C99.3326 79.5384 128.927 71.4334 150.399 66.9128C156.334 65.6632 162.322 69.038 164.327 74.7626C168.489 86.6445 172.692 100.583 177.177 117.374C178.394 121.93 177.866 126.744 175.689 130.929C173.512 135.113 169.874 138.311 165.446 139.933C154.639 143.89 143.171 147.586 133.054 150.847C124.167 153.71 116.492 156.184 110.752 158.334C102.76 161.328 101.633 162.611 101.486 162.966C101.516 163.505 101.12 163.981 100.577 164.043C100.012 164.106 99.5041 163.703 99.4397 163.139C99.0716 159.92 107.196 157.021 132.424 148.891C142.523 145.636 153.97 141.947 164.739 138.004C172.956 134.995 177.45 126.354 175.192 117.904C170.721 101.164 166.532 87.2742 162.388 75.4418C160.723 70.6879 155.752 67.8858 150.822 68.9233C129.531 73.4058 100.21 81.4259 81.4327 94.1788C77.7329 96.6915 76.0222 101.297 77.1759 105.638C82.0015 123.8 85.9694 142.638 88.9698 161.632C89.2697 163.53 90.5534 165.12 92.32 165.781C94.2848 166.517 96.8696 166.824 100.223 166.721C100.785 166.705 101.264 167.149 101.282 167.716C101.299 168.283 100.854 168.757 100.286 168.774C99.8486 168.788 99.4219 168.794 99.0066 168.794ZM101.481 162.905C101.481 162.906 101.481 162.906 101.481 162.906C101.481 162.906 101.481 162.906 101.481 162.905Z" fill="#86898A"/>
<path d="M186.632 120.009C185.458 120.724 184.113 121.277 182.621 121.692C181.88 118.91 181.2 116.366 180.569 114.008C178.958 112.449 177.397 111.107 175.932 110.183C174.874 109.515 173.583 109.307 172.365 109.591C167.247 110.776 162.647 113.139 156.55 113.509C151.307 113.926 147.343 110.902 145.047 106.694C143.387 103.655 142.593 99.9963 142.813 96.5694C143.097 92.1502 145.696 88.1974 149.62 86.147C153.815 83.9548 157.916 82.1818 161.865 81.099C164.038 80.5032 166.354 80.6491 168.423 81.5428C171.607 82.9193 174.761 84.6163 177.886 86.6133C180.129 88.0474 181.925 90.0813 183.118 92.4625C185.976 98.1514 188.027 103.768 189.07 108.798C189.438 110.565 189.683 112.26 189.794 113.858C189.966 116.34 188.754 118.711 186.632 120.009Z" fill="#B76042"/>
<path d="M186.632 120.009C185.458 120.724 184.113 121.277 182.621 121.692C181.88 118.91 181.2 116.366 180.569 114.008C178.958 112.449 177.397 111.107 175.932 110.183C174.874 109.515 173.583 109.307 172.365 109.591C167.247 110.776 162.647 113.139 156.55 113.509C151.307 113.926 147.343 110.902 145.047 106.694C143.387 103.655 142.593 99.9963 142.813 96.5694C143.097 92.1502 145.696 88.1974 149.62 86.147C153.815 83.9548 157.916 82.1818 161.865 81.099C164.038 80.5032 166.354 80.6491 168.423 81.5428C171.607 82.9193 174.761 84.6163 177.886 86.6133C180.129 88.0474 181.925 90.0813 183.118 92.4625C185.976 98.1514 188.027 103.768 189.07 108.798C189.438 110.565 189.683 112.26 189.794 113.858C189.966 116.34 188.754 118.711 186.632 120.009Z" fill="url(#paint23_linear_2132_2862)"/>
<g opacity="0.4">
<path d="M189.792 113.858C189.681 112.26 189.437 110.565 189.069 108.798C188.025 103.768 185.975 98.1513 183.117 92.4624C181.923 90.0813 180.128 88.0473 177.884 86.6133C174.759 84.6163 171.606 82.9193 168.421 81.5428C166.352 80.6491 164.037 80.5032 161.863 81.099C157.914 82.1817 153.814 83.9547 149.618 86.1469C145.694 88.1973 143.095 92.1501 142.812 96.5694C142.764 97.3108 142.767 98.0633 142.813 98.8178C143.1 94.4033 145.698 90.4555 149.618 88.4069C153.814 86.2147 157.914 84.4417 161.863 83.3589C161.864 83.3587 161.865 83.3584 161.866 83.3582C162.071 83.3021 162.287 83.2972 162.496 83.338C163.31 83.4973 164.079 83.894 164.661 84.4858C165.298 85.133 165.702 85.9681 166.094 86.787C167.465 89.6481 168.836 92.5092 170.207 95.3704C169.446 92.8885 168.685 90.4067 167.924 87.9249C167.717 87.2498 167.561 86.5583 167.492 85.8555C167.449 85.4131 167.465 84.9513 167.699 84.5788C167.723 84.5399 167.749 84.5027 167.777 84.4672C168.115 84.0423 168.72 83.933 169.215 84.1556C172.13 85.4661 175.019 87.0424 177.884 88.8732C180.128 90.3072 181.923 92.3412 183.117 94.7223C185.975 100.411 188.025 106.028 189.069 111.058C189.378 112.543 189.599 113.976 189.728 115.344C189.802 114.859 189.827 114.361 189.792 113.858Z" fill="white"/>
</g>
<path d="M186.425 120.009C185.252 120.724 183.906 121.277 182.415 121.692C181.673 118.91 180.993 116.366 180.362 114.008C178.751 112.449 177.19 111.107 175.725 110.183C174.667 109.515 173.377 109.307 172.159 109.591C167.041 110.776 162.441 113.139 156.343 113.509C151.1 113.926 147.137 110.902 144.84 106.694C144.971 106.433 145.123 106.182 145.292 105.942L145.415 105.975C145.934 107.253 147.17 109.732 149.769 111.043C152.642 112.493 155.608 111.723 159.014 110.838C163.781 109.599 168.32 107.127 168.67 106.934C169.976 106.215 171.754 105.143 174.423 104.674C176.099 104.38 176.937 104.233 177.981 104.541C180.171 105.188 180.782 106.548 184.06 110.326C184.948 111.349 186.164 112.531 187.444 112.085C188.118 111.849 188.572 111.189 188.755 110.497C188.898 109.944 188.896 109.369 188.864 108.798C189.231 110.565 189.476 112.26 189.587 113.858C189.759 116.34 188.547 118.711 186.425 120.009Z" fill="#B3B8B6"/>
<path d="M182.416 122.719C182.239 122.719 182.063 122.673 181.907 122.583C181.668 122.447 181.495 122.222 181.424 121.957L179.444 114.55C177.788 112.963 176.391 111.817 175.179 111.052C174.363 110.537 173.346 110.37 172.391 110.591C170.634 110.998 168.957 111.542 167.181 112.118C163.891 113.184 160.489 114.287 156.406 114.534C152.767 114.822 149.419 113.584 146.744 110.949C143.212 107.47 141.234 101.934 141.582 96.5028C141.886 91.767 144.705 87.4502 148.938 85.237C153.577 82.812 157.649 81.1343 161.387 80.1081C163.792 79.4484 166.362 79.6229 168.624 80.5998C171.809 81.9754 175.042 83.7073 178.233 85.7475C180.602 87.2619 182.538 89.4242 183.832 92.0006C187.775 99.8505 190.183 107.588 190.613 113.786C190.813 116.666 189.414 119.386 186.961 120.885C185.749 121.626 184.312 122.231 182.691 122.681C182.601 122.706 182.509 122.719 182.416 122.719ZM176.275 109.315C177.658 110.187 179.228 111.481 181.077 113.27C181.211 113.4 181.307 113.563 181.355 113.743L183.133 120.396C184.165 120.045 185.089 119.622 185.89 119.133C187.685 118.035 188.71 116.041 188.564 113.929C188.152 107.995 185.82 100.535 181.996 92.9228C180.867 90.6765 179.184 88.7939 177.126 87.4785C174.028 85.4976 170.894 83.8179 167.809 82.4861C165.974 81.6935 163.886 81.5524 161.931 82.0895C158.336 83.0763 154.397 84.7014 149.89 87.0578C146.288 88.9406 143.891 92.6102 143.633 96.6343C143.326 101.415 145.113 106.459 148.186 109.485C150.423 111.689 153.219 112.726 156.263 112.485C160.104 112.252 163.38 111.19 166.548 110.163C168.286 109.6 170.085 109.017 171.927 108.59C173.414 108.245 174.999 108.509 176.275 109.315Z" fill="#838587"/>
<path d="M180.445 112.666C181.808 113.859 182.78 115.431 183.671 117.001L179.06 114.183C178.574 113.886 178.421 113.252 178.718 112.766C179.036 112.236 179.77 112.111 180.247 112.503L180.445 112.666Z" fill="#5D5F67"/>
<g opacity="0.25">
<path d="M97.7907 117.355L89.938 121.092C88.3873 121.83 86.6847 120.92 86.1611 119.073L82.9426 107.72C82.4311 105.916 83.2386 103.895 84.7555 103.181L92.5655 99.51C94.1077 98.7851 95.7963 99.6861 96.3251 101.516L99.5863 112.803C100.107 114.605 99.3068 116.633 97.7907 117.355Z" fill="white"/>
</g>
<g opacity="0.25">
<path d="M102.032 128.19L92.1791 132.667C91.1627 133.129 90.06 132.527 89.7186 131.323L89.1599 129.353C88.8255 128.174 89.3455 126.852 90.3325 126.371L100.096 121.619C101.117 121.122 102.246 121.714 102.597 122.931L103.245 125.176C103.592 126.377 103.049 127.728 102.032 128.19Z" fill="white"/>
</g>
<g opacity="0.3">
<path d="M96.5064 156.868C99.0943 155.683 101.793 154.736 104.462 153.75C107.121 152.768 109.754 151.719 112.423 150.761C117.768 148.841 123.18 147.107 128.592 145.388C134.187 143.612 139.787 141.855 145.378 140.067C150.962 138.282 156.53 136.436 162.014 134.358C164.398 133.454 166.818 132.508 168.857 130.938C169.362 130.549 169.842 130.131 170.282 129.668C170.734 129.194 171.026 128.638 171.373 128.089C172.058 127.005 172.622 125.855 173.133 124.681C173.383 124.109 173.602 123.534 173.799 122.942C173.877 122.706 173.514 122.552 173.397 122.772C172.797 123.905 172.23 125.044 171.573 126.146C171.255 126.68 170.884 127.173 170.485 127.649C170.287 127.885 170.053 128.074 169.823 128.278C169.577 128.495 169.365 128.75 169.13 128.979C167.345 130.721 165.019 131.761 162.724 132.643C157.322 134.72 151.811 136.517 146.303 138.285C140.77 140.06 135.225 141.796 129.684 143.548C124.314 145.246 118.951 146.963 113.645 148.856C110.995 149.801 108.356 150.781 105.753 151.849C103.147 152.918 100.656 154.196 98.165 155.503C97.5379 155.832 96.8989 156.138 96.2665 156.457C95.9903 156.596 96.2323 156.994 96.5064 156.868Z" fill="white"/>
</g>
<defs>
<linearGradient id="paint0_linear_2132_2862" x1="70.8906" y1="110.516" x2="90.7995" y2="160.897" gradientUnits="userSpaceOnUse">
<stop stop-color="#BDC3C0"/>
<stop offset="1" stop-color="#40434A"/>
</linearGradient>
<linearGradient id="paint1_linear_2132_2862" x1="215.939" y1="147.896" x2="209.032" y2="162.522" gradientUnits="userSpaceOnUse">
<stop stop-color="#D9D9D9"/>
<stop offset="1" stop-color="#737373"/>
</linearGradient>
<linearGradient id="paint2_linear_2132_2862" x1="11.7828" y1="8.74524e-09" x2="4.87564" y2="14.6269" gradientUnits="userSpaceOnUse">
<stop stop-color="#D9D9D9"/>
<stop offset="1" stop-color="#737373"/>
</linearGradient>
<linearGradient id="paint3_linear_2132_2862" x1="231.015" y1="139.77" x2="227.177" y2="147.896" gradientUnits="userSpaceOnUse">
<stop stop-color="#D9D9D9"/>
<stop offset="1" stop-color="#737373"/>
</linearGradient>
<linearGradient id="paint4_linear_2132_2862" x1="6.546" y1="4.85847e-09" x2="2.70869" y2="8.12607" gradientUnits="userSpaceOnUse">
<stop stop-color="#D9D9D9"/>
<stop offset="1" stop-color="#737373"/>
</linearGradient>
<linearGradient id="paint5_linear_2132_2862" x1="223.206" y1="118.642" x2="220.136" y2="125.142" gradientUnits="userSpaceOnUse">
<stop stop-color="#D9D9D9"/>
<stop offset="1" stop-color="#737373"/>
</linearGradient>
<linearGradient id="paint6_linear_2132_2862" x1="199.174" y1="39.1126" x2="203.358" y2="63.9539" gradientUnits="userSpaceOnUse">
<stop stop-color="#D9D9D9"/>
<stop offset="1" stop-color="#42454C"/>
</linearGradient>
<linearGradient id="paint7_linear_2132_2862" x1="203.358" y1="36.7592" x2="203.358" y2="63.9539" gradientUnits="userSpaceOnUse">
<stop stop-color="#BEC3C1"/>
<stop offset="1" stop-color="#666666"/>
</linearGradient>
<linearGradient id="paint8_linear_2132_2862" x1="205.096" y1="56.2582" x2="200.905" y2="44.4146" gradientUnits="userSpaceOnUse">
<stop stop-color="white"/>
<stop offset="1" stop-color="#999999"/>
</linearGradient>
<linearGradient id="paint9_linear_2132_2862" x1="41.9587" y1="59.3342" x2="47.6632" y2="93.2042" gradientUnits="userSpaceOnUse">
<stop stop-color="#D9D9D9"/>
<stop offset="1" stop-color="#42454C"/>
</linearGradient>
<linearGradient id="paint10_linear_2132_2862" x1="47.6632" y1="56.1255" x2="47.6632" y2="93.2042" gradientUnits="userSpaceOnUse">
<stop stop-color="#BEC3C1"/>
<stop offset="1" stop-color="#666666"/>
</linearGradient>
<linearGradient id="paint11_linear_2132_2862" x1="50.0363" y1="82.7116" x2="44.3221" y2="66.5634" gradientUnits="userSpaceOnUse">
<stop stop-color="white"/>
<stop offset="1" stop-color="#999999"/>
</linearGradient>
<linearGradient id="paint12_linear_2132_2862" x1="135.086" y1="26.6316" x2="145.132" y2="67.7538" gradientUnits="userSpaceOnUse">
<stop stop-color="#C1C7C4"/>
<stop offset="0.471154" stop-color="#717276"/>
<stop offset="1" stop-color="#6A6B6F"/>
</linearGradient>
<linearGradient id="paint13_linear_2132_2862" x1="135.979" y1="33.8729" x2="143.906" y2="66.3272" gradientUnits="userSpaceOnUse">
<stop stop-color="#C1C7C4"/>
<stop offset="1" stop-color="#6A6B6F"/>
</linearGradient>
<linearGradient id="paint14_linear_2132_2862" x1="134.968" y1="77.7654" x2="161.606" y2="143.431" gradientUnits="userSpaceOnUse">
<stop stop-color="#C1C7C4"/>
<stop offset="1" stop-color="#6A6B6F"/>
</linearGradient>
<linearGradient id="paint15_linear_2132_2862" x1="103.58" y1="56.6903" x2="103.58" y2="105.067" gradientUnits="userSpaceOnUse">
<stop stop-color="#C1C7C4"/>
<stop offset="0.471154" stop-color="#717276"/>
<stop offset="1" stop-color="#6A6B6F"/>
</linearGradient>
<linearGradient id="paint16_linear_2132_2862" x1="105.946" y1="66.897" x2="105.946" y2="103.21" gradientUnits="userSpaceOnUse">
<stop stop-color="#C1C7C4"/>
<stop offset="1" stop-color="#6A6B6F"/>
</linearGradient>
<linearGradient id="paint17_linear_2132_2862" x1="127.881" y1="53.5643" x2="127.881" y2="89.1414" gradientUnits="userSpaceOnUse">
<stop stop-color="#C1C7C4"/>
<stop offset="0.471154" stop-color="#717276"/>
<stop offset="1" stop-color="#6A6B6F"/>
</linearGradient>
<linearGradient id="paint18_linear_2132_2862" x1="128.743" y1="61.0686" x2="128.743" y2="89.0406" gradientUnits="userSpaceOnUse">
<stop stop-color="#C1C7C4"/>
<stop offset="1" stop-color="#6A6B6F"/>
</linearGradient>
<linearGradient id="paint19_linear_2132_2862" x1="151.037" y1="52.027" x2="151.037" y2="94.3583" gradientUnits="userSpaceOnUse">
<stop stop-color="#C1C7C4"/>
<stop offset="0.471154" stop-color="#717276"/>
<stop offset="1" stop-color="#6A6B6F"/>
</linearGradient>
<linearGradient id="paint20_linear_2132_2862" x1="150.184" y1="59.2723" x2="150.184" y2="92.6809" gradientUnits="userSpaceOnUse">
<stop stop-color="#C1C7C4"/>
<stop offset="1" stop-color="#6A6B6F"/>
</linearGradient>
<linearGradient id="paint21_linear_2132_2862" x1="85.8303" y1="73.0382" x2="111.319" y2="174.611" gradientUnits="userSpaceOnUse">
<stop stop-color="#B9B9B9"/>
<stop offset="1" stop-color="#606064"/>
</linearGradient>
<linearGradient id="paint22_linear_2132_2862" x1="133.274" y1="105.893" x2="133.274" y2="167.6" gradientUnits="userSpaceOnUse">
<stop stop-color="#C1C7C4"/>
<stop offset="1" stop-color="#6A6B6F"/>
</linearGradient>
<linearGradient id="paint23_linear_2132_2862" x1="166.294" y1="80.7405" x2="166.294" y2="121.692" gradientUnits="userSpaceOnUse">
<stop stop-color="#C1C7C4"/>
<stop offset="1" stop-color="#6A6B6F"/>
</linearGradient>
</defs>
</svg>
