<svg width="240" height="176" viewBox="0 0 240 176" fill="none" xmlns="http://www.w3.org/2000/svg">
<circle cx="208.12" cy="150.966" r="8.61195" fill="url(#paint0_linear_2132_2638)"/>
<circle cx="8.61195" cy="8.61195" r="8.61195" transform="matrix(-1 0 0 1 41.0703 139.848)" fill="url(#paint1_linear_2132_2638)"/>
<circle cx="228.214" cy="137.569" r="4.78442" fill="url(#paint2_linear_2132_2638)"/>
<circle cx="4.78442" cy="4.78442" r="4.78442" transform="matrix(-1 0 0 1 17.1367 130.279)" fill="url(#paint3_linear_2132_2638)"/>
<circle cx="219.605" cy="111.733" r="3.82754" fill="url(#paint4_linear_2132_2638)"/>
<path d="M105.4 101.91L83.368 117.171L80.9758 113.027L104.123 99.663L105.4 101.91Z" fill="#404348"/>
<g filter="url(#filter0_d_2132_2638)">
<path fill-rule="evenodd" clip-rule="evenodd" d="M104.041 67.4491C105.637 68.128 106.774 69.29 107.451 70.9334C108.146 72.5842 108.15 74.2166 107.463 75.8302C106.998 76.9238 106.297 77.8006 105.359 78.4605C104.44 79.1281 103.418 79.54 102.293 79.6965C101.193 79.8427 100.105 79.6867 99.0288 79.2289C97.4153 78.5423 96.2695 77.3777 95.5923 75.7345C94.9152 74.0912 94.9279 72.4447 95.6296 70.7952C96.3162 69.1817 97.4862 68.0489 99.1396 67.3972C100.793 66.7456 102.427 66.7627 104.041 67.4491ZM124.3 23.3424C127.725 24.7994 130.481 26.6815 132.57 28.9889C134.677 31.3038 135.983 33.8819 136.49 36.7229C137.022 39.5538 136.643 42.4848 135.353 45.515C134.484 47.5588 133.374 49.2464 132.024 50.5777C130.692 51.9168 129.158 52.9585 127.423 53.7024C125.688 54.4463 123.786 54.9607 121.717 55.245C119.883 55.5235 118.294 55.9487 116.95 56.5203C115.623 57.0994 114.457 57.9479 113.452 59.0661C112.473 60.1738 111.57 61.6743 110.743 63.567L110.446 64.2661L101.49 60.4557L101.788 59.7566C103.186 56.5193 104.589 54.067 105.997 52.4004C107.423 50.7412 108.94 49.5656 110.548 48.8732C112.163 48.1628 113.978 47.6533 115.993 47.3462C117.377 47.1302 118.67 46.8018 119.874 46.3612C121.104 45.9102 122.184 45.2895 123.113 44.499C124.05 43.6907 124.785 42.6587 125.319 41.4038C125.922 39.9875 126.112 38.6179 125.891 37.2959C125.67 35.9738 125.117 34.7859 124.231 33.7316C123.364 32.6849 122.24 31.8676 120.859 31.2802C119.586 30.7387 118.258 30.5019 116.874 30.5695C115.516 30.6268 114.223 31.0505 112.997 31.8417C111.797 32.6226 110.793 33.8367 109.986 35.4839L100.412 31.4105C101.951 28.0422 103.989 25.5423 106.525 23.911C109.079 22.2873 111.892 21.4506 114.962 21.4016C118.05 21.3603 121.163 22.0075 124.3 23.3424Z" fill="url(#paint5_linear_2132_2638)"/>
</g>
<rect x="61.7422" y="77.2896" width="103.624" height="58.8774" rx="9.42039" fill="url(#paint6_linear_2132_2638)"/>
<circle cx="113.237" cy="106.413" r="16.1705" fill="#42454C"/>
<path d="M111.74 115.334L111.756 113.176C110.871 112.976 110.108 112.591 109.469 112.022C108.829 111.454 108.363 110.651 108.069 109.614L109.931 108.862C110.176 109.664 110.544 110.275 111.034 110.693C111.524 111.111 112.171 111.32 112.973 111.32C113.659 111.32 114.241 111.165 114.72 110.856C115.199 110.547 115.441 110.066 115.446 109.414C115.45 108.828 115.27 108.364 114.904 108.021C114.539 107.679 113.689 107.29 112.354 106.855C110.919 106.403 109.936 105.864 109.406 105.237C108.875 104.61 108.613 103.845 108.62 102.942C108.628 101.855 108.986 101.01 109.692 100.408C110.399 99.8062 111.121 99.4634 111.857 99.3798L111.873 97.2726H113.88L113.864 99.3798C114.699 99.5135 115.387 99.8187 115.927 100.295C116.467 100.772 116.86 101.353 117.106 102.039L115.243 102.841C115.047 102.306 114.765 101.905 114.399 101.637C114.033 101.37 113.533 101.236 112.897 101.236C112.161 101.236 111.6 101.399 111.213 101.725C110.826 102.051 110.63 102.457 110.627 102.942C110.623 103.494 110.871 103.928 111.37 104.246C111.869 104.564 112.736 104.898 113.971 105.25C115.123 105.584 115.993 106.115 116.581 106.842C117.169 107.57 117.46 108.41 117.453 109.363C117.444 110.551 117.086 111.454 116.379 112.073C115.673 112.691 114.8 113.076 113.762 113.227L113.747 115.334H111.74Z" fill="#919193"/>
<rect x="129" y="119" width="50.3757" height="28.6226" rx="4.57961" fill="url(#paint7_linear_2132_2638)"/>
<circle cx="154.033" cy="133.158" r="7.86111" fill="#42454C"/>
<path d="M153.307 137.495L153.314 136.446C152.884 136.348 152.514 136.161 152.203 135.885C151.892 135.609 151.665 135.218 151.522 134.714L152.427 134.348C152.546 134.739 152.725 135.035 152.963 135.239C153.202 135.442 153.516 135.544 153.906 135.544C154.24 135.544 154.523 135.468 154.756 135.318C154.988 135.168 155.106 134.934 155.108 134.617C155.11 134.332 155.023 134.107 154.845 133.94C154.667 133.773 154.254 133.584 153.605 133.373C152.908 133.153 152.43 132.891 152.172 132.586C151.914 132.281 151.787 131.91 151.79 131.471C151.794 130.942 151.968 130.532 152.311 130.239C152.655 129.946 153.006 129.78 153.364 129.739L153.371 128.715H154.347L154.339 129.739C154.745 129.804 155.08 129.952 155.342 130.184C155.605 130.416 155.796 130.698 155.915 131.032L155.01 131.422C154.914 131.162 154.777 130.966 154.6 130.836C154.422 130.706 154.178 130.641 153.869 130.641C153.512 130.641 153.239 130.721 153.05 130.879C152.862 131.038 152.767 131.235 152.766 131.471C152.764 131.739 152.884 131.95 153.127 132.105C153.37 132.259 153.791 132.422 154.391 132.592C154.951 132.755 155.374 133.013 155.66 133.367C155.946 133.72 156.087 134.129 156.084 134.592C156.08 135.17 155.906 135.609 155.562 135.909C155.218 136.21 154.794 136.397 154.29 136.47L154.282 137.495H153.307Z" fill="#919193"/>
<path fill-rule="evenodd" clip-rule="evenodd" d="M73.3722 139.111C73.3722 140.412 74.4266 141.466 75.7273 141.466H82.0676C84.0351 141.466 85.1352 143.736 83.9165 145.28L67.8694 165.617C66.9265 166.812 65.1147 166.812 64.1718 165.617L48.124 145.28C46.9052 143.736 48.0053 141.466 49.9728 141.466H56.8862C58.1869 141.466 59.2413 140.412 59.2413 139.111V123.214C59.2413 121.913 60.2957 120.859 61.5964 120.859H71.0171C72.3178 120.859 73.3722 121.913 73.3722 123.214V139.111Z" fill="url(#paint8_linear_2132_2638)"/>
<path fill-rule="evenodd" clip-rule="evenodd" d="M151.683 69.3659C151.683 68.0652 150.628 67.0108 149.327 67.0108L142.987 67.0108C141.02 67.0108 139.919 64.7414 141.138 63.1969L157.185 42.8597C158.128 41.6647 159.94 41.6647 160.883 42.8597L176.931 63.1968C178.149 64.7413 177.049 67.0108 175.082 67.0108L168.168 67.0108C166.868 67.0108 165.813 68.0652 165.813 69.3659L165.813 85.2631C165.813 86.5638 164.759 87.6182 163.458 87.6182L154.038 87.6182C152.737 87.6182 151.682 86.5638 151.682 85.2631L151.683 69.3659Z" fill="url(#paint9_linear_2132_2638)"/>
<path d="M48.9671 21.1721H47.6509C47.4532 21.1721 47.293 21.3324 47.293 21.53V49.9312C47.293 50.1288 47.4532 50.2891 47.6509 50.2891H48.9671C49.1647 50.2891 49.325 50.1288 49.325 49.9312V21.53C49.325 21.3324 49.1647 21.1721 48.9671 21.1721Z" fill="#868787"/>
<path d="M35.428 37.7731H34.1118C33.9142 37.7731 33.7539 37.9334 33.7539 38.1311V52.2284C33.7539 52.4261 33.9142 52.5863 34.1118 52.5863H35.428C35.6257 52.5863 35.7859 52.4261 35.7859 52.2284V38.1311C35.7859 37.9334 35.6257 37.7731 35.428 37.7731Z" fill="#868787"/>
<path d="M35.428 25.9501H34.1118C33.9142 25.9501 33.7539 26.1104 33.7539 26.3081V34.4892C33.7539 34.6869 33.9142 34.8472 34.1118 34.8472H35.428C35.6257 34.8472 35.7859 34.6869 35.7859 34.4892V26.3081C35.7859 26.1104 35.6257 25.9501 35.428 25.9501Z" fill="#868787"/>
<path d="M60.8147 33.6712H59.4986C59.3009 33.6712 59.1406 33.8315 59.1406 34.0291V52.9215C59.1406 53.1192 59.3009 53.2795 59.4986 53.2795H60.8147C61.0124 53.2795 61.1727 53.1192 61.1727 52.9215V34.0291C61.1727 33.8315 61.0124 33.6712 60.8147 33.6712Z" fill="#868787"/>
<path d="M60.8147 21.8502H59.4986C59.3009 21.8502 59.1406 22.0104 59.1406 22.2081V30.3892C59.1406 30.5869 59.3009 30.7472 59.4986 30.7472H60.8147C61.0124 30.7472 61.1727 30.5869 61.1727 30.3892V22.2081C61.1727 22.0104 61.0124 21.8502 60.8147 21.8502Z" fill="#868787"/>
<path d="M48.9671 10.1694H47.6509C47.4532 10.1694 47.293 10.3296 47.293 10.5273V18.7842C47.293 18.9819 47.4532 19.1421 47.6509 19.1421H48.9671C49.1647 19.1421 49.325 18.9819 49.325 18.7842V10.5273C49.325 10.3296 49.1647 10.1694 48.9671 10.1694Z" fill="#868787"/>
<circle cx="47.2669" cy="79.5518" r="19.7691" transform="rotate(-19.5021 47.2669 79.5518)" fill="url(#paint10_linear_2132_2638)" stroke="url(#paint11_linear_2132_2638)" stroke-width="4.2062"/>
<mask id="mask0_2132_2638" style="mask-type:alpha" maskUnits="userSpaceOnUse" x="30" y="62" width="36" height="35">
<rect x="30.8594" y="70.9906" width="26.8368" height="26.8368" transform="rotate(-19.2751 30.8594 70.9906)" fill="#D9D9D9"/>
</mask>
<g mask="url(#mask0_2132_2638)">
<path d="M50.0386 89.5222L49.2502 87.2407C48.248 87.3571 47.3056 87.2341 46.4231 86.8715C45.5405 86.509 44.752 85.8352 44.0576 84.8503L45.7279 83.3661C46.2842 84.122 46.8972 84.6295 47.567 84.8887C48.2368 85.1479 48.9923 85.1287 49.8335 84.831C50.5521 84.5768 51.1046 84.1977 51.491 83.6937C51.8774 83.1898 51.9514 82.593 51.713 81.9032C51.4991 81.2842 51.1367 80.8616 50.6258 80.6355C50.115 80.4094 49.0791 80.3144 47.5181 80.3507C45.8459 80.4065 44.6148 80.2021 43.8248 79.7373C43.0347 79.2725 42.4747 78.5626 42.1447 77.6076C41.7474 76.458 41.8067 75.4346 42.3228 74.5374C42.8388 73.6403 43.4671 73.011 44.2076 72.6497L43.4375 70.4213L45.5406 69.6771L46.3107 71.9055C47.2359 71.737 48.0703 71.8039 48.8141 72.1064C49.5579 72.4089 50.1865 72.8762 50.7 73.5083L49.048 75.0456C48.6421 74.5541 48.1975 74.235 47.7142 74.0885C47.2308 73.942 46.6562 73.9865 45.9902 74.2222C45.2191 74.495 44.6916 74.8752 44.4077 75.3628C44.1238 75.8503 44.0704 76.3505 44.2477 76.8634C44.4494 77.447 44.8712 77.8138 45.5131 77.9638C46.155 78.1138 47.1885 78.145 48.6138 78.0575C49.9453 77.9833 51.055 78.2208 51.9431 78.77C52.8311 79.3192 53.4493 80.0979 53.7977 81.106C54.2317 82.3617 54.1937 83.4469 53.6838 84.3618C53.1739 85.2766 52.4031 86.0059 51.3715 86.5496L52.1417 88.778L50.0386 89.5222Z" fill="url(#paint12_linear_2132_2638)"/>
</g>
<path d="M181.662 129.762L182.481 129.762C182.604 129.762 182.703 129.662 182.703 129.539L182.703 111.883C182.703 111.76 182.604 111.66 182.481 111.66L181.662 111.66C181.539 111.66 181.44 111.76 181.44 111.883L181.44 129.539C181.44 129.662 181.539 129.762 181.662 129.762Z" fill="#868787"/>
<path d="M190.08 119.441L190.899 119.441C191.021 119.441 191.121 119.342 191.121 119.219L191.121 110.455C191.121 110.332 191.021 110.232 190.899 110.232L190.08 110.232C189.957 110.232 189.858 110.332 189.858 110.455L189.858 119.219C189.858 119.342 189.957 119.441 190.08 119.441Z" fill="#868787"/>
<path d="M190.08 126.791L190.899 126.791C191.021 126.791 191.121 126.692 191.121 126.569L191.121 121.483C191.121 121.36 191.021 121.26 190.899 121.26L190.08 121.26C189.957 121.26 189.858 121.36 189.858 121.483L189.858 126.569C189.858 126.692 189.957 126.791 190.08 126.791Z" fill="#868787"/>
<path d="M174.299 121.991L175.117 121.991C175.24 121.991 175.34 121.892 175.34 121.769L175.34 110.024C175.34 109.901 175.24 109.801 175.117 109.801L174.299 109.801C174.176 109.801 174.077 109.901 174.077 110.024L174.077 121.769C174.077 121.892 174.176 121.991 174.299 121.991Z" fill="#868787"/>
<path d="M174.299 129.34L175.117 129.34C175.24 129.34 175.34 129.241 175.34 129.118L175.34 124.032C175.34 123.909 175.24 123.809 175.117 123.809L174.299 123.809C174.176 123.809 174.077 123.909 174.077 124.032L174.077 129.118C174.077 129.241 174.176 129.34 174.299 129.34Z" fill="#868787"/>
<path d="M181.662 136.602L182.481 136.602C182.604 136.602 182.703 136.502 182.703 136.379L182.703 131.246C182.703 131.123 182.604 131.024 182.481 131.024L181.662 131.024C181.539 131.024 181.44 131.123 181.44 131.246L181.44 136.379C181.44 136.502 181.539 136.602 181.662 136.602Z" fill="#868787"/>
<circle cx="182.722" cy="93.4686" r="12.2899" transform="rotate(160.498 182.722 93.4686)" fill="url(#paint13_linear_2132_2638)" stroke="url(#paint14_linear_2132_2638)" stroke-width="2.61487"/>
<mask id="mask1_2132_2638" style="mask-type:alpha" maskUnits="userSpaceOnUse" x="171" y="83" width="22" height="22">
<rect x="192.914" y="98.7909" width="16.6837" height="16.6837" transform="rotate(160.725 192.914 98.7909)" fill="#D9D9D9"/>
</mask>
<g mask="url(#mask1_2132_2638)">
<path d="M180.993 87.2703L181.483 88.6886C182.106 88.6162 182.692 88.6927 183.241 88.9181C183.79 89.1435 184.28 89.5624 184.711 90.1746L183.673 91.0974C183.327 90.6274 182.946 90.3119 182.53 90.1508C182.113 89.9896 181.644 90.0016 181.121 90.1866C180.674 90.3447 180.331 90.5804 180.09 90.8937C179.85 91.2069 179.804 91.578 179.952 92.0068C180.085 92.3916 180.311 92.6543 180.628 92.7949C180.946 92.9355 181.59 92.9945 182.56 92.9719C183.6 92.9372 184.365 93.0643 184.856 93.3533C185.347 93.6422 185.695 94.0835 185.901 94.6773C186.148 95.3919 186.111 96.0281 185.79 96.5859C185.469 97.1436 185.079 97.5348 184.618 97.7594L185.097 99.1448L183.79 99.6074L183.311 98.222C182.736 98.3269 182.217 98.2852 181.754 98.0972C181.292 97.9091 180.901 97.6186 180.582 97.2256L181.609 96.2699C181.861 96.5755 182.138 96.7739 182.438 96.865C182.739 96.9561 183.096 96.9284 183.51 96.7819C183.989 96.6122 184.317 96.3759 184.494 96.0728C184.67 95.7697 184.703 95.4588 184.593 95.1399C184.468 94.7771 184.206 94.549 183.807 94.4558C183.408 94.3625 182.765 94.3431 181.879 94.3975C181.051 94.4436 180.361 94.296 179.809 93.9546C179.257 93.6132 178.873 93.1291 178.656 92.5024C178.387 91.7218 178.41 91.0471 178.727 90.4783C179.044 89.9096 179.523 89.4562 180.165 89.1183L179.686 87.7329L180.993 87.2703Z" fill="url(#paint15_linear_2132_2638)"/>
</g>
<defs>
<filter id="filter0_d_2132_2638" x="90.3836" y="21.3998" width="51.0493" height="67.7701" filterUnits="userSpaceOnUse" color-interpolation-filters="sRGB">
<feFlood flood-opacity="0" result="BackgroundImageFix"/>
<feColorMatrix in="SourceAlpha" type="matrix" values="0 0 0 0 0 0 0 0 0 0 0 0 0 0 0 0 0 0 127 0" result="hardAlpha"/>
<feOffset dy="4.71019"/>
<feGaussianBlur stdDeviation="2.3551"/>
<feComposite in2="hardAlpha" operator="out"/>
<feColorMatrix type="matrix" values="0 0 0 0 0 0 0 0 0 0 0 0 0 0 0 0 0 0 0.25 0"/>
<feBlend mode="normal" in2="BackgroundImageFix" result="effect1_dropShadow_2132_2638"/>
<feBlend mode="normal" in="SourceGraphic" in2="effect1_dropShadow_2132_2638" result="shape"/>
</filter>
<linearGradient id="paint0_linear_2132_2638" x1="213.383" y1="142.354" x2="205.249" y2="159.578" gradientUnits="userSpaceOnUse">
<stop stop-color="#D9D9D9"/>
<stop offset="1" stop-color="#737373"/>
</linearGradient>
<linearGradient id="paint1_linear_2132_2638" x1="13.8748" y1="1.02979e-08" x2="5.7413" y2="17.2239" gradientUnits="userSpaceOnUse">
<stop stop-color="#D9D9D9"/>
<stop offset="1" stop-color="#737373"/>
</linearGradient>
<linearGradient id="paint2_linear_2132_2638" x1="231.138" y1="132.785" x2="226.619" y2="142.354" gradientUnits="userSpaceOnUse">
<stop stop-color="#D9D9D9"/>
<stop offset="1" stop-color="#737373"/>
</linearGradient>
<linearGradient id="paint3_linear_2132_2638" x1="7.70823" y1="5.72108e-09" x2="3.18961" y2="9.56884" gradientUnits="userSpaceOnUse">
<stop stop-color="#D9D9D9"/>
<stop offset="1" stop-color="#737373"/>
</linearGradient>
<linearGradient id="paint4_linear_2132_2638" x1="221.944" y1="107.906" x2="218.329" y2="115.561" gradientUnits="userSpaceOnUse">
<stop stop-color="#D9D9D9"/>
<stop offset="1" stop-color="#737373"/>
</linearGradient>
<linearGradient id="paint5_linear_2132_2638" x1="124.314" y1="23.3482" x2="100.307" y2="79.7726" gradientUnits="userSpaceOnUse">
<stop stop-color="#BDC3C0"/>
<stop offset="1" stop-color="#6D6E72"/>
</linearGradient>
<linearGradient id="paint6_linear_2132_2638" x1="72.0404" y1="80.4425" x2="80.9929" y2="142.667" gradientUnits="userSpaceOnUse">
<stop stop-color="#B9B9B9"/>
<stop offset="1" stop-color="#606064"/>
</linearGradient>
<linearGradient id="paint7_linear_2132_2638" x1="134.006" y1="120.533" x2="138.359" y2="150.782" gradientUnits="userSpaceOnUse">
<stop stop-color="#B9B9B9"/>
<stop offset="1" stop-color="#606064"/>
</linearGradient>
<linearGradient id="paint8_linear_2132_2638" x1="51.2718" y1="123.304" x2="65.3493" y2="168.132" gradientUnits="userSpaceOnUse">
<stop stop-color="#B9B9B9"/>
<stop offset="1" stop-color="#606064"/>
</linearGradient>
<linearGradient id="paint9_linear_2132_2638" x1="173.783" y1="85.1734" x2="159.705" y2="40.3453" gradientUnits="userSpaceOnUse">
<stop stop-color="#B9B9B9"/>
<stop offset="1" stop-color="#606064"/>
</linearGradient>
<linearGradient id="paint10_linear_2132_2638" x1="40.537" y1="61.4652" x2="47.2669" y2="101.424" gradientUnits="userSpaceOnUse">
<stop stop-color="#D9D9D9"/>
<stop offset="1" stop-color="#42454C"/>
</linearGradient>
<linearGradient id="paint11_linear_2132_2638" x1="47.2669" y1="57.6796" x2="47.2669" y2="101.424" gradientUnits="userSpaceOnUse">
<stop stop-color="#BEC3C1"/>
<stop offset="1" stop-color="#666666"/>
</linearGradient>
<linearGradient id="paint12_linear_2132_2638" x1="44.4628" y1="70.0585" x2="51.2042" y2="89.1097" gradientUnits="userSpaceOnUse">
<stop stop-color="white"/>
<stop offset="1" stop-color="#999999"/>
</linearGradient>
<linearGradient id="paint13_linear_2132_2638" x1="178.538" y1="82.2247" x2="182.722" y2="107.066" gradientUnits="userSpaceOnUse">
<stop stop-color="#D9D9D9"/>
<stop offset="1" stop-color="#42454C"/>
</linearGradient>
<linearGradient id="paint14_linear_2132_2638" x1="182.722" y1="79.8713" x2="182.722" y2="107.066" gradientUnits="userSpaceOnUse">
<stop stop-color="#BEC3C1"/>
<stop offset="1" stop-color="#666666"/>
</linearGradient>
<linearGradient id="paint15_linear_2132_2638" x1="184.46" y1="99.3703" x2="180.269" y2="87.5267" gradientUnits="userSpaceOnUse">
<stop stop-color="white"/>
<stop offset="1" stop-color="#999999"/>
</linearGradient>
</defs>
</svg>
