<svg width="240" height="176" viewBox="0 0 240 176" fill="none" xmlns="http://www.w3.org/2000/svg">
<g opacity="0.6">
<g clip-path="url(#clip0_2159_3767)">
<path d="M51.2114 63.2517C51.432 63.9568 51.6273 64.6292 51.7918 65.2081L51.6893 65.2446C51.5616 64.7083 51.3993 64.0147 51.2114 63.2517ZM45.0896 46.0842L45.0586 46.1016L45.0876 46.0746L45.0896 46.0842Z" fill="url(#paint0_linear_2159_3767)"/>
<path d="M37.5864 145.282C36.4352 145.651 35.5703 152.699 35.5703 152.699L42.7293 154.46C42.7293 154.46 47.7503 155.197 50.1358 154.46C52.5212 153.722 52.4401 151.674 49.0254 151.346C45.6106 151.018 43.1822 146.635 43.1822 146.635C43.1822 146.635 38.7376 144.915 37.5864 145.282Z" fill="#090814"/>
<path d="M29.1878 146.716C29.2054 147.28 29.1111 147.843 28.9102 148.371C28.3332 150.099 28.0889 151.919 28.1903 153.737C28.2058 153.954 28.2233 154.181 28.2426 154.419C28.4903 157.246 35.357 155.487 35.8137 155.157C36.2705 154.827 34.4593 146.715 34.4593 146.715C34.4593 146.715 29.0735 145.569 29.1878 146.716Z" fill="#090814"/>
<path d="M36.7109 44.0247C36.7094 44.0211 36.707 44.0184 36.707 44.0162C36.707 44.0141 36.9054 43.9184 37.2244 43.7315C37.4166 43.6192 37.6515 43.4731 37.9133 43.2979C38.5238 42.887 39.0945 42.4205 39.6182 41.9044C40.0419 41.4952 40.414 41.0362 40.7263 40.5375C40.1458 39.4934 39.8405 38.3198 39.839 37.1263V37.0915C39.8417 35.7282 40.2384 34.3945 40.9818 33.2498C41.7252 32.1051 42.7839 31.1977 44.0313 30.6361C45.2788 30.0746 46.6622 29.8826 48.0163 30.0831C49.3704 30.2835 50.6379 30.868 51.6673 31.7667C52.6967 32.6654 53.4445 33.8402 53.8214 35.1508C54.1982 36.4614 54.1881 37.8523 53.7924 39.1574C53.3966 40.4624 52.6319 41.6264 51.5895 42.5102C50.5472 43.394 49.2714 43.9602 47.9146 44.1413L47.7704 44.2523C46.9417 44.8924 46.007 45.659 45.1101 46.497C44.7821 46.8041 44.4586 47.1171 44.1481 47.4384C43.525 48.0701 42.9537 48.7505 42.4398 49.4731C41.6317 50.6299 41.1314 51.7927 41.2136 52.8517C41.2241 52.9825 41.2437 53.1125 41.2721 53.2406C41.4092 53.8448 41.4205 54.1048 41.3387 54.1046C40.8384 54.1031 36.8352 44.329 36.7109 44.0247Z" fill="#ED9DA0"/>
<path d="M72.464 59.6316C72.464 59.6316 72.8742 59.4043 73.4933 59.1325C75.314 58.3425 78.9495 57.1865 79.4084 60.3695C80.0255 64.6393 75.9373 64.1479 75.9373 64.1479C75.1291 63.8424 74.301 63.592 73.4587 63.3983C73.0447 63.2869 72.6123 63.26 72.1875 63.3192L72.464 59.6316Z" fill="#ED9DA0"/>
<path d="M71.8398 63.6736H73.0705C73.7865 62.7103 73.2388 59.0493 73.2388 59.0493L72.1687 59.242L71.8398 63.6736Z" fill="#E6E6E6"/>
<path d="M52.894 90.2176C52.0774 90.6276 51.4122 85.7094 51.4122 85.7094L50.0565 80.6288L49.8523 69.8538L50.7133 65.922C51.0561 65.7262 51.4157 65.561 51.7879 65.4285C51.0242 62.7008 49.5301 58.0399 49.2059 57.0307C49.1632 56.9065 49.1419 56.8376 49.1419 56.8376L46.7374 50.0644L45.3477 46.3582C45.613 46.5693 45.8923 46.7623 46.1837 46.9359C46.9906 47.4269 48.3024 48.0666 49.7573 48.1402C49.7573 48.1402 52.9085 49.8014 53.4943 55.4851C54.08 61.1689 56.5479 78.2539 56.5479 78.2539C56.5479 78.2539 58.7457 89.7734 57.1977 90.9704L57.1958 90.9549L57.1939 90.974C57.1939 90.974 53.7106 89.8062 52.894 90.2176Z" fill="#090814"/>
<path d="M53.7627 64.5101C55.9858 63.8896 58.8552 64.5101 58.8552 64.5101L71.8187 64.7953C74.1328 61.7529 72.5287 58.8955 72.5287 58.8955C72.5287 58.8955 66.1707 58.6469 61.0188 57.8801C55.8669 57.1133 52.4727 53.3021 52.4727 53.3021L53.7627 64.5101Z" fill="#090814"/>
<path d="M34.5469 84.4811L36.3227 67.6032L36.7101 44.0166L37.5115 44.4342L37.2247 43.7325L37.1845 43.6346C37.1845 43.6346 37.8399 43.0947 37.9142 43.2989C38.5241 42.8876 39.0944 42.421 39.6181 41.9052C40.9104 43.2121 43.4253 45.6606 44.5037 46.0436C44.5037 46.0436 44.4168 46.437 44.2731 46.9813H44.2754L45.1439 46.4771L45.2062 46.441L45.3465 46.3602C45.3465 46.3602 45.3937 46.4603 45.4821 46.6439C46.2332 48.2249 49.8869 55.9614 49.8093 56.6244C49.7276 57.3602 52.4158 66.6392 52.4158 66.6392L51.1192 75.4279C51.1192 75.4279 53.5777 81.531 52.9277 83.7851C52.6546 84.7314 49.3741 85.0059 45.6583 85.0061C40.5184 85.0063 34.5469 84.4811 34.5469 84.4811Z" fill="#E6E6E6"/>
<path d="M41.9453 47.7104L43.675 49.4716L43.9545 49.986C44.9176 51.7511 45.4831 53.7038 45.6118 55.7085V57.9936L45.9748 76.3075L47.9651 79.1226L48.3281 75.639L47.5286 56.034L46.4423 51.6024L45.8493 48.7954C45.5345 48.3117 45.2575 47.8048 45.0205 47.279C44.4275 46.0709 42.9013 46.3984 42.9013 46.3984L41.9453 47.7104Z" fill="#1E2328"/>
<path d="M28.9066 124.348C28.9066 124.348 31.3329 107.67 30.6752 105.42C30.0175 103.169 31.1279 86.5362 31.1279 86.5362L31.4935 83.4168L31.6985 81.6577L31.7856 80.9218L32.2092 81.0508C36.2983 82.237 40.4985 83.004 44.7441 83.3398C45.6853 83.4035 46.6307 83.3282 47.5497 83.1163C49.2292 82.7348 52.4758 82.2657 53.0426 81.8659C53.0426 81.8659 53.236 82.3842 53.478 83.232C54.0351 85.1916 54.875 88.9372 54.2288 92.1278L53.2401 98.5805C53.2401 98.5805 52.8512 105.157 51.5745 109.091L50.4444 114.457L48.9633 125.396C48.2316 128.311 47.7021 131.272 47.3786 134.26C46.8388 139.219 43.7565 147.446 43.7565 147.446C43.7565 147.446 37.2051 148.348 37.0116 146.136L39.2751 128.886L41.3725 104.181C41.3725 104.181 39.0992 119.595 37.7931 122.915C37.7931 122.915 35.9821 141.838 35.365 144.753C34.7478 147.668 34.3376 148.439 34.3376 148.439C34.3376 148.439 30.5105 149.834 28.7828 147.252C28.7828 147.252 28.2893 139.593 27.9198 136.848C27.5483 134.098 28.9066 124.348 28.9066 124.348Z" fill="#090814"/>
<path d="M31.9162 87.0206L34.625 88.3327L31.3956 94.3962C30.1825 93.2692 30.3255 88.7835 30.3255 88.7835L31.9162 87.0206Z" fill="#ED9DA0"/>
<path d="M33.0841 87.0206L34.3183 87.9839L32.6741 90.4637L30.4319 91.2826L30.2461 89.6428L33.0841 87.0206Z" fill="#E6E6E6"/>
<path d="M53.0449 81.8895C53.0385 81.8811 53.0346 81.8712 53.0334 81.8607C52.9988 81.8833 52.9629 81.9038 52.9258 81.922L53.0449 81.8895Z" fill="black"/>
<path d="M22.5428 90.4211C22.5428 90.4211 24.0436 85.7924 24.8747 82.0333L23.8986 79.8805C23.8986 79.8805 21.4617 75.8858 22.1096 69.6179C22.7575 63.35 25.1026 53.2078 25.1026 53.2078C25.1026 53.2078 25.1026 53.194 25.1026 53.1677C25.0242 52.653 24.3658 47.4848 29.6138 46.7258C29.6138 46.7258 33.0448 46.0938 35.5016 44.5527C36.4141 43.9801 39.0338 42.6142 39.4502 41.7838C39.4502 41.7838 38.2689 44.2931 38.5015 44.9523C38.6272 45.2991 38.7594 45.6713 38.8969 46.0606C39.6599 48.2186 40.5946 50.9127 41.2122 52.8514C41.4721 53.6129 41.6899 54.3881 41.8643 55.1734C41.8643 55.1734 43.642 62.9473 43.7988 65.6522C43.9555 68.3571 44.0527 71.9803 41.2122 76.6835C38.3716 81.3867 36.8625 82.4308 36.8625 82.4308L35.5055 84.5573L34.2972 86.4535L34.5548 87.1644C34.5548 87.1644 33.7576 87.9924 32.7256 88.9205L30.4768 92.4505C30.4768 92.4505 24.0238 92.1421 22.5428 90.4211Z" fill="#090814"/>
<path opacity="0.1" d="M25.3489 53.2077C25.3489 53.2077 23.0038 63.3511 22.3557 69.618C21.7076 75.8848 24.1454 79.8799 24.1454 79.8799L29.3599 91.4038C31.1496 90.9454 34.7909 87.1649 34.7909 87.1649L29.5668 72.7529C29.5668 72.7529 31.5036 65.4755 32.7148 58.7721C33.926 52.0687 30.7161 49.0612 30.7161 49.0612C25.347 47.0342 25.3489 53.2077 25.3489 53.2077Z" fill="black"/>
<path d="M35.4044 88.988L33.9649 93.0862L32.361 95.2765C32.361 95.2765 31.1594 96.0761 30.8596 94.5809C30.5597 93.0858 34.6237 87.4716 34.6237 87.4716C35.2643 87.2191 35.4044 88.988 35.4044 88.988Z" fill="#090814"/>
<path d="M40.5191 39.8262C40.5191 39.8262 33.6527 30.9066 42.2994 28.978C42.2994 28.978 44.7551 25.4852 47.774 27.2032C49.2682 28.0308 50.9532 28.4559 52.6628 28.4366C54.1251 28.4366 55.5243 28.9791 55.2695 31.1488C54.7609 35.4881 51.9635 34.7638 51.9635 34.7638C51.9635 34.7638 44.377 31.5417 44.1226 35.1579C43.8683 38.774 40.5191 39.8262 40.5191 39.8262Z" fill="#090814"/>
<path d="M120.587 24.1927C121.473 24.1927 122.19 23.478 122.19 22.5964C122.19 21.7147 121.473 21 120.587 21C119.702 21 118.984 21.7147 118.984 22.5964C118.984 23.478 119.702 24.1927 120.587 24.1927Z" fill="#E2E3E4"/>
<path d="M128.709 24.1927C129.594 24.1927 130.312 23.478 130.312 22.5964C130.312 21.7147 129.594 21 128.709 21C127.823 21 127.105 21.7147 127.105 22.5964C127.105 23.478 127.823 24.1927 128.709 24.1927Z" fill="#E2E3E4"/>
<path d="M136.818 24.1927C137.703 24.1927 138.421 23.478 138.421 22.5964C138.421 21.7147 137.703 21 136.818 21C135.933 21 135.215 21.7147 135.215 22.5964C135.215 23.478 135.933 24.1927 136.818 24.1927Z" fill="#E2E3E4"/>
<path d="M144.931 24.1927C145.817 24.1927 146.534 23.478 146.534 22.5964C146.534 21.7147 145.817 21 144.931 21C144.046 21 143.328 21.7147 143.328 22.5964C143.328 23.478 144.046 24.1927 144.931 24.1927Z" fill="#E2E3E4"/>
<path d="M153.052 24.1927C153.938 24.1927 154.655 23.478 154.655 22.5964C154.655 21.7147 153.938 21 153.052 21C152.167 21 151.449 21.7147 151.449 22.5964C151.449 23.478 152.167 24.1927 153.052 24.1927Z" fill="#E2E3E4"/>
<path d="M120.587 32.3752C121.473 32.3752 122.19 31.6605 122.19 30.7789C122.19 29.8972 121.473 29.1825 120.587 29.1825C119.702 29.1825 118.984 29.8972 118.984 30.7789C118.984 31.6605 119.702 32.3752 120.587 32.3752Z" fill="#E2E3E4"/>
<path d="M128.709 32.3752C129.594 32.3752 130.312 31.6605 130.312 30.7789C130.312 29.8972 129.594 29.1825 128.709 29.1825C127.823 29.1825 127.105 29.8972 127.105 30.7789C127.105 31.6605 127.823 32.3752 128.709 32.3752Z" fill="#E2E3E4"/>
<path d="M136.818 32.3752C137.703 32.3752 138.421 31.6605 138.421 30.7789C138.421 29.8972 137.703 29.1825 136.818 29.1825C135.933 29.1825 135.215 29.8972 135.215 30.7789C135.215 31.6605 135.933 32.3752 136.818 32.3752Z" fill="#E2E3E4"/>
<path d="M144.931 32.3752C145.817 32.3752 146.534 31.6605 146.534 30.7789C146.534 29.8972 145.817 29.1825 144.931 29.1825C144.046 29.1825 143.328 29.8972 143.328 30.7789C143.328 31.6605 144.046 32.3752 144.931 32.3752Z" fill="#1E2328"/>
<path d="M153.052 32.3752C153.938 32.3752 154.655 31.6605 154.655 30.7789C154.655 29.8972 153.938 29.1825 153.052 29.1825C152.167 29.1825 151.449 29.8972 151.449 30.7789C151.449 31.6605 152.167 32.3752 153.052 32.3752Z" fill="#E2E3E4"/>
<path d="M169.283 32.3752C170.168 32.3752 170.886 31.6605 170.886 30.7789C170.886 29.8972 170.168 29.1825 169.283 29.1825C168.397 29.1825 167.68 29.8972 167.68 30.7789C167.68 31.6605 168.397 32.3752 169.283 32.3752Z" fill="#E2E3E4"/>
<path d="M120.587 40.558C121.473 40.558 122.19 39.8433 122.19 38.9616C122.19 38.08 121.473 37.3652 120.587 37.3652C119.702 37.3652 118.984 38.08 118.984 38.9616C118.984 39.8433 119.702 40.558 120.587 40.558Z" fill="#E2E3E4"/>
<path d="M128.709 40.558C129.594 40.558 130.312 39.8433 130.312 38.9616C130.312 38.08 129.594 37.3652 128.709 37.3652C127.823 37.3652 127.105 38.08 127.105 38.9616C127.105 39.8433 127.823 40.558 128.709 40.558Z" fill="#E2E3E4"/>
<path d="M136.818 40.558C137.703 40.558 138.421 39.8433 138.421 38.9616C138.421 38.08 137.703 37.3652 136.818 37.3652C135.933 37.3652 135.215 38.08 135.215 38.9616C135.215 39.8433 135.933 40.558 136.818 40.558Z" fill="#E2E3E4"/>
<path d="M144.931 40.558C145.817 40.558 146.534 39.8433 146.534 38.9616C146.534 38.08 145.817 37.3652 144.931 37.3652C144.046 37.3652 143.328 38.08 143.328 38.9616C143.328 39.8433 144.046 40.558 144.931 40.558Z" fill="#E2E3E4"/>
<path d="M153.052 40.558C153.938 40.558 154.655 39.8433 154.655 38.9616C154.655 38.08 153.938 37.3652 153.052 37.3652C152.167 37.3652 151.449 38.08 151.449 38.9616C151.449 39.8433 152.167 40.558 153.052 40.558Z" fill="#E2E3E4"/>
<path d="M120.587 48.7405C121.473 48.7405 122.19 48.0258 122.19 47.1441C122.19 46.2624 121.473 45.5477 120.587 45.5477C119.702 45.5477 118.984 46.2624 118.984 47.1441C118.984 48.0258 119.702 48.7405 120.587 48.7405Z" fill="#E2E3E4"/>
<path d="M128.709 48.7405C129.594 48.7405 130.312 48.0258 130.312 47.1441C130.312 46.2624 129.594 45.5477 128.709 45.5477C127.823 45.5477 127.105 46.2624 127.105 47.1441C127.105 48.0258 127.823 48.7405 128.709 48.7405Z" fill="#E2E3E4"/>
<path d="M136.818 48.7405C137.703 48.7405 138.421 48.0258 138.421 47.1441C138.421 46.2624 137.703 45.5477 136.818 45.5477C135.933 45.5477 135.215 46.2624 135.215 47.1441C135.215 48.0258 135.933 48.7405 136.818 48.7405Z" fill="#E2E3E4"/>
<path d="M144.931 48.7405C145.817 48.7405 146.534 48.0258 146.534 47.1441C146.534 46.2624 145.817 45.5477 144.931 45.5477C144.046 45.5477 143.328 46.2624 143.328 47.1441C143.328 48.0258 144.046 48.7405 144.931 48.7405Z" fill="#E2E3E4"/>
<path d="M153.052 48.7405C153.938 48.7405 154.655 48.0258 154.655 47.1441C154.655 46.2624 153.938 45.5477 153.052 45.5477C152.167 45.5477 151.449 46.2624 151.449 47.1441C151.449 48.0258 152.167 48.7405 153.052 48.7405Z" fill="#E2E3E4"/>
<path d="M161.169 48.7405C162.055 48.7405 162.773 48.0258 162.773 47.1441C162.773 46.2624 162.055 45.5477 161.169 45.5477C160.284 45.5477 159.566 46.2624 159.566 47.1441C159.566 48.0258 160.284 48.7405 161.169 48.7405Z" fill="#E2E3E4"/>
<path d="M169.283 48.7405C170.168 48.7405 170.886 48.0258 170.886 47.1441C170.886 46.2624 170.168 45.5477 169.283 45.5477C168.397 45.5477 167.68 46.2624 167.68 47.1441C167.68 48.0258 168.397 48.7405 169.283 48.7405Z" fill="#E2E3E4"/>
<path d="M177.396 48.7405C178.281 48.7405 178.999 48.0258 178.999 47.1441C178.999 46.2624 178.281 45.5477 177.396 45.5477C176.511 45.5477 175.793 46.2624 175.793 47.1441C175.793 48.0258 176.511 48.7405 177.396 48.7405Z" fill="#E2E3E4"/>
<path d="M185.513 48.7405C186.399 48.7405 187.116 48.0258 187.116 47.1441C187.116 46.2624 186.399 45.5477 185.513 45.5477C184.628 45.5477 183.91 46.2624 183.91 47.1441C183.91 48.0258 184.628 48.7405 185.513 48.7405Z" fill="#E2E3E4"/>
<path d="M193.626 48.7405C194.512 48.7405 195.23 48.0258 195.23 47.1441C195.23 46.2624 194.512 45.5477 193.626 45.5477C192.741 45.5477 192.023 46.2624 192.023 47.1441C192.023 48.0258 192.741 48.7405 193.626 48.7405Z" fill="#E2E3E4"/>
<path d="M153.052 56.9233C153.938 56.9233 154.655 56.2086 154.655 55.327C154.655 54.4453 153.938 53.7306 153.052 53.7306C152.167 53.7306 151.449 54.4453 151.449 55.327C151.449 56.2086 152.167 56.9233 153.052 56.9233Z" fill="#E2E3E4"/>
<path d="M161.169 56.9233C162.055 56.9233 162.773 56.2086 162.773 55.327C162.773 54.4453 162.055 53.7306 161.169 53.7306C160.284 53.7306 159.566 54.4453 159.566 55.327C159.566 56.2086 160.284 56.9233 161.169 56.9233Z" fill="#1E2328"/>
<path d="M169.283 56.9233C170.168 56.9233 170.886 56.2086 170.886 55.327C170.886 54.4453 170.168 53.7306 169.283 53.7306C168.397 53.7306 167.68 54.4453 167.68 55.327C167.68 56.2086 168.397 56.9233 169.283 56.9233Z" fill="#E2E3E4"/>
<path d="M177.396 56.9233C178.281 56.9233 178.999 56.2086 178.999 55.327C178.999 54.4453 178.281 53.7306 177.396 53.7306C176.511 53.7306 175.793 54.4453 175.793 55.327C175.793 56.2086 176.511 56.9233 177.396 56.9233Z" fill="#E2E3E4"/>
<path d="M185.513 56.9233C186.399 56.9233 187.116 56.2086 187.116 55.327C187.116 54.4453 186.399 53.7306 185.513 53.7306C184.628 53.7306 183.91 54.4453 183.91 55.327C183.91 56.2086 184.628 56.9233 185.513 56.9233Z" fill="#E2E3E4"/>
<path d="M193.626 56.9233C194.512 56.9233 195.23 56.2086 195.23 55.327C195.23 54.4453 194.512 53.7306 193.626 53.7306C192.741 53.7306 192.023 54.4453 192.023 55.327C192.023 56.2086 192.741 56.9233 193.626 56.9233Z" fill="#E2E3E4"/>
<path d="M153.052 65.1059C153.938 65.1059 154.655 64.3912 154.655 63.5096C154.655 62.6279 153.938 61.9132 153.052 61.9132C152.167 61.9132 151.449 62.6279 151.449 63.5096C151.449 64.3912 152.167 65.1059 153.052 65.1059Z" fill="#E2E3E4"/>
<path d="M161.169 65.1059C162.055 65.1059 162.773 64.3912 162.773 63.5096C162.773 62.6279 162.055 61.9132 161.169 61.9132C160.284 61.9132 159.566 62.6279 159.566 63.5096C159.566 64.3912 160.284 65.1059 161.169 65.1059Z" fill="#E2E3E4"/>
<path d="M169.283 65.1059C170.168 65.1059 170.886 64.3912 170.886 63.5096C170.886 62.6279 170.168 61.9132 169.283 61.9132C168.397 61.9132 167.68 62.6279 167.68 63.5096C167.68 64.3912 168.397 65.1059 169.283 65.1059Z" fill="#E2E3E4"/>
<path d="M177.396 65.1059C178.281 65.1059 178.999 64.3912 178.999 63.5096C178.999 62.6279 178.281 61.9132 177.396 61.9132C176.511 61.9132 175.793 62.6279 175.793 63.5096C175.793 64.3912 176.511 65.1059 177.396 65.1059Z" fill="#E2E3E4"/>
<path d="M185.513 65.1059C186.399 65.1059 187.116 64.3912 187.116 63.5096C187.116 62.6279 186.399 61.9132 185.513 61.9132C184.628 61.9132 183.91 62.6279 183.91 63.5096C183.91 64.3912 184.628 65.1059 185.513 65.1059Z" fill="#1E2328"/>
<path d="M193.626 65.1059C194.512 65.1059 195.23 64.3912 195.23 63.5096C195.23 62.6279 194.512 61.9132 193.626 61.9132C192.741 61.9132 192.023 62.6279 192.023 63.5096C192.023 64.3912 192.741 65.1059 193.626 65.1059Z" fill="#E2E3E4"/>
<path d="M153.052 73.2883C153.938 73.2883 154.655 72.5736 154.655 71.692C154.655 70.8103 153.938 70.0956 153.052 70.0956C152.167 70.0956 151.449 70.8103 151.449 71.692C151.449 72.5736 152.167 73.2883 153.052 73.2883Z" fill="#E2E3E4"/>
<path d="M161.169 73.2883C162.055 73.2883 162.773 72.5736 162.773 71.692C162.773 70.8103 162.055 70.0956 161.169 70.0956C160.284 70.0956 159.566 70.8103 159.566 71.692C159.566 72.5736 160.284 73.2883 161.169 73.2883Z" fill="#E2E3E4"/>
<path d="M169.283 73.2883C170.168 73.2883 170.886 72.5736 170.886 71.692C170.886 70.8103 170.168 70.0956 169.283 70.0956C168.397 70.0956 167.68 70.8103 167.68 71.692C167.68 72.5736 168.397 73.2883 169.283 73.2883Z" fill="#E2E3E4"/>
<path d="M177.396 73.2883C178.281 73.2883 178.999 72.5736 178.999 71.692C178.999 70.8103 178.281 70.0956 177.396 70.0956C176.511 70.0956 175.793 70.8103 175.793 71.692C175.793 72.5736 176.511 73.2883 177.396 73.2883Z" fill="#E2E3E4"/>
<path d="M185.513 73.2883C186.399 73.2883 187.116 72.5736 187.116 71.692C187.116 70.8103 186.399 70.0956 185.513 70.0956C184.628 70.0956 183.91 70.8103 183.91 71.692C183.91 72.5736 184.628 73.2883 185.513 73.2883Z" fill="#E2E3E4"/>
<path d="M193.626 73.2883C194.512 73.2883 195.23 72.5736 195.23 71.692C195.23 70.8103 194.512 70.0956 193.626 70.0956C192.741 70.0956 192.023 70.8103 192.023 71.692C192.023 72.5736 192.741 73.2883 193.626 73.2883Z" fill="#E2E3E4"/>
<path d="M120.587 81.4708C121.473 81.4708 122.19 80.7561 122.19 79.8744C122.19 78.9928 121.473 78.2781 120.587 78.2781C119.702 78.2781 118.984 78.9928 118.984 79.8744C118.984 80.7561 119.702 81.4708 120.587 81.4708Z" fill="#E2E3E4"/>
<path d="M128.709 81.4708C129.594 81.4708 130.312 80.7561 130.312 79.8744C130.312 78.9928 129.594 78.2781 128.709 78.2781C127.823 78.2781 127.105 78.9928 127.105 79.8744C127.105 80.7561 127.823 81.4708 128.709 81.4708Z" fill="#E2E3E4"/>
<path d="M136.818 81.4708C137.703 81.4708 138.421 80.7561 138.421 79.8744C138.421 78.9928 137.703 78.2781 136.818 78.2781C135.933 78.2781 135.215 78.9928 135.215 79.8744C135.215 80.7561 135.933 81.4708 136.818 81.4708Z" fill="#E2E3E4"/>
<path d="M144.931 81.4708C145.817 81.4708 146.534 80.7561 146.534 79.8744C146.534 78.9928 145.817 78.2781 144.931 78.2781C144.046 78.2781 143.328 78.9928 143.328 79.8744C143.328 80.7561 144.046 81.4708 144.931 81.4708Z" fill="#E2E3E4"/>
<path d="M153.052 81.4708C153.938 81.4708 154.655 80.7561 154.655 79.8744C154.655 78.9928 153.938 78.2781 153.052 78.2781C152.167 78.2781 151.449 78.9928 151.449 79.8744C151.449 80.7561 152.167 81.4708 153.052 81.4708Z" fill="#E2E3E4"/>
<path d="M161.169 81.4708C162.055 81.4708 162.773 80.7561 162.773 79.8744C162.773 78.9928 162.055 78.2781 161.169 78.2781C160.284 78.2781 159.566 78.9928 159.566 79.8744C159.566 80.7561 160.284 81.4708 161.169 81.4708Z" fill="#E2E3E4"/>
<path d="M169.283 81.4708C170.168 81.4708 170.886 80.7561 170.886 79.8744C170.886 78.9928 170.168 78.2781 169.283 78.2781C168.397 78.2781 167.68 78.9928 167.68 79.8744C167.68 80.7561 168.397 81.4708 169.283 81.4708Z" fill="#E2E3E4"/>
<path d="M177.396 81.4708C178.281 81.4708 178.999 80.7561 178.999 79.8744C178.999 78.9928 178.281 78.2781 177.396 78.2781C176.511 78.2781 175.793 78.9928 175.793 79.8744C175.793 80.7561 176.511 81.4708 177.396 81.4708Z" fill="#E2E3E4"/>
<path d="M185.513 81.4708C186.399 81.4708 187.116 80.7561 187.116 79.8744C187.116 78.9928 186.399 78.2781 185.513 78.2781C184.628 78.2781 183.91 78.9928 183.91 79.8744C183.91 80.7561 184.628 81.4708 185.513 81.4708Z" fill="#E2E3E4"/>
<path d="M193.626 81.4708C194.512 81.4708 195.23 80.7561 195.23 79.8744C195.23 78.9928 194.512 78.2781 193.626 78.2781C192.741 78.2781 192.023 78.9928 192.023 79.8744C192.023 80.7561 192.741 81.4708 193.626 81.4708Z" fill="#E2E3E4"/>
<path d="M122.193 88.0635C122.197 87.1818 121.482 86.4642 120.597 86.4606C119.711 86.457 118.991 87.1688 118.987 88.0505C118.983 88.9321 119.698 89.6498 120.584 89.6533C121.469 89.6569 122.189 88.9451 122.193 88.0635Z" fill="#E2E3E4"/>
<path d="M128.709 89.6536C129.594 89.6536 130.312 88.9388 130.312 88.0572C130.312 87.1755 129.594 86.4608 128.709 86.4608C127.823 86.4608 127.105 87.1755 127.105 88.0572C127.105 88.9388 127.823 89.6536 128.709 89.6536Z" fill="#E2E3E4"/>
<path d="M122.193 96.2461C122.197 95.3644 121.482 94.6468 120.597 94.6432C119.711 94.6397 118.991 95.3515 118.987 96.2331C118.983 97.1148 119.698 97.8324 120.584 97.836C121.469 97.8395 122.189 97.1277 122.193 96.2461Z" fill="#E2E3E4"/>
<path d="M128.709 97.8361C129.594 97.8361 130.312 97.1213 130.312 96.2397C130.312 95.358 129.594 94.6433 128.709 94.6433C127.823 94.6433 127.105 95.358 127.105 96.2397C127.105 97.1213 127.823 97.8361 128.709 97.8361Z" fill="#E2E3E4"/>
<path d="M144.931 97.8361C145.817 97.8361 146.534 97.1213 146.534 96.2397C146.534 95.358 145.817 94.6433 144.931 94.6433C144.046 94.6433 143.328 95.358 143.328 96.2397C143.328 97.1213 144.046 97.8361 144.931 97.8361Z" fill="#E2E3E4"/>
<path d="M225.826 39.8348H162.297C161.986 39.8345 161.687 39.7109 161.466 39.4913C161.246 39.2717 161.121 38.9739 161.121 38.6634V22.9697C161.121 22.6591 161.246 22.3614 161.466 22.1418C161.687 21.9222 161.986 21.7986 162.297 21.7982H225.826C226.138 21.7986 226.437 21.9222 226.658 22.1418C226.878 22.3614 227.002 22.6591 227.003 22.9697V38.6634C227.002 38.9739 226.878 39.2717 226.658 39.4913C226.437 39.7109 226.138 39.8345 225.826 39.8348ZM162.297 22.2673C162.11 22.2675 161.931 22.3416 161.798 22.4734C161.666 22.6052 161.592 22.7839 161.592 22.9703V38.664C161.592 38.8504 161.666 39.0291 161.798 39.1609C161.931 39.2927 162.11 39.3668 162.297 39.367H225.826C226.013 39.3668 226.193 39.2927 226.325 39.1609C226.458 39.0291 226.532 38.8504 226.532 38.664V22.9703C226.532 22.7839 226.458 22.6052 226.325 22.4734C226.193 22.3416 226.013 22.2675 225.826 22.2673H162.297Z" fill="#E2E3E4"/>
<path d="M170.527 35.7374C173.256 35.7374 175.468 33.5344 175.468 30.8169C175.468 28.0994 173.256 25.8964 170.527 25.8964C167.798 25.8964 165.586 28.0994 165.586 30.8169C165.586 33.5344 167.798 35.7374 170.527 35.7374Z" fill="#1E2328"/>
<path d="M181.943 27.5363C181.727 27.5397 181.521 27.6276 181.369 27.7811C181.218 27.9345 181.133 28.1411 181.133 28.3563C181.133 28.5716 181.218 28.7782 181.369 28.9316C181.521 29.085 181.727 29.173 181.943 29.1764H203.825C204.043 29.1764 204.253 29.09 204.407 28.9362C204.562 28.7824 204.648 28.5738 204.648 28.3563C204.648 28.1388 204.562 27.9303 204.407 27.7765C204.253 27.6227 204.043 27.5363 203.825 27.5363H181.943Z" fill="#E2E3E4"/>
<path d="M181.943 32.4567C181.727 32.4601 181.521 32.5481 181.369 32.7015C181.218 32.8549 181.133 33.0615 181.133 33.2768C181.133 33.492 181.218 33.6986 181.369 33.852C181.521 34.0055 181.727 34.0934 181.943 34.0968H220.767C220.985 34.0968 221.194 34.0104 221.349 33.8566C221.503 33.7028 221.59 33.4943 221.59 33.2768C221.59 33.0593 221.503 32.8507 221.349 32.6969C221.194 32.5431 220.985 32.4567 220.767 32.4567H181.943Z" fill="#E2E3E4"/>
<path d="M81.8765 53.5878H143.052C143.361 53.5877 143.667 53.6483 143.953 53.7661C144.238 53.8838 144.498 54.0564 144.716 54.274C144.935 54.4916 145.108 54.7499 145.226 55.0342C145.344 55.3185 145.405 55.6232 145.405 55.931V69.2865C145.405 69.5942 145.344 69.899 145.226 70.1833C145.108 70.4676 144.935 70.7259 144.716 70.9435C144.498 71.1611 144.238 71.3337 143.953 71.4514C143.667 71.5692 143.361 71.6297 143.052 71.6297H81.8765C81.2524 71.6297 80.6539 71.3828 80.2126 70.9434C79.7713 70.504 79.5234 69.908 79.5234 69.2865V55.931C79.5234 55.3095 79.7713 54.7135 80.2126 54.2741C80.6539 53.8346 81.2524 53.5878 81.8765 53.5878Z" fill="#E6E6E6"/>
<path d="M144.178 71.7013H80.6491C80.3372 71.7009 80.0382 71.5774 79.8177 71.3577C79.5971 71.1381 79.4731 70.8404 79.4727 70.5298V54.8362C79.4731 54.5256 79.5971 54.2278 79.8177 54.0082C80.0382 53.7886 80.3372 53.6651 80.6491 53.6647H144.178C144.49 53.6651 144.789 53.7886 145.009 54.0082C145.23 54.2278 145.354 54.5256 145.354 54.8362V70.5298C145.354 70.8404 145.23 71.1381 145.009 71.3577C144.789 71.5774 144.49 71.7009 144.178 71.7013ZM80.6491 54.1338C80.4619 54.134 80.2825 54.2082 80.1502 54.34C80.0179 54.4718 79.9435 54.6504 79.9433 54.8368V70.5305C79.9435 70.7169 80.0179 70.8956 80.1503 71.0274C80.2826 71.1592 80.4621 71.2333 80.6493 71.2335H144.178C144.365 71.2333 144.545 71.1592 144.677 71.0274C144.809 70.8956 144.884 70.7169 144.884 70.5305V54.8368C144.884 54.6504 144.809 54.4717 144.677 54.3399C144.545 54.2081 144.365 54.1339 144.178 54.1338H80.6491Z" fill="#3F3D56"/>
<path d="M88.8865 67.6036C91.6154 67.6036 93.8276 65.4006 93.8276 62.6831C93.8276 59.9656 91.6154 57.7626 88.8865 57.7626C86.1575 57.7626 83.9453 59.9656 83.9453 62.6831C83.9453 65.4006 86.1575 67.6036 88.8865 67.6036Z" fill="#1E2328"/>
<path d="M100.295 59.4027C100.079 59.4062 99.8725 59.4941 99.7209 59.6475C99.5693 59.8009 99.4844 60.0076 99.4844 60.2228C99.4844 60.438 99.5693 60.6447 99.7209 60.7981C99.8725 60.9515 100.079 61.0394 100.295 61.0429H123.118C123.336 61.0429 123.546 60.9565 123.7 60.8027C123.855 60.6489 123.942 60.4403 123.942 60.2228C123.942 60.0053 123.855 59.7967 123.7 59.6429C123.546 59.4891 123.336 59.4027 123.118 59.4027H100.295Z" fill="#090814"/>
<path d="M100.295 64.3232C100.079 64.3267 99.8725 64.4146 99.7209 64.5681C99.5693 64.7215 99.4844 64.9281 99.4844 65.1433C99.4844 65.3586 99.5693 65.5652 99.7209 65.7186C99.8725 65.872 100.079 65.96 100.295 65.9634H139.118C139.337 65.9634 139.546 65.877 139.7 65.7232C139.855 65.5694 139.942 65.3608 139.942 65.1433C139.942 64.9258 139.855 64.7172 139.7 64.5634C139.546 64.4096 139.337 64.3232 139.118 64.3232H100.295Z" fill="#090814"/>
<path d="M201.588 106.145H138.059C137.747 106.145 137.448 106.021 137.228 105.801C137.007 105.582 136.883 105.284 136.883 104.973V89.2798C136.883 88.9692 137.007 88.6714 137.228 88.4518C137.448 88.2322 137.747 88.1087 138.059 88.1083H201.588C201.9 88.1087 202.199 88.2322 202.419 88.4518C202.64 88.6714 202.764 88.9692 202.764 89.2798V104.973C202.764 105.284 202.64 105.582 202.419 105.801C202.199 106.021 201.9 106.145 201.588 106.145ZM138.059 88.5774C137.872 88.5776 137.693 88.6517 137.56 88.7835C137.428 88.9153 137.353 89.094 137.353 89.2804V104.974C137.353 105.16 137.428 105.339 137.56 105.471C137.693 105.603 137.872 105.677 138.059 105.677H201.588C201.775 105.677 201.955 105.603 202.087 105.471C202.219 105.339 202.294 105.16 202.294 104.974V89.2804C202.294 89.094 202.219 88.9153 202.087 88.7835C201.955 88.6517 201.775 88.5776 201.588 88.5774H138.059Z" fill="#E2E3E4"/>
<path d="M146.293 102.047C149.022 102.047 151.234 99.8442 151.234 97.1267C151.234 94.4092 149.022 92.2062 146.293 92.2062C143.564 92.2062 141.352 94.4092 141.352 97.1267C141.352 99.8442 143.564 102.047 146.293 102.047Z" fill="#1E2328"/>
<path d="M157.709 93.8463C157.493 93.8498 157.287 93.9377 157.135 94.0911C156.983 94.2445 156.898 94.4512 156.898 94.6664C156.898 94.8816 156.983 95.0883 157.135 95.2417C157.287 95.3951 157.493 95.483 157.709 95.4865H178.651C178.869 95.4865 179.079 95.4001 179.233 95.2463C179.388 95.0925 179.474 94.8839 179.474 94.6664C179.474 94.4489 179.388 94.2403 179.233 94.0865C179.079 93.9327 178.869 93.8463 178.651 93.8463H157.709Z" fill="#E2E3E4"/>
<path d="M157.709 98.767C157.493 98.7704 157.287 98.8584 157.135 99.0118C156.983 99.1652 156.898 99.3718 156.898 99.5871C156.898 99.8023 156.983 100.009 157.135 100.162C157.287 100.316 157.493 100.404 157.709 100.407H196.532C196.748 100.404 196.954 100.316 197.106 100.162C197.258 100.009 197.343 99.8023 197.343 99.5871C197.343 99.3718 197.258 99.1652 197.106 99.0118C196.954 98.8584 196.748 98.7704 196.532 98.767H157.709Z" fill="#E2E3E4"/>
</g>
</g>
<defs>
<linearGradient id="paint0_linear_2159_3767" x1="-155.678" y1="104.332" x2="-155.678" y2="123.502" gradientUnits="userSpaceOnUse">
<stop stop-color="#808080" stop-opacity="0.251"/>
<stop offset="0.54" stop-color="#808080" stop-opacity="0.122"/>
<stop offset="1" stop-color="#808080" stop-opacity="0.102"/>
</linearGradient>
<clipPath id="clip0_2159_3767">
<rect width="205" height="135" fill="white" transform="translate(22 21)"/>
</clipPath>
</defs>
</svg>
