<svg width="260" height="156" viewBox="0 0 260 156" fill="none" xmlns="http://www.w3.org/2000/svg">
<g opacity="0.5" clip-path="url(#clip0_2007_6704)">
<path d="M8.18891 156C8.14865 156 8.10839 155.987 8.07412 155.961C7.99103 155.898 7.97561 155.78 8.039 155.697L50.9064 100.11C50.9424 100.064 50.9972 100.037 51.0563 100.037H57.6268C57.7313 100.037 57.8153 100.121 57.8153 100.224V155.812C57.8153 155.916 57.7305 155.999 57.6268 155.999C57.5231 155.999 57.4383 155.915 57.4383 155.812V100.412H51.1497L8.33882 155.926C8.30199 155.974 8.24545 155.999 8.18891 155.999V156Z" fill="white"/>
<path d="M59.2806 126.847H30.6875L25.2109 133.972H53.739L59.2806 126.847Z" fill="#436FD0"/>
<path d="M46.6869 143.241H18.0929L12.6172 150.367H41.1452L46.6869 143.241Z" fill="#436FD0"/>
<path d="M71.5914 110.862H42.9597L37.4883 117.988H66.0497L71.5914 110.862Z" fill="#436FD0"/>
<path d="M37.0405 156C37.0002 156 36.9599 155.987 36.9257 155.961C36.8426 155.898 36.8272 155.78 36.8906 155.697L79.758 100.11C79.794 100.064 79.8488 100.037 79.9079 100.037H86.4784C86.5829 100.037 86.6668 100.121 86.6668 100.224V155.812C86.6668 155.916 86.582 155.999 86.4784 155.999C86.3747 155.999 86.2899 155.915 86.2899 155.812V100.412H80.0013L37.1904 155.926C37.1536 155.974 37.097 155.999 37.0405 155.999V156Z" fill="white"/>
<path d="M79.8968 100.413H57.6377C57.5332 100.413 57.4492 100.328 57.4492 100.225C57.4492 100.122 57.534 100.038 57.6377 100.038H79.8968C80.0013 100.038 80.0852 100.122 80.0852 100.225C80.0852 100.328 80.0004 100.413 79.8968 100.413Z" fill="black"/>
<path d="M72.7426 88.1721L64.5 85.4689L58.7688 102.775L67.0114 105.478L72.7426 88.1721Z" fill="#1D4CB5"/>
<path d="M67.0135 105.663C66.9938 105.663 66.9741 105.661 66.9544 105.654L58.7118 102.951C58.6647 102.935 58.6244 102.901 58.6021 102.857C58.5799 102.812 58.5756 102.76 58.5919 102.714L64.3288 85.4104C64.3614 85.3123 64.4684 85.2578 64.567 85.291L72.8096 87.9942C72.8576 88.0095 72.897 88.0436 72.9193 88.0879C72.9415 88.1323 72.9458 88.1843 72.9295 88.2311L67.1926 105.534C67.166 105.614 67.0924 105.663 67.0135 105.663ZM59.0082 102.653L66.8928 105.239L72.5124 88.2917L64.6278 85.7062L59.0082 102.653Z" fill="black"/>
<path d="M61.5121 94.512L69.6374 97.5715L67.0169 105.476L58.7734 102.772L61.5121 94.512Z" fill="#020202"/>
<path d="M54.1445 104.919C55.8767 102.413 56.3752 100.714 58.57 99.2781L58.7619 99.1528C59.4643 98.6934 60.3989 99.1929 60.4015 100.028L60.4058 101.428C60.41 102.788 61.7413 103.083 61.7558 103.093C62.526 103.345 62.9526 102.997 64.8081 102.583L65.3349 100.995L67.1279 100.172L68.7615 100.708L69.3783 102.91L74.334 108.318L80.9515 110.08L82.4087 112.096L80.0726 114.259L69.8297 115.862L63.2584 112.056L54.1454 104.919H54.1445Z" fill="#3FB686"/>
<path d="M69.8258 116.049C69.7924 116.049 69.7599 116.041 69.7307 116.024L63.1594 112.218C63.1517 112.213 63.1448 112.208 63.138 112.203L54.025 105.066C53.947 105.005 53.9299 104.894 53.9864 104.812C54.479 104.099 54.8799 103.438 55.2337 102.854C56.1435 101.354 56.8613 100.169 58.4633 99.1204L58.6552 98.9951C59.0441 98.7411 59.5212 98.7198 59.9307 98.9389C60.3402 99.158 60.586 99.5646 60.5869 100.027L60.5912 101.427C60.5946 102.45 61.429 102.802 61.7879 102.906C61.7973 102.909 61.8068 102.911 61.8162 102.915C62.2779 103.065 62.6094 102.972 63.3333 102.767C63.6777 102.67 64.1017 102.55 64.6602 102.423L65.1537 100.935C65.1699 100.886 65.2059 100.846 65.2539 100.824L67.0469 100.001C67.0905 99.9814 67.1394 99.978 67.1848 99.9934L68.8184 100.529C68.8784 100.548 68.9246 100.596 68.9409 100.657L69.5457 102.817L74.4337 108.15L80.9982 109.898C81.0402 109.909 81.077 109.935 81.1027 109.97L82.5599 111.986C82.6155 112.062 82.6044 112.168 82.535 112.233L80.1989 114.397C80.1715 114.422 80.1373 114.438 80.0996 114.444L69.8567 116.047C69.8472 116.049 69.837 116.049 69.8275 116.049H69.8258ZM63.3607 111.9L69.8626 115.666L79.9822 114.083L82.1547 112.071L80.8346 110.244L74.2821 108.499C74.247 108.49 74.2161 108.471 74.1913 108.445L69.2356 103.037C69.2159 103.016 69.2013 102.99 69.1936 102.962L68.6034 100.855L67.1368 100.374L65.486 101.132L64.9849 102.643C64.9643 102.706 64.9121 102.753 64.847 102.767C64.2473 102.901 63.7976 103.028 63.4361 103.13C62.6831 103.344 62.2676 103.46 61.6945 103.272C61.6928 103.272 61.6911 103.271 61.6894 103.27C61.333 103.166 60.2185 102.737 60.2142 101.43L60.21 100.03C60.2091 99.7078 60.0378 99.4239 59.7525 99.2713C59.4664 99.1187 59.134 99.1332 58.8625 99.3105L58.6714 99.4358C57.1415 100.437 56.4424 101.59 55.5575 103.049C55.2251 103.598 54.8516 104.214 54.3976 104.881L63.3616 111.901L63.3607 111.9Z" fill="black"/>
<path d="M52.1146 105.815L54.1423 104.919L63.9825 111.529L71.7009 114.547L77.5253 113.795L82.4133 112.088L82.654 113.689L82.2394 114.894L78.9027 117.245C78.9027 117.245 76.7963 117.609 72.6295 118.227C72.6295 118.227 65.6933 116.212 63.9551 115.637L63.3238 114.426L61.8949 113.958L60.6733 114.56C56.8664 113.298 53.8596 112.326 53.8596 112.326L50.2891 109.136L52.1154 105.813L52.1146 105.815Z" fill="#020202"/>
<path d="M56.9494 101.15L56.7567 100.788C56.5956 100.484 55.177 97.8034 55.1316 97.0251C55.0811 96.1632 55.7458 95.4216 56.6127 95.3713C57.4797 95.3227 58.2258 95.9825 58.2755 96.8435C58.3209 97.6218 57.2244 100.448 57.0993 100.767L56.9503 101.149L56.9494 101.15ZM56.7036 95.7447C56.6804 95.7447 56.6573 95.7447 56.6333 95.7464C55.9745 95.7847 55.4691 96.3482 55.5077 97.0038C55.5377 97.5186 56.3943 99.2713 56.8963 100.243C57.2818 99.2202 57.9286 97.3805 57.8986 96.8657C57.8617 96.234 57.3332 95.7438 56.7044 95.7438L56.7036 95.7447Z" fill="black"/>
<path d="M68.415 105.027C68.3336 105.027 68.2582 104.974 68.2342 104.892C68.2051 104.793 68.2616 104.689 68.3618 104.66L70.4589 104.046C70.5591 104.016 70.6637 104.074 70.6928 104.173C70.7219 104.273 70.6654 104.377 70.5651 104.406L68.4681 105.019C68.4501 105.025 68.4321 105.027 68.415 105.027Z" fill="black"/>
<path d="M69.5634 106.497C69.482 106.497 69.4066 106.444 69.3826 106.362C69.3535 106.262 69.4101 106.158 69.5103 106.129L71.6074 105.516C71.7076 105.486 71.8121 105.544 71.8412 105.643C71.8704 105.742 71.8138 105.846 71.7136 105.875L69.6165 106.489C69.5985 106.494 69.5805 106.497 69.5634 106.497Z" fill="black"/>
<path d="M70.7157 107.966C70.6344 107.966 70.559 107.913 70.535 107.831C70.5059 107.731 70.5624 107.627 70.6626 107.598L72.7597 106.984C72.8599 106.955 72.9644 107.012 72.9936 107.111C73.0227 107.211 72.9661 107.315 72.8659 107.344L70.7689 107.958C70.7509 107.963 70.7329 107.966 70.7157 107.966Z" fill="black"/>
<path d="M48.3575 97.5041L39.207 95.9509L36.0406 114.424L45.191 115.977L48.3575 97.5041Z" fill="white"/>
<path d="M45.1988 116.161C45.1885 116.161 45.1774 116.16 45.1671 116.159L36.0164 114.606C35.9667 114.598 35.923 114.57 35.8939 114.53C35.8648 114.489 35.8536 114.438 35.8622 114.39L39.0318 95.9169C39.0489 95.8146 39.1466 95.7473 39.2494 95.7634L48.4001 97.3158C48.4497 97.3243 48.4934 97.3516 48.5226 97.3925C48.5517 97.4334 48.5628 97.4837 48.5543 97.5323L45.3847 116.005C45.3692 116.096 45.2896 116.161 45.1988 116.161ZM36.2657 114.268L45.0446 115.757L48.1499 97.6542L39.371 96.165L36.2648 114.268H36.2657Z" fill="black"/>
<path d="M47.6814 101.493L37.9062 103.581L39.2152 95.9485L48.3659 97.5008L47.6814 101.493Z" fill="#020202"/>
<path d="M36.0883 110.944L35.9178 111.097C33.9629 112.842 33.7248 114.595 32.3867 117.33L42.4677 123.037L58.5093 125.964L61.5315 124.826L60.9927 122.401L52.6036 117.97L47.1502 113.086L46.2104 110.999L44.5151 110.712L42.8652 111.791L42.5825 113.44C40.8093 114.125 40.4392 114.532 39.6399 114.397C39.6237 114.389 38.2633 114.294 38.0551 112.951L37.841 111.567C37.7133 110.741 36.7136 110.386 36.0883 110.944Z" fill="#3FB686"/>
<path d="M58.5066 126.152C58.4955 126.152 58.4835 126.151 58.4724 126.149L42.4308 123.221C42.4103 123.217 42.3897 123.21 42.3717 123.2L32.2907 117.493C32.2042 117.444 32.1708 117.337 32.2145 117.247C32.5948 116.469 32.8929 115.755 33.1551 115.126C33.8292 113.508 34.3621 112.23 35.7892 110.957L35.9597 110.804C36.3067 110.495 36.7744 110.404 37.2121 110.56C37.6499 110.716 37.954 111.081 38.0242 111.538L38.2384 112.922C38.3952 113.934 39.2732 114.158 39.6433 114.207C39.6501 114.208 39.6587 114.21 39.6681 114.212C40.1504 114.293 40.4631 114.151 41.151 113.841C41.4774 113.693 41.8783 113.513 42.4111 113.304L42.6758 111.76C42.6844 111.709 42.7144 111.663 42.7581 111.635L44.408 110.555C44.4482 110.53 44.4962 110.519 44.5433 110.527L46.2386 110.815C46.3003 110.826 46.3534 110.867 46.3791 110.924L47.3026 112.975L52.7089 117.816L61.0783 122.236C61.1271 122.261 61.1622 122.307 61.1742 122.361L61.7131 124.785C61.7336 124.876 61.6831 124.968 61.5957 125.001L58.5735 126.14C58.552 126.148 58.5289 126.152 58.5066 126.152ZM42.5302 122.858L58.4886 125.77L61.3087 124.707L60.8239 122.526L52.5118 118.136C52.4981 118.129 52.4853 118.12 52.4741 118.11L47.0207 113.226C47.001 113.209 46.9856 113.187 46.9745 113.163L46.0759 111.167L44.5536 110.909L43.0348 111.903L42.7658 113.471C42.7546 113.536 42.7101 113.59 42.6484 113.614C42.0753 113.835 41.6504 114.027 41.3086 114.182C40.595 114.504 40.2027 114.682 39.6065 114.58C39.6047 114.58 39.603 114.58 39.6022 114.58C39.2338 114.53 38.0679 114.272 37.8675 112.978L37.6533 111.595C37.6036 111.276 37.392 111.021 37.0871 110.912C36.7812 110.803 36.4549 110.867 36.2133 111.082L36.0428 111.235C34.6799 112.451 34.1616 113.695 33.5054 115.269C33.2587 115.86 32.982 116.525 32.6325 117.251L42.5319 122.856L42.5302 122.858Z" fill="black"/>
<path d="M61.5339 124.826L56.3546 124.93L43.11 122.408L32.39 117.329L30.519 118.516L29.2109 122.072L33.2192 124.698C33.2192 124.698 36.3382 125.213 40.2917 125.898L41.4096 125.121L42.8933 125.372L43.6994 126.476C49.8784 127.542 56.5773 128.661 56.5773 128.661L60.4896 127.438L61.2615 126.421L61.5356 124.826L61.5339 124.826Z" fill="#020202"/>
<path d="M34.5975 113.188L34.3525 112.858C34.1478 112.582 32.3437 110.141 32.1827 109.378C32.0961 108.969 32.175 108.55 32.4045 108.2C32.6341 107.85 32.9879 107.609 33.3991 107.523C34.248 107.346 35.085 107.888 35.264 108.733C35.4259 109.496 34.7646 112.453 34.6883 112.787L34.5975 113.187V113.188ZM33.7229 107.866C33.6415 107.866 33.5584 107.874 33.4762 107.891C33.1635 107.957 32.8945 108.139 32.7198 108.406C32.545 108.673 32.4851 108.991 32.551 109.302C32.6581 109.807 33.7666 111.413 34.4091 112.299C34.637 111.231 35.001 109.316 34.8939 108.812C34.7757 108.252 34.2772 107.867 33.7229 107.867V107.866Z" fill="black"/>
<path d="M46.4897 115.325C46.4186 115.325 46.3501 115.285 46.3184 115.217C46.2747 115.123 46.315 115.011 46.41 114.967L48.3915 114.049C48.4866 114.005 48.5988 114.045 48.6425 114.14C48.6862 114.234 48.6459 114.345 48.5508 114.39L46.5694 115.308C46.5437 115.32 46.5163 115.326 46.4897 115.326V115.325Z" fill="black"/>
<path d="M47.8452 116.607C47.7741 116.607 47.7055 116.567 47.6739 116.499C47.6302 116.405 47.6704 116.293 47.7655 116.249L49.7469 115.331C49.842 115.287 49.9542 115.328 49.9979 115.422C50.0416 115.516 50.0014 115.628 49.9063 115.672L47.9248 116.59C47.8992 116.602 47.8717 116.608 47.8452 116.608V116.607Z" fill="black"/>
<path d="M49.2046 117.89C49.1335 117.89 49.0649 117.85 49.0332 117.782C48.9895 117.688 49.0298 117.576 49.1249 117.532L51.1063 116.614C51.2014 116.57 51.3128 116.611 51.3573 116.705C51.401 116.799 51.3607 116.91 51.2656 116.955L49.2842 117.873C49.2585 117.885 49.2311 117.891 49.2046 117.891V117.89Z" fill="black"/>
<path d="M48.5128 34.752L50.4129 47.0249L54.5342 66.2078C55.9588 72.8399 55.7978 79.7133 54.0639 86.2722L48.5128 107.269H34.6172L40.0235 78.8847L34.6198 47.0377H34.618V34.752H48.5137H48.5128Z" fill="#020202"/>
<path d="M48.5147 107.457H34.619C34.5625 107.457 34.5094 107.432 34.4734 107.388C34.4374 107.345 34.4228 107.289 34.4331 107.233L39.8326 78.8822L34.4391 47.094C34.4331 47.0761 34.4297 47.0573 34.4297 47.0369V34.7512C34.4297 34.6472 34.5145 34.5637 34.6182 34.5637H48.5138C48.6072 34.5637 48.686 34.631 48.7006 34.7231L50.6006 46.9959L54.7193 66.1686C56.1431 72.7965 55.9803 79.7645 54.2465 86.3199L48.6954 107.317C48.674 107.4 48.5986 107.457 48.5129 107.457H48.5147ZM34.846 107.082H48.369L53.8833 86.2244C55.6017 79.7261 55.7636 72.8178 54.3518 66.247L50.2305 47.0641L48.3528 34.9404H34.8075V47.0104L40.2103 78.8541C40.2138 78.8762 40.2138 78.8984 40.2103 78.9206L34.8469 107.082L34.846 107.082Z" fill="black"/>
<path d="M41.5614 49.4433L40.3047 37.2216L54.1284 35.8168L54.3288 37.7698L75.9129 60.4375C78.948 63.6249 80.125 68.1386 79.0302 72.3907L73.0191 95.7447L59.521 95.8854L62.8336 71.2433L44.8141 49.1134L41.5605 49.4442L41.5614 49.4433Z" fill="#020202"/>
<path d="M19.6166 25.9853L59.4155 0.924715C61.6488 -0.480992 64.605 0.178811 66.0185 2.39947C67.432 4.62013 66.7681 7.56026 64.5356 8.96597L54.6217 15.4464L54.2439 37.6453H33.3854V28.5811L24.7367 34.0274C22.5035 35.4331 19.5472 34.7733 18.1337 32.5527C16.7194 30.332 17.3841 27.3919 19.6166 25.9862V25.9853Z" fill="#3FB686"/>
<path d="M54.2425 37.832H33.384C33.2795 37.832 33.1956 37.7476 33.1956 37.6444V28.9212L24.8364 34.1852C22.5183 35.6446 19.4404 34.9566 17.973 32.6524C17.262 31.5357 17.0307 30.211 17.3219 28.9221C17.6132 27.6332 18.3919 26.5335 19.5141 25.8268L59.313 0.766176C61.6311 -0.693236 64.709 -0.00529926 66.1764 2.2989C66.8874 3.41562 67.1187 4.73949 66.8275 6.02927C66.5362 7.31819 65.7575 8.41786 64.6353 9.12455L54.8079 15.5487L54.4318 37.6479C54.4301 37.7502 54.3461 37.8328 54.2434 37.8328L54.2425 37.832ZM33.5725 37.4569H54.0575L54.4318 15.443C54.4327 15.3807 54.4652 15.3236 54.5166 15.2895L64.4306 8.80914C65.4705 8.15445 66.1901 7.13831 66.4591 5.94743C66.7281 4.75569 66.5148 3.53156 65.8578 2.50008C64.5017 0.370634 61.6568 -0.2653 59.5151 1.08329L19.7162 26.1439C18.6788 26.7969 17.9593 27.813 17.6903 29.0039C17.4213 30.1957 17.6346 31.4198 18.2916 32.4513C19.6477 34.5807 22.4926 35.2166 24.6342 33.8681L33.2829 28.4217C33.3412 28.385 33.4149 28.3825 33.4748 28.4157C33.5348 28.449 33.5725 28.512 33.5725 28.5802V37.4569Z" fill="black"/>
<path d="M65.6326 107.997C67.662 110.106 69.8353 112.088 72.1406 113.917L105.916 138.496L139.692 113.917C156.909 100.253 166.799 78.0553 164.115 57.979L156.597 11.3725L105.916 0.244446L55.2355 11.3725L47.7176 57.979C45.3927 75.3675 52.5011 94.3484 65.6326 107.997Z" fill="#3FB686"/>
<path d="M105.915 138.685C105.875 138.685 105.837 138.673 105.803 138.649L72.0274 114.07C69.7368 112.252 67.5412 110.254 65.4947 108.128C58.9747 101.35 53.858 93.1652 50.6995 84.4547C47.4905 75.6062 46.394 66.4422 47.5282 57.9543L55.047 11.3435C55.059 11.2676 55.1172 11.2062 55.1926 11.19L105.874 0.0620316C105.9 0.0560643 105.928 0.0560643 105.955 0.0620316L156.636 11.19C156.711 11.2071 156.769 11.2676 156.781 11.3435L164.299 57.95C165.616 67.7994 163.97 78.3366 159.537 88.4289C155.138 98.4487 148.314 107.313 139.808 114.065L106.026 138.649C105.993 138.673 105.954 138.685 105.915 138.685ZM55.3991 11.5293L47.9017 58.0097C45.6367 74.954 52.4822 94.0602 65.7671 107.868C67.8016 109.983 69.9843 111.97 72.2562 113.772L105.915 138.265L139.579 113.767C156.774 100.121 166.561 77.7101 163.927 58.0054L156.43 11.5302L105.915 0.437967L55.4008 11.5302L55.3991 11.5293Z" fill="black"/>
<path d="M105.916 9.94543L63.1629 19.3327L56.8212 58.6482C54.557 75.584 62.8999 94.31 77.4235 105.836L105.916 126.57V9.94543H105.916Z" fill="#1D4CB5"/>
<path d="M105.919 126.57L134.411 105.836C148.934 94.31 157.277 75.584 155.013 58.6482L148.671 19.3327L105.918 9.94543V126.57H105.919Z" fill="#436FD0"/>
<path d="M130.295 67.1916C128.096 78.9896 117.72 87.5534 105.624 87.5534C95.7852 87.5534 87.0311 81.9323 82.9321 73.2798L86.44 71.7224L75.8545 64.1091L74.5078 77.0187L78.0363 75.4528C82.9903 86.0105 93.6453 92.8762 105.623 92.8762C120.304 92.8762 132.896 82.4813 135.565 68.1608L130.295 67.1924V67.1916Z" fill="#3FB686"/>
<path d="M134.021 51.6844C129.554 40.1276 118.435 32.3771 105.622 32.3771C91.3026 32.3771 79.0911 42.0551 75.9258 55.9135L81.153 57.0907C83.7607 45.6737 93.8237 37.6998 105.622 37.6998C116.274 37.6998 125.508 44.1981 129.122 53.8599L125.777 55.3441L136.363 62.9574L137.71 50.0477L134.021 51.6853V51.6844Z" fill="#3FB686"/>
<path d="M105.621 93.0629C99.7332 93.0629 94.0177 91.4091 89.092 88.2806C84.2545 85.2083 80.4021 80.8599 77.9419 75.6983L74.5821 77.1892C74.5213 77.2165 74.4493 77.2097 74.3945 77.1696C74.3397 77.1304 74.3105 77.0648 74.3174 76.9983L75.664 64.0886C75.6709 64.0221 75.7129 63.9642 75.7745 63.9369C75.8362 63.9096 75.9073 63.9173 75.9621 63.9565L86.5477 71.569C86.6026 71.6082 86.6317 71.6738 86.6248 71.7403C86.618 71.8077 86.576 71.8648 86.5135 71.8929L83.182 73.3719C87.2947 81.8795 96.0805 87.365 105.62 87.365C117.626 87.365 127.924 78.866 130.106 67.1566C130.125 67.0543 130.224 66.9861 130.327 67.0066L135.597 67.975C135.646 67.9844 135.689 68.0125 135.718 68.0534C135.747 68.0943 135.758 68.1455 135.748 68.1941C133.063 82.6041 120.392 93.0629 105.621 93.0629ZM78.0335 75.2644C78.1046 75.2644 78.1723 75.3045 78.2049 75.3726C83.14 85.8912 93.902 92.6878 105.621 92.6878C120.147 92.6878 132.616 82.4472 135.342 68.3109L130.443 67.4107C128.154 79.2027 117.745 87.7418 105.621 87.7418C100.779 87.7418 96.0762 86.3856 92.0217 83.8205C87.9972 81.2742 84.7942 77.6572 82.7588 73.3608C82.7374 73.3148 82.7348 73.2628 82.7528 73.2151C82.7708 73.1673 82.8068 73.1298 82.853 73.1085L86.062 71.6841L76.0067 64.4526L74.7277 76.7161L77.9573 75.2823C77.9821 75.2712 78.0087 75.2661 78.0335 75.2661V75.2644Z" fill="black"/>
<path d="M136.362 63.1441C136.323 63.1441 136.284 63.1322 136.252 63.1083L125.666 55.495C125.611 55.4558 125.582 55.3901 125.589 55.3236C125.596 55.2563 125.638 55.1992 125.699 55.171L128.881 53.7585C125.196 44.1104 116.084 37.8857 105.62 37.8857C93.9101 37.8857 83.9234 45.7991 81.3354 57.13C81.3123 57.2314 81.2104 57.2928 81.1093 57.2715L75.882 56.0943C75.8332 56.0832 75.7912 56.0533 75.7638 56.0116C75.7373 55.9698 75.7278 55.9186 75.739 55.8701C78.924 41.9264 91.2117 32.1879 105.62 32.1879C111.912 32.1879 117.941 34.0386 123.056 37.5413C128.071 40.975 131.895 45.7752 134.122 51.4313L137.63 49.8739C137.691 49.8466 137.763 49.8542 137.818 49.8935C137.872 49.9327 137.901 49.9983 137.895 50.0648L136.548 62.9745C136.541 63.0409 136.499 63.0989 136.437 63.1262C136.413 63.1373 136.387 63.1424 136.36 63.1424L136.362 63.1441ZM126.153 55.3816L136.208 62.6139L137.487 50.3504L134.096 51.8558C134.049 51.8771 133.995 51.878 133.947 51.8575C133.899 51.8379 133.862 51.7996 133.843 51.7518C129.338 40.0961 118.259 32.5647 105.62 32.5647C91.4533 32.5647 79.3617 42.0977 76.1502 55.7712L81.0091 56.8649C83.7023 45.4598 93.7954 37.5106 105.62 37.5106C110.861 37.5106 115.873 39.063 120.117 42.0014C124.326 44.9159 127.501 48.9933 129.296 53.7935C129.331 53.8864 129.287 53.9904 129.196 54.0304L126.151 55.3816H126.153Z" fill="black"/>
<path d="M90.9991 60.105C95.7322 55.395 95.7322 47.7587 90.9991 43.0487C86.266 38.3387 78.5922 38.3387 73.8591 43.0487C69.126 47.7587 69.126 55.395 73.8591 60.105C78.5922 64.8149 86.266 64.8149 90.9991 60.105Z" fill="#3FB686"/>
<path d="M82.4333 63.8252C75.6461 63.8252 70.125 58.3303 70.125 51.5771C70.125 44.8239 75.6469 39.3289 82.4333 39.3289C89.2196 39.3289 94.7416 44.8239 94.7416 51.5771C94.7416 58.3303 89.2196 63.8252 82.4333 63.8252ZM82.4333 39.704C75.8542 39.704 70.5019 45.0302 70.5019 51.5771C70.5019 58.124 75.8542 63.4501 82.4333 63.4501C89.0123 63.4501 94.3646 58.124 94.3646 51.5771C94.3646 45.0302 89.0123 39.704 82.4333 39.704Z" fill="black"/>
<path d="M82.4297 52.3911C78.956 52.3911 75.7787 53.657 73.3398 55.7507C74.9264 59.1665 78.4 61.5372 82.4297 61.5372C86.4594 61.5372 89.9331 59.1665 91.5196 55.7507C89.0799 53.657 85.9034 52.3911 82.4297 52.3911Z" fill="white"/>
<path d="M82.432 50.8524C84.7308 50.8524 86.5944 48.998 86.5944 46.7103C86.5944 44.4227 84.7308 42.5682 82.432 42.5682C80.1331 42.5682 78.2695 44.4227 78.2695 46.7103C78.2695 48.998 80.1331 50.8524 82.432 50.8524Z" fill="white"/>
<path d="M128.053 88.5952C134.747 88.5952 140.173 83.1954 140.173 76.5346C140.173 69.8737 134.747 64.4739 128.053 64.4739C121.36 64.4739 115.934 69.8737 115.934 76.5346C115.934 83.1954 121.36 88.5952 128.053 88.5952Z" fill="#3FB686"/>
<path d="M128.054 88.7827C121.267 88.7827 115.746 83.2877 115.746 76.5345C115.746 69.7813 121.268 64.2864 128.054 64.2864C134.841 64.2864 140.363 69.7813 140.363 76.5345C140.363 83.2877 134.841 88.7827 128.054 88.7827ZM128.054 64.6615C121.475 64.6615 116.123 69.9876 116.123 76.5345C116.123 83.0814 121.475 88.4076 128.054 88.4076C134.633 88.4076 139.986 83.0814 139.986 76.5345C139.986 69.9876 134.633 64.6615 128.054 64.6615Z" fill="black"/>
<path d="M128.051 77.3486C124.577 77.3486 121.4 78.6145 118.961 80.7081C120.547 84.1239 124.021 86.4946 128.051 86.4946C132.08 86.4946 135.554 84.1239 137.141 80.7081C134.701 78.6145 131.525 77.3486 128.051 77.3486Z" fill="white"/>
<path d="M128.051 75.6403C130.363 75.6403 132.238 73.7747 132.238 71.4735C132.238 69.1722 130.363 67.3066 128.051 67.3066C125.738 67.3066 123.863 69.1722 123.863 71.4735C123.863 73.7747 125.738 75.6403 128.051 75.6403Z" fill="white"/>
<path d="M78.9141 26.7663L80.8955 26.1584L82.3441 29.9502C82.5642 30.5094 82.3098 31.1002 81.7761 31.2698C81.2424 31.4394 80.6308 31.124 80.4106 30.5648L78.9141 26.7671V26.7663Z" fill="white"/>
<path d="M80.4531 25.1321L82.3866 24.5175L83.8831 28.3152C84.1033 28.8744 83.8489 29.4651 83.3152 29.6348C82.7815 29.8044 82.1698 29.489 81.9497 28.9298L80.4531 25.1321Z" fill="white"/>
<path d="M82.2461 24.1764L83.9731 23.6283L85.3095 27.0202C85.5065 27.5198 85.2795 28.0474 84.8023 28.1983C84.3252 28.3501 83.7795 28.0679 83.5825 27.5684L82.2461 24.1764Z" fill="white"/>
<path d="M77.3125 28.6407L79.1286 27.6647L84.3379 33.8416C84.6934 34.2636 84.6377 34.8918 84.2136 35.2447C83.7896 35.5985 83.1582 35.5431 82.8027 35.122L77.3125 28.6407Z" fill="white"/>
<path d="M72.8086 23.7698L76.6515 25.1789L76.2232 32.1486C76.2335 32.7308 75.7734 33.1656 75.1961 33.1196C74.6187 33.0735 74.1424 32.5637 74.1321 31.9815L74.0773 28.8189L72.8086 23.7698Z" fill="white"/>
<path d="M72.8194 23.5976L69.1367 18.0763L75.4519 14.0424L78.792 18.9091L83.9644 23.6198L77.5918 28.9451L72.8194 23.5976Z" fill="white"/>
<path d="M69.1367 18.0763L75.4519 14.0424L76.7694 15.7925L71.6655 21.8978L69.1367 18.0763Z" fill="#020202"/>
<path d="M82.1859 31.2041C82.1285 31.2041 82.072 31.1785 82.0351 31.1291C81.9726 31.0464 81.9889 30.9287 82.072 30.8665C82.245 30.7369 82.3761 30.5443 82.1688 30.0183L80.841 26.6289C80.8033 26.5326 80.8513 26.4235 80.9481 26.386C81.044 26.3485 81.1545 26.3962 81.1922 26.4925L82.52 29.8811C82.604 30.0942 82.8601 30.7446 82.299 31.1657C82.2647 31.1913 82.2253 31.2032 82.1859 31.2032V31.2041Z" fill="black"/>
<path d="M83.0247 29.8683C82.5021 29.8683 81.9873 29.5273 81.7782 28.9988L80.8454 26.6298C80.8068 26.5335 80.8548 26.4244 80.9524 26.3868C81.0492 26.3493 81.1589 26.3962 81.1966 26.4934L82.1295 28.8624C82.3136 29.3304 82.8208 29.5981 83.2619 29.4574C83.4564 29.396 83.6123 29.2605 83.6997 29.0764C83.7991 28.8701 83.8025 28.6177 83.7117 28.385L82.3753 25.0042C82.3368 24.9078 82.3847 24.7987 82.4815 24.7604C82.5783 24.7228 82.688 24.7697 82.7265 24.8661L84.0629 28.2469C84.1923 28.576 84.1846 28.9365 84.0406 29.2366C83.907 29.5154 83.6714 29.72 83.3767 29.8137C83.2611 29.8504 83.1429 29.8683 83.0247 29.8683Z" fill="black"/>
<path d="M84.5417 28.4259C84.0671 28.4259 83.5994 28.1165 83.4101 27.6365L82.3727 25.0033C82.3341 24.907 82.3821 24.7978 82.4798 24.7603C82.5766 24.7228 82.6862 24.7697 82.7239 24.8669L83.7613 27.5001C83.9224 27.9085 84.3644 28.1403 84.7473 28.0193C84.9161 27.9656 85.0506 27.8488 85.1268 27.6894C85.2125 27.5095 85.2159 27.2913 85.1362 27.0884L83.7999 23.6965C83.7613 23.6001 83.8093 23.491 83.9069 23.4535C84.0037 23.416 84.1134 23.4629 84.1511 23.5601L85.4875 26.952C85.6048 27.2504 85.598 27.5786 85.4678 27.8514C85.3461 28.1054 85.1311 28.2921 84.8621 28.3782C84.7567 28.4114 84.6488 28.4276 84.5417 28.4276V28.4259Z" fill="black"/>
<path d="M83.5728 35.665C83.2327 35.665 82.8943 35.521 82.6596 35.2422L77.4503 29.0653C77.3835 28.986 77.3938 28.8675 77.4735 28.801C77.554 28.7345 77.6731 28.7448 77.739 28.824L82.9483 35.001C83.2361 35.3428 83.7501 35.388 84.0936 35.1007C84.2598 34.9617 84.3618 34.7674 84.3815 34.5517C84.4003 34.336 84.3343 34.1272 84.1947 33.9618L79.1174 27.6707C79.0523 27.5897 79.0651 27.472 79.1465 27.4064C79.2279 27.3408 79.3461 27.3544 79.4121 27.4354L84.4868 33.724C84.689 33.9627 84.7858 34.2704 84.7584 34.585C84.731 34.9004 84.5811 35.1851 84.3378 35.3888C84.115 35.5747 83.8435 35.665 83.5736 35.665H83.5728Z" fill="black"/>
<path d="M75.2803 33.3097C75.2477 33.3097 75.2143 33.308 75.1809 33.3054C74.5101 33.2517 73.955 32.6584 73.9431 31.9832L73.8882 28.8411L72.6478 23.6735L69.5793 19.1511C69.521 19.065 69.5433 18.9483 69.6298 18.8903C69.7164 18.8323 69.8337 18.8545 69.892 18.9406L72.9793 23.491C72.9922 23.5098 73.0007 23.5302 73.0067 23.5524L74.26 28.7729C74.2634 28.7857 74.2652 28.7993 74.2652 28.8129L74.3208 31.9756C74.3294 32.4632 74.7286 32.8911 75.2109 32.9295C75.4345 32.9465 75.6426 32.8775 75.7968 32.7334C75.9536 32.5868 76.0384 32.3788 76.0341 32.1486L76.3048 27.7388C76.3117 27.6348 76.4008 27.5581 76.5044 27.5632C76.6089 27.5692 76.6877 27.6587 76.6817 27.7618L76.4119 32.1571C76.4179 32.4802 76.292 32.7871 76.0555 33.007C75.8457 33.2031 75.5741 33.308 75.2803 33.308V33.3097Z" fill="black"/>
<path d="M77.5947 29.1326C77.5441 29.1326 77.4927 29.1121 77.4559 29.0721L75.292 26.7329C75.2218 26.6571 75.2261 26.5377 75.3032 26.4678C75.3794 26.3979 75.4993 26.4022 75.5696 26.4789L77.7335 28.818C77.8037 28.8939 77.7994 29.0133 77.7223 29.0832C77.6863 29.1164 77.6401 29.1326 77.5947 29.1326Z" fill="black"/>
<path d="M83.9674 23.8082C83.922 23.8082 83.8766 23.792 83.8397 23.7587L78.6664 19.048C78.6562 19.0386 78.6467 19.0276 78.6382 19.0156L75.9355 15.1045C75.8764 15.0193 75.8986 14.9025 75.9843 14.8437C76.07 14.7849 76.1873 14.807 76.2464 14.8923L78.9371 18.7855L84.0942 23.4817C84.1713 23.5516 84.1764 23.6701 84.1061 23.7468C84.0693 23.7877 84.0179 23.8082 83.9674 23.8082Z" fill="black"/>
<path d="M65.2215 1.47632L77.6934 15.2137L69.7634 20.2006L61.1602 9.7699L65.2215 1.47632Z" fill="#3FB686"/>
<path d="M69.7611 20.389C69.7063 20.389 69.6523 20.3651 69.6146 20.3208L61.0114 9.89006C60.9454 9.80993 60.9574 9.69144 61.0379 9.6258C61.1184 9.56016 61.2375 9.5721 61.3035 9.65223L69.8005 19.9551L77.4007 15.1762L65.0787 1.60415C65.0085 1.52743 65.0153 1.40809 65.0924 1.33904C65.1695 1.26999 65.2894 1.2751 65.3588 1.35268L77.8307 15.0901C77.8676 15.131 77.8856 15.1864 77.8778 15.241C77.8701 15.2955 77.8384 15.345 77.7913 15.3739L69.8605 20.3608C69.8297 20.3804 69.7945 20.3898 69.7603 20.3898L69.7611 20.389Z" fill="black"/>
<path d="M69.7634 20.389C69.7086 20.389 69.6546 20.3651 69.6169 20.3208L58.609 6.97469C58.543 6.89456 58.555 6.77606 58.6356 6.71042C58.7161 6.64479 58.8352 6.65672 58.9011 6.73685L69.909 20.083C69.975 20.1631 69.963 20.2816 69.8825 20.3472C69.8473 20.3762 69.8045 20.3899 69.7625 20.3899L69.7634 20.389Z" fill="black"/>
<path d="M22.0234 34.7521H39.8391V25.1321H30.7124L22.0234 34.7521Z" fill="#3FB686"/>
<path d="M40.0276 34.9396H22.0234V34.5645H39.6498V25.3196H30.7133V24.9445H40.0276V34.9396Z" fill="#020202"/>
<path d="M39.8403 34.9396H33.3769C33.2724 34.9396 33.1885 34.8552 33.1885 34.7521C33.1885 34.6489 33.2733 34.5645 33.3769 34.5645H39.6519V25.3196H24.2939C24.1894 25.3196 24.1055 25.2352 24.1055 25.1321C24.1055 25.0289 24.1903 24.9445 24.2939 24.9445H39.8412C39.9457 24.9445 40.0297 25.0289 40.0297 25.1321V34.7521C40.0297 34.8561 39.9448 34.9396 39.8412 34.9396H39.8403Z" fill="black"/>
<path d="M39.8359 26.7416V33.5331H50.9621C51.3407 33.5331 51.7022 33.6934 51.9549 33.9738L52.4843 34.5612C52.9606 35.0897 53.807 35.0454 54.225 34.4691C54.5034 34.0847 54.5017 33.574 54.2387 33.1921L54.5343 32.7847C54.8726 32.3167 54.8332 31.6773 54.44 31.2545L54.1428 30.9348C54.4418 30.4728 54.3912 29.8641 54.0117 29.4575L53.5157 28.9239L53.5234 28.9187C53.7307 28.4797 53.6562 27.9486 53.3144 27.5821L52.8732 27.1081C52.0294 26.202 50.8438 25.6862 49.6017 25.6862H45.4178C43.6823 25.6862 43.236 26.7407 42.4676 26.7407H39.8368L39.8359 26.7416Z" fill="white"/>
<path d="M42.2697 26.7415L39.8359 33.5331V26.7415H42.2697Z" fill="#020202"/>
<path d="M54.1418 31.1223C54.1067 31.1223 54.0716 31.1129 54.0399 31.0925C53.9525 31.0362 53.9268 30.9203 53.9834 30.8325C54.2369 30.4403 54.1915 29.9271 53.8728 29.5845L53.0942 28.7473C52.5039 28.1131 51.667 27.7491 50.7975 27.7491H48.6533C48.5488 27.7491 48.4648 27.6647 48.4648 27.5616C48.4648 27.4584 48.5497 27.374 48.6533 27.374H50.7975C51.7715 27.374 52.7095 27.7815 53.3709 28.4925L54.1495 29.3296C54.5856 29.7984 54.6473 30.5 54.3003 31.0362C54.2643 31.0916 54.2035 31.1223 54.1418 31.1223Z" fill="black"/>
<path d="M54.2362 33.3839C54.1977 33.3839 54.1591 33.3719 54.1257 33.3481C54.0409 33.2876 54.0221 33.1699 54.0829 33.0855L54.381 32.6746C54.6663 32.2808 54.6329 31.7369 54.3013 31.3814L53.3667 30.3772C52.875 29.8487 52.1777 29.5461 51.4539 29.5461H48.6338C48.5293 29.5461 48.4453 29.4617 48.4453 29.3586C48.4453 29.2554 48.5301 29.171 48.6338 29.171H51.4539C52.2822 29.171 53.0806 29.518 53.6434 30.1224L54.578 31.1266C55.0312 31.6133 55.0766 32.3567 54.6868 32.8946L54.3887 33.3055C54.3519 33.3566 54.2936 33.383 54.2354 33.383L54.2362 33.3839Z" fill="black"/>
<path d="M46.5736 33.7206H39.6484V26.5531H42.4685C42.7187 26.5531 42.9465 26.4031 43.2344 26.2138C43.6927 25.912 44.3206 25.4986 45.4188 25.4986H49.6027C50.8928 25.4986 52.1358 26.0382 53.0121 26.9802L53.4533 27.4541C53.8448 27.8744 53.939 28.4805 53.6949 28.9988C53.6503 29.0926 53.5381 29.1326 53.4439 29.0892C53.3496 29.0448 53.3094 28.9332 53.3531 28.8394C53.5321 28.4609 53.4627 28.0168 53.1766 27.7099L52.7354 27.2359C51.9302 26.3707 50.7883 25.8745 49.6027 25.8745H45.4188C44.4337 25.8745 43.8837 26.2368 43.4425 26.5275C43.1153 26.7432 42.8326 26.9299 42.4685 26.9299H40.0262V33.3463H46.5736C46.6781 33.3463 46.762 33.4307 46.762 33.5339C46.762 33.637 46.6772 33.7214 46.5736 33.7214V33.7206Z" fill="black"/>
<path d="M53.3158 35.1187C52.944 35.1187 52.5937 34.9635 52.3435 34.6865L51.8141 34.0991C51.5974 33.8587 51.2864 33.7206 50.9618 33.7206H44.2585C43.0292 33.7206 41.883 33.1162 41.1926 32.1027C41.1343 32.0166 41.1566 31.8998 41.2431 31.8418C41.3296 31.783 41.447 31.806 41.5053 31.8921C42.1255 32.8017 43.1552 33.3447 44.2594 33.3447H50.9626C51.3944 33.3447 51.8073 33.528 52.096 33.8476L52.6254 34.435C52.8138 34.6447 53.0862 34.7547 53.3672 34.741C53.6499 34.7257 53.9069 34.5867 54.0722 34.3583C54.3301 34.0028 54.2993 33.5118 54.0003 33.1904L53.0254 32.1427C52.5243 31.604 51.8141 31.2954 51.0766 31.2954H48.7293C48.6248 31.2954 48.5409 31.211 48.5409 31.1078C48.5409 31.0047 48.6257 30.9203 48.7293 30.9203H51.0766C51.9195 30.9203 52.7307 31.2732 53.3021 31.8878L54.277 32.9355C54.6976 33.3873 54.7404 34.0787 54.3789 34.5791C54.1468 34.9004 53.7853 35.0965 53.3878 35.1178C53.3638 35.1195 53.3407 35.1195 53.3167 35.1195L53.3158 35.1187Z" fill="black"/>
<path d="M41.6223 11.2557C44.1837 11.2557 46.2601 9.23289 46.2601 6.73764C46.2601 4.2424 44.1837 2.2196 41.6223 2.2196C39.0608 2.2196 36.9844 4.2424 36.9844 6.73764C36.9844 9.23289 39.0608 11.2557 41.6223 11.2557Z" fill="black"/>
<path d="M41.0586 14.432L44.6368 16.1702V9.6463H41.0586V14.432Z" fill="white"/>
<path d="M44.6386 16.3577C44.6104 16.3577 44.5821 16.3517 44.5555 16.3389L40.9773 14.6016C40.9122 14.5701 40.8711 14.5045 40.8711 14.4328V9.64628C40.8711 9.54228 40.9559 9.45874 41.0596 9.45874H44.6378C44.7423 9.45874 44.8262 9.54313 44.8262 9.64628V16.1702C44.8262 16.2349 44.7928 16.2946 44.738 16.3296C44.7072 16.3483 44.6729 16.3586 44.6378 16.3586L44.6386 16.3577ZM41.2489 14.3152L44.4493 15.8692V9.83382H41.2489V14.3152Z" fill="black"/>
<path d="M41.0586 10.9948V9.64539H44.6368V12.623C44.3138 12.687 43.6705 12.7671 42.9312 12.525C41.7747 12.1457 41.2068 11.2463 41.0586 10.994V10.9948Z" fill="black"/>
<path d="M43.3345 11.7578C44.9237 11.7578 46.212 10.3419 46.212 8.59518C46.212 6.84851 44.9237 5.43256 43.3345 5.43256C41.7453 5.43256 40.457 6.84851 40.457 8.59518C40.457 10.3419 41.7453 11.7578 43.3345 11.7578Z" fill="white"/>
<path d="M43.3324 11.9462C41.6414 11.9462 40.2656 10.4433 40.2656 8.59516C40.2656 6.74703 41.6414 5.24414 43.3324 5.24414C45.0234 5.24414 46.3992 6.74703 46.3992 8.59516C46.3992 10.4433 45.0234 11.9462 43.3324 11.9462ZM43.3324 5.62008C41.8496 5.62008 40.6434 6.95503 40.6434 8.59516C40.6434 10.2353 41.8496 11.5702 43.3324 11.5702C44.8153 11.5702 46.0214 10.2353 46.0214 8.59516C46.0214 6.95503 44.8153 5.62008 43.3324 5.62008Z" fill="black"/>
<path d="M42.1016 9.96765C42.38 10.2208 42.7381 10.3922 43.1424 10.4331C44.0436 10.5243 44.8557 9.94208 45.0793 9.09814L42.1024 9.96765H42.1016Z" fill="#3FB686"/>
<path d="M151.141 130.815V137.581C151.141 147.625 142.951 155.767 132.85 155.767C122.748 155.767 114.559 147.625 114.559 137.581V130.815H151.141Z" fill="#3FB686"/>
<path d="M132.851 155.955C122.661 155.955 114.371 147.712 114.371 137.581V130.815C114.371 130.711 114.456 130.627 114.56 130.627C114.663 130.627 114.748 130.712 114.748 130.815V137.581C114.748 147.505 122.869 155.579 132.851 155.579C142.832 155.579 150.953 147.505 150.953 137.581V130.815C150.953 130.711 151.038 130.627 151.142 130.627C151.245 130.627 151.33 130.712 151.33 130.815V137.581C151.33 147.712 143.04 155.955 132.851 155.955Z" fill="black"/>
<path d="M132.846 149.001C142.948 149.001 151.137 140.859 151.137 130.815C151.137 120.771 142.948 112.628 132.846 112.628C122.744 112.628 114.555 120.771 114.555 130.815C114.555 140.859 122.744 149.001 132.846 149.001Z" fill="#436FD0"/>
<path d="M132.851 149.189C122.661 149.189 114.371 140.946 114.371 130.815C114.371 120.683 122.661 112.441 132.851 112.441C143.04 112.441 151.33 120.683 151.33 130.815C151.33 140.946 143.04 149.189 132.851 149.189ZM132.851 112.816C122.869 112.816 114.748 120.891 114.748 130.815C114.748 140.739 122.869 148.813 132.851 148.813C142.832 148.813 150.953 140.739 150.953 130.815C150.953 120.891 142.832 112.816 132.851 112.816Z" fill="black"/>
<path d="M119.692 132.817C119.599 132.817 119.518 132.749 119.505 132.655C119.421 132.05 119.379 131.43 119.379 130.815C119.379 126.128 121.895 121.721 125.944 119.313C126.033 119.26 126.149 119.289 126.203 119.377C126.256 119.466 126.227 119.582 126.138 119.635C122.202 121.976 119.757 126.259 119.757 130.814C119.757 131.412 119.798 132.014 119.879 132.603C119.894 132.707 119.821 132.801 119.718 132.815C119.71 132.816 119.701 132.816 119.692 132.816L119.692 132.817Z" fill="white"/>
<path d="M125.588 142.06C125.553 142.06 125.517 142.049 125.485 142.029C123.059 140.451 121.18 138.097 120.191 135.399C120.155 135.302 120.206 135.194 120.304 135.159C120.401 135.124 120.51 135.174 120.545 135.271C121.506 137.893 123.333 140.181 125.691 141.715C125.778 141.772 125.803 141.888 125.746 141.975C125.71 142.031 125.649 142.061 125.587 142.061L125.588 142.06Z" fill="white"/>
<path d="M132.847 144.207C130.934 144.207 129.086 143.817 127.354 143.047C127.259 143.004 127.216 142.893 127.259 142.799C127.302 142.704 127.412 142.662 127.508 142.704C129.191 143.453 130.988 143.832 132.847 143.832C137.69 143.832 142.117 141.191 144.402 136.94C144.451 136.849 144.566 136.814 144.657 136.863C144.749 136.912 144.784 137.026 144.734 137.117C142.384 141.49 137.829 144.208 132.846 144.208L132.847 144.207Z" fill="white"/>
<path d="M145.727 134.257C145.711 134.257 145.696 134.255 145.68 134.251C145.579 134.226 145.519 134.123 145.544 134.023C145.81 132.979 145.945 131.9 145.945 130.814C145.945 127.337 144.583 124.069 142.11 121.609C142.036 121.536 142.036 121.417 142.11 121.344C142.184 121.271 142.303 121.271 142.376 121.344C144.921 123.873 146.322 127.237 146.322 130.814C146.322 131.931 146.183 133.042 145.91 134.115C145.889 134.2 145.812 134.256 145.728 134.256L145.727 134.257Z" fill="black"/>
<path d="M140.274 120.053C140.238 120.053 140.201 120.042 140.168 120.02C138.004 118.566 135.472 117.797 132.848 117.797C131.697 117.797 130.554 117.945 129.452 118.239C129.352 118.265 129.249 118.206 129.221 118.106C129.195 118.005 129.254 117.903 129.355 117.875C130.488 117.574 131.663 117.421 132.848 117.421C135.548 117.421 138.152 118.212 140.379 119.708C140.466 119.766 140.488 119.883 140.43 119.969C140.393 120.023 140.334 120.052 140.273 120.052L140.274 120.053Z" fill="black"/>
<path d="M128.993 155.548C128.889 155.548 128.805 155.464 128.805 155.361V150.15C128.805 150.046 128.89 149.963 128.993 149.963C129.097 149.963 129.182 150.047 129.182 150.15V155.361C129.182 155.465 129.097 155.548 128.993 155.548Z" fill="black"/>
<path d="M125.931 154.533C125.826 154.533 125.742 154.449 125.742 154.345V149.135C125.742 149.031 125.827 148.948 125.931 148.948C126.034 148.948 126.119 149.032 126.119 149.135V154.345C126.119 154.449 126.034 154.533 125.931 154.533Z" fill="black"/>
<path d="M123.204 153.18C123.1 153.18 123.016 153.096 123.016 152.992V150.15C123.016 150.046 123.1 149.963 123.204 149.963C123.308 149.963 123.393 150.047 123.393 150.15V152.992C123.393 153.096 123.308 153.18 123.204 153.18Z" fill="black"/>
<path d="M164.422 117.213V123.979C164.422 134.023 156.233 142.165 146.131 142.165C136.029 142.165 127.84 134.024 127.84 123.979V117.213H164.422Z" fill="#3FB686"/>
<path d="M146.132 142.354C135.942 142.354 127.652 134.111 127.652 123.98V117.214C127.652 117.11 127.737 117.026 127.841 117.026C127.944 117.026 128.029 117.111 128.029 117.214V123.98C128.029 133.904 136.15 141.978 146.132 141.978C156.114 141.978 164.235 133.904 164.235 123.98V117.214C164.235 117.11 164.319 117.026 164.423 117.026C164.527 117.026 164.611 117.111 164.611 117.214V123.98C164.611 134.111 156.322 142.354 146.132 142.354Z" fill="black"/>
<path d="M146.131 135.399C156.233 135.399 164.422 127.257 164.422 117.213C164.422 107.169 156.233 99.0267 146.131 99.0267C136.029 99.0267 127.84 107.169 127.84 117.213C127.84 127.257 136.029 135.399 146.131 135.399Z" fill="#436FD0"/>
<path d="M146.132 135.587C135.942 135.587 127.652 127.345 127.652 117.213C127.652 107.082 135.942 98.8391 146.132 98.8391C156.322 98.8391 164.611 107.082 164.611 117.213C164.611 127.345 156.322 135.587 146.132 135.587ZM146.132 99.215C136.15 99.215 128.029 107.289 128.029 117.213C128.029 127.137 136.15 135.211 146.132 135.211C156.114 135.211 164.235 127.137 164.235 117.213C164.235 107.289 156.114 99.215 146.132 99.215Z" fill="black"/>
<path d="M132.981 119.216C132.888 119.216 132.807 119.148 132.794 119.054C132.71 118.449 132.668 117.829 132.668 117.214C132.668 112.528 135.184 108.121 139.233 105.712C139.322 105.66 139.438 105.689 139.492 105.777C139.545 105.866 139.516 105.982 139.427 106.035C135.491 108.376 133.046 112.659 133.046 117.214C133.046 117.812 133.087 118.414 133.168 119.003C133.183 119.106 133.11 119.201 133.007 119.215C132.999 119.216 132.99 119.216 132.982 119.216H132.981Z" fill="white"/>
<path d="M138.869 128.459C138.834 128.459 138.798 128.448 138.767 128.428C136.341 126.85 134.461 124.496 133.473 121.798C133.437 121.701 133.487 121.593 133.585 121.558C133.682 121.523 133.791 121.573 133.826 121.67C134.787 124.292 136.615 126.58 138.972 128.114C139.06 128.171 139.084 128.287 139.027 128.374C138.991 128.43 138.93 128.46 138.869 128.46L138.869 128.459Z" fill="white"/>
<path d="M146.132 130.606C144.219 130.606 142.371 130.216 140.639 129.446C140.544 129.403 140.501 129.292 140.544 129.198C140.587 129.103 140.697 129.061 140.793 129.103C142.477 129.852 144.273 130.231 146.132 130.231C150.975 130.231 155.402 127.59 157.687 123.339C157.736 123.248 157.851 123.213 157.942 123.262C158.034 123.311 158.069 123.425 158.02 123.516C155.669 127.889 151.114 130.607 146.131 130.607L146.132 130.606Z" fill="white"/>
<path d="M159.007 120.656C158.992 120.656 158.976 120.654 158.961 120.65C158.86 120.625 158.799 120.522 158.825 120.422C159.09 119.378 159.226 118.299 159.226 117.213C159.226 113.736 157.863 110.468 155.391 108.008C155.318 107.935 155.318 107.816 155.391 107.743C155.465 107.67 155.584 107.67 155.658 107.743C158.202 110.272 159.603 113.636 159.603 117.213C159.603 118.33 159.465 119.441 159.191 120.514C159.17 120.599 159.093 120.655 159.009 120.655L159.007 120.656Z" fill="white"/>
<path d="M153.559 106.452C153.523 106.452 153.486 106.441 153.453 106.419C151.289 104.965 148.757 104.196 146.133 104.196C144.982 104.196 143.839 104.344 142.738 104.638C142.637 104.665 142.534 104.605 142.506 104.505C142.48 104.404 142.539 104.302 142.64 104.274C143.773 103.973 144.949 103.82 146.133 103.82C148.833 103.82 151.437 104.611 153.664 106.107C153.751 106.165 153.773 106.282 153.715 106.368C153.678 106.422 153.619 106.451 153.558 106.451L153.559 106.452Z" fill="white"/>
<path d="M157.47 138.275C157.365 138.275 157.281 138.19 157.281 138.087V132.938C157.281 132.834 157.366 132.751 157.47 132.751C157.573 132.751 157.658 132.835 157.658 132.938V138.087C157.658 138.191 157.573 138.275 157.47 138.275Z" fill="black"/>
<path d="M154.747 139.966C154.643 139.966 154.559 139.882 154.559 139.778V136.321C154.559 136.217 154.643 136.133 154.747 136.133C154.851 136.133 154.936 136.218 154.936 136.321V139.778C154.936 139.882 154.851 139.966 154.747 139.966Z" fill="black"/>
<path d="M151.685 141.32C151.58 141.32 151.496 141.235 151.496 141.132V137.675C151.496 137.571 151.581 137.487 151.685 137.487C151.788 137.487 151.873 137.571 151.873 137.675V141.132C151.873 141.236 151.788 141.32 151.685 141.32Z" fill="black"/>
<path d="M142.677 116.55C142.607 116.55 142.54 116.511 142.507 116.445C142.236 115.893 142.098 115.299 142.098 114.681C142.098 112.467 143.909 110.667 146.135 110.667C147.696 110.667 149.132 111.576 149.794 112.981C149.838 113.075 149.797 113.187 149.703 113.231C149.609 113.276 149.497 113.235 149.452 113.141C148.852 111.866 147.55 111.042 146.135 111.042C144.117 111.042 142.475 112.675 142.475 114.68C142.475 115.241 142.601 115.779 142.846 116.279C142.892 116.372 142.853 116.484 142.76 116.53C142.733 116.543 142.705 116.549 142.677 116.549V116.55Z" fill="white"/>
<path d="M146.132 124.004C144.954 124.004 143.837 123.494 143.069 122.605C143.001 122.526 143.01 122.408 143.089 122.34C143.168 122.272 143.287 122.281 143.355 122.359C144.052 123.165 145.064 123.627 146.132 123.627C148.15 123.627 149.791 121.995 149.791 119.989C149.791 119.396 149.645 118.809 149.368 118.289C149.319 118.197 149.354 118.083 149.447 118.035C149.539 117.986 149.653 118.021 149.702 118.113C150.007 118.687 150.169 119.336 150.169 119.989C150.169 122.203 148.358 124.003 146.132 124.003V124.004Z" fill="white"/>
<path d="M145.953 126.75C145.851 126.75 145.767 126.669 145.765 126.567L145.695 123.82C145.693 123.716 145.775 123.63 145.88 123.628H145.885C145.987 123.628 146.071 123.709 146.073 123.811L146.143 126.558C146.145 126.662 146.063 126.748 145.958 126.75H145.953Z" fill="white"/>
<path d="M146.135 111.042C146.036 111.042 145.953 110.965 145.947 110.865L145.766 107.591C145.76 107.487 145.84 107.4 145.944 107.394C146.043 107.383 146.137 107.467 146.143 107.571L146.324 110.844C146.33 110.948 146.25 111.036 146.145 111.042C146.142 111.042 146.139 111.042 146.135 111.042Z" fill="white"/>
<path d="M148.122 117.679C148.11 117.679 148.098 117.678 148.085 117.676L143.909 116.84C143.808 116.819 143.742 116.72 143.761 116.619C143.782 116.517 143.882 116.451 143.983 116.471L148.158 117.308C148.26 117.328 148.326 117.427 148.307 117.528C148.289 117.618 148.21 117.679 148.122 117.679H148.122Z" fill="white"/>
<path d="M208.77 38.374V45.1399C208.77 55.1836 200.58 63.3263 190.479 63.3263C180.377 63.3263 172.188 55.1845 172.188 45.1399V38.374H208.77Z" fill="#3FB686"/>
<path d="M190.48 63.5147C180.29 63.5147 172 55.2723 172 45.1408V38.3748C172 38.2708 172.085 38.1873 172.188 38.1873C172.292 38.1873 172.377 38.2716 172.377 38.3748V45.1408C172.377 55.0651 180.498 63.1388 190.48 63.1388C200.461 63.1388 208.582 55.0651 208.582 45.1408V38.3748C208.582 38.2708 208.667 38.1873 208.771 38.1873C208.874 38.1873 208.959 38.2716 208.959 38.3748V45.1408C208.959 55.2723 200.669 63.5147 190.48 63.5147Z" fill="black"/>
<path d="M190.479 56.5603C200.58 56.5603 208.77 48.418 208.77 38.3739C208.77 28.3299 200.58 20.1876 190.479 20.1876C180.377 20.1876 172.188 28.3299 172.188 38.3739C172.188 48.418 180.377 56.5603 190.479 56.5603Z" fill="#436FD0"/>
<path d="M190.48 56.7479C180.29 56.7479 172 48.5054 172 38.3739C172 28.2424 180.29 20 190.48 20C200.669 20 208.959 28.2424 208.959 38.3739C208.959 48.5054 200.669 56.7479 190.48 56.7479ZM190.48 20.3759C180.498 20.3759 172.377 28.4496 172.377 38.3739C172.377 48.2983 180.498 56.3719 190.48 56.3719C200.461 56.3719 208.582 48.2983 208.582 38.3739C208.582 28.4496 200.461 20.3759 190.48 20.3759Z" fill="black"/>
<path d="M177.328 40.3772C177.236 40.3772 177.154 40.309 177.142 40.2152C177.058 39.61 177.016 38.9903 177.016 38.3748C177.016 33.6888 179.532 29.2816 183.581 26.8734C183.67 26.8205 183.786 26.8495 183.84 26.9382C183.893 27.0268 183.864 27.1428 183.775 27.1956C179.838 29.5365 177.393 33.8201 177.393 38.3748C177.393 38.9732 177.435 39.575 177.516 40.1641C177.53 40.2672 177.458 40.3619 177.355 40.3755C177.346 40.3772 177.338 40.3772 177.329 40.3772H177.328Z" fill="white"/>
<path d="M183.217 49.6196C183.182 49.6196 183.146 49.6093 183.114 49.5889C180.688 48.011 178.809 45.6565 177.82 42.9593C177.784 42.8621 177.835 42.7539 177.932 42.7189C178.03 42.684 178.139 42.7334 178.174 42.8306C179.135 45.4528 180.962 47.7408 183.32 49.2752C183.407 49.3314 183.432 49.4482 183.375 49.5352C183.339 49.5906 183.278 49.6204 183.216 49.6204L183.217 49.6196Z" fill="white"/>
<path d="M190.48 51.7669C188.567 51.7669 186.719 51.3765 184.987 50.6068C184.892 50.5641 184.849 50.4533 184.892 50.3587C184.934 50.2641 185.045 50.2214 185.141 50.2641C186.824 51.0125 188.621 51.3919 190.48 51.3919C195.323 51.3919 199.75 48.7509 202.035 44.4997C202.084 44.4085 202.198 44.3736 202.29 44.423C202.382 44.4716 202.417 44.5858 202.367 44.677C200.017 49.0502 195.462 51.7678 190.479 51.7678L190.48 51.7669Z" fill="white"/>
<path d="M203.355 41.817C203.339 41.817 203.324 41.8153 203.309 41.8111C203.207 41.7855 203.147 41.6832 203.172 41.5826C203.438 40.5392 203.573 39.46 203.573 38.374C203.573 34.8968 202.211 31.6284 199.739 29.1691C199.665 29.0958 199.665 28.9773 199.739 28.904C199.813 28.8307 199.932 28.8307 200.005 28.904C202.55 31.4332 203.951 34.797 203.951 38.374C203.951 39.4907 203.812 40.6014 203.539 41.6747C203.518 41.7599 203.44 41.8162 203.356 41.8162L203.355 41.817Z" fill="white"/>
<path d="M197.906 27.6124C197.87 27.6124 197.834 27.6022 197.801 27.58C195.636 26.1257 193.105 25.3568 190.481 25.3568C189.33 25.3568 188.187 25.5052 187.085 25.7984C186.985 25.8257 186.881 25.766 186.854 25.6654C186.827 25.5648 186.887 25.4625 186.988 25.4353C188.121 25.1335 189.296 24.9809 190.481 24.9809C193.18 24.9809 195.785 25.772 198.012 27.268C198.098 27.326 198.121 27.4428 198.062 27.5289C198.026 27.5826 197.966 27.6116 197.906 27.6116L197.906 27.6124Z" fill="white"/>
<path d="M201.817 59.4356C201.713 59.4356 201.629 59.3512 201.629 59.2481V54.0992C201.629 53.9952 201.714 53.9117 201.817 53.9117C201.921 53.9117 202.006 53.9961 202.006 54.0992V59.2481C202.006 59.3521 201.921 59.4356 201.817 59.4356Z" fill="black"/>
<path d="M199.095 61.1269C198.99 61.1269 198.906 61.0425 198.906 60.9394V57.4818C198.906 57.3778 198.991 57.2943 199.095 57.2943C199.198 57.2943 199.283 57.3787 199.283 57.4818V60.9394C199.283 61.0434 199.198 61.1269 199.095 61.1269Z" fill="black"/>
<path d="M196.032 62.4806C195.928 62.4806 195.844 62.3962 195.844 62.2931V58.8355C195.844 58.7315 195.929 58.6479 196.032 58.6479C196.136 58.6479 196.221 58.7323 196.221 58.8355V62.2931C196.221 62.3971 196.136 62.4806 196.032 62.4806Z" fill="black"/>
<path d="M187.024 37.7107C186.954 37.7107 186.887 37.6723 186.855 37.6059C186.583 37.0543 186.445 36.4602 186.445 35.8421C186.445 33.6283 188.256 31.8279 190.483 31.8279C192.043 31.8279 193.479 32.7366 194.141 34.1423C194.186 34.2361 194.145 34.3478 194.051 34.3921C193.956 34.4364 193.844 34.3955 193.8 34.3017C193.2 33.0273 191.898 32.203 190.483 32.203C188.464 32.203 186.823 33.8354 186.823 35.8413C186.823 36.4022 186.948 36.9401 187.194 37.4396C187.239 37.5326 187.201 37.6451 187.107 37.6911C187.081 37.7039 187.053 37.7099 187.024 37.7099V37.7107Z" fill="white"/>
<path d="M190.479 45.1646C189.301 45.1646 188.185 44.6549 187.417 43.7658C187.349 43.6873 187.358 43.5688 187.436 43.5006C187.515 43.4333 187.634 43.4418 187.703 43.5203C188.399 44.3258 189.412 44.7879 190.479 44.7879C192.497 44.7879 194.139 43.1554 194.139 41.1496C194.139 40.5571 193.992 39.9698 193.716 39.4498C193.667 39.3577 193.702 39.2443 193.794 39.1957C193.887 39.1471 194.001 39.1821 194.05 39.2742C194.355 39.8479 194.517 40.4966 194.517 41.1496C194.517 43.3634 192.706 45.1638 190.479 45.1638V45.1646Z" fill="white"/>
<path d="M190.301 47.9113C190.199 47.9113 190.115 47.8303 190.112 47.728L190.043 44.9814C190.04 44.8774 190.123 44.7913 190.227 44.7887H190.232C190.334 44.7887 190.418 44.8697 190.421 44.972L190.49 47.7186C190.493 47.8226 190.411 47.9087 190.306 47.9113H190.301Z" fill="white"/>
<path d="M190.483 32.203C190.383 32.203 190.3 32.1254 190.294 32.0257L190.114 28.7522C190.108 28.6482 190.187 28.5604 190.292 28.5544C190.391 28.5442 190.485 28.6277 190.491 28.7317L190.671 32.0052C190.677 32.1092 190.598 32.197 190.493 32.203C190.49 32.203 190.486 32.203 190.483 32.203Z" fill="white"/>
<path d="M192.47 38.8402C192.458 38.8402 192.445 38.8393 192.432 38.8368L188.257 38.0005C188.155 37.98 188.089 37.8812 188.109 37.7797C188.13 37.6783 188.23 37.6118 188.331 37.6322L192.506 38.4685C192.608 38.489 192.674 38.5878 192.654 38.6893C192.636 38.7788 192.558 38.8402 192.469 38.8402H192.47Z" fill="white"/>
<rect x="167" y="74" width="27" height="6" fill="#436FD0"/>
<rect x="167" y="85" width="27" height="6" fill="#436FD0"/>
<rect x="167" y="96" width="27" height="6" fill="#436FD0"/>
<rect x="196" y="74" width="27" height="6" fill="#1D4CB5"/>
<rect x="196" y="85" width="27" height="6" fill="#1D4CB5"/>
<rect x="196" y="96" width="27" height="6" fill="#1D4CB5"/>
<rect x="225" y="74" width="27" height="6" fill="#1D4CB5"/>
<rect x="225" y="85" width="27" height="6" fill="#1D4CB5"/>
<rect x="225" y="96" width="27" height="6" fill="#1D4CB5"/>
</g>
<defs>
<clipPath id="clip0_2007_6704">
<rect width="260" height="156" fill="white"/>
</clipPath>
</defs>
</svg>
