<svg width="240" height="176" viewBox="0 0 240 176" fill="none" xmlns="http://www.w3.org/2000/svg">
<g opacity="0.6">
<path d="M165.919 155.643C166.102 155.85 166.266 156.074 166.407 156.312H162.826C162.331 156.082 161.828 155.859 161.317 155.643C161.19 155.589 161.063 155.536 160.934 155.482C160.51 155.306 160.027 155.068 160.073 154.742C160.113 154.468 160.526 154.283 160.925 154.19C162.627 153.788 164.624 154.381 165.642 155.355C165.741 155.449 165.832 155.545 165.919 155.643V155.643Z" fill="#E6E6E6"/>
<path d="M168.081 156.218C168.061 156.24 168.043 156.26 168.025 156.283C167.956 156.365 167.891 156.45 167.833 156.535C167.757 156.645 167.689 156.762 167.633 156.884C167.597 156.765 167.554 156.648 167.504 156.535C167.464 156.438 167.418 156.345 167.368 156.254C166.951 155.55 166.41 154.927 165.77 154.418C164.876 153.662 163.833 152.987 162.882 152.26C162.47 151.946 162.055 151.518 162.34 151.148C162.577 150.841 163.183 150.75 163.713 150.743C165.717 150.709 167.711 151.402 168.778 152.503C169.489 153.234 169.786 154.181 169.271 154.979C168.979 155.427 168.457 155.797 168.081 156.218H168.081Z" fill="#E6E6E6"/>
<path d="M176.306 156.312C176.242 156.26 176.177 156.209 176.11 156.16C175.844 155.964 175.561 155.791 175.265 155.643C174.533 155.275 173.729 155.069 172.91 155.039C171.943 155.02 170.984 155.226 170.111 155.643C169.975 155.705 169.843 155.772 169.719 155.841C169.484 155.972 169.256 156.114 169.037 156.269C169.017 156.283 168.997 156.296 168.977 156.312H176.306Z" fill="#E6E6E6"/>
<path d="M170.061 156.312H168.934C168.967 156.296 169.003 156.283 169.036 156.269C169.235 156.184 169.433 156.102 169.62 156.008C169.696 155.979 169.779 155.971 169.859 155.984C169.94 155.998 170.015 156.033 170.077 156.086C170.092 156.102 170.103 156.12 170.111 156.14C170.118 156.16 170.122 156.181 170.12 156.202C170.119 156.224 170.113 156.245 170.102 156.263C170.092 156.282 170.078 156.299 170.061 156.312Z" fill="#60C352"/>
<path d="M163.448 57.589L136.91 45.8474C136.545 45.687 136.132 45.6774 135.761 45.8206C135.39 45.9638 135.091 46.2483 134.928 46.6117L121.991 75.8512C121.83 76.2157 121.821 76.6288 121.965 77.0001C122.108 77.3715 122.393 77.6707 122.757 77.8323L149.296 89.5739C149.66 89.7343 150.073 89.744 150.444 89.6007C150.816 89.4575 151.115 89.173 151.277 88.8096L164.215 59.5701C164.375 59.2057 164.384 58.7925 164.241 58.4212C164.097 58.0499 163.812 57.7506 163.448 57.589Z" fill="#D6D6E3"/>
<path d="M136.568 46.6141C136.489 46.5786 136.403 46.5592 136.316 46.5569C136.229 46.5547 136.142 46.5696 136.061 46.6008C135.979 46.6321 135.905 46.679 135.842 46.7391C135.779 46.7991 135.728 46.8709 135.693 46.9505L122.755 76.19C122.685 76.3513 122.681 76.5338 122.744 76.6978C122.808 76.8618 122.934 76.994 123.094 77.0657L149.633 88.8073C149.713 88.8427 149.798 88.8621 149.885 88.8644C149.973 88.8666 150.059 88.8517 150.141 88.8204C150.222 88.7892 150.296 88.7422 150.359 88.6822C150.423 88.6222 150.473 88.5504 150.509 88.4708L163.447 59.2313C163.517 59.0701 163.521 58.8876 163.457 58.7236C163.393 58.5595 163.268 58.4273 163.107 58.3557L136.568 46.6141Z" fill="#F2F2F2"/>
<path d="M142.45 55.8391L136.586 53.2429L136.721 52.9372L142.586 55.5333L142.45 55.8391Z" fill="#D3D3D3"/>
<path d="M156.139 64.4029L135.656 55.3376L135.791 55.0319L156.275 64.0973L156.139 64.4029Z" fill="#D3D3D3"/>
<path d="M155.214 66.4976L134.73 57.4323L134.865 57.1266L155.349 66.192L155.214 66.4976Z" fill="#D3D3D3"/>
<path d="M135.447 71.6677L129.582 69.0716L129.717 68.7658L135.582 71.362L135.447 71.6677Z" fill="#D3D3D3"/>
<path d="M149.139 80.2315L128.656 71.1663L128.791 70.8605L149.275 79.9259L149.139 80.2315Z" fill="#D3D3D3"/>
<path d="M148.21 82.3264L127.727 73.2633L127.861 72.9576L148.345 82.0207L148.21 82.3264Z" fill="#D3D3D3"/>
<path d="M138.947 63.7522L133.082 61.1584L133.217 60.8527L139.082 63.4467L138.947 63.7522Z" fill="#D3D3D3"/>
<path d="M152.646 72.3162L132.16 63.2531L132.295 62.9474L152.781 72.0105L152.646 72.3162Z" fill="#D3D3D3"/>
<path d="M151.716 74.411L131.23 65.3479L131.365 65.0421L151.851 74.1052L151.716 74.411Z" fill="#D3D3D3"/>
<path d="M223.001 156.646C223.001 156.69 222.993 156.733 222.976 156.774C222.959 156.815 222.934 156.851 222.903 156.883C222.872 156.914 222.835 156.938 222.795 156.955C222.754 156.972 222.711 156.98 222.667 156.98H80.354C80.2666 156.978 80.1836 156.942 80.1226 156.88C80.0615 156.817 80.0273 156.733 80.0273 156.646C80.0273 156.559 80.0615 156.475 80.1226 156.412C80.1836 156.35 80.2666 156.314 80.354 156.312H222.667C222.711 156.312 222.754 156.32 222.795 156.337C222.836 156.354 222.872 156.378 222.903 156.41C222.934 156.441 222.959 156.477 222.976 156.518C222.993 156.559 223.001 156.602 223.001 156.646Z" fill="#F2F2F2"/>
<path d="M115.667 22.7591L113.02 23.1364L128.425 131.245L131.072 130.868L115.667 22.7591Z" fill="#090814"/>
<path d="M145.205 154.975H101.75V156.534H145.205V154.975Z" fill="#D6D6E3"/>
<path d="M122.877 104.642L109.979 156.459L108.473 156.057L121.371 104.244L122.877 104.642Z" fill="#D6D6E3"/>
<path d="M122.92 106.84C124.15 106.84 125.148 105.842 125.148 104.612C125.148 103.381 124.15 102.383 122.92 102.383C121.689 102.383 120.691 103.381 120.691 104.612C120.691 105.842 121.689 106.84 122.92 106.84Z" fill="#090814"/>
<path d="M190.911 34.2284C191.166 34.8471 191.264 35.5192 191.197 36.185L194.173 42.4693L191.037 43.871L188.355 37.346C187.851 36.911 187.463 36.3573 187.227 35.7348C186.614 34.186 186.941 32.5928 187.958 32.1787C188.975 31.7647 190.295 32.6823 190.908 34.2311L190.911 34.2284Z" fill="#ED9DA0"/>
<path d="M202.152 75.8886L186.418 41.2924L192.624 37.2145C192.624 37.2145 206.028 70.5766 206.34 72.1432C206.652 73.7099 202.153 75.887 202.153 75.887L202.152 75.8886Z" fill="#DADADA"/>
<path d="M205.597 54.3736H200.418V62.5898L206.125 60.7135L205.597 54.3736Z" fill="#ED9DA0"/>
<path d="M201.128 56.6464C204.269 56.6464 206.815 54.1003 206.815 50.9594C206.815 47.8186 204.269 45.2725 201.128 45.2725C197.988 45.2725 195.441 47.8186 195.441 50.9594C195.441 54.1003 197.988 56.6464 201.128 56.6464Z" fill="#ED9DA0"/>
<path d="M202.572 51.4008C205.485 50.1678 205.149 54.5921 205.149 54.5921L205.703 55.6464L208.152 50.9911C209.625 46.4763 204.475 43.8823 204.475 43.8823C202.797 41.9057 199.418 44.2187 199.418 44.2187C194.548 43.138 196.899 47.2427 196.899 47.2427C196.899 47.2427 198.56 47.2806 198.56 48.6244C198.56 49.9682 200.369 49.8753 200.369 49.8753L201.786 52.3578L202.571 51.4062V51.4017L202.572 51.4008Z" fill="#090814"/>
<path d="M207.842 145.987H203.176V152.608H207.842V145.987Z" fill="#ED9DA0"/>
<path d="M203.685 156.401C203.663 156.405 200.672 156.617 198.624 156.617C198.134 156.617 197.697 156.606 197.367 156.575C196.126 156.461 194.945 155.545 194.35 155.01C194.22 154.893 194.129 154.739 194.091 154.568C194.052 154.397 194.068 154.218 194.136 154.057C194.185 153.94 194.259 153.837 194.354 153.753C194.448 153.669 194.56 153.608 194.682 153.573L197.957 152.637L203.261 149.058L203.321 149.166C203.611 149.679 203.851 150.218 204.039 150.777C204.074 150.874 204.087 150.978 204.078 151.081C204.069 151.184 204.038 151.284 203.987 151.374C203.927 151.464 203.842 151.535 203.742 151.579C203.838 151.679 204.139 151.884 205.066 152.031C206.419 152.247 206.704 150.846 206.715 150.785L206.724 150.739L206.764 150.712C207.407 150.297 207.804 150.108 207.94 150.148C208.027 150.172 208.17 150.215 208.553 154.034C208.74 154.629 208.783 155.259 208.678 155.873C208.478 156.789 204.484 156.472 203.686 156.401H203.685Z" fill="#090814"/>
<path d="M195.234 101.398L201.755 147.44H208.672L208.958 102.807C211.329 95.3947 209.452 88.2816 209.452 88.2816L197.211 88.907L195.235 101.398L195.234 101.398Z" fill="#090814"/>
<path d="M199.277 59.1354L197.22 67.8977L194.633 88.9101L209.454 88.2846C209.454 88.2846 211.232 77.6149 212.235 71.8833C213.238 66.1517 205.996 55.571 205.996 55.571L199.276 59.1366L199.277 59.1354Z" fill="#DADADA"/>
<path d="M206.311 147.598L202.27 145.264L198.959 150.998L203 153.331L206.311 147.598Z" fill="#ED9DA0"/>
<path d="M200.369 156.401C200.346 156.405 197.356 156.617 195.308 156.617C194.818 156.617 194.381 156.606 194.051 156.575C192.81 156.461 191.629 155.545 191.034 155.01C190.903 154.893 190.813 154.739 190.774 154.568C190.736 154.397 190.752 154.218 190.819 154.057C190.868 153.94 190.943 153.837 191.037 153.753C191.132 153.669 191.244 153.608 191.365 153.573L194.641 152.637L199.945 149.058L200.005 149.166C200.295 149.679 200.535 150.218 200.722 150.777C200.757 150.874 200.771 150.978 200.762 151.081C200.753 151.184 200.722 151.284 200.671 151.374C200.611 151.464 200.525 151.535 200.426 151.579C200.522 151.679 200.823 151.884 201.75 152.031C203.102 152.247 203.387 150.846 203.399 150.785L203.407 150.739L203.448 150.712C204.091 150.297 204.488 150.108 204.624 150.148C204.711 150.172 204.854 150.215 205.237 154.034C205.424 154.629 205.467 155.259 205.362 155.873C205.161 156.789 201.168 156.472 200.37 156.401H200.368H200.369Z" fill="#090814"/>
<path d="M195.516 101.232L200.971 147.439H206.757L209.155 102.645C211.138 95.2069 209.569 88.0682 209.569 88.0682L197.169 88.6967L195.516 101.232Z" fill="#090814"/>
<path d="M188.937 100.563C189.147 99.9277 189.511 99.3543 189.996 98.8936L191.839 92.1883L195.128 93.1711L192.906 99.8675C193.004 100.526 192.936 101.198 192.709 101.824C192.163 103.4 190.877 104.391 189.837 104.044C188.796 103.696 188.393 102.136 188.939 100.563L188.937 100.563Z" fill="#ED9DA0"/>
<path d="M207.534 61.7051L196.929 98.0882L189.586 97.1322C189.586 97.1322 201.152 63.1972 201.934 61.8091C202.717 60.4209 207.536 61.7018 207.536 61.7018L207.534 61.7051Z" fill="#DADADA"/>
<path d="M187.589 33.1387H149.04C148.511 33.1393 148.003 33.3495 147.629 33.7233C147.255 34.0972 147.044 34.6042 147.043 35.1332V77.6073C147.044 78.1364 147.255 78.6436 147.629 79.0175C148.003 79.3915 148.51 79.6018 149.04 79.6023H187.589C188.118 79.6018 188.626 79.3916 189 79.0177C189.374 78.6439 189.585 78.1369 189.586 77.6079V35.1332C189.585 34.6042 189.374 34.0972 189 33.7233C188.626 33.3495 188.118 33.1393 187.589 33.1387Z" fill="#D6D6E3"/>
<path d="M149.043 34.2529C148.809 34.253 148.585 34.3457 148.419 34.5107C148.254 34.6757 148.161 34.8996 148.16 35.1332V77.6072C148.161 77.8408 148.254 78.0647 148.419 78.2297C148.585 78.3947 148.809 78.4874 149.043 78.4874H187.592C187.826 78.4874 188.05 78.3947 188.216 78.2297C188.381 78.0647 188.474 77.8408 188.475 77.6072V35.1332C188.474 34.8996 188.381 34.6757 188.216 34.5107C188.05 34.3457 187.826 34.253 187.592 34.2529H149.043Z" fill="#F2F2F2"/>
<path d="M161.147 42.2441H152.625V41.9098H161.147V42.2441Z" fill="#090814"/>
<path d="M182.381 45.2859H152.625V44.9516H182.381V45.2859Z" fill="#090814"/>
<path d="M182.381 48.3301H152.625V47.9958H182.381V48.3301Z" fill="#090814"/>
<path d="M161.147 65.2374H152.625V64.903H161.147V65.2374Z" fill="#090814"/>
<path d="M182.381 68.2814H152.625V67.947H182.381V68.2814Z" fill="#090814"/>
<path d="M182.381 71.3255H152.625V70.9911H182.381V71.3255Z" fill="#090814"/>
<path d="M161.147 53.7408H152.625V53.4064H161.147V53.7408Z" fill="#090814"/>
<path d="M182.381 56.7849H152.625V56.4506H182.381V56.7849Z" fill="#090814"/>
<path d="M182.381 59.8268H152.625V59.4924H182.381V59.8268Z" fill="#090814"/>
<path opacity="0.5" d="M204.907 73.0391L199.906 90.9469" stroke="black" stroke-width="0.178699" stroke-miterlimit="10"/>
<path d="M148.102 37.9813C150.933 37.9813 153.227 35.6866 153.227 32.8559C153.227 30.0252 150.933 27.7304 148.102 27.7304C145.271 27.7304 142.977 30.0252 142.977 32.8559C142.977 35.6866 145.271 37.9813 148.102 37.9813Z" fill="white"/>
<path fill-rule="evenodd" clip-rule="evenodd" d="M148.225 27.3469C147.059 27.3469 145.919 27.6928 144.949 28.3408C143.979 28.9887 143.223 29.9097 142.777 30.9873C142.331 32.0648 142.214 33.2505 142.441 34.3945C142.669 35.5384 143.231 36.5891 144.055 37.4139C144.88 38.2386 145.931 38.8002 147.075 39.0278C148.219 39.2553 149.404 39.1385 150.482 38.6922C151.559 38.2459 152.48 37.49 153.128 36.5202C153.776 35.5505 154.122 34.4103 154.122 33.244C154.122 32.4695 153.97 31.7026 153.674 30.9871C153.377 30.2716 152.943 29.6214 152.395 29.0738C151.848 28.5262 151.198 28.0918 150.482 27.7955C149.767 27.4992 149 27.3468 148.225 27.3469ZM150.591 31.4963C150.656 31.3999 150.681 31.2818 150.66 31.1675C150.639 31.0531 150.574 30.9515 150.479 30.8844C150.384 30.8174 150.266 30.7902 150.152 30.8088C150.037 30.8274 149.934 30.8902 149.865 30.9838L147.353 34.5537L146.317 33.4994C146.232 33.4229 146.122 33.3816 146.008 33.3838C145.894 33.386 145.786 33.4316 145.704 33.5113C145.623 33.5909 145.575 33.6987 145.571 33.8124C145.566 33.9262 145.605 34.0374 145.68 34.1234L147.09 35.5585C147.136 35.6049 147.192 35.6406 147.253 35.6632C147.314 35.6859 147.379 35.6948 147.444 35.6895C147.509 35.6842 147.572 35.6647 147.629 35.6325C147.686 35.6002 147.734 35.5559 147.772 35.5028L150.591 31.4963Z" fill="#403F47"/>
<path d="M65.9475 122.43V121.328C65.9477 120.516 66.2722 119.738 66.8497 119.164C67.4272 118.59 68.2104 118.268 69.027 118.268H112.835C113.651 118.268 114.434 118.59 115.012 119.164C115.589 119.738 115.914 120.516 115.914 121.328V123.361L65.9475 122.43Z" fill="#33323D"/>
<path d="M100.645 116.975C100.645 116.975 100.77 124.686 99.3951 127.223C98.0198 129.76 97.4302 140.798 97.4302 140.798C97.4302 140.798 83.0114 142.281 72.9636 139.023C62.9158 135.765 41.5357 134.432 41.5357 134.432L45.1386 110.294C45.1386 110.294 62.938 109.16 73.0636 113.96C83.1891 118.76 100.645 116.975 100.645 116.975Z" fill="#D6D6E3"/>
<path d="M97.4581 119.792C97.4581 119.792 97.9092 126.154 96.7775 128.187C95.6458 130.221 95.5932 139.296 95.5932 139.296C95.5932 139.296 82.6168 139.895 73.3862 136.772C64.1557 133.648 44.7583 131.623 44.7583 131.623L46.9628 111.883C46.9628 111.883 63.0125 111.718 72.3798 116.115C81.747 120.511 97.4581 119.792 97.4581 119.792Z" fill="#E6E6E6"/>
<path d="M79.5117 75.8369C79.5117 75.8369 78.0503 80.6063 76.6991 81.8966C75.348 83.1868 72.782 89.8625 72.782 89.8625C72.782 89.8625 63.6131 87.9312 58.0809 83.9434C52.5487 79.9556 39.6578 74.9211 39.6578 74.9211L46.6913 60.7806C46.6913 60.7806 57.8701 63.5929 63.1418 68.5432C68.4136 73.4934 79.5117 75.8369 79.5117 75.8369Z" fill="#D6D6E3"/>
<path d="M59.1643 31.2358C59.1643 31.2358 60.756 35.9634 60.4098 37.7993C60.0636 39.6351 61.8684 46.5556 61.8684 46.5556C61.8684 46.5556 53.2918 50.329 46.4721 50.312C39.6524 50.295 26.2427 53.7155 26.2427 53.7155L23.7185 38.1253C23.7185 38.1253 34.442 33.8967 41.6108 34.8476C48.7797 35.7985 59.1643 31.2358 59.1643 31.2358Z" fill="#D6D6E3"/>
<path d="M76.9883 76.9411C76.9883 76.9411 75.9957 80.9455 74.8934 81.9728C73.7912 83.0002 71.9485 88.5732 71.9485 88.5732C71.9485 88.5732 63.8451 86.3819 58.7886 82.6397C53.7321 78.8976 42.2 73.8314 42.2 73.8314L47.4955 62.1161C47.4955 62.1161 57.4034 65.1792 62.2901 69.7318C67.1768 74.2843 76.9883 76.9411 76.9883 76.9411Z" fill="#1E2328"/>
<path d="M57.76 33.6028C57.76 33.6028 59.2869 37.4354 58.9897 38.9126C58.6926 40.3898 60.4427 45.9926 60.4427 45.9926C60.4427 45.9926 52.5803 48.9339 46.2905 48.8393C40.0006 48.7448 27.6766 51.3477 27.6766 51.3477L25.1533 38.7412C25.1533 38.7412 34.99 35.457 41.6142 36.3091C48.2384 37.1611 57.76 33.6028 57.76 33.6028Z" fill="#1E2328"/>
<path d="M58.9762 80.2478C57.8857 79.7431 57.8846 77.4494 58.9737 75.1247C60.0628 72.8 61.8297 71.3246 62.9201 71.8293C64.0106 72.3341 64.0116 74.6278 62.9226 76.9525C61.8335 79.2771 60.0666 80.7525 58.9762 80.2478Z" fill="#D6D6E3"/>
<path d="M45.0439 46.7876C43.8636 47.0128 42.5261 45.1494 42.0565 42.6256C41.587 40.1017 42.1631 37.8732 43.3434 37.6479C44.5237 37.4227 45.8611 39.286 46.3307 41.8099C46.8003 44.3337 46.2242 46.5623 45.0439 46.7876Z" fill="#D6D6E3"/>
<path d="M64.7634 123.902V154.53C64.7636 155.232 65.0445 155.906 65.5443 156.402C66.0441 156.899 66.7218 157.178 67.4285 157.178H113.247C113.953 157.178 114.631 156.899 115.13 156.402C115.63 155.905 115.91 155.232 115.91 154.53V120.813C114.597 121.297 114.597 121.297 113.247 121.257H67.4288C66.7227 121.257 66.0454 121.536 65.5457 122.031C65.0459 122.527 64.7646 123.2 64.7634 123.902Z" fill="#7F7F7F"/>
<path d="M64.7622 134.964V144.761H74.3189C75.6256 144.761 76.8789 144.245 77.8029 143.326C78.727 142.408 79.2461 141.162 79.2461 139.863C79.2461 138.564 78.727 137.319 77.8029 136.4C76.8789 135.482 75.6256 134.966 74.3189 134.966L64.7622 134.964Z" fill="#33323D"/>
<path d="M73.7312 141.774C72.6702 141.774 71.8101 140.919 71.8101 139.864C71.8101 138.809 72.6702 137.954 73.7312 137.954C74.7922 137.954 75.6523 138.809 75.6523 139.864C75.6523 140.919 74.7922 141.774 73.7312 141.774Z" fill="#DADADA"/>
</g>
</svg>
