<svg width="240" height="176" viewBox="0 0 240 176" fill="none" xmlns="http://www.w3.org/2000/svg">
<g opacity="0.6">
<g clip-path="url(#clip0_2158_2840)">
<path d="M51.5215 30.2754H181.535L181.729 30.2852C182.178 30.3304 182.6 30.5302 182.922 30.8535C183.29 31.2231 183.497 31.7245 183.498 32.248V111.647L183.483 111.926C183.419 112.571 183.135 113.178 182.675 113.64C182.149 114.167 181.437 114.464 180.694 114.465H52.4053C51.6628 114.464 50.9505 114.167 50.4248 113.64C49.8991 113.112 49.6025 112.395 49.6016 111.647V32.2061L49.6113 32.0156C49.6554 31.5733 49.8498 31.1575 50.165 30.8408C50.4801 30.5244 50.8932 30.3295 51.332 30.2852L51.5215 30.2754Z" stroke="white"/>
<path d="M183.951 32.0161H49.0547V30.3273C49.056 29.4449 49.4057 28.599 50.0272 27.9752C50.6487 27.3515 51.4912 27.0008 52.3698 27H180.636C181.515 27.0008 182.357 27.3515 182.979 27.9752C183.6 28.599 183.95 29.4449 183.951 30.3273V32.0161Z" fill="#E6E6E6"/>
<path d="M55.0802 30.374C55.5537 30.374 55.9377 29.9885 55.9377 29.5129C55.9377 29.0373 55.5537 28.6517 55.0802 28.6517C54.6066 28.6517 54.2227 29.0373 54.2227 29.5129C54.2227 29.9885 54.6066 30.374 55.0802 30.374Z" fill="white"/>
<path d="M58.338 30.374C58.8116 30.374 59.1955 29.9885 59.1955 29.5129C59.1955 29.0373 58.8116 28.6517 58.338 28.6517C57.8644 28.6517 57.4805 29.0373 57.4805 29.5129C57.4805 29.9885 57.8644 30.374 58.338 30.374Z" fill="white"/>
<path d="M61.5919 30.374C62.0655 30.374 62.4494 29.9885 62.4494 29.5129C62.4494 29.0373 62.0655 28.6517 61.5919 28.6517C61.1183 28.6517 60.7344 29.0373 60.7344 29.5129C60.7344 29.9885 61.1183 30.374 61.5919 30.374Z" fill="white"/>
<path d="M162.855 98.6647H70.1986C69.2698 98.6636 68.3794 98.2925 67.7226 97.633C67.0659 96.9734 66.6964 96.0792 66.6953 95.1465V50.2835C66.6961 49.5859 66.9723 48.9171 67.4635 48.4238C67.9547 47.9305 68.6206 47.653 69.3153 47.6522H163.696C164.402 47.653 165.078 47.9349 165.577 48.4361C166.076 48.9373 166.357 49.6167 166.358 50.3255V95.1465C166.357 96.0793 165.987 96.9735 165.331 97.6331C164.674 98.2926 163.783 98.6636 162.855 98.6647ZM69.3153 48.0545C68.7268 48.0551 68.1626 48.2903 67.7464 48.7082C67.3303 49.1261 67.0963 49.6927 67.0956 50.2838V95.1465C67.0965 95.9727 67.4237 96.7648 68.0054 97.349C68.5872 97.9332 69.3759 98.2618 70.1986 98.2626H162.855C163.677 98.2615 164.466 97.9328 165.047 97.3486C165.629 96.7644 165.956 95.9725 165.956 95.1465V50.3257C165.956 49.7235 165.717 49.1462 165.293 48.7204C164.869 48.2946 164.294 48.0551 163.695 48.0545H69.3153Z" fill="#CCCCCC"/>
<path d="M73.4022 95.1465H159.652C160.501 95.1463 161.316 94.8073 161.916 94.2041C162.517 93.6009 162.854 92.7829 162.854 91.93V54.4262C162.854 53.5731 162.517 52.7549 161.916 52.1516C161.315 51.5484 160.5 51.2095 159.651 51.2095H73.4022C72.5527 51.2095 71.738 51.5485 71.1373 52.1517C70.5367 52.755 70.1992 53.5731 70.1992 54.4262V91.93C70.1993 92.783 70.5367 93.6011 71.1374 94.2043C71.7381 94.8075 72.5527 95.1464 73.4022 95.1465Z" fill="#F2F2F2"/>
<path d="M83.1962 62.1207C84.1912 62.1207 84.9978 61.3106 84.9978 60.3114C84.9978 59.3122 84.1912 58.5021 83.1962 58.5021C82.2011 58.5021 81.3945 59.3122 81.3945 60.3114C81.3945 61.3106 82.2011 62.1207 83.1962 62.1207Z" fill="#CCCCCC"/>
<path d="M83.1962 68.9559C84.1912 68.9559 84.9978 68.1459 84.9978 67.1467C84.9978 66.1474 84.1912 65.3374 83.1962 65.3374C82.2011 65.3374 81.3945 66.1474 81.3945 67.1467C81.3945 68.1459 82.2011 68.9559 83.1962 68.9559Z" fill="#CCCCCC"/>
<path d="M83.1962 75.7913C84.1912 75.7913 84.9978 74.9812 84.9978 73.982C84.9978 72.9828 84.1912 72.1727 83.1962 72.1727C82.2011 72.1727 81.3945 72.9828 81.3945 73.982C81.3945 74.9812 82.2011 75.7913 83.1962 75.7913Z" fill="#CCCCCC"/>
<path d="M83.1962 82.6268C84.1912 82.6268 84.9978 81.8167 84.9978 80.8175C84.9978 79.8183 84.1912 79.0082 83.1962 79.0082C82.2011 79.0082 81.3945 79.8183 81.3945 80.8175C81.3945 81.8167 82.2011 82.6268 83.1962 82.6268Z" fill="#CCCCCC"/>
<path d="M151.46 60.5124H92.2041C92.1778 60.5124 92.1518 60.5072 92.1275 60.4971C92.1032 60.487 92.0811 60.4722 92.0625 60.4535C92.0439 60.4349 92.0292 60.4127 92.0191 60.3883C92.0091 60.3639 92.0039 60.3378 92.0039 60.3114C92.0039 60.285 92.0091 60.2589 92.0191 60.2345C92.0292 60.2101 92.0439 60.1879 92.0625 60.1693C92.0811 60.1506 92.1032 60.1358 92.1275 60.1257C92.1518 60.1156 92.1778 60.1104 92.2041 60.1104H151.46C151.487 60.1104 151.513 60.1156 151.537 60.1257C151.561 60.1358 151.583 60.1506 151.602 60.1693C151.62 60.1879 151.635 60.2101 151.645 60.2345C151.655 60.2589 151.661 60.285 151.661 60.3114C151.661 60.3378 151.655 60.3639 151.645 60.3883C151.635 60.4127 151.62 60.4349 151.602 60.4535C151.583 60.4722 151.561 60.487 151.537 60.4971C151.513 60.5072 151.487 60.5124 151.46 60.5124Z" fill="#CCCCCC"/>
<path d="M151.46 67.3479H92.2041C92.151 67.3479 92.1001 67.3268 92.0625 67.2891C92.025 67.2514 92.0039 67.2002 92.0039 67.1469C92.0039 67.0936 92.025 67.0425 92.0625 67.0048C92.1001 66.9671 92.151 66.9459 92.2041 66.9459H151.46C151.513 66.9459 151.564 66.9671 151.602 67.0048C151.639 67.0425 151.661 67.0936 151.661 67.1469C151.661 67.2002 151.639 67.2514 151.602 67.2891C151.564 67.3268 151.513 67.3479 151.46 67.3479Z" fill="#CCCCCC"/>
<path d="M151.46 74.1832H92.2041C92.151 74.1832 92.1001 74.162 92.0625 74.1243C92.025 74.0866 92.0039 74.0355 92.0039 73.9822C92.0039 73.9289 92.025 73.8778 92.0625 73.8401C92.1001 73.8024 92.151 73.7812 92.2041 73.7812H151.46C151.513 73.7812 151.564 73.8024 151.602 73.8401C151.639 73.8778 151.661 73.9289 151.661 73.9822C151.661 74.0355 151.639 74.0866 151.602 74.1243C151.564 74.162 151.513 74.1832 151.46 74.1832Z" fill="#CCCCCC"/>
<path d="M151.46 81.0185H92.2041C92.151 81.0185 92.1001 80.9973 92.0625 80.9596C92.025 80.922 92.0039 80.8708 92.0039 80.8175C92.0039 80.7642 92.025 80.7131 92.0625 80.6754C92.1001 80.6377 92.151 80.6165 92.2041 80.6165H151.46C151.513 80.6165 151.564 80.6377 151.602 80.6754C151.639 80.7131 151.661 80.7642 151.661 80.8175C151.661 80.8708 151.639 80.922 151.602 80.9596C151.564 80.9973 151.513 81.0185 151.46 81.0185Z" fill="#CCCCCC"/>
<path d="M103.416 87.854H97.6104C97.345 87.8537 97.0905 87.7477 96.9029 87.5593C96.7152 87.3708 96.6097 87.1153 96.6094 86.8488V81.4205C96.6097 81.154 96.7152 80.8985 96.9029 80.71C97.0905 80.5216 97.345 80.4156 97.6104 80.4153H103.416C103.681 80.4156 103.936 80.5216 104.123 80.71C104.311 80.8985 104.417 81.154 104.417 81.4205V86.8488C104.417 87.1153 104.311 87.3708 104.123 87.5593C103.936 87.7477 103.681 87.8537 103.416 87.854Z" fill="#DADADA"/>
<path d="M116.428 87.854H110.622C110.357 87.8537 110.102 87.7477 109.915 87.5593C109.727 87.3708 109.621 87.1153 109.621 86.8488V74.5852C109.621 74.3187 109.727 74.0632 109.915 73.8747C110.102 73.6862 110.357 73.5802 110.622 73.58H116.428C116.693 73.5802 116.948 73.6862 117.135 73.8747C117.323 74.0632 117.428 74.3187 117.429 74.5852V86.8488C117.428 87.1153 117.323 87.3708 117.135 87.5593C116.948 87.7477 116.693 87.8537 116.428 87.854Z" fill="#DADADA"/>
<path d="M129.639 87.8538H123.833C123.568 87.8535 123.313 87.7475 123.126 87.559C122.938 87.3706 122.832 87.1151 122.832 86.8485V67.7497C122.832 67.4832 122.938 67.2277 123.126 67.0392C123.313 66.8507 123.568 66.7447 123.833 66.7444H129.639C129.904 66.7447 130.158 66.8507 130.346 67.0392C130.534 67.2277 130.639 67.4832 130.64 67.7497V86.8485C130.639 87.1151 130.534 87.3706 130.346 87.559C130.158 87.7475 129.904 87.8535 129.639 87.8538Z" fill="#DADADA"/>
<path d="M143.252 87.8538H137.446C137.181 87.8535 136.926 87.7475 136.739 87.5591C136.551 87.3706 136.446 87.1151 136.445 86.8486V61.1154C136.446 60.8489 136.551 60.5934 136.739 60.4049C136.926 60.2165 137.181 60.1105 137.446 60.1102H143.252C143.517 60.1105 143.772 60.2165 143.959 60.4049C144.147 60.5934 144.253 60.8489 144.253 61.1154V86.8486C144.253 87.1151 144.147 87.3706 143.959 87.5591C143.772 87.7475 143.517 87.8535 143.252 87.8538Z" fill="#DADADA"/>
<path d="M151.46 87.854H92.2041C92.151 87.854 92.1001 87.8329 92.0625 87.7952C92.025 87.7575 92.0039 87.7063 92.0039 87.653C92.0039 87.5997 92.025 87.5486 92.0625 87.5109C92.1001 87.4732 92.151 87.452 92.2041 87.452H151.46C151.513 87.452 151.564 87.4732 151.602 87.5109C151.639 87.5486 151.661 87.5997 151.661 87.653C151.661 87.7063 151.639 87.7575 151.602 87.7952C151.564 87.8329 151.513 87.854 151.46 87.854Z" fill="#3F3D56"/>
<path d="M135.312 158.416H97.2744C97.2213 158.416 97.1704 158.395 97.1328 158.357C97.0953 158.32 97.0742 158.269 97.0742 158.215C97.0742 158.162 97.0953 158.111 97.1328 158.073C97.1704 158.035 97.2213 158.014 97.2744 158.014H135.312C135.365 158.014 135.416 158.035 135.453 158.073C135.491 158.111 135.512 158.162 135.512 158.215C135.512 158.269 135.491 158.32 135.453 158.357C135.416 158.395 135.365 158.416 135.312 158.416Z" fill="#CCCCCC"/>
<path d="M56.2375 158.416H18.2002C18.1471 158.416 18.0962 158.395 18.0586 158.357C18.0211 158.32 18 158.269 18 158.215C18 158.162 18.0211 158.111 18.0586 158.073C18.0962 158.035 18.1471 158.014 18.2002 158.014H56.2375C56.2906 158.014 56.3415 158.035 56.379 158.073C56.4166 158.111 56.4377 158.162 56.4377 158.215C56.4377 158.269 56.4166 158.32 56.379 158.357C56.3415 158.395 56.2906 158.416 56.2375 158.416Z" fill="#CCCCCC"/>
<path d="M188.068 141.733L157.279 130.965C156.751 130.779 156.317 130.391 156.074 129.885C155.83 129.379 155.797 128.796 155.98 128.265L163.981 105.194C164.116 104.806 164.399 104.487 164.768 104.308C165.138 104.128 165.562 104.104 165.95 104.239L197.779 115.371C198.173 115.509 198.496 115.798 198.677 116.175C198.859 116.552 198.884 116.986 198.747 117.382L190.755 140.428C190.571 140.958 190.184 141.394 189.68 141.638C189.176 141.883 188.596 141.917 188.068 141.733Z" fill="#E6E6E6"/>
<path d="M159.905 129.639L186.827 139.054C187.081 139.143 187.35 139.181 187.618 139.165C187.887 139.15 188.149 139.081 188.391 138.964C188.633 138.846 188.85 138.682 189.029 138.481C189.208 138.279 189.345 138.044 189.434 137.789L195.894 119.161C195.983 118.906 196.02 118.636 196.005 118.366C195.989 118.097 195.921 117.833 195.804 117.59C195.687 117.347 195.523 117.129 195.323 116.95C195.122 116.77 194.888 116.632 194.634 116.543L167.712 107.126C167.458 107.038 167.189 107 166.921 107.015C166.653 107.031 166.39 107.099 166.148 107.217C165.906 107.334 165.689 107.499 165.51 107.7C165.332 107.902 165.194 108.137 165.106 108.392L158.645 127.02C158.557 127.275 158.519 127.545 158.535 127.815C158.55 128.084 158.618 128.348 158.735 128.591C158.852 128.834 159.016 129.051 159.216 129.231C159.417 129.411 159.651 129.549 159.905 129.638V129.639Z" fill="white"/>
<path d="M166.665 116.55L165.331 116.083C165.258 116.058 165.199 116.005 165.166 115.936C165.132 115.866 165.128 115.787 165.153 115.714L165.617 114.374C165.642 114.301 165.695 114.242 165.764 114.208C165.833 114.175 165.912 114.17 165.985 114.195L167.319 114.662C167.391 114.687 167.451 114.74 167.484 114.809C167.517 114.879 167.522 114.958 167.497 115.031L167.033 116.371C167.007 116.444 166.954 116.503 166.886 116.537C166.817 116.57 166.737 116.575 166.665 116.55Z" fill="#DADADA"/>
<path d="M165.462 120.019L164.127 119.552C164.055 119.527 163.996 119.474 163.962 119.405C163.929 119.336 163.924 119.256 163.95 119.183L164.414 117.843C164.439 117.771 164.492 117.711 164.561 117.678C164.63 117.644 164.709 117.639 164.782 117.665L166.116 118.131C166.188 118.156 166.248 118.209 166.281 118.279C166.314 118.348 166.319 118.428 166.294 118.5L165.829 119.84C165.804 119.913 165.751 119.972 165.682 120.006C165.613 120.039 165.534 120.044 165.462 120.019Z" fill="#3F3D56"/>
<path d="M164.259 123.488L162.924 123.022C162.852 122.996 162.793 122.943 162.759 122.874C162.726 122.805 162.721 122.725 162.746 122.652L163.211 121.312C163.236 121.24 163.289 121.18 163.358 121.147C163.427 121.113 163.506 121.109 163.579 121.134L164.913 121.6C164.985 121.626 165.045 121.679 165.078 121.748C165.111 121.817 165.116 121.897 165.091 121.969L164.626 123.31C164.601 123.382 164.548 123.442 164.479 123.475C164.41 123.509 164.331 123.513 164.259 123.488Z" fill="#CCCCCC"/>
<path d="M175.626 118.933L169.202 116.686C169.129 116.66 169.07 116.607 169.037 116.538C169.003 116.469 168.999 116.389 169.024 116.316C169.049 116.244 169.102 116.184 169.171 116.151C169.24 116.117 169.319 116.113 169.392 116.138L175.816 118.384C175.889 118.41 175.948 118.463 175.981 118.532C176.015 118.601 176.019 118.681 175.994 118.754C175.969 118.826 175.916 118.886 175.847 118.92C175.778 118.953 175.699 118.958 175.626 118.932L175.626 118.933Z" fill="#CCCCCC"/>
<path d="M174.423 122.402L167.999 120.155C167.926 120.13 167.867 120.076 167.834 120.007C167.8 119.938 167.796 119.858 167.821 119.786C167.846 119.713 167.899 119.653 167.968 119.62C168.037 119.586 168.116 119.582 168.188 119.607L174.613 121.854C174.649 121.866 174.682 121.885 174.711 121.911C174.74 121.936 174.764 121.967 174.78 122.001C174.797 122.035 174.807 122.073 174.809 122.111C174.812 122.15 174.807 122.188 174.794 122.224C174.781 122.261 174.762 122.294 174.736 122.322C174.711 122.351 174.68 122.374 174.645 122.391C174.611 122.407 174.573 122.417 174.535 122.419C174.497 122.42 174.459 122.415 174.423 122.402Z" fill="#CCCCCC"/>
<path d="M173.219 125.871L166.795 123.624C166.759 123.612 166.725 123.593 166.696 123.567C166.668 123.542 166.644 123.511 166.627 123.477C166.61 123.442 166.601 123.405 166.598 123.367C166.596 123.328 166.601 123.29 166.614 123.254C166.626 123.217 166.646 123.184 166.671 123.155C166.697 123.127 166.728 123.104 166.762 123.087C166.797 123.071 166.834 123.061 166.873 123.059C166.911 123.058 166.949 123.063 166.985 123.076L173.409 125.323C173.445 125.335 173.479 125.355 173.508 125.38C173.536 125.405 173.56 125.436 173.577 125.47C173.594 125.505 173.603 125.542 173.606 125.581C173.608 125.619 173.603 125.657 173.59 125.694C173.578 125.73 173.558 125.763 173.533 125.792C173.507 125.82 173.476 125.844 173.442 125.86C173.407 125.877 173.37 125.886 173.331 125.888C173.293 125.89 173.255 125.884 173.219 125.871Z" fill="#CCCCCC"/>
<path d="M190.312 127.75C190.359 127.638 190.403 127.523 190.444 127.406C190.705 126.652 190.816 125.854 190.77 125.057C190.725 124.26 190.523 123.48 190.177 122.761C189.831 122.042 189.347 121.399 188.753 120.868C188.16 120.337 187.468 119.928 186.717 119.666L184.605 125.755L190.312 127.75Z" fill="#DADADA"/>
<path d="M183.996 126.125L186.107 120.036C184.991 119.646 183.786 119.592 182.64 119.882C181.494 120.171 180.457 120.791 179.658 121.665C178.859 122.539 178.331 123.628 178.141 124.8C177.951 125.971 178.107 127.172 178.589 128.256C179.07 129.34 179.857 130.258 180.853 130.898C181.848 131.537 183.008 131.87 184.189 131.856C185.371 131.842 186.522 131.48 187.502 130.817C188.482 130.153 189.246 129.216 189.702 128.121L183.996 126.125Z" fill="#3F3D56"/>
<path d="M227.8 158.416H189.763C189.71 158.416 189.659 158.395 189.621 158.357C189.584 158.32 189.562 158.269 189.562 158.215C189.562 158.162 189.584 158.111 189.621 158.073C189.659 158.035 189.71 158.014 189.763 158.014H227.8C227.853 158.014 227.904 158.035 227.942 158.073C227.979 158.111 228 158.162 228 158.215C228 158.269 227.979 158.32 227.942 158.357C227.904 158.395 227.853 158.416 227.8 158.416Z" fill="#CCCCCC"/>
<path d="M204.408 153.179H201.82V155.907H204.408V153.179Z" fill="#ED9DA0"/>
<path d="M203.948 158.388H198.175C197.678 158.388 197.188 158.275 196.74 158.06L195.675 157.546C195.557 157.49 195.46 157.398 195.396 157.285C195.332 157.171 195.303 157.041 195.315 156.911C195.327 156.781 195.377 156.657 195.461 156.557C195.544 156.456 195.656 156.384 195.781 156.349L197.977 155.739L201.734 153.756L201.737 153.77C201.807 154.128 201.916 154.667 201.93 154.7C202.315 155.144 202.711 155.348 203.106 155.307C203.796 155.237 204.254 154.438 204.259 154.429L204.262 154.423H204.269C204.339 154.425 204.407 154.444 204.469 154.478C204.53 154.512 204.583 154.559 204.624 154.617C204.723 154.823 204.739 155.059 204.669 155.277C204.858 155.462 204.943 156.495 204.949 156.579C205.066 156.683 205.161 156.811 205.227 156.953C205.294 157.096 205.33 157.251 205.334 157.408C205.32 157.533 205.279 157.653 205.215 157.761C205.151 157.869 205.065 157.962 204.962 158.034C204.674 158.265 204.317 158.389 203.949 158.388L203.948 158.388Z" fill="#090814"/>
<path d="M189.118 114.321C189.308 114.37 189.507 114.376 189.7 114.339C189.893 114.302 190.076 114.223 190.235 114.108C190.395 113.992 190.527 113.843 190.623 113.671C190.719 113.498 190.776 113.307 190.79 113.11L195.405 111.869L193.549 110.214L189.451 111.646C189.12 111.644 188.8 111.763 188.551 111.983C188.302 112.202 188.141 112.505 188.1 112.835C188.059 113.165 188.14 113.499 188.328 113.773C188.516 114.047 188.797 114.242 189.119 114.322L189.118 114.321Z" fill="#ED9DA0"/>
<path d="M192.499 113.621C192.596 113.674 192.703 113.706 192.813 113.714C192.923 113.723 193.034 113.709 193.138 113.672L200.729 110.778C202.581 110.119 204.132 108.806 205.092 107.084L208.258 101.413C208.482 101.165 208.655 100.874 208.767 100.557C208.879 100.241 208.927 99.9055 208.91 99.5703C208.892 99.235 208.808 98.9067 208.664 98.604C208.519 98.3014 208.316 98.0305 208.067 97.807C207.817 97.5834 207.526 97.4116 207.21 97.3015C206.895 97.1914 206.56 97.1451 206.227 97.1653C205.893 97.1855 205.567 97.2719 205.266 97.4193C204.966 97.5668 204.698 97.7725 204.477 98.0245L198.998 106.746L192.102 110.806C191.967 110.895 191.863 111.023 191.803 111.174C191.742 111.325 191.73 111.49 191.767 111.648L192.11 113.108C192.135 113.216 192.183 113.317 192.25 113.405C192.317 113.493 192.402 113.566 192.499 113.619L192.499 113.621Z" fill="#E6E6E6"/>
<path d="M205.91 91.3313L203.195 92.0918L203.955 94.8462L207.416 94.2735L205.91 91.3313Z" fill="#ED9DA0"/>
<path d="M220.319 153.339L222.297 151.843L220.733 149.758L218.755 151.254L220.319 153.339Z" fill="#ED9DA0"/>
<path d="M223.362 154.007L218.949 157.346C218.57 157.633 218.131 157.83 217.666 157.924L216.557 158.147C216.435 158.171 216.309 158.157 216.195 158.107C216.081 158.058 215.985 157.974 215.919 157.868C215.854 157.762 215.822 157.639 215.828 157.514C215.833 157.39 215.877 157.27 215.952 157.171L217.28 155.434L219.013 151.746L219.024 151.756C219.283 151.988 219.675 152.338 219.704 152.355C220.253 152.47 220.673 152.398 220.951 152.139C221.438 151.687 221.33 150.81 221.329 150.802L221.328 150.795L221.333 150.791C221.388 150.753 221.452 150.728 221.518 150.718C221.584 150.708 221.652 150.714 221.716 150.734C221.909 150.835 222.057 151.006 222.129 151.212C222.379 151.244 223.036 151.985 223.09 152.046C223.24 152.058 223.385 152.1 223.518 152.171C223.65 152.242 223.767 152.339 223.86 152.457C223.921 152.561 223.959 152.677 223.972 152.796C223.985 152.916 223.972 153.037 223.935 153.152C223.847 153.494 223.645 153.796 223.363 154.007L223.362 154.007Z" fill="#090814"/>
<path d="M212.508 101.664C212.508 101.664 213.667 100.773 213.667 102.951L213.85 110.149L211.807 116.949L210.617 114.744L211.105 109.965L212.508 101.664Z" fill="#E6E6E6"/>
<path d="M200.109 121.353C200.109 121.353 198.765 127.926 200.468 133.321L201.385 153.402L204.857 153.792L206.067 138.405L207.232 130.756L209.651 137.73L217.626 152.487L221.299 149.607C221.299 149.607 217.229 138.451 214.221 136.11L212.712 118.857L200.109 121.353Z" fill="#090814"/>
<path d="M207.645 87.588C206.602 85.6742 204.212 84.972 202.306 86.0194C200.401 87.0669 199.701 89.4674 200.744 91.3812C201.787 93.295 204.178 93.9972 206.083 92.9498C207.989 91.9023 208.688 89.5018 207.645 87.588Z" fill="#ED9DA0"/>
<path d="M204.476 90.3232C204.004 90.3847 203.649 89.8997 203.484 89.4524C203.319 89.0052 203.193 88.4832 202.784 88.2413C202.224 87.9118 201.507 88.3083 200.866 88.1994C200.143 88.0759 199.673 87.3064 199.636 86.5707C199.599 85.835 199.891 85.1272 200.177 84.4488L200.276 85.2919C200.263 85.0062 200.323 84.7218 200.45 84.466C200.578 84.2101 200.768 83.9914 201.004 83.8306L200.875 85.0679C200.903 84.8972 200.963 84.7337 201.054 84.5867C201.144 84.4397 201.263 84.312 201.403 84.2111C201.542 84.1102 201.701 84.038 201.868 83.9987C202.036 83.9593 202.209 83.9536 202.379 83.9818L202.359 84.7188C203.191 84.5901 204.034 84.5487 204.875 84.5953C205.721 84.6444 206.531 84.9578 207.192 85.4916C208.141 86.3213 208.488 87.6855 208.373 88.9445C208.257 90.2035 207.738 91.3849 207.2 92.5277C207.064 92.815 206.877 93.1393 206.563 93.1758C206.42 93.1778 206.281 93.1321 206.167 93.0458C206.053 92.9595 205.971 92.8376 205.934 92.6993C205.866 92.4206 205.869 92.1294 205.941 91.852C206.053 91.4342 206.088 90.9997 206.047 90.5693C205.972 90.144 205.667 89.7244 205.241 89.6721C204.814 89.6198 204.378 90.1099 204.583 90.4891L204.476 90.3232Z" fill="#090814"/>
<path d="M207.963 94.3126L207.14 93.1643C207.14 93.1643 206.219 93.4784 203.754 94.7108L203.579 95.7873L199.301 122.218C199.301 122.218 203.578 121.984 207.079 121.88C210.58 121.776 213.305 121.801 213.305 121.801L212.843 114.161L212.172 108.341L213.209 102.859C213.209 102.859 214.514 97.8235 209.488 95.1096L207.963 94.3126Z" fill="#E6E6E6"/>
<path d="M22.0352 155.326L24.9272 155.753L28.0589 147.048L24.6497 145.196L22.0352 155.326Z" fill="#9F616A"/>
<path d="M31.9519 156.723C32.0045 157.001 32.0104 157.285 31.9691 157.565C31.9502 157.694 31.906 157.819 31.8392 157.931C31.7723 158.043 31.6841 158.141 31.5796 158.219C31.475 158.297 31.3562 158.354 31.2298 158.386C31.1035 158.418 30.9721 158.425 30.8432 158.406L21.8867 157.083C21.7092 157.057 21.5493 156.961 21.4422 156.816C21.3352 156.671 21.2897 156.49 21.3158 156.312L21.3707 155.938C21.3707 155.938 21.0922 154.747 22.2079 153.495C22.2079 153.495 23.4622 154.946 25.4055 153.495L26.0502 152.636L28.9865 155.652L30.9552 156.196C31.386 156.315 31.7839 156.31 31.9536 156.724L31.9519 156.723Z" fill="#090814"/>
<path d="M44.7389 156.648H47.6767L49.0743 145.267H44.7383L44.7389 156.648Z" fill="#9F616A"/>
<path d="M54.8049 156.581C54.8978 156.849 54.9451 157.132 54.9447 157.416C54.9447 157.681 54.8397 157.936 54.6527 158.124C54.4657 158.312 54.2121 158.417 53.9476 158.417H44.8481C44.6677 158.417 44.4946 158.345 44.367 158.217C44.2394 158.089 44.1678 157.915 44.1678 157.734V157.354C44.1678 157.354 43.718 156.211 44.6442 154.801C44.6442 154.801 45.7959 155.905 47.5164 154.176L48.0239 153.253L51.6974 155.951L53.7335 156.203C54.1791 156.258 54.5739 156.194 54.8032 156.582L54.8049 156.581Z" fill="#090814"/>
<path d="M37.6289 91.5565C37.6289 91.5565 40.4272 89.6809 41.2438 90.9249C42.0603 92.169 41.7593 96.6249 41.7593 96.6249L37.6289 95.6309V91.5565Z" fill="#9F616A"/>
<path d="M31.0063 118.905C31.0063 118.905 30.1029 129.814 29.9089 132.152C29.7759 133.617 29.4498 135.058 28.9392 136.437C28.707 136.925 28.5751 137.455 28.5513 137.995C28.5513 137.995 26.0674 142.186 24.5044 145.253C23.5561 147.126 22.8798 149.126 22.4961 151.192C22.4961 151.192 26.3426 151.904 26.9253 151.709C27.5081 151.515 28.2575 147.271 34.7588 136.632L39.4142 126.892C39.4142 126.892 42.1307 135.657 42.7119 136.632C42.7119 136.632 43.7273 151.024 44.1152 151.998C44.503 152.972 49.3824 151.709 49.3824 151.709L48.5324 137.021L46.7865 120.463L37.8637 117.735L31.0063 118.905Z" fill="#090814"/>
<path d="M47.1729 98.8408L42.3237 95.8906C42.3237 95.8906 42.1891 94.0584 40.8077 93.9721C40.1141 93.9282 39.0733 93.8623 37.511 93.7614C37.1809 93.7395 36.9573 95.5538 36.5797 95.5292L31.461 96.8927L32.2369 110.139C32.2369 110.139 31.0729 115.399 31.461 116.373C31.8491 117.347 30.491 117.736 30.8791 117.931C31.2672 118.126 30.8791 119.49 30.8791 119.49C30.8791 119.49 38.4441 123.386 46.7851 120.464L46.009 117.931C46.2238 117.258 45.8149 112.087 44.6512 108.581L45.2331 107.217L47.1729 98.8408Z" fill="#E6E6E6"/>
<path d="M47.1023 105.476C47.1023 105.476 45.3565 112.878 47.4902 112.878C49.6238 112.878 54.6671 104.502 54.6671 104.502L52.9222 102.359L49.7888 106.728L49.6247 104.502L47.1023 105.476Z" fill="#ED9DA0"/>
<path d="M54.2023 104.824C55.1403 104.824 55.9007 104.06 55.9007 103.118C55.9007 102.176 55.1403 101.413 54.2023 101.413C53.2643 101.413 52.5039 102.176 52.5039 103.118C52.5039 104.06 53.2643 104.824 54.2023 104.824Z" fill="#9F616A"/>
<path d="M39.7413 93.2632C41.991 93.2632 43.8147 91.4317 43.8147 89.1725C43.8147 86.9133 41.991 85.0819 39.7413 85.0819C37.4917 85.0819 35.668 86.9133 35.668 89.1725C35.668 91.4317 37.4917 93.2632 39.7413 93.2632Z" fill="#9F616A"/>
<path d="M36.3189 91.4102L36.0848 91.1712C36.07 91.1365 34.4772 87.6656 35.7733 85.5241C36.3731 84.5338 37.4638 83.9736 39.0152 83.8612C41.4433 83.6854 43.1036 84.2629 43.9541 85.5786C44.0966 85.8015 44.1767 86.0589 44.1859 86.3236C44.1951 86.5883 44.1332 86.8506 44.0066 87.083C43.8799 87.3154 43.6934 87.5092 43.4664 87.6442C43.2394 87.7791 42.9804 87.8502 42.7167 87.8499H42.6841L42.238 87.2684L42.212 87.3251C42.1246 87.5007 41.9839 87.6439 41.8101 87.734C41.6363 87.824 41.4386 87.8562 41.2454 87.8259C41.1714 87.8204 41.106 87.8846 41.0535 88.0216C41.0359 88.0816 41.0025 88.1358 40.9569 88.1783C40.9112 88.2208 40.855 88.2502 40.7941 88.2633C40.4732 88.3261 40.0155 87.9202 39.811 87.7176C39.8031 87.7641 39.7853 87.8083 39.7589 87.8472C39.7324 87.8862 39.698 87.919 39.6579 87.9434C39.4422 88.0684 39.1062 87.9052 39.0099 87.8532C38.2421 88.017 37.7449 87.9733 37.5323 87.7231C37.3879 88.7483 37.0782 90.5952 36.7067 90.6976C36.668 90.7066 36.6274 90.703 36.5909 90.6872C36.5544 90.6714 36.5239 90.6442 36.5039 90.6097C36.4145 90.493 36.3346 90.4339 36.2852 90.4513C36.164 90.49 36.2235 90.8907 36.2134 91.1475L36.3189 91.4102Z" fill="#090814"/>
<path d="M45.0388 99.0359L46.9739 98.7202C48.3678 100.065 49.3173 101.807 49.6943 103.712C50.254 106.71 49.731 106.647 49.6943 106.693C48.7243 107.91 45.8145 108.582 45.8145 108.582L43.293 103.712L45.0388 99.0359Z" fill="#E6E6E6"/>
<path d="M28.5515 104.295C28.5515 104.295 26.8057 111.697 28.9394 111.697C31.0731 111.697 36.1163 103.321 36.1163 103.321L34.3714 101.178L32.6885 103.524L31.2378 105.547L31.0737 103.32L28.5515 104.295Z" fill="#9F616A"/>
<path d="M35.6515 103.643C36.5895 103.643 37.3499 102.88 37.3499 101.938C37.3499 100.996 36.5895 100.232 35.6515 100.232C34.7135 100.232 33.9531 100.996 33.9531 101.938C33.9531 102.88 34.7135 103.643 35.6515 103.643Z" fill="#9F616A"/>
<path d="M32.8768 98.0619L31.7128 96.8929C31.7128 96.8929 29.3851 98.2565 29.1913 99.6209C28.9975 100.985 28.0273 105.27 28.0273 105.27L31.6159 105.562L32.7799 103.809L32.8768 98.0619Z" fill="#E6E6E6"/>
<path d="M66.8096 131.944L32.8885 130.901C32.3062 130.883 31.7546 130.633 31.3546 130.207C30.9547 129.782 30.739 129.214 30.755 128.63L31.4769 103.233C31.4894 102.805 31.6706 102.4 31.9809 102.107C32.2912 101.813 32.7052 101.655 33.1319 101.668L68.1998 102.746C68.6337 102.76 69.0449 102.946 69.343 103.263C69.6411 103.581 69.8019 104.004 69.79 104.439L69.0688 129.808C69.0515 130.392 68.804 130.945 68.3805 131.345C67.957 131.746 67.3921 131.961 66.8098 131.944L66.8096 131.944Z" fill="#E6E6E6"/>
<path d="M35.0795 128.763L64.7407 129.676C65.3054 129.693 65.8533 129.484 66.264 129.096C66.6748 128.708 66.9146 128.171 66.931 127.605L67.5145 107.096C67.5225 106.815 67.4754 106.536 67.3757 106.273C67.276 106.011 67.1258 105.77 66.9336 105.566C66.7414 105.361 66.511 105.196 66.2556 105.081C66.0001 104.966 65.7247 104.902 65.4449 104.893L35.7841 103.982C35.2195 103.965 34.6715 104.173 34.2608 104.561C33.8501 104.95 33.6102 105.486 33.5939 106.053L33.0112 126.561C32.9952 127.128 33.2041 127.678 33.592 128.091C33.9798 128.504 34.5149 128.745 35.0795 128.763Z" fill="white"/>
<path d="M65.2837 111.743L64.8477 111.729L64.8456 111.802L65.2817 111.815L65.2837 111.743Z" fill="#E6E6E6"/>
<path d="M63.9674 111.79L63.0867 111.763L63.0888 111.69L63.9694 111.717L63.9674 111.79ZM62.206 111.736L61.3253 111.709L61.3274 111.636L62.208 111.663L62.206 111.736ZM60.4446 111.682L59.5641 111.655L59.5661 111.582L60.4468 111.609L60.4446 111.682ZM58.6834 111.628L57.8028 111.601L57.8049 111.528L58.6855 111.555L58.6834 111.628ZM56.922 111.574L56.0404 111.546L56.0425 111.474L56.9231 111.501L56.922 111.574ZM55.1607 111.52L54.28 111.493L54.2821 111.42L55.1627 111.447L55.1607 111.52ZM53.3993 111.465L52.5187 111.439L52.5208 111.366L53.4015 111.393L53.3993 111.465ZM51.6379 111.411L50.7572 111.384L50.7593 111.311L51.6402 111.338L51.6379 111.411ZM49.8765 111.357L48.9955 111.331L48.9976 111.258L49.8782 111.285L49.8765 111.357ZM48.1151 111.303L47.2345 111.276L47.2365 111.203L48.1172 111.23L48.1151 111.303ZM46.3537 111.248L45.4733 111.222L45.4753 111.149L46.356 111.176L46.3537 111.248ZM44.5923 111.194L43.7117 111.167L43.7137 111.094L44.5944 111.121L44.5923 111.194ZM42.8309 111.141L41.9503 111.114L41.9523 111.042L42.833 111.069L42.8309 111.141ZM41.0695 111.087L40.1889 111.06L40.1909 110.987L41.0716 111.014L41.0695 111.087ZM39.3081 111.033L38.428 111.005L38.43 110.933L39.311 110.959L39.3081 111.033ZM37.5471 110.978L36.6663 110.952L36.6686 110.878L37.5493 110.905L37.5471 110.978Z" fill="#E6E6E6"/>
<path d="M35.7876 110.866L35.3516 110.853L35.3495 110.925L35.7856 110.939L35.7876 110.866Z" fill="#E6E6E6"/>
<path d="M50.772 118.103L50.3359 118.09L50.3339 118.162L50.7699 118.175L50.772 118.103Z" fill="#E6E6E6"/>
<path d="M49.4676 118.144L48.6 118.117L48.6021 118.044L49.4697 118.071L49.4676 118.144ZM47.7324 118.09L46.865 118.064L46.8671 117.991L47.7347 118.018L47.7324 118.09ZM45.9974 118.037L45.1298 118.01L45.1319 117.938L45.9993 117.964L45.9974 118.037ZM44.2622 117.984L43.3946 117.957L43.3967 117.884L44.2643 117.911L44.2622 117.984ZM42.527 117.93L41.6594 117.904L41.6614 117.831L42.5297 117.858L42.527 117.93ZM40.7918 117.877L39.9241 117.85L39.9262 117.778L40.7938 117.804L40.7918 117.877ZM39.0565 117.824L38.1889 117.797L38.1909 117.724L39.0585 117.751L39.0565 117.824ZM37.3219 117.771L36.4535 117.744L36.4558 117.671L37.3234 117.698L37.3219 117.771Z" fill="#E6E6E6"/>
<path d="M35.5845 117.652L35.1484 117.639L35.1464 117.711L35.5824 117.724L35.5845 117.652Z" fill="#E6E6E6"/>
<path d="M42.1783 121.061L41.7422 121.047L41.7401 121.12L42.1762 121.133L42.1783 121.061Z" fill="#E6E6E6"/>
<path d="M40.8476 121.096L39.9551 121.069L39.9571 120.996L40.8497 121.024L40.8476 121.096ZM39.0622 121.042L38.1698 121.014L38.1718 120.941L39.0644 120.969L39.0622 121.042ZM37.2765 120.986L36.3844 120.959L36.3866 120.886L37.279 120.914L37.2765 120.986Z" fill="#E6E6E6"/>
<path d="M35.4908 120.862L35.0547 120.849L35.0526 120.921L35.4887 120.935L35.4908 120.862Z" fill="#E6E6E6"/>
<path d="M42.0142 126.54L41.5781 126.526L41.5761 126.599L42.0121 126.612L42.0142 126.54Z" fill="#E6E6E6"/>
<path d="M40.6835 126.575L39.791 126.548L39.7931 126.475L40.6856 126.502L40.6835 126.575ZM38.8981 126.52L38.0057 126.493L38.0078 126.42L38.9004 126.448L38.8981 126.52ZM37.1125 126.465L36.2204 126.438L36.2225 126.365L37.115 126.393L37.1125 126.465Z" fill="#E6E6E6"/>
<path d="M35.3306 126.341L34.8945 126.328L34.8925 126.4L35.3285 126.413L35.3306 126.341Z" fill="#E6E6E6"/>
<path d="M37.3474 126.51L62.485 127.283C63.0936 127.301 63.6841 127.076 64.1267 126.657C64.5693 126.239 64.8281 125.661 64.8461 125.05L65.1996 112.628L65.1498 112.628L54.3918 122.801L51.2398 119.446C51.1817 119.384 51.1102 119.336 51.0307 119.306C50.9512 119.276 50.8659 119.266 50.7816 119.274C50.6539 119.29 50.5351 119.347 50.4434 119.438L44.8052 124.768L42.5012 122.316C42.4515 122.263 42.3919 122.22 42.3257 122.19C42.2596 122.161 42.1882 122.144 42.1158 122.142C42.0433 122.14 41.9711 122.152 41.9034 122.177C41.8357 122.203 41.7737 122.242 41.721 122.292C41.6837 122.329 38.0385 125.839 37.3474 126.51Z" fill="#DADADA"/>
<path d="M37.2398 126.583L37.1899 126.529L41.7016 122.263C41.7607 122.207 41.8302 122.163 41.9062 122.134C41.9821 122.106 42.063 122.092 42.1443 122.095C42.2255 122.097 42.3055 122.116 42.3796 122.149C42.4538 122.183 42.5206 122.231 42.5764 122.29L44.8356 124.695L50.4416 119.392C50.5007 119.336 50.5702 119.293 50.6462 119.264C50.7221 119.235 50.803 119.222 50.8842 119.224C50.9655 119.227 51.0454 119.245 51.1196 119.279C51.1937 119.312 51.2606 119.36 51.3164 119.42L54.4221 122.726L65.2371 112.499L65.2876 112.552L54.4192 122.829L51.2622 119.47C51.2131 119.417 51.1541 119.375 51.0887 119.346C51.0233 119.316 50.9528 119.3 50.8812 119.298C50.8096 119.295 50.7383 119.307 50.6714 119.333C50.6044 119.358 50.5432 119.397 50.4911 119.446L44.8314 124.799L42.5225 122.34C42.423 122.234 42.286 122.173 42.1415 122.168C41.997 122.164 41.8568 122.217 41.7514 122.316L37.2398 126.583Z" fill="#3F3D56"/>
<path d="M41.9701 121.564C42.227 121.679 42.5278 121.563 42.6419 121.305C42.756 121.048 42.6401 120.746 42.3832 120.631C42.1263 120.516 41.8255 120.631 41.7114 120.889C41.5973 121.146 41.7132 121.448 41.9701 121.564Z" fill="#3F3D56"/>
<path d="M50.5639 118.606C50.8208 118.721 51.1216 118.605 51.2356 118.347C51.3497 118.09 51.2339 117.788 50.9769 117.673C50.72 117.558 50.4192 117.673 50.3052 117.931C50.1911 118.189 50.3069 118.491 50.5639 118.606Z" fill="#3F3D56"/>
<path d="M64.7904 112.098C65.0474 112.213 65.3481 112.097 65.4622 111.84C65.5763 111.582 65.4604 111.28 65.2035 111.165C64.9466 111.05 64.6458 111.166 64.5317 111.423C64.4177 111.681 64.5335 111.983 64.7904 112.098Z" fill="#3F3D56"/>
<path d="M117.333 92.6916L116.057 97.5744L111.195 96.614C111.195 96.614 113.108 93.0919 112.63 91.4908L117.333 92.6916H117.333Z" fill="#FFB6B6"/>
<path d="M112.204 156.252H115.132L116.525 144.91H112.203L112.204 156.252Z" fill="#FFB6B6"/>
<path d="M122.233 156.185C122.325 156.452 122.372 156.733 122.372 157.016C122.372 157.147 122.346 157.277 122.296 157.398C122.246 157.519 122.173 157.629 122.081 157.722C121.989 157.815 121.879 157.888 121.758 157.938C121.638 157.989 121.509 158.014 121.378 158.014H112.311C112.131 158.014 111.958 157.943 111.831 157.815C111.704 157.687 111.632 157.514 111.632 157.333V156.954C111.632 156.954 111.184 155.815 112.107 154.41C112.107 154.41 113.255 155.51 114.97 153.788L115.476 152.867L119.137 155.556L121.167 155.807C121.611 155.862 122.004 155.798 122.233 156.185V156.185Z" fill="#2F2E41"/>
<path d="M120.327 123.428L116.292 151.001H111.23L111.904 135.262L112.258 126.986L111.23 123.047C110.904 122.42 110.615 121.773 110.367 121.11C109.922 119.913 109.571 118.477 110.092 117.796C110.284 117.545 110.783 117.359 111.461 117.221C111.93 117.129 112.403 117.062 112.878 117.018C115.872 116.721 120.13 116.907 120.13 116.907L120.238 120.494L120.298 122.497L120.327 123.429L120.327 123.428Z" fill="#2F2E41"/>
<path d="M107.043 154.903L109.94 155.331L112.961 144.313L108.685 143.682L107.043 154.903Z" fill="#FFB6B6"/>
<path d="M116.977 156.303C117.03 156.581 117.036 156.865 116.995 157.145C116.957 157.407 116.816 157.643 116.605 157.801C116.393 157.959 116.128 158.026 115.867 157.988L106.896 156.663C106.718 156.637 106.558 156.54 106.45 156.396C106.343 156.251 106.297 156.069 106.324 155.89L106.378 155.515C106.378 155.515 106.1 154.322 107.217 153.068C107.217 153.068 108.193 154.324 110.14 152.87L110.774 152.034L114.007 155.229L115.978 155.773C116.41 155.893 116.808 155.887 116.978 156.303L116.977 156.303Z" fill="#2F2E41"/>
<path d="M120.395 118.83L119.841 123.616L116.823 133.702L111.855 150.306L106.848 149.567L111.342 125.958L110.897 121.91C110.897 121.91 110.752 121.508 110.586 120.919C110.256 119.753 109.842 117.855 110.298 116.887C110.355 116.761 110.434 116.646 110.532 116.549C110.711 116.374 111.075 116.269 111.562 116.212C113.599 115.981 117.794 116.642 119.66 116.967L120.395 118.83V118.83Z" fill="#2F2E41"/>
<path d="M116.535 96.1335L122.036 103.097L121.048 110.358L120.202 117.746L110.239 116.225C110.239 116.225 112.391 111.022 112.63 110.782C112.869 110.542 113.47 111.135 113.05 110.358C112.63 109.581 112.151 109.581 112.55 109.181C112.949 108.781 109.441 103.578 109.441 100.776C109.441 97.9744 111.115 95.733 111.115 95.733L116.535 96.1335Z" fill="#E6E6E6"/>
<path d="M115.252 93.6136C117.298 93.6136 118.957 91.9478 118.957 89.8929C118.957 87.8381 117.298 86.1722 115.252 86.1722C113.206 86.1722 111.547 87.8381 111.547 89.8929C111.547 91.9478 113.206 93.6136 115.252 93.6136Z" fill="#FFB6B6"/>
<path d="M115.078 97.007C115.078 97.007 115.633 92.6015 115.731 91.3204C115.829 90.0392 117.63 88.039 117.63 88.039L118.906 89.0737C118.906 89.0737 119.985 89.0737 119.249 87.4969C119.059 87.0516 118.77 86.6558 118.404 86.3398C118.039 86.0238 117.606 85.7959 117.139 85.6735C117.139 85.6735 116.992 83.6039 114.44 83.8502C113.691 83.9272 112.97 84.176 112.332 84.5776C111.694 84.9791 111.156 85.5226 110.76 86.166C110.76 86.166 110.613 83.5545 108.994 85.4762C107.375 87.398 106.443 88.1864 108.16 88.8268C109.877 89.4671 111.153 88.9753 111.153 88.9753C111.153 88.9753 109.484 89.3202 109.779 90.5027C110.073 91.6852 105.903 97.0562 107.817 97.6482C109.73 98.2402 113.999 99.6692 114.488 98.7323C114.777 98.1936 114.976 97.611 115.077 97.0076L115.078 97.007Z" fill="#2F2E41"/>
<path d="M141.654 85.3445C141.092 84.6144 139.71 84.7416 138.568 85.6284C138.106 85.9766 137.735 86.4306 137.484 86.9526L136.834 87.4711L127.736 94.1348C127.736 94.1348 118.82 97.6552 117.825 98.7667C117.536 99.1037 117.334 99.5067 117.236 99.9404C117.138 100.374 117.148 100.825 117.264 101.255L118.521 102.369L131.019 96.3114L138.07 89.8618L139.055 88.9924C139.621 88.8801 140.152 88.6333 140.604 88.2726C141.747 87.3858 142.217 86.0747 141.655 85.3446L141.654 85.3445Z" fill="#FFB6B6"/>
<path d="M116.527 102.704C116.527 102.704 125.411 101.307 126.779 99.4099L123.908 95.4322C123.908 95.4322 123.905 95.0928 123.174 95.6986C122.442 96.3044 120.925 96.0892 120.925 96.0892C120.925 96.0892 121.3 95.8183 120.771 96.418C120.242 97.0178 116.772 96.3189 116.772 96.3189L116.527 102.704Z" fill="#E6E6E6"/>
</g>
</g>
<defs>
<clipPath id="clip0_2158_2840">
<rect width="210" height="132" fill="white" transform="translate(18 27)"/>
</clipPath>
</defs>
</svg>
