<svg width="279" height="156" viewBox="0 0 279 156" fill="none" xmlns="http://www.w3.org/2000/svg">
<g opacity="0.34" clip-path="url(#clip0_1987_4086)">
<path d="M141.086 156.22C210.114 156.22 266.073 148.978 266.073 140.044C266.073 131.111 210.114 123.869 141.086 123.869C72.0566 123.869 16.0977 131.111 16.0977 140.044C16.0977 148.978 72.0566 156.22 141.086 156.22Z" fill="#436FD0"/>
<g opacity="0.6">
<path d="M205.227 110.037C205.227 110.037 232.811 12.6394 258.958 21.1174C285.106 29.5952 226.014 82.2865 218.882 110.894L205.227 110.037Z" fill="#3EB785"/>
</g>
<g opacity="0.6">
<path d="M73.417 100.442C73.417 100.442 45.8324 3.04504 19.6851 11.523C-6.46202 20.0009 52.63 72.6921 59.7619 101.299L73.417 100.442Z" fill="#3EB785"/>
</g>
<path d="M215.547 100.28C215.547 100.28 249.3 41.8854 267.961 51.8347C286.622 61.7842 234.945 85.8462 225.765 103.163L215.547 100.28Z" fill="#21784F"/>
<path d="M221.249 101.943C227.371 89.8685 238.123 78.9562 246.064 71.9282C254.674 64.3091 261.923 59.4903 261.995 59.4424L261.696 58.9915C261.624 59.0395 254.343 63.8792 245.706 71.5234C237.729 78.5824 226.927 89.5478 220.767 101.699L221.249 101.943Z" fill="#C4C695"/>
<path d="M63.0967 90.6856C63.0967 90.6856 29.3434 32.291 10.6822 42.2403C-7.97893 52.1899 43.6989 76.2518 52.8787 93.5688L63.0967 90.6856Z" fill="#21784F"/>
<path d="M57.3946 92.3488C51.2725 80.2741 40.5207 69.3618 32.5793 62.3339C23.9698 54.7147 16.7211 49.8959 16.6489 49.848L16.9474 49.3971C17.02 49.4451 24.3003 54.2848 32.9379 61.929C40.9145 68.988 51.7162 79.9535 57.877 92.1042L57.3946 92.3488Z" fill="#C4C695"/>
<path d="M265.577 110.474C257.474 112.793 259.659 125.145 250.14 123.453C242.089 122.017 241.374 121.331 238.782 123.793C237.894 124.637 237.144 125.615 236.527 126.673C235.786 127.942 234.32 129.836 231.942 130.417C217.413 133.962 195.887 113.547 210.434 100.56C211.484 99.6221 213.074 99.1832 214.84 98.7862C224.421 96.6392 227.729 100.884 234.605 88.9752C241.482 77.0629 252.908 92.7414 259.362 91.7388C265.816 90.7363 271.409 88.4134 276.919 94.9595C282.431 101.511 273.681 108.16 265.577 110.474Z" fill="#3EB785"/>
<g opacity="0.5">
<path d="M216.156 116.066L215.817 115.627C216.01 115.478 235.652 100.632 278.213 96.8361L278.262 97.3884C235.861 101.17 216.349 115.918 216.156 116.066Z" fill="#74A1BD"/>
<path d="M241.596 97.8635C235.642 93.1725 234.388 89.2206 234.338 89.0546L234.868 88.8931C234.88 88.9321 236.137 92.8569 241.94 97.4281L241.596 97.8635Z" fill="#74A1BD"/>
<path d="M242.962 103.767C241.2 101.087 241.086 97.065 242.632 92.1367C243.79 88.4462 245.489 85.4999 245.506 85.4708L245.986 85.7489C245.919 85.8636 239.373 97.2998 243.425 103.463L242.962 103.767Z" fill="#74A1BD"/>
<path d="M254.118 102.068C253.412 101.552 253.026 101.212 253.009 101.197L253.379 100.784C253.459 100.856 261.587 108.012 272.819 106.934L272.871 107.486C263.821 108.355 256.748 103.991 254.118 102.068Z" fill="#74A1BD"/>
<path d="M260.485 114.496C257.729 111.799 256.808 108.984 256.521 107.098C256.208 105.044 256.55 103.643 256.565 103.584L257.102 103.718C257.089 103.772 255.826 109.163 260.873 114.1L260.485 114.496Z" fill="#74A1BD"/>
</g>
<path d="M13.0666 100.879C21.1691 103.199 18.985 115.551 28.5035 113.859C36.5541 112.423 37.2691 111.736 39.8613 114.199C40.7499 115.043 41.4993 116.021 42.117 117.079C42.8571 118.348 44.3232 120.242 46.7013 120.822C61.2302 124.368 82.7565 103.953 68.2099 90.9656C67.1595 90.0277 65.5694 89.5888 63.8034 89.1919C54.2225 87.0448 50.9143 91.2899 44.0389 79.3808C37.1611 67.4685 25.7352 83.147 19.2815 82.1445C12.8278 81.1419 7.23483 78.8191 1.72422 85.3651C-3.78728 91.9168 4.96296 98.5655 13.0666 100.879Z" fill="#3EB785"/>
<g opacity="0.5">
<path d="M62.4874 106.472L62.8262 106.033C62.6331 105.884 42.9917 91.0375 0.430843 87.2417L0.38155 87.794C42.7827 91.5759 62.2948 106.323 62.4874 106.472Z" fill="#74A1BD"/>
<path d="M37.0473 88.2691C43.002 83.5782 44.2553 79.6262 44.3057 79.4603L43.7754 79.2987C43.7635 79.3378 42.5066 83.2626 36.7038 87.8337L37.0473 88.2691Z" fill="#74A1BD"/>
<path d="M35.6816 94.1727C37.4438 91.4923 37.5578 87.4707 36.0113 82.5424C34.8531 78.8518 33.1541 75.9055 33.1372 75.8764L32.6578 76.1545C32.7244 76.2693 39.2705 87.7054 35.2183 93.8683L35.6816 94.1727Z" fill="#74A1BD"/>
<path d="M24.5259 92.474C25.2317 91.9579 25.6173 91.6177 25.6348 91.6022L25.2648 91.1897C25.1841 91.2621 17.0564 98.418 5.82491 97.34L5.7721 97.8914C14.8222 98.7603 21.896 94.3968 24.5259 92.474Z" fill="#74A1BD"/>
<path d="M18.1585 104.902C20.9147 102.205 21.8357 99.3899 22.1226 97.5034C22.4351 95.4497 22.0936 94.0482 22.079 93.9897L21.5412 94.1241C21.5546 94.1779 22.8172 99.5683 17.7706 104.506L18.1585 104.902Z" fill="#74A1BD"/>
</g>
<path d="M270.54 40.5004C272.647 39.0434 273.825 39.4059 274.503 40.3876C275.182 41.3694 275.105 42.5984 272.997 44.0554C269.158 46.7094 266.074 46.2144 266.074 46.2144C266.074 46.2144 266.645 43.1929 270.54 40.5004Z" fill="#2FD286"/>
<path d="M264.877 83.1251C267.562 82.6643 268.507 83.3804 268.687 84.4325C268.868 85.4848 268.216 86.4748 265.531 86.9354C260.641 87.7745 257.95 86.2748 257.95 86.2748C257.95 86.2748 259.916 83.9763 264.877 83.1251Z" fill="#2FD286"/>
<path d="M256.85 78.9247C258.296 76.8099 259.398 76.6406 260.227 77.2075C261.056 77.7744 261.297 78.863 259.851 80.9776C257.216 84.8297 254.442 85.6649 254.442 85.6649C254.442 85.6649 254.176 82.8328 256.85 78.9247Z" fill="#2FD286"/>
<path d="M190.48 38.8705C189.816 38.8705 189.249 38.3737 189.161 37.7146L188.912 35.8622C188.855 35.4315 188.554 35.0718 188.147 34.9457C188.037 34.9115 187.927 34.8749 187.818 34.8364C187.701 34.7949 187.578 34.7738 187.454 34.7738C187.145 34.7738 186.848 34.9048 186.638 35.1331L185.287 36.5981C185.036 36.871 184.678 37.0275 184.307 37.0275C183.972 37.0275 183.651 36.9023 183.404 36.6749L181.825 35.2198C181.563 34.9784 181.411 34.6496 181.396 34.2936C181.382 33.9378 181.507 33.5976 181.749 33.336L182.908 32.0791C183.232 31.7284 183.295 31.2104 183.065 30.7903L183.058 30.7773C182.863 30.4179 182.49 30.1971 182.083 30.1971C182.033 30.1971 181.983 30.2004 181.934 30.2072L180.343 30.4217C180.283 30.4299 180.222 30.4339 180.163 30.4339C179.499 30.4339 178.932 29.9373 178.844 29.279L178.557 27.1507C178.51 26.7977 178.602 26.4474 178.818 26.1644C179.034 25.8812 179.348 25.6993 179.701 25.652L181.293 25.4386C181.747 25.3777 182.122 25.0391 182.226 24.5959L182.23 24.5792C182.34 24.1133 182.143 23.6306 181.739 23.3779L180.288 22.4706C179.665 22.081 179.475 21.2571 179.864 20.634L181.003 18.8134C181.248 18.4212 181.671 18.187 182.134 18.187C182.383 18.187 182.627 18.2572 182.839 18.3901L184.528 19.4465C184.898 19.6775 185.391 19.6676 185.745 19.4212C185.84 19.3551 185.936 19.291 186.034 19.2285C186.393 18.9993 186.588 18.5728 186.531 18.142L186.282 16.2899C186.234 15.9371 186.327 15.5871 186.543 15.3041C186.759 15.0211 187.072 14.8392 187.425 14.7917L189.551 14.5055C189.61 14.4975 189.671 14.4935 189.73 14.4935C190.394 14.4935 190.961 14.9902 191.05 15.6489L191.235 17.026C191.3 17.513 191.674 17.8949 192.166 17.9763C192.567 18.0426 192.967 18.1382 193.355 18.2603C193.764 18.3892 194.227 18.2673 194.513 17.9568L195.711 16.6591C195.962 16.3867 196.319 16.2305 196.69 16.2305C197.026 16.2305 197.347 16.3559 197.594 16.5836L199.172 18.039C199.433 18.2804 199.585 18.6092 199.6 18.9649C199.614 19.3206 199.489 19.6607 199.247 19.9222L198.401 20.8395C198.066 21.2026 198.01 21.7322 198.261 22.1573C198.314 22.2465 198.365 22.3367 198.415 22.4281C198.605 22.7787 198.976 22.9967 199.383 22.9967C199.432 22.9967 199.482 22.9933 199.532 22.9867L200.656 22.8365C200.715 22.8286 200.775 22.8246 200.834 22.8246C201.497 22.8246 202.064 23.3212 202.153 23.9797L202.439 26.1066C202.487 26.4596 202.394 26.8097 202.178 27.0929C201.962 27.3759 201.649 27.5579 201.296 27.6052L200.173 27.7559C199.719 27.8169 199.345 28.1523 199.242 28.5908C199.218 28.6925 199.193 28.7935 199.165 28.8939C199.036 29.3698 199.23 29.8653 199.648 30.1268L200.707 30.7882C201.009 30.9769 201.219 31.2719 201.299 31.6189C201.379 31.9658 201.32 32.3232 201.131 32.6251L199.993 34.4443C199.748 34.8365 199.325 35.0706 198.862 35.0706C198.613 35.0706 198.369 35.0007 198.157 34.8682L196.66 33.933C196.301 33.7087 195.822 33.7146 195.463 33.9466C195.12 34.1675 194.76 34.3654 194.392 34.5347C193.94 34.7433 193.68 35.2103 193.745 35.6969L193.93 37.0747C194.028 37.8028 193.515 38.4749 192.787 38.5729L190.659 38.8586C190.6 38.8665 190.539 38.8705 190.48 38.8705ZM187.454 34.5527C187.604 34.5527 187.751 34.5781 187.892 34.628C187.998 34.6655 188.105 34.7011 188.213 34.7345C188.702 34.8861 189.063 35.3172 189.132 35.833L189.38 37.6854C189.454 38.235 189.927 38.6494 190.48 38.6494C190.53 38.6494 190.58 38.6461 190.629 38.6395L192.757 38.3537C193.364 38.2721 193.792 37.7115 193.711 37.1042L193.526 35.7264C193.447 35.1429 193.758 34.5834 194.299 34.334C194.657 34.169 195.008 33.9761 195.342 33.7607C195.772 33.4832 196.347 33.4767 196.777 33.7455L198.274 34.6805C198.451 34.791 198.654 34.8495 198.862 34.8495C199.248 34.8495 199.601 34.6541 199.806 34.327L200.943 32.5077C201.101 32.2559 201.15 31.9579 201.084 31.6685C201.017 31.3792 200.841 31.1332 200.59 30.9757L199.531 30.3144C199.029 30.0007 198.796 29.4065 198.952 28.8358C198.978 28.7382 199.003 28.6396 199.026 28.5404C199.15 28.0132 199.599 27.6097 200.144 27.5366L201.266 27.386C201.561 27.3464 201.822 27.1946 202.002 26.9586C202.182 26.7225 202.26 26.4303 202.22 26.1361L201.934 24.0092C201.86 23.46 201.387 23.0458 200.834 23.0458C200.784 23.0458 200.734 23.0492 200.685 23.0558L199.561 23.206C199.502 23.2138 199.442 23.2177 199.383 23.2179C198.895 23.2179 198.45 22.9557 198.22 22.5336C198.172 22.4447 198.122 22.3569 198.071 22.27C197.77 21.7601 197.837 21.125 198.239 20.6896L199.085 19.7723C199.286 19.5541 199.391 19.2705 199.379 18.9738C199.367 18.6771 199.24 18.4029 199.022 18.2015L197.444 16.7461C197.238 16.5562 196.97 16.4515 196.69 16.4515C196.381 16.4515 196.083 16.5819 195.873 16.8092L194.676 18.1067C194.425 18.3782 194.068 18.5339 193.696 18.5339C193.559 18.5339 193.422 18.5128 193.289 18.4712C192.911 18.3523 192.521 18.259 192.13 18.1944C191.542 18.0971 191.094 17.6393 191.016 17.0553L190.83 15.6783C190.757 15.1288 190.284 14.7145 189.731 14.7145C189.681 14.7145 189.63 14.7179 189.581 14.7246L187.454 15.0109C187.16 15.0504 186.899 15.2022 186.719 15.4382C186.539 15.6742 186.461 15.9662 186.501 16.2604L186.75 18.1125C186.819 18.6283 186.585 19.1396 186.153 19.4149C186.058 19.4757 185.964 19.5383 185.871 19.6028C185.65 19.7565 185.391 19.8376 185.12 19.8376C184.869 19.8376 184.624 19.7672 184.411 19.634L182.722 18.5776C182.545 18.4668 182.342 18.4082 182.134 18.4082C181.748 18.4082 181.395 18.6035 181.19 18.9306L180.052 20.7512C179.894 21.0029 179.844 21.3009 179.911 21.5903C179.978 21.8796 180.153 22.1256 180.405 22.2831L181.856 23.1903C182.341 23.4934 182.578 24.0719 182.445 24.6302L182.334 24.6213L182.441 24.6466C182.316 25.1785 181.867 25.5848 181.323 25.6577L179.73 25.8712C179.436 25.9106 179.174 26.0625 178.994 26.2985C178.814 26.5346 178.737 26.8267 178.776 27.1211L179.063 29.2493C179.137 29.7986 179.61 30.2127 180.163 30.2127C180.213 30.2127 180.263 30.2094 180.313 30.2026L181.904 29.988C181.963 29.98 182.024 29.976 182.083 29.976C182.571 29.976 183.018 30.241 183.25 30.6676L183.259 30.6842C183.535 31.1877 183.459 31.8086 183.071 32.2291L181.911 33.486C181.71 33.7043 181.605 33.988 181.617 34.2848C181.629 34.5817 181.756 34.8561 181.975 35.0572L183.554 36.5124C183.76 36.702 184.027 36.8064 184.307 36.8064C184.617 36.8064 184.915 36.6758 185.124 36.4482L186.475 34.9832C186.727 34.7096 187.084 34.5527 187.454 34.5527Z" fill="white"/>
<path d="M190.86 31.596C188.459 31.596 185.785 29.2327 185.462 26.8248C185.302 25.6308 185.726 24.4129 186.657 23.3952C187.536 22.4346 188.752 21.7888 189.992 21.623C190.144 21.6024 190.299 21.5921 190.452 21.5921C192.848 21.5921 194.788 24.0555 195.097 26.3565C195.264 27.593 194.978 28.8084 194.291 29.7786C193.591 30.768 192.538 31.4025 191.326 31.5653C191.175 31.5856 191.018 31.596 190.86 31.596ZM190.452 21.8133C190.309 21.8133 190.164 21.8231 190.022 21.8422C188.832 22.0012 187.665 22.6217 186.821 23.5446C185.934 24.5131 185.53 25.6677 185.681 26.7955C185.991 29.1065 188.557 31.3749 190.86 31.3749C191.008 31.3749 191.155 31.3652 191.297 31.3462C192.447 31.1916 193.446 30.5896 194.111 29.651C194.765 28.7265 195.038 27.567 194.878 26.3861C194.582 24.1776 192.732 21.8133 190.452 21.8133Z" fill="white"/>
<path d="M131.886 46.4829L137.862 43.5569C140.146 42.4385 141.091 39.6804 139.974 37.3957L136.42 30.13C135.302 27.844 132.542 26.8977 130.256 28.0165L126.03 30.0852C124.207 30.9775 122.014 30.5716 120.633 29.0837C120.37 28.7999 120.101 28.5201 119.826 28.245C118.49 26.9041 118.148 24.8622 118.926 23.136L120.682 19.2429C121.728 16.9231 120.695 14.1945 118.375 13.1491L111 9.826C108.681 8.78152 105.955 9.81268 104.909 12.1298L103.149 16.0258C102.371 17.7489 100.618 18.8432 98.7301 18.7308C98.3447 18.7079 97.9591 18.692 97.574 18.683C95.5426 18.6355 93.7835 17.2616 93.2443 15.3022L91.9961 10.7669C91.3211 8.3138 88.7849 6.87261 86.332 7.54793L78.5302 9.69575C76.0778 10.3709 74.6367 12.9056 75.311 15.3583L77.0756 21.7763C77.5512 23.5061 76.9708 25.3443 75.6092 26.5121C74.4639 27.4945 73.3814 28.5619 72.3721 29.7101C71.0251 31.2426 68.85 31.7405 66.9898 30.9018L62.2157 28.7492C59.8959 27.7032 57.1676 28.7361 56.1223 31.0563L52.8004 38.4293C51.7554 40.7488 52.788 43.476 55.1072 44.5215L61.5292 47.4164C63.1593 48.1514 64.2418 49.7575 64.2611 51.5456C64.2659 51.9776 64.2792 52.4087 64.301 52.8387C64.3938 54.6687 63.3693 56.3732 61.7229 57.1781L54.9777 60.4755C52.6915 61.5931 51.7446 64.3525 52.8626 66.638L56.419 73.9092C57.5368 76.1948 60.296 77.1412 62.5814 76.0232L68.3758 73.1885C70.1541 72.3186 72.2852 72.6858 73.678 74.0925C73.6932 74.1076 73.7082 74.1229 73.7234 74.138C75.0659 75.4884 75.4276 77.5311 74.6445 79.2666L72.1537 84.7873C71.107 87.1073 72.1401 89.8364 74.4606 90.8819L81.8412 94.2068C84.1613 95.2521 86.8891 94.2181 87.934 91.8978L90.4182 86.379C91.2 84.6423 92.9701 83.5597 94.8713 83.6718C94.8952 83.6733 94.9191 83.6746 94.9431 83.676C96.9202 83.7881 98.6072 85.1426 99.1324 87.0521L100.842 93.2678C101.517 95.7223 104.055 97.1639 106.509 96.4868L114.312 94.334C116.765 93.6576 118.204 91.1214 117.528 88.6689L115.532 81.4288C115.045 79.6621 115.644 77.7656 117.077 76.6234C117.413 76.3557 117.744 76.0804 118.071 75.7983C119.423 74.6286 121.342 74.3765 122.972 75.1117L129.394 78.0095C131.714 79.0561 134.442 78.0237 135.488 75.7041L138.814 68.3274C139.86 66.0081 138.828 63.2802 136.509 62.2344L131.732 60.0805C129.873 59.2424 128.806 57.2846 129.061 55.2616C129.251 53.7467 129.333 52.2301 129.309 50.7233C129.28 48.9279 130.274 47.273 131.886 46.4829ZM113.484 59.0337C109.622 67.599 95.7449 72.0022 87.1799 68.1404C78.6251 64.283 75.9089 52.3875 79.7738 43.8295C83.628 35.2676 95.9773 33.2759 104.543 37.1375C113.105 40.9918 117.345 50.4683 113.484 59.0337Z" fill="#436FD0"/>
<path d="M107.994 100.984C105.866 100.984 103.986 99.5499 103.421 97.4964L101.712 91.2807C101.203 89.431 99.5699 88.1151 97.648 88.0061L97.576 88.002C95.7277 87.893 94.0134 88.9483 93.2574 90.6275L90.7729 96.1464C90.0075 97.8464 88.3081 98.9448 86.4433 98.9448C85.7703 98.9448 85.1156 98.8036 84.4972 98.525L77.1163 95.1999C75.9602 94.6792 75.0764 93.7393 74.6277 92.5535C74.1788 91.3676 74.2188 90.078 74.7402 88.9223L77.231 83.4016C77.9875 81.7246 77.6287 79.7257 76.3379 78.4275L76.2924 78.3818C75.4427 77.5235 74.3114 77.0512 73.1069 77.0512C72.4233 77.0512 71.7647 77.2038 71.1494 77.5048L65.3548 80.3394C64.6988 80.6605 63.9984 80.8231 63.2731 80.8231C61.4448 80.8231 59.8102 79.8034 59.0072 78.162L55.4508 70.8907C54.8938 69.7521 54.8138 68.4647 55.2252 67.2656C55.6368 66.0667 56.4905 65.0997 57.6293 64.543L64.3746 61.2455C65.9833 60.4591 66.9648 58.8074 66.8751 57.0377C66.8533 56.6068 66.8399 56.1699 66.8352 55.7389C66.8166 54.0237 65.7763 52.4519 64.1846 51.7344L57.7628 48.8396C55.378 47.7645 54.312 44.9496 55.3865 42.5646L58.7086 35.1915C59.4742 33.4924 61.1734 32.3946 63.0375 32.3946C63.7111 32.3946 64.3664 32.5361 64.9853 32.8151L69.7593 34.9676C70.3367 35.228 70.9495 35.36 71.5806 35.3599C72.8759 35.3599 74.1152 34.7952 74.9806 33.8107C75.9836 32.6698 77.0774 31.5894 78.2315 30.5991C79.5519 29.4665 80.1105 27.6632 79.6546 26.0051L77.8901 19.587C77.1968 17.0649 78.6843 14.4484 81.206 13.7541L89.0078 11.6063C89.4208 11.4926 89.8454 11.4349 90.27 11.4349C92.3968 11.4349 94.2771 12.8689 94.8424 14.9219L96.0904 19.4572C96.6173 21.3721 98.305 22.6897 100.29 22.7363C100.676 22.7452 101.067 22.7614 101.451 22.7844C103.274 22.8919 104.978 21.8383 105.736 20.1606L107.495 16.2647C108.262 14.5679 109.96 13.4714 111.823 13.4714C112.496 13.4714 113.151 13.6126 113.769 13.8914L121.145 17.2145C122.3 17.7352 123.184 18.675 123.633 19.8607C124.082 21.0463 124.042 22.3357 123.521 23.4914L121.765 27.3846C121.007 29.0645 121.358 31.0556 122.637 32.339C122.911 32.614 123.184 32.8974 123.448 33.1813C124.289 34.0879 125.481 34.6077 126.719 34.6077C127.395 34.6077 128.074 34.4503 128.682 34.1526L132.908 32.0836C133.565 31.7625 134.265 31.5996 134.991 31.5996C136.82 31.5996 138.454 32.6193 139.257 34.2608L142.811 41.5267C143.96 43.8759 142.984 46.7227 140.635 47.8729L134.66 50.799C133.114 51.5562 132.132 53.171 132.16 54.9133C132.184 56.4331 132.1 57.9665 131.911 59.471C131.661 61.4561 132.702 63.335 134.501 64.1463L139.278 66.3003C140.434 66.8212 141.317 67.761 141.766 68.9465C142.214 70.1318 142.175 71.421 141.654 72.5765L138.327 79.9533C137.561 81.6515 135.862 82.7488 133.999 82.7488H133.999C133.325 82.7488 132.669 82.6072 132.05 82.3278L125.628 79.4301C125.037 79.1633 124.409 79.0281 123.762 79.0281C122.695 79.0281 121.669 79.4071 120.874 80.0951C120.549 80.3764 120.213 80.6553 119.876 80.9238C118.49 82.0283 117.902 83.8577 118.378 85.5842L120.374 92.8243C121.07 95.3462 119.584 97.964 117.062 98.6596L109.258 100.812C108.844 100.926 108.419 100.984 107.994 100.984ZM97.3145 87.7173C97.4067 87.7173 97.4992 87.72 97.5922 87.7254L97.6639 87.7296C99.7045 87.8454 101.438 89.2428 101.979 91.2071L103.688 97.4228C104.22 99.3565 105.991 100.707 107.994 100.707C108.394 100.707 108.795 100.653 109.185 100.545L116.988 98.3923C119.363 97.7374 120.762 95.2724 120.107 92.8975L118.111 85.6574C117.606 83.8238 118.231 81.8807 119.703 80.707C120.038 80.4407 120.37 80.1644 120.693 79.8853C121.538 79.1537 122.628 78.7508 123.762 78.7508C124.448 78.7508 125.114 78.8942 125.742 79.1774L132.164 82.075C132.747 82.3381 133.364 82.4716 133.999 82.4716C135.754 82.4717 137.354 81.4384 138.075 79.839L141.401 72.4623C141.892 71.3742 141.929 70.1603 141.507 69.0441C141.084 67.9279 140.253 67.0429 139.164 66.5522L134.387 64.3983C132.477 63.5368 131.371 61.5425 131.636 59.436C131.824 57.9445 131.907 56.4243 131.883 54.9174C131.854 53.0684 132.896 51.3541 134.538 50.55L140.514 47.6239C142.725 46.5408 143.644 43.8601 142.562 41.648L139.008 34.3821C138.252 32.8364 136.713 31.8762 134.991 31.8762C134.308 31.8762 133.648 32.0296 133.03 32.3321L128.804 34.401C128.158 34.7172 127.437 34.8843 126.719 34.8843C125.405 34.8843 124.138 34.3322 123.245 33.3694C122.983 33.0879 122.713 32.8068 122.441 32.5343C121.081 31.1699 120.708 29.0546 121.513 27.2705L123.269 23.3774C123.759 22.289 123.797 21.075 123.374 19.9584C122.952 18.842 122.119 17.957 121.031 17.4667L113.656 14.1436C113.073 13.8812 112.456 13.7481 111.823 13.7481C110.069 13.7481 108.47 14.7805 107.748 16.3782L105.988 20.2742C105.184 22.0559 103.374 23.1758 101.435 23.0605C101.054 23.0377 100.667 23.0217 100.284 23.0127C98.1758 22.9633 96.3835 21.5639 95.8238 19.5304L94.5757 14.9951C94.0435 13.0617 92.273 11.7115 90.2703 11.7115C89.8706 11.7115 89.4708 11.7658 89.0818 11.8729L81.28 14.0206C78.9055 14.6745 77.5046 17.1383 78.1576 19.5131L79.9221 25.9312C80.4063 27.6921 79.8137 29.6068 78.4124 30.8088C77.268 31.7905 76.1836 32.8618 75.1892 33.9929C74.2712 35.0373 72.9561 35.6363 71.5811 35.6364C70.9105 35.6364 70.2593 35.4962 69.646 35.2195L64.872 33.0671C64.2891 32.8042 63.672 32.6709 63.038 32.6709C61.2826 32.6709 59.6824 33.7047 58.9616 35.3047L55.6395 42.6777C54.6276 44.9236 55.6314 47.5743 57.8771 48.5866L64.2987 51.4817C65.9883 52.2433 67.0926 53.913 67.1123 55.7355C67.117 56.1629 67.1303 56.5961 67.1517 57.0233C67.2472 58.904 66.2049 60.6588 64.4965 61.494L57.7511 64.7916C56.6787 65.3158 55.8748 66.2263 55.4873 67.3554C55.0998 68.4843 55.1752 69.6967 55.6997 70.769L59.2561 78.0401C60.0123 79.5859 61.5516 80.5461 63.2734 80.5461C63.9561 80.5461 64.6155 80.3929 65.2334 80.0904L71.0279 77.2558C71.6722 76.9406 72.3912 76.774 73.1072 76.774C74.3862 76.774 75.5872 77.2757 76.4894 78.1867L76.5342 78.232C77.9057 79.6113 78.287 81.7344 77.4837 83.5156L74.9928 89.0363C74.5018 90.1246 74.4642 91.3389 74.8869 92.4556C75.3096 93.5722 76.1418 94.4572 77.2303 94.9477L84.6111 98.2727C85.1936 98.535 85.81 98.6681 86.4436 98.6681C88.1996 98.6681 89.8 97.6337 90.5206 96.0329L93.0051 90.5141C93.7696 88.8151 95.4612 87.7173 97.3145 87.7173Z" fill="#7BA3FA"/>
<path d="M46.5354 21.8322C44.9838 23.3596 44.037 23.3208 43.4383 22.7128C42.8397 22.1046 42.8158 21.1572 44.3677 19.6298C47.1943 16.8475 49.6443 16.604 49.6443 16.604C49.6443 16.604 49.4032 19.0093 46.5354 21.8322Z" fill="#B2C9C6"/>
<path d="M49.8893 35.5369C48.9153 37.4843 48.0069 37.754 47.2436 37.3721C46.4804 36.9904 46.1514 36.1018 47.1254 34.1544C48.8995 30.607 51.139 29.584 51.139 29.584C51.139 29.584 51.6894 31.938 49.8893 35.5369Z" fill="#B2C9C6"/>
<path d="M58.0127 71.3558L57.6057 71.4214C57.5956 71.3589 56.5416 65.051 52.1846 56.5196C48.1643 48.6479 40.429 37.2186 26.4082 27.4726L26.6432 27.1342C40.7415 36.9339 48.5183 48.4302 52.5597 56.3487C56.942 64.9342 58.0024 71.2926 58.0127 71.3558Z" fill="#B2C9C6"/>
<path d="M41.3232 40.2003L40.9323 40.0697C45.6821 25.878 37.2296 12.2269 37.1436 12.0906L37.4921 11.8707C37.5789 12.0086 46.1359 25.8201 41.3232 40.2003Z" fill="#B2C9C6"/>
<path d="M33.6723 35.2317C29.6134 36.2537 26.034 34.994 25.9932 34.9791L26.133 34.5916C26.1787 34.608 30.764 36.2165 35.3651 34.2243L35.5288 34.6025C34.9065 34.872 34.2836 35.0778 33.6723 35.2317Z" fill="#B2C9C6"/>
<path d="M25.5806 25.3119C28.1751 26.6866 28.6228 27.7069 28.2233 28.461C27.8238 29.2149 26.7281 29.4174 24.1336 28.0427C19.4075 25.5382 17.8467 22.9624 17.8467 22.9624C17.8467 22.9624 20.7856 22.771 25.5806 25.3119Z" fill="#B2C9C6"/>
<path d="M26.7397 33.4172C29.6279 33.9458 30.3626 34.7835 30.2089 35.623C30.0552 36.4624 29.0717 36.9857 26.1833 36.4571C20.922 35.4943 18.6572 33.5089 18.6572 33.5089C18.6572 33.5089 21.4016 32.4404 26.7397 33.4172Z" fill="#B2C9C6"/>
<path d="M36.157 27.837C37.1561 29.7716 36.8388 30.6644 36.0805 31.0561C35.3224 31.4477 34.4105 31.1897 33.4112 29.2552C31.5911 25.7312 32.0844 23.319 32.0844 23.319C32.0844 23.319 34.3102 24.2617 36.157 27.837Z" fill="#B2C9C6"/>
<path d="M37.9265 10.0398C39.2871 12.6416 39.0788 13.7361 38.3226 14.1317C37.5665 14.5274 36.5486 14.0739 35.1879 11.4719C32.7091 6.73222 32.8805 3.7254 32.8805 3.7254C32.8805 3.7254 35.4114 5.23101 37.9265 10.0398Z" fill="#B2C9C6"/>
<path d="M22.759 60.9784L108.85 64.3563C111.965 64.4785 114.635 66.6177 115.435 69.6303L131.729 131.047L32.2476 132.497L15.6198 69.9018C14.3886 65.2824 17.9819 60.791 22.759 60.9784Z" fill="#3B4C6C"/>
<path d="M165.319 135.314H35.0742C34.1239 135.314 32.9762 135.055 32.7682 134.439C32.6077 133.965 32.3958 132.974 32.2401 132.497C31.9463 131.599 32.968 130.778 34.3497 130.783L94.6936 130.614L165.934 131.279C167.333 131.285 168.332 132.163 167.93 133.035L167.327 134.342C167.061 134.919 166.245 135.314 165.319 135.314Z" fill="#3B4C6C"/>
<path d="M166.547 135.314H95.5132C94.9947 135.314 94.3689 135.055 94.2553 134.439C94.1678 133.965 94.0524 132.974 93.9674 132.497C93.8071 131.599 93.9404 130.609 94.6939 130.614L166.882 131.279C167.645 131.285 168.19 132.163 167.971 133.035L167.642 134.342C167.497 134.919 167.052 135.314 166.547 135.314Z" fill="#1E3158"/>
<path d="M129.012 130.51L107.348 130.576L82.9952 130.65L80.8636 130.657L56.6168 130.73L49.1582 130.752L36.7675 130.79L35.6155 126.102L21.6563 69.2979C21.2411 67.6086 22.5559 65.99 24.2939 66.0484L54.0835 67.0537L60.0332 67.2546H60.0347L61.7022 67.3117L69.5963 67.5776L70.5773 67.6116L74.7239 67.7513L99.5475 68.5899L106.389 68.8204C107.526 68.8584 108.602 69.1814 109.539 69.7294C109.667 69.8028 109.793 69.8814 109.915 69.9642C111.186 70.8232 112.158 72.1133 112.604 73.6616L116.79 88.1663L129.012 130.51Z" fill="white"/>
<path d="M69.1612 65.1011C69.3816 65.7663 68.7164 66.047 68.3979 66.047C68.0796 66.047 67.4482 65.6235 67.4482 65.1011C67.4482 64.3246 68.0796 64.155 68.3979 64.155C68.7164 64.1549 68.9968 64.6052 69.1612 65.1011Z" fill="#2F1A31"/>
<path d="M242.544 137.297L236.148 137.307L193.236 134.171C190.835 134.019 188.952 132.002 188.912 129.541L187.632 49.0967C187.592 46.556 189.527 44.4392 192.007 44.3101L235.078 41.7193L241.635 41.7255C244.249 41.5893 246.449 43.7041 246.479 46.3816L247.438 132.537C247.469 135.277 245.217 137.467 242.544 137.297Z" fill="#1D4CB5"/>
<path d="M235.45 137.297L186.143 134.171C183.741 134.019 181.858 132.002 181.819 129.541L180.539 49.0967C180.498 46.556 182.433 44.4392 184.914 44.3101L234.541 41.7255C237.155 41.5893 239.355 43.7041 239.385 46.3816L240.344 132.537C240.375 135.277 238.123 137.467 235.45 137.297Z" fill="#739AF0"/>
<path d="M236.369 126.661C236.377 127.326 185.711 124.304 185.701 123.706L185.682 122.525V122.524L185.661 121.194L185.459 108.851L185.457 108.747L185.452 108.399L185.103 87.0847V87.0644L185.098 86.7033V86.7019L184.885 73.6952L184.506 50.5175C184.495 49.9003 184.978 49.386 185.597 49.3547L213.57 47.9355H213.571L216.327 47.7958L216.551 47.7835L221.64 47.5257L222.56 47.4795L225.899 47.3101L234.261 46.8853C234.914 46.8527 235.462 47.3671 235.471 48.0168L235.519 52.2393L235.542 54.2921L235.565 56.3234L235.673 65.7251L235.834 79.8118L236.107 103.68V103.681L236.237 115.099V115.1L236.251 116.327L236.274 118.379L236.301 120.764L236.35 125.011L236.369 126.661Z" fill="white"/>
<path d="M211.514 130.156C211.874 132.93 210.012 134.39 207.594 134.134C205.861 133.951 203.795 132.674 204.195 130.484C204.482 128.914 205.981 128.006 207.714 127.82C210.434 127.528 211.308 128.574 211.514 130.156Z" fill="#CAD4DE"/>
<path d="M138.526 17.3658C138.526 8.92998 142.539 -0.0586548 155.492 -0.0586548C163.928 -0.0586548 171.151 7.13865 172 15.5316C173.032 25.7342 166.841 31.9245 154.647 33.1854C146.255 34.0531 138.526 27.9123 138.526 17.3658Z" fill="white"/>
<path d="M153.391 31.2341C150.248 31.2341 147.31 30.1251 145 28.0415C142.149 25.4705 140.579 21.6386 140.579 17.2516C140.579 14.3424 141.131 10.179 143.762 6.86717C146.34 3.62093 150.278 1.97498 155.466 1.97498C162.696 1.97498 169.198 8.10775 169.96 15.6459C170.86 24.5467 165.474 30.0566 154.794 31.1611C154.323 31.2099 153.854 31.2341 153.391 31.2341ZM155.466 2.89218C151.266 2.89218 141.496 4.29147 141.496 17.2517C141.496 21.3756 142.959 24.9658 145.614 27.3607C148.069 29.5752 151.296 30.6008 154.699 30.249C159.764 29.7253 163.572 28.2041 166.017 25.7279C168.45 23.2645 169.469 19.9035 169.048 15.7381C168.332 8.65489 162.239 2.89218 155.466 2.89218Z" fill="#21784F"/>
<path d="M155.398 26.0868L155.237 25.038C155.178 24.6565 154.84 24.3866 154.454 24.403C153.546 24.4418 152.637 24.3194 151.909 24.0759C151.556 23.9575 151.347 23.595 151.415 23.2289L151.461 22.976C151.543 22.5333 151.993 22.264 152.423 22.3972C153.253 22.6542 154.236 22.7684 155.232 22.6155C156.931 22.355 157.529 21.0953 157.314 19.6929C157.107 18.3397 156.44 17.7211 154.557 17.2546C151.967 16.6446 149.379 15.8819 149.051 13.7414C148.765 11.8758 149.624 9.81514 152.428 9.29477C152.763 9.23268 152.922 8.83028 152.871 8.49398L152.694 7.34511C152.632 6.93559 152.913 6.55272 153.322 6.48999C153.732 6.42713 154.115 6.7082 154.177 7.11772L154.324 8.07554C154.382 8.44961 154.709 8.72512 155.087 8.71141C155.848 8.6836 156.481 8.77557 157.009 8.92057C157.388 9.02456 157.618 9.40756 157.54 9.79224L157.49 10.0354C157.404 10.4593 156.978 10.7159 156.56 10.6043C155.973 10.4474 155.175 10.3358 154.18 10.4881C152.339 10.7708 151.819 12.0089 151.97 12.993C152.166 14.2723 153.474 14.1972 155.691 14.7637C158.313 15.4191 160.092 16.6363 160.63 18.7857C161.203 21.0782 160.085 22.9125 157.161 23.8318C156.835 23.934 156.666 24.2964 156.717 24.6331L156.905 25.856C156.968 26.2655 156.687 26.6485 156.277 26.7112L156.253 26.7148C155.843 26.7773 155.461 26.4963 155.398 26.0868Z" fill="#436FD0"/>
<path d="M152.474 54.6218C152.474 49.7046 154.812 44.4652 162.363 44.4652C167.28 44.4652 171.49 48.6605 171.985 53.5527C172.586 59.4996 168.978 63.1079 161.87 63.8429C156.979 64.3486 152.474 60.7692 152.474 54.6218Z" fill="white"/>
<path d="M161.139 62.7055C159.307 62.7055 157.594 62.0591 156.248 60.8446C154.586 59.3459 153.671 57.1123 153.671 54.5552C153.671 52.8595 153.993 50.4327 155.526 48.5022C157.029 46.61 159.324 45.6506 162.348 45.6506C166.563 45.6506 170.353 49.2253 170.797 53.6193C171.322 58.8075 168.182 62.0192 161.957 62.663C161.682 62.6914 161.409 62.7055 161.139 62.7055ZM162.348 46.1852C159.9 46.1852 154.205 47.0009 154.205 54.5553C154.205 56.9591 155.058 59.0517 156.606 60.4477C158.037 61.7385 159.918 62.3364 161.902 62.1313C164.854 61.826 167.073 60.9394 168.499 59.496C169.916 58.0601 170.511 56.101 170.265 53.673C169.848 49.5443 166.296 46.1852 162.348 46.1852Z" fill="#21784F"/>
<path d="M162.308 59.7052L162.214 59.0938C162.18 58.8715 161.983 58.7141 161.758 58.7237C161.229 58.7463 160.699 58.675 160.275 58.533C160.069 58.4641 159.947 58.2527 159.986 58.0394L160.013 57.892C160.061 57.6339 160.323 57.4769 160.574 57.5546C161.058 57.7044 161.631 57.7709 162.212 57.6818C163.201 57.53 163.55 56.7957 163.425 55.9783C163.304 55.1895 162.916 54.8289 161.818 54.557C160.308 54.2014 158.8 53.7569 158.609 52.5092C158.442 51.4217 158.943 50.2206 160.577 49.9173C160.772 49.8811 160.865 49.6465 160.835 49.4505L160.732 48.7808C160.696 48.5421 160.859 48.319 161.098 48.2824C161.337 48.2457 161.56 48.4096 161.597 48.6483L161.682 49.2066C161.716 49.4246 161.907 49.5852 162.127 49.5772C162.57 49.561 162.939 49.6146 163.247 49.6992C163.468 49.7598 163.602 49.983 163.556 50.2072L163.528 50.349C163.477 50.5961 163.229 50.7456 162.985 50.6806C162.643 50.5891 162.178 50.5241 161.598 50.6129C160.525 50.7776 160.222 51.4993 160.31 52.0729C160.424 52.8187 161.186 52.7748 162.479 53.1051C164.007 53.4871 165.044 54.1966 165.357 55.4494C165.692 56.7858 165.04 57.8549 163.335 58.3908C163.146 58.4503 163.047 58.6616 163.077 58.8578L163.186 59.5706C163.223 59.8093 163.059 60.0326 162.82 60.0692L162.806 60.0713C162.568 60.1077 162.344 59.9439 162.308 59.7052Z" fill="#436FD0"/>
<path d="M147.947 145.862V143.546L181.819 143.337L181.771 145.862H147.947Z" fill="#436FD0"/>
<path d="M149.275 143.481C152.357 140.917 159.388 138.661 171.485 140.202C179.362 141.206 183.478 144.253 181.204 146.905C178.44 150.13 170.398 151.275 158.549 150.208C150.396 149.474 145.421 146.688 149.275 143.481Z" fill="#436FD0"/>
<path d="M149.275 141.252C152.357 138.687 159.388 136.432 171.485 137.972C179.362 138.976 183.478 142.023 181.204 144.675C178.44 147.9 170.398 149.045 158.549 147.978C150.396 147.244 145.421 144.458 149.275 141.252Z" fill="white"/>
<path d="M166.304 147.829C164.245 147.829 161.982 147.719 159.526 147.498C154.417 147.038 150.902 145.653 150.351 143.885C150.019 142.823 150.79 141.901 151.495 141.314C153.149 139.938 158.32 136.905 170.583 138.467C175.355 139.075 178.761 140.598 179.472 142.443C179.754 143.176 179.596 143.921 179.015 144.598C177.806 146.009 175.485 146.972 172.117 147.46C170.419 147.706 168.476 147.829 166.304 147.829ZM151.83 141.717C150.984 142.421 150.655 143.098 150.852 143.729C151.331 145.267 154.754 146.541 159.573 146.975C169.578 147.876 176.342 146.911 178.617 144.257C179.07 143.728 179.193 143.181 178.982 142.632C178.35 140.993 175.028 139.562 170.517 138.987C165.837 138.391 161.719 138.419 158.28 139.07C154.784 139.732 152.843 140.875 151.83 141.717Z" fill="#436FD0"/>
<path d="M161.843 145.91L162.076 145.572C162.161 145.449 161.944 145.326 161.577 145.286C160.715 145.189 159.91 145.044 159.32 144.883C159.034 144.805 158.971 144.67 159.167 144.567L159.304 144.496C159.542 144.371 160.06 144.343 160.413 144.434C161.094 144.611 161.971 144.763 162.957 144.835C164.638 144.957 165.658 144.646 165.969 144.194C166.269 143.758 165.873 143.49 164.285 143.125C162.089 142.631 159.951 142.091 160.427 141.402C160.841 140.801 162.397 140.276 165.205 140.452C165.54 140.472 165.836 140.369 165.911 140.261L166.166 139.89C166.257 139.758 166.659 139.676 167.065 139.705C167.47 139.735 167.725 139.866 167.634 139.998L167.421 140.306C167.338 140.427 167.543 140.55 167.901 140.59C168.621 140.672 169.179 140.776 169.619 140.882C169.935 140.959 170.01 141.103 169.797 141.211L169.662 141.279C169.426 141.397 168.934 141.425 168.585 141.341C168.094 141.223 167.39 141.094 166.405 141.023C164.582 140.889 163.644 141.204 163.425 141.521C163.141 141.933 164.39 142.066 166.253 142.502C168.462 143.013 169.679 143.595 169.396 144.312C169.093 145.077 167.38 145.502 164.313 145.433C163.972 145.426 163.681 145.516 163.606 145.624L163.334 146.019C163.243 146.151 162.841 146.234 162.436 146.204L162.412 146.202C162.007 146.173 161.752 146.042 161.843 145.91Z" fill="#436FD0"/>
<path d="M85.5771 144.28V142.679L108.995 142.534L108.961 144.28H85.5771Z" fill="#436FD0"/>
<path d="M86.4948 142.635C88.6257 140.862 93.4867 139.302 101.85 140.367C107.297 141.061 110.142 143.168 108.57 145.002C106.659 147.231 101.098 148.023 92.9067 147.285C87.2698 146.778 83.8309 144.851 86.4948 142.635Z" fill="#436FD0"/>
<path d="M86.4948 141.093C88.6257 139.32 93.4867 137.761 101.85 138.826C107.297 139.52 110.142 141.626 108.57 143.46C106.659 145.689 101.098 146.481 92.9067 145.743C87.2698 145.236 83.8309 143.31 86.4948 141.093Z" fill="white"/>
<path d="M98.2679 145.641C96.8447 145.641 95.2797 145.564 93.5818 145.411C90.0499 145.093 87.6193 144.136 87.2384 142.914C87.0093 142.179 87.5421 141.542 88.0293 141.136C89.1729 140.185 92.7484 138.088 101.227 139.168C104.526 139.588 106.88 140.641 107.372 141.917C107.567 142.423 107.457 142.938 107.056 143.407C106.22 144.382 104.615 145.048 102.287 145.385C101.113 145.555 99.7693 145.641 98.2679 145.641ZM88.2612 141.415C87.6764 141.902 87.4486 142.37 87.5846 142.806C87.916 143.869 90.2827 144.75 93.6142 145.05C100.532 145.673 105.208 145.006 106.78 143.171C107.094 142.805 107.179 142.427 107.033 142.047C106.596 140.914 104.299 139.925 101.181 139.527C97.9448 139.115 95.0983 139.135 92.7206 139.585C90.3031 140.042 88.9612 140.833 88.2612 141.415Z" fill="#436FD0"/>
<path d="M95.1844 144.313L95.3454 144.08C95.404 143.995 95.2539 143.91 95.0007 143.882C94.4044 143.815 93.8482 143.715 93.4402 143.604C93.2423 143.55 93.1984 143.457 93.3345 143.385L93.4287 143.336C93.5934 143.25 93.9517 143.23 94.1956 143.293C94.6666 143.416 95.2726 143.52 95.9545 143.57C97.1166 143.655 97.8216 143.44 98.0368 143.127C98.2446 142.826 97.9706 142.641 96.8725 142.388C95.354 142.047 93.8763 141.674 94.2051 141.197C94.4916 140.781 95.567 140.419 97.5088 140.54C97.7405 140.554 97.9449 140.483 97.9965 140.408L98.173 140.152C98.2359 140.061 98.514 140.003 98.7943 140.024C99.0746 140.044 99.2508 140.135 99.1878 140.226L99.0407 140.439C98.9833 140.523 99.1252 140.608 99.3727 140.636C99.8706 140.692 100.256 140.764 100.561 140.838C100.779 140.891 100.831 140.99 100.683 141.065L100.59 141.112C100.427 141.194 100.087 141.212 99.8453 141.155C99.5059 141.073 99.0192 140.984 98.3382 140.935C97.0778 140.843 96.4293 141.06 96.2782 141.279C96.0818 141.564 96.9452 141.656 98.2333 141.957C99.7605 142.311 100.602 142.713 100.406 143.209C100.197 143.738 99.012 144.031 96.8916 143.984C96.656 143.979 96.4548 144.041 96.4031 144.116L96.2153 144.389C96.1524 144.48 95.8742 144.537 95.5941 144.517L95.5776 144.516C95.2977 144.495 95.1214 144.405 95.1844 144.313Z" fill="#436FD0"/>
<path d="M145.451 77C145.451 73.8168 146.965 70.425 151.853 70.425C155.036 70.425 157.762 73.1409 158.082 76.3079C158.471 80.1577 156.135 82.4936 151.534 82.9694C148.368 83.2968 145.451 80.9796 145.451 77Z" fill="white"/>
<path d="M151.061 82.233C149.875 82.233 148.766 81.8146 147.895 81.0284C146.819 80.0582 146.227 78.6123 146.227 76.9569C146.227 75.8591 146.435 74.2881 147.427 73.0384C148.4 71.8135 149.886 71.1924 151.844 71.1924C154.572 71.1924 157.026 73.5065 157.313 76.351C157.653 79.7096 155.62 81.7887 151.59 82.2055C151.413 82.2239 151.236 82.233 151.061 82.233ZM151.844 71.5385C150.259 71.5385 146.573 72.0665 146.573 76.9569C146.573 78.513 147.124 79.8678 148.126 80.7714C149.053 81.6071 150.271 81.9941 151.555 81.8613C153.466 81.6637 154.903 81.0897 155.825 80.1553C156.743 79.2258 157.128 77.9575 156.969 76.3858C156.699 73.713 154.4 71.5385 151.844 71.5385Z" fill="#21784F"/>
<path d="M151.818 80.2908L151.757 79.895C151.735 79.751 151.607 79.6492 151.462 79.6554C151.119 79.67 150.776 79.6239 150.502 79.5319C150.368 79.4873 150.289 79.3505 150.315 79.2124L150.332 79.1169C150.363 78.9499 150.533 78.8482 150.695 78.8985C151.008 78.9955 151.379 79.0386 151.755 78.9809C152.396 78.8826 152.622 78.4073 152.541 77.8781C152.463 77.3674 152.211 77.134 151.501 76.958C150.523 76.7278 149.547 76.44 149.423 75.6323C149.315 74.9284 149.639 74.1508 150.697 73.9544C150.824 73.931 150.884 73.7792 150.864 73.6523L150.798 73.2187C150.774 73.0642 150.88 72.9197 151.035 72.8961C151.189 72.8724 151.334 72.9784 151.357 73.1329L151.413 73.4944C151.434 73.6355 151.558 73.7395 151.701 73.7343C151.988 73.7238 152.226 73.7585 152.426 73.8132C152.569 73.8525 152.656 73.997 152.626 74.1422L152.608 74.2339C152.575 74.3939 152.414 74.4907 152.256 74.4486C152.035 74.3894 151.734 74.3472 151.358 74.4047C150.664 74.5114 150.467 74.9786 150.524 75.3499C150.598 75.8327 151.092 75.8043 151.928 76.0181C152.918 76.2654 153.589 76.7247 153.792 77.5357C154.008 78.4008 153.586 79.093 152.483 79.4398C152.36 79.4784 152.296 79.6152 152.316 79.7422L152.387 80.2036C152.41 80.3582 152.304 80.5027 152.15 80.5264L152.141 80.5277C151.986 80.5513 151.842 80.4453 151.818 80.2908Z" fill="#436FD0"/>
<path d="M154.893 95.0477C143.058 88.983 126.595 79.0985 115.375 66.4475C112.775 63.5162 111.825 62.3453 110.556 60.3451C109.535 58.7354 105.678 59.4747 103.043 61.9413C100.57 64.2557 99.1309 68.7685 99.5609 69.7303C100.292 71.3662 102.074 73.489 104.919 76.8199C114.804 88.3931 130.697 99.24 150.845 108.738L154.893 95.0477Z" fill="#F7B686"/>
<path d="M110.999 103.648C110.999 103.648 110.949 104.954 110.714 107.534C110.496 110.115 110.078 113.968 109.357 119.061C109.307 119.413 109.257 119.782 109.206 120.167C109.106 120.787 109.022 121.44 108.921 122.111C108.921 122.111 108.905 122.127 108.905 122.144L108.888 122.261C108.519 124.775 108.067 127.556 107.514 130.588L56.749 130.772L57.3843 124.614L57.9887 120.335L58.257 118.14L58.3405 117.486L59.7983 105.306L86.9904 101.888C86.9904 101.888 86.9233 103.513 86.6216 106.697L110.999 103.648Z" fill="#436E8E"/>
<path d="M56.2075 118.363C56.1165 120.408 68.4002 122.085 83.6967 122.681C98.9931 123.277 111.338 122.023 111.429 119.978C111.52 117.934 99.323 115.873 84.0265 115.277C68.7302 114.681 56.2987 116.318 56.2075 118.363Z" fill="#2F1A31"/>
<path d="M64.0022 60.8483C64.0022 60.8483 67.4526 50.3411 87.3734 51.6311C116.101 53.4919 111.589 79.6913 111.429 119.978C111.429 119.978 83.4238 113.991 56.2285 117.86C56.2285 117.86 56.6184 76.755 64.0022 60.8483Z" fill="#21784F"/>
<path d="M56.7598 58.7978L69.2603 66.9074C69.2603 66.9074 97.5562 71.494 105.203 70.7796C112.851 70.0651 115.315 64.6595 115.315 64.6595C115.315 64.6595 107.848 55.763 94.319 52.5774C93.048 52.2764 91.7255 52.028 90.3491 51.841C88.0384 51.5284 85.7117 51.396 83.4215 51.4927C65.9388 52.229 56.7598 58.7978 56.7598 58.7978Z" fill="#3EB785"/>
<path d="M84.8081 48.9907L86.6521 44.245L87.1886 42.8634L90.3444 34.7398L90.1028 43.0241L89.9569 47.9964L89.9109 49.5704C89.8797 50.6388 90.5132 50.9084 91.2387 51.8896C91.5325 52.2873 93.4218 54.7058 91.024 55.5697C88.0371 56.6463 82.7575 54.3276 80.877 51.644C80.8931 51.6418 84.2121 50.5242 84.8081 48.9907Z" fill="#F7B686"/>
<path d="M108.91 121.46C108.91 121.46 92.7143 115.433 57.9948 119.706L57.3848 124.614L107.469 129.916L108.91 121.46Z" fill="#436E8E"/>
<path d="M97.7754 119.14C97.7754 119.14 90.4679 118.445 87.2176 124.248C87.2176 124.248 89.2193 118.369 86.133 118.246C84.8566 118.195 87.4642 117.514 87.4642 117.514L97.7754 119.14Z" fill="#2F1A31"/>
<path d="M56.4581 59.0899C55.0583 60.8083 57.075 64.8326 60.9624 68.0782C64.8501 71.3239 69.1362 72.5619 70.5361 70.8435C71.9359 69.1251 69.9191 65.1009 66.0316 61.8551C62.1441 58.6095 57.8578 57.3715 56.4581 59.0899Z" fill="#2F1A31"/>
<path d="M69.5163 70.9683C69.3696 71.1772 69.2299 71.3807 69.0941 71.58C67.7739 73.519 66.8866 75.1487 64.9802 78.9139C61.9166 84.9613 59.314 91.5962 57.1091 98.3562C53.4713 109.507 50.9138 120.996 49.1579 130.752L36.7672 130.79L35.6152 126.102C39.3221 102.916 44.7808 84.6723 52.2896 70.4241C52.9477 69.1772 53.5405 68.0551 54.0833 67.0536C55.0628 65.2436 55.8783 63.8273 56.6097 62.7674C56.9653 62.2545 57.3004 61.8257 57.6247 61.477C57.9435 61.1339 58.8757 60.9301 60.0643 60.9397C61.1498 60.9479 62.4495 61.1339 63.6884 61.5518C64.5065 61.8272 65.299 62.2045 65.9869 62.6983C67.4957 63.7808 68.6829 65.3712 69.3466 66.9208C69.4402 67.1406 69.5243 67.3603 69.5962 67.5775C70.048 68.9276 70.0672 70.1827 69.5163 70.9683Z" fill="#F7B686"/>
<path d="M97.1839 32.0865C97.1839 32.0865 97.5675 34.1334 96.8659 36.6169C96.1642 39.1004 94.0361 32.7255 94.0361 32.7255L97.1839 32.0865Z" fill="#56335B"/>
<path d="M97.1195 37.3652C96.822 32.4474 93.2746 28.6606 89.1961 28.9074C85.1178 29.154 82.0526 33.3406 82.35 38.2584C82.6475 43.1764 86.1949 46.9629 90.2733 46.7164C94.3518 46.4697 97.4168 42.2828 97.1195 37.3652Z" fill="#F7B686"/>
<path d="M82.3448 35.698L85.943 35.5782C86.7339 35.5519 87.4821 35.1805 87.9539 34.545C88.7661 33.4508 89.6885 32.9244 93.012 33.2836C97.2204 33.7384 100.183 31.4185 100.794 29.2428C101.418 27.0219 99.3657 25.3428 97.1709 26.2683C94.976 27.194 96.0709 24.623 94.0526 24.2002C90.2808 23.4101 89.3611 26.2956 86.2499 25.9811C82.1704 25.5688 74.6288 28.1612 77.5967 35.602L82.3448 35.698Z" fill="#2F1A31"/>
<path d="M90.1491 37.4663C90.1894 37.4447 90.2191 37.4053 90.2266 37.3569C90.2391 37.275 90.1833 37.1986 90.1015 37.186C90.0534 37.1785 88.9529 36.9009 88.3082 38.0462C88.2677 38.1185 88.2898 38.2097 88.3614 38.2517C88.4328 38.2938 88.5101 38.2594 88.5668 38.1984C89.133 37.592 90.0156 37.4765 90.0558 37.4824C90.0891 37.4875 90.1214 37.4811 90.1491 37.4663Z" fill="#060633"/>
<path d="M89.3657 39.3399C89.4354 39.6908 89.6984 39.9344 89.9531 39.8837C90.2079 39.8331 90.3578 39.5076 90.2881 39.1566C90.2184 38.8056 89.9553 38.562 89.7006 38.6127C89.4458 38.6633 89.296 38.9887 89.3657 39.3399Z" fill="#060633"/>
<path d="M95.7153 37.4108C95.7503 37.4073 95.7827 37.3833 95.8012 37.342C95.8329 37.2723 95.8133 37.1801 95.7575 37.1356C95.7245 37.1095 95.0017 36.4142 94.2199 37.2018C94.1706 37.2514 94.162 37.3437 94.2022 37.4107C94.2427 37.4778 94.308 37.4773 94.3659 37.4446C94.9431 37.1179 95.6153 37.3666 95.6427 37.3881C95.6658 37.4062 95.691 37.4134 95.7153 37.4108Z" fill="#060633"/>
<path d="M94.2424 38.8483C94.1732 39.1993 94.3236 39.5246 94.5786 39.5749C94.8333 39.6251 95.096 39.3812 95.1652 39.0301C95.2343 38.6789 95.0838 38.3538 94.829 38.3034C94.5743 38.2533 94.3116 38.4972 94.2424 38.8483Z" fill="#060633"/>
<path d="M77.5967 35.6019C77.5967 35.6019 79.6893 41.0987 83.1602 41.7351C83.1602 41.7351 80.6164 37.4793 86.7523 35.4256C86.7523 35.4256 81.3386 34.1799 77.5967 35.6019Z" fill="#56335B"/>
<path d="M82.322 38.8863C83.0366 39.4148 83.9991 39.3257 84.4715 38.6869C84.9438 38.0481 84.7473 37.1017 84.0326 36.5732C83.318 36.0447 82.3554 36.1339 81.8833 36.7726C81.4109 37.4112 81.6074 38.3577 82.322 38.8863Z" fill="#F7B686"/>
<path d="M86.7525 35.4256C86.7525 35.4256 85.9611 39.8595 86.811 40.7681C87.661 41.6762 93.6394 42.4615 96.5176 41.5756C96.3627 44.4479 94.1625 46.8387 91.2991 47.1154C90.3521 47.207 89.3834 47.14 88.4333 46.9042C86.4959 46.4235 84.646 45.4784 83.965 43.6019C83.7577 43.0311 84.713 39.6752 84.713 39.6752C84.713 39.6752 85.1224 37.695 84.0326 36.5733C84.0326 36.5733 85.46 35.4609 86.7525 35.4256Z" fill="#56335B"/>
<path d="M94.9246 43.0829C94.9246 43.0829 92.5804 43.544 90.084 43.124C90.084 43.124 90.2893 45.4775 92.8652 45.1923C94.3633 45.0266 94.9246 43.0829 94.9246 43.0829Z" fill="white"/>
<path d="M96.8035 25.8885C95.6367 25.8427 95.6027 24.8455 95.6025 24.8354L95.8043 24.8312L95.7034 24.8333L95.8043 24.8308C95.8052 24.8643 95.838 25.6487 96.8116 25.6869L96.8035 25.8885Z" fill="#2F1A31"/>
<path d="M94.2909 32.1848L94.2695 32.0861C94.3157 32.0761 98.8986 31.0605 99.247 28.7624C99.3455 28.1125 99.2666 27.6708 99.006 27.4125C98.5882 26.9982 97.7646 27.1303 97.0381 27.2468C96.9263 27.2647 96.8172 27.2823 96.7123 27.2974L96.698 27.1975C96.8023 27.1825 96.9109 27.1651 97.0221 27.1472C97.7725 27.0268 98.623 26.8905 99.077 27.3407C99.3622 27.6236 99.4504 28.0935 99.3468 28.7775C99.1979 29.76 98.2741 30.6612 96.6753 31.3836C95.4748 31.926 94.3025 32.1823 94.2909 32.1848Z" fill="white"/>
<path d="M86.4122 26.8989C85.8091 26.8989 85.151 26.8369 84.4375 26.6888L84.4579 26.59C86.726 27.0605 88.4125 26.6448 89.4279 26.2131C90.5284 25.7451 91.0999 25.1582 91.1056 25.1524L91.1785 25.2221C91.1593 25.2423 89.5267 26.8989 86.4122 26.8989Z" fill="white"/>
<path d="M46.4667 100.057C46.3374 100.057 46.208 100.043 46.0797 100.012C44.8382 99.7169 44.1664 98.0554 44.582 96.3083C44.9976 94.5615 46.3456 93.3813 47.587 93.6757C48.8285 93.971 49.5005 95.6326 49.085 97.3796C48.7122 98.9461 47.5897 100.057 46.4667 100.057ZM45.1767 96.45C44.8451 97.8448 45.3233 99.2037 46.2212 99.4172C47.1185 99.6308 48.1581 98.633 48.4899 97.2379C48.8218 95.8432 48.3434 94.4843 47.4454 94.2707C46.5481 94.0574 45.5086 95.0551 45.1767 96.45Z" fill="#E08B65"/>
<path d="M170.42 99.5656C170.157 99.2991 169.806 99.0434 169.39 98.7992C172.44 97.8519 172.345 96.3915 167.313 95.5328C164.846 95.1117 160.527 93.551 157.338 93.7636C155.132 93.9108 153.476 94.3148 153.476 94.3148C152.267 94.1711 144.625 105.624 144.818 105.793C151.898 110.914 163.667 113.979 165.632 113.26C167.608 112.537 166.468 110.847 168.009 110.067C169.648 109.238 168.395 107.415 169.552 106.644C170.709 105.872 170.444 104.648 170.155 103.293C169.865 101.938 171.913 101.079 170.42 99.5656Z" fill="#F7B686"/>
<path d="M203.436 65.8612C203.204 66.3672 203.001 66.8314 202.809 67.3022C202.234 68.7173 201.769 70.1759 200.957 72.9154C200.458 74.6005 200.138 76.3943 199.948 78.2654C199.938 78.3507 199.93 78.4364 199.922 78.5219C199.917 78.5815 199.911 78.6412 199.906 78.7009C199.259 85.8651 200.463 94.093 200.984 101.523C201.029 102.147 201.067 102.766 201.1 103.378C201.106 103.485 201.112 103.593 201.116 103.701C201.117 103.713 201.117 103.724 201.119 103.736C201.299 107.37 201.242 110.758 200.633 113.663C200.517 114.216 200.381 114.751 200.221 115.268C200.071 115.758 199.902 116.23 199.709 116.683C199.323 117.6 196.839 120.767 195.913 121.376C195.9 121.384 195.847 123.435 195.302 123.572C195.293 123.575 193.453 125.229 193.18 125.225C187.816 125.155 185.939 125.225 185.701 123.706C185.701 123.706 183.432 113.498 183.111 109.322C183.11 109.308 183.11 109.295 183.108 109.281C183.099 109.167 183.091 109.053 183.082 108.941C183.072 108.808 183.062 108.676 183.054 108.545C182.804 105.126 182.658 101.796 182.618 98.569C182.571 94.9855 182.654 91.5324 182.867 88.2325C182.867 88.2257 182.867 88.2202 182.868 88.2149C182.876 88.0928 182.883 87.9706 182.892 87.8485C183.238 82.7251 183.901 77.9761 184.884 73.6952C186.101 68.3995 187.808 63.8201 190.017 60.1349C190.017 60.1349 190.019 60.1321 190.023 60.1282C190.051 60.0819 190.099 60.0344 190.164 59.9884C190.165 59.9884 190.165 59.9884 190.165 59.9871C191.066 59.3466 195.172 58.7876 197.932 59.2936C198.48 59.394 198.975 59.5379 199.382 59.7292C202.164 61.0455 204.188 64.2275 203.436 65.8612Z" fill="#21784F"/>
<path d="M219.977 126.881L218.007 126.759L206.681 126.06H206.67L199.147 125.595L195.63 125.378L193.179 125.226H193.166C193.101 124.625 193.038 124.034 192.978 123.455C192.951 123.192 192.924 122.931 192.898 122.672C192.835 122.032 192.774 121.405 192.715 120.792C192.661 120.218 192.608 119.655 192.559 119.104C192.525 118.721 192.492 118.344 192.46 117.973L192.457 117.946L192.456 117.929L192.453 117.899C192.452 117.887 192.452 117.876 192.451 117.864V117.862C192.394 117.207 192.341 116.568 192.293 115.948C192.263 115.577 192.235 115.211 192.208 114.853C191.982 111.853 191.837 109.292 191.745 107.177C191.744 107.126 191.742 107.075 191.74 107.025C191.734 106.907 191.73 106.79 191.725 106.675C191.536 102.058 191.607 99.713 191.607 99.713L200.984 101.523L204.107 102.125L204.3 102.164L204.463 102.195L204.695 102.239L214.569 104.146L216.225 104.465L218.803 104.963L219.259 113.469L219.338 114.949L219.419 116.465L219.659 120.968L219.908 125.592L219.977 126.881Z" fill="#436E8E"/>
<path d="M236.349 125.011L236.301 120.764L236.273 118.379L236.25 116.328L236.237 115.101V115.1L236.107 103.682V103.681L217.641 101.667L214.336 101.306C214.336 101.306 214.386 102.261 214.569 104.146C214.632 104.793 214.71 105.552 214.809 106.417C215.016 108.249 215.309 110.568 215.72 113.364C215.79 113.852 215.867 114.353 215.945 114.871C216.016 115.332 216.089 115.805 216.166 116.29C216.393 117.723 216.647 119.256 216.93 120.888C217.193 122.397 217.482 123.99 217.8 125.667C217.868 126.027 217.937 126.392 218.007 126.759L219.978 126.881L235.147 127.817C235.815 127.86 236.376 127.326 236.368 126.661L236.349 125.011Z" fill="#436E8E"/>
<path d="M236.25 116.327L236.273 118.379L236.3 120.764C231.801 121.057 226.022 121.127 219.66 120.968C219.048 120.953 218.429 120.935 217.806 120.916C217.513 120.907 217.22 120.897 216.93 120.888C215.888 120.85 214.862 120.806 213.854 120.755C213.65 120.744 213.447 120.733 213.245 120.722H213.243C207.433 120.409 202.252 119.865 198.264 119.196C195.878 118.795 193.92 118.35 192.512 117.883H192.511C192.49 117.877 192.471 117.87 192.451 117.863V117.862C191.033 117.387 190.186 116.889 190.04 116.393C190.023 116.336 190.015 116.28 190.017 116.224C190.018 116.211 190.018 116.197 190.019 116.184C190.03 116.074 190.078 115.967 190.158 115.862C190.441 115.492 191.146 115.154 192.208 114.853C194.051 114.333 196.968 113.926 200.633 113.663C204.842 113.36 210.035 113.246 215.719 113.364C216.47 113.381 217.23 113.399 217.998 113.424C218.421 113.437 218.841 113.452 219.26 113.469C225.755 113.718 236.25 116.327 236.25 116.327Z" fill="#2F1A31"/>
<path d="M236.236 115.101V115.1L236.106 103.682V103.68L235.833 79.8122L235.672 65.7255L235.565 56.3238L235.542 54.2925C233.324 52.7065 230.771 51.3239 227.856 50.3659H227.855C227.084 50.1123 226.288 49.8884 225.466 49.6984C223.502 49.2438 221.392 48.982 219.132 48.9699C218.305 48.9657 217.507 48.982 216.731 49.0201C216.155 49.0485 215.593 49.0891 215.045 49.1422H215.044C213.791 49.2603 212.609 49.4392 211.491 49.6782H211.49C205.102 51.0404 200.839 54.3361 197.931 59.294C196.846 61.1407 195.95 63.2195 195.204 65.5139C193.939 69.3904 193.099 73.8842 192.492 78.9305C192.49 78.9319 192.49 78.9332 192.492 78.9345C192.473 79.0836 192.455 79.2329 192.437 79.3837V79.385C192.303 80.5274 192.181 81.697 192.068 82.8937V82.8951C192.057 83.0078 192.046 83.1203 192.036 83.2344C192.033 83.2601 192.031 83.2859 192.029 83.313C191.379 90.347 191.035 98.3021 190.563 107.025C190.557 107.145 190.55 107.264 190.544 107.383C190.54 107.436 190.537 107.489 190.535 107.543C190.403 109.96 190.261 112.436 190.098 114.968C190.098 114.969 190.098 114.971 190.098 114.972C190.072 115.375 190.046 115.778 190.019 116.184C190.018 116.197 190.018 116.211 190.017 116.224C190.017 116.224 190.073 116.216 190.185 116.201C190.491 116.161 191.213 116.067 192.293 115.948C194.059 115.753 196.783 115.489 200.22 115.268C204.512 114.992 209.913 114.786 215.945 114.87C217.056 114.887 218.187 114.911 219.338 114.949C224.68 115.119 230.418 115.532 236.25 116.327L236.236 115.101Z" fill="#21784F"/>
<path d="M235.672 65.7255C233.352 65.9276 225.196 66.6195 217.057 67.0389C217.03 67.0389 217.003 67.0403 216.976 67.0429C216.753 67.0536 216.531 67.0646 216.308 67.0755C216.128 67.0849 215.947 67.093 215.767 67.1025C213.917 67.1908 212.087 67.2626 210.342 67.3089H210.341C207.504 67.3874 204.894 67.397 202.809 67.3021C201.608 67.2477 200.581 67.1582 199.784 67.0266C197.957 66.7253 196.445 66.1773 195.204 65.5137C191.236 63.3998 190.017 60.1352 190.017 60.1352C190.017 60.1352 190.018 60.1323 190.022 60.1284C190.038 60.1134 190.086 60.0647 190.163 59.9886C190.165 59.9886 190.165 59.9886 190.165 59.9873C191.315 58.8651 199.099 51.6643 211.654 49.5002C211.787 49.4772 211.921 49.454 212.056 49.4324C213.053 49.2696 214.077 49.1393 215.132 49.0457C215.456 49.0173 215.784 48.9929 216.114 48.9712C216.312 48.9576 216.51 48.9466 216.71 48.94C217.556 48.9007 218.402 48.8965 219.244 48.917C219.246 48.917 219.246 48.917 219.246 48.917C220.548 48.9426 221.844 49.0241 223.129 49.1109C223.92 49.1652 224.685 49.2384 225.425 49.3306C225.426 49.3306 225.426 49.3306 225.427 49.3306C226.373 49.446 227.278 49.5925 228.144 49.7647C231.004 50.3346 233.442 51.195 235.518 52.2396L235.541 54.2925L235.565 56.3238L235.672 65.7255Z" fill="#21784F"/>
<path d="M236.349 125.011L219.909 125.592L217.8 125.667L206.682 126.06H206.671L199.147 125.595L195.841 125.39L195.768 125.386L195.631 125.378L193.509 125.246C193.628 124.885 193.915 124.582 194.305 124.466C194.338 124.456 192.926 122.665 192.926 122.665L192.74 120.79L192.575 119.114L192.461 117.973L192.458 117.946L192.457 117.929L192.454 117.899C192.454 117.899 192.473 117.893 192.511 117.882H192.513C192.906 117.774 195.289 117.147 199.709 116.683C200.934 116.553 202.314 116.436 203.853 116.346C203.853 116.346 203.856 116.346 203.86 116.346C207.08 116.158 210.986 116.087 215.592 116.268C215.616 116.268 215.639 116.268 215.663 116.269C215.83 116.276 215.997 116.283 216.166 116.289C217.215 116.334 218.299 116.393 219.42 116.465C224.348 116.781 229.963 117.376 236.273 118.379L236.301 120.764L236.349 125.011Z" fill="#436E8E"/>
<path d="M203.853 116.347C203.853 116.347 211.275 116.164 214.143 122.249C214.143 122.249 212.54 116.175 215.663 116.269C216.954 116.308 214.371 115.437 214.371 115.437L203.853 116.347Z" fill="#2F1A31"/>
<path d="M210.619 28.5555C210.619 28.5555 210.087 30.5935 210.619 33.1491C211.151 35.7043 213.75 29.4232 213.75 29.4232L210.619 28.5555Z" fill="#56335B"/>
<path d="M225.687 49.4444C223.598 52.0178 219.847 51.6555 216.911 50.3585C214.551 49.3156 214.889 49.3359 215.214 48.9567C216.013 48.0188 216.674 47.7919 216.718 46.712L216.775 45.2965L216.782 45.1206L216.857 43.2752L216.989 40.0923L217.331 31.7188L219.942 40.1364L220.385 41.5687L221.909 46.4885C222.4 48.0763 225.67 49.441 225.687 49.4444Z" fill="#F7B686"/>
<path d="M220.791 42.889C220.791 42.889 219.443 44.9072 216.775 45.2964L216.782 45.1205L216.857 43.2751C218.299 43.1362 220.791 42.889 220.791 42.889Z" fill="#2F1A31"/>
<path d="M210.31 33.886C210.959 28.9453 214.806 25.376 218.904 25.9139C223.002 26.452 225.797 30.8932 225.149 35.8339C224.5 40.7746 220.652 44.3439 216.555 43.8059C212.457 43.2681 209.662 38.8267 210.31 33.886Z" fill="#F7B686"/>
<path d="M216.233 34.5423C216.189 34.5309 216.15 34.4995 216.131 34.4535C216.099 34.3763 216.135 34.2879 216.212 34.2555C216.258 34.2366 217.272 33.698 218.182 34.6671C218.239 34.7283 218.239 34.8232 218.179 34.8818C218.119 34.9402 218.035 34.9252 217.964 34.8794C217.262 34.4203 216.367 34.5204 216.329 34.5359C216.297 34.5489 216.264 34.5503 216.233 34.5423Z" fill="#060633"/>
<path d="M212.206 34.5047C212.171 34.5034 212.136 34.4814 212.114 34.4412C212.078 34.3732 212.091 34.2786 212.144 34.2299C212.176 34.2011 212.856 33.4491 213.7 34.1892C213.753 34.2357 213.769 34.3284 213.733 34.3987C213.697 34.4693 213.63 34.4735 213.57 34.4446C212.964 34.1552 212.304 34.4532 212.277 34.4767C212.256 34.4964 212.231 34.5053 212.206 34.5047Z" fill="#060633"/>
<path d="M212.923 38.6422C212.923 38.6422 215.256 39.2734 217.804 39.0268C217.804 39.0268 217.43 41.3868 214.851 40.9164C213.352 40.6432 212.923 38.6422 212.923 38.6422Z" fill="white"/>
<path d="M219.083 50.7721C219.083 50.7721 215.536 49.6751 214.593 50.5266C213.65 51.3781 214.344 55.2741 215.977 55.6203C217.61 55.9668 220.698 51.7118 219.083 50.7721Z" fill="#6896FB"/>
<path d="M216.999 49.8531C216.999 49.8531 221.629 48.2164 222.532 46.5798C223.435 44.9431 228.229 48.7242 228.146 49.8531C228.063 50.9817 219.429 57.2457 218.864 56.4557C218.3 55.6656 215.868 50.9252 216.999 49.8531Z" fill="#3EB785"/>
<path d="M216.999 49.8531C216.999 49.8531 216.308 48.1348 216.641 47.2021C216.641 47.2021 216.861 46.3824 216.155 46.4388C215.45 46.4953 211.613 49.1759 211.274 49.9941C210.935 50.8123 210.879 54.6498 212.121 54.932C213.362 55.2143 216.355 51.0917 216.707 50.684C217.058 50.2762 216.999 49.8531 216.999 49.8531Z" fill="#3EB785"/>
<path d="M214.984 54.1135C214.984 54.1135 202.781 85.7445 203.595 99.0014C203.595 99.0014 204.455 106.738 209.939 110.914C209.939 110.914 217.341 106.061 218.335 99.0014C219.152 93.2 215.535 59.587 217.623 54.9458L214.984 54.1135Z" fill="#6896FB"/>
<path d="M216.004 55.7054C215.995 55.7054 215.985 55.7053 215.975 55.7053C214.899 55.6873 214.313 53.5822 214.289 53.4925L214.452 53.448C214.458 53.4687 215.028 55.5202 215.978 55.5357C215.987 55.536 215.995 55.536 216.004 55.536C216.97 55.536 217.835 54.6391 217.844 54.63L217.967 54.7467C217.929 54.7863 217.042 55.7054 216.004 55.7054Z" fill="#2F1A31"/>
<path d="M220.907 29.3155C220.907 29.3155 219.104 32.1544 215.154 32.3379C215.154 32.3379 214.685 32.1646 215.364 31.7335C216.043 31.3024 217.006 30.1226 216.75 29.7555C216.494 29.3883 213.576 33.3657 210.534 33.1598C210.534 33.1598 206.308 33.0151 208.763 30.4963C210.286 28.9326 208.763 22.7649 218.859 22.2006C220.334 22.1179 223.52 22.3095 224.705 24.5904C224.705 24.5904 228.714 24.4653 229.53 29.3153C230.758 36.61 224.084 39.284 224.084 39.284C224.084 39.284 225.739 33.0923 223.915 33.8952C221.573 34.9262 220.331 33.597 221.347 32.2531C222.363 30.9092 222.612 28.2463 220.907 29.3155Z" fill="#2F1A31"/>
<path d="M225.132 36.4693C224.373 36.9519 223.409 36.7937 222.977 36.1158C222.546 35.4379 222.811 34.497 223.57 34.0144C224.328 33.5318 225.293 33.69 225.724 34.3679C226.156 35.0458 225.89 35.9866 225.132 36.4693Z" fill="#F7B686"/>
<path d="M227.879 24.9094C227.836 24.9094 227.793 24.8928 227.76 24.8598C226.656 23.7561 224.976 24.1798 224.959 24.1842C224.868 24.2079 224.776 24.1538 224.753 24.0633C224.729 23.9728 224.783 23.8804 224.874 23.8565C224.95 23.8366 226.76 23.3807 227.999 24.6201C228.065 24.6862 228.065 24.7933 227.999 24.8597C227.966 24.8928 227.923 24.9094 227.879 24.9094Z" fill="#2F1A31"/>
<path d="M224.351 23.2586C224.343 23.2586 224.336 23.2581 224.327 23.2569C224.235 23.2439 224.171 23.1592 224.183 23.0668C224.188 23.0273 224.274 22.1773 222.957 21.7257C222.869 21.6955 222.822 21.599 222.852 21.5107C222.882 21.4221 222.979 21.3748 223.067 21.4055C224.662 21.9523 224.525 23.0656 224.519 23.1127C224.507 23.1976 224.434 23.2586 224.351 23.2586Z" fill="#2F1A31"/>
<path d="M192.577 79.4559C192.563 79.4559 192.549 79.4543 192.536 79.4508C192.445 79.4282 192.39 79.3362 192.412 79.2455C193.336 75.5445 194.486 72.2132 195.829 69.3442C195.869 69.2595 195.969 69.2226 196.054 69.2626C196.139 69.3023 196.175 69.4029 196.136 69.4878C194.802 72.3369 193.66 75.6475 192.741 79.3275C192.722 79.4045 192.653 79.4559 192.577 79.4559Z" fill="#2F1A31"/>
<path d="M190.017 116.394C189.93 116.394 189.856 116.327 189.848 116.239C189.847 116.221 189.693 114.405 189.596 111.46C189.593 111.366 189.666 111.288 189.759 111.285C189.761 111.285 189.763 111.285 189.765 111.285C189.856 111.285 189.931 111.357 189.934 111.449C190.032 114.385 190.184 116.193 190.186 116.211C190.194 116.304 190.125 116.386 190.032 116.394C190.026 116.394 190.022 116.394 190.017 116.394Z" fill="#2F1A31"/>
<path d="M212.502 36.2311C212.542 36.5522 212.764 36.7885 212.997 36.7588C213.23 36.7294 213.386 36.4449 213.345 36.1238C213.305 35.8028 213.083 35.5662 212.85 35.5961C212.617 35.6257 212.461 35.91 212.502 36.2311Z" fill="#060633"/>
<path d="M216.353 36.3425C216.394 36.6636 216.616 36.9 216.849 36.8704C217.082 36.8408 217.238 36.5564 217.197 36.2353C217.156 35.9141 216.934 35.6778 216.701 35.7074C216.468 35.7371 216.312 36.0214 216.353 36.3425Z" fill="#060633"/>
<path d="M235.834 79.8122C235.676 79.9898 235.516 80.1662 235.355 80.344C234.085 81.7374 232.702 83.1227 231.226 84.4906C231.224 84.4933 231.223 84.4946 231.222 84.4946C227.478 87.9614 223.13 91.3141 218.431 94.3887C216.108 95.9097 213.7 97.3615 211.238 98.7265C211.232 98.7305 211.223 98.7346 211.217 98.7386C209.002 99.9667 206.743 101.123 204.464 102.195C204.419 102.216 204.374 102.237 204.329 102.257C203.263 102.758 202.191 103.239 201.116 103.701C200.709 103.876 200.301 104.048 199.892 104.216C199.883 104.22 199.873 104.223 199.865 104.227C197.154 105.352 194.434 106.342 191.746 107.177C191.342 107.303 190.939 107.425 190.536 107.543C188.825 108.047 187.129 108.485 185.458 108.851C184.67 109.025 183.887 109.182 183.111 109.322C182.677 109.401 182.244 109.475 181.814 109.543L181.813 109.54L181.677 109.22L180.899 107.376L180.84 107.238L180.811 107.171L179.86 104.916C179.859 104.915 179.857 104.912 179.857 104.909L178.18 100.944C178.179 100.941 178.177 100.938 178.176 100.935L177.856 100.173V100.171L175.34 94.2177L175.327 94.1864L175.271 94.0535L175.2 93.8881L174.499 92.2273C174.785 92.1037 175.078 91.9775 175.377 91.8431C175.378 91.8418 175.38 91.8418 175.381 91.8418C177.593 90.8648 180.127 89.6423 182.867 88.2326C182.88 88.2258 182.894 88.2192 182.907 88.2123C182.909 88.2123 182.91 88.2123 182.91 88.2123C183.628 87.842 184.358 87.4592 185.103 87.0645C187.327 85.8853 189.656 84.6003 192.036 83.2341C194.629 81.7484 197.283 80.1662 199.922 78.5218C201.152 77.7579 202.379 76.979 203.595 76.1907C205.286 75.0944 206.956 73.9872 208.587 72.8854H208.589C209.872 72.0199 211.128 71.1569 212.352 70.3062C213.96 69.1908 215.51 68.0945 216.976 67.0429C217.004 67.0226 217.031 67.0034 217.056 66.9858C224.208 61.8488 229.413 57.716 230.115 56.9059C230.909 55.9901 233.141 55.8746 235.565 56.3238L235.672 65.7255L235.834 79.8122Z" fill="#21784F"/>
<path d="M181.813 109.543C179.38 110.452 175.891 107.249 174.019 102.389C172.147 97.5286 172.603 92.8511 175.036 91.9416C177.469 91.0324 180.958 94.235 182.83 99.0955C184.701 103.956 184.246 108.633 181.813 109.543Z" fill="#2F1A31"/>
<path d="M179.995 107.86C178.121 108.56 175.433 106.093 173.992 102.349C172.55 98.6051 172.9 95.0024 174.775 94.3019C176.649 93.6013 179.337 96.0685 180.778 99.8123C182.22 103.556 181.869 107.159 179.995 107.86Z" fill="#F7B686"/>
<path d="M180.634 107.157C180.654 107.138 180.666 107.127 180.666 107.127L180.178 106.145C179.829 104.623 179.109 102.247 177.731 100.24C178.125 100.04 178.46 99.7169 178.665 99.2899L178.929 98.7384C179.422 97.7077 177.586 94.9383 176.556 94.445C176.556 94.445 171.44 92.9869 167.913 91.1627C160.792 87.4801 157.584 90.7605 162.013 93.2693C162.305 93.4344 164.719 94.7978 166.245 95.6441C166.688 95.89 166.614 96.5487 166.127 96.6898C160.798 98.2329 143.593 103.773 145.143 107.855C146.073 110.304 157.367 104.606 157.31 104.938C157.252 105.27 147.326 108.59 149.983 111.112C151.769 112.808 161.018 109.059 160.883 109.399C160.747 109.738 152.946 112.302 153.624 113.839C154.762 116.423 162.059 112.972 162.104 113.034C162.149 113.096 157.104 115.976 158.551 117.152C159.998 118.328 177.837 113.004 180.784 107.303L180.634 107.157Z" fill="#F7B686"/>
<path d="M164.697 94.9163C164.675 94.9163 164.652 94.9107 164.631 94.899C163.559 94.297 162.124 93.488 161.946 93.3873C160.271 92.4388 159.505 91.2436 159.993 90.3426C160.696 89.0443 163.732 88.8483 167.975 91.0422C171.449 92.8392 176.542 94.3 176.593 94.3144C176.665 94.335 176.707 94.4102 176.686 94.4823C176.665 94.5545 176.591 94.5967 176.518 94.5756C176.467 94.561 171.348 93.0927 167.85 91.2834C163.508 89.0376 160.781 89.4569 160.231 90.4718C159.82 91.2307 160.546 92.2825 162.08 93.1515C162.257 93.252 163.692 94.0607 164.764 94.6624C164.829 94.699 164.852 94.7819 164.816 94.8471C164.791 94.8913 164.745 94.9163 164.697 94.9163Z" fill="#D89364"/>
<path d="M180.87 107.2C180.864 107.193 180.856 107.188 180.846 107.182C180.835 107.177 180.823 107.173 180.811 107.171C180.766 107.161 180.719 107.175 180.686 107.208C180.678 107.218 180.67 107.228 180.663 107.241C180.599 107.364 180.529 107.488 180.451 107.61C180.115 108.144 179.656 108.665 179.115 109.166C178.99 109.283 178.861 109.397 178.727 109.511C178.69 109.542 178.652 109.573 178.615 109.606C178.577 109.637 178.539 109.668 178.501 109.698C177.571 110.459 176.47 111.166 175.35 111.796C175.326 111.809 175.303 111.821 175.28 111.835C175.267 111.842 175.253 111.85 175.24 111.857C175.2 111.88 175.16 111.901 175.119 111.924C174.256 112.401 173.387 112.831 172.579 113.205C172.183 113.388 171.776 113.57 171.359 113.749C171.329 113.762 171.299 113.774 171.269 113.787L171.143 113.84C171.103 113.858 171.06 113.875 171.018 113.895C169.891 114.368 168.708 114.821 167.529 115.232C167.504 115.241 167.481 115.249 167.458 115.257C167.438 115.264 167.417 115.27 167.397 115.277C167.354 115.293 167.31 115.308 167.267 115.322C166.211 115.684 165.162 116.01 164.164 116.285C164.118 116.299 164.071 116.311 164.026 116.323C163.98 116.336 163.936 116.348 163.891 116.36C163.188 116.55 162.514 116.714 161.881 116.846C159.302 117.383 158.746 117.136 158.637 117.046C158.486 116.924 158.417 116.782 158.427 116.608C158.477 115.6 160.984 113.949 161.808 113.406C162.217 113.137 162.225 113.133 162.238 113.06C162.244 113.023 162.236 112.984 162.214 112.954C162.155 112.874 162.146 112.862 161.846 112.981C161.79 113.005 161.724 113.03 161.645 113.063C158.465 114.35 154.514 115.521 153.748 113.785C153.705 113.688 153.708 113.585 153.754 113.468C153.99 112.877 155.191 112.167 156.537 111.516C157.5 111.048 158.54 110.611 159.351 110.27C160.667 109.717 160.955 109.585 161.009 109.449C161.031 109.394 161.02 109.334 160.98 109.292C160.883 109.187 160.773 109.212 159.278 109.685C158.158 110.041 156.512 110.562 154.906 110.941C152.812 111.436 150.786 111.687 150.077 111.014C149.748 110.703 149.62 110.379 149.682 110.023C149.74 109.685 149.965 109.339 150.305 108.993C151.594 107.68 154.519 106.387 156.096 105.691C157.295 105.162 157.42 105.094 157.443 104.961C157.451 104.912 157.429 104.852 157.39 104.821C157.286 104.738 157.216 104.753 155.539 105.46C153.779 106.202 150.765 107.474 148.44 108.044H148.439C147.702 108.224 147.036 108.334 146.5 108.334C146.17 108.334 145.889 108.292 145.675 108.2C145.469 108.111 145.337 107.984 145.271 107.808C145.116 107.399 145.142 106.896 145.526 106.286C146.433 104.84 149.345 102.797 156.595 100.023C156.665 99.9962 156.699 99.9175 156.674 99.8482C156.646 99.7777 156.568 99.7424 156.498 99.7695C150.211 102.175 146.463 104.307 145.301 106.133C144.902 106.76 144.805 107.35 145.016 107.903C145.109 108.149 145.295 108.333 145.568 108.449C146.238 108.736 147.423 108.59 148.794 108.234C150.261 107.851 151.942 107.227 153.436 106.626C152.127 107.285 150.809 108.063 150.051 108.871C149.708 109.236 149.478 109.608 149.414 109.977C149.337 110.422 149.496 110.837 149.889 111.21C150.732 112.01 153.051 111.687 155.37 111.11C156.82 110.749 158.271 110.291 159.36 109.945C159.446 109.917 159.531 109.89 159.615 109.863C159.493 109.915 159.37 109.968 159.245 110.019C158.32 110.409 157.187 110.885 156.169 111.391C154.866 112.039 153.752 112.738 153.503 113.366C153.428 113.553 153.427 113.73 153.499 113.894C154.15 115.37 156.689 115.267 161.048 113.589C159.619 114.569 158.2 115.707 158.155 116.594C158.142 116.856 158.246 117.08 158.466 117.258C158.637 117.396 158.97 117.45 159.388 117.45C160.113 117.45 161.096 117.286 161.937 117.11C162.561 116.98 163.27 116.807 164.037 116.598C164.082 116.585 164.128 116.572 164.173 116.56C164.219 116.548 164.264 116.535 164.31 116.522C165.271 116.254 166.317 115.928 167.404 115.555C167.443 115.541 167.484 115.528 167.525 115.513C167.527 115.512 167.532 115.51 167.536 115.51C167.579 115.494 167.622 115.479 167.667 115.463C168.803 115.068 169.976 114.62 171.138 114.13C171.18 114.113 171.222 114.094 171.264 114.076L171.39 114.023C171.411 114.014 171.431 114.005 171.45 113.997C172.814 113.413 174.153 112.77 175.384 112.083C175.411 112.068 175.438 112.052 175.465 112.037C176.625 111.385 177.688 110.696 178.579 109.98C178.618 109.949 178.658 109.918 178.696 109.886C178.735 109.854 178.773 109.822 178.811 109.791C179.006 109.627 179.192 109.463 179.369 109.297C180.035 108.67 180.56 108.027 180.899 107.376C180.901 107.372 180.903 107.369 180.905 107.365C180.934 107.309 180.918 107.24 180.87 107.2Z" fill="#D89364"/>
<path d="M181.642 109.568C181.561 109.568 181.489 109.51 181.475 109.427C181.459 109.335 181.521 109.248 181.613 109.232C181.697 109.218 190.14 107.739 200.907 103.455C207.228 100.94 213.101 97.9644 218.364 94.6105C224.939 90.4201 230.574 85.6243 235.111 80.3569C235.172 80.2863 235.279 80.278 235.35 80.339C235.421 80.4 235.429 80.5068 235.368 80.5777C230.808 85.8718 225.147 90.69 218.542 94.8989C213.26 98.2646 207.367 101.25 201.024 103.773C190.227 108.069 181.755 109.551 181.671 109.566C181.661 109.567 181.651 109.568 181.642 109.568Z" fill="#2F1A31"/>
<path d="M182.879 88.2158C182.817 88.2158 182.757 88.1817 182.727 88.1225C182.685 88.039 182.719 87.9373 182.802 87.8952C183.101 87.7446 212.785 72.7033 220.629 62.0508C220.684 61.9754 220.79 61.9595 220.866 62.015C220.941 62.0705 220.957 62.1764 220.902 62.2518C216.774 67.8575 206.672 74.615 198.925 79.2969C190.539 84.3643 183.029 88.1598 182.954 88.1976C182.93 88.21 182.904 88.2158 182.879 88.2158Z" fill="#2F1A31"/>
<path d="M167.962 116.115C166.772 114.701 164.813 109.724 166.702 108.832C168.592 107.94 171.704 113.665 171.593 114.72C171.482 115.776 168.714 117.008 167.962 116.115Z" fill="#F7B686"/>
<path d="M164.462 116.959C163.451 115.758 161.786 111.528 163.392 110.77C164.998 110.012 167.642 114.877 167.548 115.774C167.454 116.672 165.102 117.719 164.462 116.959Z" fill="#F7B686"/>
<path d="M171.915 115.131C170.653 113.524 168.575 107.864 170.579 106.85C172.583 105.837 175.884 112.345 175.766 113.545C175.648 114.746 172.713 116.147 171.915 115.131Z" fill="#F7B686"/>
<path d="M175.22 111.835C174.06 110.359 172.15 105.158 173.992 104.226C175.834 103.294 178.867 109.275 178.759 110.379C178.65 111.482 175.953 112.769 175.22 111.835Z" fill="#F7B686"/>
<path d="M167.961 116.25C167.923 116.25 167.884 116.234 167.858 116.202C167.202 115.424 166.423 113.752 166.045 112.312C165.545 110.407 165.757 109.128 166.644 108.71C167.776 108.175 169.142 109.759 169.856 110.751C169.899 110.812 169.885 110.897 169.825 110.941C169.764 110.984 169.679 110.97 169.635 110.91C168.505 109.338 167.457 108.626 166.76 108.955C165.741 109.435 166.04 111.221 166.308 112.243C166.728 113.845 167.527 115.388 168.065 116.027C168.114 116.085 168.106 116.17 168.049 116.219C168.023 116.24 167.992 116.25 167.961 116.25Z" fill="#D89364"/>
<path d="M164.463 117.095C164.424 117.095 164.386 117.078 164.359 117.047C163.55 116.086 162.3 113.194 162.648 111.602C162.749 111.135 162.98 110.814 163.334 110.647C163.928 110.366 164.691 110.729 165.54 111.694C165.589 111.751 165.584 111.836 165.527 111.886C165.471 111.935 165.385 111.93 165.336 111.873C164.806 111.27 164.049 110.61 163.45 110.893C163.177 111.022 162.996 111.28 162.913 111.659C162.587 113.15 163.807 115.97 164.566 116.872C164.615 116.929 164.607 117.015 164.55 117.063C164.525 117.084 164.493 117.095 164.463 117.095Z" fill="#D89364"/>
<path d="M171.915 115.266C171.875 115.266 171.835 115.248 171.808 115.214C171.272 114.531 170.639 113.215 170.195 111.861C169.889 110.926 169.416 109.172 169.693 107.925C169.822 107.343 170.1 106.941 170.518 106.729C171.235 106.367 172.156 106.825 173.183 108.056C173.231 108.113 173.223 108.198 173.166 108.247C173.108 108.295 173.022 108.287 172.974 108.229C172.322 107.447 171.387 106.594 170.64 106.972C170.298 107.145 170.068 107.485 169.958 107.983C169.515 109.982 171.053 113.813 172.022 115.047C172.068 115.106 172.058 115.191 171.999 115.237C171.974 115.257 171.944 115.266 171.915 115.266Z" fill="#D89364"/>
<path d="M175.22 111.971C175.18 111.971 175.141 111.953 175.114 111.92C174.885 111.628 174.631 111.202 174.377 110.686C173.788 109.483 173.335 108.081 173.166 106.936C172.946 105.448 173.211 104.469 173.931 104.105C174.216 103.961 174.537 103.955 174.885 104.087C176.272 104.613 177.863 107.292 178.55 109.027C178.725 109.468 178.927 110.062 178.894 110.392C178.887 110.466 178.822 110.52 178.746 110.514C178.672 110.506 178.617 110.44 178.625 110.365C178.645 110.154 178.526 109.702 178.298 109.127C177.649 107.487 176.084 104.832 174.789 104.34C174.511 104.235 174.271 104.237 174.054 104.347C172.697 105.033 173.59 108.464 174.621 110.566C174.866 111.066 175.11 111.475 175.327 111.752C175.373 111.811 175.363 111.896 175.304 111.942C175.279 111.962 175.25 111.971 175.22 111.971Z" fill="#D89364"/>
<path d="M168.118 100.317C162.998 100.317 156.13 99.1737 155.704 99.1019C155.63 99.0895 155.581 99.0194 155.593 98.9456C155.606 98.8719 155.675 98.8222 155.749 98.8344C155.904 98.8601 171.173 101.404 173.22 99.0538C173.429 98.8139 173.479 98.533 173.372 98.1946C172.919 96.7541 165.743 95.1995 159.541 94.006C157.631 93.6382 154.571 94.3433 154.541 94.3505C154.468 94.3672 154.395 94.3222 154.378 94.2494C154.361 94.1763 154.406 94.1032 154.479 94.0863C154.606 94.0565 157.625 93.3612 159.592 93.7394C169.166 95.5818 173.233 96.8489 173.631 98.1131C173.766 98.5428 173.697 98.9192 173.424 99.2317C172.719 100.042 170.628 100.317 168.118 100.317Z" fill="#D89364"/>
<path d="M111.623 141.849V139.534L145.495 139.324L145.446 141.849H111.623Z" fill="#436FD0"/>
<path d="M112.95 139.469C116.033 136.905 123.064 134.649 135.16 136.19C143.038 137.193 147.154 140.24 144.88 142.893C142.116 146.117 134.073 147.263 122.225 146.196C114.071 145.462 109.097 142.675 112.95 139.469Z" fill="#436FD0"/>
<path d="M112.95 137.239C116.033 134.675 123.064 132.419 135.16 133.96C143.038 134.963 147.154 138.011 144.88 140.663C142.116 143.888 134.073 145.033 122.225 143.966C114.071 143.232 109.097 140.446 112.95 137.239Z" fill="white"/>
<path d="M129.979 143.817C127.92 143.817 125.657 143.706 123.201 143.485C118.092 143.025 114.577 141.641 114.026 139.873C113.694 138.81 114.465 137.888 115.169 137.302C116.824 135.925 121.995 132.892 134.258 134.455C139.03 135.062 142.435 136.586 143.146 138.431C143.428 139.163 143.271 139.908 142.69 140.586C141.48 141.997 139.16 142.96 135.792 143.448C134.094 143.694 132.15 143.817 129.979 143.817ZM115.505 137.705C114.659 138.409 114.33 139.086 114.526 139.716C115.006 141.254 118.429 142.529 123.248 142.963C133.253 143.864 140.017 142.898 142.292 140.244C142.745 139.715 142.868 139.169 142.657 138.62C142.025 136.98 138.703 135.549 134.192 134.975C129.512 134.379 125.394 134.406 121.955 135.058C118.459 135.72 116.518 136.863 115.505 137.705Z" fill="#436FD0"/>
<path d="M112.394 136.419V134.104L146.265 133.894L146.217 136.419H112.394Z" fill="#436FD0"/>
<path d="M113.721 134.039C116.803 131.474 123.834 129.219 135.931 130.759C143.809 131.763 147.924 134.81 145.65 137.462C142.886 140.687 134.844 141.832 122.995 140.765C114.842 140.031 109.868 137.245 113.721 134.039Z" fill="#436FD0"/>
<path d="M113.721 131.809C116.803 129.244 123.834 126.989 135.931 128.53C143.809 129.533 147.924 132.58 145.65 135.233C142.886 138.457 134.844 139.602 122.995 138.535C114.842 137.801 109.868 135.015 113.721 131.809Z" fill="white"/>
<path d="M130.749 138.387C128.691 138.387 126.427 138.276 123.971 138.055C118.863 137.595 115.347 136.21 114.796 134.442C114.465 133.38 115.235 132.458 115.94 131.871C117.594 130.495 122.766 127.462 135.029 129.024C139.8 129.632 143.206 131.156 143.917 133.001C144.199 133.733 144.041 134.478 143.461 135.155C142.251 136.566 139.93 137.529 136.563 138.017C134.864 138.263 132.921 138.387 130.749 138.387ZM128.651 129.117C126.502 129.117 124.522 129.287 122.726 129.627C119.229 130.289 117.288 131.432 116.276 132.275C115.43 132.979 115.1 133.655 115.297 134.286C115.776 135.824 119.2 137.098 124.018 137.532C134.024 138.433 140.787 137.468 143.062 134.814C143.516 134.285 143.639 133.738 143.427 133.189C142.796 131.55 139.473 130.119 134.963 129.544C132.726 129.26 130.618 129.117 128.651 129.117Z" fill="#436FD0"/>
<path d="M126.29 136.467L126.523 136.129C126.608 136.006 126.391 135.884 126.025 135.843C125.162 135.746 124.358 135.601 123.768 135.441C123.481 135.363 123.418 135.228 123.615 135.124L123.751 135.053C123.989 134.928 124.507 134.9 124.86 134.991C125.541 135.168 126.418 135.32 127.404 135.392C129.085 135.515 130.105 135.203 130.416 134.751C130.717 134.315 130.32 134.048 128.732 133.682C126.536 133.188 124.398 132.649 124.874 131.959C125.288 131.358 126.844 130.833 129.652 131.009C129.988 131.03 130.283 130.926 130.358 130.818L130.613 130.448C130.704 130.316 131.106 130.233 131.512 130.262C131.917 130.292 132.172 130.423 132.081 130.555L131.868 130.863C131.785 130.984 131.99 131.107 132.348 131.148C133.069 131.23 133.626 131.333 134.066 131.44C134.382 131.516 134.457 131.66 134.244 131.768L134.109 131.836C133.873 131.955 133.381 131.982 133.032 131.898C132.541 131.781 131.837 131.652 130.852 131.58C129.029 131.447 128.091 131.761 127.872 132.078C127.588 132.491 128.837 132.623 130.7 133.059C132.909 133.57 134.126 134.152 133.843 134.869C133.541 135.634 131.827 136.059 128.76 135.991C128.419 135.983 128.128 136.073 128.053 136.182L127.781 136.576C127.691 136.708 127.288 136.791 126.883 136.761L126.859 136.759C126.454 136.73 126.199 136.599 126.29 136.467Z" fill="#436FD0"/>
<path d="M112.394 133.419V131.104L146.265 130.894L146.217 133.419H112.394Z" fill="#436FD0"/>
<path d="M113.721 131.039C116.803 128.474 123.834 126.219 135.931 127.759C143.809 128.763 147.924 131.81 145.65 134.462C142.886 137.687 134.844 138.832 122.995 137.765C114.842 137.031 109.868 134.245 113.721 131.039Z" fill="#436FD0"/>
<path d="M113.721 128.809C116.803 126.244 123.834 123.989 135.931 125.53C143.809 126.533 147.924 129.58 145.65 132.233C142.886 135.457 134.844 136.602 122.995 135.535C114.842 134.801 109.868 132.015 113.721 128.809Z" fill="white"/>
<path d="M130.749 135.387C128.691 135.387 126.427 135.276 123.971 135.055C118.863 134.595 115.347 133.21 114.796 131.442C114.465 130.38 115.235 129.458 115.94 128.871C117.594 127.495 122.766 124.462 135.029 126.024C139.8 126.632 143.206 128.156 143.917 130.001C144.199 130.733 144.041 131.478 143.461 132.155C142.251 133.566 139.93 134.529 136.563 135.017C134.864 135.263 132.921 135.387 130.749 135.387ZM128.651 126.117C126.502 126.117 124.522 126.287 122.726 126.627C119.229 127.289 117.288 128.432 116.276 129.275C115.43 129.979 115.1 130.655 115.297 131.286C115.776 132.824 119.2 134.098 124.018 134.532C134.024 135.433 140.787 134.468 143.062 131.814C143.516 131.285 143.639 130.738 143.427 130.189C142.796 128.55 139.473 127.119 134.963 126.544C132.726 126.26 130.618 126.117 128.651 126.117Z" fill="#436FD0"/>
<path d="M126.29 133.467L126.523 133.129C126.608 133.006 126.391 132.884 126.025 132.843C125.162 132.746 124.358 132.601 123.768 132.441C123.481 132.363 123.418 132.228 123.615 132.124L123.751 132.053C123.989 131.928 124.507 131.9 124.86 131.991C125.541 132.168 126.418 132.32 127.404 132.392C129.085 132.515 130.105 132.203 130.416 131.751C130.717 131.315 130.32 131.048 128.732 130.682C126.536 130.188 124.398 129.649 124.874 128.959C125.288 128.358 126.844 127.833 129.652 128.009C129.988 128.03 130.283 127.926 130.358 127.818L130.613 127.448C130.704 127.316 131.106 127.233 131.512 127.262C131.917 127.292 132.172 127.423 132.081 127.555L131.868 127.863C131.785 127.984 131.99 128.107 132.348 128.148C133.069 128.23 133.626 128.333 134.066 128.44C134.382 128.516 134.457 128.66 134.244 128.768L134.109 128.836C133.873 128.955 133.381 128.982 133.032 128.898C132.541 128.781 131.837 128.652 130.852 128.58C129.029 128.447 128.091 128.761 127.872 129.078C127.588 129.491 128.837 129.623 130.7 130.059C132.909 130.57 134.126 131.152 133.843 131.869C133.541 132.634 131.827 133.059 128.76 132.991C128.419 132.983 128.128 133.073 128.053 133.182L127.781 133.576C127.691 133.708 127.288 133.791 126.883 133.761L126.859 133.759C126.454 133.73 126.199 133.599 126.29 133.467Z" fill="#436FD0"/>
<path d="M112.394 127.419V125.104L146.265 124.894L146.217 127.419H112.394Z" fill="#436FD0"/>
<path d="M113.721 125.039C116.803 122.474 123.834 120.219 135.931 121.759C143.809 122.763 147.924 125.81 145.65 128.462C142.886 131.687 134.844 132.832 122.995 131.765C114.842 131.031 109.868 128.245 113.721 125.039Z" fill="#436FD0"/>
<path d="M113.721 122.809C116.803 120.244 123.834 117.989 135.931 119.53C143.809 120.533 147.924 123.58 145.65 126.233C142.886 129.457 134.844 130.602 122.995 129.535C114.842 128.801 109.868 126.015 113.721 122.809Z" fill="white"/>
<path d="M130.749 129.387C128.691 129.387 126.427 129.276 123.971 129.055C118.863 128.595 115.347 127.21 114.796 125.442C114.465 124.38 115.235 123.458 115.94 122.871C117.594 121.495 122.766 118.462 135.029 120.024C139.8 120.632 143.206 122.156 143.917 124.001C144.199 124.733 144.041 125.478 143.461 126.155C142.251 127.566 139.93 128.529 136.563 129.017C134.864 129.263 132.921 129.387 130.749 129.387ZM128.651 120.117C126.502 120.117 124.522 120.287 122.726 120.627C119.229 121.289 117.288 122.432 116.276 123.275C115.43 123.979 115.1 124.655 115.297 125.286C115.776 126.824 119.2 128.098 124.018 128.532C134.024 129.433 140.787 128.468 143.062 125.814C143.516 125.285 143.639 124.738 143.427 124.189C142.796 122.55 139.473 121.119 134.963 120.544C132.726 120.26 130.618 120.117 128.651 120.117Z" fill="#436FD0"/>
<path d="M126.29 127.467L126.523 127.129C126.608 127.006 126.391 126.884 126.025 126.843C125.162 126.746 124.358 126.601 123.768 126.441C123.481 126.363 123.418 126.228 123.615 126.124L123.751 126.053C123.989 125.928 124.507 125.9 124.86 125.991C125.541 126.168 126.418 126.32 127.404 126.392C129.085 126.515 130.105 126.203 130.416 125.751C130.717 125.315 130.32 125.048 128.732 124.682C126.536 124.188 124.398 123.649 124.874 122.959C125.288 122.358 126.844 121.833 129.652 122.009C129.988 122.03 130.283 121.926 130.358 121.818L130.613 121.448C130.704 121.316 131.106 121.233 131.512 121.262C131.917 121.292 132.172 121.423 132.081 121.555L131.868 121.863C131.785 121.984 131.99 122.107 132.348 122.148C133.069 122.23 133.626 122.333 134.066 122.44C134.382 122.516 134.457 122.66 134.244 122.768L134.109 122.836C133.873 122.955 133.381 122.982 133.032 122.898C132.541 122.781 131.837 122.652 130.852 122.58C129.029 122.447 128.091 122.761 127.872 123.078C127.588 123.491 128.837 123.623 130.7 124.059C132.909 124.57 134.126 125.152 133.843 125.869C133.541 126.634 131.827 127.059 128.76 126.991C128.419 126.983 128.128 127.073 128.053 127.182L127.781 127.576C127.691 127.708 127.288 127.791 126.883 127.761L126.859 127.759C126.454 127.73 126.199 127.599 126.29 127.467Z" fill="#436FD0"/>
<path d="M120.245 122.379V120.064L154.117 119.854L154.069 122.379H120.245Z" fill="#436FD0"/>
<path d="M121.572 119.999C124.655 117.434 131.686 115.179 143.783 116.72C151.66 117.723 155.776 120.77 153.502 123.423C150.738 126.647 142.695 127.793 130.847 126.726C122.693 125.991 117.719 123.205 121.572 119.999Z" fill="#436FD0"/>
<path d="M121.572 117.769C124.655 115.205 131.686 112.949 143.783 114.49C151.66 115.493 155.776 118.54 153.502 121.193C150.738 124.417 142.695 125.563 130.847 124.496C122.693 123.762 117.719 120.975 121.572 117.769Z" fill="white"/>
<path d="M138.601 124.347C136.543 124.347 134.279 124.236 131.824 124.015C126.715 123.555 123.199 122.171 122.649 120.403C122.317 119.34 123.088 118.418 123.793 117.832C125.447 116.455 130.618 113.422 142.881 114.984C147.653 115.592 151.059 117.116 151.769 118.961C152.052 119.693 151.894 120.438 151.313 121.116C150.103 122.527 147.783 123.49 144.415 123.978C142.717 124.224 140.773 124.347 138.601 124.347ZM136.504 115.078C134.355 115.078 132.374 115.248 130.578 115.588C127.081 116.249 125.14 117.393 124.128 118.235C123.282 118.939 122.953 119.616 123.149 120.246C123.629 121.785 127.052 123.059 131.871 123.493C141.876 124.393 148.64 123.428 150.914 120.774C151.368 120.245 151.491 119.699 151.28 119.15C150.648 117.51 147.326 116.079 142.815 115.505C140.579 115.22 138.471 115.078 136.504 115.078Z" fill="#436FD0"/>
<path d="M114.979 119.055V116.74L148.85 116.53L148.802 119.055H114.979Z" fill="#436FD0"/>
<path d="M116.306 116.675C119.388 114.11 126.419 111.855 138.516 113.396C146.394 114.399 150.509 117.446 148.236 120.099C145.471 123.323 137.429 124.469 125.58 123.401C117.427 122.667 112.453 119.881 116.306 116.675Z" fill="#436FD0"/>
<path d="M116.306 114.445C119.388 111.881 126.419 109.625 138.516 111.166C146.394 112.169 150.509 115.216 148.236 117.869C145.471 121.093 137.429 122.239 125.58 121.172C117.427 120.437 112.453 117.651 116.306 114.445Z" fill="white"/>
<path d="M133.335 121.023C131.277 121.023 129.013 120.912 126.557 120.691C121.449 120.231 117.933 118.847 117.382 117.078C117.051 116.016 117.821 115.094 118.526 114.508C120.18 113.131 125.352 110.098 137.615 111.66C142.386 112.268 145.792 113.792 146.503 115.637C146.785 116.369 146.627 117.114 146.046 117.791C144.837 119.203 142.516 120.166 139.149 120.653C137.45 120.9 135.507 121.023 133.335 121.023ZM118.861 114.911C118.016 115.615 117.686 116.292 117.883 116.922C118.362 118.46 121.785 119.734 126.604 120.168C136.609 121.069 143.373 120.104 145.648 117.45C146.102 116.921 146.224 116.374 146.013 115.825C145.381 114.186 142.059 112.755 137.548 112.181C132.868 111.585 128.751 111.612 125.311 112.263C121.815 112.925 119.874 114.068 118.861 114.911Z" fill="#436FD0"/>
<path d="M128.874 119.103L129.107 118.765C129.192 118.642 128.975 118.52 128.609 118.479C127.746 118.383 126.942 118.237 126.352 118.077C126.065 117.999 126.002 117.864 126.199 117.761L126.335 117.689C126.573 117.564 127.091 117.536 127.444 117.627C128.125 117.804 129.002 117.956 129.988 118.028C131.669 118.151 132.689 117.839 133 117.387C133.301 116.951 132.904 116.684 131.316 116.318C129.12 115.824 126.982 115.285 127.458 114.595C127.872 113.994 129.428 113.47 132.236 113.645C132.572 113.666 132.867 113.562 132.942 113.454L133.197 113.084C133.288 112.952 133.69 112.869 134.096 112.898C134.501 112.928 134.756 113.059 134.665 113.191L134.452 113.5C134.369 113.62 134.574 113.743 134.932 113.784C135.653 113.866 136.21 113.969 136.651 114.076C136.966 114.153 137.041 114.296 136.828 114.404L136.693 114.472C136.458 114.591 135.965 114.618 135.616 114.534C135.125 114.417 134.421 114.288 133.436 114.216C131.613 114.083 130.675 114.397 130.456 114.714C130.172 115.127 131.421 115.259 133.284 115.695C135.493 116.206 136.711 116.788 136.427 117.505C136.125 118.271 134.411 118.695 131.344 118.627C131.003 118.619 130.712 118.709 130.637 118.818L130.366 119.212C130.275 119.344 129.872 119.427 129.467 119.397L129.443 119.396C129.038 119.366 128.783 119.235 128.874 119.103Z" fill="#436FD0"/>
</g>
<defs>
<clipPath id="clip0_1987_4086">
<rect width="279" height="156" fill="white"/>
</clipPath>
</defs>
</svg>
