<svg width="240" height="176" viewBox="0 0 240 176" fill="none" xmlns="http://www.w3.org/2000/svg">
<g opacity="0.6">
<path d="M198.388 25.906C199.974 25.908 201.494 26.5379 202.616 27.658C203.738 28.7781 204.37 30.2972 204.372 31.8816V138.759H40.7969V31.8816C40.7993 30.2972 41.431 28.7781 42.5527 27.658C43.6745 26.538 45.1952 25.908 46.7812 25.906H198.388ZM45.2969 129.923H199.25V33.1921H45.2969V129.923Z" fill="#090814"/>
<path d="M211.063 142.479H34.7464L23.4606 140.333C22.9248 140.231 22.4414 139.945 22.0936 139.525C21.7457 139.105 21.5552 138.578 21.5547 138.033V135.655H222.997V138.067C222.995 138.604 222.809 139.124 222.47 139.541C222.131 139.958 221.66 140.246 221.134 140.358L211.062 142.475L211.063 142.479Z" fill="#CCCCCC"/>
<path d="M136.259 138.759H108.29C107.596 138.757 106.931 138.481 106.44 137.991C105.949 137.5 105.673 136.836 105.672 136.142V135.658H138.883V136.142C138.882 136.835 138.606 137.5 138.115 137.99C137.624 138.48 136.959 138.756 136.265 138.757L136.259 138.759Z" fill="#2F2E41"/>
<path d="M154.176 42.2731H90.3857C89.4586 42.2731 88.707 43.0238 88.707 43.9498V124.435C88.707 125.361 89.4586 126.112 90.3857 126.112H154.176C155.103 126.112 155.854 125.361 155.854 124.435V43.9498C155.854 43.0238 155.103 42.2731 154.176 42.2731Z" fill="#E6E6E6"/>
<path d="M123.068 82.7158L124.057 77.1791C122.598 76.2194 121.503 74.7995 120.947 73.1457C120.39 71.4919 120.404 69.6996 120.986 68.0545C121.568 66.4094 122.684 65.0064 124.158 64.0691C125.631 63.1318 127.376 62.7143 129.115 62.8831C130.853 63.0519 132.485 63.7973 133.75 65.0005C135.015 66.2037 135.84 67.7953 136.094 69.5215C136.348 71.2477 136.016 73.0092 135.151 74.5249C134.286 76.0406 132.937 77.2233 131.321 77.8844L131.665 82.7156L123.068 82.7158Z" fill="#ED9DA0"/>
<path d="M108.402 126.116L113.889 90.5285C114.183 88.6769 114.869 86.9092 115.901 85.343C116.932 83.7768 118.286 82.448 119.872 81.4449C121.458 80.4419 123.239 79.7877 125.098 79.5257C126.956 79.2638 128.849 79.4002 130.651 79.9259C133.801 80.8359 136.498 82.8863 138.216 85.6764C139.933 88.4666 140.548 91.7962 139.939 95.0147L134.147 126.116H108.402Z" fill="#212027"/>
<path d="M130.447 131.586C130.875 131.303 131.236 130.93 131.505 130.493C131.773 130.056 131.942 129.566 132 129.057C132.059 128.547 132.004 128.031 131.841 127.545C131.678 127.059 131.41 126.614 131.057 126.243L136.782 115.169L130.334 115.856L125.886 126.267C125.302 126.902 124.972 127.729 124.958 128.591C124.943 129.453 125.245 130.291 125.806 130.945C126.368 131.6 127.15 132.027 128.005 132.145C128.859 132.263 129.728 132.065 130.446 131.587L130.447 131.586Z" fill="#ED9DA0"/>
<path d="M131.674 124.29C131.358 124.245 131.062 124.105 130.827 123.888L128.637 121.866C128.4 121.647 128.236 121.36 128.168 121.045C128.1 120.73 128.131 120.401 128.255 120.104L132.633 109.739L132.012 89.2582C132.208 87.9418 132.915 86.7554 133.98 85.9564C135.046 85.1574 136.383 84.8101 137.704 84.99C139.024 85.1699 140.219 85.8624 141.032 86.9173C141.844 87.9722 142.207 89.3044 142.042 90.625L143.104 103.499C143.427 107.407 142.318 111.298 139.983 114.45L133.157 123.669C133.025 123.846 132.858 123.993 132.666 124.102C132.474 124.21 132.261 124.277 132.041 124.298C131.919 124.309 131.796 124.306 131.674 124.289V124.29Z" fill="#212027"/>
<path d="M79.7407 64.0352C79.8342 64.5393 80.0372 65.0169 80.3354 65.4342C80.6336 65.8515 81.0198 66.1984 81.4668 66.4506C81.9137 66.7027 82.4106 66.8539 82.9224 66.8934C83.4342 66.933 83.9484 66.86 84.4289 66.6796L92.4062 76.2634L94.2861 70.065L86.4225 61.9142C86.0638 61.1306 85.4303 60.5053 84.6416 60.1562C83.853 59.8071 82.9636 59.7585 82.1415 60.0194C81.3194 60.2804 80.6213 60.8329 80.1791 61.5727C79.7368 62.3125 79.5808 63.1884 79.7407 64.0352Z" fill="#ED9DA0"/>
<path d="M85.9887 68.0075C86.1534 67.7337 86.3977 67.5164 86.6891 67.3848L89.4075 66.1582C89.7021 66.0261 90.0302 65.9876 90.3474 66.0478C90.6647 66.1081 90.9557 66.2642 91.1813 66.4951L99.0291 74.563L118.152 81.9769C118.727 82.3143 119.23 82.7618 119.631 83.2938C120.033 83.8258 120.325 84.4317 120.491 85.0768C120.657 85.7219 120.694 86.3934 120.599 87.0528C120.505 87.7121 120.281 88.3464 119.94 88.919C119.6 89.4917 119.149 89.9914 118.615 90.3896C118.08 90.7878 117.472 91.0766 116.825 91.2393C116.179 91.402 115.506 91.4355 114.847 91.3379C114.187 91.2403 113.553 91.0134 112.982 90.6703L100.699 86.6274C96.9706 85.4009 93.8154 82.8636 91.82 79.4873L85.9836 69.6122C85.8715 69.4223 85.8007 69.2109 85.7757 68.9919C85.7508 68.7728 85.7722 68.551 85.8386 68.3408C85.8756 68.2239 85.9262 68.1118 85.9895 68.0069L85.9887 68.0075Z" fill="#212027"/>
<path opacity="0.1" d="M135.035 97.7776L134.686 108.938L128.254 120.104L133.626 107.662L135.035 97.7776Z" fill="black"/>
<path d="M122.903 66.8074C123.717 67.7699 125.094 68.0413 126.365 68.1528C128.946 68.3789 132.7 68.0126 135.222 67.4303C135.402 69.1735 134.912 71.0528 135.939 72.4868C136.421 70.7509 136.701 68.9653 136.774 67.1654C136.805 66.3947 136.793 65.5949 136.479 64.8862C136.165 64.1776 135.48 63.576 134.692 63.5698C135.278 63.1257 135.964 62.8326 136.69 62.7163L134.192 61.4625L134.833 60.8048L130.312 60.5285L131.621 59.6975C129.65 59.4272 127.656 59.3645 125.672 59.5105C124.751 59.5782 123.787 59.7079 123.041 60.2412C122.295 60.7744 121.863 61.8341 122.328 62.6171C121.747 62.7123 121.201 62.9538 120.74 63.3189C120.28 63.684 119.92 64.1605 119.695 64.7032C119.363 65.546 119.393 66.4821 119.496 67.3802C119.666 68.8165 120 70.2287 120.492 71.5891" fill="#2F2E41"/>
<path d="M164.343 41.2891L80.2062 60.6914C79.793 60.7861 79.3591 60.7133 78.9996 60.4889C78.6401 60.2645 78.3844 59.9069 78.2885 59.4944L73.4703 38.6476C73.3754 38.2348 73.4483 37.8014 73.673 37.4423C73.8976 37.0833 74.2557 36.8278 74.6686 36.7321L158.805 17.3306C159.218 17.2359 159.652 17.3087 160.012 17.5331C160.371 17.7575 160.627 18.1151 160.723 18.5276L165.541 39.3736C165.636 39.7863 165.563 40.2198 165.338 40.5789C165.113 40.938 164.756 41.1934 164.343 41.2891Z" fill="#E6E6E6"/>
<path d="M164.343 41.2891L80.2062 60.6914C79.793 60.7861 79.3591 60.7133 78.9996 60.4889C78.6401 60.2645 78.3844 59.9069 78.2885 59.4944L73.4703 38.6476C73.3754 38.2348 73.4483 37.8014 73.673 37.4423C73.8976 37.0833 74.2557 36.8278 74.6686 36.7321L158.805 17.3306C159.218 17.2359 159.652 17.3087 160.012 17.5331C160.371 17.7575 160.627 18.1151 160.723 18.5276L165.541 39.3736C165.636 39.7863 165.563 40.2198 165.338 40.5789C165.113 40.938 164.756 41.1934 164.343 41.2891ZM74.8124 37.3548C74.5646 37.4122 74.3497 37.5655 74.2149 37.781C74.0801 37.9964 74.0363 38.2565 74.0933 38.5042L78.9117 59.3511C78.9692 59.5986 79.1226 59.8133 79.3384 59.9479C79.5541 60.0826 79.8145 60.1263 80.0625 60.0693L164.198 40.667C164.446 40.6096 164.661 40.4564 164.795 40.2409C164.93 40.0254 164.974 39.7652 164.917 39.5176L160.098 18.6705C160.041 18.423 159.888 18.2083 159.672 18.0736C159.456 17.939 159.196 17.8953 158.948 17.9522L74.8124 37.3548Z" fill="#090814"/>
<path d="M104.009 37.2901C103.732 37.3574 103.492 37.5311 103.342 37.7736C103.192 38.0162 103.143 38.3081 103.207 38.5861C103.271 38.8641 103.442 39.1059 103.683 39.259C103.923 39.4121 104.215 39.4642 104.494 39.4041H104.498L154.365 27.9044C154.643 27.8369 154.883 27.6628 155.033 27.4199C155.183 27.177 155.231 26.8848 155.166 26.6067C155.102 26.3286 154.931 26.087 154.689 25.9344C154.448 25.7817 154.156 25.7303 153.877 25.7912L104.009 37.2901Z" fill="#212027"/>
<path d="M105.47 43.6298C105.33 43.6601 105.197 43.7179 105.079 43.8C104.961 43.882 104.86 43.9866 104.783 44.1078C104.706 44.2289 104.653 44.3642 104.629 44.5057C104.605 44.6471 104.609 44.7921 104.641 44.932C104.673 45.072 104.732 45.2042 104.816 45.321C104.9 45.4377 105.006 45.5368 105.128 45.6123C105.25 45.6878 105.386 45.7383 105.528 45.7609C105.67 45.7835 105.815 45.7777 105.955 45.7438H105.959L127.416 40.7948C127.694 40.7276 127.933 40.5539 128.084 40.3113C128.234 40.0688 128.282 39.7769 128.218 39.4988C128.155 39.2208 127.984 38.9791 127.743 38.826C127.502 38.6729 127.21 38.6207 126.931 38.6809H126.928L105.47 43.6298Z" fill="#212027"/>
<path d="M90.377 51.3412C93.9744 51.3412 96.8907 48.4282 96.8907 44.8349C96.8907 41.2416 93.9744 38.3286 90.377 38.3286C86.7796 38.3286 83.8633 41.2416 83.8633 44.8349C83.8633 48.4282 86.7796 51.3412 90.377 51.3412Z" fill="#212027"/>
<path d="M90.1943 48.5883C89.9811 48.6378 89.7576 48.6167 89.5574 48.5282L89.5448 48.5227L86.9238 47.3343C86.8023 47.2791 86.6928 47.2005 86.6017 47.1031C86.5106 47.0056 86.4396 46.8912 86.3928 46.7664C86.3459 46.6415 86.3242 46.5087 86.3287 46.3754C86.3333 46.2422 86.3641 46.1111 86.4193 45.9897C86.4746 45.8684 86.5532 45.7591 86.6508 45.6681C86.7484 45.5771 86.8629 45.5061 86.9879 45.4593C87.1129 45.4126 87.2459 45.3908 87.3793 45.3954C87.5127 45.3999 87.6439 45.4307 87.7654 45.4859L89.4638 46.2582L91.8465 41.029C91.9581 40.7842 92.1625 40.5937 92.4147 40.4994C92.6669 40.405 92.9462 40.4146 93.1914 40.526L93.1771 40.5602L93.1922 40.5258C93.4372 40.6375 93.6278 40.8417 93.7222 41.0936C93.8167 41.3455 93.8072 41.6246 93.6958 41.8695L90.8937 48.0212C90.8287 48.1628 90.7319 48.2877 90.6108 48.386C90.4898 48.4843 90.3477 48.5535 90.1955 48.5881L90.1943 48.5883Z" fill="white"/>
<path d="M233.952 86.5964L162.453 85.231C162.102 85.2238 161.768 85.0779 161.525 84.8252C161.281 84.5725 161.148 84.2336 161.154 83.883L161.483 66.1652C161.49 65.8146 161.636 65.4811 161.889 65.2379C162.142 64.9947 162.481 64.8616 162.832 64.8679L234.331 66.234C234.682 66.2412 235.015 66.3871 235.259 66.6398C235.503 66.8925 235.636 67.2314 235.63 67.582L235.3 85.299C235.293 85.6497 235.147 85.9832 234.895 86.2264C234.642 86.4696 234.303 86.6027 233.952 86.5964Z" fill="#E6E6E6"/>
<path d="M233.952 86.5964L162.453 85.231C162.102 85.2238 161.768 85.0779 161.525 84.8252C161.281 84.5725 161.148 84.2336 161.154 83.883L161.483 66.1652C161.49 65.8146 161.636 65.4811 161.889 65.2379C162.142 64.9947 162.481 64.8616 162.832 64.8679L234.331 66.234C234.682 66.2412 235.015 66.3871 235.259 66.6398C235.503 66.8925 235.636 67.2314 235.63 67.582L235.3 85.299C235.293 85.6497 235.147 85.9832 234.895 86.2264C234.642 86.4696 234.303 86.6027 233.952 86.5964ZM162.822 65.3971C162.611 65.3933 162.408 65.4732 162.256 65.6191C162.104 65.765 162.017 65.9652 162.013 66.1756L161.683 83.8934C161.68 84.1038 161.76 84.3072 161.906 84.4588C162.052 84.6105 162.252 84.698 162.463 84.7023L233.961 86.0675C234.171 86.0713 234.375 85.9915 234.527 85.8456C234.678 85.6996 234.766 85.4995 234.77 85.289L235.1 67.5711C235.103 67.3606 235.023 67.1573 234.877 67.0056C234.731 66.854 234.531 66.7664 234.32 66.7622L162.822 65.3971Z" fill="#090814"/>
<path d="M186.29 71.2277C186.054 71.2258 185.826 71.317 185.656 71.4816C185.487 71.6462 185.389 71.8709 185.384 72.1071C185.38 72.3433 185.468 72.5719 185.631 72.7434C185.793 72.915 186.017 73.0156 186.253 73.0236L186.257 73.0243L228.633 73.8336C228.87 73.8353 229.098 73.7438 229.267 73.5789C229.437 73.4139 229.534 73.1889 229.539 72.9525C229.543 72.7162 229.454 72.4876 229.291 72.3163C229.128 72.145 228.903 72.0449 228.667 72.0376L186.29 71.2277Z" fill="#212027"/>
<path d="M186.186 76.6155C186.067 76.6115 185.949 76.6312 185.837 76.6733C185.726 76.7154 185.624 76.7792 185.538 76.861C185.452 76.9428 185.382 77.0409 185.334 77.1496C185.286 77.2584 185.26 77.3756 185.258 77.4945C185.255 77.6134 185.276 77.7316 185.32 77.8423C185.364 77.9529 185.429 78.0538 185.512 78.1391C185.595 78.2244 185.694 78.2924 185.804 78.3392C185.913 78.3859 186.031 78.4105 186.15 78.4114L186.153 78.4122L204.387 78.7598C204.624 78.7617 204.851 78.6705 205.021 78.5058C205.191 78.3412 205.288 78.1165 205.293 77.8803C205.298 77.6442 205.209 77.4155 205.047 77.244C204.884 77.0725 204.66 76.9718 204.424 76.9639L204.421 76.9632L186.186 76.6155Z" fill="#212027"/>
<path d="M172.505 79.7685C175.395 80.4933 178.325 78.7408 179.049 75.8542C179.773 72.9676 178.017 70.0399 175.127 69.3151C172.237 68.5903 169.308 70.3428 168.584 73.2294C167.86 76.116 169.615 79.0437 172.505 79.7685Z" fill="#212027"/>
<path d="M172.916 77.5204C172.735 77.5171 172.56 77.4552 172.417 77.3437L172.408 77.3368L170.542 75.854C170.455 75.7852 170.383 75.7 170.329 75.6034C170.276 75.5068 170.242 75.4005 170.229 75.2908C170.217 75.1811 170.226 75.07 170.257 74.9638C170.287 74.8577 170.338 74.7586 170.407 74.6723C170.476 74.5859 170.561 74.5139 170.658 74.4605C170.755 74.407 170.861 74.3731 170.971 74.3607C171.081 74.3483 171.192 74.3577 171.298 74.3882C171.404 74.4187 171.504 74.4699 171.59 74.5387L172.799 75.5014L175.767 71.7806C175.906 71.6065 176.108 71.4946 176.33 71.4696C176.551 71.4446 176.774 71.5086 176.948 71.6475L176.93 71.6721L176.949 71.6475C177.123 71.7866 177.235 71.989 177.26 72.2104C177.285 72.4318 177.222 72.6541 177.083 72.8284L173.592 77.2057C173.512 77.3064 173.409 77.3872 173.292 77.4418C173.174 77.4964 173.046 77.5233 172.917 77.5205L172.916 77.5204Z" fill="white"/>
<path d="M69.9996 83.8624L16.4947 82.8406C16.2321 82.8352 15.9822 82.726 15.7999 82.5369C15.6176 82.3478 15.5178 82.0943 15.5224 81.8319L15.769 68.5731C15.7743 68.3107 15.8834 68.0611 16.0726 67.8791C16.2618 67.6971 16.5156 67.5975 16.7783 67.6022L70.283 68.6246C70.5457 68.6299 70.7955 68.7391 70.9778 68.9282C71.1601 69.1173 71.2599 69.3709 71.2554 69.6333L71.0087 82.8915C71.0035 83.154 70.8943 83.4035 70.7051 83.5855C70.5159 83.7675 70.2623 83.8671 69.9996 83.8624Z" fill="#E6E6E6"/>
<path d="M69.9996 83.8624L16.4947 82.8406C16.2321 82.8352 15.9822 82.726 15.7999 82.5369C15.6176 82.3478 15.5178 82.0943 15.5224 81.8319L15.769 68.5731C15.7743 68.3107 15.8834 68.0611 16.0726 67.8791C16.2618 67.6971 16.5156 67.5975 16.7783 67.6022L70.283 68.6246C70.5457 68.6299 70.7955 68.7391 70.9778 68.9282C71.1601 69.1173 71.2599 69.3709 71.2554 69.6333L71.0087 82.8915C71.0035 83.154 70.8943 83.4035 70.7051 83.5855C70.5159 83.7675 70.2623 83.8671 69.9996 83.8624ZM16.7708 67.9983C16.6132 67.9954 16.4609 68.0552 16.3473 68.1644C16.2338 68.2736 16.1683 68.4234 16.1652 68.5808L15.9186 81.8396C15.9159 81.9971 15.9757 82.1493 16.0851 82.2628C16.1945 82.3763 16.3445 82.4418 16.5021 82.4449L70.0063 83.4666C70.164 83.4695 70.3163 83.4097 70.4298 83.3005C70.5434 83.1913 70.6089 83.0415 70.612 82.884L70.8585 69.6251C70.8613 69.4676 70.8014 69.3154 70.692 69.202C70.5826 69.0885 70.4327 69.023 70.275 69.0198L16.7708 67.9983Z" fill="#090814"/>
<path d="M34.3316 72.3614C34.1547 72.36 33.9843 72.4283 33.8575 72.5514C33.7306 72.6746 33.6575 72.8428 33.6539 73.0195C33.6503 73.1963 33.7165 73.3673 33.8382 73.4957C33.96 73.6241 34.1274 73.6994 34.3043 73.7053L34.3065 73.7059L66.0186 74.3115C66.1957 74.3128 66.3661 74.2443 66.4929 74.1209C66.6197 73.9975 66.6926 73.8291 66.6959 73.6522C66.6992 73.4753 66.6326 73.3042 66.5104 73.1761C66.3883 73.0479 66.2206 72.973 66.0436 72.9675L34.3316 72.3614Z" fill="#212027"/>
<path d="M34.2536 76.3933C34.1645 76.3903 34.0758 76.405 33.9925 76.4365C33.9092 76.468 33.833 76.5158 33.7684 76.577C33.7037 76.6382 33.6519 76.7116 33.6159 76.793C33.5798 76.8743 33.5604 76.9621 33.5586 77.051C33.5567 77.14 33.5726 77.2285 33.6053 77.3113C33.638 77.3941 33.6868 77.4696 33.7489 77.5334C33.811 77.5973 33.8852 77.6481 33.9671 77.6831C34.0491 77.7181 34.1371 77.7365 34.2262 77.7372L34.2285 77.7378L47.874 77.9979C48.051 77.9993 48.2213 77.931 48.3482 77.8079C48.475 77.6847 48.5482 77.5165 48.5518 77.3398C48.5554 77.163 48.4891 76.9919 48.3674 76.8636C48.2456 76.7352 48.0782 76.6599 47.9013 76.654L47.8992 76.6534L34.2536 76.3933Z" fill="#212027"/>
<path d="M24.0163 78.7528C26.1789 79.2952 28.3713 77.9837 28.9131 75.8235C29.4549 73.6634 28.1409 71.4725 25.9783 70.9301C23.8157 70.3877 21.6233 71.6992 21.0815 73.8593C20.5397 76.0195 21.8537 78.2103 24.0163 78.7528Z" fill="#212027"/>
<path d="M24.3253 77.0705C24.1897 77.0681 24.0585 77.0217 23.9515 76.9383L23.9448 76.9331L22.5483 75.8235C22.4836 75.772 22.4296 75.7083 22.3895 75.6359C22.3495 75.5636 22.324 75.4841 22.3147 75.402C22.3054 75.3199 22.3123 75.2368 22.3351 75.1573C22.358 75.0779 22.3962 75.0038 22.4478 74.9391C22.4993 74.8745 22.5631 74.8207 22.6354 74.7807C22.7078 74.7407 22.7873 74.7153 22.8695 74.706C22.9517 74.6967 23.035 74.7037 23.1145 74.7266C23.194 74.7494 23.2682 74.7877 23.333 74.8392L24.2375 75.5596L26.4583 72.7752C26.5623 72.6449 26.7139 72.5612 26.8797 72.5425C27.0456 72.5238 27.2121 72.5717 27.3426 72.6756L27.3289 72.694L27.3432 72.6756C27.4736 72.7797 27.5574 72.9312 27.5762 73.0969C27.595 73.2626 27.5472 73.4289 27.4433 73.5593L24.8313 76.835C24.7708 76.9103 24.6938 76.9708 24.6062 77.0117C24.5186 77.0525 24.4228 77.0727 24.3261 77.0705L24.3253 77.0705Z" fill="white"/>
</g>
</svg>
