<svg width="260" height="156" viewBox="0 0 260 156" fill="none" xmlns="http://www.w3.org/2000/svg">
<g opacity="0.34" clip-path="url(#clip0_2007_10178)">
<path d="M176.738 25.0204H82.4414V87.2359H176.738V25.0204Z" fill="#C6C6C6"/>
<path d="M176.737 87.3983H82.4397C82.3497 87.3983 82.2773 87.3252 82.2773 87.236V25.0205C82.2773 24.9305 82.3504 24.8582 82.4397 24.8582H176.737C176.827 24.8582 176.899 24.9312 176.899 25.0205V87.236C176.899 87.326 176.826 87.3983 176.737 87.3983ZM82.6028 87.0729H176.574V25.1828H82.6028V87.0729Z" fill="black"/>
<path d="M174.646 82.1826H84.5256C84.4356 82.1826 84.3633 82.1096 84.3633 82.0203V30.5727C84.3633 30.4827 84.4363 30.4103 84.5256 30.4103H174.647C174.737 30.4103 174.809 30.4834 174.809 30.5727V82.0203C174.809 82.1103 174.736 82.1826 174.647 82.1826H174.646ZM84.688 81.8572H174.483V30.735H84.688V81.8572Z" fill="black"/>
<path d="M176.732 87.2352H82.4356L62.3359 105.44H196.832L176.732 87.2352Z" fill="#C6C6C6"/>
<path d="M196.838 105.603H62.3419C62.2748 105.603 62.2143 105.562 62.1907 105.499C62.1663 105.436 62.1833 105.365 62.2335 105.32L82.3332 87.1157C82.3627 87.0884 82.4018 87.0736 82.4424 87.0736H176.739C176.78 87.0736 176.818 87.0884 176.848 87.1157L196.948 105.32C196.998 105.365 197.015 105.436 196.991 105.499C196.967 105.562 196.907 105.603 196.84 105.603H196.838ZM62.7633 105.278H196.416L176.675 87.3983H82.5044L62.7633 105.278Z" fill="black"/>
<path d="M148.833 94.968H110.339L102.133 102.4H157.039L148.833 94.968Z" fill="#0E5B3C"/>
<path d="M102.824 60.6115H96.2852V77.3898H102.824V60.6115Z" fill="#1D4CB5"/>
<path d="M115.035 57.9941H108.496V77.3905H115.035V57.9941Z" fill="#1D4CB5"/>
<path d="M127.25 60.6115H120.711V77.3898H127.25V60.6115Z" fill="#1D4CB5"/>
<path d="M139.461 52.8994H132.922V77.3905H139.461V52.8994Z" fill="#1D4CB5"/>
<path d="M151.672 46.7761H145.133V77.3897H151.672V46.7761Z" fill="#1D4CB5"/>
<path d="M163.886 36.5624H157.348V77.3905H163.886V36.5624Z" fill="#1D4CB5"/>
<path d="M86.7397 126.419L78.3359 143.516H91.7404L100.097 126.515L86.7397 126.419Z" fill="white"/>
<path d="M91.7343 143.748H78.3298C78.2497 143.748 78.1748 143.707 78.1326 143.638C78.0904 143.569 78.0862 143.485 78.121 143.412L86.5248 126.316C86.5638 126.237 86.645 126.186 86.7336 126.186H86.7357L100.093 126.282C100.173 126.282 100.247 126.324 100.289 126.393C100.331 126.461 100.335 126.546 100.299 126.617L91.9431 143.618C91.9041 143.697 91.8229 143.748 91.7343 143.748ZM78.7042 143.283H91.5909L99.7205 126.744L86.8802 126.651L78.7053 143.282L78.7042 143.283Z" fill="black"/>
<path d="M122.53 141.76H108.482L97.599 133.11H95.783C94.4786 133.11 93.3449 134.005 93.0412 135.273L92.9684 135.578C92.3779 138.045 90.6895 140.104 88.3874 141.168L87.4309 141.61L80.9264 136.16L69.3516 158.755H89.6044C90.4638 157.228 93.7836 156.089 97.7508 156.089C101.718 156.089 105.038 157.228 105.897 158.755H117.548L125.873 153.691C131.429 150.311 129.034 141.76 122.531 141.76H122.53Z" fill="#3FB686"/>
<path d="M117.542 158.988H105.891C105.807 158.988 105.73 158.943 105.689 158.87C104.859 157.394 101.518 156.323 97.7449 156.323C93.9717 156.323 90.6308 157.395 89.8009 158.87C89.7597 158.943 89.6817 158.988 89.5984 158.988H69.3456C69.2644 158.988 69.1895 158.946 69.1473 158.877C69.1051 158.809 69.102 158.722 69.1389 158.651L80.7137 136.056C80.7464 135.992 80.8044 135.948 80.874 135.933C80.9426 135.921 81.0153 135.938 81.0691 135.983L87.4608 141.339L88.2844 140.958C90.5359 139.919 92.1589 137.938 92.7368 135.525L92.8095 135.22C93.1396 133.842 94.3597 132.879 95.7771 132.879H97.593C97.6457 132.879 97.6964 132.897 97.7375 132.93L108.556 141.529H122.523C125.593 141.529 128.111 143.439 128.94 146.396C129.769 149.353 128.61 152.295 125.986 153.891L117.661 158.955C117.625 158.978 117.583 158.989 117.541 158.989L117.542 158.988ZM106.023 158.523H117.478L125.747 153.493C128.187 152.008 129.266 149.271 128.495 146.52C127.724 143.77 125.381 141.993 122.525 141.993H108.477C108.424 141.993 108.374 141.975 108.333 141.942L97.5139 133.343H95.7781C94.577 133.343 93.5425 134.16 93.2619 135.328L93.1892 135.633C92.5775 138.185 90.8618 140.279 88.4795 141.38L87.522 141.822C87.4408 141.859 87.3448 141.846 87.2752 141.789L80.9932 136.526L69.7242 158.523H89.4655C90.4832 156.948 93.8462 155.857 97.7428 155.857C101.639 155.857 105.002 156.948 106.02 158.523H106.023Z" fill="black"/>
<path d="M73.3431 150.965L69.3516 158.756H89.6044C90.4628 157.229 93.7836 156.09 97.7508 156.09C101.718 156.09 105.038 157.229 105.897 158.756H117.548L125.873 153.692C127.054 152.973 127.873 152.02 128.372 150.965H73.3431Z" fill="black"/>
<path d="M105.401 139.901H99.6148C99.4862 139.901 99.3828 139.796 99.3828 139.669C99.3828 139.541 99.4872 139.437 99.6148 139.437H105.401C105.53 139.437 105.633 139.541 105.633 139.669C105.633 139.796 105.529 139.901 105.401 139.901Z" fill="black"/>
<path d="M102.8 137.63H97.0132C96.8846 137.63 96.7812 137.526 96.7812 137.398C96.7812 137.271 96.8856 137.166 97.0132 137.166H102.8C102.928 137.166 103.032 137.271 103.032 137.398C103.032 137.526 102.927 137.63 102.8 137.63Z" fill="black"/>
<path d="M142.59 141.123L156.8 135.602L135.998 103.461L126.41 116.124L142.59 141.123Z" fill="white"/>
<path d="M142.588 141.355C142.511 141.355 142.437 141.317 142.393 141.248L126.213 116.249C126.16 116.167 126.164 116.06 126.222 115.982L135.81 103.32C135.856 103.26 135.93 103.225 136.004 103.228C136.08 103.232 136.15 103.271 136.191 103.334L156.993 135.475C157.031 135.534 157.041 135.605 157.02 135.672C156.998 135.738 156.948 135.792 156.882 135.817L142.672 141.338C142.645 141.349 142.616 141.354 142.588 141.354V141.355ZM126.691 116.134L142.68 140.838L156.448 135.489L135.981 103.866L126.691 116.134Z" fill="black"/>
<path d="M176.205 119.082L163.738 125.558L150.095 122.898L148.382 123.788C147.285 124.359 146.72 125.608 147.019 126.809L147.17 127.417C147.752 129.757 147.23 132.234 145.753 134.141L144.987 135.131L136.703 133.293L136.84 158.681L154.814 149.345C154.873 147.594 157.294 145.053 160.816 143.225C164.337 141.396 167.807 140.876 169.273 141.835L179.613 136.464L184.668 128.132C188.041 122.57 181.976 116.086 176.205 119.084V119.082Z" fill="#3FB686"/>
<path d="M136.843 158.911C136.801 158.911 136.759 158.9 136.723 158.878C136.653 158.835 136.611 158.761 136.61 158.68L136.473 133.292C136.473 133.221 136.504 133.154 136.559 133.109C136.614 133.065 136.686 133.048 136.755 133.063L144.895 134.869L145.572 133.995C147.015 132.134 147.516 129.756 146.948 127.471L146.797 126.863C146.471 125.552 147.08 124.203 148.278 123.58L149.991 122.69C150.037 122.666 150.091 122.658 150.143 122.668L163.706 125.312L176.1 118.874C178.824 117.46 181.939 117.993 184.036 120.234C186.135 122.476 186.462 125.622 184.869 128.249L179.814 136.581C179.792 136.618 179.76 136.647 179.722 136.666L169.382 142.037C169.308 142.076 169.219 142.072 169.148 142.026C167.732 141.099 164.273 141.688 160.925 143.427C157.577 145.166 155.106 147.657 155.049 149.35C155.046 149.434 154.998 149.509 154.923 149.548L136.949 158.884C136.916 158.902 136.879 158.91 136.842 158.91L136.843 158.911ZM136.94 133.581L137.073 158.298L154.593 149.197C154.77 147.329 157.253 144.812 160.711 143.016C164.169 141.22 167.655 140.637 169.284 141.566L179.45 136.286L184.471 128.01C185.953 125.566 185.649 122.64 183.697 120.554C181.746 118.469 178.848 117.971 176.314 119.288L163.847 125.764C163.801 125.789 163.747 125.796 163.695 125.787L150.132 123.143L148.491 123.995C147.484 124.518 146.973 125.653 147.246 126.754L147.397 127.361C148 129.785 147.469 132.308 145.938 134.283L145.172 135.273C145.116 135.345 145.025 135.377 144.938 135.358L136.938 133.582L136.94 133.581Z" fill="black"/>
<path d="M136.843 158.911C136.801 158.911 136.759 158.9 136.723 158.878C136.653 158.835 136.611 158.761 136.61 158.68L136.473 133.292C136.473 133.221 136.504 133.154 136.559 133.109C136.614 133.065 136.686 133.048 136.755 133.063L144.895 134.869L145.572 133.995C147.015 132.134 147.516 129.756 146.948 127.471L146.797 126.863C146.471 125.552 147.08 124.203 148.278 123.58L149.991 122.69C150.037 122.666 150.091 122.658 150.143 122.668L163.706 125.312L176.1 118.874C178.824 117.46 181.939 117.993 184.036 120.234C186.135 122.476 186.462 125.622 184.869 128.249L179.814 136.581C179.792 136.618 179.76 136.647 179.722 136.666L169.382 142.037C169.308 142.076 169.219 142.072 169.148 142.026C167.732 141.099 164.273 141.688 160.925 143.427C157.577 145.166 155.106 147.657 155.049 149.35C155.046 149.434 154.998 149.509 154.923 149.548L136.949 158.884C136.916 158.902 136.879 158.91 136.842 158.91L136.843 158.911ZM136.94 133.581L137.073 158.298L154.593 149.197C154.77 147.329 157.253 144.812 160.711 143.016C164.169 141.22 167.655 140.637 169.284 141.566L179.45 136.286L184.471 128.01C185.953 125.566 185.649 122.64 183.697 120.554C181.746 118.469 178.848 117.971 176.314 119.288L163.847 125.764C163.801 125.789 163.747 125.796 163.695 125.787L150.132 123.143L148.491 123.995C147.484 124.518 146.973 125.653 147.246 126.754L147.397 127.361C148 129.785 147.469 132.308 145.938 134.283L145.172 135.273C145.116 135.345 145.025 135.377 144.938 135.358L136.938 133.582L136.94 133.581Z" fill="black"/>
<path d="M136.798 149.925L136.845 158.679L154.819 149.343C154.878 147.592 157.3 145.051 160.821 143.223C164.342 141.394 167.813 140.874 169.278 141.833L179.618 136.462L184.673 128.13C185.39 126.948 185.678 125.723 185.635 124.558L136.797 149.925H136.798Z" fill="black"/>
<path d="M154.905 128.021C154.82 128.021 154.74 127.976 154.698 127.896C154.639 127.782 154.683 127.641 154.797 127.582L159.933 124.915C160.047 124.856 160.187 124.901 160.246 125.015C160.305 125.128 160.261 125.269 160.147 125.328L155.011 127.995C154.977 128.013 154.941 128.021 154.905 128.021Z" fill="black"/>
<path d="M151.553 127.204C151.469 127.204 151.389 127.159 151.346 127.078C151.287 126.964 151.332 126.824 151.446 126.765L156.581 124.098C156.695 124.039 156.835 124.083 156.895 124.197C156.954 124.311 156.909 124.451 156.795 124.511L151.66 127.177C151.626 127.195 151.589 127.204 151.553 127.204Z" fill="black"/>
<path d="M68.6378 65.7641H123.831C129.366 65.7641 132.928 71.6358 130.373 76.5469L102.314 130.473H76.4415L99.955 85.3283C100.581 84.1261 99.7093 82.6866 98.3532 82.6866H68.6367V65.763L68.6378 65.7641Z" fill="#020202"/>
<path d="M106.661 73.7681H39.6016V80.5848C39.6016 89.5138 46.838 96.7523 55.7637 96.7523H100.7C103.511 96.7523 106.133 98.1749 107.665 100.532L128.072 131.91L148.501 121.299L123.268 82.7488C119.6 77.1448 113.355 73.7681 106.66 73.7681H106.661Z" fill="#020202"/>
<path d="M128.071 132.143C127.994 132.143 127.921 132.105 127.876 132.038L107.47 100.659C105.973 98.3583 103.442 96.9853 100.698 96.9853H55.7624C46.7217 96.9853 39.3672 89.6287 39.3672 80.5848V75.7781C39.3672 75.6494 39.4716 75.5461 39.5992 75.5461C39.7268 75.5461 39.8312 75.6505 39.8312 75.7781V80.5848C39.8312 89.3714 46.9779 96.5202 55.7614 96.5202H100.697C103.598 96.5202 106.276 97.9723 107.858 100.405L128.15 131.608L148.163 121.212L123.071 82.8763C121.382 80.2969 118.615 77.1838 115.909 76.1809C115.789 76.1366 115.728 76.0027 115.772 75.8825C115.816 75.7623 115.949 75.7011 116.071 75.7454C119.609 77.0562 122.622 81.3398 123.46 82.6211L148.692 121.172C148.728 121.226 148.74 121.294 148.723 121.357C148.706 121.42 148.664 121.474 148.605 121.505L128.176 132.116C128.142 132.134 128.105 132.142 128.069 132.142L128.071 132.143Z" fill="#3FB686"/>
<path d="M47.7232 35.4887L47.1484 41.2171H52.398L52.5773 37.0959L47.7232 35.4887Z" fill="white"/>
<path d="M52.3996 41.4491H47.15C47.0846 41.4491 47.0214 41.4217 46.9781 41.3721C46.9338 41.3236 46.9127 41.2582 46.9191 41.1928L47.4938 35.4645C47.5012 35.3949 47.5392 35.3305 47.5982 35.2926C47.6573 35.2546 47.7311 35.2451 47.7975 35.2673L52.6517 36.8744C52.7508 36.9071 52.8151 37.001 52.8109 37.1054L52.6316 41.2266C52.6264 41.351 52.5241 41.4491 52.3996 41.4491ZM47.4073 40.9851H52.1782L52.3395 37.2614L47.9272 35.8009L47.4073 40.9851Z" fill="black"/>
<path d="M52.4871 39.1881C52.5176 38.491 52.5482 37.7929 52.5778 37.0948L47.6445 35.7375C47.7025 36.0961 47.9461 37.3057 49.026 38.24C50.4697 39.4886 52.2329 39.2292 52.4871 39.1881Z" fill="black"/>
<path d="M51.0893 37.9912C53.2658 37.9912 55.0302 36.0304 55.0302 33.6116C55.0302 31.1928 53.2658 29.232 51.0893 29.232C48.9128 29.232 47.1484 31.1928 47.1484 33.6116C47.1484 36.0304 48.9128 37.9912 51.0893 37.9912Z" fill="white"/>
<path d="M51.0909 38.2242C48.7898 38.2242 46.918 36.1552 46.918 33.6116C46.918 31.068 48.7898 29 51.0909 29C53.3919 29 55.2637 31.069 55.2637 33.6116C55.2637 36.1541 53.3919 38.2242 51.0909 38.2242ZM51.0909 29.464C49.0461 29.464 47.383 31.3242 47.383 33.6116C47.383 35.8989 49.0461 37.7592 51.0909 37.7592C53.1356 37.7592 54.7997 35.8989 54.7997 33.6116C54.7997 31.3242 53.1356 29.464 51.0909 29.464Z" fill="black"/>
<path d="M50.0391 35.1639C50.0992 35.4718 50.2542 35.7639 50.5041 35.9917C51.062 36.4989 51.8951 36.5084 52.4645 36.0497L50.0391 35.1639Z" fill="#3FB686"/>
<path d="M54.0024 30.6694C53.2811 29.7888 52.2455 29.232 51.0897 29.232C48.9131 29.232 46.9453 30.8307 46.9453 33.2499C46.9453 33.5399 47.0634 34.1958 47.23 34.5016C48.2361 34.0756 50.7301 32.8059 52.1559 30.6377C52.1559 30.6377 52.1063 32.0814 50.0742 34.084C50.0742 34.084 53.0649 33.1887 54.0024 30.6694Z" fill="black"/>
<path d="M41.4052 38.6482C43.4175 38.6482 45.0487 37.0165 45.0487 35.0036C45.0487 32.9908 43.4175 31.3591 41.4052 31.3591C39.393 31.3591 37.7617 32.9908 37.7617 35.0036C37.7617 37.0165 39.393 38.6482 41.4052 38.6482Z" fill="black"/>
<path d="M35.2136 46.1546C38.121 46.1546 40.4779 43.7971 40.4779 40.8891C40.4779 37.9811 38.121 35.6237 35.2136 35.6237C32.3062 35.6237 29.9492 37.9811 29.9492 40.8891C29.9492 43.7971 32.3062 46.1546 35.2136 46.1546Z" fill="black"/>
<path d="M27.7352 58.5213C32.0072 58.5213 35.4704 55.0568 35.4704 50.783C35.4704 46.5092 32.0072 43.0446 27.7352 43.0446C23.4632 43.0446 20 46.5092 20 50.783C20 55.0568 23.4632 58.5213 27.7352 58.5213Z" fill="black"/>
<path d="M46.1024 34.6661C46.0065 34.6661 45.9158 34.606 45.8831 34.5101L45.302 32.8333C45.2598 32.712 45.3242 32.5802 45.4454 32.538C45.5667 32.4969 45.6985 32.5602 45.7407 32.6815L46.3218 34.3582C46.364 34.4795 46.2996 34.6113 46.1783 34.6535C46.153 34.6619 46.1277 34.6661 46.1024 34.6661Z" fill="black"/>
<path d="M73.0969 67.1518L62.9531 54.1871H74.1304L78.8095 59.6645C80.6117 61.7746 83.246 62.9884 86.0195 62.9874L94.0542 62.9842V70.7858L80.5643 70.789C77.6484 70.789 74.895 69.4476 73.098 67.1508L73.0969 67.1518Z" fill="white"/>
<path d="M108.455 66.7142L108.164 67.309L105.24 67.1255L102.923 64.5376H83.9375V63.0412H90.6139C91.5746 63.0412 94.2353 61.4888 96.4035 61.4888H100.353C101.619 61.4888 102.869 61.7799 104.005 62.3409L107.564 64.0968C108.532 64.5745 108.931 65.7461 108.456 66.7152L108.455 66.7142Z" fill="white"/>
<path d="M104.96 68.4184L108.229 70.0171C108.925 70.3609 109.769 70.0719 110.11 69.3738L110.115 69.3622C110.525 68.5196 110.178 67.5041 109.339 67.0896L105.546 65.2188C104.411 64.6589 103.161 64.3668 101.895 64.3668H83.9375V69.8526H97.3114L98.6813 68.547C99.5935 67.6781 100.86 67.2773 102.101 67.4893C102.916 67.6285 103.902 67.9016 104.961 68.4184H104.96Z" fill="white"/>
<path d="M98.7976 68.3794C99.0961 68.4289 99.4177 68.4574 99.771 68.4574C99.9018 68.4711 100.451 68.4669 102.373 68.4616C103.333 68.4595 104.116 69.2388 104.116 70.2006V70.2249C104.116 71.1845 103.339 71.9628 102.379 71.9628H95.0877C89.9847 71.9628 90.2125 68.082 90.2125 68.082V66.1194H91.8439C95.5137 66.1194 96.3785 67.9723 98.7987 68.3783L98.7976 68.3794Z" fill="white"/>
<path d="M108.844 70.3947C108.597 70.3947 108.351 70.3377 108.123 70.2249L104.854 68.6272C103.954 68.1875 103.013 67.8817 102.058 67.7182C100.906 67.5221 99.8558 67.8121 99.0153 68.5555C98.9194 68.6399 98.7728 68.6314 98.6874 68.5355C98.6019 68.4395 98.6114 68.2929 98.7074 68.2075C99.6428 67.3786 100.861 67.0422 102.136 67.2605C103.135 67.4314 104.118 67.7509 105.059 68.2107L108.328 69.8094C108.61 69.9486 108.927 69.9686 109.223 69.8674C109.52 69.7662 109.759 69.5542 109.896 69.2726C110.256 68.5355 109.955 67.656 109.232 67.2985L105.44 65.4277C104.342 64.8867 103.114 64.5999 101.891 64.5999H100.495C100.366 64.5999 100.263 64.4955 100.263 64.3679C100.263 64.2403 100.367 64.1359 100.495 64.1359H101.891C103.186 64.1359 104.484 64.4385 105.645 65.0122L109.438 66.883C110.39 67.3523 110.785 68.5112 110.32 69.4656C110.122 69.8706 109.789 70.1658 109.374 70.3082C109.201 70.3672 109.022 70.3968 108.844 70.3968V70.3947Z" fill="black"/>
<path d="M102.331 72.1969H95.6019C93.5761 72.1969 92.1767 71.8289 91.2107 71.039H80.5639C77.61 71.039 74.7511 69.6396 72.9173 67.2953L62.7724 54.3306C62.7176 54.261 62.707 54.1661 62.746 54.0859C62.785 54.0058 62.8663 53.9551 62.9548 53.9551H74.1321C74.2007 53.9551 74.265 53.9847 74.3093 54.0363L78.9884 59.5137C80.779 61.6102 83.3405 62.8124 86.0181 62.8124H86.0212L90.6107 62.8071C90.9523 62.8071 91.6019 62.5614 92.3549 62.2767C93.5582 61.8211 95.0556 61.2548 96.4002 61.2548H100.35C101.645 61.2548 102.943 61.5575 104.105 62.1311L107.664 63.887C108.733 64.4143 109.184 65.6776 108.687 66.7628C108.633 66.8788 108.496 66.9304 108.379 66.8777C108.262 66.8239 108.211 66.6868 108.264 66.5698C108.655 65.7156 108.301 64.7201 107.458 64.3046L103.899 62.5487C102.801 62.0078 101.574 61.7209 100.35 61.7209H96.4002C95.141 61.7209 93.6868 62.2703 92.5194 62.7122C91.6916 63.0254 91.0378 63.2722 90.6107 63.2722L86.0212 63.2775H86.0181C83.2045 63.2775 80.5133 62.0162 78.634 59.8153L74.0245 54.4191H63.4315L73.2821 67.0085C75.0295 69.241 77.7514 70.5739 80.5639 70.5739H91.294C91.3489 70.5739 91.4026 70.594 91.4448 70.6298C92.3233 71.3817 93.6436 71.7318 95.5998 71.7318H102.329C103.159 71.7318 103.834 71.0559 103.834 70.2259V70.2017C103.834 69.7988 103.677 69.4203 103.391 69.1355C103.106 68.8518 102.729 68.6958 102.328 68.6958H102.325L101.394 68.6979C100.242 68.7011 99.9709 68.7021 99.8465 68.6905C99.3667 68.6905 98.6316 68.6293 98.1202 68.4617C97.9979 68.4216 97.9314 68.2908 97.9715 68.1685C98.0116 68.0462 98.1423 67.9797 98.2647 68.0198C98.7287 68.1717 99.4131 68.2254 99.8581 68.2254C99.8665 68.2254 99.875 68.2254 99.8834 68.2265C99.9762 68.237 100.305 68.236 101.392 68.2328L102.324 68.2307H102.329C102.854 68.2307 103.349 68.4353 103.721 68.8065C104.094 69.1788 104.3 69.6744 104.3 70.2017V70.2259C104.3 71.3121 103.416 72.1969 102.331 72.1969Z" fill="black"/>
<path d="M74.9013 75.9406H36.0312L38.4842 52.7276H66.2381L74.9013 75.9406Z" fill="#3FB686"/>
<path d="M74.8993 76.1736H36.0293C35.9639 76.1736 35.9006 76.1462 35.8563 76.0966C35.812 76.0481 35.7909 75.9828 35.7983 75.9163L38.2502 52.7034C38.2628 52.5852 38.362 52.4956 38.4811 52.4956H66.235C66.332 52.4956 66.4185 52.5557 66.4523 52.6464L75.1155 75.8594C75.1418 75.9311 75.1323 76.0102 75.0891 76.0734C75.0459 76.1357 74.9742 76.1736 74.8982 76.1736H74.8993ZM36.2876 75.7086H74.565L66.0747 52.9607H38.691L36.2876 75.7086Z" fill="black"/>
<path d="M31.4766 65.9517V49.6946H43.7738V59.8353C43.7738 61.1419 44.8326 62.2007 46.1381 62.1996L66.3625 62.1933V73.2778L38.8079 73.283C34.7594 73.283 31.4776 70.0012 31.4776 65.9517H31.4766Z" fill="white"/>
<path d="M78.5223 65.6406L79.7245 66.9398C80.3319 67.5958 80.3931 68.5902 79.87 69.3158L78.6889 70.9556L75.8268 67.7613H57.8477V63.9976H74.7638C76.1907 63.9976 77.5521 64.5934 78.5212 65.6406H78.5223Z" fill="white"/>
<path d="M77.9676 63.2932L78.6478 64.0282C79.2552 64.6842 79.3164 65.6786 78.7933 66.4041L77.6122 68.044L74.7501 64.8497H57.8477V62.2312H60.7161C61.9024 62.2312 64.02 61.086 66.6975 61.086H72.9173C74.8345 61.086 76.6642 61.8864 77.9655 63.2932H77.9676Z" fill="white"/>
<path d="M78.9459 68.1715L80.3885 69.7302C80.996 70.3861 81.0571 71.3806 80.5341 72.1061L79.3529 73.746L76.4909 70.5517H65.3516V66.788H75.779C76.9812 66.788 78.1286 67.2899 78.9448 68.1715H78.9459Z" fill="white"/>
<path d="M78.4195 70.9114L79.9243 72.5375C80.4822 73.1407 80.5381 74.0529 80.0582 74.7194C79.4139 75.6136 78.1084 75.6832 77.3723 74.8628L76.5561 73.9517C76.1659 73.5161 75.6091 73.2673 75.0238 73.2673H65.6709C63.2254 73.2673 61.5043 73.127 59.1484 69.5004L75.1988 69.5035C76.4221 69.5035 77.5895 70.0139 78.4205 70.9114H78.4195Z" fill="white"/>
<path d="M31.4766 61.8073V49.6946H43.7738V59.0781C42.9491 59.0433 41.825 58.9442 40.9518 58.6753C39.6441 58.2724 38.3607 58.0858 37.1016 59.8079C35.4512 62.0646 33.3336 62.3093 31.4776 61.8073H31.4766Z" fill="black"/>
<path d="M79.8729 69.5489C79.8254 69.5489 79.778 69.5341 79.7379 69.5046C79.6335 69.4297 79.6103 69.2842 79.6852 69.1808C80.1418 68.547 80.088 67.6718 79.5576 67.0981L78.3554 65.7988C77.4337 64.8023 76.126 64.2307 74.7678 64.2307H71.4586C71.3299 64.2307 71.2266 64.1263 71.2266 63.9987C71.2266 63.8711 71.331 63.7667 71.4586 63.7667H74.7678C76.2547 63.7667 77.6857 64.3921 78.696 65.4835L79.8982 66.7828C80.5784 67.5167 80.6469 68.6398 80.0617 69.4518C80.0163 69.5151 79.9446 69.5489 79.8729 69.5489Z" fill="black"/>
<path d="M80.0687 72.9762C80.0212 72.9762 79.9738 72.9614 79.9337 72.9319C79.8293 72.857 79.8061 72.7115 79.881 72.6081L80.3408 71.9701C80.7974 71.3363 80.7436 70.4611 80.2132 69.8874L78.7705 68.3288C78.0007 67.4967 76.9092 67.02 75.7756 67.02H71.4234C71.2948 67.02 71.1914 66.9156 71.1914 66.788C71.1914 66.6604 71.2958 66.556 71.4234 66.556H75.7756C77.0379 66.556 78.2538 67.0875 79.1122 68.0145L80.5548 69.5742C81.234 70.3082 81.3036 71.4313 80.7183 72.2433L80.2585 72.8813C80.2132 72.9446 80.1415 72.9783 80.0697 72.9783L80.0687 72.9762Z" fill="black"/>
<path d="M78.6506 75.6695C78.0938 75.6695 77.5676 75.4354 77.1932 75.0178L76.377 74.1067C76.0311 73.7207 75.5354 73.4992 75.0177 73.4992H64.6724C62.7953 73.4992 61.0447 72.5702 59.9891 71.0137C59.9174 70.9071 59.9448 70.7627 60.0513 70.691C60.1579 70.6192 60.3023 70.6467 60.374 70.7532C61.3421 72.1821 62.9493 73.0342 64.6724 73.0342H75.0177C75.6673 73.0342 76.2895 73.3115 76.7229 73.7956L77.5391 74.7067C77.8428 75.0452 78.2784 75.2245 78.7308 75.2013C79.1853 75.1771 79.5976 74.9514 79.8634 74.5823C80.2767 74.0075 80.2282 73.2135 79.7474 72.6936L78.2425 71.0674C77.4579 70.2196 76.3464 69.7334 75.1917 69.7334H71.5693C71.4406 69.7334 71.3372 69.629 71.3372 69.5014C71.3372 69.3738 71.4416 69.2694 71.5693 69.2694H75.1917C76.4751 69.2694 77.7121 69.8104 78.5842 70.7521L80.089 72.3782C80.7197 73.0595 80.7829 74.1004 80.2409 74.8533C79.8929 75.3374 79.3519 75.6326 78.7561 75.6643C78.7202 75.6664 78.6854 75.6674 78.6506 75.6674V75.6695Z" fill="black"/>
<path d="M38.8034 73.5161C36.7839 73.5161 34.8857 72.7294 33.4578 71.3016C32.0289 69.8726 31.2422 67.9734 31.2422 65.9528V49.6957C31.2422 49.5671 31.3466 49.4637 31.4742 49.4637H43.7714C43.9001 49.4637 44.0034 49.5681 44.0034 49.6957V59.8364C44.0034 60.4059 44.2249 60.9416 44.6277 61.3444C45.0306 61.7462 45.5652 61.9687 46.1347 61.9687H60.1825C61.2328 61.9687 62.0722 61.7378 62.9602 61.492C64.0422 61.1936 65.2686 60.8551 67.1162 60.8551H72.9216C74.8967 60.8551 76.7992 61.6871 78.1406 63.1372L78.8208 63.8722C79.4081 64.507 79.5505 65.4224 79.1835 66.2049C79.1287 66.3209 78.9916 66.3715 78.8745 66.3167C78.7585 66.2618 78.709 66.1237 78.7628 66.0077C79.0496 65.3971 78.9378 64.6832 78.4801 64.1886L77.7999 63.4535C76.5461 62.0984 74.7681 61.3212 72.9216 61.3212H67.1162C65.3308 61.3212 64.1887 61.6365 63.0836 61.9413C62.164 62.1944 61.295 62.4348 60.1814 62.4348H46.1336C45.4408 62.4348 44.7891 62.1649 44.2987 61.6745C43.8083 61.1841 43.5384 60.5313 43.5384 59.8374V49.9288H31.7062V65.9539C31.7062 67.851 32.4444 69.6333 33.7858 70.9747C35.1261 72.315 36.9083 73.0532 38.8034 73.0532H68.2467C68.3753 73.0532 68.4787 73.1576 68.4787 73.2852C68.4787 73.4128 68.3743 73.5172 68.2467 73.5172H38.8034V73.5161Z" fill="black"/>
<path d="M76.8342 56.505H67.5562C67.4276 56.505 67.3242 56.4006 67.3242 56.273C67.3242 56.1454 67.4286 56.041 67.5562 56.041H76.8342C76.9629 56.041 77.0662 56.1454 77.0662 56.273C77.0662 56.4006 76.9618 56.505 76.8342 56.505Z" fill="black"/>
<path d="M30.4141 56.2731V52.8004C30.4141 46.3823 35.6152 41.1791 42.0321 41.1791H57.9687C62.9525 41.1791 67.6421 43.5392 70.6139 47.5423L77.0941 56.2731H30.4151H30.4141Z" fill="#3FB686"/>
<path d="M36.029 56.755H30.4156C30.2869 56.755 30.1836 56.6505 30.1836 56.5229V52.8004C30.1836 46.2642 35.4996 40.946 42.0337 40.946H57.9702C63.0047 40.946 67.8008 43.3599 70.801 47.4031L77.2813 56.1338C77.334 56.2045 77.3414 56.2983 77.3024 56.3764C77.2634 56.4544 77.1822 56.504 77.0946 56.504H67.5582C67.4296 56.504 67.3262 56.3996 67.3262 56.272C67.3262 56.1444 67.4306 56.04 67.5582 56.04H76.6327L70.4277 47.6794C67.515 43.7543 62.857 41.4101 57.9691 41.4101H42.0326C35.7548 41.4101 30.6476 46.5194 30.6476 52.7993V56.2888H36.028C36.1566 56.2888 36.26 56.3932 36.26 56.5208C36.26 56.6484 36.1556 56.7528 36.028 56.7528L36.029 56.755Z" fill="black"/>
<path d="M45.4508 56.4829C45.3221 56.4829 45.2188 56.3785 45.2188 56.2509V49.6947C45.2188 49.566 45.3232 49.4627 45.4508 49.4627C45.5784 49.4627 45.6828 49.5671 45.6828 49.6947V56.2509C45.6828 56.3796 45.5784 56.4829 45.4508 56.4829Z" fill="black"/>
<path d="M119.724 73.5182C119.666 73.5182 119.608 73.4971 119.564 73.4539C119.471 73.3653 119.468 73.2177 119.557 73.1249L126.299 66.0783C126.388 65.9855 126.536 65.9823 126.628 66.0709C126.721 66.1595 126.724 66.3071 126.636 66.3999L119.893 73.4465C119.848 73.494 119.786 73.5182 119.725 73.5182H119.724Z" fill="#3FB686"/>
<path d="M88.6891 71.1887C88.6311 71.1887 88.5731 71.1676 88.5288 71.1244C88.436 71.0358 88.4328 70.8881 88.5214 70.7953L103.82 54.8082C103.864 54.7629 103.924 54.7365 103.988 54.7365H137.251C137.343 54.7365 137.428 54.7924 137.465 54.8778C137.501 54.9632 137.483 55.0624 137.419 55.1299L126.634 66.401C126.546 66.4938 126.398 66.497 126.305 66.4084C126.212 66.3198 126.209 66.1721 126.298 66.0793L136.707 55.2016H104.088L88.8578 71.117C88.8125 71.1644 88.7513 71.1887 88.6901 71.1887H88.6891Z" fill="black"/>
<path d="M86.4547 73.5182C86.3967 73.5182 86.3387 73.4971 86.2944 73.4539C86.2016 73.3653 86.1985 73.2177 86.287 73.1249L88.5164 70.7953C88.605 70.7025 88.7526 70.6994 88.8454 70.788C88.9382 70.8765 88.9414 71.0242 88.8528 71.117L86.6234 73.4465C86.5781 73.494 86.5169 73.5182 86.4558 73.5182H86.4547Z" fill="#3FB686"/>
<path d="M119.672 76.1557H67.0445C66.9158 76.1557 66.8125 76.0513 66.8125 75.9237V73.2862C66.8125 73.1575 66.9169 73.0542 67.0445 73.0542H74.5888C74.7175 73.0542 74.8208 73.1586 74.8208 73.2862C74.8208 73.4138 74.7164 73.5182 74.5888 73.5182H67.2765V75.6917H119.439V73.5182H80.4237C80.295 73.5182 80.1917 73.4138 80.1917 73.2862C80.1917 73.1586 80.2961 73.0542 80.4237 73.0542H119.671C119.8 73.0542 119.903 73.1586 119.903 73.2862V75.9237C119.903 76.0523 119.799 76.1557 119.671 76.1557H119.672Z" fill="#3FB686"/>
<path d="M115.023 64.9457C114.084 64.9457 113.32 64.1812 113.32 63.2426C113.32 62.304 114.084 61.5395 115.023 61.5395C115.963 61.5395 116.727 62.304 116.727 63.2426C116.727 64.1812 115.963 64.9457 115.023 64.9457ZM115.023 62.0035C114.34 62.0035 113.785 62.5592 113.785 63.2426C113.785 63.9259 114.341 64.4817 115.023 64.4817C115.706 64.4817 116.261 63.9259 116.261 63.2426C116.261 62.5592 115.706 62.0035 115.023 62.0035Z" fill="black"/>
<path d="M66.8278 37.1387C66.8205 37.1387 66.8123 37.1387 66.805 37.1373C66.7622 37.1314 66.7238 37.1085 66.698 37.0738L65.0325 34.8534C64.9786 34.7818 64.9934 34.68 65.0649 34.6261L74.6536 27.4247C74.6883 27.3988 74.7325 27.387 74.7746 27.3937C74.8174 27.3996 74.8558 27.4232 74.8816 27.4579L76.536 29.6864C76.5892 29.758 76.5744 29.8598 76.5028 29.913L66.9245 37.1063C66.8965 37.1277 66.8618 37.1387 66.8271 37.1387H66.8278ZM65.3904 34.7884L66.8603 36.7484L76.1789 29.7499L74.7178 27.7826L65.3896 34.7884H65.3904Z" fill="white"/>
<path d="M84.3789 30.9866C82.7215 30.9866 81.0449 30.5535 79.5226 29.6421C77.3479 28.3397 75.8108 26.2683 75.1946 23.8081C74.5785 21.3478 74.957 18.7946 76.2602 16.6184C78.9507 12.1252 84.7914 10.6567 89.2817 13.345C91.4563 14.6474 92.9934 16.7188 93.6096 19.179C94.2258 21.6393 93.8472 24.1925 92.5441 26.3687C90.7656 29.3388 87.6103 30.9874 84.3789 30.9874V30.9866ZM84.4246 12.3244C81.3039 12.3244 78.257 13.9161 76.5391 16.7852C75.2802 18.8876 74.9149 21.353 75.5097 23.7291C76.1045 26.1052 77.5892 28.1058 79.6893 29.3632C81.1586 30.2428 82.779 30.6619 84.3789 30.6619C87.4996 30.6619 90.5465 29.0702 92.2644 26.2012C93.5233 24.0988 93.8886 21.6334 93.2938 19.2573C92.699 16.8819 91.2143 14.8806 89.1142 13.6232C87.6449 12.7436 86.0245 12.3244 84.4246 12.3244Z" fill="white"/>
<path d="M79.5664 27.4896C79.5303 27.4896 79.4934 27.4771 79.4631 27.452C78.1902 26.399 77.3032 24.9903 76.8996 23.3786C76.8774 23.2915 76.9305 23.203 77.0176 23.1816C77.1047 23.1602 77.1933 23.2126 77.2147 23.2997C77.6013 24.8434 78.4507 26.1931 79.6697 27.2011C79.7391 27.2579 79.7487 27.3605 79.6911 27.4299C79.6594 27.469 79.6122 27.4889 79.5657 27.4889L79.5664 27.4896Z" fill="white"/>
<path d="M84.3633 29.2238C83.3951 29.2238 82.4181 29.0415 81.4839 28.66C81.4005 28.626 81.3607 28.5308 81.3953 28.4482C81.4293 28.3655 81.5245 28.3257 81.6071 28.3596C84.9588 29.73 88.8942 28.415 90.7596 25.2995C90.8061 25.2227 90.9058 25.1976 90.9825 25.2434C91.0592 25.2899 91.0843 25.3895 91.0386 25.4662C89.6107 27.8505 87.022 29.2245 84.3633 29.2245V29.2238Z" fill="white"/>
<path d="M76.147 29.5912C76.1389 29.5912 76.1315 29.5912 76.1233 29.5897C76.0805 29.5838 76.0422 29.5609 76.0164 29.5263L74.8644 27.9825C74.8106 27.9109 74.8253 27.8091 74.8977 27.7552L76.479 26.5731C76.5514 26.5192 76.6524 26.534 76.7063 26.6063C76.7602 26.6786 76.7454 26.7804 76.6731 26.8336L75.2216 27.9183L76.1794 29.2016L77.7343 28.0401C77.8058 27.9862 77.9084 28.001 77.9615 28.0733C78.0154 28.1449 78.0006 28.2474 77.9283 28.3006L76.2429 29.5595C76.2149 29.5809 76.1802 29.5919 76.1455 29.5919L76.147 29.5912Z" fill="white"/>
<path d="M250.002 125.969L249.187 118.653L244.631 119.161C244.05 117.532 243.214 116.033 242.177 114.71L245.04 111.124L239.294 106.526L236.431 110.112C234.913 109.391 233.27 108.906 231.553 108.697L231.045 104.137L223.734 104.954L224.243 109.514C222.615 110.097 221.119 110.931 219.795 111.97L216.213 109.103L211.62 114.854L215.202 117.721C214.483 119.241 213.997 120.886 213.789 122.603L209.113 123.324L210.047 130.428L214.603 129.919C215.184 131.549 216.02 133.047 217.057 134.371L214.194 137.957L219.94 142.554L222.803 138.968C224.321 139.689 225.964 140.175 227.681 140.383L228.189 144.944L235.5 144.127L234.991 139.566C236.618 138.984 238.115 138.15 239.439 137.111L243.021 139.978L247.614 134.226L244.032 131.36C244.751 129.839 245.237 128.194 245.445 126.477L250.002 125.969ZM230.645 133.766C225.554 134.334 220.967 130.664 220.4 125.569C219.832 120.473 223.498 115.883 228.591 115.314C233.681 114.747 238.269 118.417 238.836 123.511C239.403 128.608 235.738 133.197 230.645 133.766Z" fill="#436FD0"/>
<path d="M208.532 103.258V108.508C208.532 116.302 202.177 122.621 194.338 122.621C186.5 122.621 180.145 116.303 180.145 108.508V103.258H208.532Z" fill="#3FB686"/>
<path d="M194.34 122.767C186.433 122.767 180 116.371 180 108.509V103.259C180 103.178 180.066 103.113 180.146 103.113C180.227 103.113 180.292 103.179 180.292 103.259V108.509C180.292 116.21 186.594 122.476 194.34 122.476C202.086 122.476 208.388 116.21 208.388 108.509V103.259C208.388 103.178 208.453 103.113 208.534 103.113C208.614 103.113 208.68 103.179 208.68 103.259V108.509C208.68 116.371 202.247 122.767 194.34 122.767Z" fill="black"/>
<path d="M194.338 117.371C202.177 117.371 208.532 111.052 208.532 103.258C208.532 95.464 202.177 89.1456 194.338 89.1456C186.499 89.1456 180.145 95.464 180.145 103.258C180.145 111.052 186.499 117.371 194.338 117.371Z" fill="#436FD0"/>
<path d="M194.34 117.516C186.433 117.516 180 111.12 180 103.258C180 95.3961 186.433 89 194.34 89C202.247 89 208.68 95.3961 208.68 103.258C208.68 111.12 202.247 117.516 194.34 117.516ZM194.34 89.2917C186.594 89.2917 180.292 95.5568 180.292 103.258C180.292 110.959 186.594 117.224 194.34 117.224C202.086 117.224 208.388 110.959 208.388 103.258C208.388 95.5568 202.086 89.2917 194.34 89.2917Z" fill="black"/>
<path d="M184.133 104.813C184.061 104.813 183.998 104.76 183.988 104.687C183.923 104.217 183.891 103.736 183.891 103.259C183.891 99.6225 185.843 96.2025 188.985 94.3337C189.054 94.2927 189.144 94.3152 189.186 94.384C189.227 94.4528 189.205 94.5428 189.136 94.5838C186.081 96.4003 184.184 99.7243 184.184 103.259C184.184 103.723 184.216 104.19 184.279 104.647C184.29 104.727 184.234 104.801 184.154 104.811C184.147 104.813 184.141 104.813 184.134 104.813H184.133Z" fill="white"/>
<path d="M188.701 111.985C188.674 111.985 188.646 111.977 188.621 111.961C186.739 110.736 185.28 108.909 184.513 106.816C184.485 106.741 184.524 106.657 184.6 106.63C184.676 106.603 184.76 106.641 184.787 106.716C185.533 108.751 186.951 110.527 188.781 111.717C188.848 111.761 188.868 111.852 188.823 111.919C188.795 111.962 188.748 111.985 188.7 111.985L188.701 111.985Z" fill="white"/>
<path d="M194.341 113.651C192.857 113.651 191.423 113.348 190.079 112.751C190.005 112.718 189.972 112.632 190.005 112.558C190.038 112.485 190.124 112.452 190.199 112.485C191.505 113.066 192.899 113.36 194.341 113.36C198.1 113.36 201.535 111.311 203.308 108.012C203.346 107.941 203.435 107.914 203.506 107.952C203.577 107.99 203.605 108.078 203.566 108.149C201.742 111.543 198.207 113.652 194.341 113.652L194.341 113.651Z" fill="white"/>
<path d="M204.329 105.93C204.317 105.93 204.305 105.929 204.293 105.925C204.215 105.905 204.168 105.826 204.188 105.748C204.394 104.938 204.499 104.101 204.499 103.258C204.499 100.56 203.442 98.0236 201.523 96.1152C201.466 96.0583 201.466 95.9663 201.523 95.9094C201.581 95.8525 201.673 95.8525 201.73 95.9094C203.704 97.8721 204.792 100.482 204.792 103.258C204.792 104.125 204.684 104.987 204.472 105.819C204.456 105.886 204.396 105.929 204.331 105.929L204.329 105.93Z" fill="white"/>
<path d="M200.105 94.9072C200.077 94.9072 200.049 94.8993 200.023 94.8821C198.343 93.7536 196.379 93.1569 194.343 93.1569C193.449 93.1569 192.563 93.272 191.708 93.4996C191.63 93.5207 191.55 93.4744 191.528 93.3964C191.508 93.3183 191.554 93.2389 191.632 93.2178C192.512 92.9836 193.424 92.8652 194.343 92.8652C196.438 92.8652 198.458 93.479 200.187 94.64C200.254 94.685 200.271 94.7756 200.226 94.8424C200.197 94.8841 200.152 94.9066 200.104 94.9066L200.105 94.9072Z" fill="white"/>
<path d="M203.138 119.602C203.057 119.602 202.992 119.536 202.992 119.456V115.461C202.992 115.38 203.058 115.315 203.138 115.315C203.219 115.315 203.285 115.381 203.285 115.461V119.456C203.285 119.537 203.219 119.602 203.138 119.602Z" fill="black"/>
<path d="M201.025 120.914C200.944 120.914 200.879 120.849 200.879 120.769V118.086C200.879 118.005 200.945 117.94 201.025 117.94C201.106 117.94 201.171 118.006 201.171 118.086V120.769C201.171 120.849 201.106 120.914 201.025 120.914Z" fill="black"/>
<path d="M198.654 121.965C198.573 121.965 198.508 121.899 198.508 121.819V119.136C198.508 119.055 198.574 118.991 198.654 118.991C198.734 118.991 198.8 119.056 198.8 119.136V121.819C198.8 121.9 198.734 121.965 198.654 121.965Z" fill="black"/>
<path d="M191.66 102.743C191.606 102.743 191.554 102.714 191.529 102.662C191.318 102.234 191.211 101.773 191.211 101.293C191.211 99.5755 192.616 98.1784 194.344 98.1784C195.555 98.1784 196.669 98.8836 197.183 99.9744C197.218 100.047 197.186 100.134 197.113 100.168C197.04 100.203 196.952 100.171 196.918 100.098C196.453 99.1091 195.442 98.4695 194.344 98.4695C192.778 98.4695 191.504 99.7363 191.504 101.293C191.504 101.728 191.601 102.145 191.792 102.533C191.827 102.605 191.797 102.693 191.725 102.728C191.704 102.738 191.682 102.743 191.66 102.743V102.743Z" fill="white"/>
<path d="M194.338 108.528C193.424 108.528 192.557 108.132 191.961 107.442C191.909 107.381 191.915 107.289 191.976 107.236C192.038 107.184 192.13 107.191 192.183 107.252C192.724 107.877 193.509 108.235 194.338 108.235C195.904 108.235 197.177 106.968 197.177 105.412C197.177 104.952 197.064 104.496 196.849 104.093C196.811 104.021 196.838 103.933 196.91 103.896C196.982 103.858 197.07 103.885 197.108 103.957C197.345 104.402 197.471 104.905 197.471 105.412C197.471 107.13 196.065 108.527 194.338 108.527V108.528Z" fill="white"/>
<path d="M194.208 110.659C194.129 110.659 194.064 110.596 194.062 110.517L194.008 108.385C194.006 108.305 194.07 108.238 194.151 108.236H194.155C194.234 108.236 194.299 108.299 194.301 108.378L194.355 110.51C194.357 110.59 194.293 110.657 194.212 110.659H194.208Z" fill="white"/>
<path d="M194.341 98.4695C194.264 98.4695 194.2 98.4093 194.195 98.3319L194.055 95.7917C194.05 95.711 194.112 95.6429 194.193 95.6382C194.27 95.6303 194.343 95.6951 194.347 95.7758L194.488 98.316C194.492 98.3967 194.431 98.4648 194.349 98.4695C194.347 98.4695 194.344 98.4695 194.341 98.4695Z" fill="white"/>
<path d="M195.887 103.62C195.878 103.62 195.868 103.619 195.858 103.617L192.618 102.968C192.539 102.952 192.487 102.876 192.503 102.797C192.519 102.718 192.596 102.667 192.675 102.683L195.915 103.331C195.994 103.347 196.045 103.424 196.03 103.503C196.016 103.572 195.955 103.62 195.886 103.62H195.887Z" fill="white"/>
<path d="M233.006 50.0037C230.807 61.8017 220.431 70.3656 208.335 70.3656C198.496 70.3656 189.742 64.7444 185.643 56.092L189.151 54.5345L178.565 46.9212L177.219 59.8309L180.747 58.2649C185.701 68.8226 196.356 75.6883 208.334 75.6883C223.015 75.6883 235.607 65.2934 238.276 50.9729L233.006 50.0045V50.0037Z" fill="#3FB686"/>
<path d="M236.732 34.4966C232.265 22.9398 221.146 15.1892 208.333 15.1892C194.014 15.1892 181.802 24.8672 178.637 38.7256L183.864 39.9029C186.472 28.4859 196.535 20.512 208.333 20.512C218.985 20.512 228.219 27.0103 231.833 36.6721L228.488 38.1562L239.074 45.7695L240.421 32.8599L236.732 34.4974V34.4966Z" fill="#3FB686"/>
<path d="M208.332 75.875C202.444 75.875 196.729 74.2213 191.803 71.0927C186.965 68.0205 183.113 63.6721 180.653 58.5104L177.293 60.0014C177.232 60.0286 177.16 60.0218 177.105 59.9818C177.051 59.9425 177.021 59.8769 177.028 59.8104L178.375 46.9008C178.382 46.8343 178.424 46.7763 178.485 46.749C178.547 46.7217 178.618 46.7294 178.673 46.7686L189.259 54.3811C189.313 54.4203 189.343 54.4859 189.336 54.5524C189.329 54.6198 189.287 54.6769 189.224 54.705L185.893 56.184C190.006 64.6916 198.791 70.1772 208.331 70.1772C220.337 70.1772 230.635 61.6782 232.817 49.9688C232.836 49.8665 232.935 49.7983 233.038 49.8187L238.308 50.7871C238.356 50.7965 238.4 50.8246 238.429 50.8655C238.458 50.9065 238.469 50.9576 238.459 51.0062C235.774 65.4162 223.103 75.875 208.332 75.875ZM180.744 58.0765C180.816 58.0765 180.883 58.1166 180.916 58.1848C185.851 68.7033 196.613 75.4999 208.332 75.4999C222.858 75.4999 235.327 65.2593 238.053 51.123L233.154 50.2228C230.865 62.0149 220.456 70.554 208.332 70.554C203.49 70.554 198.787 69.1977 194.733 66.6327C190.708 64.0864 187.505 60.4694 185.47 56.173C185.448 56.1269 185.446 56.0749 185.464 56.0272C185.482 55.9795 185.518 55.942 185.564 55.9206L188.773 54.4962L178.718 47.2648L177.439 59.5282L180.668 58.0944C180.693 58.0833 180.72 58.0782 180.744 58.0782V58.0765Z" fill="black"/>
<path d="M239.073 45.9562C239.034 45.9562 238.995 45.9443 238.963 45.9204L228.377 38.3071C228.322 38.2679 228.293 38.2023 228.3 38.1358C228.307 38.0684 228.349 38.0113 228.41 37.9832L231.592 36.5706C227.907 26.9225 218.795 20.6978 208.331 20.6978C196.621 20.6978 186.634 28.6112 184.046 39.9421C184.023 40.0436 183.921 40.1049 183.82 40.0836L178.593 38.9064C178.544 38.8953 178.502 38.8655 178.475 38.8237C178.448 38.7819 178.439 38.7308 178.45 38.6822C181.635 24.7385 193.923 15 208.331 15C214.623 15 220.652 16.8507 225.767 20.3534C230.782 23.7872 234.606 28.5874 236.833 34.2434L240.341 32.686C240.402 32.6587 240.474 32.6664 240.528 32.7056C240.583 32.7448 240.612 32.8104 240.606 32.8769L239.259 45.7866C239.252 45.8531 239.21 45.9111 239.148 45.9383C239.124 45.9494 239.098 45.9545 239.071 45.9545L239.073 45.9562ZM228.864 38.1937L238.919 45.426L240.198 33.1625L236.807 34.668C236.76 34.6893 236.706 34.6901 236.658 34.6697C236.61 34.6501 236.572 34.6117 236.554 34.564C232.049 22.9083 220.97 15.3768 208.331 15.3768C194.164 15.3768 182.073 24.9098 178.861 38.5833L183.72 39.677C186.413 28.2719 196.506 20.3228 208.331 20.3228C213.572 20.3228 218.584 21.8751 222.828 24.8135C227.037 27.7281 230.212 31.8054 232.007 36.6056C232.042 36.6985 231.998 36.8025 231.907 36.8426L228.862 38.1937H228.864Z" fill="black"/>
<path d="M193.71 42.9171C198.443 38.2072 198.443 30.5708 193.71 25.8608C188.977 21.1509 181.303 21.1509 176.57 25.8608C171.837 30.5708 171.837 38.2072 176.57 42.9171C181.303 47.6271 188.977 47.6271 193.71 42.9171Z" fill="#3FB686"/>
<path d="M185.144 46.6373C178.357 46.6373 172.836 41.1424 172.836 34.3892C172.836 27.636 178.358 22.1411 185.144 22.1411C191.931 22.1411 197.453 27.636 197.453 34.3892C197.453 41.1424 191.931 46.6373 185.144 46.6373ZM185.144 22.5161C178.565 22.5161 173.213 27.8423 173.213 34.3892C173.213 40.9361 178.565 46.2623 185.144 46.2623C191.723 46.2623 197.076 40.9361 197.076 34.3892C197.076 27.8423 191.723 22.5161 185.144 22.5161Z" fill="black"/>
<path d="M185.141 35.2032C181.667 35.2032 178.49 36.4691 176.051 38.5628C177.637 41.9786 181.111 44.3493 185.141 44.3493C189.17 44.3493 192.644 41.9786 194.231 38.5628C191.791 36.4691 188.614 35.2032 185.141 35.2032Z" fill="white"/>
<path d="M185.143 33.6646C187.442 33.6646 189.305 31.8101 189.305 29.5225C189.305 27.2349 187.442 25.3804 185.143 25.3804C182.844 25.3804 180.98 27.2349 180.98 29.5225C180.98 31.8101 182.844 33.6646 185.143 33.6646Z" fill="white"/>
<path d="M230.764 71.4073C237.458 71.4073 242.884 66.0076 242.884 59.3467C242.884 52.6858 237.458 47.2861 230.764 47.2861C224.071 47.2861 218.645 52.6858 218.645 59.3467C218.645 66.0076 224.071 71.4073 230.764 71.4073Z" fill="#3FB686"/>
<path d="M230.765 71.5948C223.978 71.5948 218.457 66.0999 218.457 59.3467C218.457 52.5935 223.979 47.0985 230.765 47.0985C237.552 47.0985 243.074 52.5935 243.074 59.3467C243.074 66.0999 237.552 71.5948 230.765 71.5948ZM230.765 47.4736C224.186 47.4736 218.834 52.7998 218.834 59.3467C218.834 65.8936 224.186 71.2197 230.765 71.2197C237.344 71.2197 242.697 65.8936 242.697 59.3467C242.697 52.7998 237.344 47.4736 230.765 47.4736Z" fill="black"/>
<path d="M230.762 60.1607C227.288 60.1607 224.111 61.4266 221.672 63.5203C223.258 66.9361 226.732 69.3068 230.762 69.3068C234.791 69.3068 238.265 66.9361 239.852 63.5203C237.412 61.4266 234.235 60.1607 230.762 60.1607Z" fill="white"/>
<path d="M230.762 58.4524C233.074 58.4524 234.949 56.5869 234.949 54.2856C234.949 51.9843 233.074 50.1188 230.762 50.1188C228.449 50.1188 226.574 51.9843 226.574 54.2856C226.574 56.5869 228.449 58.4524 230.762 58.4524Z" fill="white"/>
</g>
<defs>
<clipPath id="clip0_2007_10178">
<rect width="260" height="156" fill="white"/>
</clipPath>
</defs>
</svg>
