<svg width="240" height="176" viewBox="0 0 240 176" fill="none" xmlns="http://www.w3.org/2000/svg">
<g clip-path="url(#clip0_2064_4037)">
<path d="M93.0352 23.8802C93.0352 19.2137 96.8181 15.4307 101.485 15.4307L144.839 15.4307C146.851 15.4307 148.798 16.149 150.328 17.4563L154 20.5943L156.398 22.7741C158.16 24.3755 159.164 26.6457 159.164 29.0263V103.406C159.164 108.073 155.381 111.856 150.714 111.856H101.485C96.8181 111.856 93.0352 108.073 93.0352 103.406V23.8802Z" fill="url(#paint0_linear_2064_4037)"/>
<rect x="124.012" y="30.4517" width="29.1039" height="0.938837" rx="0.469419" fill="#D9D9D9"/>
<rect x="124.012" y="36.0845" width="29.1039" height="0.938837" rx="0.469419" fill="#D9D9D9"/>
<rect x="99.6094" y="50.167" width="53.5137" height="0.938837" rx="0.469419" fill="#D9D9D9"/>
<rect x="99.6094" y="56.7388" width="53.5137" height="0.938837" rx="0.469419" fill="#D9D9D9"/>
<rect x="99.6094" y="63.3107" width="53.5137" height="0.938837" rx="0.469419" fill="#D9D9D9"/>
<rect x="99.6094" y="69.8826" width="53.5137" height="0.938837" rx="0.469419" fill="#D9D9D9"/>
<rect x="99.6094" y="76.4544" width="53.5137" height="0.938837" rx="0.469419" fill="#D9D9D9"/>
<rect x="99.6094" y="83.0263" width="53.5137" height="0.938837" rx="0.469419" fill="#D9D9D9"/>
<rect x="99.6094" y="89.5981" width="53.5137" height="0.938837" rx="0.469419" fill="#D9D9D9"/>
<rect x="99.6094" y="96.17" width="53.5137" height="0.938837" rx="0.469419" fill="#D9D9D9"/>
<rect x="99.6094" y="102.742" width="53.5137" height="0.938837" rx="0.469419" fill="#D9D9D9"/>
<rect x="102.539" y="23.9341" width="18.8403" height="22.234" transform="rotate(1.00118 102.539 23.9341)" fill="#42454C"/>
<path d="M105.685 39.3192C105.775 36.0708 108.481 33.5102 111.729 33.5999C114.83 33.6856 117.274 36.2686 117.189 39.3694L117.066 43.8257L105.57 43.5082L105.685 39.3192Z" fill="url(#paint1_linear_2064_4037)"/>
<circle cx="111.104" cy="29.4275" r="2.81651" transform="rotate(8.06499 111.104 29.4275)" fill="#939394"/>
<path d="M145.797 12.457L153.651 19.9677L161.288 27.4784H146.736C146.217 27.4784 145.797 27.0581 145.797 26.5396V12.457Z" fill="#42454C"/>
</g>
<path d="M58.7976 120.439C58.0963 115.543 61.8953 111.161 66.8416 111.161L122.479 111.161C126.967 111.161 130.605 114.799 130.605 119.287V157.412C130.605 161.926 126.925 165.575 122.411 165.538L72.1745 165.12C68.1574 165.087 64.7676 162.123 64.1981 158.146L58.7976 120.439Z" fill="url(#paint2_linear_2064_4037)"/>
<path d="M185.677 39.9926C187.607 36.4446 192.048 35.1332 195.596 37.0635L228.559 54.997C230.089 55.8294 231.271 57.1807 231.894 58.8076L233.388 62.7125L234.309 65.3617C234.986 67.3079 234.811 69.4493 233.826 71.2593L203.059 127.811C201.129 131.359 196.687 132.67 193.139 130.74L155.71 110.376C152.162 108.446 150.851 104.004 152.781 100.456L185.677 39.9926Z" fill="url(#paint3_linear_2064_4037)"/>
<path d="M193.192 59.4358L187.78 56.4914L185.476 58.5933L182.614 57.0364L194.904 46.0872L198.077 47.8136L195.56 64.0797L192.679 62.5121L193.192 59.4358ZM193.639 56.853L194.765 50.0988L189.706 54.7135L193.639 56.853Z" fill="#42454C"/>
<rect x="206.516" y="57.8052" width="25.1908" height="0.812607" rx="0.406303" transform="rotate(28.5487 206.516 57.8052)" fill="#D9D9D9"/>
<rect x="204.18" y="62.0879" width="25.1908" height="0.812607" rx="0.406303" transform="rotate(28.5487 204.18 62.0879)" fill="#D9D9D9"/>
<rect x="179.805" y="62.6978" width="46.3186" height="0.812607" rx="0.406303" transform="rotate(28.5487 179.805 62.6978)" fill="#D9D9D9"/>
<rect x="177.086" y="67.6944" width="46.3186" height="0.812607" rx="0.406303" transform="rotate(28.5487 177.086 67.6944)" fill="#D9D9D9"/>
<rect x="174.367" y="72.691" width="46.3186" height="0.812607" rx="0.406303" transform="rotate(28.5487 174.367 72.691)" fill="#D9D9D9"/>
<rect x="171.648" y="77.6876" width="46.3186" height="0.812607" rx="0.406303" transform="rotate(28.5487 171.648 77.6876)" fill="#D9D9D9"/>
<rect x="168.93" y="82.6842" width="46.3186" height="0.812607" rx="0.406303" transform="rotate(28.5487 168.93 82.6842)" fill="#D9D9D9"/>
<rect x="166.211" y="87.6808" width="46.3186" height="0.812607" rx="0.406303" transform="rotate(28.5487 166.211 87.6808)" fill="#D9D9D9"/>
<rect x="163.492" y="92.6775" width="46.3186" height="0.812607" rx="0.406303" transform="rotate(28.5487 163.492 92.6775)" fill="#D9D9D9"/>
<rect x="160.777" y="97.6741" width="46.3186" height="0.812607" rx="0.406303" transform="rotate(28.5487 160.777 97.6741)" fill="#D9D9D9"/>
<rect x="158.059" y="102.671" width="46.3186" height="0.812607" rx="0.406303" transform="rotate(28.5487 158.059 102.671)" fill="#D9D9D9"/>
<path d="M7.03605 66.284C5.26652 61.834 7.43945 56.7921 11.8894 55.0225L53.2316 38.5829C55.1507 37.8198 57.2791 37.7667 59.2339 38.4332L63.9257 40.0329L67.0389 41.2024C69.3259 42.0615 71.1444 43.8455 72.0471 46.1156L100.251 117.043C102.021 121.493 99.848 126.535 95.3981 128.305L48.4532 146.972C44.0032 148.742 38.9613 146.569 37.1918 142.119L7.03605 66.284Z" fill="url(#paint4_linear_2064_4037)"/>
<rect x="48.0664" y="117.356" width="31.7939" height="0.963451" rx="0.481726" transform="rotate(-21.6852 48.0664 117.356)" fill="#D9D9D9"/>
<rect x="50.5586" y="123.623" width="31.7939" height="0.963451" rx="0.481726" transform="rotate(-21.6852 50.5586 123.623)" fill="#D9D9D9"/>
<rect x="53.0508" y="129.89" width="31.7939" height="0.963451" rx="0.481726" transform="rotate(-21.6852 53.0508 129.89)" fill="#D9D9D9"/>
<circle cx="50.1583" cy="82.2398" r="21.2676" fill="#42454C"/>
<mask id="mask0_2064_4037" style="mask-type:alpha" maskUnits="userSpaceOnUse" x="28" y="61" width="43" height="43">
<rect x="28.2539" y="74.7474" width="31.9015" height="31.9015" transform="rotate(-24.1895 28.2539 74.7474)" fill="#D9D9D9"/>
</mask>
<g mask="url(#mask0_2064_4037)">
<path d="M52.8481 94.7442L51.6819 92.1224C50.5068 92.3624 49.3782 92.3126 48.296 91.9731C47.2139 91.6335 46.2114 90.9159 45.2887 89.8201L47.1157 87.8922C47.8515 88.7308 48.6293 89.2695 49.4489 89.5083C50.2686 89.747 51.1615 89.6473 52.1274 89.2091C52.9526 88.8348 53.5683 88.3296 53.9746 87.6934C54.3809 87.0572 54.4078 86.3428 54.0552 85.5501C53.7388 84.8388 53.2666 84.3752 52.6385 84.1594C52.0105 83.9436 50.7739 83.9367 48.9289 84.1386C46.9541 84.375 45.4752 84.2582 44.4922 83.7882C43.5092 83.3182 42.7736 82.5345 42.2855 81.437C41.6979 80.1159 41.664 78.8978 42.1838 77.7827C42.7036 76.6676 43.3836 75.8584 44.2239 75.3551L43.0849 72.7942L45.4998 71.6987L46.6389 74.2595C47.7174 73.9656 48.7126 73.96 49.6243 74.2425C50.5359 74.525 51.328 75.0144 52.0006 75.7108L50.2006 77.6997C49.6699 77.1589 49.1108 76.8263 48.5234 76.702C47.936 76.5777 47.2599 76.689 46.4952 77.0359C45.6097 77.4376 45.0237 77.9416 44.7371 78.5479C44.4505 79.1542 44.4383 79.752 44.7004 80.3414C44.9988 81.0121 45.5357 81.4036 46.3112 81.5159C47.0867 81.6281 48.314 81.5599 49.993 81.3111C51.5624 81.0876 52.901 81.2559 54.0086 81.8159C55.1163 82.3759 55.9278 83.2351 56.4431 84.3936C57.0849 85.8366 57.1504 87.1258 56.6397 88.2613C56.1289 89.3967 55.2904 90.3389 54.124 91.0878L55.263 93.6487L52.8481 94.7442Z" fill="#919193"/>
</g>
<g filter="url(#filter0_d_2064_4037)">
<path d="M64.7695 79.4693C64.7695 74.9814 68.4077 71.3433 72.8956 71.3433H98.1853C100.453 71.3433 102.618 72.2911 104.156 73.9576L113.957 84.5748C115.495 86.2413 117.66 87.1891 119.928 87.1891H177.722C182.21 87.1891 185.848 90.8273 185.848 95.3152V158.292C185.848 162.78 182.21 166.418 177.722 166.418H72.8956C68.4077 166.418 64.7695 162.78 64.7695 158.292V79.4693Z" fill="url(#paint5_linear_2064_4037)"/>
<path d="M83.5295 112.577C84.1115 114.749 85.5323 116.601 87.4796 117.725C89.4268 118.849 91.7408 119.154 93.9127 118.572C96.0845 117.99 97.9362 116.569 99.0604 114.622C100.185 112.675 100.489 110.361 99.9074 108.189L91.7184 110.383L83.5295 112.577Z" fill="#404348"/>
</g>
<circle cx="198.048" cy="152.604" r="7.31346" fill="url(#paint6_linear_2064_4037)"/>
<circle cx="7.31346" cy="7.31346" r="7.31346" transform="matrix(-1 0 0 1 29.0273 142.04)" fill="url(#paint7_linear_2064_4037)"/>
<circle cx="215.11" cy="141.228" r="4.06303" fill="url(#paint8_linear_2064_4037)"/>
<circle cx="4.06303" cy="4.06303" r="4.06303" transform="matrix(-1 0 0 1 8.70312 133.914)" fill="url(#paint9_linear_2064_4037)"/>
<circle cx="207.797" cy="119.287" r="3.25043" fill="url(#paint10_linear_2064_4037)"/>
<path d="M62.5655 39.4475L69.2913 42.1684C70.4925 42.6543 70.6699 44.2817 69.6015 45.015L63.1186 49.4644C62.3784 49.9725 61.3663 49.7841 60.8586 49.0436L54.7708 40.1654C53.9063 38.9047 55.1023 37.2563 56.569 37.6869L62.5655 39.4475Z" fill="#5D5F67"/>
<path d="M138.91 148.938C138.905 146.057 138.333 143.204 137.227 140.544C136.12 137.884 134.5 135.468 132.46 133.433C130.419 131.399 127.998 129.787 125.335 128.688C122.671 127.59 119.817 127.026 116.936 127.031C114.055 127.035 111.203 127.607 108.542 128.714C105.882 129.82 103.466 131.44 101.432 133.48C99.3973 135.521 97.7848 137.942 96.6863 140.606C95.5877 143.269 95.0245 146.123 95.0289 149.004L103.373 148.992C103.37 147.206 103.719 145.438 104.4 143.787C105.081 142.136 106.08 140.636 107.341 139.372C108.601 138.107 110.099 137.103 111.747 136.418C113.396 135.732 115.163 135.378 116.949 135.375C118.734 135.372 120.503 135.721 122.153 136.402C123.804 137.083 125.304 138.082 126.569 139.342C127.833 140.603 128.837 142.1 129.523 143.749C130.209 145.398 130.563 147.165 130.566 148.95L138.91 148.938Z" fill="#404348"/>
<path d="M95.0756 99.9081L76.366 112.868L74.3344 109.349L93.9919 98L95.0756 99.9081Z" fill="#404348"/>
<g filter="url(#filter1_d_2064_4037)">
<path d="M168.891 54.7147C170.246 55.2912 171.211 56.2777 171.786 57.6732C172.377 59.0751 172.381 60.4616 171.798 61.8319C171.402 62.7607 170.807 63.506 170.011 64.0665C169.23 64.6332 168.362 64.9832 167.406 65.116C166.473 65.2402 165.548 65.1076 164.635 64.7189C163.264 64.1358 162.292 63.1463 161.717 61.7508C161.142 60.3552 161.152 58.9567 161.748 57.5559C162.331 56.1856 163.325 55.2241 164.729 54.6707C166.134 54.1175 167.521 54.1317 168.891 54.7147ZM186.096 17.2584C189.004 18.4958 191.345 20.0944 193.119 22.0539C194.908 24.0197 196.017 26.2089 196.447 28.6214C196.899 31.0254 196.577 33.5144 195.482 36.0876C194.744 37.8234 193.802 39.2569 192.655 40.3875C191.524 41.5247 190.221 42.4094 188.748 43.0412C187.274 43.673 185.659 44.1097 183.902 44.3511C182.344 44.5876 180.995 44.9481 179.853 45.4334C178.727 45.9252 177.737 46.6464 176.884 47.5959C176.052 48.5366 175.284 49.8105 174.582 51.418L174.33 52.012L166.725 48.7763L166.978 48.1823C168.165 45.4329 169.357 43.3502 170.553 41.9348C171.763 40.526 173.051 39.5279 174.416 38.9399C175.788 38.3366 177.33 37.9041 179.041 37.6432C180.216 37.4598 181.315 37.1812 182.337 36.8071C183.381 36.4241 184.298 35.8965 185.087 35.2252C185.882 34.5387 186.507 33.6626 186.961 32.5967C187.472 31.3939 187.634 30.2308 187.446 29.108C187.259 27.9854 186.789 26.9766 186.037 26.0814C185.301 25.1925 184.346 24.498 183.174 23.9991C182.093 23.5392 180.965 23.3381 179.79 23.3955C178.636 23.4441 177.538 23.8042 176.497 24.476C175.478 25.1391 174.625 26.1707 173.94 27.5695L165.809 24.1098C167.116 21.2493 168.847 19.1269 171.001 17.7415C173.17 16.3627 175.558 15.6522 178.165 15.6105C180.787 15.5754 183.431 16.1247 186.096 17.2584Z" fill="url(#paint11_linear_2064_4037)"/>
</g>
<defs>
<filter id="filter0_d_2064_4037" x="64.7695" y="68.0116" width="126.848" height="98.4067" filterUnits="userSpaceOnUse" color-interpolation-filters="sRGB">
<feFlood flood-opacity="0" result="BackgroundImageFix"/>
<feColorMatrix in="SourceAlpha" type="matrix" values="0 0 0 0 0 0 0 0 0 0 0 0 0 0 0 0 0 0 127 0" result="hardAlpha"/>
<feOffset dx="5.68825" dy="-3.25043"/>
<feGaussianBlur stdDeviation="0.0406303"/>
<feComposite in2="hardAlpha" operator="out"/>
<feColorMatrix type="matrix" values="0 0 0 0 0.25098 0 0 0 0 0.266667 0 0 0 0 0.298039 0 0 0 0.48 0"/>
<feBlend mode="normal" in2="BackgroundImageFix" result="effect1_dropShadow_2064_4037"/>
<feBlend mode="normal" in="SourceGraphic" in2="effect1_dropShadow_2064_4037" result="shape"/>
</filter>
<filter id="filter1_d_2064_4037" x="157.293" y="15.6089" width="43.3516" height="57.5521" filterUnits="userSpaceOnUse" color-interpolation-filters="sRGB">
<feFlood flood-opacity="0" result="BackgroundImageFix"/>
<feColorMatrix in="SourceAlpha" type="matrix" values="0 0 0 0 0 0 0 0 0 0 0 0 0 0 0 0 0 0 127 0" result="hardAlpha"/>
<feOffset dy="4"/>
<feGaussianBlur stdDeviation="2"/>
<feComposite in2="hardAlpha" operator="out"/>
<feColorMatrix type="matrix" values="0 0 0 0 0 0 0 0 0 0 0 0 0 0 0 0 0 0 0.25 0"/>
<feBlend mode="normal" in2="BackgroundImageFix" result="effect1_dropShadow_2064_4037"/>
<feBlend mode="normal" in="SourceGraphic" in2="effect1_dropShadow_2064_4037" result="shape"/>
</filter>
<linearGradient id="paint0_linear_2064_4037" x1="126.099" y1="15.4307" x2="126.099" y2="111.856" gradientUnits="userSpaceOnUse">
<stop stop-color="#959595"/>
<stop offset="1" stop-color="#606064"/>
</linearGradient>
<linearGradient id="paint1_linear_2064_4037" x1="108.727" y1="32.8824" x2="118.901" y2="48.0732" gradientUnits="userSpaceOnUse">
<stop stop-color="#AEAEAE"/>
<stop offset="1" stop-color="#6A6A6D"/>
</linearGradient>
<linearGradient id="paint2_linear_2064_4037" x1="57.4688" y1="107.911" x2="77.3776" y2="158.292" gradientUnits="userSpaceOnUse">
<stop stop-color="#BDC3C0"/>
<stop offset="1" stop-color="#40434A"/>
</linearGradient>
<linearGradient id="paint3_linear_2064_4037" x1="214.311" y1="47.2454" x2="174.425" y2="120.558" gradientUnits="userSpaceOnUse">
<stop stop-color="#959595"/>
<stop offset="1" stop-color="#606064"/>
</linearGradient>
<linearGradient id="paint4_linear_2064_4037" x1="12.0569" y1="60.6585" x2="78.9966" y2="135.131" gradientUnits="userSpaceOnUse">
<stop stop-color="#B9B9B9"/>
<stop offset="1" stop-color="#606064"/>
</linearGradient>
<linearGradient id="paint5_linear_2064_4037" x1="125.309" y1="71.3433" x2="125.309" y2="166.418" gradientUnits="userSpaceOnUse">
<stop stop-color="#C1C7C4"/>
<stop offset="1" stop-color="#6A6B6F"/>
</linearGradient>
<linearGradient id="paint6_linear_2064_4037" x1="202.517" y1="145.291" x2="195.61" y2="159.917" gradientUnits="userSpaceOnUse">
<stop stop-color="#D9D9D9"/>
<stop offset="1" stop-color="#737373"/>
</linearGradient>
<linearGradient id="paint7_linear_2064_4037" x1="11.7828" y1="8.74524e-09" x2="4.87564" y2="14.6269" gradientUnits="userSpaceOnUse">
<stop stop-color="#D9D9D9"/>
<stop offset="1" stop-color="#737373"/>
</linearGradient>
<linearGradient id="paint8_linear_2064_4037" x1="217.593" y1="137.165" x2="213.756" y2="145.291" gradientUnits="userSpaceOnUse">
<stop stop-color="#D9D9D9"/>
<stop offset="1" stop-color="#737373"/>
</linearGradient>
<linearGradient id="paint9_linear_2064_4037" x1="6.546" y1="4.85847e-09" x2="2.70869" y2="8.12607" gradientUnits="userSpaceOnUse">
<stop stop-color="#D9D9D9"/>
<stop offset="1" stop-color="#737373"/>
</linearGradient>
<linearGradient id="paint10_linear_2064_4037" x1="209.784" y1="116.037" x2="206.714" y2="122.537" gradientUnits="userSpaceOnUse">
<stop stop-color="#D9D9D9"/>
<stop offset="1" stop-color="#737373"/>
</linearGradient>
<linearGradient id="paint11_linear_2064_4037" x1="186.107" y1="17.263" x2="165.719" y2="65.1804" gradientUnits="userSpaceOnUse">
<stop stop-color="#BDC3C0"/>
<stop offset="1" stop-color="#6D6E72"/>
</linearGradient>
<clipPath id="clip0_2064_4037">
<rect width="65.7186" height="96.7002" fill="white" transform="translate(93.2188 15.2734)"/>
</clipPath>
</defs>
</svg>
