<svg width="240" height="176" viewBox="0 0 240 176" fill="none" xmlns="http://www.w3.org/2000/svg">
<g opacity="0.6" clip-path="url(#clip0_2160_4161)">
<path d="M121.529 67.5074H56.1365C55.481 67.5066 54.8526 67.2447 54.3891 66.7793C53.9256 66.3138 53.6648 65.6827 53.6641 65.0244V33.3621C53.6646 32.8697 53.8596 32.3977 54.2062 32.0496C54.5529 31.7014 55.0229 31.5056 55.5131 31.505H122.123C122.621 31.5056 123.098 31.7045 123.451 32.0582C123.803 32.4119 124.001 32.8915 124.002 33.3917V65.0244C124.001 65.6827 123.74 66.3138 123.277 66.7793C122.813 67.2448 122.185 67.5066 121.529 67.5074ZM55.5131 31.7889C55.0978 31.7894 54.6996 31.9553 54.4059 32.2503C54.1122 32.5452 53.947 32.9451 53.9466 33.3622V65.0244C53.9472 65.6075 54.1781 66.1665 54.5887 66.5788C54.9992 66.9911 55.5559 67.223 56.1365 67.2236H121.529C122.11 67.2228 122.666 66.9908 123.076 66.5786C123.487 66.1663 123.718 65.6074 123.718 65.0244V33.3918C123.718 32.9668 123.549 32.5594 123.25 32.2589C122.951 31.9584 122.545 31.7893 122.122 31.7889H55.5131Z" fill="#CCCCCC"/>
<path d="M58.3972 65.0245H119.269C119.868 65.0243 120.443 64.7851 120.867 64.3594C121.29 63.9337 121.528 63.3563 121.528 62.7544V36.2859C121.528 35.6838 121.29 35.1063 120.866 34.6806C120.442 34.2548 119.867 34.0156 119.268 34.0156H58.3972C57.7977 34.0157 57.2227 34.2549 56.7988 34.6806C56.3749 35.1064 56.1367 35.6838 56.1367 36.2859V62.7544C56.1368 63.3564 56.3749 63.9338 56.7988 64.3595C57.2228 64.7852 57.7977 65.0244 58.3972 65.0245Z" fill="#F2F2F2"/>
<path d="M65.3067 41.7162C66.0089 41.7162 66.5782 41.1445 66.5782 40.4393C66.5782 39.734 66.0089 39.1624 65.3067 39.1624C64.6044 39.1624 64.0352 39.734 64.0352 40.4393C64.0352 41.1445 64.6044 41.7162 65.3067 41.7162Z" fill="#CCCCCC"/>
<path d="M65.3067 46.5403C66.0089 46.5403 66.5782 45.9686 66.5782 45.2634C66.5782 44.5581 66.0089 43.9865 65.3067 43.9865C64.6044 43.9865 64.0352 44.5581 64.0352 45.2634C64.0352 45.9686 64.6044 46.5403 65.3067 46.5403Z" fill="#CCCCCC"/>
<path d="M65.3067 51.3644C66.0089 51.3644 66.5782 50.7927 66.5782 50.0875C66.5782 49.3822 66.0089 48.8105 65.3067 48.8105C64.6044 48.8105 64.0352 49.3822 64.0352 50.0875C64.0352 50.7927 64.6044 51.3644 65.3067 51.3644Z" fill="#CCCCCC"/>
<path d="M65.3067 56.1886C66.0089 56.1886 66.5782 55.6169 66.5782 54.9117C66.5782 54.2065 66.0089 53.6348 65.3067 53.6348C64.6044 53.6348 64.0352 54.2065 64.0352 54.9117C64.0352 55.6169 64.6044 56.1886 65.3067 56.1886Z" fill="#CCCCCC"/>
<path d="M113.485 40.5812H71.6647C71.6461 40.5812 71.6278 40.5775 71.6106 40.5704C71.5935 40.5633 71.5779 40.5528 71.5648 40.5397C71.5517 40.5265 71.5413 40.5108 71.5342 40.4936C71.5271 40.4764 71.5234 40.458 71.5234 40.4393C71.5234 40.4207 71.5271 40.4023 71.5342 40.3851C71.5413 40.3678 71.5517 40.3522 71.5648 40.339C71.5779 40.3259 71.5935 40.3154 71.6106 40.3083C71.6278 40.3012 71.6461 40.2975 71.6647 40.2975H113.485C113.504 40.2975 113.522 40.3012 113.539 40.3083C113.556 40.3154 113.572 40.3259 113.585 40.339C113.598 40.3522 113.609 40.3678 113.616 40.3851C113.623 40.4023 113.627 40.4207 113.627 40.4393C113.627 40.458 113.623 40.4764 113.616 40.4936C113.609 40.5108 113.598 40.5265 113.585 40.5397C113.572 40.5528 113.556 40.5633 113.539 40.5704C113.522 40.5775 113.504 40.5812 113.485 40.5812Z" fill="#CCCCCC"/>
<path d="M113.485 45.4054H71.6647C71.6272 45.4054 71.5913 45.3905 71.5648 45.3639C71.5383 45.3373 71.5234 45.3012 71.5234 45.2636C71.5234 45.2259 71.5383 45.1899 71.5648 45.1633C71.5913 45.1366 71.6272 45.1217 71.6647 45.1217H113.485C113.523 45.1217 113.559 45.1366 113.585 45.1633C113.612 45.1899 113.627 45.2259 113.627 45.2636C113.627 45.3012 113.612 45.3373 113.585 45.3639C113.559 45.3905 113.523 45.4054 113.485 45.4054Z" fill="#CCCCCC"/>
<path d="M113.485 50.2294H71.6647C71.6272 50.2294 71.5913 50.2145 71.5648 50.1878C71.5383 50.1612 71.5234 50.1252 71.5234 50.0875C71.5234 50.0499 71.5383 50.0138 71.5648 49.9872C71.5913 49.9606 71.6272 49.9457 71.6647 49.9457H113.485C113.523 49.9457 113.559 49.9606 113.585 49.9872C113.612 50.0138 113.627 50.0499 113.627 50.0875C113.627 50.1252 113.612 50.1612 113.585 50.1878C113.559 50.2145 113.523 50.2294 113.485 50.2294Z" fill="#CCCCCC"/>
<path d="M113.485 55.0536H71.6647C71.6272 55.0536 71.5913 55.0387 71.5648 55.0121C71.5383 54.9855 71.5234 54.9494 71.5234 54.9118C71.5234 54.8741 71.5383 54.838 71.5648 54.8114C71.5913 54.7848 71.6272 54.7699 71.6647 54.7699H113.485C113.523 54.7699 113.559 54.7848 113.585 54.8114C113.612 54.838 113.627 54.8741 113.627 54.9118C113.627 54.9494 113.612 54.9855 113.585 55.0121C113.559 55.0387 113.523 55.0536 113.485 55.0536Z" fill="#CCCCCC"/>
<path d="M79.5773 59.8778H75.4799C75.2926 59.8776 75.113 59.8027 74.9806 59.6697C74.8481 59.5367 74.7736 59.3564 74.7734 59.1683V55.3373C74.7736 55.1492 74.8481 54.9688 74.9806 54.8358C75.113 54.7028 75.2926 54.628 75.4799 54.6278H79.5773C79.7646 54.628 79.9441 54.7028 80.0766 54.8358C80.209 54.9688 80.2835 55.1492 80.2837 55.3373V59.1683C80.2835 59.3564 80.209 59.5367 80.0766 59.6697C79.9441 59.8027 79.7646 59.8776 79.5773 59.8778Z" fill="#DADADA"/>
<path d="M88.7608 59.8777H84.6635C84.4762 59.8775 84.2966 59.8027 84.1642 59.6697C84.0317 59.5367 83.9572 59.3564 83.957 59.1683V50.5132C83.9572 50.3251 84.0317 50.1447 84.1642 50.0117C84.2966 49.8787 84.4762 49.8039 84.6635 49.8037H88.7608C88.9482 49.8039 89.1277 49.8787 89.2602 50.0117C89.3926 50.1447 89.4671 50.3251 89.4673 50.5132V59.1683C89.4671 59.3564 89.3926 59.5367 89.2602 59.6697C89.1277 59.8027 88.9482 59.8775 88.7608 59.8777Z" fill="#DADADA"/>
<path d="M98.0851 59.8776H93.9877C93.8004 59.8774 93.6208 59.8025 93.4884 59.6695C93.3559 59.5365 93.2815 59.3562 93.2812 59.1681V45.689C93.2815 45.5009 93.3559 45.3205 93.4884 45.1875C93.6208 45.0545 93.8004 44.9797 93.9877 44.9795H98.0851C98.2724 44.9797 98.4519 45.0545 98.5844 45.1875C98.7168 45.3205 98.7913 45.5009 98.7915 45.689V59.1681C98.7913 59.3562 98.7168 59.5365 98.5844 59.6695C98.4519 59.8025 98.2724 59.8774 98.0851 59.8776Z" fill="#DADADA"/>
<path d="M107.694 59.8776H103.597C103.41 59.8774 103.23 59.8026 103.098 59.6696C102.965 59.5366 102.891 59.3563 102.891 59.1682V41.0068C102.891 40.8187 102.965 40.6384 103.098 40.5054C103.23 40.3724 103.41 40.2976 103.597 40.2974H107.694C107.882 40.2976 108.061 40.3724 108.194 40.5054C108.326 40.6384 108.401 40.8187 108.401 41.0068V59.1682C108.401 59.3563 108.326 59.5366 108.194 59.6696C108.061 59.8026 107.882 59.8774 107.694 59.8776Z" fill="#DADADA"/>
<path d="M113.485 59.8777H71.6647C71.6272 59.8777 71.5913 59.8628 71.5648 59.8362C71.5383 59.8096 71.5234 59.7735 71.5234 59.7359C71.5234 59.6982 71.5383 59.6621 71.5648 59.6355C71.5913 59.6089 71.6272 59.594 71.6647 59.594H113.485C113.523 59.594 113.559 59.6089 113.585 59.6355C113.612 59.6621 113.627 59.6982 113.627 59.7359C113.627 59.7735 113.612 59.8096 113.585 59.8362C113.559 59.8628 113.523 59.8777 113.485 59.8777Z" fill="#3F3D56"/>
<g clip-path="url(#clip1_2160_4161)">
<path d="M207.437 124.433L207.435 124.498L210.67 158.796H187.061L184.001 137.731L182.654 158.256L158.41 157.986L160.985 131.039L163.175 118.548V118.546L163.504 116.666H206.793L206.85 117.346L207.437 124.433Z" fill="#2F2E41"/>
<path d="M145.043 144.316C147.543 144.772 150.151 141.95 150.866 138.01C151.18 136.286 151.079 134.634 150.656 133.283L151.04 131.012L157.473 100.465C157.473 100.465 169.321 76.7058 169.32 72.5811C169.32 68.4564 165.893 66.4336 165.893 66.4336L161.256 66.4771L146.714 102.084L144.095 128.397L143.672 132.007C142.801 133.122 142.125 134.632 141.812 136.357C141.096 140.296 142.543 143.859 145.043 144.316Z" fill="#FFB6B6"/>
<path d="M192.214 51.7151L187.904 41.7227L173.896 44.1532L172.953 55.9096L192.214 51.7151Z" fill="#FFB6B6"/>
<path opacity="0.1" d="M192.214 51.7151L187.904 41.7227L173.896 44.1532L172.953 55.9096L192.214 51.7151Z" fill="black"/>
<path d="M222.653 72.51C222.653 72.51 212.686 53.8755 210.8 51.985C209.96 51.1434 208.641 51.1317 207.434 51.377L193.56 46.5837L188.857 43.9346L188.547 48.9745L173.107 51.7528C173.193 48.6793 173.625 47.5102 173.625 47.5102L167.969 54.1456L156.924 59.5469L156.93 59.5955C156.119 59.8791 155.351 60.3645 154.769 61.1673C152.614 64.138 146.688 100.327 146.688 100.327L159.348 103.027L161.071 92.1872L162.312 101.947L163.254 120.177C163.254 120.177 180.495 135.03 188.845 129.629C197.196 124.228 207.433 124.498 207.433 124.498L207.688 116.048C207.87 115.757 207.971 115.586 207.971 115.586L207.702 85.6125V77.6369C209.754 80.5032 212.231 82.9683 215.11 84.1229C224.538 87.9038 222.653 72.51 222.653 72.51Z" fill="#E6E6E6"/>
<path d="M179.438 45.9114C186.555 45.9114 192.324 40.1271 192.324 32.9918C192.324 25.8565 186.555 20.0723 179.438 20.0723C172.32 20.0723 166.551 25.8565 166.551 32.9918C166.551 40.1271 172.32 45.9114 179.438 45.9114Z" fill="#FFB6B6"/>
<path d="M188.681 36.643C188.681 36.643 189.801 32.7109 192.322 32.9918C194.844 33.2726 195.404 31.0258 194.844 29.9023C194.283 28.7789 193.163 23.1617 193.163 23.1617C193.163 23.1617 193.723 19.2296 190.361 18.6679C187 18.1062 185.879 17.5445 185.319 16.4211C184.758 15.2976 176.354 14.1742 173.553 15.8593C170.751 17.5445 168.51 20.7777 166.549 21.6888C164.588 22.6 162.907 24.2851 164.028 27.0937C165.148 29.9023 166.773 35.3953 166.773 35.3953C166.773 35.3953 169.631 34.3961 170.191 36.0812C170.751 37.7664 168.51 35.5195 171.311 31.0258C174.113 26.532 174.113 22.0382 178.595 23.7234C183.078 25.4086 188.12 24.8468 187.56 28.2172C187 31.5875 188.681 36.643 188.681 36.643Z" fill="#2F2E41"/>
<path d="M187.893 139.064H90.0233C87.2556 139.064 85.0039 136.806 85.0039 134.032V81.911C85.0039 79.1364 87.2556 76.8788 90.0233 76.8788H187.893C190.661 76.8788 192.913 79.1364 192.913 81.911V134.032C192.913 136.806 190.661 139.064 187.893 139.064Z" fill="white"/>
<path d="M187.893 139.064H90.0233C87.2556 139.064 85.0039 136.806 85.0039 134.032V81.911C85.0039 79.1364 87.2556 76.8788 90.0233 76.8788H187.893C190.661 76.8788 192.913 79.1364 192.913 81.911V134.032C192.913 136.806 190.661 139.064 187.893 139.064ZM90.0233 77.7191C87.7178 77.7191 85.8421 79.5996 85.8421 81.911V134.032C85.8421 136.343 87.7178 138.224 90.0233 138.224H187.893C190.199 138.224 192.075 136.343 192.075 134.032V81.911C192.075 79.5996 190.199 77.7191 187.893 77.7191H90.0233Z" fill="#3F3D56"/>
<path d="M180.339 83.1814C181.034 83.1814 181.597 82.6171 181.597 81.9209C181.597 81.2248 181.034 80.6604 180.339 80.6604C179.645 80.6604 179.082 81.2248 179.082 81.9209C179.082 82.6171 179.645 83.1814 180.339 83.1814Z" fill="#3F3D56"/>
<path d="M183.695 83.1814C184.389 83.1814 184.952 82.6171 184.952 81.9209C184.952 81.2248 184.389 80.6604 183.695 80.6604C183 80.6604 182.438 81.2248 182.438 81.9209C182.438 82.6171 183 83.1814 183.695 83.1814Z" fill="#3F3D56"/>
<path d="M187.046 83.1814C187.741 83.1814 188.304 82.6171 188.304 81.9209C188.304 81.2248 187.741 80.6604 187.046 80.6604C186.352 80.6604 185.789 81.2248 185.789 81.9209C185.789 82.6171 186.352 83.1814 187.046 83.1814Z" fill="#3F3D56"/>
<path d="M92.1287 102.299C91.782 102.299 91.5 102.582 91.5 102.929C91.5 103.099 91.5653 103.256 91.6838 103.371C91.8033 103.494 91.9598 103.56 92.1287 103.56H186.207C186.554 103.56 186.836 103.277 186.836 102.929C186.836 102.76 186.771 102.603 186.652 102.487C186.533 102.365 186.376 102.299 186.207 102.299H92.1287Z" fill="#E6E6E6"/>
<path d="M174.471 102.089V103.77H92.1273C91.8968 103.77 91.6872 103.677 91.5363 103.522C91.3813 103.371 91.2891 103.16 91.2891 102.929C91.2891 102.467 91.6663 102.089 92.1273 102.089H174.471Z" fill="#DADADA"/>
<path d="M185.16 98.9378H176.778C175.854 98.9378 175.102 98.184 175.102 97.2571C175.102 96.3302 175.854 95.5764 176.778 95.5764H185.16C186.084 95.5764 186.836 96.3302 186.836 97.2571C186.836 98.184 186.084 98.9378 185.16 98.9378Z" fill="#E6E6E6"/>
<path d="M130.258 90.1142H92.7584C91.8341 90.1142 91.082 89.3604 91.082 88.4335C91.082 87.5066 91.8341 86.7528 92.7584 86.7528H130.258C131.182 86.7528 131.934 87.5066 131.934 88.4335C131.934 89.3604 131.182 90.1142 130.258 90.1142Z" fill="#E6E6E6"/>
<path d="M92.1287 121.207C91.782 121.207 91.5 121.49 91.5 121.837C91.5 122.007 91.5653 122.163 91.6838 122.279C91.8033 122.402 91.9598 122.467 92.1287 122.467H186.207C186.554 122.467 186.836 122.185 186.836 121.837C186.836 121.668 186.771 121.511 186.652 121.395C186.533 121.272 186.376 121.207 186.207 121.207H92.1287Z" fill="#E6E6E6"/>
<path d="M142.2 120.997V122.677H92.1273C91.8968 122.677 91.6872 122.585 91.5363 122.429C91.3813 122.278 91.2891 122.068 91.2891 121.837C91.2891 121.375 91.6663 120.997 92.1273 120.997H142.2Z" fill="#DADADA"/>
<path d="M185.16 117.845H176.778C175.854 117.845 175.102 117.092 175.102 116.165C175.102 115.238 175.854 114.484 176.778 114.484H185.16C186.084 114.484 186.836 115.238 186.836 116.165C186.836 117.092 186.084 117.845 185.16 117.845Z" fill="#E6E6E6"/>
<path d="M209.833 46.9058C217.082 46.9058 222.959 41.1383 222.959 34.0237C222.959 26.9091 217.082 21.1416 209.833 21.1416C202.584 21.1416 196.707 26.9091 196.707 34.0237C196.707 41.1383 202.584 46.9058 209.833 46.9058Z" fill="#676767"/>
<path d="M214.29 27.5259C212.543 30.716 210.795 33.906 209.048 37.0961C207.934 35.1233 206.827 33.147 205.71 31.1757C205.325 30.4949 204.276 31.1072 204.662 31.7897C205.957 34.0749 207.237 36.3677 208.532 38.6528C208.753 39.0435 209.36 39.0526 209.579 38.6528C211.499 35.1485 213.419 31.6442 215.338 28.1399C215.714 27.4533 214.667 26.8387 214.29 27.5259Z" fill="white"/>
<path d="M217.954 67.9792L204.877 61.7074C204.877 61.7074 204.352 57.5096 201.899 56.0123C201.482 55.015 201.002 53.9195 200.567 53.0514C199.489 50.9048 201.106 46.8538 199.759 46.8538C198.412 46.8538 196.421 51.1142 196.526 52.2551C196.607 53.1309 197.329 54.6599 197.478 55.9984C195.836 56.6195 194.511 57.6839 193.64 58.5314C192.886 59.2648 192.606 60.3591 192.9 61.37C193.754 64.2994 195.888 70.3495 198.95 70.3495C202.991 70.3495 204.069 69.5393 204.069 69.5393C204.069 69.5393 212.419 80.0719 218.615 80.8821C224.811 81.6923 217.954 67.9792 217.954 67.9792Z" fill="#FFB6B6"/>
</g>
<path d="M64.9475 126.43V125.328C64.9477 124.516 65.2722 123.738 65.8497 123.164C66.4272 122.59 67.2104 122.268 68.027 122.268H111.835C112.651 122.268 113.434 122.59 114.012 123.164C114.589 123.738 114.914 124.516 114.914 125.328V127.361L64.9475 126.43Z" fill="#33323D"/>
<path d="M77.6014 85.3025C77.6014 85.3025 74.8835 89.4854 73.2294 90.3538C71.5753 91.2223 67.2707 96.9337 67.2707 96.9337C67.2707 96.9337 58.9878 92.553 54.767 87.1964C50.5463 81.8397 39.5394 73.4512 39.5394 73.4512L50.1937 61.7932C50.1937 61.7932 60.1664 67.5741 63.8718 73.7843C67.5772 79.9945 77.6014 85.3025 77.6014 85.3025Z" fill="#D6D6E3"/>
<path d="M74.8721 85.6693C74.8721 85.6693 72.8156 89.2458 71.4731 89.93C70.1306 90.6142 66.825 95.4647 66.825 95.4647C66.825 95.4647 59.6379 91.1273 55.8069 86.1378C51.9759 81.1484 42.2839 73.1034 42.2839 73.1034L50.5998 63.2984C50.5998 63.2984 59.2817 68.9706 62.7264 74.6925C66.1711 80.4143 74.8721 85.6693 74.8721 85.6693Z" fill="#1E2328"/>
<path d="M56.6468 83.89C55.7374 83.1046 56.3678 80.8992 58.0547 78.9641C59.7417 77.0291 61.8464 76.0971 62.7558 76.8825C63.6652 77.6679 63.0348 79.8733 61.3478 81.8083C59.6609 83.7434 57.5562 84.6754 56.6468 83.89Z" fill="#D6D6E3"/>
<path d="M94.3295 116.597C94.3295 116.597 94.0811 121.58 93.0872 123.162C92.0934 124.743 91.2411 131.844 91.2411 131.844C91.2411 131.844 81.8786 132.218 75.5379 129.707C69.1972 127.197 55.4658 125.474 55.4658 125.474L58.8205 110.041C58.8205 110.041 70.3476 110.029 76.6715 113.537C82.9954 117.044 94.3295 116.597 94.3295 116.597Z" fill="#D6D6E3"/>
<path d="M92.1517 118.286C92.1517 118.286 92.1704 122.412 91.3535 123.678C90.5365 124.944 90.1154 130.798 90.1154 130.798C90.1154 130.798 81.7221 130.659 75.9029 128.27C70.0837 125.881 57.6618 123.794 57.6618 123.794L59.9256 111.139C59.9256 111.139 70.282 111.681 76.1352 114.898C81.9883 118.114 92.1517 118.286 92.1517 118.286Z" fill="#1E2328"/>
<path d="M75.4991 125.905C74.3182 125.683 73.7552 123.459 74.2415 120.939C74.7279 118.418 76.0794 116.555 77.2603 116.777C78.4412 116.999 79.0042 119.223 78.5178 121.743C78.0315 124.264 76.6799 126.127 75.4991 125.905Z" fill="#D6D6E3"/>
<path d="M37.1565 32.2358C37.1565 32.2358 38.7481 36.9634 38.402 38.7993C38.0558 40.6351 39.8606 47.5556 39.8606 47.5556C39.8606 47.5556 31.284 51.329 24.4643 51.312C17.6446 51.295 4.23488 54.7155 4.23488 54.7155L1.71071 39.1253C1.71071 39.1253 12.4342 34.8967 19.603 35.8476C26.7718 36.7985 37.1565 32.2358 37.1565 32.2358Z" fill="#D6D6E3"/>
<path d="M35.7522 34.6027C35.7522 34.6027 37.279 38.4354 36.9819 39.9126C36.6848 41.3898 38.4349 46.9926 38.4349 46.9926C38.4349 46.9926 30.5725 49.9339 24.2826 49.8393C17.9928 49.7447 5.6688 52.3477 5.6688 52.3477L3.14545 39.7412C3.14545 39.7412 12.9822 36.4569 19.6064 37.309C26.2305 38.1611 35.7522 34.6027 35.7522 34.6027Z" fill="#1E2328"/>
<path d="M23.0361 47.7876C21.8558 48.0129 20.5183 46.1495 20.0487 43.6256C19.5791 41.1018 20.1553 38.8732 21.3356 38.648C22.5158 38.4227 23.8533 40.2861 24.3229 42.8099C24.7925 45.3338 24.2164 47.5624 23.0361 47.7876Z" fill="#D6D6E3"/>
<path d="M63.7634 127.902V158.53C63.7636 159.232 64.0445 159.906 64.5443 160.402C65.0441 160.899 65.7218 161.178 66.4285 161.178H112.247C112.953 161.178 113.631 160.899 114.13 160.402C114.63 159.905 114.91 159.232 114.91 158.53V124.813C113.597 125.297 113.597 125.297 112.247 125.257H66.4288C65.7227 125.257 65.0454 125.536 64.5457 126.031C64.0459 126.527 63.7646 127.2 63.7634 127.902Z" fill="#7F7F7F"/>
<path d="M63.7622 138.964V148.761H73.3189C74.6256 148.761 75.8789 148.245 76.8029 147.326C77.727 146.408 78.2461 145.162 78.2461 143.863C78.2461 142.564 77.727 141.319 76.8029 140.4C75.8789 139.482 74.6256 138.966 73.3189 138.966L63.7622 138.964Z" fill="#33323D"/>
<path d="M72.7312 145.774C71.6702 145.774 70.8101 144.919 70.8101 143.864C70.8101 142.809 71.6702 141.954 72.7312 141.954C73.7922 141.954 74.6523 142.809 74.6523 143.864C74.6523 144.919 73.7922 145.774 72.7312 145.774Z" fill="#DADADA"/>
</g>
<defs>
<clipPath id="clip0_2160_4161">
<rect width="240" height="176" fill="white"/>
</clipPath>
<clipPath id="clip1_2160_4161">
<rect width="137.805" height="143.796" fill="white" transform="translate(85.0039 15)"/>
</clipPath>
</defs>
</svg>
