<svg width="244" height="234" viewBox="0 0 244 234" fill="none" xmlns="http://www.w3.org/2000/svg">
<path d="M189.287 14.3089C188.702 13.9535 188.11 13.6119 187.519 13.2702L180.574 25.4744C181.091 25.7683 181.594 26.0689 182.105 26.3764L189.287 14.3157V14.3089Z" fill="#21784F"/>
<path d="M219.611 41.2867C219.196 40.7468 218.775 40.2138 218.346 39.6808L207.457 48.5026C207.831 48.9673 208.198 49.4319 208.559 49.8966L219.611 41.2798V41.2867Z" fill="#21784F"/>
<path d="M228.477 110.221L242.467 110.48C242.481 109.797 242.488 109.114 242.488 108.43H228.497C228.497 109.025 228.497 109.619 228.477 110.214V110.221Z" fill="#21784F"/>
<path d="M238.084 77.5372C237.893 76.8812 237.696 76.2252 237.492 75.576L224.141 79.7853C224.317 80.3525 224.488 80.9196 224.658 81.4868L238.084 77.5372Z" fill="#21784F"/>
<path d="M234.982 148.46L221.963 143.321C221.746 143.874 221.521 144.428 221.297 144.981L234.22 150.366C234.478 149.737 234.737 149.102 234.982 148.46Z" fill="#21784F"/>
<path d="M113.608 14.9921L110.697 1.24359C110.037 1.38709 109.371 1.53059 108.711 1.68775L111.867 15.3816C112.445 15.245 113.023 15.1151 113.608 14.9921Z" fill="#21784F"/>
<path d="M39.4246 122.937C39.3362 122.357 39.2546 121.769 39.173 121.181L25.3047 123.019C25.3931 123.703 25.4883 124.379 25.5972 125.056L39.4246 122.937Z" fill="#21784F"/>
<path d="M151.203 0.31433C150.537 0.204998 149.863 0.102499 149.19 0L147.184 13.9125C147.769 13.9945 148.353 14.0902 148.938 14.1859L151.203 0.31433Z" fill="#21784F"/>
<path d="M41.0441 85.7165L27.4547 82.3887C27.2915 83.0516 27.1418 83.7144 26.9922 84.3841L40.6428 87.4522C40.772 86.8714 40.9081 86.2905 41.0441 85.7165Z" fill="#21784F"/>
<path d="M81.0403 28.7066L73.3274 16.9807C72.7629 17.3566 72.1983 17.7392 71.6406 18.1219L79.5712 29.6975C80.0541 29.3626 80.5438 29.0278 81.0403 28.6998V28.7066Z" fill="#21784F"/>
<path d="M55.6823 53.4225L44.249 45.3182C43.8545 45.8786 43.4668 46.4389 43.0859 47.0061L54.6689 54.8917C55.0022 54.3997 55.3422 53.9077 55.6823 53.4225Z" fill="#21784F"/>
<path d="M76.1351 153.086C66.5858 140.745 60.8862 125.247 60.8862 108.437C60.8862 68.2576 93.4246 35.5673 133.417 35.5673C173.41 35.5673 205.949 68.2576 205.949 108.437C205.949 125.247 200.249 140.745 190.7 153.086H192.305C201.664 140.656 207.227 125.186 207.227 108.437C207.227 67.5538 174.118 34.2894 133.424 34.2894C92.7308 34.2894 59.6211 67.5538 59.6211 108.437C59.6211 125.186 65.1847 140.656 74.5436 153.086H76.1487H76.1351Z" fill="#21784F"/>
<path d="M214.409 69.2689C214.13 68.6881 213.851 68.1141 213.559 67.5469L212.43 68.1277C212.715 68.6881 212.994 69.2552 213.266 69.8292L214.409 69.2757V69.2689Z" fill="#21784F"/>
<path d="M218.1 138.715L216.903 138.285C216.692 138.886 216.474 139.481 216.25 140.075L217.44 140.526C217.665 139.925 217.889 139.317 218.107 138.709L218.1 138.715Z" fill="#21784F"/>
<path d="M220.395 91.4291L221.647 91.1831C221.164 88.6684 220.565 86.1401 219.865 83.6801L218.641 84.0286C219.328 86.4544 219.919 88.9486 220.395 91.4291Z" fill="#21784F"/>
<path d="M210.781 62.4767C209.482 60.2764 208.067 58.0966 206.585 56.0124L205.551 56.7572C207.013 58.8141 208.407 60.9597 209.686 63.1327L210.781 62.4835V62.4767Z" fill="#21784F"/>
<path d="M183.263 33.3052C181.671 32.2392 180.025 31.2074 178.366 30.2439L177.727 31.3509C179.359 32.3007 180.984 33.3188 182.549 34.3712L183.256 33.312L183.263 33.3052Z" fill="#21784F"/>
<path d="M190.954 39.0864C188.995 37.4396 186.941 35.8679 184.853 34.3988L184.125 35.4443C186.186 36.8929 188.206 38.4441 190.144 40.0704L190.961 39.0864H190.954Z" fill="#21784F"/>
<path d="M196.645 44.2796C196.189 43.8286 195.733 43.3776 195.264 42.9334L194.387 43.8627C194.842 44.3001 195.298 44.7374 195.747 45.1884L196.645 44.2796Z" fill="#21784F"/>
<path d="M205.455 54.4612C204.313 52.9237 203.102 51.3999 201.864 49.9375L200.898 50.7644C202.123 52.2062 203.313 53.7095 204.442 55.2265L205.462 54.4612H205.455Z" fill="#21784F"/>
<path d="M43.6367 112.291C43.6639 112.933 43.6979 113.576 43.7387 114.218L45.0106 114.136C44.9698 113.507 44.9358 112.872 44.9086 112.236L43.6367 112.291Z" fill="#21784F"/>
<path d="M44.2812 119.979C44.6077 122.521 45.043 125.083 45.5803 127.584L46.825 127.311C46.2945 124.844 45.866 122.322 45.5463 119.815L44.2812 119.979Z" fill="#21784F"/>
<path d="M171.565 26.6702C170.987 26.3969 170.402 26.1304 169.81 25.8639L169.293 27.0324C169.871 27.2921 170.449 27.5517 171.021 27.8251L171.558 26.6702H171.565Z" fill="#21784F"/>
<path d="M48.7381 134.67C48.1804 132.859 47.6771 131.007 47.2418 129.162L46.0039 129.463C46.446 131.329 46.9561 133.208 47.5206 135.046L48.7381 134.67Z" fill="#21784F"/>
<path d="M221.517 98.9526L222.783 98.816C222.714 98.1736 222.64 97.5381 222.558 96.9026L221.293 97.0667C221.375 97.6953 221.443 98.324 221.511 98.9595L221.517 98.9526Z" fill="#21784F"/>
<path d="M53.2734 149.328C53.9128 150.592 54.5929 151.849 55.2935 153.086H56.7626C55.9396 151.658 55.1507 150.209 54.4093 148.747L53.2734 149.328Z" fill="#21784F"/>
<path d="M222.005 108.437C222.005 109.073 222.005 109.708 221.984 110.337L223.256 110.364C223.27 109.722 223.277 109.079 223.277 108.437C223.277 107.795 223.277 107.152 223.256 106.517L221.984 106.544C221.998 107.173 222.005 107.802 222.005 108.437Z" fill="#21784F"/>
<path d="M213.253 147.073C212.43 148.781 211.546 150.489 210.621 152.136L211.73 152.765C212.668 151.091 213.566 149.362 214.403 147.633L213.26 147.079L213.253 147.073Z" fill="#21784F"/>
<path d="M222.774 118.065L221.509 117.928C221.311 119.814 221.046 121.721 220.727 123.58L221.978 123.798C222.298 121.912 222.57 119.978 222.767 118.065H222.774Z" fill="#21784F"/>
<path d="M218.629 132.853L219.853 133.201C220.554 130.734 221.152 128.213 221.635 125.698L220.384 125.459C219.908 127.939 219.316 130.427 218.629 132.859V132.853Z" fill="#21784F"/>
<path d="M219.311 81.8285C218.746 79.9903 218.12 78.1454 217.44 76.355L216.25 76.806C216.917 78.5758 217.535 80.3867 218.093 82.2043L219.311 81.8285Z" fill="#21784F"/>
<path d="M53.5878 69.795L52.4452 69.2415C51.6086 70.9771 50.8264 72.7606 50.1055 74.5373L51.2821 75.0156C51.9895 73.2594 52.7649 71.5033 53.5878 69.795Z" fill="#21784F"/>
<path d="M58.1571 61.4652L57.0756 60.7888C55.7289 62.9617 54.457 65.2235 53.3008 67.5127L54.4298 68.0935C55.5725 65.8385 56.824 63.6109 58.1571 61.4652Z" fill="#21784F"/>
<path d="M62.4295 55.1786L61.4093 54.4133C61.0284 54.9258 60.6475 55.4451 60.2734 55.9713L61.3073 56.7161C61.6745 56.1968 62.0486 55.6843 62.4227 55.1786H62.4295Z" fill="#21784F"/>
<path d="M71.1258 45.1407L70.2348 44.2318C68.8745 45.5848 67.5414 46.9925 66.2695 48.4275L67.2217 49.2748C68.4732 47.8603 69.7927 46.4663 71.1326 45.1338L71.1258 45.1407Z" fill="#21784F"/>
<path d="M45.3235 98.939L44.0584 98.8023C43.8612 100.709 43.7183 102.649 43.6367 104.576L44.9086 104.631C44.9902 102.731 45.133 100.818 45.3303 98.939H45.3235Z" fill="#21784F"/>
<path d="M52.0021 143.588C51.7504 143.007 51.5124 142.426 51.2743 141.838L50.0977 142.317C50.3357 142.911 50.5806 143.506 50.8322 144.093L52.0021 143.588Z" fill="#21784F"/>
<path d="M78.2078 38.8266L77.4121 37.8289C75.4192 39.4211 73.474 41.1294 71.6172 42.8924L72.4946 43.8217C74.3242 42.0792 76.249 40.3983 78.2078 38.8266Z" fill="#21784F"/>
<path d="M46.825 89.55L45.5803 89.2767C45.043 91.7776 44.6077 94.3333 44.2812 96.8821L45.5463 97.0461C45.866 94.5315 46.2945 92.01 46.825 89.55Z" fill="#21784F"/>
<path d="M48.7382 82.1906L47.5207 81.8147C47.3302 82.4297 47.1534 83.0447 46.9766 83.6665L48.2008 84.015C48.3709 83.4069 48.5545 82.7987 48.7382 82.1906Z" fill="#21784F"/>
<path d="M104.603 24.2445L104.188 23.035C101.781 23.8687 99.3798 24.8185 97.0469 25.8503L97.5638 27.0188C99.8627 25.9938 102.236 25.0577 104.61 24.2377L104.603 24.2445Z" fill="#21784F"/>
<path d="M142.053 18.5658C141.421 18.5043 140.781 18.4496 140.142 18.4018L140.047 19.6728C140.679 19.7206 141.305 19.7753 141.931 19.8367L142.053 18.5658Z" fill="#21784F"/>
<path d="M84.3156 34.3439L83.6082 33.2779C83.0709 33.6333 82.5472 33.9954 82.0234 34.3644L82.7512 35.4099C83.2681 35.0477 83.785 34.6924 84.3156 34.3371V34.3439Z" fill="#21784F"/>
<path d="M155.289 20.8484C153.432 20.3838 151.534 19.9738 149.657 19.6253L149.426 20.8826C151.283 21.2243 153.146 21.6274 154.976 22.0853L155.289 20.8484Z" fill="#21784F"/>
<path d="M124.914 19.8369L124.791 18.5659C122.887 18.7504 120.962 18.9964 119.078 19.2971L119.275 20.5613C121.132 20.2606 123.03 20.0214 124.907 19.8369H124.914Z" fill="#21784F"/>
<path d="M133.399 19.4338C133.691 19.427 134.045 19.4338 134.365 19.4338L134.378 18.156C134.052 18.156 133.725 18.1423 133.399 18.156C131.168 18.156 128.917 18.238 126.699 18.402L126.794 19.673C128.978 19.509 131.202 19.427 133.399 19.427V19.4338Z" fill="#21784F"/>
<path d="M95.8443 27.8114L95.3002 26.6566C93.5726 27.4697 91.845 28.3512 90.1719 29.2806L90.784 30.4012C92.4368 29.4924 94.1372 28.6177 95.8443 27.8182V27.8114Z" fill="#21784F"/>
<path d="M111.861 22.0851L111.548 20.8483C110.929 21.0055 110.304 21.1695 109.691 21.3335L110.025 22.5635C110.63 22.3995 111.242 22.2355 111.861 22.0851Z" fill="#21784F"/>
<path d="M164.464 23.6841C162.07 22.7958 159.608 22.01 157.146 21.3335L156.812 22.5635C159.241 23.2263 161.662 24.0053 164.022 24.8799L164.464 23.6841Z" fill="#21784F"/>
<path d="M196.485 95.6589C196.295 95.2626 196.104 94.8662 195.9 94.4767L195.125 94.8731C195.322 95.2557 195.513 95.6452 195.703 96.0416L196.485 95.6589Z" fill="#21784F"/>
<path d="M199.022 143.239L198.199 142.945C198.056 143.355 197.9 143.765 197.75 144.175L198.566 144.489C198.723 144.079 198.872 143.663 199.022 143.246V143.239Z" fill="#21784F"/>
<path d="M200.596 110.843L201.453 110.679C201.119 108.957 200.711 107.228 200.235 105.533L199.398 105.772C199.868 107.44 200.276 109.141 200.602 110.843H200.596Z" fill="#21784F"/>
<path d="M194.011 91.0124C193.12 89.5022 192.154 88.0126 191.141 86.5844L190.434 87.0901C191.433 88.4977 192.392 89.9669 193.263 91.4565L194.011 91.0124Z" fill="#21784F"/>
<path d="M175.156 71.0251C174.067 70.2939 172.938 69.5901 171.802 68.9273L171.367 69.6858C172.489 70.3349 173.598 71.0319 174.673 71.7563L175.156 71.0319V71.0251Z" fill="#21784F"/>
<path d="M180.422 74.9814C179.082 73.8539 177.674 72.7743 176.246 71.7698L175.742 72.4873C177.15 73.4781 178.544 74.5441 179.864 75.6511L180.422 74.9814Z" fill="#21784F"/>
<path d="M184.317 78.5417C184.005 78.2342 183.692 77.9267 183.372 77.6192L182.773 78.2547C183.086 78.5553 183.399 78.856 183.705 79.1635L184.317 78.5417Z" fill="#21784F"/>
<path d="M190.359 85.5115C189.577 84.4592 188.747 83.4137 187.897 82.4092L187.23 82.9763C188.067 83.9672 188.883 84.9921 189.659 86.0308L190.359 85.5047V85.5115Z" fill="#21784F"/>
<path d="M79.4844 125.138C79.5048 125.575 79.5252 126.019 79.5524 126.457L80.423 126.402C80.3958 125.971 80.3754 125.534 80.355 125.097L79.4844 125.131V125.138Z" fill="#21784F"/>
<path d="M79.9297 130.406C80.1541 132.149 80.4534 133.905 80.8207 135.613L81.6709 135.429C81.3036 133.741 81.0111 132.012 80.7935 130.29L79.9297 130.399V130.406Z" fill="#21784F"/>
<path d="M167.137 66.4741C166.742 66.2896 166.341 66.1051 165.94 65.9274L165.586 66.7269C165.98 66.9046 166.375 67.0891 166.769 67.2667L167.137 66.4741Z" fill="#21784F"/>
<path d="M82.9827 140.471C82.6018 139.228 82.2549 137.964 81.9557 136.7L81.1055 136.905C81.4115 138.182 81.7584 139.474 82.1461 140.731L82.9827 140.471Z" fill="#21784F"/>
<path d="M201.357 116.001L202.22 115.906C202.173 115.468 202.125 115.031 202.071 114.594L201.207 114.703C201.261 115.134 201.309 115.564 201.357 116.001Z" fill="#21784F"/>
<path d="M86.0898 150.51C86.5251 151.377 86.9944 152.238 87.4773 153.086H88.484C87.9194 152.109 87.3821 151.118 86.872 150.113L86.0966 150.51H86.0898Z" fill="#21784F"/>
<path d="M201.697 122.493C201.697 122.931 201.697 123.361 201.684 123.798L202.554 123.819C202.561 123.382 202.568 122.937 202.568 122.5C202.568 122.063 202.568 121.619 202.554 121.188L201.684 121.209C201.684 121.639 201.697 122.07 201.697 122.507V122.493Z" fill="#21784F"/>
<path d="M195.701 148.965C195.136 150.134 194.531 151.302 193.898 152.437L194.66 152.867C195.306 151.719 195.918 150.537 196.49 149.348L195.708 148.965H195.701Z" fill="#21784F"/>
<path d="M202.225 129.094L201.362 129.005C201.226 130.297 201.042 131.602 200.824 132.88L201.681 133.03C201.906 131.739 202.082 130.413 202.225 129.101V129.094Z" fill="#21784F"/>
<path d="M199.382 139.228L200.218 139.467C200.695 137.779 201.109 136.05 201.436 134.322L200.579 134.158C200.252 135.852 199.844 137.561 199.375 139.228H199.382Z" fill="#21784F"/>
<path d="M199.852 104.269C199.464 103.005 199.035 101.747 198.566 100.517L197.75 100.832C198.206 102.041 198.634 103.285 199.015 104.529L199.845 104.269H199.852Z" fill="#21784F"/>
<path d="M86.3092 96.0212L85.527 95.6385C84.9557 96.8275 84.4184 98.0506 83.9219 99.267L84.7313 99.5949C85.2142 98.3923 85.7447 97.1896 86.3092 96.0143V96.0212Z" fill="#21784F"/>
<path d="M89.4382 90.3154L88.6968 89.8507C87.7718 91.3404 86.9012 92.8915 86.1055 94.4563L86.8808 94.8527C87.663 93.3083 88.52 91.7777 89.4314 90.3154H89.4382Z" fill="#21784F"/>
<path d="M92.3666 86.0036L91.666 85.4775C91.4075 85.8328 91.1423 86.1881 90.8906 86.5435L91.598 87.056C91.8496 86.7006 92.1013 86.3521 92.3598 86.0036H92.3666Z" fill="#21784F"/>
<path d="M98.3259 79.1292L97.7138 78.5074C96.782 79.4298 95.8706 80.4002 95 81.3842L95.6529 81.965C96.5099 80.9947 97.4145 80.038 98.3327 79.1292H98.3259Z" fill="#21784F"/>
<path d="M80.6474 115.988L79.7768 115.899C79.6408 117.204 79.5388 118.537 79.4844 119.856L80.355 119.89C80.4094 118.591 80.5046 117.279 80.6406 115.988H80.6474Z" fill="#21784F"/>
<path d="M85.2239 146.58C85.0538 146.184 84.8906 145.781 84.7273 145.385L83.918 145.713C84.0812 146.123 84.2512 146.526 84.4213 146.929L85.2239 146.58Z" fill="#21784F"/>
<path d="M103.176 74.8038L102.632 74.1205C101.265 75.2138 99.932 76.3823 98.6602 77.5918L99.2587 78.2272C100.51 77.0314 101.83 75.8834 103.176 74.8038Z" fill="#21784F"/>
<path d="M81.6709 109.558L80.8207 109.373C80.4534 111.082 80.1541 112.838 79.9297 114.58L80.7935 114.69C81.0111 112.968 81.3104 111.239 81.6709 109.551V109.558Z" fill="#21784F"/>
<path d="M82.989 104.515L82.1592 104.255C82.03 104.679 81.9076 105.096 81.7852 105.526L82.6217 105.765C82.7374 105.348 82.8666 104.932 82.989 104.515Z" fill="#21784F"/>
<path d="M121.261 64.8137L120.975 63.9868C119.322 64.554 117.676 65.21 116.078 65.9207L116.432 66.7202C118.01 66.0163 119.629 65.3808 121.254 64.8137H121.261Z" fill="#21784F"/>
<path d="M146.921 60.9251C146.485 60.8841 146.05 60.8431 145.608 60.8158L145.547 61.6897C145.975 61.7238 146.411 61.758 146.839 61.7989L146.921 60.9251Z" fill="#21784F"/>
<path d="M107.36 71.7288L106.877 70.9977C106.51 71.2437 106.156 71.4897 105.789 71.7425L106.286 72.46C106.639 72.214 106.993 71.968 107.353 71.7288H107.36Z" fill="#21784F"/>
<path d="M155.989 62.4834C154.718 62.1622 153.418 61.882 152.133 61.6429L151.977 62.5039C153.248 62.7362 154.527 63.0164 155.779 63.3307L155.989 62.4834Z" fill="#21784F"/>
<path d="M135.18 61.7933L135.098 60.9186C133.792 61.0416 132.473 61.2125 131.188 61.4175L131.324 62.2785C132.595 62.0735 133.895 61.9095 135.187 61.7865L135.18 61.7933Z" fill="#21784F"/>
<path d="M140.993 61.5124C141.191 61.5124 141.435 61.5124 141.653 61.5124V60.6385C141.442 60.6385 141.218 60.6249 140.993 60.6385C139.463 60.6385 137.919 60.6931 136.402 60.8092L136.464 61.683C137.96 61.5738 139.483 61.5124 140.987 61.5124H140.993Z" fill="#21784F"/>
<path d="M115.255 67.2531L114.887 66.4605C113.704 67.0208 112.521 67.6221 111.371 68.2576L111.793 69.023C112.922 68.4011 114.092 67.7998 115.255 67.2531Z" fill="#21784F"/>
<path d="M126.233 63.3306L126.022 62.4833C125.593 62.5926 125.172 62.702 124.75 62.8181L124.981 63.6655C125.396 63.5493 125.818 63.44 126.24 63.3375L126.233 63.3306Z" fill="#21784F"/>
<path d="M162.275 64.4309C160.636 63.8227 158.949 63.2829 157.263 62.8182L157.031 63.6656C158.698 64.1234 160.357 64.6564 161.969 65.2509L162.268 64.4309H162.275Z" fill="#21784F"/>
<path d="M147.726 196.853C147.726 198.814 146.141 200.406 144.189 200.406C142.237 200.406 140.652 198.814 140.652 196.853V184.048C140.652 182.086 142.237 180.494 144.189 180.494C146.141 180.494 147.726 182.086 147.726 184.048V196.853Z" fill="#436FD0" stroke="#21784F" stroke-width="0.68015" stroke-linecap="round" stroke-linejoin="round"/>
<g style="mix-blend-mode:multiply">
<path d="M147.726 196.853C147.726 198.814 146.141 200.406 144.189 200.406C142.237 200.406 140.652 198.814 140.652 196.853V184.048C140.652 182.086 142.237 180.494 144.189 180.494C146.141 180.494 147.726 182.086 147.726 184.048V196.853Z" fill="#939598"/>
</g>
<path d="M144.183 196.853C144.183 198.814 142.598 200.406 140.646 200.406C138.694 200.406 137.109 198.814 137.109 196.853V184.048C137.109 182.086 138.694 180.494 140.646 180.494C142.598 180.494 144.183 182.086 144.183 184.048V196.853Z" fill="#436FD0" stroke="#21784F" stroke-width="0.68015" stroke-linecap="round" stroke-linejoin="round"/>
<path d="M162.579 200.399C162.579 201.814 161.361 202.962 159.858 202.962H139.025C137.522 202.962 136.305 201.814 136.305 200.399C136.305 198.985 137.522 197.837 139.025 197.837H159.858C161.361 197.837 162.579 198.985 162.579 200.399Z" fill="#436FD0" stroke="#21784F" stroke-width="0.68015" stroke-linecap="round" stroke-linejoin="round"/>
<g style="mix-blend-mode:multiply">
<path d="M136.336 200.72C136.506 201.985 137.642 202.962 139.029 202.962H159.862C161.25 202.962 162.386 201.985 162.556 200.72H136.336Z" fill="#939598"/>
</g>
<path d="M147.744 200.399C147.744 201.814 146.527 202.962 145.023 202.962H124.19C122.687 202.962 121.477 201.814 121.477 200.399C121.477 198.985 122.694 197.837 124.19 197.837H145.023C146.527 197.837 147.744 198.985 147.744 200.399Z" fill="#436FD0" stroke="#21784F" stroke-width="0.68015" stroke-linecap="round" stroke-linejoin="round"/>
<g style="mix-blend-mode:multiply">
<path d="M121.504 200.72C121.674 201.985 122.81 202.962 124.197 202.962H145.03C146.418 202.962 147.554 201.985 147.724 200.72H121.504Z" fill="#939598"/>
</g>
<path d="M134.607 199.197C134.607 199.614 134.274 199.949 133.859 199.949H123.936C123.521 199.949 123.188 199.614 123.188 199.197C123.188 198.78 123.521 198.445 123.936 198.445H133.859C134.274 198.445 134.607 198.78 134.607 199.197Z" fill="white"/>
<path d="M139.88 199.197C139.88 199.614 139.546 199.949 139.131 199.949H135.928C135.513 199.949 135.18 199.614 135.18 199.197C135.18 198.78 135.513 198.445 135.928 198.445H139.131C139.546 198.445 139.88 198.78 139.88 199.197Z" fill="white"/>
<path d="M81.3125 185.264L108.757 88.5594H230.544L205.222 185.264H81.3125Z" fill="#436FD0" stroke="#21784F" stroke-width="0.68015" stroke-linecap="round" stroke-linejoin="round"/>
<path d="M76.8086 185.264L104.43 88.5594H228.067L202.643 185.264H76.8086Z" fill="#436FD0" stroke="#21784F" stroke-width="0.68015" stroke-linecap="round" stroke-linejoin="round"/>
<g style="mix-blend-mode:multiply">
<path d="M82.6172 178.895L107.13 92.584H221.858L198.984 178.895H82.6172Z" fill="#6D6E71"/>
</g>
<path d="M83.3789 177.966L107.347 93.5134H221.137L198.732 177.966H83.3789Z" fill="#21784F"/>
<g style="mix-blend-mode:soft-light">
<path d="M221.137 93.5134H107.347L83.3789 177.966L221.137 93.5134Z" fill="white"/>
</g>
<path d="M89.4757 146.41C89.1493 146.41 88.9792 146.075 89.0948 145.658L103.841 93.944C103.956 93.5272 104.317 93.1924 104.636 93.1924C104.956 93.1924 105.126 93.5272 105.004 93.944L90.2783 145.658C90.1627 146.075 89.7954 146.41 89.4689 146.41H89.4757Z" fill="white"/>
<path d="M87.6542 152.785C87.3277 152.785 87.1509 152.451 87.2733 152.034L88.1915 148.815C88.3072 148.398 88.6744 148.064 89.0009 148.064C89.3274 148.064 89.5042 148.398 89.3818 148.815L88.4636 152.034C88.348 152.451 87.9807 152.785 87.6542 152.785Z" fill="white"/>
<path d="M116.127 90.1105C116.243 89.6937 116.596 89.3589 116.916 89.3589H132.077C132.396 89.3589 132.566 89.6937 132.451 90.1105C132.335 90.5274 131.988 90.8622 131.662 90.8622H116.494C116.175 90.8622 116.011 90.5274 116.127 90.1105Z" fill="white"/>
<path d="M111.19 90.1105C111.306 89.6937 111.66 89.3589 111.986 89.3589H114.476C114.795 89.3589 114.965 89.6937 114.843 90.1105C114.727 90.5274 114.374 90.8622 114.054 90.8622H111.565C111.245 90.8622 111.082 90.5274 111.197 90.1105H111.19Z" fill="white"/>
<path d="M191.59 181.806C191.59 182.879 190.726 183.747 189.658 183.747C188.59 183.747 187.727 182.879 187.727 181.806C187.727 180.733 188.59 179.865 189.658 179.865C190.726 179.865 191.59 180.733 191.59 181.806Z" fill="#21784F"/>
<path d="M188.393 182.059C188.393 181.143 189.135 180.398 190.046 180.398C190.264 180.398 190.468 180.446 190.658 180.521C190.373 180.289 190.012 180.138 189.618 180.138C188.706 180.138 187.965 180.883 187.965 181.799C187.965 182.503 188.4 183.097 189.012 183.343C188.645 183.036 188.4 182.578 188.4 182.059H188.393Z" fill="white"/>
<path d="M102.539 108.865L143.229 176.961H196.338L155.648 108.865H102.539Z" fill="#92AEC6" stroke="#21784F" stroke-width="1.73928" stroke-linecap="round" stroke-linejoin="round"/>
<path d="M155.501 108.865L125.933 162.161H52.4141L81.9818 108.865H155.501Z" fill="white" stroke="#21784F" stroke-width="1.73928" stroke-linecap="round" stroke-linejoin="round"/>
<path d="M50.8164 123.666L72.1747 162.161H125.275L103.917 123.666H50.8164Z" fill="#92AEC6" stroke="#21784F" stroke-width="1.73928" stroke-linecap="round" stroke-linejoin="round"/>
<path d="M103.958 123.666L74.3903 176.961H0.871094L30.4388 123.666H103.958Z" fill="white" stroke="#21784F" stroke-width="1.73928" stroke-linecap="round" stroke-linejoin="round"/>
<path d="M92.2351 131.468L93.3135 129.519H38.0393L36.9609 131.468H92.2351Z" fill="#21784F"/>
<path d="M87.825 139.418L89.3904 136.588H34.1161L32.5508 139.418H87.825Z" fill="#21784F"/>
<path d="M84.7304 144.591L86.3044 141.769H31.0302L29.4648 144.591H84.7304Z" fill="#21784F"/>
<path d="M81.6366 149.763L83.2107 146.941H27.9364L26.3711 149.763H81.6366Z" fill="#21784F"/>
<path d="M78.5555 154.944L80.1295 152.113H24.8553L23.2812 154.944H78.5555Z" fill="#21784F"/>
<path d="M32.3723 166.494L33.9376 163.663H11.5966L10.0312 166.494H32.3723Z" fill="#21784F"/>
<path d="M71.3527 166.494L72.9268 163.663H50.5858L49.0117 166.494H71.3527Z" fill="#21784F"/>
<path d="M148.919 114.264L150.484 111.442H128.143L126.578 114.264H148.919Z" fill="#21784F"/>
<path d="M208.104 193.566C191.576 193.566 177.688 199.921 173.668 208.531V218.808C177.688 227.425 191.583 232.502 208.104 232.502C224.625 232.502 238.724 227.329 242.628 218.617V208.722C238.724 200.01 224.747 193.566 208.104 193.566Z" fill="#436FD0" stroke="#21784F" stroke-width="1.57795" stroke-linecap="round" stroke-linejoin="round"/>
<path d="M242.626 209.118C242.626 217.674 227.166 224.609 208.102 224.609C189.037 224.609 173.57 217.674 173.57 209.118C173.57 200.563 189.03 193.62 208.102 193.62C227.173 193.62 242.626 200.556 242.626 209.118Z" fill="white" stroke="#21784F" stroke-width="1.57795" stroke-linecap="round" stroke-linejoin="round"/>
<path d="M237.772 209.119C237.772 216.471 224.482 222.437 208.097 222.437C191.712 222.437 178.422 216.478 178.422 209.119C178.422 201.759 191.712 195.8 208.097 195.8C224.482 195.8 237.772 201.759 237.772 209.119Z" fill="white" stroke="#21784F" stroke-width="1.57795" stroke-linecap="round" stroke-linejoin="round"/>
<path d="M227.431 209.119C227.431 213.909 218.773 217.797 208.094 217.797C197.416 217.797 188.758 213.909 188.758 209.119C188.758 204.329 197.416 200.44 208.094 200.44C218.773 200.44 227.431 204.322 227.431 209.119Z" fill="#436FD0"/>
<path d="M183.797 209.118C183.797 203.098 194.672 198.213 208.092 198.213" stroke="#21784F" stroke-width="1.57795" stroke-linecap="round" stroke-linejoin="round"/>
<path d="M191.752 217.188C188.664 215.931 186.304 214.318 184.984 212.494" stroke="#21784F" stroke-width="1.57795" stroke-linecap="round" stroke-linejoin="round"/>
<path d="M208.097 195.8C207.451 195.8 206.811 195.814 206.172 195.828C221.666 196.272 233.929 202.046 233.929 209.112C233.929 216.177 221.666 221.951 206.172 222.396C206.811 222.416 207.451 222.43 208.097 222.43C224.482 222.43 237.772 216.471 237.772 209.112C237.772 201.752 224.482 195.794 208.097 195.794V195.8Z" fill="#21784F"/>
<path d="M199.74 208.736C198.108 208.736 196.781 208.141 196.781 207.41V203.795C196.781 203.064 198.108 202.463 199.74 202.463H214.764C216.397 202.463 217.73 203.057 217.73 203.795" stroke="#21784F" stroke-width="1.57795" stroke-linecap="round" stroke-linejoin="round"/>
<path d="M197.34 213.669C197.34 214.4 198.666 214.995 200.299 214.995H216.438" stroke="#21784F" stroke-width="1.57795" stroke-linecap="round" stroke-linejoin="round"/>
<path d="M216.451 215.002C218.083 215.002 219.409 214.407 219.409 213.676V210.068C219.409 209.337 218.083 208.736 216.451 208.736H199.746" stroke="#21784F" stroke-width="1.57795" stroke-linecap="round" stroke-linejoin="round"/>
<path d="M208.094 200.877V217.359" stroke="#21784F" stroke-width="1.57795" stroke-linecap="round" stroke-linejoin="round"/>
<g style="mix-blend-mode:multiply">
<path d="M201.98 232.263C202.123 232.147 202.239 231.976 202.409 231.914C219.406 226.12 232.111 198.288 220.242 194.632C218.379 194.263 216.467 194.099 214.577 193.901C212.475 193.682 210.312 193.566 208.102 193.566C205.891 193.566 203.742 193.682 201.654 193.901C185.67 195.254 173.57 201.554 173.57 209.119C173.57 209.488 173.604 209.857 173.666 210.219V218.815C177.182 226.345 188.228 231.163 201.98 232.263Z" fill="#808285"/>
</g>
<path d="M168.661 191.386C153.895 198.828 144.312 210.765 144.563 220.277L149.148 229.461C156.588 235.352 171.273 233.636 186.039 226.188C200.914 218.685 211.096 207.766 210.701 198.22L206.28 189.377C198.901 183.35 183.536 183.883 168.654 191.379L168.661 191.386Z" fill="#436FD0" stroke="#21784F" stroke-width="1.57795" stroke-linecap="round" stroke-linejoin="round"/>
<path d="M206.458 189.733C210.28 197.379 199.554 210.547 182.51 219.136C165.465 227.726 148.55 228.491 144.734 220.845C140.912 213.198 151.637 200.03 168.682 191.441C185.727 182.852 202.642 182.086 206.458 189.733Z" fill="white" stroke="#21784F" stroke-width="1.57795" stroke-linecap="round" stroke-linejoin="round"/>
<path d="M202.127 191.919C205.412 198.493 196.196 209.809 181.546 217.189C166.896 224.569 152.361 225.225 149.082 218.658C145.797 212.084 155.013 200.768 169.664 193.388C184.314 186.002 198.849 185.346 202.134 191.919H202.127Z" fill="white" stroke="#21784F" stroke-width="1.57795" stroke-linecap="round" stroke-linejoin="round"/>
<path d="M192.883 196.58C195.025 200.864 189.019 208.237 179.477 213.048C169.934 217.858 160.46 218.289 158.324 214.004C156.182 209.72 162.187 202.347 171.73 197.536C181.273 192.726 190.747 192.295 192.883 196.58Z" fill="#436FD0"/>
<path d="M153.883 216.239C151.196 210.854 158.739 201.588 170.73 195.548" stroke="#21784F" stroke-width="1.57795" stroke-linecap="round" stroke-linejoin="round"/>
<path d="M164.587 219.867C161.268 220.134 158.438 219.758 156.445 218.719" stroke="#21784F" stroke-width="1.57795" stroke-linecap="round" stroke-linejoin="round"/>
<path d="M169.652 193.389C169.074 193.682 168.51 193.976 167.945 194.284C181.99 187.703 195.525 187.341 198.681 193.655C201.837 199.969 193.451 210.656 179.807 218.036C180.385 217.763 180.963 217.489 181.535 217.196C196.185 209.809 205.401 198.5 202.116 191.926C198.831 185.353 184.296 186.009 169.646 193.395L169.652 193.389Z" fill="#21784F"/>
<path d="M167.962 208.708C166.5 209.446 165.051 209.508 164.725 208.859L163.113 205.627C162.786 204.971 163.705 203.843 165.167 203.105L178.6 196.333C180.062 195.595 181.511 195.534 181.837 196.19" stroke="#B5BAB8" stroke-width="1.57795" stroke-linecap="round" stroke-linejoin="round"/>
<path d="M168.02 214.203C168.346 214.859 169.795 214.79 171.257 214.052L185.683 206.782" stroke="#B5BAB8" stroke-width="1.57795" stroke-linecap="round" stroke-linejoin="round"/>
<path d="M185.693 206.788C187.156 206.05 188.074 204.923 187.748 204.267L186.136 201.035C185.809 200.379 184.36 200.447 182.898 201.178L167.969 208.702" stroke="#B5BAB8" stroke-width="1.57795" stroke-linecap="round" stroke-linejoin="round"/>
<path d="M171.918 197.919L179.277 212.658" stroke="#B5BAB8" stroke-width="1.57795" stroke-linecap="round" stroke-linejoin="round"/>
</svg>
